<?xml version="1.0" encoding="UTF-8" standalone="no"?>
<!DOCTYPE svg PUBLIC "-//W3C//DTD SVG 1.1//EN"
 "http://www.w3.org/Graphics/SVG/1.1/DTD/svg11.dtd">
<!-- Generated by graphviz version 2.38.0 (20140413.2041)
 -->
<!-- Title: test Pages: 1 -->
<svg width="1050pt" height="428pt"
 viewBox="0.00 0.00 1050.24 428.33" xmlns="http://www.w3.org/2000/svg" xmlns:xlink="http://www.w3.org/1999/xlink">
<g id="graph0" class="graph" transform="scale(1 1) rotate(0) translate(4 424.333)">
<title>test</title>
<polygon fill="#151515" stroke="none" points="-4,4 -4,-424.333 1046.24,-424.333 1046.24,4 -4,4"/>
<!-- daemon -->
<g id="node1" class="node"><title>daemon</title>
<g id="a_node1"><a xlink:href="magic_daemon_full.html" xlink:title="Daemon">
<ellipse fill="none" stroke="magenta" cx="153.446" cy="-116.61" rx="40.8928" ry="18"/>
<text text-anchor="middle" x="153.446" y="-112.91" font-family="Times,serif" font-size="14.00" fill="#ebc72d">Daemon</text>
</a>
</g>
</g>
<!-- summoner_guild -->
<g id="node2" class="node"><title>summoner_guild</title>
<g id="a_node2"><a xlink:href="magic_summoner_guild_full.html" xlink:title="Summoner\nGuild">
<polygon fill="none" stroke="red" points="311.547,-325.45 244.446,-348.548 177.344,-325.45 177.407,-288.076 311.485,-288.076 311.547,-325.45"/>
<text text-anchor="middle" x="244.446" y="-318.92" font-family="Times,serif" font-size="14.00" fill="#ebc72d">Summoner</text>
<text text-anchor="middle" x="244.446" y="-303.92" font-family="Times,serif" font-size="14.00" fill="#ebc72d">Guild</text>
</a>
</g>
</g>
<!-- summoner -->
<g id="node4" class="node"><title>summoner</title>
<g id="a_node4"><a xlink:href="magic_summoner_full.html" xlink:title="Summoner">
<ellipse fill="none" stroke="magenta" cx="271.446" cy="-212.693" rx="50.0912" ry="18"/>
<text text-anchor="middle" x="271.446" y="-208.993" font-family="Times,serif" font-size="14.00" fill="#ebc72d">Summoner</text>
</a>
</g>
</g>
<!-- summoner_guild&#45;&gt;summoner -->
<g id="edge28" class="edge"><title>summoner_guild&#45;&gt;summoner</title>
<path fill="none" stroke="#ebc72d" d="M251.469,-287.996C255.367,-273.499 260.209,-255.49 264.149,-240.833"/>
<polygon fill="#ebc72d" stroke="#ebc72d" points="267.616,-241.417 266.833,-230.851 260.856,-239.6 267.616,-241.417"/>
</g>
<!-- dragon_rider -->
<g id="node3" class="node"><title>dragon_rider</title>
<g id="a_node3"><a xlink:href="magic_dragon_rider_full.html" xlink:title="Dragon\nRider">
<ellipse fill="none" stroke="magenta" cx="600.446" cy="-116.61" rx="40.1111" ry="26.7407"/>
<text text-anchor="middle" x="600.446" y="-120.41" font-family="Times,serif" font-size="14.00" fill="#ebc72d">Dragon</text>
<text text-anchor="middle" x="600.446" y="-105.41" font-family="Times,serif" font-size="14.00" fill="#ebc72d">Rider</text>
</a>
</g>
</g>
<!-- summoner&#45;&gt;daemon -->
<g id="edge23" class="edge"><title>summoner&#45;&gt;daemon</title>
<path fill="none" stroke="#ebc72d" d="M251.695,-195.946C232.148,-180.361 202.081,-156.388 180.357,-139.067"/>
<polygon fill="#ebc72d" stroke="#ebc72d" points="182.479,-136.283 172.478,-132.785 178.115,-141.756 182.479,-136.283"/>
</g>
<!-- summoner&#45;&gt;dragon_rider -->
<g id="edge25" class="edge"><title>summoner&#45;&gt;dragon_rider</title>
<path fill="none" stroke="#ebc72d" stroke-dasharray="5,2" d="M300.931,-197.946C315.563,-191.572 333.659,-184.347 350.446,-179.48 437.611,-154.208 465.632,-173.017 551.446,-143.48 554.925,-142.283 558.458,-140.865 561.952,-139.321"/>
<polygon fill="#ebc72d" stroke="#ebc72d" points="563.515,-142.453 571.043,-134.999 560.509,-136.132 563.515,-142.453"/>
</g>
<!-- dragon -->
<g id="node8" class="node"><title>dragon</title>
<g id="a_node8"><a xlink:href="magic_dragon_full.html" xlink:title="Dragon">
<ellipse fill="none" stroke="magenta" cx="505.446" cy="-116.61" rx="37.0935" ry="18"/>
<text text-anchor="middle" x="505.446" y="-112.91" font-family="Times,serif" font-size="14.00" fill="#ebc72d">Dragon</text>
</a>
</g>
</g>
<!-- summoner&#45;&gt;dragon -->
<g id="edge24" class="edge"><title>summoner&#45;&gt;dragon</title>
<path fill="none" stroke="#ebc72d" d="M302.397,-198.502C316.898,-192.469 334.463,-185.37 350.446,-179.48 398.317,-161.838 412.772,-164.081 459.446,-143.48 464.349,-141.316 469.414,-138.79 474.31,-136.18"/>
<polygon fill="#ebc72d" stroke="#ebc72d" points="476.376,-139.037 483.431,-131.133 472.986,-132.913 476.376,-139.037"/>
</g>
<!-- ghost_armor -->
<g id="node13" class="node"><title>ghost_armor</title>
<g id="a_node13"><a xlink:href="magic_ghost_armor_full.html" xlink:title="Ghost\nArmor">
<ellipse fill="none" stroke="magenta" cx="249.446" cy="-116.61" rx="37.4533" ry="26.7407"/>
<text text-anchor="middle" x="249.446" y="-120.41" font-family="Times,serif" font-size="14.00" fill="#ebc72d">Ghost</text>
<text text-anchor="middle" x="249.446" y="-105.41" font-family="Times,serif" font-size="14.00" fill="#ebc72d">Armor</text>
</a>
</g>
</g>
<!-- summoner&#45;&gt;ghost_armor -->
<g id="edge27" class="edge"><title>summoner&#45;&gt;ghost_armor</title>
<path fill="none" stroke="#ebc72d" d="M267.411,-194.437C264.716,-182.911 261.073,-167.333 257.772,-153.217"/>
<polygon fill="#ebc72d" stroke="#ebc72d" points="261.132,-152.216 255.447,-143.276 254.316,-153.81 261.132,-152.216"/>
</g>
<!-- behemoth -->
<g id="node16" class="node"><title>behemoth</title>
<g id="a_node16"><a xlink:href="magic_behemoth_full.html" xlink:title="Behemoth">
<ellipse fill="none" stroke="magenta" cx="47.4458" cy="-116.61" rx="47.3916" ry="18"/>
<text text-anchor="middle" x="47.4458" y="-112.91" font-family="Times,serif" font-size="14.00" fill="#ebc72d">Behemoth</text>
</a>
</g>
</g>
<!-- summoner&#45;&gt;behemoth -->
<g id="edge22" class="edge"><title>summoner&#45;&gt;behemoth</title>
<path fill="none" stroke="#ebc72d" stroke-dasharray="1,5" d="M246.682,-196.873C236.316,-191.014 224.008,-184.497 212.446,-179.48 165.643,-159.173 150.902,-162.208 103.446,-143.48 97.366,-141.081 91.0022,-138.355 84.8355,-135.595"/>
<polygon fill="#ebc72d" stroke="#ebc72d" points="85.9261,-132.245 75.3762,-131.272 83.0162,-138.612 85.9261,-132.245"/>
</g>
<!-- faster_movement -->
<g id="node20" class="node"><title>faster_movement</title>
<ellipse fill="none" stroke="black" cx="377.446" cy="-116.61" rx="72.5877" ry="18"/>
<text text-anchor="middle" x="377.446" y="-112.91" font-family="Times,serif" font-size="14.00">faster_movement</text>
</g>
<!-- summoner&#45;&gt;faster_movement -->
<g id="edge26" class="edge"><title>summoner&#45;&gt;faster_movement</title>
<path fill="none" stroke="#ebc72d" stroke-dasharray="1,5" d="M289.427,-195.734C306.351,-180.712 331.898,-158.037 351.117,-140.979"/>
<polygon fill="#ebc72d" stroke="#ebc72d" points="353.505,-143.539 358.661,-134.283 348.859,-138.304 353.505,-143.539"/>
</g>
<!-- evil_dragon -->
<g id="node5" class="node"><title>evil_dragon</title>
<g id="a_node5"><a xlink:href="magic_evil_dragon_full.html" xlink:title="Evil\nDragon">
<ellipse fill="none" stroke="magenta" cx="586.446" cy="-26.8701" rx="40.1111" ry="26.7407"/>
<text text-anchor="middle" x="586.446" y="-30.6701" font-family="Times,serif" font-size="14.00" fill="#ebc72d">Evil</text>
<text text-anchor="middle" x="586.446" y="-15.6701" font-family="Times,serif" font-size="14.00" fill="#ebc72d">Dragon</text>
</a>
</g>
</g>
<!-- wicker_behemoth -->
<g id="node6" class="node"><title>wicker_behemoth</title>
<g id="a_node6"><a xlink:href="magic_wicker_behemoth_full.html" xlink:title="Wicker\nBehemoth">
<polygon fill="none" stroke="red" points="203.055,-223.023 139.446,-246.121 75.8365,-223.023 75.8959,-185.65 202.996,-185.65 203.055,-223.023"/>
<text text-anchor="middle" x="139.446" y="-216.493" font-family="Times,serif" font-size="14.00" fill="#ebc72d">Wicker</text>
<text text-anchor="middle" x="139.446" y="-201.493" font-family="Times,serif" font-size="14.00" fill="#ebc72d">Behemoth</text>
</a>
</g>
</g>
<!-- wicker_behemoth&#45;&gt;behemoth -->
<g id="edge29" class="edge"><title>wicker_behemoth&#45;&gt;behemoth</title>
<path fill="none" stroke="#ebc72d" stroke-dasharray="5,2" d="M113.819,-185.486C100.218,-171.578 83.6407,-154.625 70.4554,-141.141"/>
<polygon fill="#ebc72d" stroke="#ebc72d" points="72.6261,-138.355 63.1322,-133.652 67.6212,-143.249 72.6261,-138.355"/>
</g>
<!-- battlemage -->
<g id="node7" class="node"><title>battlemage</title>
<g id="a_node7"><a xlink:href="magic_battlemage_full.html" xlink:title="Battlemage">
<ellipse fill="none" stroke="magenta" cx="749.446" cy="-315.12" rx="51.1914" ry="18"/>
<text text-anchor="middle" x="749.446" y="-311.42" font-family="Times,serif" font-size="14.00" fill="#ebc72d">Battlemage</text>
</a>
</g>
</g>
<!-- archmage -->
<g id="node18" class="node"><title>archmage</title>
<g id="a_node18"><a xlink:href="magic_archmage_full.html" xlink:title="Archmage">
<ellipse fill="none" stroke="magenta" cx="747.446" cy="-212.693" rx="48.1917" ry="18"/>
<text text-anchor="middle" x="747.446" y="-208.993" font-family="Times,serif" font-size="14.00" fill="#ebc72d">Archmage</text>
</a>
</g>
</g>
<!-- battlemage&#45;&gt;archmage -->
<g id="edge4" class="edge"><title>battlemage&#45;&gt;archmage</title>
<path fill="none" stroke="#ebc72d" stroke-dasharray="5,2" d="M749.107,-297.084C748.801,-281.719 748.345,-258.851 747.989,-240.947"/>
<polygon fill="#ebc72d" stroke="#ebc72d" points="751.485,-240.741 747.787,-230.813 744.487,-240.881 751.485,-240.741"/>
</g>
<!-- dragon&#45;&gt;evil_dragon -->
<g id="edge5" class="edge"><title>dragon&#45;&gt;evil_dragon</title>
<path fill="none" stroke="#ebc72d" stroke-dasharray="5,2" d="M519.927,-99.924C530.677,-88.2789 545.67,-72.0392 558.7,-57.9245"/>
<polygon fill="#ebc72d" stroke="#ebc72d" points="561.486,-60.0661 565.698,-50.3443 556.343,-55.3178 561.486,-60.0661"/>
</g>
<!-- power_golem -->
<g id="node9" class="node"><title>power_golem</title>
<g id="a_node9"><a xlink:href="magic_power_golem_full.html" xlink:title="Power\nGolem">
<polygon fill="none" stroke="red" points="453.842,-223.023 406.446,-246.121 359.049,-223.023 359.094,-185.65 453.798,-185.65 453.842,-223.023"/>
<text text-anchor="middle" x="406.446" y="-216.493" font-family="Times,serif" font-size="14.00" fill="#ebc72d">Power</text>
<text text-anchor="middle" x="406.446" y="-201.493" font-family="Times,serif" font-size="14.00" fill="#ebc72d">Golem</text>
</a>
</g>
</g>
<!-- energy_source -->
<g id="node10" class="node"><title>energy_source</title>
<g id="a_node10"><a xlink:href="magic_energy_source_full.html" xlink:title="Energy\nSource">
<polygon fill="none" stroke="red" points="680.337,-325.45 631.446,-348.548 582.554,-325.45 582.6,-288.076 680.292,-288.076 680.337,-325.45"/>
<text text-anchor="middle" x="631.446" y="-318.92" font-family="Times,serif" font-size="14.00" fill="#ebc72d">Energy</text>
<text text-anchor="middle" x="631.446" y="-303.92" font-family="Times,serif" font-size="14.00" fill="#ebc72d">Source</text>
</a>
</g>
</g>
<!-- energy_source&#45;&gt;evil_dragon -->
<g id="edge7" class="edge"><title>energy_source&#45;&gt;evil_dragon</title>
<path fill="none" stroke="#ebc72d" stroke-dasharray="1,5" d="M641.055,-288C655.322,-244.845 677.566,-156.769 649.446,-89.7401 643.624,-75.8623 633.002,-63.5297 622.118,-53.5981"/>
<polygon fill="#ebc72d" stroke="#ebc72d" points="624.077,-50.6665 614.212,-46.8029 619.515,-55.9753 624.077,-50.6665"/>
</g>
<!-- energy_source&#45;&gt;archmage -->
<g id="edge6" class="edge"><title>energy_source&#45;&gt;archmage</title>
<path fill="none" stroke="#ebc72d" stroke-dasharray="1,5" d="M661.621,-287.996C680.133,-271.97 703.601,-251.652 721.316,-236.315"/>
<polygon fill="#ebc72d" stroke="#ebc72d" points="723.743,-238.844 729.012,-229.652 719.161,-233.551 723.743,-238.844"/>
</g>
<!-- golem -->
<g id="node11" class="node"><title>golem</title>
<g id="a_node11"><a xlink:href="magic_golem_full.html" xlink:title="Golem">
<polygon fill="none" stroke="red" points="416.71,-320.682 373.446,-333.12 330.181,-320.682 330.222,-300.558 416.67,-300.558 416.71,-320.682"/>
<text text-anchor="middle" x="373.446" y="-311.42" font-family="Times,serif" font-size="14.00" fill="#ebc72d">Golem</text>
</a>
</g>
</g>
<!-- golem&#45;&gt;power_golem -->
<g id="edge8" class="edge"><title>golem&#45;&gt;power_golem</title>
<path fill="none" stroke="#ebc72d" stroke-dasharray="5,2" d="M378.034,-300.156C382.15,-287.631 388.383,-268.664 393.963,-251.682"/>
<polygon fill="#ebc72d" stroke="#ebc72d" points="397.355,-252.57 397.152,-241.977 390.705,-250.384 397.355,-252.57"/>
</g>
<!-- mage_tower -->
<g id="node12" class="node"><title>mage_tower</title>
<g id="a_node12"><a xlink:href="magic_mage_tower_full.html" xlink:title="Mage\nTower">
<polygon fill="none" stroke="red" points="101.845,-325.45 56.4458,-348.548 11.0464,-325.45 11.0888,-288.076 101.803,-288.076 101.845,-325.45"/>
<text text-anchor="middle" x="56.4458" y="-318.92" font-family="Times,serif" font-size="14.00" fill="#ebc72d">Mage</text>
<text text-anchor="middle" x="56.4458" y="-303.92" font-family="Times,serif" font-size="14.00" fill="#ebc72d">Tower</text>
</a>
</g>
</g>
<!-- initiate -->
<g id="node15" class="node"><title>initiate</title>
<g id="a_node15"><a xlink:href="magic_initiate_full.html" xlink:title="Initiate">
<ellipse fill="none" stroke="magenta" cx="499.446" cy="-402.333" rx="35.9954" ry="18"/>
<text text-anchor="middle" x="499.446" y="-398.633" font-family="Times,serif" font-size="14.00" fill="#ebc72d">Initiate</text>
</a>
</g>
</g>
<!-- mage_tower&#45;&gt;behemoth -->
<g id="edge20" class="edge"><title>mage_tower&#45;&gt;behemoth</title>
<path fill="none" stroke="#ebc72d" stroke-dasharray="1,5" d="M55.2507,-288.025C53.549,-250.871 50.4423,-183.036 48.7057,-145.121"/>
<polygon fill="#ebc72d" stroke="#ebc72d" points="52.1882,-144.655 48.2342,-134.825 45.1955,-144.975 52.1882,-144.655"/>
</g>
<!-- archmage_tower -->
<g id="node14" class="node"><title>archmage_tower</title>
<g id="a_node14"><a xlink:href="magic_archmage_tower_full.html" xlink:title="Archmage\nTower">
<polygon fill="none" stroke="red" points="564.303,-325.45 499.446,-348.548 434.589,-325.45 434.649,-288.076 564.242,-288.076 564.303,-325.45"/>
<text text-anchor="middle" x="499.446" y="-318.92" font-family="Times,serif" font-size="14.00" fill="#ebc72d">Archmage</text>
<text text-anchor="middle" x="499.446" y="-303.92" font-family="Times,serif" font-size="14.00" fill="#ebc72d">Tower</text>
</a>
</g>
</g>
<!-- archmage_tower&#45;&gt;dragon -->
<g id="edge2" class="edge"><title>archmage_tower&#45;&gt;dragon</title>
<path fill="none" stroke="#ebc72d" stroke-dasharray="1,5" d="M500.243,-288.025C501.377,-250.871 503.448,-183.036 504.606,-145.121"/>
<polygon fill="#ebc72d" stroke="#ebc72d" points="508.113,-144.927 504.92,-134.825 501.117,-144.714 508.113,-144.927"/>
</g>
<!-- archmage_tower&#45;&gt;power_golem -->
<g id="edge3" class="edge"><title>archmage_tower&#45;&gt;power_golem</title>
<path fill="none" stroke="#ebc72d" stroke-dasharray="1,5" d="M475.254,-287.996C462.721,-274.462 447.354,-257.868 434.324,-243.798"/>
<polygon fill="#ebc72d" stroke="#ebc72d" points="436.721,-241.235 427.358,-236.276 431.585,-245.991 436.721,-241.235"/>
</g>
<!-- archmage_tower&#45;&gt;archmage -->
<g id="edge1" class="edge"><title>archmage_tower&#45;&gt;archmage</title>
<path fill="none" stroke="#ebc72d" stroke-dasharray="1,5" d="M559.14,-287.909C563.971,-285.857 568.784,-283.834 573.446,-281.907 618.257,-263.377 670.048,-243.234 705.398,-229.677"/>
<polygon fill="#ebc72d" stroke="#ebc72d" points="706.825,-232.879 714.913,-226.035 704.322,-226.341 706.825,-232.879"/>
</g>
<!-- initiate&#45;&gt;summoner_guild -->
<g id="edge15" class="edge"><title>initiate&#45;&gt;summoner_guild</title>
<path fill="none" stroke="#ebc72d" stroke-width="2" d="M468.572,-393.219C432.817,-383.574 372.311,-366.487 321.446,-348.333 313.017,-345.325 304.174,-341.893 295.607,-338.418"/>
<polygon fill="#ebc72d" stroke="#ebc72d" stroke-width="2" points="296.668,-335.07 286.089,-334.496 294.001,-341.542 296.668,-335.07"/>
</g>
<!-- initiate&#45;&gt;wicker_behemoth -->
<g id="edge17" class="edge"><title>initiate&#45;&gt;wicker_behemoth</title>
<path fill="none" stroke="#ebc72d" stroke-width="2" d="M463.775,-400.546C387.171,-398.1 210.47,-388.172 168.446,-348.333 143.687,-324.862 137.518,-285.731 136.908,-255.687"/>
<polygon fill="#ebc72d" stroke="#ebc72d" stroke-width="2" points="140.408,-255.478 136.903,-245.48 133.408,-255.481 140.408,-255.478"/>
</g>
<!-- initiate&#45;&gt;battlemage -->
<g id="edge10" class="edge"><title>initiate&#45;&gt;battlemage</title>
<path fill="none" stroke="#ebc72d" stroke-dasharray="5,2" d="M531.758,-394.612C570.147,-386.108 635.751,-369.928 689.446,-348.333 698.226,-344.802 707.382,-340.329 715.82,-335.85"/>
<polygon fill="#ebc72d" stroke="#ebc72d" points="717.544,-338.896 724.642,-331.03 714.188,-332.753 717.544,-338.896"/>
</g>
<!-- initiate&#45;&gt;energy_source -->
<g id="edge11" class="edge"><title>initiate&#45;&gt;energy_source</title>
<path fill="none" stroke="#ebc72d" stroke-width="2" d="M520.654,-387.642C540.385,-374.904 570.23,-355.638 593.975,-340.31"/>
<polygon fill="#ebc72d" stroke="#ebc72d" stroke-width="2" points="595.913,-343.224 602.417,-334.86 592.117,-337.343 595.913,-343.224"/>
</g>
<!-- initiate&#45;&gt;golem -->
<g id="edge12" class="edge"><title>initiate&#45;&gt;golem</title>
<path fill="none" stroke="#ebc72d" stroke-width="2" d="M478.921,-387.452C457.279,-372.816 423.12,-349.714 399.57,-333.787"/>
<polygon fill="#ebc72d" stroke="#ebc72d" stroke-width="2" points="401.356,-330.77 391.112,-328.067 397.434,-336.569 401.356,-330.77"/>
</g>
<!-- initiate&#45;&gt;mage_tower -->
<g id="edge14" class="edge"><title>initiate&#45;&gt;mage_tower</title>
<path fill="none" stroke="#ebc72d" stroke-width="2" d="M453.628,-398.703C383.049,-393.775 243.999,-380.57 130.446,-348.333 119.61,-345.257 108.282,-340.936 97.8401,-336.456"/>
<polygon fill="#ebc72d" stroke="#ebc72d" stroke-width="2" points="453.73,-402.218 463.943,-399.398 454.201,-395.234 453.73,-402.218"/>
<polygon fill="#ebc72d" stroke="#ebc72d" stroke-width="2" points="99.099,-333.185 88.539,-332.327 96.2591,-339.583 99.099,-333.185"/>
</g>
<!-- initiate&#45;&gt;archmage_tower -->
<g id="edge9" class="edge"><title>initiate&#45;&gt;archmage_tower</title>
<path fill="none" stroke="#ebc72d" stroke-width="2" d="M499.446,-384.089C499.446,-376.669 499.446,-367.635 499.446,-358.608"/>
<polygon fill="#ebc72d" stroke="#ebc72d" stroke-width="2" points="502.946,-358.506 499.446,-348.506 495.946,-358.506 502.946,-358.506"/>
</g>
<!-- tower_of_souls -->
<g id="node17" class="node"><title>tower_of_souls</title>
<g id="a_node17"><a xlink:href="magic_tower_of_souls_full.html" xlink:title="Tower\nOf Souls">
<polygon fill="none" stroke="red" points="932.071,-325.45 875.446,-348.548 818.821,-325.45 818.874,-288.076 932.018,-288.076 932.071,-325.45"/>
<text text-anchor="middle" x="875.446" y="-318.92" font-family="Times,serif" font-size="14.00" fill="#ebc72d">Tower</text>
<text text-anchor="middle" x="875.446" y="-303.92" font-family="Times,serif" font-size="14.00" fill="#ebc72d">Of Souls</text>
</a>
</g>
</g>
<!-- initiate&#45;&gt;tower_of_souls -->
<g id="edge16" class="edge"><title>initiate&#45;&gt;tower_of_souls</title>
<path fill="none" stroke="#ebc72d" stroke-width="2" d="M534.623,-398.598C592.936,-393.344 712.783,-379.478 809.446,-348.333 817.04,-345.886 824.866,-342.711 832.355,-339.309"/>
<polygon fill="#ebc72d" stroke="#ebc72d" stroke-width="2" points="834.083,-342.363 841.62,-334.917 831.084,-336.038 834.083,-342.363"/>
</g>
<!-- library -->
<g id="node19" class="node"><title>library</title>
<g id="a_node19"><a xlink:href="magic_library_full.html" xlink:title="Library">
<polygon fill="none" stroke="red" points="1042.03,-320.682 996.446,-333.12 950.86,-320.682 950.903,-300.558 1041.99,-300.558 1042.03,-320.682"/>
<text text-anchor="middle" x="996.446" y="-311.42" font-family="Times,serif" font-size="14.00" fill="#ebc72d">Library</text>
</a>
</g>
</g>
<!-- initiate&#45;&gt;library -->
<g id="edge13" class="edge"><title>initiate&#45;&gt;library</title>
<path fill="none" stroke="#ebc72d" stroke-width="2" d="M535.185,-401.92C611.787,-402.139 796.594,-397.074 941.446,-348.333 951.672,-344.892 962.086,-339.4 971.062,-333.917"/>
<polygon fill="#ebc72d" stroke="#ebc72d" stroke-width="2" points="972.965,-336.855 979.499,-328.515 969.19,-330.96 972.965,-336.855"/>
</g>
<!-- library&#45;&gt;dragon_rider -->
<g id="edge19" class="edge"><title>library&#45;&gt;dragon_rider</title>
<path fill="none" stroke="#ebc72d" stroke-dasharray="1,5" d="M980.612,-300.336C949.106,-273.545 875.461,-214.049 804.446,-179.48 753.615,-154.737 690.812,-137.493 648.422,-127.609"/>
<polygon fill="#ebc72d" stroke="#ebc72d" points="649.166,-124.189 638.637,-125.374 647.607,-131.013 649.166,-124.189"/>
</g>
<!-- library&#45;&gt;archmage -->
<g id="edge18" class="edge"><title>library&#45;&gt;archmage</title>
<path fill="none" stroke="#ebc72d" stroke-dasharray="1,5" d="M975.279,-300.438C965.263,-294.302 952.992,-287.258 941.446,-281.907 892.622,-259.28 834.039,-239.651 794.114,-227.333"/>
<polygon fill="#ebc72d" stroke="#ebc72d" points="794.969,-223.935 784.383,-224.362 792.925,-230.629 794.969,-223.935"/>
</g>
</g>
</svg>
