<?xml version="1.0" encoding="UTF-8" standalone="no"?>
<!DOCTYPE svg PUBLIC "-//W3C//DTD SVG 1.1//EN"
 "http://www.w3.org/Graphics/SVG/1.1/DTD/svg11.dtd">
<!-- Generated by graphviz version 2.38.0 (20140413.2041)
 -->
<!-- Title: test Pages: 1 -->
<svg width="416pt" height="484pt"
 viewBox="0.00 0.00 415.62 484.13" xmlns="http://www.w3.org/2000/svg" xmlns:xlink="http://www.w3.org/1999/xlink">
<g id="graph0" class="graph" transform="scale(1 1) rotate(0) translate(4 480.132)">
<title>test</title>
<polygon fill="#151515" stroke="none" points="-4,4 -4,-480.132 411.616,-480.132 411.616,4 -4,4"/>
<!-- summoner_guild -->
<g id="node1" class="node"><title>summoner_guild</title>
<g id="a_node1"><a xlink:href="magic_summoner_guild_full.html" xlink:title="Summoner\nGuild">
<polygon fill="none" stroke="red" points="206.906,-350.822 139.804,-373.92 72.7028,-350.822 72.7654,-313.449 206.843,-313.449 206.906,-350.822"/>
<text text-anchor="middle" x="139.804" y="-344.293" font-family="Times,serif" font-size="14.00" fill="#ebc72d">Summoner</text>
<text text-anchor="middle" x="139.804" y="-329.293" font-family="Times,serif" font-size="14.00" fill="#ebc72d">Guild</text>
</a>
</g>
</g>
<!-- wicker_behemoth -->
<g id="node2" class="node"><title>wicker_behemoth</title>
<g id="a_node2"><a xlink:href="magic_wicker_behemoth_full.html" xlink:title="Wicker\nBehemoth">
<polygon fill="none" stroke="red" points="127.414,-248.396 63.8043,-271.494 0.195062,-248.396 0.254434,-211.022 127.354,-211.022 127.414,-248.396"/>
<text text-anchor="middle" x="63.8043" y="-241.866" font-family="Times,serif" font-size="14.00" fill="#ebc72d">Wicker</text>
<text text-anchor="middle" x="63.8043" y="-226.866" font-family="Times,serif" font-size="14.00" fill="#ebc72d">Behemoth</text>
</a>
</g>
</g>
<!-- summoner_guild&#45;&gt;wicker_behemoth -->
<g id="edge11" class="edge"><title>summoner_guild&#45;&gt;wicker_behemoth</title>
<path fill="none" stroke="#ebc72d" stroke-dasharray="1,5" d="M120.035,-313.369C110.638,-300.952 99.2917,-285.959 89.2595,-272.703"/>
<polygon fill="#ebc72d" stroke="#ebc72d" points="92.0375,-270.573 83.2121,-264.711 86.4557,-274.798 92.0375,-270.573"/>
</g>
<!-- library -->
<g id="node9" class="node"><title>library</title>
<g id="a_node9"><a xlink:href="magic_library_full.html" xlink:title="Library">
<polygon fill="none" stroke="red" points="257.39,-243.628 211.804,-256.066 166.219,-243.628 166.261,-223.504 257.347,-223.504 257.39,-243.628"/>
<text text-anchor="middle" x="211.804" y="-234.366" font-family="Times,serif" font-size="14.00" fill="#ebc72d">Library</text>
</a>
</g>
</g>
<!-- summoner_guild&#45;&gt;library -->
<g id="edge10" class="edge"><title>summoner_guild&#45;&gt;library</title>
<path fill="none" stroke="#ebc72d" stroke-dasharray="1,5" d="M158.534,-313.369C170.028,-297.337 184.6,-277.011 195.597,-261.672"/>
<polygon fill="#ebc72d" stroke="#ebc72d" points="198.626,-263.454 201.608,-253.287 192.937,-259.375 198.626,-263.454"/>
</g>
<!-- power_golem -->
<g id="node3" class="node"><title>power_golem</title>
<g id="a_node3"><a xlink:href="magic_power_golem_full.html" xlink:title="Power\nGolem">
<polygon fill="none" stroke="red" points="259.201,-43.543 211.804,-66.641 164.408,-43.543 164.452,-6.16955 259.156,-6.16955 259.201,-43.543"/>
<text text-anchor="middle" x="211.804" y="-37.0132" font-family="Times,serif" font-size="14.00" fill="#ebc72d">Power</text>
<text text-anchor="middle" x="211.804" y="-22.0132" font-family="Times,serif" font-size="14.00" fill="#ebc72d">Golem</text>
</a>
</g>
</g>
<!-- energy_source -->
<g id="node4" class="node"><title>energy_source</title>
<g id="a_node4"><a xlink:href="magic_energy_source_full.html" xlink:title="Energy\nSource">
<polygon fill="none" stroke="red" points="322.696,-350.822 273.804,-373.92 224.913,-350.822 224.958,-313.449 322.65,-313.449 322.696,-350.822"/>
<text text-anchor="middle" x="273.804" y="-344.293" font-family="Times,serif" font-size="14.00" fill="#ebc72d">Energy</text>
<text text-anchor="middle" x="273.804" y="-329.293" font-family="Times,serif" font-size="14.00" fill="#ebc72d">Source</text>
</a>
</g>
</g>
<!-- golem -->
<g id="node5" class="node"><title>golem</title>
<g id="a_node5"><a xlink:href="magic_golem_full.html" xlink:title="Golem">
<polygon fill="none" stroke="red" points="129.069,-141.202 85.8043,-153.64 42.5397,-141.202 42.5801,-121.077 129.029,-121.077 129.069,-141.202"/>
<text text-anchor="middle" x="85.8043" y="-131.94" font-family="Times,serif" font-size="14.00" fill="#ebc72d">Golem</text>
</a>
</g>
</g>
<!-- mage_tower -->
<g id="node6" class="node"><title>mage_tower</title>
<g id="a_node6"><a xlink:href="magic_mage_tower_full.html" xlink:title="Mage\nTower">
<polygon fill="none" stroke="red" points="252.204,-453.249 206.804,-476.347 161.405,-453.249 161.447,-415.875 252.161,-415.875 252.204,-453.249"/>
<text text-anchor="middle" x="206.804" y="-446.719" font-family="Times,serif" font-size="14.00" fill="#ebc72d">Mage</text>
<text text-anchor="middle" x="206.804" y="-431.719" font-family="Times,serif" font-size="14.00" fill="#ebc72d">Tower</text>
</a>
</g>
</g>
<!-- mage_tower&#45;&gt;summoner_guild -->
<g id="edge7" class="edge"><title>mage_tower&#45;&gt;summoner_guild</title>
<path fill="none" stroke="#ebc72d" stroke-dasharray="1,5" d="M189.376,-415.795C181.437,-403.896 171.92,-389.631 163.357,-376.796"/>
<polygon fill="#ebc72d" stroke="#ebc72d" points="166.073,-374.561 157.612,-368.185 160.25,-378.446 166.073,-374.561"/>
</g>
<!-- mage_tower&#45;&gt;wicker_behemoth -->
<g id="edge9" class="edge"><title>mage_tower&#45;&gt;wicker_behemoth</title>
<path fill="none" stroke="#ebc72d" stroke-dasharray="1,5" d="M161.123,-433.501C127.84,-424.721 85.0132,-407.321 63.8043,-373.706 46.086,-345.623 48.0315,-307.249 53.2737,-278.652"/>
<polygon fill="#ebc72d" stroke="#ebc72d" points="56.7556,-279.093 55.3238,-268.596 49.8967,-277.695 56.7556,-279.093"/>
</g>
<!-- mage_tower&#45;&gt;energy_source -->
<g id="edge5" class="edge"><title>mage_tower&#45;&gt;energy_source</title>
<path fill="none" stroke="#ebc72d" stroke-dasharray="1,5" d="M224.233,-415.795C232.566,-403.305 242.638,-388.208 251.521,-374.894"/>
<polygon fill="#ebc72d" stroke="#ebc72d" points="254.517,-376.708 257.156,-366.447 248.694,-372.823 254.517,-376.708"/>
</g>
<!-- tower_of_souls -->
<g id="node8" class="node"><title>tower_of_souls</title>
<g id="a_node8"><a xlink:href="magic_tower_of_souls_full.html" xlink:title="Tower\nOf Souls">
<polygon fill="none" stroke="red" points="407.429,-145.969 350.804,-169.067 294.18,-145.969 294.232,-108.596 407.376,-108.596 407.429,-145.969"/>
<text text-anchor="middle" x="350.804" y="-139.44" font-family="Times,serif" font-size="14.00" fill="#ebc72d">Tower</text>
<text text-anchor="middle" x="350.804" y="-124.44" font-family="Times,serif" font-size="14.00" fill="#ebc72d">Of Souls</text>
</a>
</g>
</g>
<!-- mage_tower&#45;&gt;tower_of_souls -->
<g id="edge8" class="edge"><title>mage_tower&#45;&gt;tower_of_souls</title>
<path fill="none" stroke="#ebc72d" stroke-dasharray="1,5" d="M350.804,-339.493C360.738,-284.332 358.321,-219.358 355.07,-178.09"/>
<polygon fill="#ebc72d" stroke="#ebc72d" points="358.537,-177.545 354.21,-167.874 351.561,-178.132 358.537,-177.545"/>
</g>
<!-- mage_tower&#45;&gt;library -->
<g id="edge6" class="edge"><title>mage_tower&#45;&gt;library</title>
<path fill="none" stroke="#ebc72d" stroke-dasharray="1,5" d="M252.451,-429.069C291.408,-414.995 342.431,-387.987 350.804,-341.493"/>
<path fill="none" stroke="#ebc72d" stroke-dasharray="1,5" d="M350.804,-339.493C359.512,-291.142 299.236,-263.396 255.294,-249.782"/>
<polygon fill="#ebc72d" stroke="#ebc72d" points="256.222,-246.407 245.641,-246.933 254.241,-253.121 256.222,-246.407"/>
</g>
<!-- archmage_tower -->
<g id="node7" class="node"><title>archmage_tower</title>
<g id="a_node7"><a xlink:href="magic_archmage_tower_full.html" xlink:title="Archmage\nTower">
<polygon fill="none" stroke="red" points="276.662,-145.969 211.804,-169.067 146.947,-145.969 147.008,-108.596 276.601,-108.596 276.662,-145.969"/>
<text text-anchor="middle" x="211.804" y="-139.44" font-family="Times,serif" font-size="14.00" fill="#ebc72d">Archmage</text>
<text text-anchor="middle" x="211.804" y="-124.44" font-family="Times,serif" font-size="14.00" fill="#ebc72d">Tower</text>
</a>
</g>
</g>
<!-- archmage_tower&#45;&gt;power_golem -->
<g id="edge1" class="edge"><title>archmage_tower&#45;&gt;power_golem</title>
<path fill="none" stroke="#ebc72d" stroke-dasharray="1,5" d="M211.804,-108.516C211.804,-98.8268 211.804,-87.5693 211.804,-76.7922"/>
<polygon fill="#ebc72d" stroke="#ebc72d" points="215.304,-76.6736 211.804,-66.6736 208.304,-76.6737 215.304,-76.6736"/>
</g>
<!-- library&#45;&gt;golem -->
<g id="edge3" class="edge"><title>library&#45;&gt;golem</title>
<path fill="none" stroke="#ebc72d" stroke-dasharray="1,5" d="M194.549,-223.313C172.507,-205.745 134.257,-175.259 109.497,-155.524"/>
<polygon fill="#ebc72d" stroke="#ebc72d" points="111.662,-152.774 101.661,-149.278 107.299,-158.248 111.662,-152.774"/>
</g>
<!-- library&#45;&gt;archmage_tower -->
<g id="edge2" class="edge"><title>library&#45;&gt;archmage_tower</title>
<path fill="none" stroke="#ebc72d" stroke-dasharray="1,5" d="M211.804,-223.102C211.804,-211.696 211.804,-194.946 211.804,-179.219"/>
<polygon fill="#ebc72d" stroke="#ebc72d" points="215.304,-179.098 211.804,-169.098 208.304,-179.098 215.304,-179.098"/>
</g>
<!-- library&#45;&gt;tower_of_souls -->
<g id="edge4" class="edge"><title>library&#45;&gt;tower_of_souls</title>
<path fill="none" stroke="#ebc72d" stroke-dasharray="1,5" d="M230.84,-223.313C252.108,-207.947 287.056,-182.698 313.759,-163.404"/>
<polygon fill="#ebc72d" stroke="#ebc72d" points="316.056,-166.063 322.112,-157.37 311.957,-160.389 316.056,-166.063"/>
</g>
</g>
</svg>
