<?xml version="1.0" encoding="UTF-8" standalone="no"?>
<!DOCTYPE svg PUBLIC "-//W3C//DTD SVG 1.1//EN"
 "http://www.w3.org/Graphics/SVG/1.1/DTD/svg11.dtd">
<!-- Generated by graphviz version 2.38.0 (20140413.2041)
 -->
<!-- Title: test Pages: 1 -->
<svg width="1157pt" height="428pt"
 viewBox="0.00 0.00 1156.61 428.33" xmlns="http://www.w3.org/2000/svg" xmlns:xlink="http://www.w3.org/1999/xlink">
<g id="graph0" class="graph" transform="scale(1 1) rotate(0) translate(4 424.333)">
<title>test</title>
<polygon fill="#151515" stroke="none" points="-4,4 -4,-424.333 1152.61,-424.333 1152.61,4 -4,4"/>
<!-- daemon -->
<g id="node1" class="node"><title>daemon</title>
<g id="a_node1"><a xlink:href="magic_daemon_full.html" xlink:title="Daemon">
<ellipse fill="none" stroke="magenta" cx="204.794" cy="-116.61" rx="40.8928" ry="18"/>
<text text-anchor="middle" x="204.794" y="-112.91" font-family="Times,serif" font-size="14.00" fill="#ebc72d">Daemon</text>
</a>
</g>
</g>
<!-- summoner_guild -->
<g id="node2" class="node"><title>summoner_guild</title>
<g id="a_node2"><a xlink:href="magic_summoner_guild_full.html" xlink:title="Summoner\nGuild">
<polygon fill="none" stroke="red" points="271.895,-325.45 204.794,-348.548 137.692,-325.45 137.755,-288.076 271.832,-288.076 271.895,-325.45"/>
<text text-anchor="middle" x="204.794" y="-318.92" font-family="Times,serif" font-size="14.00" fill="#ebc72d">Summoner</text>
<text text-anchor="middle" x="204.794" y="-303.92" font-family="Times,serif" font-size="14.00" fill="#ebc72d">Guild</text>
</a>
</g>
</g>
<!-- summoner -->
<g id="node4" class="node"><title>summoner</title>
<g id="a_node4"><a xlink:href="magic_summoner_full.html" xlink:title="Summoner">
<ellipse fill="none" stroke="magenta" cx="204.794" cy="-212.693" rx="50.0912" ry="18"/>
<text text-anchor="middle" x="204.794" y="-208.993" font-family="Times,serif" font-size="14.00" fill="#ebc72d">Summoner</text>
</a>
</g>
</g>
<!-- summoner_guild&#45;&gt;summoner -->
<g id="edge27" class="edge"><title>summoner_guild&#45;&gt;summoner</title>
<path fill="none" stroke="#ebc72d" d="M204.794,-287.996C204.794,-273.639 204.794,-255.84 204.794,-241.261"/>
<polygon fill="#ebc72d" stroke="#ebc72d" points="208.294,-240.851 204.794,-230.851 201.294,-240.851 208.294,-240.851"/>
</g>
<!-- dragon_rider -->
<g id="node3" class="node"><title>dragon_rider</title>
<g id="a_node3"><a xlink:href="magic_dragon_rider_full.html" xlink:title="Dragon\nRider">
<ellipse fill="none" stroke="magenta" cx="407.794" cy="-116.61" rx="40.1111" ry="26.7407"/>
<text text-anchor="middle" x="407.794" y="-120.41" font-family="Times,serif" font-size="14.00" fill="#ebc72d">Dragon</text>
<text text-anchor="middle" x="407.794" y="-105.41" font-family="Times,serif" font-size="14.00" fill="#ebc72d">Rider</text>
</a>
</g>
</g>
<!-- summoner&#45;&gt;daemon -->
<g id="edge22" class="edge"><title>summoner&#45;&gt;daemon</title>
<path fill="none" stroke="#ebc72d" d="M204.794,-194.437C204.794,-180.644 204.794,-161.048 204.794,-145.1"/>
<polygon fill="#ebc72d" stroke="#ebc72d" points="208.294,-144.757 204.794,-134.757 201.294,-144.757 208.294,-144.757"/>
</g>
<!-- summoner&#45;&gt;dragon_rider -->
<g id="edge24" class="edge"><title>summoner&#45;&gt;dragon_rider</title>
<path fill="none" stroke="#ebc72d" stroke-dasharray="5,2" d="M230.367,-197.049C240.642,-191.345 252.67,-184.892 263.794,-179.48 273.436,-174.789 325.807,-152.415 364.626,-135.914"/>
<polygon fill="#ebc72d" stroke="#ebc72d" points="366.334,-138.992 374.169,-131.86 363.597,-132.549 366.334,-138.992"/>
</g>
<!-- dragon -->
<g id="node7" class="node"><title>dragon</title>
<g id="a_node7"><a xlink:href="magic_dragon_full.html" xlink:title="Dragon">
<ellipse fill="none" stroke="magenta" cx="780.794" cy="-116.61" rx="37.0935" ry="18"/>
<text text-anchor="middle" x="780.794" y="-112.91" font-family="Times,serif" font-size="14.00" fill="#ebc72d">Dragon</text>
</a>
</g>
</g>
<!-- summoner&#45;&gt;dragon -->
<g id="edge23" class="edge"><title>summoner&#45;&gt;dragon</title>
<path fill="none" stroke="#ebc72d" d="M227.697,-196.528C238.265,-190.243 251.232,-183.496 263.794,-179.48 351.065,-151.58 624.291,-129.071 734.259,-120.91"/>
<polygon fill="#ebc72d" stroke="#ebc72d" points="734.663,-124.39 744.379,-120.165 734.149,-117.408 734.663,-124.39"/>
</g>
<!-- ghost_armor -->
<g id="node12" class="node"><title>ghost_armor</title>
<g id="a_node12"><a xlink:href="magic_ghost_armor_full.html" xlink:title="Ghost\nArmor">
<ellipse fill="none" stroke="magenta" cx="300.794" cy="-116.61" rx="37.4533" ry="26.7407"/>
<text text-anchor="middle" x="300.794" y="-120.41" font-family="Times,serif" font-size="14.00" fill="#ebc72d">Ghost</text>
<text text-anchor="middle" x="300.794" y="-105.41" font-family="Times,serif" font-size="14.00" fill="#ebc72d">Armor</text>
</a>
</g>
</g>
<!-- summoner&#45;&gt;ghost_armor -->
<g id="edge26" class="edge"><title>summoner&#45;&gt;ghost_armor</title>
<path fill="none" stroke="#ebc72d" d="M221.515,-195.305C235.398,-181.7 255.463,-162.036 271.933,-145.895"/>
<polygon fill="#ebc72d" stroke="#ebc72d" points="274.52,-148.26 279.212,-138.761 269.62,-143.261 274.52,-148.26"/>
</g>
<!-- faster_movement -->
<g id="node19" class="node"><title>faster_movement</title>
<ellipse fill="none" stroke="black" cx="72.7935" cy="-116.61" rx="72.5877" ry="18"/>
<text text-anchor="middle" x="72.7935" y="-112.91" font-family="Times,serif" font-size="14.00">faster_movement</text>
</g>
<!-- summoner&#45;&gt;faster_movement -->
<g id="edge25" class="edge"><title>summoner&#45;&gt;faster_movement</title>
<path fill="none" stroke="#ebc72d" stroke-dasharray="1,5" d="M183.292,-196.368C161.726,-180.997 128.297,-157.17 103.853,-139.748"/>
<polygon fill="#ebc72d" stroke="#ebc72d" points="105.79,-136.831 95.6155,-133.877 101.727,-142.531 105.79,-136.831"/>
</g>
<!-- evil_dragon -->
<g id="node5" class="node"><title>evil_dragon</title>
<g id="a_node5"><a xlink:href="magic_evil_dragon_full.html" xlink:title="Evil\nDragon">
<ellipse fill="none" stroke="magenta" cx="747.794" cy="-26.8701" rx="40.1111" ry="26.7407"/>
<text text-anchor="middle" x="747.794" y="-30.6701" font-family="Times,serif" font-size="14.00" fill="#ebc72d">Evil</text>
<text text-anchor="middle" x="747.794" y="-15.6701" font-family="Times,serif" font-size="14.00" fill="#ebc72d">Dragon</text>
</a>
</g>
</g>
<!-- battlemage -->
<g id="node6" class="node"><title>battlemage</title>
<g id="a_node6"><a xlink:href="magic_battlemage_full.html" xlink:title="Battlemage">
<ellipse fill="none" stroke="magenta" cx="597.794" cy="-315.12" rx="51.1914" ry="18"/>
<text text-anchor="middle" x="597.794" y="-311.42" font-family="Times,serif" font-size="14.00" fill="#ebc72d">Battlemage</text>
</a>
</g>
</g>
<!-- archmage -->
<g id="node17" class="node"><title>archmage</title>
<g id="a_node17"><a xlink:href="magic_archmage_full.html" xlink:title="Archmage">
<ellipse fill="none" stroke="magenta" cx="618.794" cy="-212.693" rx="48.1917" ry="18"/>
<text text-anchor="middle" x="618.794" y="-208.993" font-family="Times,serif" font-size="14.00" fill="#ebc72d">Archmage</text>
</a>
</g>
</g>
<!-- battlemage&#45;&gt;archmage -->
<g id="edge4" class="edge"><title>battlemage&#45;&gt;archmage</title>
<path fill="none" stroke="#ebc72d" stroke-dasharray="5,2" d="M601.356,-297.084C604.584,-281.647 609.396,-258.636 613.147,-240.695"/>
<polygon fill="#ebc72d" stroke="#ebc72d" points="616.593,-241.318 615.214,-230.813 609.741,-239.885 616.593,-241.318"/>
</g>
<!-- dragon&#45;&gt;evil_dragon -->
<g id="edge5" class="edge"><title>dragon&#45;&gt;evil_dragon</title>
<path fill="none" stroke="#ebc72d" stroke-dasharray="5,2" d="M774.431,-98.693C770.588,-88.4768 765.548,-75.0766 760.888,-62.6844"/>
<polygon fill="#ebc72d" stroke="#ebc72d" points="764.057,-61.17 757.261,-53.0422 757.506,-63.6343 764.057,-61.17"/>
</g>
<!-- power_golem -->
<g id="node8" class="node"><title>power_golem</title>
<g id="a_node8"><a xlink:href="magic_power_golem_full.html" xlink:title="Power\nGolem">
<polygon fill="none" stroke="red" points="991.19,-223.023 943.794,-246.121 896.397,-223.023 896.441,-185.65 991.146,-185.65 991.19,-223.023"/>
<text text-anchor="middle" x="943.794" y="-216.493" font-family="Times,serif" font-size="14.00" fill="#ebc72d">Power</text>
<text text-anchor="middle" x="943.794" y="-201.493" font-family="Times,serif" font-size="14.00" fill="#ebc72d">Golem</text>
</a>
</g>
</g>
<!-- energy_source -->
<g id="node9" class="node"><title>energy_source</title>
<g id="a_node9"><a xlink:href="magic_energy_source_full.html" xlink:title="Energy\nSource">
<polygon fill="none" stroke="red" points="764.685,-325.45 715.794,-348.548 666.902,-325.45 666.948,-288.076 764.64,-288.076 764.685,-325.45"/>
<text text-anchor="middle" x="715.794" y="-318.92" font-family="Times,serif" font-size="14.00" fill="#ebc72d">Energy</text>
<text text-anchor="middle" x="715.794" y="-303.92" font-family="Times,serif" font-size="14.00" fill="#ebc72d">Source</text>
</a>
</g>
</g>
<!-- energy_source&#45;&gt;evil_dragon -->
<g id="edge7" class="edge"><title>energy_source&#45;&gt;evil_dragon</title>
<path fill="none" stroke="#ebc72d" stroke-dasharray="1,5" d="M716.977,-287.746C719.1,-245.688 724.343,-160.91 734.794,-89.7401 736.041,-81.2477 737.739,-72.1702 739.496,-63.6576"/>
<polygon fill="#ebc72d" stroke="#ebc72d" points="742.972,-64.1427 741.643,-53.6315 736.127,-62.677 742.972,-64.1427"/>
</g>
<!-- energy_source&#45;&gt;archmage -->
<g id="edge6" class="edge"><title>energy_source&#45;&gt;archmage</title>
<path fill="none" stroke="#ebc72d" stroke-dasharray="1,5" d="M690.561,-287.996C675.456,-272.357 656.404,-252.633 641.727,-237.437"/>
<polygon fill="#ebc72d" stroke="#ebc72d" points="643.959,-234.71 634.495,-229.949 638.924,-239.573 643.959,-234.71"/>
</g>
<!-- golem -->
<g id="node10" class="node"><title>golem</title>
<g id="a_node10"><a xlink:href="magic_golem_full.html" xlink:title="Golem">
<polygon fill="none" stroke="red" points="1017.06,-320.682 973.794,-333.12 930.529,-320.682 930.569,-300.558 1017.02,-300.558 1017.06,-320.682"/>
<text text-anchor="middle" x="973.794" y="-311.42" font-family="Times,serif" font-size="14.00" fill="#ebc72d">Golem</text>
</a>
</g>
</g>
<!-- golem&#45;&gt;power_golem -->
<g id="edge8" class="edge"><title>golem&#45;&gt;power_golem</title>
<path fill="none" stroke="#ebc72d" stroke-dasharray="5,2" d="M969.622,-300.156C965.908,-287.721 960.296,-268.936 955.251,-252.049"/>
<polygon fill="#ebc72d" stroke="#ebc72d" points="958.581,-250.967 952.365,-242.388 951.874,-252.971 958.581,-250.967"/>
</g>
<!-- mage_tower -->
<g id="node11" class="node"><title>mage_tower</title>
<g id="a_node11"><a xlink:href="magic_mage_tower_full.html" xlink:title="Mage\nTower">
<polygon fill="none" stroke="red" points="528.193,-325.45 482.794,-348.548 437.394,-325.45 437.437,-288.076 528.151,-288.076 528.193,-325.45"/>
<text text-anchor="middle" x="482.794" y="-318.92" font-family="Times,serif" font-size="14.00" fill="#ebc72d">Mage</text>
<text text-anchor="middle" x="482.794" y="-303.92" font-family="Times,serif" font-size="14.00" fill="#ebc72d">Tower</text>
</a>
</g>
</g>
<!-- initiate -->
<g id="node14" class="node"><title>initiate</title>
<g id="a_node14"><a xlink:href="magic_initiate_full.html" xlink:title="Initiate">
<ellipse fill="none" stroke="magenta" cx="597.794" cy="-402.333" rx="35.9954" ry="18"/>
<text text-anchor="middle" x="597.794" y="-398.633" font-family="Times,serif" font-size="14.00" fill="#ebc72d">Initiate</text>
</a>
</g>
</g>
<!-- archmage_tower -->
<g id="node13" class="node"><title>archmage_tower</title>
<g id="a_node13"><a xlink:href="magic_archmage_tower_full.html" xlink:title="Archmage\nTower">
<polygon fill="none" stroke="red" points="912.651,-325.45 847.794,-348.548 782.936,-325.45 782.997,-288.076 912.59,-288.076 912.651,-325.45"/>
<text text-anchor="middle" x="847.794" y="-318.92" font-family="Times,serif" font-size="14.00" fill="#ebc72d">Archmage</text>
<text text-anchor="middle" x="847.794" y="-303.92" font-family="Times,serif" font-size="14.00" fill="#ebc72d">Tower</text>
</a>
</g>
</g>
<!-- archmage_tower&#45;&gt;dragon -->
<g id="edge2" class="edge"><title>archmage_tower&#45;&gt;dragon</title>
<path fill="none" stroke="#ebc72d" stroke-dasharray="1,5" d="M838.896,-288.025C826.142,-250.616 802.783,-182.104 789.909,-144.345"/>
<polygon fill="#ebc72d" stroke="#ebc72d" points="793.113,-142.897 786.573,-134.561 786.487,-145.156 793.113,-142.897"/>
</g>
<!-- archmage_tower&#45;&gt;power_golem -->
<g id="edge3" class="edge"><title>archmage_tower&#45;&gt;power_golem</title>
<path fill="none" stroke="#ebc72d" stroke-dasharray="1,5" d="M872.766,-287.996C885.797,-274.364 901.796,-257.628 915.308,-243.492"/>
<polygon fill="#ebc72d" stroke="#ebc72d" points="918.144,-245.59 922.524,-235.943 913.084,-240.753 918.144,-245.59"/>
</g>
<!-- archmage_tower&#45;&gt;archmage -->
<g id="edge1" class="edge"><title>archmage_tower&#45;&gt;archmage</title>
<path fill="none" stroke="#ebc72d" stroke-dasharray="1,5" d="M788.224,-287.996C747.281,-270.041 694.057,-246.7 658.281,-231.01"/>
<polygon fill="#ebc72d" stroke="#ebc72d" points="659.242,-227.61 648.678,-226.799 656.43,-234.021 659.242,-227.61"/>
</g>
<!-- initiate&#45;&gt;summoner_guild -->
<g id="edge16" class="edge"><title>initiate&#45;&gt;summoner_guild</title>
<path fill="none" stroke="#ebc72d" stroke-width="2" d="M563.108,-397.853C504.953,-391.484 384.456,-375.999 285.794,-348.333 275.958,-345.575 265.677,-342.032 255.871,-338.309"/>
<polygon fill="#ebc72d" stroke="#ebc72d" stroke-width="2" points="256.844,-334.932 246.256,-334.549 254.295,-341.451 256.844,-334.932"/>
</g>
<!-- initiate&#45;&gt;battlemage -->
<g id="edge10" class="edge"><title>initiate&#45;&gt;battlemage</title>
<path fill="none" stroke="#ebc72d" stroke-dasharray="5,2" d="M597.794,-384.089C597.794,-372.423 597.794,-356.77 597.794,-343.425"/>
<polygon fill="#ebc72d" stroke="#ebc72d" points="601.294,-343.338 597.794,-333.338 594.294,-343.338 601.294,-343.338"/>
</g>
<!-- initiate&#45;&gt;energy_source -->
<g id="edge12" class="edge"><title>initiate&#45;&gt;energy_source</title>
<path fill="none" stroke="#ebc72d" stroke-width="2" d="M617.544,-387.07C634.613,-374.744 659.702,-356.626 680.254,-341.785"/>
<polygon fill="#ebc72d" stroke="#ebc72d" stroke-width="2" points="682.4,-344.552 688.458,-335.86 678.302,-338.877 682.4,-344.552"/>
</g>
<!-- initiate&#45;&gt;golem -->
<g id="edge13" class="edge"><title>initiate&#45;&gt;golem</title>
<path fill="none" stroke="#ebc72d" stroke-width="2" d="M633.476,-400.032C694.428,-396.825 821.713,-385.819 921.794,-348.333 931.142,-344.832 940.636,-339.558 948.908,-334.287"/>
<polygon fill="#ebc72d" stroke="#ebc72d" stroke-width="2" points="950.972,-337.117 957.341,-328.651 947.082,-331.298 950.972,-337.117"/>
</g>
<!-- initiate&#45;&gt;mage_tower -->
<g id="edge15" class="edge"><title>initiate&#45;&gt;mage_tower</title>
<path fill="none" stroke="#ebc72d" stroke-width="2" d="M570.454,-381.075C554.465,-369.227 534.137,-354.165 517.083,-341.528"/>
<polygon fill="#ebc72d" stroke="#ebc72d" stroke-width="2" points="568.427,-383.929 578.545,-387.07 572.594,-378.305 568.427,-383.929"/>
<polygon fill="#ebc72d" stroke="#ebc72d" stroke-width="2" points="519.125,-338.685 509.007,-335.544 514.958,-344.309 519.125,-338.685"/>
</g>
<!-- initiate&#45;&gt;archmage_tower -->
<g id="edge9" class="edge"><title>initiate&#45;&gt;archmage_tower</title>
<path fill="none" stroke="#ebc72d" stroke-width="2" d="M628.678,-393.223C664.108,-383.647 723.761,-366.683 773.794,-348.333 781.83,-345.385 790.246,-342.01 798.401,-338.579"/>
<polygon fill="#ebc72d" stroke="#ebc72d" stroke-width="2" points="800.002,-341.701 807.817,-334.548 797.247,-335.266 800.002,-341.701"/>
</g>
<!-- behemoth -->
<g id="node15" class="node"><title>behemoth</title>
<g id="a_node15"><a xlink:href="magic_behemoth_full.html" xlink:title="Behemoth">
<polygon fill="none" stroke="red" points="390.586,-218.256 331.794,-230.693 273.001,-218.256 273.056,-198.131 390.531,-198.131 390.586,-218.256"/>
<text text-anchor="middle" x="331.794" y="-208.993" font-family="Times,serif" font-size="14.00" fill="#ebc72d">Behemoth</text>
</a>
</g>
</g>
<!-- initiate&#45;&gt;behemoth -->
<g id="edge11" class="edge"><title>initiate&#45;&gt;behemoth</title>
<path fill="none" stroke="#ebc72d" stroke-width="2" d="M562.256,-400.008C494.163,-396.643 349.332,-385.218 318.794,-348.333 293.229,-317.455 307.538,-267.891 319.911,-238.291"/>
<polygon fill="#ebc72d" stroke="#ebc72d" stroke-width="2" points="323.143,-239.636 323.973,-229.073 316.738,-236.813 323.143,-239.636"/>
</g>
<!-- tower_of_souls -->
<g id="node16" class="node"><title>tower_of_souls</title>
<g id="a_node16"><a xlink:href="magic_tower_of_souls_full.html" xlink:title="Tower\nOf Souls">
<polygon fill="none" stroke="red" points="1148.42,-325.45 1091.79,-348.548 1035.17,-325.45 1035.22,-288.076 1148.37,-288.076 1148.42,-325.45"/>
<text text-anchor="middle" x="1091.79" y="-318.92" font-family="Times,serif" font-size="14.00" fill="#ebc72d">Tower</text>
<text text-anchor="middle" x="1091.79" y="-303.92" font-family="Times,serif" font-size="14.00" fill="#ebc72d">Of Souls</text>
</a>
</g>
</g>
<!-- initiate&#45;&gt;tower_of_souls -->
<g id="edge17" class="edge"><title>initiate&#45;&gt;tower_of_souls</title>
<path fill="none" stroke="#ebc72d" stroke-width="2" d="M633.551,-400.862C708.065,-399.026 884.754,-390.212 1025.79,-348.333 1033.61,-346.011 1041.65,-342.837 1049.3,-339.383"/>
<polygon fill="#ebc72d" stroke="#ebc72d" stroke-width="2" points="1050.87,-342.513 1058.41,-335.068 1047.87,-336.187 1050.87,-342.513"/>
</g>
<!-- library -->
<g id="node18" class="node"><title>library</title>
<g id="a_node18"><a xlink:href="magic_library_full.html" xlink:title="Library">
<polygon fill="none" stroke="red" points="419.379,-320.682 373.794,-333.12 328.208,-320.682 328.251,-300.558 419.336,-300.558 419.379,-320.682"/>
<text text-anchor="middle" x="373.794" y="-311.42" font-family="Times,serif" font-size="14.00" fill="#ebc72d">Library</text>
</a>
</g>
</g>
<!-- initiate&#45;&gt;library -->
<g id="edge14" class="edge"><title>initiate&#45;&gt;library</title>
<path fill="none" stroke="#ebc72d" stroke-width="2" d="M566.183,-393.71C531.637,-384.858 475.044,-368.814 428.794,-348.333 419.331,-344.143 409.443,-338.716 400.702,-333.514"/>
<polygon fill="#ebc72d" stroke="#ebc72d" stroke-width="2" points="402.432,-330.469 392.075,-328.237 398.779,-336.441 402.432,-330.469"/>
</g>
<!-- library&#45;&gt;dragon_rider -->
<g id="edge20" class="edge"><title>library&#45;&gt;dragon_rider</title>
<path fill="none" stroke="#ebc72d" stroke-dasharray="1,5" d="M380.444,-300.388C386.645,-286.874 395.556,-265.478 399.794,-245.907 406.434,-215.234 408.193,-179.546 408.43,-153.608"/>
<polygon fill="#ebc72d" stroke="#ebc72d" points="411.93,-153.488 408.45,-143.481 404.93,-153.474 411.93,-153.488"/>
</g>
<!-- library&#45;&gt;behemoth -->
<g id="edge19" class="edge"><title>library&#45;&gt;behemoth</title>
<path fill="none" stroke="#ebc72d" stroke-dasharray="1,5" d="M367.954,-300.156C361.351,-284.368 350.467,-258.343 342.362,-238.963"/>
<polygon fill="#ebc72d" stroke="#ebc72d" points="345.501,-237.398 338.414,-229.523 339.043,-240.099 345.501,-237.398"/>
</g>
<!-- library&#45;&gt;archmage -->
<g id="edge18" class="edge"><title>library&#45;&gt;archmage</title>
<path fill="none" stroke="#ebc72d" stroke-dasharray="1,5" d="M394.977,-300.472C404.995,-294.343 417.265,-287.295 428.794,-281.907 476.301,-259.7 533.182,-240.149 572.25,-227.736"/>
<polygon fill="#ebc72d" stroke="#ebc72d" points="573.788,-230.921 582.277,-224.582 571.688,-224.243 573.788,-230.921"/>
</g>
</g>
</svg>
