<?xml version="1.0" encoding="UTF-8" standalone="no"?>
<!DOCTYPE svg PUBLIC "-//W3C//DTD SVG 1.1//EN"
 "http://www.w3.org/Graphics/SVG/1.1/DTD/svg11.dtd">
<!-- Generated by graphviz version 2.38.0 (20140413.2041)
 -->
<!-- Title: test Pages: 1 -->
<svg width="1459pt" height="675pt"
 viewBox="0.00 0.00 1458.90 674.59" xmlns="http://www.w3.org/2000/svg" xmlns:xlink="http://www.w3.org/1999/xlink">
<g id="graph0" class="graph" transform="scale(1 1) rotate(0) translate(4 670.593)">
<title>test</title>
<polygon fill="#151515" stroke="none" points="-4,4 -4,-670.593 1454.9,-670.593 1454.9,4 -4,4"/>
<!-- daemon -->
<g id="node1" class="node"><title>daemon</title>
<g id="a_node1"><a xlink:href="magic_daemon_full.html" xlink:title="Daemon">
<ellipse fill="none" stroke="magenta" cx="209.952" cy="-342.167" rx="40.8928" ry="18"/>
<text text-anchor="middle" x="209.952" y="-338.467" font-family="Times,serif" font-size="14.00" fill="#ebc72d">Daemon</text>
</a>
</g>
</g>
<!-- summoner_guild -->
<g id="node2" class="node"><title>summoner_guild</title>
<g id="a_node2"><a xlink:href="magic_summoner_guild_full.html" xlink:title="Summoner\nGuild">
<polygon fill="none" stroke="red" points="541.054,-571.71 473.952,-594.808 406.851,-571.71 406.914,-534.336 540.991,-534.336 541.054,-571.71"/>
<text text-anchor="middle" x="473.952" y="-565.18" font-family="Times,serif" font-size="14.00" fill="#ebc72d">Summoner</text>
<text text-anchor="middle" x="473.952" y="-550.18" font-family="Times,serif" font-size="14.00" fill="#ebc72d">Guild</text>
</a>
</g>
</g>
<!-- summoner -->
<g id="node4" class="node"><title>summoner</title>
<g id="a_node4"><a xlink:href="magic_summoner_full.html" xlink:title="Summoner">
<ellipse fill="none" stroke="magenta" cx="329.952" cy="-454.167" rx="50.0912" ry="18"/>
<text text-anchor="middle" x="329.952" y="-450.467" font-family="Times,serif" font-size="14.00" fill="#ebc72d">Summoner</text>
</a>
</g>
</g>
<!-- summoner_guild&#45;&gt;summoner -->
<g id="edge42" class="edge"><title>summoner_guild&#45;&gt;summoner</title>
<path fill="none" stroke="#ebc72d" d="M437.987,-534.101C413.758,-516.399 382.195,-493.337 359.448,-476.717"/>
<polygon fill="#ebc72d" stroke="#ebc72d" points="361.335,-473.761 351.195,-470.688 357.205,-479.413 361.335,-473.761"/>
</g>
<!-- library -->
<g id="node18" class="node"><title>library</title>
<g id="a_node18"><a xlink:href="magic_library_full.html" xlink:title="Library">
<polygon fill="none" stroke="red" points="806.538,-459.729 760.952,-472.167 715.367,-459.729 715.409,-439.604 806.495,-439.604 806.538,-459.729"/>
<text text-anchor="middle" x="760.952" y="-450.467" font-family="Times,serif" font-size="14.00" fill="#ebc72d">Library</text>
</a>
</g>
</g>
<!-- summoner_guild&#45;&gt;library -->
<g id="edge41" class="edge"><title>summoner_guild&#45;&gt;library</title>
<path fill="none" stroke="#ebc72d" stroke-dasharray="1,5" d="M541.217,-537.038C578.139,-524.086 624.678,-507.532 665.952,-492.167 685.966,-484.716 708.218,-476.069 726.151,-469.009"/>
<polygon fill="#ebc72d" stroke="#ebc72d" points="727.612,-472.195 735.629,-465.268 725.042,-465.684 727.612,-472.195"/>
</g>
<!-- faster_movement -->
<g id="node19" class="node"><title>faster_movement</title>
<g id="a_node19"><a xlink:href="magic_faster_movement_full.html" xlink:title="Faster\nMovement">
<polygon fill="none" stroke="green" points="220.613,-268.167 93.891,-268.167 61.2921,-192.167 188.014,-192.167 220.613,-268.167"/>
<text text-anchor="middle" x="140.952" y="-233.967" font-family="Times,serif" font-size="14.00" fill="#ebc72d">Faster</text>
<text text-anchor="middle" x="140.952" y="-218.967" font-family="Times,serif" font-size="14.00" fill="#ebc72d">Movement</text>
</a>
</g>
</g>
<!-- summoner_guild&#45;&gt;faster_movement -->
<g id="edge40" class="edge"><title>summoner_guild&#45;&gt;faster_movement</title>
<path fill="none" stroke="#ebc72d" d="M416.558,-534.232C410.037,-531.904 403.412,-529.811 396.952,-528.167 320.966,-508.827 102.485,-546.499 45.9524,-492.167 -14.5089,-434.059 -9.84781,-377.977 29.9524,-304.167 40.6321,-284.361 59.2923,-269.049 78.2995,-257.682"/>
<polygon fill="#ebc72d" stroke="#ebc72d" points="80.0548,-260.71 87.0295,-252.735 76.6037,-254.62 80.0548,-260.71"/>
</g>
<!-- ancient_summoning -->
<g id="node22" class="node"><title>ancient_summoning</title>
<g id="a_node22"><a xlink:href="magic_ancient_summoning_full.html" xlink:title="Ancient\nSummoning">
<polygon fill="none" stroke="green" points="229.127,-492.167 90.4517,-492.167 54.7778,-416.167 193.453,-416.167 229.127,-492.167"/>
<text text-anchor="middle" x="141.952" y="-457.967" font-family="Times,serif" font-size="14.00" fill="#ebc72d">Ancient</text>
<text text-anchor="middle" x="141.952" y="-442.967" font-family="Times,serif" font-size="14.00" fill="#ebc72d">Summoning</text>
</a>
</g>
</g>
<!-- summoner_guild&#45;&gt;ancient_summoning -->
<g id="edge39" class="edge"><title>summoner_guild&#45;&gt;ancient_summoning</title>
<path fill="none" stroke="#ebc72d" d="M413.265,-534.213C407.781,-532.085 402.285,-530.037 396.952,-528.167 341.993,-508.894 326.944,-508.195 270.952,-492.167 258.547,-488.615 245.472,-484.869 232.597,-481.178"/>
<polygon fill="#ebc72d" stroke="#ebc72d" points="233.382,-477.762 222.805,-478.371 231.453,-484.491 233.382,-477.762"/>
</g>
<!-- dragon_rider -->
<g id="node3" class="node"><title>dragon_rider</title>
<g id="a_node3"><a xlink:href="magic_dragon_rider_full.html" xlink:title="Dragon\nRider">
<ellipse fill="none" stroke="magenta" cx="346.952" cy="-342.167" rx="40.1111" ry="26.7407"/>
<text text-anchor="middle" x="346.952" y="-345.967" font-family="Times,serif" font-size="14.00" fill="#ebc72d">Dragon</text>
<text text-anchor="middle" x="346.952" y="-330.967" font-family="Times,serif" font-size="14.00" fill="#ebc72d">Rider</text>
</a>
</g>
</g>
<!-- summoner&#45;&gt;daemon -->
<g id="edge32" class="edge"><title>summoner&#45;&gt;daemon</title>
<path fill="none" stroke="#ebc72d" d="M312.503,-437.172C291.946,-418.327 257.659,-386.897 234.446,-365.619"/>
<polygon fill="#ebc72d" stroke="#ebc72d" points="236.771,-363.002 227.034,-358.825 232.04,-368.162 236.771,-363.002"/>
</g>
<!-- summoner&#45;&gt;dragon_rider -->
<g id="edge34" class="edge"><title>summoner&#45;&gt;dragon_rider</title>
<path fill="none" stroke="#ebc72d" stroke-dasharray="5,2" d="M332.609,-435.979C334.952,-420.818 338.443,-398.227 341.394,-379.13"/>
<polygon fill="#ebc72d" stroke="#ebc72d" points="344.855,-379.652 342.924,-369.235 337.937,-378.583 344.855,-379.652"/>
</g>
<!-- dragon -->
<g id="node7" class="node"><title>dragon</title>
<g id="a_node7"><a xlink:href="magic_dragon_full.html" xlink:title="Dragon">
<ellipse fill="none" stroke="magenta" cx="1031.95" cy="-122.953" rx="37.0935" ry="18"/>
<text text-anchor="middle" x="1031.95" y="-119.253" font-family="Times,serif" font-size="14.00" fill="#ebc72d">Dragon</text>
</a>
</g>
</g>
<!-- summoner&#45;&gt;dragon -->
<g id="edge33" class="edge"><title>summoner&#45;&gt;dragon</title>
<path fill="none" stroke="#ebc72d" d="M315.119,-436.622C298.296,-415.905 273.815,-378.793 278.952,-343.167"/>
<path fill="none" stroke="#ebc72d" d="M278.952,-341.167C288.185,-277.148 383.313,-202.842 404.952,-192.167 507.031,-141.808 856.848,-128.255 984.686,-124.939"/>
<polygon fill="#ebc72d" stroke="#ebc72d" points="985.021,-128.432 994.931,-124.683 984.846,-121.434 985.021,-128.432"/>
</g>
<!-- golem -->
<g id="node10" class="node"><title>golem</title>
<g id="a_node10"><a xlink:href="magic_golem_full.html" xlink:title="Golem">
<polygon fill="none" stroke="red" points="946.217,-347.729 902.952,-360.167 859.688,-347.729 859.728,-327.604 946.177,-327.604 946.217,-347.729"/>
<text text-anchor="middle" x="902.952" y="-338.467" font-family="Times,serif" font-size="14.00" fill="#ebc72d">Golem</text>
</a>
</g>
</g>
<!-- summoner&#45;&gt;golem -->
<g id="edge37" class="edge"><title>summoner&#45;&gt;golem</title>
<path fill="none" stroke="#ebc72d" stroke-dasharray="1,5" d="M377.248,-447.841C497.276,-434.142 807.303,-397.541 850.952,-380.167 861.453,-375.987 871.841,-369.264 880.539,-362.688"/>
<polygon fill="#ebc72d" stroke="#ebc72d" points="882.97,-365.227 888.615,-356.261 878.611,-359.749 882.97,-365.227"/>
</g>
<!-- ghost_armor -->
<g id="node12" class="node"><title>ghost_armor</title>
<g id="a_node12"><a xlink:href="magic_ghost_armor_full.html" xlink:title="Ghost\nArmor">
<ellipse fill="none" stroke="magenta" cx="75.9524" cy="-342.167" rx="37.4533" ry="26.7407"/>
<text text-anchor="middle" x="75.9524" y="-345.967" font-family="Times,serif" font-size="14.00" fill="#ebc72d">Ghost</text>
<text text-anchor="middle" x="75.9524" y="-330.967" font-family="Times,serif" font-size="14.00" fill="#ebc72d">Armor</text>
</a>
</g>
</g>
<!-- summoner&#45;&gt;ghost_armor -->
<g id="edge36" class="edge"><title>summoner&#45;&gt;ghost_armor</title>
<path fill="none" stroke="#ebc72d" d="M298.649,-439.956C280.949,-432.643 258.344,-423.564 237.952,-416.167 189.198,-398.48 173.177,-403.684 126.952,-380.167 120.664,-376.967 114.307,-373.031 108.315,-368.933"/>
<polygon fill="#ebc72d" stroke="#ebc72d" points="110.018,-365.848 99.8473,-362.879 105.946,-371.543 110.018,-365.848"/>
</g>
<!-- behemoth -->
<g id="node15" class="node"><title>behemoth</title>
<g id="a_node15"><a xlink:href="magic_behemoth_full.html" xlink:title="Behemoth">
<polygon fill="none" stroke="red" points="531.745,-235.729 472.952,-248.167 414.16,-235.729 414.214,-215.604 531.69,-215.604 531.745,-235.729"/>
<text text-anchor="middle" x="472.952" y="-226.467" font-family="Times,serif" font-size="14.00" fill="#ebc72d">Behemoth</text>
</a>
</g>
</g>
<!-- summoner&#45;&gt;behemoth -->
<g id="edge31" class="edge"><title>summoner&#45;&gt;behemoth</title>
<path fill="none" stroke="#ebc72d" stroke-dasharray="1,5" d="M278.952,-341.167C287.771,-280.017 360.969,-252.361 414.863,-240.203"/>
<polygon fill="#ebc72d" stroke="#ebc72d" points="415.632,-243.617 424.682,-238.108 414.172,-236.771 415.632,-243.617"/>
</g>
<!-- tower_of_souls -->
<g id="node16" class="node"><title>tower_of_souls</title>
<g id="a_node16"><a xlink:href="magic_tower_of_souls_full.html" xlink:title="Tower\nOf Souls">
<polygon fill="none" stroke="red" points="518.577,-352.496 461.952,-375.594 405.328,-352.496 405.38,-315.123 518.524,-315.123 518.577,-352.496"/>
<text text-anchor="middle" x="461.952" y="-345.967" font-family="Times,serif" font-size="14.00" fill="#ebc72d">Tower</text>
<text text-anchor="middle" x="461.952" y="-330.967" font-family="Times,serif" font-size="14.00" fill="#ebc72d">Of Souls</text>
</a>
</g>
</g>
<!-- summoner&#45;&gt;tower_of_souls -->
<g id="edge38" class="edge"><title>summoner&#45;&gt;tower_of_souls</title>
<path fill="none" stroke="#ebc72d" stroke-dasharray="1,5" d="M348.865,-437.406C369.449,-420.253 402.784,-392.474 427.941,-371.51"/>
<polygon fill="#ebc72d" stroke="#ebc72d" points="430.353,-374.055 435.795,-364.965 425.872,-368.678 430.353,-374.055"/>
</g>
<!-- summoner&#45;&gt;faster_movement -->
<g id="edge35" class="edge"><title>summoner&#45;&gt;faster_movement</title>
<path fill="none" stroke="#ebc72d" stroke-dasharray="1,5" d="M297.838,-440.334C249.81,-421.006 164.388,-386.049 159.952,-380.167 138.302,-351.45 134.464,-310.432 135.531,-278.7"/>
<polygon fill="#ebc72d" stroke="#ebc72d" points="139.046,-278.492 136.062,-268.326 132.055,-278.134 139.046,-278.492"/>
</g>
<!-- evil_dragon -->
<g id="node5" class="node"><title>evil_dragon</title>
<g id="a_node5"><a xlink:href="magic_evil_dragon_full.html" xlink:title="Evil\nDragon">
<ellipse fill="none" stroke="magenta" cx="1215.95" cy="-26.8701" rx="40.1111" ry="26.7407"/>
<text text-anchor="middle" x="1215.95" y="-30.6701" font-family="Times,serif" font-size="14.00" fill="#ebc72d">Evil</text>
<text text-anchor="middle" x="1215.95" y="-15.6701" font-family="Times,serif" font-size="14.00" fill="#ebc72d">Dragon</text>
</a>
</g>
</g>
<!-- battlemage -->
<g id="node6" class="node"><title>battlemage</title>
<g id="a_node6"><a xlink:href="magic_battlemage_full.html" xlink:title="Battlemage">
<ellipse fill="none" stroke="magenta" cx="1071.95" cy="-561.38" rx="51.1914" ry="18"/>
<text text-anchor="middle" x="1071.95" y="-557.68" font-family="Times,serif" font-size="14.00" fill="#ebc72d">Battlemage</text>
</a>
</g>
</g>
<!-- archmage -->
<g id="node17" class="node"><title>archmage</title>
<g id="a_node17"><a xlink:href="magic_archmage_full.html" xlink:title="Archmage">
<ellipse fill="none" stroke="magenta" cx="1324.95" cy="-230.167" rx="48.1917" ry="18"/>
<text text-anchor="middle" x="1324.95" y="-226.467" font-family="Times,serif" font-size="14.00" fill="#ebc72d">Archmage</text>
</a>
</g>
</g>
<!-- battlemage&#45;&gt;archmage -->
<g id="edge5" class="edge"><title>battlemage&#45;&gt;archmage</title>
<path fill="none" stroke="#ebc72d" stroke-dasharray="5,2" d="M1102.56,-546.69C1154.28,-521.782 1258,-463.791 1305.95,-380.167 1327.65,-342.325 1329.11,-290.319 1327.51,-258.816"/>
<polygon fill="#ebc72d" stroke="#ebc72d" points="1330.98,-258.337 1326.84,-248.585 1324,-258.791 1330.98,-258.337"/>
</g>
<!-- dragon&#45;&gt;evil_dragon -->
<g id="edge6" class="edge"><title>dragon&#45;&gt;evil_dragon</title>
<path fill="none" stroke="#ebc72d" stroke-dasharray="5,2" d="M1056.77,-109.265C1087.11,-93.7483 1138.9,-67.2675 1175.14,-48.7365"/>
<polygon fill="#ebc72d" stroke="#ebc72d" points="1177.15,-51.6414 1184.46,-43.9725 1173.96,-45.4089 1177.15,-51.6414"/>
</g>
<!-- power_golem -->
<g id="node8" class="node"><title>power_golem</title>
<g id="a_node8"><a xlink:href="magic_power_golem_full.html" xlink:title="Power\nGolem">
<polygon fill="none" stroke="red" points="1216.35,-133.283 1168.95,-156.381 1121.56,-133.283 1121.6,-95.9097 1216.3,-95.9097 1216.35,-133.283"/>
<text text-anchor="middle" x="1168.95" y="-126.753" font-family="Times,serif" font-size="14.00" fill="#ebc72d">Power</text>
<text text-anchor="middle" x="1168.95" y="-111.753" font-family="Times,serif" font-size="14.00" fill="#ebc72d">Golem</text>
</a>
</g>
</g>
<!-- energy_source -->
<g id="node9" class="node"><title>energy_source</title>
<g id="a_node9"><a xlink:href="magic_energy_source_full.html" xlink:title="Energy\nSource">
<polygon fill="none" stroke="red" points="1450.84,-352.496 1401.95,-375.594 1353.06,-352.496 1353.11,-315.123 1450.8,-315.123 1450.84,-352.496"/>
<text text-anchor="middle" x="1401.95" y="-345.967" font-family="Times,serif" font-size="14.00" fill="#ebc72d">Energy</text>
<text text-anchor="middle" x="1401.95" y="-330.967" font-family="Times,serif" font-size="14.00" fill="#ebc72d">Source</text>
</a>
</g>
</g>
<!-- energy_source&#45;&gt;evil_dragon -->
<g id="edge9" class="edge"><title>energy_source&#45;&gt;evil_dragon</title>
<path fill="none" stroke="#ebc72d" stroke-dasharray="1,5" d="M1403.4,-314.918C1404.03,-283.939 1401.61,-231.651 1381.95,-192.167 1352.04,-132.1 1291.44,-81.0368 1252.32,-52.4367"/>
<polygon fill="#ebc72d" stroke="#ebc72d" points="1254,-49.3329 1243.83,-46.3388 1249.91,-55.0171 1254,-49.3329"/>
</g>
<!-- energy_source&#45;&gt;archmage -->
<g id="edge8" class="edge"><title>energy_source&#45;&gt;archmage</title>
<path fill="none" stroke="#ebc72d" stroke-dasharray="1,5" d="M1383.7,-315.098C1371.28,-297.353 1354.93,-273.99 1342.63,-256.42"/>
<polygon fill="#ebc72d" stroke="#ebc72d" points="1345.21,-254.006 1336.61,-247.821 1339.48,-258.02 1345.21,-254.006"/>
</g>
<!-- golem&#45;&gt;power_golem -->
<g id="edge10" class="edge"><title>golem&#45;&gt;power_golem</title>
<path fill="none" stroke="#ebc72d" stroke-dasharray="5,2" d="M919.182,-327.493C929.215,-319.658 942.675,-310.211 955.952,-304.167 1015.99,-276.833 1048.85,-309.891 1099.95,-268.167 1104.54,-264.421 1133.69,-201.548 1152.6,-160.067"/>
<polygon fill="#ebc72d" stroke="#ebc72d" points="1155.86,-161.352 1156.82,-150.801 1149.49,-158.453 1155.86,-161.352"/>
</g>
<!-- mage_tower -->
<g id="node11" class="node"><title>mage_tower</title>
<g id="a_node11"><a xlink:href="magic_mage_tower_full.html" xlink:title="Mage\nTower">
<polygon fill="none" stroke="red" points="388.352,-571.71 342.952,-594.808 297.553,-571.71 297.595,-534.336 388.309,-534.336 388.352,-571.71"/>
<text text-anchor="middle" x="342.952" y="-565.18" font-family="Times,serif" font-size="14.00" fill="#ebc72d">Mage</text>
<text text-anchor="middle" x="342.952" y="-550.18" font-family="Times,serif" font-size="14.00" fill="#ebc72d">Tower</text>
</a>
</g>
</g>
<!-- initiate -->
<g id="node14" class="node"><title>initiate</title>
<g id="a_node14"><a xlink:href="magic_initiate_full.html" xlink:title="Initiate">
<ellipse fill="none" stroke="magenta" cx="760.952" cy="-648.593" rx="35.9954" ry="18"/>
<text text-anchor="middle" x="760.952" y="-644.893" font-family="Times,serif" font-size="14.00" fill="#ebc72d">Initiate</text>
</a>
</g>
</g>
<!-- archmage_tower -->
<g id="node13" class="node"><title>archmage_tower</title>
<g id="a_node13"><a xlink:href="magic_archmage_tower_full.html" xlink:title="Archmage\nTower">
<polygon fill="none" stroke="red" points="1296.81,-352.496 1231.95,-375.594 1167.1,-352.496 1167.16,-315.123 1296.75,-315.123 1296.81,-352.496"/>
<text text-anchor="middle" x="1231.95" y="-345.967" font-family="Times,serif" font-size="14.00" fill="#ebc72d">Archmage</text>
<text text-anchor="middle" x="1231.95" y="-330.967" font-family="Times,serif" font-size="14.00" fill="#ebc72d">Tower</text>
</a>
</g>
</g>
<!-- archmage_tower&#45;&gt;archmage -->
<g id="edge2" class="edge"><title>archmage_tower&#45;&gt;archmage</title>
<path fill="none" stroke="#ebc72d" stroke-dasharray="1,5" d="M1253.99,-315.098C1269.36,-296.917 1289.72,-272.839 1304.69,-255.137"/>
<polygon fill="#ebc72d" stroke="#ebc72d" points="1307.36,-257.392 1311.15,-247.496 1302.02,-252.872 1307.36,-257.392"/>
</g>
<!-- dragon_call -->
<g id="node23" class="node"><title>dragon_call</title>
<g id="a_node23"><a xlink:href="magic_dragon_call_full.html" xlink:title="Dragon\nCall">
<polygon fill="none" stroke="green" points="1091.14,-268.167 996.984,-268.167 972.762,-192.167 1066.92,-192.167 1091.14,-268.167"/>
<text text-anchor="middle" x="1031.95" y="-233.967" font-family="Times,serif" font-size="14.00" fill="#ebc72d">Dragon</text>
<text text-anchor="middle" x="1031.95" y="-218.967" font-family="Times,serif" font-size="14.00" fill="#ebc72d">Call</text>
</a>
</g>
</g>
<!-- archmage_tower&#45;&gt;dragon_call -->
<g id="edge3" class="edge"><title>archmage_tower&#45;&gt;dragon_call</title>
<path fill="none" stroke="#ebc72d" d="M1184.56,-315.098C1158.91,-300.995 1126.82,-283.345 1098.69,-267.874"/>
<polygon fill="#ebc72d" stroke="#ebc72d" points="1100.16,-264.687 1089.71,-262.935 1096.79,-270.821 1100.16,-264.687"/>
</g>
<!-- golem_power -->
<g id="node25" class="node"><title>golem_power</title>
<g id="a_node25"><a xlink:href="magic_golem_power_full.html" xlink:title="Golem\nPower">
<polygon fill="none" stroke="green" points="1258.92,-268.167 1169.89,-268.167 1146.98,-192.167 1236.02,-192.167 1258.92,-268.167"/>
<text text-anchor="middle" x="1202.95" y="-233.967" font-family="Times,serif" font-size="14.00" fill="#ebc72d">Golem</text>
<text text-anchor="middle" x="1202.95" y="-218.967" font-family="Times,serif" font-size="14.00" fill="#ebc72d">Power</text>
</a>
</g>
</g>
<!-- archmage_tower&#45;&gt;golem_power -->
<g id="edge4" class="edge"><title>archmage_tower&#45;&gt;golem_power</title>
<path fill="none" stroke="#ebc72d" d="M1225.08,-315.098C1222.17,-304.069 1218.69,-290.871 1215.36,-278.242"/>
<polygon fill="#ebc72d" stroke="#ebc72d" points="1218.67,-277.065 1212.74,-268.288 1211.9,-278.85 1218.67,-277.065"/>
</g>
<!-- initiate&#45;&gt;summoner_guild -->
<g id="edge21" class="edge"><title>initiate&#45;&gt;summoner_guild</title>
<path fill="none" stroke="#ebc72d" stroke-width="2" d="M731.051,-638.715C684.743,-624.966 594.748,-598.245 534.487,-580.353"/>
<polygon fill="#ebc72d" stroke="#ebc72d" stroke-width="2" points="535.294,-576.942 524.711,-577.451 533.302,-583.652 535.294,-576.942"/>
</g>
<!-- initiate&#45;&gt;battlemage -->
<g id="edge15" class="edge"><title>initiate&#45;&gt;battlemage</title>
<path fill="none" stroke="#ebc72d" stroke-dasharray="5,2" d="M791.623,-639.189C845.59,-624.403 957.938,-593.619 1022.83,-575.84"/>
<polygon fill="#ebc72d" stroke="#ebc72d" points="1024.1,-579.121 1032.82,-573.103 1022.25,-572.37 1024.1,-579.121"/>
</g>
<!-- initiate&#45;&gt;energy_source -->
<g id="edge17" class="edge"><title>initiate&#45;&gt;energy_source</title>
<path fill="none" stroke="#ebc72d" stroke-width="2" d="M796.107,-645.062C876.643,-638.865 1072.16,-621.453 1131.95,-594.593 1242.27,-545.04 1336.73,-431.817 1378.71,-375.796"/>
<polygon fill="#ebc72d" stroke="#ebc72d" stroke-width="2" points="1381.62,-377.755 1384.76,-367.637 1375.99,-373.587 1381.62,-377.755"/>
</g>
<!-- initiate&#45;&gt;golem -->
<g id="edge18" class="edge"><title>initiate&#45;&gt;golem</title>
<path fill="none" stroke="#ebc72d" stroke-width="2" d="M760.952,-560.38C799.974,-421.96 983.493,-572.287 1066.95,-455.167"/>
<path fill="none" stroke="#ebc72d" stroke-width="2" d="M1066.95,-453.167C1101.22,-405.08 1004.83,-413.292 955.952,-380.167 946.895,-374.028 937.049,-367.199 928.329,-361.095"/>
<polygon fill="#ebc72d" stroke="#ebc72d" stroke-width="2" points="930.25,-358.167 920.055,-355.285 926.228,-363.896 930.25,-358.167"/>
</g>
<!-- initiate&#45;&gt;mage_tower -->
<g id="edge20" class="edge"><title>initiate&#45;&gt;mage_tower</title>
<path fill="none" stroke="#ebc72d" stroke-width="2" d="M715.085,-646.494C644.884,-643.582 507.421,-632.997 397.952,-594.593 391.568,-592.353 385.096,-589.346 378.943,-586.065"/>
<polygon fill="#ebc72d" stroke="#ebc72d" stroke-width="2" points="715.226,-650.001 725.351,-646.884 715.492,-643.007 715.226,-650.001"/>
<polygon fill="#ebc72d" stroke="#ebc72d" stroke-width="2" points="380.629,-582.998 370.202,-581.121 377.183,-589.091 380.629,-582.998"/>
</g>
<!-- initiate&#45;&gt;archmage_tower -->
<g id="edge14" class="edge"><title>initiate&#45;&gt;archmage_tower</title>
<path fill="none" stroke="#ebc72d" stroke-width="2" d="M1066.95,-453.167C1083.04,-430.59 1144.18,-392.887 1187.33,-368.023"/>
<polygon fill="#ebc72d" stroke="#ebc72d" stroke-width="2" points="1189.3,-370.928 1196.24,-362.922 1185.82,-364.853 1189.3,-370.928"/>
</g>
<!-- initiate&#45;&gt;behemoth -->
<g id="edge16" class="edge"><title>initiate&#45;&gt;behemoth</title>
<path fill="none" stroke="#ebc72d" stroke-width="2" d="M651.952,-453.167C606.518,-404.255 672.541,-357.92 632.952,-304.167 607.714,-269.897 562.522,-251.304 526.589,-241.476"/>
<polygon fill="#ebc72d" stroke="#ebc72d" stroke-width="2" points="527.282,-238.04 516.724,-238.931 525.533,-244.818 527.282,-238.04"/>
</g>
<!-- initiate&#45;&gt;tower_of_souls -->
<g id="edge22" class="edge"><title>initiate&#45;&gt;tower_of_souls</title>
<path fill="none" stroke="#ebc72d" stroke-width="2" d="M758.282,-630.569C756.156,-613.098 754.49,-585.305 760.952,-562.38"/>
<path fill="none" stroke="#ebc72d" stroke-width="2" d="M760.952,-560.38C770.087,-527.977 674.865,-479.832 651.952,-455.167"/>
<path fill="none" stroke="#ebc72d" stroke-width="2" d="M651.952,-453.167C649.08,-450.075 559.213,-398.595 504.117,-367.171"/>
<polygon fill="#ebc72d" stroke="#ebc72d" stroke-width="2" points="505.681,-364.033 495.26,-362.121 502.214,-370.115 505.681,-364.033"/>
</g>
<!-- initiate&#45;&gt;library -->
<g id="edge19" class="edge"><title>initiate&#45;&gt;library</title>
<path fill="none" stroke="#ebc72d" stroke-width="2" d="M760.952,-560.38C768.287,-534.361 767.141,-503.262 764.869,-481.653"/>
<polygon fill="#ebc72d" stroke="#ebc72d" stroke-width="2" points="768.327,-481.093 763.656,-471.583 761.377,-481.93 768.327,-481.093"/>
</g>
<!-- library&#45;&gt;dragon_rider -->
<g id="edge24" class="edge"><title>library&#45;&gt;dragon_rider</title>
<path fill="none" stroke="#ebc72d" stroke-dasharray="1,5" d="M731.183,-439.452C712.757,-431.501 688.407,-421.947 665.952,-416.167 548.713,-385.984 507.94,-426.154 395.952,-380.167 389.87,-377.669 383.873,-374.226 378.274,-370.439"/>
<polygon fill="#ebc72d" stroke="#ebc72d" points="379.99,-367.359 369.849,-364.291 375.864,-373.013 379.99,-367.359"/>
</g>
<!-- library&#45;&gt;golem -->
<g id="edge27" class="edge"><title>library&#45;&gt;golem</title>
<path fill="none" stroke="#ebc72d" stroke-dasharray="1,5" d="M778.65,-439.457C803.849,-419.937 850.158,-384.064 878.585,-362.043"/>
<polygon fill="#ebc72d" stroke="#ebc72d" points="881.027,-364.578 886.79,-355.687 876.741,-359.044 881.027,-364.578"/>
</g>
<!-- library&#45;&gt;archmage_tower -->
<g id="edge23" class="edge"><title>library&#45;&gt;archmage_tower</title>
<path fill="none" stroke="#ebc72d" stroke-dasharray="1,5" d="M806.645,-448.988C881.601,-441.205 1034.67,-421.398 1157.95,-380.167 1167.86,-376.852 1178.12,-372.434 1187.72,-367.806"/>
<polygon fill="#ebc72d" stroke="#ebc72d" points="1189.3,-370.927 1196.69,-363.334 1186.18,-364.662 1189.3,-370.927"/>
</g>
<!-- library&#45;&gt;tower_of_souls -->
<g id="edge29" class="edge"><title>library&#45;&gt;tower_of_souls</title>
<path fill="none" stroke="#ebc72d" stroke-dasharray="1,5" d="M728.757,-439.536C710.52,-432.091 687.175,-423.021 665.952,-416.167 605.225,-396.552 586.086,-404.16 526.952,-380.167 518.647,-376.797 510.096,-372.554 502.034,-368.155"/>
<polygon fill="#ebc72d" stroke="#ebc72d" points="503.608,-365.025 493.179,-363.159 500.169,-371.121 503.608,-365.025"/>
</g>
<!-- hell_gate -->
<g id="node20" class="node"><title>hell_gate</title>
<g id="a_node20"><a xlink:href="magic_hell_gate_full.html" xlink:title="Hell\nGate">
<polygon fill="none" stroke="green" points="623.54,-380.167 554.202,-380.167 536.365,-304.167 605.703,-304.167 623.54,-380.167"/>
<text text-anchor="middle" x="579.952" y="-345.967" font-family="Times,serif" font-size="14.00" fill="#ebc72d">Hell</text>
<text text-anchor="middle" x="579.952" y="-330.967" font-family="Times,serif" font-size="14.00" fill="#ebc72d">Gate</text>
</a>
</g>
</g>
<!-- library&#45;&gt;hell_gate -->
<g id="edge28" class="edge"><title>library&#45;&gt;hell_gate</title>
<path fill="none" stroke="#ebc72d" d="M738.395,-439.457C711.312,-422.998 665.1,-394.914 629.551,-373.309"/>
<polygon fill="#ebc72d" stroke="#ebc72d" points="631.124,-370.17 620.761,-367.967 627.489,-376.152 631.124,-370.17"/>
</g>
<!-- energy_compression -->
<g id="node21" class="node"><title>energy_compression</title>
<g id="a_node21"><a xlink:href="magic_energy_compression_full.html" xlink:title="Energy\nCompression">
<polygon fill="none" stroke="green" points="1149,-380.167 1002.58,-380.167 964.91,-304.167 1111.33,-304.167 1149,-380.167"/>
<text text-anchor="middle" x="1056.95" y="-345.967" font-family="Times,serif" font-size="14.00" fill="#ebc72d">Energy</text>
<text text-anchor="middle" x="1056.95" y="-330.967" font-family="Times,serif" font-size="14.00" fill="#ebc72d">Compression</text>
</a>
</g>
</g>
<!-- library&#45;&gt;energy_compression -->
<g id="edge25" class="edge"><title>library&#45;&gt;energy_compression</title>
<path fill="none" stroke="#ebc72d" d="M797.545,-439.568C844.358,-422.171 926.469,-391.657 985.79,-369.612"/>
<polygon fill="#ebc72d" stroke="#ebc72d" points="987.321,-372.777 995.475,-366.013 984.882,-366.215 987.321,-372.777"/>
</g>
<!-- energy_sharpening -->
<g id="node24" class="node"><title>energy_sharpening</title>
<g id="a_node24"><a xlink:href="magic_energy_sharpening_full.html" xlink:title="Energy\nSharpening">
<polygon fill="none" stroke="green" points="841.686,-380.167 713.257,-380.167 680.219,-304.167 808.648,-304.167 841.686,-380.167"/>
<text text-anchor="middle" x="760.952" y="-345.967" font-family="Times,serif" font-size="14.00" fill="#ebc72d">Energy</text>
<text text-anchor="middle" x="760.952" y="-330.967" font-family="Times,serif" font-size="14.00" fill="#ebc72d">Sharpening</text>
</a>
</g>
</g>
<!-- library&#45;&gt;energy_sharpening -->
<g id="edge26" class="edge"><title>library&#45;&gt;energy_sharpening</title>
<path fill="none" stroke="#ebc72d" d="M760.952,-439.235C760.952,-426.96 760.952,-408.344 760.952,-390.758"/>
<polygon fill="#ebc72d" stroke="#ebc72d" points="764.452,-390.578 760.952,-380.578 757.452,-390.578 764.452,-390.578"/>
</g>
<!-- hell_gate&#45;&gt;behemoth -->
<g id="edge12" class="edge"><title>hell_gate&#45;&gt;behemoth</title>
<path fill="none" stroke="#ebc72d" stroke-dasharray="1,5" d="M543.727,-303.926C527.255,-286.992 508.336,-267.542 494.205,-253.015"/>
<polygon fill="#ebc72d" stroke="#ebc72d" points="496.374,-250.225 486.893,-245.498 491.357,-255.106 496.374,-250.225"/>
</g>
<!-- hell_gate&#45;&gt;faster_movement -->
<g id="edge13" class="edge"><title>hell_gate&#45;&gt;faster_movement</title>
<path fill="none" stroke="#ebc72d" stroke-dasharray="1,5" d="M537.379,-308.78C534.27,-307.074 531.113,-305.512 527.952,-304.167 473.42,-280.954 315.266,-255.703 218.845,-241.819"/>
<polygon fill="#ebc72d" stroke="#ebc72d" points="219.243,-238.34 208.848,-240.388 218.251,-245.27 219.243,-238.34"/>
</g>
<!-- ancient_summoning&#45;&gt;ghost_armor -->
<g id="edge1" class="edge"><title>ancient_summoning&#45;&gt;ghost_armor</title>
<path fill="none" stroke="#ebc72d" stroke-dasharray="1,5" d="M119.608,-415.926C111.844,-402.986 103.199,-388.577 95.663,-376.018"/>
<polygon fill="#ebc72d" stroke="#ebc72d" points="98.5469,-374.021 90.4007,-367.247 92.5445,-377.623 98.5469,-374.021"/>
</g>
<!-- dragon_call&#45;&gt;dragon -->
<g id="edge7" class="edge"><title>dragon_call&#45;&gt;dragon</title>
<path fill="none" stroke="#ebc72d" stroke-dasharray="1,5" d="M1031.95,-192.072C1031.95,-178.619 1031.95,-163.68 1031.95,-151.227"/>
<polygon fill="#ebc72d" stroke="#ebc72d" points="1035.45,-151.025 1031.95,-141.025 1028.45,-151.025 1035.45,-151.025"/>
</g>
<!-- golem_power&#45;&gt;power_golem -->
<g id="edge11" class="edge"><title>golem_power&#45;&gt;power_golem</title>
<path fill="none" stroke="#ebc72d" stroke-dasharray="1,5" d="M1190.97,-192.072C1187.78,-182.222 1184.34,-171.574 1181.15,-161.69"/>
<polygon fill="#ebc72d" stroke="#ebc72d" points="1184.46,-160.556 1178.05,-152.117 1177.8,-162.709 1184.46,-160.556"/>
</g>
</g>
</svg>
