<?xml version="1.0" encoding="UTF-8" standalone="no"?>
<!DOCTYPE svg PUBLIC "-//W3C//DTD SVG 1.1//EN"
 "http://www.w3.org/Graphics/SVG/1.1/DTD/svg11.dtd">
<!-- Generated by graphviz version 2.38.0 (20140413.2041)
 -->
<!-- Title: test Pages: 1 -->
<svg width="513pt" height="454pt"
 viewBox="0.00 0.00 513.19 453.71" xmlns="http://www.w3.org/2000/svg" xmlns:xlink="http://www.w3.org/1999/xlink">
<g id="graph0" class="graph" transform="scale(1 1) rotate(0) translate(4 449.706)">
<title>test</title>
<polygon fill="#151515" stroke="none" points="-4,4 -4,-449.706 509.194,-449.706 509.194,4 -4,4"/>
<!-- summoner_guild -->
<g id="node1" class="node"><title>summoner_guild</title>
<g id="a_node1"><a xlink:href="magic_summoner_guild_full.html" xlink:title="Summoner\nGuild">
<polygon fill="none" stroke="red" points="276.484,-320.396 209.382,-343.494 142.281,-320.396 142.343,-283.022 276.421,-283.022 276.484,-320.396"/>
<text text-anchor="middle" x="209.382" y="-313.866" font-family="Times,serif" font-size="14.00" fill="#ebc72d">Summoner</text>
<text text-anchor="middle" x="209.382" y="-298.866" font-family="Times,serif" font-size="14.00" fill="#ebc72d">Guild</text>
</a>
</g>
</g>
<!-- library -->
<g id="node9" class="node"><title>library</title>
<g id="a_node9"><a xlink:href="magic_library_full.html" xlink:title="Library">
<polygon fill="none" stroke="red" points="234.968,-228.415 189.382,-240.853 143.797,-228.415 143.839,-208.291 234.925,-208.291 234.968,-228.415"/>
<text text-anchor="middle" x="189.382" y="-219.153" font-family="Times,serif" font-size="14.00" fill="#ebc72d">Library</text>
</a>
</g>
</g>
<!-- summoner_guild&#45;&gt;library -->
<g id="edge11" class="edge"><title>summoner_guild&#45;&gt;library</title>
<path fill="none" stroke="#ebc72d" stroke-dasharray="1,5" d="M203.164,-282.571C200.704,-272.091 197.886,-260.087 195.442,-249.674"/>
<polygon fill="#ebc72d" stroke="#ebc72d" points="198.843,-248.843 193.15,-239.907 192.028,-250.443 198.843,-248.843"/>
</g>
<!-- power_golem -->
<g id="node2" class="node"><title>power_golem</title>
<g id="a_node2"><a xlink:href="magic_power_golem_full.html" xlink:title="Power\nGolem">
<polygon fill="none" stroke="red" points="216.778,-43.543 169.382,-66.641 121.986,-43.543 122.03,-6.16955 216.734,-6.16955 216.778,-43.543"/>
<text text-anchor="middle" x="169.382" y="-37.0132" font-family="Times,serif" font-size="14.00" fill="#ebc72d">Power</text>
<text text-anchor="middle" x="169.382" y="-22.0132" font-family="Times,serif" font-size="14.00" fill="#ebc72d">Golem</text>
</a>
</g>
</g>
<!-- energy_source -->
<g id="node3" class="node"><title>energy_source</title>
<g id="a_node3"><a xlink:href="magic_energy_source_full.html" xlink:title="Energy\nSource">
<polygon fill="none" stroke="red" points="430.274,-320.396 381.382,-343.494 332.49,-320.396 332.536,-283.022 430.228,-283.022 430.274,-320.396"/>
<text text-anchor="middle" x="381.382" y="-313.866" font-family="Times,serif" font-size="14.00" fill="#ebc72d">Energy</text>
<text text-anchor="middle" x="381.382" y="-298.866" font-family="Times,serif" font-size="14.00" fill="#ebc72d">Source</text>
</a>
</g>
</g>
<!-- golem -->
<g id="node4" class="node"><title>golem</title>
<g id="a_node4"><a xlink:href="magic_golem_full.html" xlink:title="Golem">
<polygon fill="none" stroke="red" points="86.6467,-141.202 43.3821,-153.64 0.117544,-141.202 0.157926,-121.077 86.6063,-121.077 86.6467,-141.202"/>
<text text-anchor="middle" x="43.3821" y="-131.94" font-family="Times,serif" font-size="14.00" fill="#ebc72d">Golem</text>
</a>
</g>
</g>
<!-- mage_tower -->
<g id="node5" class="node"><title>mage_tower</title>
<g id="a_node5"><a xlink:href="magic_mage_tower_full.html" xlink:title="Mage\nTower">
<polygon fill="none" stroke="red" points="349.782,-422.822 304.382,-445.92 258.983,-422.822 259.025,-385.449 349.739,-385.449 349.782,-422.822"/>
<text text-anchor="middle" x="304.382" y="-416.293" font-family="Times,serif" font-size="14.00" fill="#ebc72d">Mage</text>
<text text-anchor="middle" x="304.382" y="-401.293" font-family="Times,serif" font-size="14.00" fill="#ebc72d">Tower</text>
</a>
</g>
</g>
<!-- mage_tower&#45;&gt;summoner_guild -->
<g id="edge9" class="edge"><title>mage_tower&#45;&gt;summoner_guild</title>
<path fill="none" stroke="#ebc72d" stroke-dasharray="1,5" d="M279.67,-385.369C267.424,-372.423 252.53,-356.678 239.609,-343.02"/>
<polygon fill="#ebc72d" stroke="#ebc72d" points="242.078,-340.537 232.664,-335.677 236.993,-345.347 242.078,-340.537"/>
</g>
<!-- mage_tower&#45;&gt;energy_source -->
<g id="edge7" class="edge"><title>mage_tower&#45;&gt;energy_source</title>
<path fill="none" stroke="#ebc72d" stroke-dasharray="1,5" d="M324.412,-385.369C334.302,-372.47 346.322,-356.793 356.768,-343.169"/>
<polygon fill="#ebc72d" stroke="#ebc72d" points="359.728,-345.061 363.035,-334.995 354.173,-340.801 359.728,-345.061"/>
</g>
<!-- behemoth -->
<g id="node7" class="node"><title>behemoth</title>
<g id="a_node7"><a xlink:href="magic_behemoth_full.html" xlink:title="Behemoth">
<polygon fill="none" stroke="red" points="369.175,-141.202 310.382,-153.64 251.589,-141.202 251.644,-121.077 369.12,-121.077 369.175,-141.202"/>
<text text-anchor="middle" x="310.382" y="-131.94" font-family="Times,serif" font-size="14.00" fill="#ebc72d">Behemoth</text>
</a>
</g>
</g>
<!-- mage_tower&#45;&gt;behemoth -->
<g id="edge6" class="edge"><title>mage_tower&#45;&gt;behemoth</title>
<path fill="none" stroke="#ebc72d" stroke-dasharray="1,5" d="M304.957,-385.138C306.097,-332.956 308.629,-216.955 309.785,-163.979"/>
<polygon fill="#ebc72d" stroke="#ebc72d" points="313.291,-163.751 310.01,-153.677 306.293,-163.598 313.291,-163.751"/>
</g>
<!-- tower_of_souls -->
<g id="node8" class="node"><title>tower_of_souls</title>
<g id="a_node8"><a xlink:href="magic_tower_of_souls_full.html" xlink:title="Tower\nOf Souls">
<polygon fill="none" stroke="red" points="505.007,-145.969 448.382,-169.067 391.757,-145.969 391.81,-108.596 504.954,-108.596 505.007,-145.969"/>
<text text-anchor="middle" x="448.382" y="-139.44" font-family="Times,serif" font-size="14.00" fill="#ebc72d">Tower</text>
<text text-anchor="middle" x="448.382" y="-124.44" font-family="Times,serif" font-size="14.00" fill="#ebc72d">Of Souls</text>
</a>
</g>
</g>
<!-- mage_tower&#45;&gt;tower_of_souls -->
<g id="edge10" class="edge"><title>mage_tower&#45;&gt;tower_of_souls</title>
<path fill="none" stroke="#ebc72d" stroke-dasharray="1,5" d="M349.807,-401.295C380.663,-391.796 419.372,-374.276 439.382,-343.279 471.904,-292.899 465.827,-220.319 457.669,-175.938"/>
<polygon fill="#ebc72d" stroke="#ebc72d" points="461.1,-175.245 455.742,-166.104 454.23,-176.591 461.1,-175.245"/>
</g>
<!-- mage_tower&#45;&gt;library -->
<g id="edge8" class="edge"><title>mage_tower&#45;&gt;library</title>
<path fill="none" stroke="#ebc72d" stroke-dasharray="1,5" d="M258.904,-407.231C218.367,-400.751 161.266,-384.422 133.382,-343.279 116.819,-318.84 121.71,-303.97 133.382,-276.853 139.329,-263.038 150.843,-251.14 161.892,-242.138"/>
<polygon fill="#ebc72d" stroke="#ebc72d" points="164.325,-244.684 170.151,-235.834 160.078,-239.119 164.325,-244.684"/>
</g>
<!-- archmage_tower -->
<g id="node6" class="node"><title>archmage_tower</title>
<g id="a_node6"><a xlink:href="magic_archmage_tower_full.html" xlink:title="Archmage\nTower">
<polygon fill="none" stroke="red" points="234.239,-145.969 169.382,-169.067 104.525,-145.969 104.585,-108.596 234.179,-108.596 234.239,-145.969"/>
<text text-anchor="middle" x="169.382" y="-139.44" font-family="Times,serif" font-size="14.00" fill="#ebc72d">Archmage</text>
<text text-anchor="middle" x="169.382" y="-124.44" font-family="Times,serif" font-size="14.00" fill="#ebc72d">Tower</text>
</a>
</g>
</g>
<!-- archmage_tower&#45;&gt;power_golem -->
<g id="edge1" class="edge"><title>archmage_tower&#45;&gt;power_golem</title>
<path fill="none" stroke="#ebc72d" stroke-dasharray="1,5" d="M169.382,-108.516C169.382,-98.8268 169.382,-87.5693 169.382,-76.7922"/>
<polygon fill="#ebc72d" stroke="#ebc72d" points="172.882,-76.6736 169.382,-66.6736 165.882,-76.6737 172.882,-76.6736"/>
</g>
<!-- library&#45;&gt;golem -->
<g id="edge4" class="edge"><title>library&#45;&gt;golem</title>
<path fill="none" stroke="#ebc72d" stroke-dasharray="1,5" d="M164.483,-208.181C145.443,-197.637 118.604,-182.584 95.3821,-168.853 87.2794,-164.062 78.5535,-158.726 70.6075,-153.798"/>
<polygon fill="#ebc72d" stroke="#ebc72d" points="72.3798,-150.778 62.0423,-148.458 68.6762,-156.718 72.3798,-150.778"/>
</g>
<!-- library&#45;&gt;archmage_tower -->
<g id="edge2" class="edge"><title>library&#45;&gt;archmage_tower</title>
<path fill="none" stroke="#ebc72d" stroke-dasharray="1,5" d="M186.169,-208.162C184.153,-199.574 181.441,-188.02 178.786,-176.705"/>
<polygon fill="#ebc72d" stroke="#ebc72d" points="182.178,-175.84 176.485,-166.904 175.363,-177.439 182.178,-175.84"/>
</g>
<!-- library&#45;&gt;behemoth -->
<g id="edge3" class="edge"><title>library&#45;&gt;behemoth</title>
<path fill="none" stroke="#ebc72d" stroke-dasharray="1,5" d="M208.823,-208.162C229.082,-193.895 260.971,-171.437 283.606,-155.497"/>
<polygon fill="#ebc72d" stroke="#ebc72d" points="285.624,-158.356 291.784,-149.737 281.593,-152.633 285.624,-158.356"/>
</g>
<!-- library&#45;&gt;tower_of_souls -->
<g id="edge5" class="edge"><title>library&#45;&gt;tower_of_souls</title>
<path fill="none" stroke="#ebc72d" stroke-dasharray="1,5" d="M235.082,-211.191C273.763,-201.658 330.405,-186.494 378.382,-168.853 386.504,-165.866 394.991,-162.332 403.14,-158.718"/>
<polygon fill="#ebc72d" stroke="#ebc72d" points="404.849,-161.786 412.509,-154.467 401.956,-155.412 404.849,-161.786"/>
</g>
</g>
</svg>
