<?xml version="1.0" encoding="UTF-8" standalone="no"?>
<!DOCTYPE svg PUBLIC "-//W3C//DTD SVG 1.1//EN"
 "http://www.w3.org/Graphics/SVG/1.1/DTD/svg11.dtd">
<!-- Generated by graphviz version 2.38.0 (20140413.2041)
 -->
<!-- Title: test Pages: 1 -->
<svg width="1567pt" height="675pt"
 viewBox="0.00 0.00 1566.75 674.59" xmlns="http://www.w3.org/2000/svg" xmlns:xlink="http://www.w3.org/1999/xlink">
<g id="graph0" class="graph" transform="scale(1 1) rotate(0) translate(4 670.593)">
<title>test</title>
<polygon fill="#151515" stroke="none" points="-4,4 -4,-670.593 1562.75,-670.593 1562.75,4 -4,4"/>
<!-- daemon -->
<g id="node1" class="node"><title>daemon</title>
<g id="a_node1"><a xlink:href="magic_daemon_full.html" xlink:title="Daemon">
<ellipse fill="none" stroke="magenta" cx="1203.95" cy="-342.167" rx="40.8928" ry="18"/>
<text text-anchor="middle" x="1203.95" y="-338.467" font-family="Times,serif" font-size="14.00" fill="#ebc72d">Daemon</text>
</a>
</g>
</g>
<!-- summoner_guild -->
<g id="node2" class="node"><title>summoner_guild</title>
<g id="a_node2"><a xlink:href="magic_summoner_guild_full.html" xlink:title="Summoner\nGuild">
<polygon fill="none" stroke="red" points="1277.05,-571.71 1209.95,-594.808 1142.84,-571.71 1142.91,-534.336 1276.98,-534.336 1277.05,-571.71"/>
<text text-anchor="middle" x="1209.95" y="-565.18" font-family="Times,serif" font-size="14.00" fill="#ebc72d">Summoner</text>
<text text-anchor="middle" x="1209.95" y="-550.18" font-family="Times,serif" font-size="14.00" fill="#ebc72d">Guild</text>
</a>
</g>
</g>
<!-- summoner -->
<g id="node4" class="node"><title>summoner</title>
<g id="a_node4"><a xlink:href="magic_summoner_full.html" xlink:title="Summoner">
<ellipse fill="none" stroke="magenta" cx="1132.95" cy="-454.167" rx="50.0912" ry="18"/>
<text text-anchor="middle" x="1132.95" y="-450.467" font-family="Times,serif" font-size="14.00" fill="#ebc72d">Summoner</text>
</a>
</g>
</g>
<!-- summoner_guild&#45;&gt;summoner -->
<g id="edge42" class="edge"><title>summoner_guild&#45;&gt;summoner</title>
<path fill="none" stroke="#ebc72d" d="M1190.71,-534.101C1178.69,-517.668 1163.28,-496.615 1151.4,-480.386"/>
<polygon fill="#ebc72d" stroke="#ebc72d" points="1153.94,-477.928 1145.21,-471.925 1148.29,-482.062 1153.94,-477.928"/>
</g>
<!-- wicker_behemoth -->
<g id="node6" class="node"><title>wicker_behemoth</title>
<g id="a_node6"><a xlink:href="magic_wicker_behemoth_full.html" xlink:title="Wicker\nBehemoth">
<polygon fill="none" stroke="red" points="1558.56,-464.496 1494.95,-487.594 1431.34,-464.496 1431.4,-427.123 1558.5,-427.123 1558.56,-464.496"/>
<text text-anchor="middle" x="1494.95" y="-457.967" font-family="Times,serif" font-size="14.00" fill="#ebc72d">Wicker</text>
<text text-anchor="middle" x="1494.95" y="-442.967" font-family="Times,serif" font-size="14.00" fill="#ebc72d">Behemoth</text>
</a>
</g>
</g>
<!-- summoner_guild&#45;&gt;wicker_behemoth -->
<g id="edge43" class="edge"><title>summoner_guild&#45;&gt;wicker_behemoth</title>
<path fill="none" stroke="#ebc72d" stroke-dasharray="1,5" d="M1277.36,-540.498C1318.2,-527.879 1371.1,-510.511 1416.95,-492.167 1427.17,-488.074 1437.96,-483.282 1448.14,-478.528"/>
<polygon fill="#ebc72d" stroke="#ebc72d" points="1449.74,-481.641 1457.28,-474.195 1446.74,-475.315 1449.74,-481.641"/>
</g>
<!-- library -->
<g id="node19" class="node"><title>library</title>
<g id="a_node19"><a xlink:href="magic_library_full.html" xlink:title="Library">
<polygon fill="none" stroke="red" points="644.531,-459.729 598.946,-472.167 553.36,-459.729 553.403,-439.604 644.489,-439.604 644.531,-459.729"/>
<text text-anchor="middle" x="598.946" y="-450.467" font-family="Times,serif" font-size="14.00" fill="#ebc72d">Library</text>
</a>
</g>
</g>
<!-- summoner_guild&#45;&gt;library -->
<g id="edge41" class="edge"><title>summoner_guild&#45;&gt;library</title>
<path fill="none" stroke="#ebc72d" stroke-dasharray="1,5" d="M1142.81,-548.819C1018.63,-527.436 755.853,-482.186 647.363,-463.504"/>
<polygon fill="#ebc72d" stroke="#ebc72d" points="647.804,-460.028 637.355,-461.781 646.616,-466.927 647.804,-460.028"/>
</g>
<!-- faster_movement -->
<g id="node20" class="node"><title>faster_movement</title>
<g id="a_node20"><a xlink:href="magic_faster_movement_full.html" xlink:title="Faster\nMovement">
<polygon fill="none" stroke="green" points="1322.61,-268.167 1195.88,-268.167 1163.29,-192.167 1290.01,-192.167 1322.61,-268.167"/>
<text text-anchor="middle" x="1242.95" y="-233.967" font-family="Times,serif" font-size="14.00" fill="#ebc72d">Faster</text>
<text text-anchor="middle" x="1242.95" y="-218.967" font-family="Times,serif" font-size="14.00" fill="#ebc72d">Movement</text>
</a>
</g>
</g>
<!-- summoner_guild&#45;&gt;faster_movement -->
<g id="edge40" class="edge"><title>summoner_guild&#45;&gt;faster_movement</title>
<path fill="none" stroke="#ebc72d" d="M1267.14,-534.284C1272.13,-532.164 1277.11,-530.097 1281.95,-528.167 1326.59,-510.335 1356.18,-531.411 1383.95,-492.167 1432.21,-423.957 1427.37,-375.551 1383.95,-304.167 1376.93,-292.631 1354.63,-279.233 1329.78,-267.088"/>
<polygon fill="#ebc72d" stroke="#ebc72d" points="1331.06,-263.823 1320.53,-262.676 1328.05,-270.141 1331.06,-263.823"/>
</g>
<!-- ancient_summoning -->
<g id="node23" class="node"><title>ancient_summoning</title>
<g id="a_node23"><a xlink:href="magic_ancient_summoning_full.html" xlink:title="Ancient\nSummoning">
<polygon fill="none" stroke="green" points="1375.12,-492.167 1236.45,-492.167 1200.77,-416.167 1339.45,-416.167 1375.12,-492.167"/>
<text text-anchor="middle" x="1287.95" y="-457.967" font-family="Times,serif" font-size="14.00" fill="#ebc72d">Ancient</text>
<text text-anchor="middle" x="1287.95" y="-442.967" font-family="Times,serif" font-size="14.00" fill="#ebc72d">Summoning</text>
</a>
</g>
</g>
<!-- summoner_guild&#45;&gt;ancient_summoning -->
<g id="edge39" class="edge"><title>summoner_guild&#45;&gt;ancient_summoning</title>
<path fill="none" stroke="#ebc72d" d="M1229.43,-534.101C1236.98,-523.914 1245.85,-511.952 1254.36,-500.464"/>
<polygon fill="#ebc72d" stroke="#ebc72d" points="1257.34,-502.332 1260.48,-492.215 1251.71,-498.163 1257.34,-502.332"/>
</g>
<!-- dragon_rider -->
<g id="node3" class="node"><title>dragon_rider</title>
<g id="a_node3"><a xlink:href="magic_dragon_rider_full.html" xlink:title="Dragon\nRider">
<ellipse fill="none" stroke="magenta" cx="934.946" cy="-342.167" rx="40.1111" ry="26.7407"/>
<text text-anchor="middle" x="934.946" y="-345.967" font-family="Times,serif" font-size="14.00" fill="#ebc72d">Dragon</text>
<text text-anchor="middle" x="934.946" y="-330.967" font-family="Times,serif" font-size="14.00" fill="#ebc72d">Rider</text>
</a>
</g>
</g>
<!-- summoner&#45;&gt;daemon -->
<g id="edge32" class="edge"><title>summoner&#45;&gt;daemon</title>
<path fill="none" stroke="#ebc72d" d="M1143.73,-436.46C1155.42,-418.345 1174.21,-389.229 1187.7,-368.34"/>
<polygon fill="#ebc72d" stroke="#ebc72d" points="1190.81,-369.97 1193.29,-359.67 1184.93,-366.174 1190.81,-369.97"/>
</g>
<!-- summoner&#45;&gt;dragon_rider -->
<g id="edge34" class="edge"><title>summoner&#45;&gt;dragon_rider</title>
<path fill="none" stroke="#ebc72d" stroke-dasharray="5,2" d="M1101.79,-439.998C1070.99,-426.503 1022.96,-404.152 983.946,-380.167 978.768,-376.984 973.466,-373.383 968.352,-369.709"/>
<polygon fill="#ebc72d" stroke="#ebc72d" points="970.1,-366.649 959.978,-363.517 965.938,-372.277 970.1,-366.649"/>
</g>
<!-- dragon -->
<g id="node8" class="node"><title>dragon</title>
<g id="a_node8"><a xlink:href="magic_dragon_full.html" xlink:title="Dragon">
<ellipse fill="none" stroke="magenta" cx="418.946" cy="-122.953" rx="37.0935" ry="18"/>
<text text-anchor="middle" x="418.946" y="-119.253" font-family="Times,serif" font-size="14.00" fill="#ebc72d">Dragon</text>
</a>
</g>
</g>
<!-- summoner&#45;&gt;dragon -->
<g id="edge33" class="edge"><title>summoner&#45;&gt;dragon</title>
<path fill="none" stroke="#ebc72d" d="M1136.61,-436.006C1142.05,-405.491 1148.4,-341.497 1115.95,-304.167 1028.84,-203.983 606.343,-145.973 465.065,-129.13"/>
<polygon fill="#ebc72d" stroke="#ebc72d" points="465.338,-125.638 454.997,-127.943 464.518,-132.59 465.338,-125.638"/>
</g>
<!-- golem -->
<g id="node11" class="node"><title>golem</title>
<g id="a_node11"><a xlink:href="magic_golem_full.html" xlink:title="Golem">
<polygon fill="none" stroke="red" points="568.21,-347.729 524.946,-360.167 481.681,-347.729 481.722,-327.604 568.17,-327.604 568.21,-347.729"/>
<text text-anchor="middle" x="524.946" y="-338.467" font-family="Times,serif" font-size="14.00" fill="#ebc72d">Golem</text>
</a>
</g>
</g>
<!-- summoner&#45;&gt;golem -->
<g id="edge37" class="edge"><title>summoner&#45;&gt;golem</title>
<path fill="none" stroke="#ebc72d" stroke-dasharray="1,5" d="M1084.13,-449.728C966.463,-440.966 670.135,-415.936 577.946,-380.167 567.164,-375.983 556.473,-369.171 547.547,-362.525"/>
<polygon fill="#ebc72d" stroke="#ebc72d" points="549.618,-359.701 539.586,-356.295 545.304,-365.214 549.618,-359.701"/>
</g>
<!-- ghost_armor -->
<g id="node13" class="node"><title>ghost_armor</title>
<g id="a_node13"><a xlink:href="magic_ghost_armor_full.html" xlink:title="Ghost\nArmor">
<ellipse fill="none" stroke="magenta" cx="1337.95" cy="-342.167" rx="37.4533" ry="26.7407"/>
<text text-anchor="middle" x="1337.95" y="-345.967" font-family="Times,serif" font-size="14.00" fill="#ebc72d">Ghost</text>
<text text-anchor="middle" x="1337.95" y="-330.967" font-family="Times,serif" font-size="14.00" fill="#ebc72d">Armor</text>
</a>
</g>
</g>
<!-- summoner&#45;&gt;ghost_armor -->
<g id="edge36" class="edge"><title>summoner&#45;&gt;ghost_armor</title>
<path fill="none" stroke="#ebc72d" d="M1155.03,-437.855C1165.87,-430.731 1179.28,-422.462 1191.95,-416.167 1232.38,-396.074 1247.21,-401.612 1286.95,-380.167 1293.09,-376.85 1299.34,-372.888 1305.26,-368.807"/>
<polygon fill="#ebc72d" stroke="#ebc72d" points="1307.56,-371.47 1313.65,-362.806 1303.48,-365.776 1307.56,-371.47"/>
</g>
<!-- behemoth -->
<g id="node16" class="node"><title>behemoth</title>
<g id="a_node16"><a xlink:href="magic_behemoth_full.html" xlink:title="Behemoth">
<ellipse fill="none" stroke="magenta" cx="1387.95" cy="-230.167" rx="47.3916" ry="18"/>
<text text-anchor="middle" x="1387.95" y="-226.467" font-family="Times,serif" font-size="14.00" fill="#ebc72d">Behemoth</text>
</a>
</g>
</g>
<!-- summoner&#45;&gt;behemoth -->
<g id="edge31" class="edge"><title>summoner&#45;&gt;behemoth</title>
<path fill="none" stroke="#ebc72d" stroke-dasharray="1,5" d="M1272.95,-341.167C1283.83,-326.223 1280.07,-318.335 1291.95,-304.167 1302.01,-292.161 1333.1,-269.252 1357.21,-252.286"/>
<polygon fill="#ebc72d" stroke="#ebc72d" points="1359.53,-254.934 1365.72,-246.336 1355.52,-249.196 1359.53,-254.934"/>
</g>
<!-- tower_of_souls -->
<g id="node17" class="node"><title>tower_of_souls</title>
<g id="a_node17"><a xlink:href="magic_tower_of_souls_full.html" xlink:title="Tower\nOf Souls">
<polygon fill="none" stroke="red" points="1106.57,-352.496 1049.95,-375.594 993.321,-352.496 993.374,-315.123 1106.52,-315.123 1106.57,-352.496"/>
<text text-anchor="middle" x="1049.95" y="-345.967" font-family="Times,serif" font-size="14.00" fill="#ebc72d">Tower</text>
<text text-anchor="middle" x="1049.95" y="-330.967" font-family="Times,serif" font-size="14.00" fill="#ebc72d">Of Souls</text>
</a>
</g>
</g>
<!-- summoner&#45;&gt;tower_of_souls -->
<g id="edge38" class="edge"><title>summoner&#45;&gt;tower_of_souls</title>
<path fill="none" stroke="#ebc72d" stroke-dasharray="1,5" d="M1120.34,-436.46C1108.36,-420.578 1089.99,-396.239 1075.02,-376.403"/>
<polygon fill="#ebc72d" stroke="#ebc72d" points="1077.66,-374.09 1068.85,-368.215 1072.08,-378.306 1077.66,-374.09"/>
</g>
<!-- summoner&#45;&gt;faster_movement -->
<g id="edge35" class="edge"><title>summoner&#45;&gt;faster_movement</title>
<path fill="none" stroke="#ebc72d" stroke-dasharray="1,5" d="M1156.37,-438.218C1167.16,-431.406 1180.15,-423.29 1191.95,-416.167 1219.22,-399.7 1232,-403.272 1253.95,-380.167 1266.68,-366.762 1262.06,-358.111 1272.95,-343.167"/>
<path fill="none" stroke="#ebc72d" stroke-dasharray="1,5" d="M1272.95,-341.167C1286.45,-322.627 1281.58,-298.339 1272.21,-277.303"/>
<polygon fill="#ebc72d" stroke="#ebc72d" points="1275.31,-275.677 1267.8,-268.206 1269.01,-278.731 1275.31,-275.677"/>
</g>
<!-- evil_dragon -->
<g id="node5" class="node"><title>evil_dragon</title>
<g id="a_node5"><a xlink:href="magic_evil_dragon_full.html" xlink:title="Evil\nDragon">
<ellipse fill="none" stroke="magenta" cx="233.946" cy="-26.8701" rx="40.1111" ry="26.7407"/>
<text text-anchor="middle" x="233.946" y="-30.6701" font-family="Times,serif" font-size="14.00" fill="#ebc72d">Evil</text>
<text text-anchor="middle" x="233.946" y="-15.6701" font-family="Times,serif" font-size="14.00" fill="#ebc72d">Dragon</text>
</a>
</g>
</g>
<!-- wicker_behemoth&#45;&gt;behemoth -->
<g id="edge44" class="edge"><title>wicker_behemoth&#45;&gt;behemoth</title>
<path fill="none" stroke="#ebc72d" stroke-dasharray="5,2" d="M1482.25,-426.828C1461.61,-383.994 1421,-299.746 1400.47,-257.144"/>
<polygon fill="#ebc72d" stroke="#ebc72d" points="1403.55,-255.475 1396.05,-247.986 1397.24,-258.514 1403.55,-255.475"/>
</g>
<!-- battlemage -->
<g id="node7" class="node"><title>battlemage</title>
<g id="a_node7"><a xlink:href="magic_battlemage_full.html" xlink:title="Battlemage">
<ellipse fill="none" stroke="magenta" cx="333.946" cy="-561.38" rx="51.1914" ry="18"/>
<text text-anchor="middle" x="333.946" y="-557.68" font-family="Times,serif" font-size="14.00" fill="#ebc72d">Battlemage</text>
</a>
</g>
</g>
<!-- archmage -->
<g id="node18" class="node"><title>archmage</title>
<g id="a_node18"><a xlink:href="magic_archmage_full.html" xlink:title="Archmage">
<ellipse fill="none" stroke="magenta" cx="125.946" cy="-230.167" rx="48.1917" ry="18"/>
<text text-anchor="middle" x="125.946" y="-226.467" font-family="Times,serif" font-size="14.00" fill="#ebc72d">Archmage</text>
</a>
</g>
</g>
<!-- battlemage&#45;&gt;archmage -->
<g id="edge5" class="edge"><title>battlemage&#45;&gt;archmage</title>
<path fill="none" stroke="#ebc72d" stroke-dasharray="5,2" d="M309.497,-545.308C267.748,-518.096 183.499,-456.439 144.946,-380.167 125.267,-341.236 123.193,-289.564 124.119,-258.424"/>
<polygon fill="#ebc72d" stroke="#ebc72d" points="127.621,-258.459 124.548,-248.32 120.627,-258.162 127.621,-258.459"/>
</g>
<!-- dragon&#45;&gt;evil_dragon -->
<g id="edge6" class="edge"><title>dragon&#45;&gt;evil_dragon</title>
<path fill="none" stroke="#ebc72d" stroke-dasharray="5,2" d="M394.379,-109.46C363.753,-93.8847 310.984,-67.0485 274.367,-48.4264"/>
<polygon fill="#ebc72d" stroke="#ebc72d" points="275.929,-45.2942 265.428,-43.8808 272.755,-51.5337 275.929,-45.2942"/>
</g>
<!-- power_golem -->
<g id="node9" class="node"><title>power_golem</title>
<g id="a_node9"><a xlink:href="magic_power_golem_full.html" xlink:title="Power\nGolem">
<polygon fill="none" stroke="red" points="329.342,-133.283 281.946,-156.381 234.55,-133.283 234.594,-95.9097 329.298,-95.9097 329.342,-133.283"/>
<text text-anchor="middle" x="281.946" y="-126.753" font-family="Times,serif" font-size="14.00" fill="#ebc72d">Power</text>
<text text-anchor="middle" x="281.946" y="-111.753" font-family="Times,serif" font-size="14.00" fill="#ebc72d">Golem</text>
</a>
</g>
</g>
<!-- energy_source -->
<g id="node10" class="node"><title>energy_source</title>
<g id="a_node10"><a xlink:href="magic_energy_source_full.html" xlink:title="Energy\nSource">
<polygon fill="none" stroke="red" points="97.8374,-352.496 48.9458,-375.594 0.0541453,-352.496 0.0997798,-315.123 97.7918,-315.123 97.8374,-352.496"/>
<text text-anchor="middle" x="48.9458" y="-345.967" font-family="Times,serif" font-size="14.00" fill="#ebc72d">Energy</text>
<text text-anchor="middle" x="48.9458" y="-330.967" font-family="Times,serif" font-size="14.00" fill="#ebc72d">Source</text>
</a>
</g>
</g>
<!-- energy_source&#45;&gt;evil_dragon -->
<g id="edge9" class="edge"><title>energy_source&#45;&gt;evil_dragon</title>
<path fill="none" stroke="#ebc72d" stroke-dasharray="1,5" d="M47.514,-314.928C46.907,-283.959 49.3446,-231.681 68.9458,-192.167 98.5901,-132.406 158.577,-81.4213 197.471,-52.7302"/>
<polygon fill="#ebc72d" stroke="#ebc72d" points="199.871,-55.3132 205.911,-46.6088 195.761,-49.6465 199.871,-55.3132"/>
</g>
<!-- energy_source&#45;&gt;archmage -->
<g id="edge8" class="edge"><title>energy_source&#45;&gt;archmage</title>
<path fill="none" stroke="#ebc72d" stroke-dasharray="1,5" d="M67.1937,-315.098C79.6155,-297.353 95.9692,-273.99 108.268,-256.42"/>
<polygon fill="#ebc72d" stroke="#ebc72d" points="111.42,-258.02 114.288,-247.821 105.686,-254.006 111.42,-258.02"/>
</g>
<!-- golem&#45;&gt;power_golem -->
<g id="edge10" class="edge"><title>golem&#45;&gt;power_golem</title>
<path fill="none" stroke="#ebc72d" stroke-dasharray="5,2" d="M508.511,-327.319C498.7,-319.62 485.7,-310.37 472.946,-304.167 422.106,-279.44 393.976,-304.834 350.946,-268.167 346.438,-264.325 317.262,-201.485 298.32,-160.035"/>
<polygon fill="#ebc72d" stroke="#ebc72d" points="301.431,-158.422 294.097,-150.777 295.063,-161.327 301.431,-158.422"/>
</g>
<!-- mage_tower -->
<g id="node12" class="node"><title>mage_tower</title>
<g id="a_node12"><a xlink:href="magic_mage_tower_full.html" xlink:title="Mage\nTower">
<polygon fill="none" stroke="red" points="717.345,-571.71 671.946,-594.808 626.546,-571.71 626.589,-534.336 717.303,-534.336 717.345,-571.71"/>
<text text-anchor="middle" x="671.946" y="-565.18" font-family="Times,serif" font-size="14.00" fill="#ebc72d">Mage</text>
<text text-anchor="middle" x="671.946" y="-550.18" font-family="Times,serif" font-size="14.00" fill="#ebc72d">Tower</text>
</a>
</g>
</g>
<!-- initiate -->
<g id="node15" class="node"><title>initiate</title>
<g id="a_node15"><a xlink:href="magic_initiate_full.html" xlink:title="Initiate">
<ellipse fill="none" stroke="magenta" cx="634.946" cy="-648.593" rx="35.9954" ry="18"/>
<text text-anchor="middle" x="634.946" y="-644.893" font-family="Times,serif" font-size="14.00" fill="#ebc72d">Initiate</text>
</a>
</g>
</g>
<!-- archmage_tower -->
<g id="node14" class="node"><title>archmage_tower</title>
<g id="a_node14"><a xlink:href="magic_archmage_tower_full.html" xlink:title="Archmage\nTower">
<polygon fill="none" stroke="red" points="283.803,-352.496 218.946,-375.594 154.089,-352.496 154.149,-315.123 283.742,-315.123 283.803,-352.496"/>
<text text-anchor="middle" x="218.946" y="-345.967" font-family="Times,serif" font-size="14.00" fill="#ebc72d">Archmage</text>
<text text-anchor="middle" x="218.946" y="-330.967" font-family="Times,serif" font-size="14.00" fill="#ebc72d">Tower</text>
</a>
</g>
</g>
<!-- archmage_tower&#45;&gt;archmage -->
<g id="edge2" class="edge"><title>archmage_tower&#45;&gt;archmage</title>
<path fill="none" stroke="#ebc72d" stroke-dasharray="1,5" d="M196.906,-315.098C181.535,-296.917 161.178,-272.839 146.211,-255.137"/>
<polygon fill="#ebc72d" stroke="#ebc72d" points="148.88,-252.872 139.751,-247.496 143.535,-257.392 148.88,-252.872"/>
</g>
<!-- dragon_call -->
<g id="node24" class="node"><title>dragon_call</title>
<g id="a_node24"><a xlink:href="magic_dragon_call_full.html" xlink:title="Dragon\nCall">
<polygon fill="none" stroke="green" points="478.136,-268.167 383.978,-268.167 359.756,-192.167 453.914,-192.167 478.136,-268.167"/>
<text text-anchor="middle" x="418.946" y="-233.967" font-family="Times,serif" font-size="14.00" fill="#ebc72d">Dragon</text>
<text text-anchor="middle" x="418.946" y="-218.967" font-family="Times,serif" font-size="14.00" fill="#ebc72d">Call</text>
</a>
</g>
</g>
<!-- archmage_tower&#45;&gt;dragon_call -->
<g id="edge3" class="edge"><title>archmage_tower&#45;&gt;dragon_call</title>
<path fill="none" stroke="#ebc72d" d="M266.343,-315.098C297.568,-297.924 338.359,-275.489 369.911,-258.136"/>
<polygon fill="#ebc72d" stroke="#ebc72d" points="371.891,-261.041 378.967,-253.155 368.518,-254.908 371.891,-261.041"/>
</g>
<!-- golem_power -->
<g id="node26" class="node"><title>golem_power</title>
<g id="a_node26"><a xlink:href="magic_golem_power_full.html" xlink:title="Golem\nPower">
<polygon fill="none" stroke="green" points="303.915,-268.167 214.88,-268.167 191.976,-192.167 281.011,-192.167 303.915,-268.167"/>
<text text-anchor="middle" x="247.946" y="-233.967" font-family="Times,serif" font-size="14.00" fill="#ebc72d">Golem</text>
<text text-anchor="middle" x="247.946" y="-218.967" font-family="Times,serif" font-size="14.00" fill="#ebc72d">Power</text>
</a>
</g>
</g>
<!-- archmage_tower&#45;&gt;golem_power -->
<g id="edge4" class="edge"><title>archmage_tower&#45;&gt;golem_power</title>
<path fill="none" stroke="#ebc72d" d="M225.818,-315.098C228.726,-304.069 232.206,-290.871 235.535,-278.242"/>
<polygon fill="#ebc72d" stroke="#ebc72d" points="238.994,-278.85 238.159,-268.288 232.226,-277.065 238.994,-278.85"/>
</g>
<!-- initiate&#45;&gt;summoner_guild -->
<g id="edge20" class="edge"><title>initiate&#45;&gt;summoner_guild</title>
<path fill="none" stroke="#ebc72d" stroke-width="2" d="M668.768,-642.581C759.006,-629.208 1007.19,-592.428 1133.68,-573.683"/>
<polygon fill="#ebc72d" stroke="#ebc72d" stroke-width="2" points="1134.3,-577.128 1143.68,-572.2 1133.28,-570.204 1134.3,-577.128"/>
</g>
<!-- initiate&#45;&gt;wicker_behemoth -->
<g id="edge22" class="edge"><title>initiate&#45;&gt;wicker_behemoth</title>
<path fill="none" stroke="#ebc72d" stroke-width="2" d="M670.832,-647.032C789.893,-644.805 1170.81,-634.644 1285.95,-594.593 1354.79,-570.644 1422.81,-518.549 1461.75,-485.259"/>
<polygon fill="#ebc72d" stroke="#ebc72d" stroke-width="2" points="1464.34,-487.649 1469.61,-478.458 1459.76,-482.356 1464.34,-487.649"/>
</g>
<!-- initiate&#45;&gt;battlemage -->
<g id="edge15" class="edge"><title>initiate&#45;&gt;battlemage</title>
<path fill="none" stroke="#ebc72d" stroke-dasharray="5,2" d="M604.428,-638.953C552.078,-624.133 444.768,-593.754 382.195,-576.039"/>
<polygon fill="#ebc72d" stroke="#ebc72d" points="383.127,-572.666 372.552,-573.309 381.22,-579.401 383.127,-572.666"/>
</g>
<!-- initiate&#45;&gt;energy_source -->
<g id="edge16" class="edge"><title>initiate&#45;&gt;energy_source</title>
<path fill="none" stroke="#ebc72d" stroke-width="2" d="M599.759,-645.118C520.651,-639.123 331.198,-622.252 273.946,-594.593 175.567,-547.065 101.103,-435.323 67.9299,-378.17"/>
<polygon fill="#ebc72d" stroke="#ebc72d" stroke-width="2" points="70.9655,-376.428 62.9631,-369.485 64.8888,-379.903 70.9655,-376.428"/>
</g>
<!-- initiate&#45;&gt;golem -->
<g id="edge17" class="edge"><title>initiate&#45;&gt;golem</title>
<path fill="none" stroke="#ebc72d" stroke-width="2" d="M524.946,-453.167C503.625,-431.245 508.976,-393.711 515.975,-368.672"/>
<polygon fill="#ebc72d" stroke="#ebc72d" stroke-width="2" points="519.42,-369.374 519.002,-358.788 512.727,-367.324 519.42,-369.374"/>
</g>
<!-- initiate&#45;&gt;mage_tower -->
<g id="edge19" class="edge"><title>initiate&#45;&gt;mage_tower</title>
<path fill="none" stroke="#ebc72d" stroke-width="2" d="M646.273,-621.507C649.43,-614.235 652.918,-606.203 656.277,-598.465"/>
<polygon fill="#ebc72d" stroke="#ebc72d" stroke-width="2" points="643.028,-620.191 642.256,-630.758 649.449,-622.979 643.028,-620.191"/>
<polygon fill="#ebc72d" stroke="#ebc72d" stroke-width="2" points="659.509,-599.81 660.282,-589.243 653.088,-597.022 659.509,-599.81"/>
</g>
<!-- initiate&#45;&gt;archmage_tower -->
<g id="edge14" class="edge"><title>initiate&#45;&gt;archmage_tower</title>
<path fill="none" stroke="#ebc72d" stroke-width="2" d="M623.921,-631.465C613.659,-614.927 599.813,-588.061 598.946,-562.38"/>
<path fill="none" stroke="#ebc72d" stroke-width="2" d="M598.946,-560.38C597.631,-521.458 565.173,-524.817 543.946,-492.167 533.87,-476.668 537.835,-468.418 524.946,-455.167"/>
<path fill="none" stroke="#ebc72d" stroke-width="2" d="M524.946,-453.167C449.58,-375.678 393.159,-420.687 292.946,-380.167 283.558,-376.371 273.728,-371.859 264.413,-367.315"/>
<polygon fill="#ebc72d" stroke="#ebc72d" stroke-width="2" points="265.816,-364.103 255.304,-362.784 262.699,-370.371 265.816,-364.103"/>
</g>
<!-- initiate&#45;&gt;tower_of_souls -->
<g id="edge21" class="edge"><title>initiate&#45;&gt;tower_of_souls</title>
<path fill="none" stroke="#ebc72d" stroke-width="2" d="M598.946,-560.38C595.713,-544.075 605.352,-539.015 617.946,-528.167 750.886,-413.65 825.769,-456.109 983.946,-380.167 992.033,-376.284 1000.5,-371.839 1008.58,-367.409"/>
<polygon fill="#ebc72d" stroke="#ebc72d" stroke-width="2" points="1010.45,-370.371 1017.48,-362.444 1007.04,-364.257 1010.45,-370.371"/>
</g>
<!-- initiate&#45;&gt;library -->
<g id="edge18" class="edge"><title>initiate&#45;&gt;library</title>
<path fill="none" stroke="#ebc72d" stroke-width="2" d="M598.946,-560.38C593.718,-534.016 594.5,-503.2 596.11,-481.76"/>
<polygon fill="#ebc72d" stroke="#ebc72d" stroke-width="2" points="599.6,-482.026 596.972,-471.762 592.626,-481.425 599.6,-482.026"/>
</g>
<!-- library&#45;&gt;dragon_rider -->
<g id="edge24" class="edge"><title>library&#45;&gt;dragon_rider</title>
<path fill="none" stroke="#ebc72d" stroke-dasharray="1,5" d="M616.878,-439.485C628.32,-431.442 643.798,-421.781 658.946,-416.167 754.729,-380.667 791.94,-420.135 885.946,-380.167 891.869,-377.648 897.723,-374.26 903.212,-370.552"/>
<polygon fill="#ebc72d" stroke="#ebc72d" points="905.457,-373.247 911.494,-364.541 901.345,-367.582 905.457,-373.247"/>
</g>
<!-- library&#45;&gt;golem -->
<g id="edge27" class="edge"><title>library&#45;&gt;golem</title>
<path fill="none" stroke="#ebc72d" stroke-dasharray="1,5" d="M589.574,-439.235C577.2,-420.841 555.248,-388.211 540.4,-366.14"/>
<polygon fill="#ebc72d" stroke="#ebc72d" points="543.197,-364.027 534.712,-357.683 537.389,-367.934 543.197,-364.027"/>
</g>
<!-- library&#45;&gt;archmage_tower -->
<g id="edge23" class="edge"><title>library&#45;&gt;archmage_tower</title>
<path fill="none" stroke="#ebc72d" stroke-dasharray="1,5" d="M581.296,-439.604C569.839,-431.501 554.241,-421.732 538.946,-416.167 435.107,-378.386 398.361,-413.293 292.946,-380.167 282.873,-377.001 272.484,-372.603 262.79,-367.941"/>
<polygon fill="#ebc72d" stroke="#ebc72d" points="264.252,-364.759 253.742,-363.422 261.124,-371.021 264.252,-364.759"/>
</g>
<!-- library&#45;&gt;tower_of_souls -->
<g id="edge29" class="edge"><title>library&#45;&gt;tower_of_souls</title>
<path fill="none" stroke="#ebc72d" stroke-dasharray="1,5" d="M616.273,-439.602C627.727,-431.39 643.439,-421.503 658.946,-416.167 796.364,-368.874 845.573,-424.588 983.946,-380.167 993.136,-377.216 1002.49,-372.912 1011.15,-368.273"/>
<polygon fill="#ebc72d" stroke="#ebc72d" points="1012.89,-371.31 1019.89,-363.361 1009.46,-365.207 1012.89,-371.31"/>
</g>
<!-- hell_gate -->
<g id="node21" class="node"><title>hell_gate</title>
<g id="a_node21"><a xlink:href="magic_hell_gate_full.html" xlink:title="Hell\nGate">
<polygon fill="none" stroke="green" points="876.533,-380.167 807.195,-380.167 789.358,-304.167 858.696,-304.167 876.533,-380.167"/>
<text text-anchor="middle" x="832.946" y="-345.967" font-family="Times,serif" font-size="14.00" fill="#ebc72d">Hell</text>
<text text-anchor="middle" x="832.946" y="-330.967" font-family="Times,serif" font-size="14.00" fill="#ebc72d">Gate</text>
</a>
</g>
</g>
<!-- library&#45;&gt;hell_gate -->
<g id="edge28" class="edge"><title>library&#45;&gt;hell_gate</title>
<path fill="none" stroke="#ebc72d" d="M618.223,-439.467C629.648,-431.817 644.648,-422.567 658.946,-416.167 710.157,-393.243 729.407,-404.537 779.946,-380.167 785,-377.729 790.101,-374.833 795.039,-371.749"/>
<polygon fill="#ebc72d" stroke="#ebc72d" points="797.269,-374.472 803.704,-366.056 793.425,-368.622 797.269,-374.472"/>
</g>
<!-- energy_compression -->
<g id="node22" class="node"><title>energy_compression</title>
<g id="a_node22"><a xlink:href="magic_energy_compression_full.html" xlink:title="Energy\nCompression">
<polygon fill="none" stroke="green" points="770.988,-380.167 624.569,-380.167 586.903,-304.167 733.322,-304.167 770.988,-380.167"/>
<text text-anchor="middle" x="678.946" y="-345.967" font-family="Times,serif" font-size="14.00" fill="#ebc72d">Energy</text>
<text text-anchor="middle" x="678.946" y="-330.967" font-family="Times,serif" font-size="14.00" fill="#ebc72d">Compression</text>
</a>
</g>
</g>
<!-- library&#45;&gt;energy_compression -->
<g id="edge25" class="edge"><title>library&#45;&gt;energy_compression</title>
<path fill="none" stroke="#ebc72d" d="M609.078,-439.235C618.339,-426.501 632.563,-406.944 645.765,-388.79"/>
<polygon fill="#ebc72d" stroke="#ebc72d" points="648.686,-390.724 651.738,-380.578 643.025,-386.607 648.686,-390.724"/>
</g>
<!-- energy_sharpening -->
<g id="node25" class="node"><title>energy_sharpening</title>
<g id="a_node25"><a xlink:href="magic_energy_sharpening_full.html" xlink:title="Energy\nSharpening">
<polygon fill="none" stroke="green" points="463.68,-380.167 335.25,-380.167 302.212,-304.167 430.641,-304.167 463.68,-380.167"/>
<text text-anchor="middle" x="382.946" y="-345.967" font-family="Times,serif" font-size="14.00" fill="#ebc72d">Energy</text>
<text text-anchor="middle" x="382.946" y="-330.967" font-family="Times,serif" font-size="14.00" fill="#ebc72d">Sharpening</text>
</a>
</g>
</g>
<!-- library&#45;&gt;energy_sharpening -->
<g id="edge26" class="edge"><title>library&#45;&gt;energy_sharpening</title>
<path fill="none" stroke="#ebc72d" d="M578.19,-439.551C566.793,-432.283 552.299,-423.377 538.946,-416.167 517.766,-404.729 494.48,-393.267 472.508,-382.926"/>
<polygon fill="#ebc72d" stroke="#ebc72d" points="473.723,-379.63 463.182,-378.566 470.759,-385.971 473.723,-379.63"/>
</g>
<!-- hell_gate&#45;&gt;behemoth -->
<g id="edge12" class="edge"><title>hell_gate&#45;&gt;behemoth</title>
<path fill="none" stroke="#ebc72d" stroke-dasharray="1,5" d="M861.955,-316.862C869.362,-311.836 877.603,-307.165 885.946,-304.167 1073.09,-236.91 1143.95,-333.023 1331.95,-268.167 1342.19,-264.632 1352.38,-258.783 1361.21,-252.767"/>
<polygon fill="#ebc72d" stroke="#ebc72d" points="1363.46,-255.459 1369.53,-246.775 1359.37,-249.778 1363.46,-255.459"/>
</g>
<!-- hell_gate&#45;&gt;faster_movement -->
<g id="edge13" class="edge"><title>hell_gate&#45;&gt;faster_movement</title>
<path fill="none" stroke="#ebc72d" stroke-dasharray="1,5" d="M861.956,-317.771C869.427,-312.65 877.697,-307.709 885.946,-304.167 980.049,-263.76 1097.9,-245.265 1171.83,-237.128"/>
<polygon fill="#ebc72d" stroke="#ebc72d" points="1172.39,-240.588 1181.96,-236.047 1171.65,-233.627 1172.39,-240.588"/>
</g>
<!-- ancient_summoning&#45;&gt;ghost_armor -->
<g id="edge1" class="edge"><title>ancient_summoning&#45;&gt;ghost_armor</title>
<path fill="none" stroke="#ebc72d" stroke-dasharray="1,5" d="M1304.87,-415.926C1310.55,-403.434 1316.85,-389.573 1322.42,-377.329"/>
<polygon fill="#ebc72d" stroke="#ebc72d" points="1325.75,-378.465 1326.7,-367.913 1319.37,-375.568 1325.75,-378.465"/>
</g>
<!-- dragon_call&#45;&gt;dragon -->
<g id="edge7" class="edge"><title>dragon_call&#45;&gt;dragon</title>
<path fill="none" stroke="#ebc72d" stroke-dasharray="1,5" d="M418.946,-192.072C418.946,-178.619 418.946,-163.68 418.946,-151.227"/>
<polygon fill="#ebc72d" stroke="#ebc72d" points="422.446,-151.025 418.946,-141.025 415.446,-151.025 422.446,-151.025"/>
</g>
<!-- golem_power&#45;&gt;power_golem -->
<g id="edge11" class="edge"><title>golem_power&#45;&gt;power_golem</title>
<path fill="none" stroke="#ebc72d" stroke-dasharray="1,5" d="M259.933,-192.072C263.116,-182.222 266.557,-171.574 269.751,-161.69"/>
<polygon fill="#ebc72d" stroke="#ebc72d" points="273.1,-162.709 272.845,-152.117 266.439,-160.556 273.1,-162.709"/>
</g>
</g>
</svg>
