<?xml version="1.0" encoding="UTF-8" standalone="no"?>
<!DOCTYPE svg PUBLIC "-//W3C//DTD SVG 1.1//EN"
 "http://www.w3.org/Graphics/SVG/1.1/DTD/svg11.dtd">
<!-- Generated by graphviz version 2.38.0 (20140413.2041)
 -->
<!-- Title: test Pages: 1 -->
<svg width="1010pt" height="633pt"
 viewBox="0.00 0.00 1010.14 633.19" xmlns="http://www.w3.org/2000/svg" xmlns:xlink="http://www.w3.org/1999/xlink">
<g id="graph0" class="graph" transform="scale(1 1) rotate(0) translate(4 629.186)">
<title>test</title>
<polygon fill="#151515" stroke="none" points="-4,4 -4,-629.186 1006.14,-629.186 1006.14,4 -4,4"/>
<!-- dryad -->
<g id="node1" class="node"><title>dryad</title>
<g id="a_node1"><a xlink:href="elves_dryad_full.html" xlink:title="Dryad">
<ellipse fill="none" stroke="magenta" cx="188.56" cy="-129.296" rx="32.4942" ry="18"/>
<text text-anchor="middle" x="188.56" y="-125.596" font-family="Times,serif" font-size="14.00" fill="#ebc72d">Dryad</text>
</a>
</g>
</g>
<!-- grey_elf_archer -->
<g id="node2" class="node"><title>grey_elf_archer</title>
<g id="a_node2"><a xlink:href="elves_grey_elf_archer_full.html" xlink:title="Grey\nElf Archer">
<ellipse fill="none" stroke="magenta" cx="634.56" cy="-225.38" rx="52.1524" ry="26.7407"/>
<text text-anchor="middle" x="634.56" y="-229.18" font-family="Times,serif" font-size="14.00" fill="#ebc72d">Grey</text>
<text text-anchor="middle" x="634.56" y="-214.18" font-family="Times,serif" font-size="14.00" fill="#ebc72d">Elf Archer</text>
</a>
</g>
</g>
<!-- forge -->
<g id="node3" class="node"><title>forge</title>
<g id="a_node3"><a xlink:href="elves_forge_full.html" xlink:title="Forge">
<polygon fill="none" stroke="red" points="296.184,-333.369 257.56,-345.806 218.936,-333.369 218.972,-313.244 296.148,-313.244 296.184,-333.369"/>
<text text-anchor="middle" x="257.56" y="-324.106" font-family="Times,serif" font-size="14.00" fill="#ebc72d">Forge</text>
</a>
</g>
</g>
<!-- corral -->
<g id="node4" class="node"><title>corral</title>
<g id="a_node4"><a xlink:href="elves_corral_full.html" xlink:title="Corral">
<polygon fill="none" stroke="red" points="539.504,-333.369 498.56,-345.806 457.616,-333.369 457.654,-313.244 539.466,-313.244 539.504,-333.369"/>
<text text-anchor="middle" x="498.56" y="-324.106" font-family="Times,serif" font-size="14.00" fill="#ebc72d">Corral</text>
</a>
</g>
</g>
<!-- reaver -->
<g id="node8" class="node"><title>reaver</title>
<g id="a_node8"><a xlink:href="elves_reaver_full.html" xlink:title="Reaver">
<ellipse fill="none" stroke="magenta" cx="509.56" cy="-129.296" rx="35.9954" ry="18"/>
<text text-anchor="middle" x="509.56" y="-125.596" font-family="Times,serif" font-size="14.00" fill="#ebc72d">Reaver</text>
</a>
</g>
</g>
<!-- corral&#45;&gt;reaver -->
<g id="edge6" class="edge"><title>corral&#45;&gt;reaver</title>
<path fill="none" stroke="#ebc72d" d="M404.56,-224.38C401.592,-204.181 447.077,-170.357 479.129,-149.242"/>
<polygon fill="#ebc72d" stroke="#ebc72d" points="481.274,-152.022 487.761,-143.645 477.466,-146.148 481.274,-152.022"/>
</g>
<!-- corral_gryphon_nest -->
<g id="node10" class="node"><title>corral_gryphon_nest</title>
<g id="a_node10"><a xlink:href="elves_corral_gryphon_nest_full.html" xlink:title="Corral\nGryphon Nest">
<ellipse fill="none" stroke="magenta" cx="498.56" cy="-225.38" rx="65.5227" ry="26.7407"/>
<text text-anchor="middle" x="498.56" y="-229.18" font-family="Times,serif" font-size="14.00" fill="#ebc72d">Corral</text>
<text text-anchor="middle" x="498.56" y="-214.18" font-family="Times,serif" font-size="14.00" fill="#ebc72d">Gryphon Nest</text>
</a>
</g>
</g>
<!-- corral&#45;&gt;corral_gryphon_nest -->
<g id="edge5" class="edge"><title>corral&#45;&gt;corral_gryphon_nest</title>
<path fill="none" stroke="#ebc72d" stroke-dasharray="5,2" d="M498.56,-312.842C498.56,-299.988 498.56,-280.348 498.56,-263.033"/>
<polygon fill="#ebc72d" stroke="#ebc72d" points="502.06,-262.634 498.56,-252.634 495.06,-262.634 502.06,-262.634"/>
</g>
<!-- silver_helm_lancer -->
<g id="node15" class="node"><title>silver_helm_lancer</title>
<g id="a_node15"><a xlink:href="elves_silver_helm_lancer_full.html" xlink:title="Silver\nHelm Lancer">
<ellipse fill="none" stroke="magenta" cx="392.56" cy="-129.296" rx="62.8651" ry="26.7407"/>
<text text-anchor="middle" x="392.56" y="-133.096" font-family="Times,serif" font-size="14.00" fill="#ebc72d">Silver</text>
<text text-anchor="middle" x="392.56" y="-118.096" font-family="Times,serif" font-size="14.00" fill="#ebc72d">Helm Lancer</text>
</a>
</g>
</g>
<!-- corral&#45;&gt;silver_helm_lancer -->
<g id="edge7" class="edge"><title>corral&#45;&gt;silver_helm_lancer</title>
<path fill="none" stroke="#ebc72d" d="M474.478,-313.139C448.594,-296.552 410.358,-265.838 404.56,-226.38"/>
<path fill="none" stroke="#ebc72d" d="M404.56,-224.38C401.765,-205.357 399.023,-184.114 396.867,-166.634"/>
<polygon fill="#ebc72d" stroke="#ebc72d" points="400.291,-165.793 395.606,-156.29 393.342,-166.64 400.291,-165.793"/>
</g>
<!-- minstrel -->
<g id="node5" class="node"><title>minstrel</title>
<g id="a_node5"><a xlink:href="elves_minstrel_full.html" xlink:title="Minstrel">
<ellipse fill="none" stroke="magenta" cx="188.56" cy="-225.38" rx="40.8928" ry="18"/>
<text text-anchor="middle" x="188.56" y="-221.68" font-family="Times,serif" font-size="14.00" fill="#ebc72d">Minstrel</text>
</a>
</g>
</g>
<!-- minstrel&#45;&gt;dryad -->
<g id="edge27" class="edge"><title>minstrel&#45;&gt;dryad</title>
<path fill="none" stroke="#ebc72d" d="M188.56,-207.123C188.56,-193.331 188.56,-173.735 188.56,-157.786"/>
<polygon fill="#ebc72d" stroke="#ebc72d" points="192.06,-157.443 188.56,-147.443 185.06,-157.443 192.06,-157.443"/>
</g>
<!-- ent -->
<g id="node7" class="node"><title>ent</title>
<g id="a_node7"><a xlink:href="elves_ent_full.html" xlink:title="Ent">
<ellipse fill="none" stroke="magenta" cx="58.5601" cy="-129.296" rx="27" ry="18"/>
<text text-anchor="middle" x="58.5601" y="-125.596" font-family="Times,serif" font-size="14.00" fill="#ebc72d">Ent</text>
</a>
</g>
</g>
<!-- minstrel&#45;&gt;ent -->
<g id="edge28" class="edge"><title>minstrel&#45;&gt;ent</title>
<path fill="none" stroke="#ebc72d" d="M168.248,-209.679C145.634,-193.314 109.035,-166.826 84.4,-148.997"/>
<polygon fill="#ebc72d" stroke="#ebc72d" points="86.3809,-146.11 76.2278,-143.083 82.2769,-151.781 86.3809,-146.11"/>
</g>
<!-- prince -->
<g id="node6" class="node"><title>prince</title>
<g id="a_node6"><a xlink:href="elves_prince_full.html" xlink:title="Prince">
<ellipse fill="none" stroke="magenta" cx="901.56" cy="-129.296" rx="33.2948" ry="18"/>
<text text-anchor="middle" x="901.56" y="-125.596" font-family="Times,serif" font-size="14.00" fill="#ebc72d">Prince</text>
</a>
</g>
</g>
<!-- forest_guardian -->
<g id="node19" class="node"><title>forest_guardian</title>
<g id="a_node19"><a xlink:href="elves_forest_guardian_full.html" xlink:title="Forest\nGuardian">
<polygon fill="none" stroke="red" points="117.181,-43.543 58.5601,-66.641 -0.0602091,-43.543 -0.00549398,-6.16955 117.126,-6.16955 117.181,-43.543"/>
<text text-anchor="middle" x="58.5601" y="-37.0132" font-family="Times,serif" font-size="14.00" fill="#ebc72d">Forest</text>
<text text-anchor="middle" x="58.5601" y="-22.0132" font-family="Times,serif" font-size="14.00" fill="#ebc72d">Guardian</text>
</a>
</g>
</g>
<!-- ent&#45;&gt;forest_guardian -->
<g id="edge21" class="edge"><title>ent&#45;&gt;forest_guardian</title>
<path fill="none" stroke="#ebc72d" stroke-width="2" d="M58.5601,-111.04C58.5601,-101.342 58.5601,-88.775 58.5601,-76.6241"/>
<polygon fill="#ebc72d" stroke="#ebc72d" stroke-width="2" points="62.0602,-76.5872 58.5601,-66.5872 55.0602,-76.5873 62.0602,-76.5872"/>
</g>
<!-- academy -->
<g id="node9" class="node"><title>academy</title>
<g id="a_node9"><a xlink:href="elves_academy_full.html" xlink:title="Academy">
<polygon fill="none" stroke="red" points="743.926,-333.369 688.56,-345.806 633.195,-333.369 633.246,-313.244 743.874,-313.244 743.926,-333.369"/>
<text text-anchor="middle" x="688.56" y="-324.106" font-family="Times,serif" font-size="14.00" fill="#ebc72d">Academy</text>
</a>
</g>
</g>
<!-- academy&#45;&gt;grey_elf_archer -->
<g id="edge2" class="edge"><title>academy&#45;&gt;grey_elf_archer</title>
<path fill="none" stroke="#ebc72d" d="M681.052,-312.842C673.796,-299.349 662.52,-278.378 652.89,-260.469"/>
<polygon fill="#ebc72d" stroke="#ebc72d" points="655.853,-258.588 648.034,-251.438 649.688,-261.903 655.853,-258.588"/>
</g>
<!-- galadrim_archer -->
<g id="node13" class="node"><title>galadrim_archer</title>
<g id="a_node13"><a xlink:href="elves_galadrim_archer_full.html" xlink:title="Galadrim\nArcher">
<ellipse fill="none" stroke="magenta" cx="846.56" cy="-225.38" rx="48.1667" ry="26.7407"/>
<text text-anchor="middle" x="846.56" y="-229.18" font-family="Times,serif" font-size="14.00" fill="#ebc72d">Galadrim</text>
<text text-anchor="middle" x="846.56" y="-214.18" font-family="Times,serif" font-size="14.00" fill="#ebc72d">Archer</text>
</a>
</g>
</g>
<!-- academy&#45;&gt;galadrim_archer -->
<g id="edge1" class="edge"><title>academy&#45;&gt;galadrim_archer</title>
<path fill="none" stroke="#ebc72d" d="M710.198,-313.053C735.044,-297.26 776.314,-271.029 806.956,-251.552"/>
<polygon fill="#ebc72d" stroke="#ebc72d" points="809.132,-254.317 815.694,-245.999 805.377,-248.409 809.132,-254.317"/>
</g>
<!-- lore_house -->
<g id="node20" class="node"><title>lore_house</title>
<g id="a_node20"><a xlink:href="elves_lore_house_full.html" xlink:title="Lore\nHouse">
<polygon fill="none" stroke="red" points="1002.21,-235.71 957.56,-258.808 912.909,-235.71 912.95,-198.336 1002.17,-198.336 1002.21,-235.71"/>
<text text-anchor="middle" x="957.56" y="-229.18" font-family="Times,serif" font-size="14.00" fill="#ebc72d">Lore</text>
<text text-anchor="middle" x="957.56" y="-214.18" font-family="Times,serif" font-size="14.00" fill="#ebc72d">House</text>
</a>
</g>
</g>
<!-- academy&#45;&gt;lore_house -->
<g id="edge3" class="edge"><title>academy&#45;&gt;lore_house</title>
<path fill="none" stroke="#ebc72d" stroke-dasharray="1,5" d="M714.596,-313.181C727.308,-306.912 742.974,-299.741 757.56,-294.593 820.583,-272.351 841.742,-283.99 903.56,-258.593 909.524,-256.143 915.61,-253.109 921.445,-249.89"/>
<polygon fill="#ebc72d" stroke="#ebc72d" points="923.449,-252.775 930.353,-244.739 919.944,-246.715 923.449,-252.775"/>
</g>
<!-- magol_hedir -->
<g id="node21" class="node"><title>magol_hedir</title>
<g id="a_node21"><a xlink:href="elves_magol_hedir_full.html" xlink:title="Magol\nHedir">
<ellipse fill="none" stroke="magenta" cx="742.56" cy="-225.38" rx="37.4533" ry="26.7407"/>
<text text-anchor="middle" x="742.56" y="-229.18" font-family="Times,serif" font-size="14.00" fill="#ebc72d">Magol</text>
<text text-anchor="middle" x="742.56" y="-214.18" font-family="Times,serif" font-size="14.00" fill="#ebc72d">Hedir</text>
</a>
</g>
</g>
<!-- academy&#45;&gt;magol_hedir -->
<g id="edge4" class="edge"><title>academy&#45;&gt;magol_hedir</title>
<path fill="none" stroke="#ebc72d" d="M696.069,-312.842C703.423,-299.166 714.908,-277.806 724.622,-259.74"/>
<polygon fill="#ebc72d" stroke="#ebc72d" points="727.857,-261.115 729.51,-250.65 721.691,-257.8 727.857,-261.115"/>
</g>
<!-- corral_gryphon_nest&#45;&gt;reaver -->
<g id="edge9" class="edge"><title>corral_gryphon_nest&#45;&gt;reaver</title>
<path fill="none" stroke="#ebc72d" d="M501.595,-198.422C503.086,-185.674 504.88,-170.322 506.389,-157.421"/>
<polygon fill="#ebc72d" stroke="#ebc72d" points="509.89,-157.61 507.575,-147.271 502.938,-156.797 509.89,-157.61"/>
</g>
<!-- corral_gryphon_nest&#45;&gt;silver_helm_lancer -->
<g id="edge10" class="edge"><title>corral_gryphon_nest&#45;&gt;silver_helm_lancer</title>
<path fill="none" stroke="#ebc72d" d="M471.812,-200.639C458.15,-188.513 441.375,-173.624 426.782,-160.671"/>
<polygon fill="#ebc72d" stroke="#ebc72d" points="428.735,-157.725 418.933,-153.704 424.088,-162.96 428.735,-157.725"/>
</g>
<!-- gryphon -->
<g id="node22" class="node"><title>gryphon</title>
<g id="a_node22"><a xlink:href="elves_gryphon_full.html" xlink:title="Gryphon">
<ellipse fill="none" stroke="magenta" cx="605.56" cy="-129.296" rx="42.4939" ry="18"/>
<text text-anchor="middle" x="605.56" y="-125.596" font-family="Times,serif" font-size="14.00" fill="#ebc72d">Gryphon</text>
</a>
</g>
</g>
<!-- corral_gryphon_nest&#45;&gt;gryphon -->
<g id="edge8" class="edge"><title>corral_gryphon_nest&#45;&gt;gryphon</title>
<path fill="none" stroke="#ebc72d" d="M525.561,-200.639C542.373,-185.856 563.857,-166.966 580.326,-152.484"/>
<polygon fill="#ebc72d" stroke="#ebc72d" points="582.768,-154.998 587.966,-145.767 578.145,-149.741 582.768,-154.998"/>
</g>
<!-- taming_song -->
<g id="node23" class="node"><title>taming_song</title>
<ellipse fill="none" stroke="black" cx="722.56" cy="-129.296" rx="56.59" ry="18"/>
<text text-anchor="middle" x="722.56" y="-125.596" font-family="Times,serif" font-size="14.00">taming_song</text>
</g>
<!-- corral_gryphon_nest&#45;&gt;taming_song -->
<g id="edge11" class="edge"><title>corral_gryphon_nest&#45;&gt;taming_song</title>
<path fill="none" stroke="#ebc72d" stroke-dasharray="1,5" d="M542.543,-205.383C552.718,-201.018 563.508,-196.412 573.56,-192.167 609.416,-177.023 650.248,-160.09 680.089,-147.772"/>
<polygon fill="#ebc72d" stroke="#ebc72d" points="681.462,-150.992 689.372,-143.943 678.793,-144.521 681.462,-150.992"/>
</g>
<!-- wood_hall -->
<g id="node11" class="node"><title>wood_hall</title>
<g id="a_node11"><a xlink:href="elves_wood_hall_full.html" xlink:title="Wood\nHall">
<polygon fill="none" stroke="red" points="401.464,-338.136 357.56,-361.234 313.656,-338.136 313.697,-300.763 401.423,-300.763 401.464,-338.136"/>
<text text-anchor="middle" x="357.56" y="-331.606" font-family="Times,serif" font-size="14.00" fill="#ebc72d">Wood</text>
<text text-anchor="middle" x="357.56" y="-316.606" font-family="Times,serif" font-size="14.00" fill="#ebc72d">Hall</text>
</a>
</g>
</g>
<!-- wood_hall&#45;&gt;minstrel -->
<g id="edge34" class="edge"><title>wood_hall&#45;&gt;minstrel</title>
<path fill="none" stroke="#ebc72d" d="M315.616,-300.689C312.22,-298.615 308.837,-296.563 305.56,-294.593 277.273,-277.59 244.831,-258.725 221.295,-245.151"/>
<polygon fill="#ebc72d" stroke="#ebc72d" points="222.835,-242 212.423,-240.043 219.342,-248.066 222.835,-242"/>
</g>
<!-- gryphon_rider -->
<g id="node12" class="node"><title>gryphon_rider</title>
<g id="a_node12"><a xlink:href="elves_gryphon_rider_full.html" xlink:title="Gryphon\nRider">
<ellipse fill="none" stroke="magenta" cx="605.56" cy="-33.2132" rx="45.9239" ry="26.7407"/>
<text text-anchor="middle" x="605.56" y="-37.0132" font-family="Times,serif" font-size="14.00" fill="#ebc72d">Gryphon</text>
<text text-anchor="middle" x="605.56" y="-22.0132" font-family="Times,serif" font-size="14.00" fill="#ebc72d">Rider</text>
</a>
</g>
</g>
<!-- galadrim_archer&#45;&gt;prince -->
<g id="edge22" class="edge"><title>galadrim_archer&#45;&gt;prince</title>
<path fill="none" stroke="#ebc72d" stroke-dasharray="5,2" d="M861.011,-199.66C868.976,-186.036 878.841,-169.159 886.847,-155.464"/>
<polygon fill="#ebc72d" stroke="#ebc72d" points="890.021,-156.97 892.047,-146.57 883.978,-153.437 890.021,-156.97"/>
</g>
<!-- sanctuary -->
<g id="node14" class="node"><title>sanctuary</title>
<g id="a_node14"><a xlink:href="elves_sanctuary_full.html" xlink:title="Sanctuary">
<polygon fill="none" stroke="red" points="200.639,-333.369 143.56,-345.806 86.4812,-333.369 86.5344,-313.244 200.586,-313.244 200.639,-333.369"/>
<text text-anchor="middle" x="143.56" y="-324.106" font-family="Times,serif" font-size="14.00" fill="#ebc72d">Sanctuary</text>
</a>
</g>
</g>
<!-- elf -->
<g id="node17" class="node"><title>elf</title>
<g id="a_node17"><a xlink:href="elves_elf_full.html" xlink:title="Elf">
<ellipse fill="none" stroke="magenta" cx="463.56" cy="-415.019" rx="27" ry="18"/>
<text text-anchor="middle" x="463.56" y="-411.319" font-family="Times,serif" font-size="14.00" fill="#ebc72d">Elf</text>
</a>
</g>
</g>
<!-- wise_elf -->
<g id="node16" class="node"><title>wise_elf</title>
<g id="a_node16"><a xlink:href="elves_wise_elf_full.html" xlink:title="Wise\nElf">
<ellipse fill="none" stroke="magenta" cx="502.56" cy="-598.316" rx="31.6406" ry="26.7407"/>
<text text-anchor="middle" x="502.56" y="-602.116" font-family="Times,serif" font-size="14.00" fill="#ebc72d">Wise</text>
<text text-anchor="middle" x="502.56" y="-587.116" font-family="Times,serif" font-size="14.00" fill="#ebc72d">Elf</text>
</a>
</g>
</g>
<!-- wise_elf&#45;&gt;ent -->
<g id="edge31" class="edge"><title>wise_elf&#45;&gt;ent</title>
<path fill="none" stroke="#ebc72d" stroke-dasharray="1,5" d="M58.5601,-224.38C55.4302,-202.069 55.673,-176.488 56.5628,-157.638"/>
<polygon fill="#ebc72d" stroke="#ebc72d" points="60.0719,-157.573 57.1408,-147.392 53.083,-157.179 60.0719,-157.573"/>
</g>
<!-- tree_of_life -->
<g id="node18" class="node"><title>tree_of_life</title>
<g id="a_node18"><a xlink:href="elves_tree_of_life_full.html" xlink:title="Tree\nOf Life">
<polygon fill="none" stroke="red" points="591.2,-512.562 541.56,-535.66 491.92,-512.562 491.966,-475.189 591.154,-475.189 591.2,-512.562"/>
<text text-anchor="middle" x="541.56" y="-506.033" font-family="Times,serif" font-size="14.00" fill="#ebc72d">Tree</text>
<text text-anchor="middle" x="541.56" y="-491.033" font-family="Times,serif" font-size="14.00" fill="#ebc72d">Of Life</text>
</a>
</g>
</g>
<!-- wise_elf&#45;&gt;tree_of_life -->
<g id="edge33" class="edge"><title>wise_elf&#45;&gt;tree_of_life</title>
<path fill="none" stroke="#ebc72d" stroke-width="2" d="M512.807,-572.597C516.961,-562.575 521.845,-550.793 526.397,-539.813"/>
<polygon fill="#ebc72d" stroke="#ebc72d" stroke-width="2" points="529.689,-541.012 530.285,-530.434 523.222,-538.331 529.689,-541.012"/>
</g>
<!-- wise_elf&#45;&gt;forest_guardian -->
<g id="edge32" class="edge"><title>wise_elf&#45;&gt;forest_guardian</title>
<path fill="none" stroke="#ebc72d" stroke-width="2" d="M472.105,-590.347C392.26,-570.345 176.251,-504.727 77.5601,-361.019 43.3486,-311.203 66.956,-286.226 58.5601,-226.38"/>
<path fill="none" stroke="#ebc72d" stroke-width="2" d="M58.5601,-224.38C52.152,-190.704 30.8019,-189.441 22.5601,-156.167 16.8177,-132.983 16.8177,-125.61 22.5601,-102.426 25.4237,-90.8655 30.6432,-79.1036 36.2358,-68.676"/>
<polygon fill="#ebc72d" stroke="#ebc72d" stroke-width="2" points="39.3254,-70.3227 41.1968,-59.8944 33.2307,-66.8796 39.3254,-70.3227"/>
</g>
<!-- elf&#45;&gt;forge -->
<g id="edge15" class="edge"><title>elf&#45;&gt;forge</title>
<path fill="none" stroke="#ebc72d" stroke-width="2" d="M438.472,-407.984C406.402,-399.753 349.637,-383.426 304.56,-361.019 296.712,-357.118 288.667,-352.06 281.502,-347.111"/>
<polygon fill="#ebc72d" stroke="#ebc72d" stroke-width="2" points="283.142,-343.981 272.976,-340.998 279.063,-349.67 283.142,-343.981"/>
</g>
<!-- elf&#45;&gt;corral -->
<g id="edge13" class="edge"><title>elf&#45;&gt;corral</title>
<path fill="none" stroke="#ebc72d" stroke-width="2" d="M470.308,-397.589C475.424,-385.136 482.54,-367.811 488.35,-353.665"/>
<polygon fill="#ebc72d" stroke="#ebc72d" stroke-width="2" points="491.741,-354.621 492.303,-344.041 485.266,-351.961 491.741,-354.621"/>
</g>
<!-- elf&#45;&gt;academy -->
<g id="edge12" class="edge"><title>elf&#45;&gt;academy</title>
<path fill="none" stroke="#ebc72d" stroke-width="2" d="M486.373,-405.38C524.965,-390.764 603.514,-361.015 650.539,-343.206"/>
<polygon fill="#ebc72d" stroke="#ebc72d" stroke-width="2" points="651.957,-346.411 660.069,-339.596 649.478,-339.865 651.957,-346.411"/>
</g>
<!-- elf&#45;&gt;wood_hall -->
<g id="edge20" class="edge"><title>elf&#45;&gt;wood_hall</title>
<path fill="none" stroke="#ebc72d" stroke-width="2" d="M446.998,-400.705C431.883,-388.554 409.104,-370.242 390.318,-355.141"/>
<polygon fill="#ebc72d" stroke="#ebc72d" stroke-width="2" points="392.265,-352.215 382.279,-348.677 387.88,-357.671 392.265,-352.215"/>
</g>
<!-- elf&#45;&gt;sanctuary -->
<g id="edge17" class="edge"><title>elf&#45;&gt;sanctuary</title>
<path fill="none" stroke="#ebc72d" stroke-width="2" d="M427.007,-409.306C376.964,-402.2 284.759,-386.768 209.56,-361.019 197.711,-356.962 185.238,-351.276 174.365,-345.808"/>
<polygon fill="#ebc72d" stroke="#ebc72d" stroke-width="2" points="426.638,-412.788 437.024,-410.696 427.601,-405.854 426.638,-412.788"/>
<polygon fill="#ebc72d" stroke="#ebc72d" stroke-width="2" points="175.767,-342.593 165.277,-341.106 172.55,-348.81 175.767,-342.593"/>
</g>
<!-- elf&#45;&gt;wise_elf -->
<g id="edge19" class="edge"><title>elf&#45;&gt;wise_elf</title>
<path fill="none" stroke="#ebc72d" stroke-dasharray="5,2" d="M465.444,-433.191C468.198,-456.54 473.949,-499.513 482.56,-535.446 484.701,-544.379 487.502,-553.884 490.326,-562.696"/>
<polygon fill="#ebc72d" stroke="#ebc72d" points="487.033,-563.883 493.492,-572.282 493.679,-561.688 487.033,-563.883"/>
</g>
<!-- elf&#45;&gt;forest_guardian -->
<g id="edge14" class="edge"><title>elf&#45;&gt;forest_guardian</title>
<path fill="none" stroke="#ebc72d" stroke-width="2" d="M458.16,-397.284C449.992,-373.324 433.035,-328.41 410.56,-294.593 345.618,-196.878 326.564,-168.426 229.56,-102.426 195.287,-79.1073 151.85,-61.9079 117.332,-50.6129"/>
<polygon fill="#ebc72d" stroke="#ebc72d" stroke-width="2" points="117.978,-47.1454 107.388,-47.4403 115.851,-53.8143 117.978,-47.1454"/>
</g>
<!-- elf&#45;&gt;lore_house -->
<g id="edge16" class="edge"><title>elf&#45;&gt;lore_house</title>
<path fill="none" stroke="#ebc72d" stroke-width="2" d="M490.523,-411.801C553.78,-406.171 709.61,-389.704 752.56,-361.019 781.806,-341.487 767.756,-316.128 795.56,-294.593 835.561,-263.61 857.566,-279.676 903.56,-258.593 909.291,-255.966 915.184,-252.885 920.875,-249.688"/>
<polygon fill="#ebc72d" stroke="#ebc72d" stroke-width="2" points="922.711,-252.67 929.598,-244.619 919.194,-246.617 922.711,-252.67"/>
</g>
<!-- tree_of_life&#45;&gt;elf -->
<g id="edge30" class="edge"><title>tree_of_life&#45;&gt;elf</title>
<path fill="none" stroke="#ebc72d" d="M510.285,-467.065C501.453,-457.417 492.071,-447.166 484.049,-438.403"/>
<polygon fill="#ebc72d" stroke="#ebc72d" points="507.974,-469.725 517.308,-474.738 513.138,-464.998 507.974,-469.725"/>
<polygon fill="#ebc72d" stroke="#ebc72d" points="486.453,-435.845 477.119,-430.832 481.289,-440.572 486.453,-435.845"/>
</g>
<!-- lore_house&#45;&gt;prince -->
<g id="edge24" class="edge"><title>lore_house&#45;&gt;prince</title>
<path fill="none" stroke="#ebc72d" stroke-dasharray="1,5" d="M941.961,-198.172C933.967,-184.742 924.284,-168.473 916.401,-155.23"/>
<polygon fill="#ebc72d" stroke="#ebc72d" points="919.397,-153.42 911.275,-146.617 913.382,-157.001 919.397,-153.42"/>
</g>
<!-- lore_house&#45;&gt;wise_elf -->
<g id="edge26" class="edge"><title>lore_house&#45;&gt;wise_elf</title>
<path fill="none" stroke="#ebc72d" d="M809.56,-416.019C723.013,-501.039 589.033,-562.145 530.985,-586.118"/>
</g>
<!-- lore_house&#45;&gt;tree_of_life -->
<g id="edge25" class="edge"><title>lore_house&#45;&gt;tree_of_life</title>
<path fill="none" stroke="#ebc72d" stroke-dasharray="1,5" d="M936.374,-247.986C906.264,-279.681 850.738,-341.902 814.536,-405.099"/>
<polygon fill="#ebc72d" stroke="#ebc72d" points="811.374,-403.581 809.56,-414.019 817.488,-406.991 811.374,-403.581"/>
<path fill="none" stroke="#ebc72d" stroke-dasharray="1,5" d="M809.56,-416.019C788.467,-454.914 662.901,-481.449 591.37,-493.628"/>
</g>
<!-- gryphon&#45;&gt;gryphon_rider -->
<g id="edge23" class="edge"><title>gryphon&#45;&gt;gryphon_rider</title>
<path fill="none" stroke="#ebc72d" stroke-dasharray="5,2" d="M605.56,-111.04C605.56,-99.7109 605.56,-84.4662 605.56,-70.5434"/>
<polygon fill="#ebc72d" stroke="#ebc72d" points="609.06,-70.2411 605.56,-60.2411 602.06,-70.2411 609.06,-70.2411"/>
</g>
</g>
</svg>
