<?xml version="1.0" encoding="UTF-8" standalone="no"?>
<!DOCTYPE svg PUBLIC "-//W3C//DTD SVG 1.1//EN"
 "http://www.w3.org/Graphics/SVG/1.1/DTD/svg11.dtd">
<!-- Generated by graphviz version 2.38.0 (20140413.2041)
 -->
<!-- Title: test Pages: 1 -->
<svg width="392pt" height="351pt"
 viewBox="0.00 0.00 392.32 351.28" xmlns="http://www.w3.org/2000/svg" xmlns:xlink="http://www.w3.org/1999/xlink">
<g id="graph0" class="graph" transform="scale(1 1) rotate(0) translate(4 347.279)">
<title>test</title>
<polygon fill="#151515" stroke="none" points="-4,4 -4,-347.279 388.324,-347.279 388.324,4 -4,4"/>
<!-- forge -->
<g id="node1" class="node"><title>forge</title>
<g id="a_node1"><a xlink:href="elves_forge_full.html" xlink:title="Forge">
<polygon fill="none" stroke="red" points="259.909,-110.776 221.285,-123.213 182.661,-110.776 182.697,-90.6509 259.873,-90.6509 259.909,-110.776"/>
<text text-anchor="middle" x="221.285" y="-101.513" font-family="Times,serif" font-size="14.00" fill="#ebc72d">Forge</text>
</a>
</g>
</g>
<!-- corral -->
<g id="node2" class="node"><title>corral</title>
<g id="a_node2"><a xlink:href="elves_corral_full.html" xlink:title="Corral">
<polygon fill="none" stroke="red" points="121.229,-213.202 80.285,-225.64 39.3409,-213.202 39.3791,-193.077 121.191,-193.077 121.229,-213.202"/>
<text text-anchor="middle" x="80.285" y="-203.94" font-family="Times,serif" font-size="14.00" fill="#ebc72d">Corral</text>
</a>
</g>
</g>
<!-- corral_gryphon_nest -->
<g id="node4" class="node"><title>corral_gryphon_nest</title>
<g id="a_node4"><a xlink:href="elves_corral_gryphon_nest_full.html" xlink:title="Corral\nGryphon Nest">
<polygon fill="none" stroke="red" points="162.356,-115.543 81.285,-138.641 0.214452,-115.543 0.290122,-78.1695 162.28,-78.1695 162.356,-115.543"/>
<text text-anchor="middle" x="81.285" y="-109.013" font-family="Times,serif" font-size="14.00" fill="#ebc72d">Corral</text>
<text text-anchor="middle" x="81.285" y="-94.0132" font-family="Times,serif" font-size="14.00" fill="#ebc72d">Gryphon Nest</text>
</a>
</g>
</g>
<!-- corral&#45;&gt;corral_gryphon_nest -->
<g id="edge5" class="edge"><title>corral&#45;&gt;corral_gryphon_nest</title>
<path fill="none" stroke="#ebc72d" stroke-dasharray="1,5" d="M80.424,-192.676C80.5376,-181.269 80.7044,-164.519 80.861,-148.792"/>
<polygon fill="#ebc72d" stroke="#ebc72d" points="84.3619,-148.706 80.9618,-138.671 77.3623,-148.636 84.3619,-148.706"/>
</g>
<!-- academy -->
<g id="node3" class="node"><title>academy</title>
<g id="a_node3"><a xlink:href="elves_academy_full.html" xlink:title="Academy">
<polygon fill="none" stroke="red" points="240.651,-315.628 185.285,-328.066 129.919,-315.628 129.971,-295.504 240.599,-295.504 240.651,-315.628"/>
<text text-anchor="middle" x="185.285" y="-306.366" font-family="Times,serif" font-size="14.00" fill="#ebc72d">Academy</text>
</a>
</g>
</g>
<!-- academy&#45;&gt;corral -->
<g id="edge1" class="edge"><title>academy&#45;&gt;corral</title>
<path fill="none" stroke="#ebc72d" stroke-dasharray="1,5" d="M170.685,-295.102C152.697,-277.898 121.999,-248.537 101.432,-228.865"/>
<polygon fill="#ebc72d" stroke="#ebc72d" points="103.739,-226.229 94.0928,-221.846 98.9004,-231.287 103.739,-226.229"/>
</g>
<!-- academy&#45;&gt;corral_gryphon_nest -->
<g id="edge2" class="edge"><title>academy&#45;&gt;corral_gryphon_nest</title>
<path fill="none" stroke="#ebc72d" stroke-dasharray="1,5" d="M180.834,-295.204C172.557,-270.237 153.511,-216.404 130.285,-174.426 123.991,-163.05 116.137,-151.324 108.573,-140.871"/>
<polygon fill="#ebc72d" stroke="#ebc72d" points="111.362,-138.756 102.605,-132.792 105.732,-142.915 111.362,-138.756"/>
</g>
<!-- wood_hall -->
<g id="node5" class="node"><title>wood_hall</title>
<g id="a_node5"><a xlink:href="elves_wood_hall_full.html" xlink:title="Wood\nHall">
<polygon fill="none" stroke="red" points="265.189,-217.969 221.285,-241.067 177.381,-217.969 177.422,-180.596 265.148,-180.596 265.189,-217.969"/>
<text text-anchor="middle" x="221.285" y="-211.44" font-family="Times,serif" font-size="14.00" fill="#ebc72d">Wood</text>
<text text-anchor="middle" x="221.285" y="-196.44" font-family="Times,serif" font-size="14.00" fill="#ebc72d">Hall</text>
</a>
</g>
</g>
<!-- academy&#45;&gt;wood_hall -->
<g id="edge4" class="edge"><title>academy&#45;&gt;wood_hall</title>
<path fill="none" stroke="#ebc72d" stroke-dasharray="1,5" d="M190.291,-295.102C194.845,-282.397 201.776,-263.063 207.929,-245.897"/>
<polygon fill="#ebc72d" stroke="#ebc72d" points="211.359,-246.701 211.439,-236.107 204.77,-244.339 211.359,-246.701"/>
</g>
<!-- lore_house -->
<g id="node9" class="node"><title>lore_house</title>
<g id="a_node9"><a xlink:href="elves_lore_house_full.html" xlink:title="Lore\nHouse">
<polygon fill="none" stroke="red" points="371.936,-217.969 327.285,-241.067 282.634,-217.969 282.675,-180.596 371.895,-180.596 371.936,-217.969"/>
<text text-anchor="middle" x="327.285" y="-211.44" font-family="Times,serif" font-size="14.00" fill="#ebc72d">Lore</text>
<text text-anchor="middle" x="327.285" y="-196.44" font-family="Times,serif" font-size="14.00" fill="#ebc72d">House</text>
</a>
</g>
</g>
<!-- academy&#45;&gt;lore_house -->
<g id="edge3" class="edge"><title>academy&#45;&gt;lore_house</title>
<path fill="none" stroke="#ebc72d" stroke-dasharray="1,5" d="M204.732,-295.313C227.241,-279.393 264.75,-252.866 292.354,-233.344"/>
<polygon fill="#ebc72d" stroke="#ebc72d" points="294.432,-236.161 300.575,-227.53 290.39,-230.446 294.432,-236.161"/>
</g>
<!-- wood_hall&#45;&gt;forge -->
<g id="edge8" class="edge"><title>wood_hall&#45;&gt;forge</title>
<path fill="none" stroke="#ebc72d" stroke-dasharray="1,5" d="M221.285,-180.516C221.285,-166.159 221.285,-148.359 221.285,-133.781"/>
<polygon fill="#ebc72d" stroke="#ebc72d" points="224.785,-133.371 221.285,-123.371 217.785,-133.371 224.785,-133.371"/>
</g>
<!-- sanctuary -->
<g id="node6" class="node"><title>sanctuary</title>
<g id="a_node6"><a xlink:href="elves_sanctuary_full.html" xlink:title="Sanctuary">
<polygon fill="none" stroke="red" points="384.364,-23.5623 327.285,-36 270.206,-23.5623 270.259,-3.43769 384.311,-3.43769 384.364,-23.5623"/>
<text text-anchor="middle" x="327.285" y="-14.3" font-family="Times,serif" font-size="14.00" fill="#ebc72d">Sanctuary</text>
</a>
</g>
</g>
<!-- tree_of_life -->
<g id="node7" class="node"><title>tree_of_life</title>
<g id="a_node7"><a xlink:href="elves_tree_of_life_full.html" xlink:title="Tree\nOf Life">
<polygon fill="none" stroke="red" points="376.925,-115.543 327.285,-138.641 277.645,-115.543 277.691,-78.1695 376.879,-78.1695 376.925,-115.543"/>
<text text-anchor="middle" x="327.285" y="-109.013" font-family="Times,serif" font-size="14.00" fill="#ebc72d">Tree</text>
<text text-anchor="middle" x="327.285" y="-94.0132" font-family="Times,serif" font-size="14.00" fill="#ebc72d">Of Life</text>
</a>
</g>
</g>
<!-- tree_of_life&#45;&gt;sanctuary -->
<g id="edge7" class="edge"><title>tree_of_life&#45;&gt;sanctuary</title>
<path fill="none" stroke="#ebc72d" stroke-dasharray="1,5" d="M327.285,-77.7183C327.285,-67.744 327.285,-56.388 327.285,-46.3382"/>
<polygon fill="#ebc72d" stroke="#ebc72d" points="330.785,-46.0729 327.285,-36.0729 323.785,-46.0729 330.785,-46.0729"/>
</g>
<!-- forest_guardian -->
<g id="node8" class="node"><title>forest_guardian</title>
<g id="a_node8"><a xlink:href="elves_forest_guardian_full.html" xlink:title="Forest\nGuardian">
<polygon fill="none" stroke="red" points="375.905,-320.396 317.285,-343.494 258.665,-320.396 258.719,-283.022 375.851,-283.022 375.905,-320.396"/>
<text text-anchor="middle" x="317.285" y="-313.866" font-family="Times,serif" font-size="14.00" fill="#ebc72d">Forest</text>
<text text-anchor="middle" x="317.285" y="-298.866" font-family="Times,serif" font-size="14.00" fill="#ebc72d">Guardian</text>
</a>
</g>
</g>
<!-- lore_house&#45;&gt;tree_of_life -->
<g id="edge6" class="edge"><title>lore_house&#45;&gt;tree_of_life</title>
<path fill="none" stroke="#ebc72d" stroke-dasharray="1,5" d="M327.285,-180.516C327.285,-170.827 327.285,-159.569 327.285,-148.792"/>
<polygon fill="#ebc72d" stroke="#ebc72d" points="330.785,-148.674 327.285,-138.674 323.785,-148.674 330.785,-148.674"/>
</g>
</g>
</svg>
