<?xml version="1.0" encoding="UTF-8" standalone="no"?>
<!DOCTYPE svg PUBLIC "-//W3C//DTD SVG 1.1//EN"
 "http://www.w3.org/Graphics/SVG/1.1/DTD/svg11.dtd">
<!-- Generated by graphviz version 2.38.0 (20140413.2041)
 -->
<!-- Title: test Pages: 1 -->
<svg width="993pt" height="692pt"
 viewBox="0.00 0.00 992.52 692.50" xmlns="http://www.w3.org/2000/svg" xmlns:xlink="http://www.w3.org/1999/xlink">
<g id="graph0" class="graph" transform="scale(1 1) rotate(0) translate(4 688.5)">
<title>test</title>
<polygon fill="#151515" stroke="none" points="-4,4 -4,-688.5 988.522,-688.5 988.522,4 -4,4"/>
<!-- dryad -->
<g id="node1" class="node"><title>dryad</title>
<g id="a_node1"><a xlink:href="elves_dryad_full.html" xlink:title="Dryad">
<ellipse fill="none" stroke="magenta" cx="101.56" cy="-18" rx="32.4942" ry="18"/>
<text text-anchor="middle" x="101.56" y="-14.3" font-family="Times,serif" font-size="14.00" fill="#ebc72d">Dryad</text>
</a>
</g>
</g>
<!-- grey_elf_archer -->
<g id="node2" class="node"><title>grey_elf_archer</title>
<g id="a_node2"><a xlink:href="elves_grey_elf_archer_full.html" xlink:title="Grey\nElf Archer">
<ellipse fill="none" stroke="magenta" cx="372.56" cy="-291.037" rx="52.1524" ry="26.7407"/>
<text text-anchor="middle" x="372.56" y="-294.837" font-family="Times,serif" font-size="14.00" fill="#ebc72d">Grey</text>
<text text-anchor="middle" x="372.56" y="-279.837" font-family="Times,serif" font-size="14.00" fill="#ebc72d">Elf Archer</text>
</a>
</g>
</g>
<!-- forge -->
<g id="node3" class="node"><title>forge</title>
<g id="a_node3"><a xlink:href="elves_forge_full.html" xlink:title="Forge">
<polygon fill="none" stroke="red" points="547.184,-392.682 508.56,-405.12 469.936,-392.682 469.972,-372.558 547.148,-372.558 547.184,-392.682"/>
<text text-anchor="middle" x="508.56" y="-383.42" font-family="Times,serif" font-size="14.00" fill="#ebc72d">Forge</text>
</a>
</g>
</g>
<!-- corral -->
<g id="node4" class="node"><title>corral</title>
<g id="a_node4"><a xlink:href="elves_corral_full.html" xlink:title="Corral">
<polygon fill="none" stroke="red" points="647.504,-392.682 606.56,-405.12 565.616,-392.682 565.654,-372.558 647.466,-372.558 647.504,-392.682"/>
<text text-anchor="middle" x="606.56" y="-383.42" font-family="Times,serif" font-size="14.00" fill="#ebc72d">Corral</text>
</a>
</g>
</g>
<!-- reaver -->
<g id="node8" class="node"><title>reaver</title>
<g id="a_node8"><a xlink:href="elves_reaver_full.html" xlink:title="Reaver">
<ellipse fill="none" stroke="magenta" cx="711.56" cy="-201.296" rx="35.9954" ry="18"/>
<text text-anchor="middle" x="711.56" y="-197.596" font-family="Times,serif" font-size="14.00" fill="#ebc72d">Reaver</text>
</a>
</g>
</g>
<!-- corral&#45;&gt;reaver -->
<g id="edge5" class="edge"><title>corral&#45;&gt;reaver</title>
<path fill="none" stroke="#ebc72d" d="M614.452,-372.303C632.025,-341.538 674.597,-267.007 697.086,-227.636"/>
<polygon fill="#ebc72d" stroke="#ebc72d" points="700.164,-229.305 702.084,-218.886 694.085,-225.833 700.164,-229.305"/>
</g>
<!-- corral_gryphon_nest -->
<g id="node10" class="node"><title>corral_gryphon_nest</title>
<g id="a_node10"><a xlink:href="elves_corral_gryphon_nest_full.html" xlink:title="Corral\nGryphon Nest">
<ellipse fill="none" stroke="magenta" cx="755.56" cy="-291.037" rx="65.5227" ry="26.7407"/>
<text text-anchor="middle" x="755.56" y="-294.837" font-family="Times,serif" font-size="14.00" fill="#ebc72d">Corral</text>
<text text-anchor="middle" x="755.56" y="-279.837" font-family="Times,serif" font-size="14.00" fill="#ebc72d">Gryphon Nest</text>
</a>
</g>
</g>
<!-- corral&#45;&gt;corral_gryphon_nest -->
<g id="edge4" class="edge"><title>corral&#45;&gt;corral_gryphon_nest</title>
<path fill="none" stroke="#ebc72d" stroke-dasharray="5,2" d="M627.93,-372.26C636.774,-366.549 647.144,-359.882 656.56,-353.907 674.485,-342.532 694.315,-330.108 711.49,-319.398"/>
<polygon fill="#ebc72d" stroke="#ebc72d" points="713.569,-322.226 720.206,-313.968 709.867,-316.285 713.569,-322.226"/>
</g>
<!-- silver_helm_lancer -->
<g id="node15" class="node"><title>silver_helm_lancer</title>
<g id="a_node15"><a xlink:href="elves_silver_helm_lancer_full.html" xlink:title="Silver\nHelm Lancer">
<ellipse fill="none" stroke="magenta" cx="594.56" cy="-201.296" rx="62.8651" ry="26.7407"/>
<text text-anchor="middle" x="594.56" y="-205.096" font-family="Times,serif" font-size="14.00" fill="#ebc72d">Silver</text>
<text text-anchor="middle" x="594.56" y="-190.096" font-family="Times,serif" font-size="14.00" fill="#ebc72d">Helm Lancer</text>
</a>
</g>
</g>
<!-- corral&#45;&gt;silver_helm_lancer -->
<g id="edge6" class="edge"><title>corral&#45;&gt;silver_helm_lancer</title>
<path fill="none" stroke="#ebc72d" d="M605.658,-372.303C603.823,-344.191 599.602,-279.534 596.927,-238.554"/>
<polygon fill="#ebc72d" stroke="#ebc72d" points="600.41,-238.18 596.266,-228.43 593.425,-238.636 600.41,-238.18"/>
</g>
<!-- minstrel -->
<g id="node5" class="node"><title>minstrel</title>
<g id="a_node5"><a xlink:href="elves_minstrel_full.html" xlink:title="Minstrel">
<ellipse fill="none" stroke="magenta" cx="145.56" cy="-291.037" rx="40.8928" ry="18"/>
<text text-anchor="middle" x="145.56" y="-287.337" font-family="Times,serif" font-size="14.00" fill="#ebc72d">Minstrel</text>
</a>
</g>
</g>
<!-- minstrel&#45;&gt;dryad -->
<g id="edge28" class="edge"><title>minstrel&#45;&gt;dryad</title>
<path fill="none" stroke="#ebc72d" d="M146.092,-272.999C146.819,-235.8 146.23,-144.814 126.56,-72 124.054,-62.7232 119.994,-53.077 115.868,-44.5968"/>
<polygon fill="#ebc72d" stroke="#ebc72d" points="118.934,-42.9052 111.261,-35.5998 112.703,-46.0959 118.934,-42.9052"/>
</g>
<!-- ent -->
<g id="node7" class="node"><title>ent</title>
<g id="a_node7"><a xlink:href="elves_ent_full.html" xlink:title="Ent">
<ellipse fill="none" stroke="magenta" cx="75.5601" cy="-201.296" rx="27" ry="18"/>
<text text-anchor="middle" x="75.5601" y="-197.596" font-family="Times,serif" font-size="14.00" fill="#ebc72d">Ent</text>
</a>
</g>
</g>
<!-- minstrel&#45;&gt;ent -->
<g id="edge29" class="edge"><title>minstrel&#45;&gt;ent</title>
<path fill="none" stroke="#ebc72d" d="M132.721,-273.944C121.864,-260.336 106.175,-240.67 93.9793,-225.384"/>
<polygon fill="#ebc72d" stroke="#ebc72d" points="96.5885,-223.042 87.616,-217.408 91.1166,-227.407 96.5885,-223.042"/>
</g>
<!-- prince -->
<g id="node6" class="node"><title>prince</title>
<g id="a_node6"><a xlink:href="elves_prince_full.html" xlink:title="Prince">
<ellipse fill="none" stroke="magenta" cx="480.56" cy="-201.296" rx="33.2948" ry="18"/>
<text text-anchor="middle" x="480.56" y="-197.596" font-family="Times,serif" font-size="14.00" fill="#ebc72d">Prince</text>
</a>
</g>
</g>
<!-- forest_guardian -->
<g id="node19" class="node"><title>forest_guardian</title>
<g id="a_node19"><a xlink:href="elves_forest_guardian_full.html" xlink:title="Forest\nGuardian">
<polygon fill="none" stroke="red" points="117.181,-115.543 58.5601,-138.641 -0.0602091,-115.543 -0.00549398,-78.1695 117.126,-78.1695 117.181,-115.543"/>
<text text-anchor="middle" x="58.5601" y="-109.013" font-family="Times,serif" font-size="14.00" fill="#ebc72d">Forest</text>
<text text-anchor="middle" x="58.5601" y="-94.0132" font-family="Times,serif" font-size="14.00" fill="#ebc72d">Guardian</text>
</a>
</g>
</g>
<!-- ent&#45;&gt;forest_guardian -->
<g id="edge19" class="edge"><title>ent&#45;&gt;forest_guardian</title>
<path fill="none" stroke="#ebc72d" stroke-width="2" d="M72.4421,-183.04C70.5966,-172.827 68.1761,-159.431 65.874,-146.69"/>
<polygon fill="#ebc72d" stroke="#ebc72d" stroke-width="2" points="69.2888,-145.905 64.0664,-136.686 62.4003,-147.149 69.2888,-145.905"/>
</g>
<!-- academy -->
<g id="node9" class="node"><title>academy</title>
<g id="a_node9"><a xlink:href="elves_academy_full.html" xlink:title="Academy">
<polygon fill="none" stroke="red" points="451.926,-392.682 396.56,-405.12 341.195,-392.682 341.246,-372.558 451.874,-372.558 451.926,-392.682"/>
<text text-anchor="middle" x="396.56" y="-383.42" font-family="Times,serif" font-size="14.00" fill="#ebc72d">Academy</text>
</a>
</g>
</g>
<!-- academy&#45;&gt;grey_elf_archer -->
<g id="edge2" class="edge"><title>academy&#45;&gt;grey_elf_archer</title>
<path fill="none" stroke="#ebc72d" d="M393.019,-372.238C390.024,-360.497 385.599,-343.15 381.629,-327.589"/>
<polygon fill="#ebc72d" stroke="#ebc72d" points="384.97,-326.523 379.106,-317.699 378.187,-328.254 384.97,-326.523"/>
</g>
<!-- galadrim_archer -->
<g id="node13" class="node"><title>galadrim_archer</title>
<g id="a_node13"><a xlink:href="elves_galadrim_archer_full.html" xlink:title="Galadrim\nArcher">
<ellipse fill="none" stroke="magenta" cx="490.56" cy="-291.037" rx="48.1667" ry="26.7407"/>
<text text-anchor="middle" x="490.56" y="-294.837" font-family="Times,serif" font-size="14.00" fill="#ebc72d">Galadrim</text>
<text text-anchor="middle" x="490.56" y="-279.837" font-family="Times,serif" font-size="14.00" fill="#ebc72d">Archer</text>
</a>
</g>
</g>
<!-- academy&#45;&gt;galadrim_archer -->
<g id="edge1" class="edge"><title>academy&#45;&gt;galadrim_archer</title>
<path fill="none" stroke="#ebc72d" d="M410.43,-372.238C423.539,-359.117 443.644,-338.994 460.436,-322.188"/>
<polygon fill="#ebc72d" stroke="#ebc72d" points="463.288,-324.285 467.88,-314.737 458.336,-319.337 463.288,-324.285"/>
</g>
<!-- magol_hedir -->
<g id="node21" class="node"><title>magol_hedir</title>
<g id="a_node21"><a xlink:href="elves_magol_hedir_full.html" xlink:title="Magol\nHedir">
<ellipse fill="none" stroke="magenta" cx="264.56" cy="-291.037" rx="37.4533" ry="26.7407"/>
<text text-anchor="middle" x="264.56" y="-294.837" font-family="Times,serif" font-size="14.00" fill="#ebc72d">Magol</text>
<text text-anchor="middle" x="264.56" y="-279.837" font-family="Times,serif" font-size="14.00" fill="#ebc72d">Hedir</text>
</a>
</g>
</g>
<!-- academy&#45;&gt;magol_hedir -->
<g id="edge3" class="edge"><title>academy&#45;&gt;magol_hedir</title>
<path fill="none" stroke="#ebc72d" d="M377.366,-372.439C356.809,-357.787 323.77,-334.238 298.748,-316.404"/>
<polygon fill="#ebc72d" stroke="#ebc72d" points="300.774,-313.55 290.6,-310.596 296.711,-319.251 300.774,-313.55"/>
</g>
<!-- corral_gryphon_nest&#45;&gt;reaver -->
<g id="edge8" class="edge"><title>corral_gryphon_nest&#45;&gt;reaver</title>
<path fill="none" stroke="#ebc72d" d="M742.834,-264.659C737.083,-253.192 730.298,-239.662 724.52,-228.141"/>
<polygon fill="#ebc72d" stroke="#ebc72d" points="727.56,-226.394 719.949,-219.024 721.303,-229.532 727.56,-226.394"/>
</g>
<!-- corral_gryphon_nest&#45;&gt;silver_helm_lancer -->
<g id="edge9" class="edge"><title>corral_gryphon_nest&#45;&gt;silver_helm_lancer</title>
<path fill="none" stroke="#ebc72d" d="M716.997,-269.021C694.229,-256.613 665.253,-240.822 641.205,-227.717"/>
<polygon fill="#ebc72d" stroke="#ebc72d" points="642.709,-224.55 632.253,-222.838 639.359,-230.697 642.709,-224.55"/>
</g>
<!-- gryphon -->
<g id="node22" class="node"><title>gryphon</title>
<g id="a_node22"><a xlink:href="elves_gryphon_full.html" xlink:title="Gryphon">
<ellipse fill="none" stroke="magenta" cx="938.56" cy="-201.296" rx="42.4939" ry="18"/>
<text text-anchor="middle" x="938.56" y="-197.596" font-family="Times,serif" font-size="14.00" fill="#ebc72d">Gryphon</text>
</a>
</g>
</g>
<!-- corral_gryphon_nest&#45;&gt;gryphon -->
<g id="edge7" class="edge"><title>corral_gryphon_nest&#45;&gt;gryphon</title>
<path fill="none" stroke="#ebc72d" d="M798.225,-270.449C824.154,-258.443 857.876,-242.648 887.56,-228.167 892.691,-225.664 898.09,-222.98 903.377,-220.323"/>
<polygon fill="#ebc72d" stroke="#ebc72d" points="905.347,-223.249 912.693,-215.614 902.19,-217.002 905.347,-223.249"/>
</g>
<!-- taming_song -->
<g id="node23" class="node"><title>taming_song</title>
<ellipse fill="none" stroke="black" cx="821.56" cy="-201.296" rx="56.59" ry="18"/>
<text text-anchor="middle" x="821.56" y="-197.596" font-family="Times,serif" font-size="14.00">taming_song</text>
</g>
<!-- corral_gryphon_nest&#45;&gt;taming_song -->
<g id="edge10" class="edge"><title>corral_gryphon_nest&#45;&gt;taming_song</title>
<path fill="none" stroke="#ebc72d" stroke-dasharray="1,5" d="M774.297,-265.129C783.251,-253.224 793.941,-239.013 802.888,-227.12"/>
<polygon fill="#ebc72d" stroke="#ebc72d" points="805.83,-229.031 809.044,-218.935 800.236,-224.823 805.83,-229.031"/>
</g>
<!-- wood_hall -->
<g id="node11" class="node"><title>wood_hall</title>
<g id="a_node11"><a xlink:href="elves_wood_hall_full.html" xlink:title="Wood\nHall">
<polygon fill="none" stroke="red" points="191.464,-397.45 147.56,-420.548 103.656,-397.45 103.697,-360.076 191.423,-360.076 191.464,-397.45"/>
<text text-anchor="middle" x="147.56" y="-390.92" font-family="Times,serif" font-size="14.00" fill="#ebc72d">Wood</text>
<text text-anchor="middle" x="147.56" y="-375.92" font-family="Times,serif" font-size="14.00" fill="#ebc72d">Hall</text>
</a>
</g>
</g>
<!-- wood_hall&#45;&gt;minstrel -->
<g id="edge34" class="edge"><title>wood_hall&#45;&gt;minstrel</title>
<path fill="none" stroke="#ebc72d" d="M147.003,-359.912C146.734,-347.254 146.411,-332.073 146.139,-319.281"/>
<polygon fill="#ebc72d" stroke="#ebc72d" points="149.637,-319.129 145.925,-309.206 142.639,-319.278 149.637,-319.129"/>
</g>
<!-- gryphon_rider -->
<g id="node12" class="node"><title>gryphon_rider</title>
<g id="a_node12"><a xlink:href="elves_gryphon_rider_full.html" xlink:title="Gryphon\nRider">
<ellipse fill="none" stroke="magenta" cx="938.56" cy="-105.213" rx="45.9239" ry="26.7407"/>
<text text-anchor="middle" x="938.56" y="-109.013" font-family="Times,serif" font-size="14.00" fill="#ebc72d">Gryphon</text>
<text text-anchor="middle" x="938.56" y="-94.0132" font-family="Times,serif" font-size="14.00" fill="#ebc72d">Rider</text>
</a>
</g>
</g>
<!-- galadrim_archer&#45;&gt;prince -->
<g id="edge21" class="edge"><title>galadrim_archer&#45;&gt;prince</title>
<path fill="none" stroke="#ebc72d" stroke-dasharray="5,2" d="M487.614,-264.186C486.365,-253.23 484.91,-240.46 483.646,-229.374"/>
<polygon fill="#ebc72d" stroke="#ebc72d" points="487.117,-228.916 482.507,-219.376 480.162,-229.708 487.117,-228.916"/>
</g>
<!-- sanctuary -->
<g id="node14" class="node"><title>sanctuary</title>
<g id="a_node14"><a xlink:href="elves_sanctuary_full.html" xlink:title="Sanctuary">
<polygon fill="none" stroke="red" points="323.639,-392.682 266.56,-405.12 209.481,-392.682 209.534,-372.558 323.586,-372.558 323.639,-392.682"/>
<text text-anchor="middle" x="266.56" y="-383.42" font-family="Times,serif" font-size="14.00" fill="#ebc72d">Sanctuary</text>
</a>
</g>
</g>
<!-- wise_elf -->
<g id="node16" class="node"><title>wise_elf</title>
<g id="a_node16"><a xlink:href="elves_wise_elf_full.html" xlink:title="Wise\nElf">
<ellipse fill="none" stroke="magenta" cx="452.56" cy="-657.63" rx="31.6406" ry="26.7407"/>
<text text-anchor="middle" x="452.56" y="-661.43" font-family="Times,serif" font-size="14.00" fill="#ebc72d">Wise</text>
<text text-anchor="middle" x="452.56" y="-646.43" font-family="Times,serif" font-size="14.00" fill="#ebc72d">Elf</text>
</a>
</g>
</g>
<!-- wise_elf&#45;&gt;ent -->
<g id="edge31" class="edge"><title>wise_elf&#45;&gt;ent</title>
<path fill="none" stroke="#ebc72d" stroke-dasharray="1,5" d="M75.5601,-290.037C72.5517,-269.951 72.6769,-246.988 73.4878,-229.593"/>
<polygon fill="#ebc72d" stroke="#ebc72d" points="76.985,-229.74 74.0593,-219.557 69.9963,-229.342 76.985,-229.74"/>
</g>
<!-- tree_of_life -->
<g id="node18" class="node"><title>tree_of_life</title>
<g id="a_node18"><a xlink:href="elves_tree_of_life_full.html" xlink:title="Tree\nOf Life">
<polygon fill="none" stroke="red" points="541.2,-571.876 491.56,-594.974 441.92,-571.876 441.966,-534.503 541.154,-534.503 541.2,-571.876"/>
<text text-anchor="middle" x="491.56" y="-565.346" font-family="Times,serif" font-size="14.00" fill="#ebc72d">Tree</text>
<text text-anchor="middle" x="491.56" y="-550.346" font-family="Times,serif" font-size="14.00" fill="#ebc72d">Of Life</text>
</a>
</g>
</g>
<!-- wise_elf&#45;&gt;tree_of_life -->
<g id="edge33" class="edge"><title>wise_elf&#45;&gt;tree_of_life</title>
<path fill="none" stroke="#ebc72d" stroke-width="2" d="M462.807,-631.91C466.961,-621.888 471.845,-610.107 476.397,-599.126"/>
<polygon fill="#ebc72d" stroke="#ebc72d" stroke-width="2" points="479.689,-600.325 480.285,-589.747 473.222,-597.645 479.689,-600.325"/>
</g>
<!-- wise_elf&#45;&gt;forest_guardian -->
<g id="edge32" class="edge"><title>wise_elf&#45;&gt;forest_guardian</title>
<path fill="none" stroke="#ebc72d" stroke-width="2" d="M423.324,-646.834C353.302,-621.71 175.784,-547.835 94.5601,-420.333 63.59,-371.717 84.0988,-349.043 75.5601,-292.037"/>
<path fill="none" stroke="#ebc72d" stroke-width="2" d="M75.5601,-290.037C69.063,-258.893 47.8461,-258.883 39.5601,-228.167 33.3394,-205.106 36.326,-198.091 39.5601,-174.426 40.8945,-164.663 43.2559,-154.327 45.8705,-144.733"/>
<polygon fill="#ebc72d" stroke="#ebc72d" stroke-width="2" points="49.2523,-145.637 48.6543,-135.059 42.5253,-143.701 49.2523,-145.637"/>
</g>
<!-- elf -->
<g id="node17" class="node"><title>elf</title>
<g id="a_node17"><a xlink:href="elves_elf_full.html" xlink:title="Elf">
<ellipse fill="none" stroke="magenta" cx="452.56" cy="-474.333" rx="27" ry="18"/>
<text text-anchor="middle" x="452.56" y="-470.633" font-family="Times,serif" font-size="14.00" fill="#ebc72d">Elf</text>
</a>
</g>
</g>
<!-- elf&#45;&gt;forge -->
<g id="edge13" class="edge"><title>elf&#45;&gt;forge</title>
<path fill="none" stroke="#ebc72d" stroke-width="2" d="M463.093,-457.305C471.699,-444.21 483.971,-425.537 493.596,-410.89"/>
<polygon fill="#ebc72d" stroke="#ebc72d" stroke-width="2" points="496.624,-412.656 499.191,-402.377 490.774,-408.811 496.624,-412.656"/>
</g>
<!-- elf&#45;&gt;corral -->
<g id="edge12" class="edge"><title>elf&#45;&gt;corral</title>
<path fill="none" stroke="#ebc72d" stroke-width="2" d="M474.008,-463.189C495.273,-452.949 528.627,-436.394 556.56,-420.333 564.538,-415.746 573.022,-410.448 580.692,-405.491"/>
<polygon fill="#ebc72d" stroke="#ebc72d" stroke-width="2" points="582.794,-408.297 589.242,-399.891 578.959,-402.441 582.794,-408.297"/>
</g>
<!-- elf&#45;&gt;academy -->
<g id="edge11" class="edge"><title>elf&#45;&gt;academy</title>
<path fill="none" stroke="#ebc72d" stroke-width="2" d="M442.027,-457.305C433.526,-444.369 421.448,-425.992 411.878,-411.428"/>
<polygon fill="#ebc72d" stroke="#ebc72d" stroke-width="2" points="414.714,-409.37 406.297,-402.936 408.864,-413.215 414.714,-409.37"/>
</g>
<!-- elf&#45;&gt;wood_hall -->
<g id="edge18" class="edge"><title>elf&#45;&gt;wood_hall</title>
<path fill="none" stroke="#ebc72d" stroke-width="2" d="M425.957,-470.73C379.042,-465.492 279.132,-451.417 200.56,-420.333 194.646,-417.994 188.64,-415.019 182.899,-411.827"/>
<polygon fill="#ebc72d" stroke="#ebc72d" stroke-width="2" points="184.543,-408.733 174.147,-406.691 181.001,-414.771 184.543,-408.733"/>
</g>
<!-- elf&#45;&gt;sanctuary -->
<g id="edge15" class="edge"><title>elf&#45;&gt;sanctuary</title>
<path fill="none" stroke="#ebc72d" stroke-width="2" d="M430.329,-463.816C406.154,-453.397 366.433,-436.073 332.56,-420.333 321.76,-415.314 310.054,-409.67 299.542,-404.524"/>
<polygon fill="#ebc72d" stroke="#ebc72d" stroke-width="2" points="300.802,-401.243 290.284,-399.97 297.712,-407.524 300.802,-401.243"/>
</g>
<!-- elf&#45;&gt;wise_elf -->
<g id="edge17" class="edge"><title>elf&#45;&gt;wise_elf</title>
<path fill="none" stroke="#ebc72d" stroke-dasharray="5,2" d="M444.668,-491.602C440.134,-501.87 434.89,-515.562 432.56,-528.333 427.263,-557.377 427.964,-565.597 432.56,-594.76 434.003,-603.915 436.578,-613.561 439.409,-622.442"/>
<polygon fill="#ebc72d" stroke="#ebc72d" points="436.149,-623.726 442.669,-632.077 442.78,-621.483 436.149,-623.726"/>
</g>
<!-- lore_house -->
<g id="node20" class="node"><title>lore_house</title>
<g id="a_node20"><a xlink:href="elves_lore_house_full.html" xlink:title="Lore\nHouse">
<polygon fill="none" stroke="red" points="755.212,-397.45 710.56,-420.548 665.909,-397.45 665.95,-360.076 755.17,-360.076 755.212,-397.45"/>
<text text-anchor="middle" x="710.56" y="-390.92" font-family="Times,serif" font-size="14.00" fill="#ebc72d">Lore</text>
<text text-anchor="middle" x="710.56" y="-375.92" font-family="Times,serif" font-size="14.00" fill="#ebc72d">House</text>
</a>
</g>
</g>
<!-- elf&#45;&gt;lore_house -->
<g id="edge14" class="edge"><title>elf&#45;&gt;lore_house</title>
<path fill="none" stroke="#ebc72d" stroke-width="2" d="M488.361,-467.227C529.894,-459.422 599.917,-444.017 656.56,-420.333 662.443,-417.874 668.452,-414.86 674.223,-411.672"/>
<polygon fill="#ebc72d" stroke="#ebc72d" stroke-width="2" points="487.644,-463.8 478.44,-469.048 488.908,-470.685 487.644,-463.8"/>
<polygon fill="#ebc72d" stroke="#ebc72d" stroke-width="2" points="676.138,-414.608 683.046,-406.575 672.636,-408.547 676.138,-414.608"/>
</g>
<!-- tree_of_life&#45;&gt;elf -->
<g id="edge30" class="edge"><title>tree_of_life&#45;&gt;elf</title>
<path fill="none" stroke="#ebc72d" d="M475.126,-524.638C471.471,-516.653 467.67,-508.347 464.252,-500.878"/>
<polygon fill="#ebc72d" stroke="#ebc72d" points="472.09,-526.415 479.434,-534.051 478.455,-523.502 472.09,-526.415"/>
<polygon fill="#ebc72d" stroke="#ebc72d" points="467.368,-499.277 460.024,-491.64 461.003,-502.19 467.368,-499.277"/>
</g>
<!-- forest_guardian&#45;&gt;dryad -->
<g id="edge20" class="edge"><title>forest_guardian&#45;&gt;dryad</title>
<path fill="none" stroke="#ebc72d" d="M71.9299,-77.7183C77.2528,-67.1699 83.3554,-55.0763 88.6336,-44.6165"/>
<polygon fill="#ebc72d" stroke="#ebc72d" points="91.8227,-46.0656 93.2032,-35.561 85.5733,-42.912 91.8227,-46.0656"/>
</g>
<!-- lore_house&#45;&gt;prince -->
<g id="edge25" class="edge"><title>lore_house&#45;&gt;prince</title>
<path fill="none" stroke="#ebc72d" stroke-dasharray="1,5" d="M677.607,-359.782C631.376,-322.834 548.234,-256.384 506.274,-222.848"/>
<polygon fill="#ebc72d" stroke="#ebc72d" points="508.451,-220.107 498.454,-216.598 504.08,-225.575 508.451,-220.107"/>
</g>
<!-- lore_house&#45;&gt;corral_gryphon_nest -->
<g id="edge23" class="edge"><title>lore_house&#45;&gt;corral_gryphon_nest</title>
<path fill="none" stroke="#ebc72d" stroke-dasharray="1,5" d="M723.095,-359.912C728.003,-349.651 733.704,-337.733 738.946,-326.773"/>
<polygon fill="#ebc72d" stroke="#ebc72d" points="742.245,-327.986 743.403,-317.454 735.931,-324.965 742.245,-327.986"/>
</g>
<!-- lore_house&#45;&gt;wise_elf -->
<g id="edge27" class="edge"><title>lore_house&#45;&gt;wise_elf</title>
<path fill="none" stroke="#ebc72d" d="M569.56,-475.333C534.174,-515.786 580.136,-549.883 550.56,-594.76 534.173,-619.624 503.979,-636.418 481.42,-646.162"/>
</g>
<!-- lore_house&#45;&gt;tree_of_life -->
<g id="edge26" class="edge"><title>lore_house&#45;&gt;tree_of_life</title>
<path fill="none" stroke="#ebc72d" stroke-dasharray="1,5" d="M681.279,-405.667C648.77,-425.164 598.238,-455.525 578.178,-467.866"/>
<polygon fill="#ebc72d" stroke="#ebc72d" points="576.129,-465.02 569.56,-473.333 579.879,-470.931 576.129,-465.02"/>
<path fill="none" stroke="#ebc72d" stroke-dasharray="1,5" d="M569.56,-475.333C551.998,-495.41 531.631,-517.626 516.113,-534.339"/>
</g>
<!-- gryphon&#45;&gt;gryphon_rider -->
<g id="edge22" class="edge"><title>gryphon&#45;&gt;gryphon_rider</title>
<path fill="none" stroke="#ebc72d" stroke-dasharray="5,2" d="M938.56,-183.04C938.56,-171.711 938.56,-156.466 938.56,-142.543"/>
<polygon fill="#ebc72d" stroke="#ebc72d" points="942.06,-142.241 938.56,-132.241 935.06,-142.241 942.06,-142.241"/>
</g>
</g>
</svg>
