<?xml version="1.0" encoding="UTF-8" standalone="no"?>
<!DOCTYPE svg PUBLIC "-//W3C//DTD SVG 1.1//EN"
 "http://www.w3.org/Graphics/SVG/1.1/DTD/svg11.dtd">
<!-- Generated by graphviz version 2.38.0 (20140413.2041)
 -->
<!-- Title: test Pages: 1 -->
<svg width="1413pt" height="737pt"
 viewBox="0.00 0.00 1413.28 737.02" xmlns="http://www.w3.org/2000/svg" xmlns:xlink="http://www.w3.org/1999/xlink">
<g id="graph0" class="graph" transform="scale(1 1) rotate(0) translate(4 733.019)">
<title>test</title>
<polygon fill="#151515" stroke="none" points="-4,4 -4,-733.019 1409.28,-733.019 1409.28,4 -4,4"/>
<!-- dryad -->
<g id="node1" class="node"><title>dryad</title>
<g id="a_node1"><a xlink:href="elves_dryad_full.html" xlink:title="Dryad">
<ellipse fill="none" stroke="magenta" cx="682.213" cy="-140.426" rx="32.4942" ry="18"/>
<text text-anchor="middle" x="682.213" y="-136.726" font-family="Times,serif" font-size="14.00" fill="#ebc72d">Dryad</text>
</a>
</g>
</g>
<!-- grey_elf_archer -->
<g id="node2" class="node"><title>grey_elf_archer</title>
<g id="a_node2"><a xlink:href="elves_grey_elf_archer_full.html" xlink:title="Grey\nElf Archer">
<ellipse fill="none" stroke="magenta" cx="582.213" cy="-354.853" rx="52.1524" ry="26.7407"/>
<text text-anchor="middle" x="582.213" y="-358.653" font-family="Times,serif" font-size="14.00" fill="#ebc72d">Grey</text>
<text text-anchor="middle" x="582.213" y="-343.653" font-family="Times,serif" font-size="14.00" fill="#ebc72d">Elf Archer</text>
</a>
</g>
</g>
<!-- forge -->
<g id="node3" class="node"><title>forge</title>
<g id="a_node3"><a xlink:href="elves_forge_full.html" xlink:title="Forge">
<polygon fill="none" stroke="red" points="985.837,-253.202 947.213,-265.64 908.589,-253.202 908.625,-233.077 985.801,-233.077 985.837,-253.202"/>
<text text-anchor="middle" x="947.213" y="-243.94" font-family="Times,serif" font-size="14.00" fill="#ebc72d">Forge</text>
</a>
</g>
</g>
<!-- noldor_weaponry -->
<g id="node25" class="node"><title>noldor_weaponry</title>
<g id="a_node25"><a xlink:href="elves_noldor_weaponry_full.html" xlink:title="Noldor\nWeaponry">
<polygon fill="none" stroke="green" points="1202.15,-178.426 1079.76,-178.426 1048.27,-102.426 1170.67,-102.426 1202.15,-178.426"/>
<text text-anchor="middle" x="1125.21" y="-144.226" font-family="Times,serif" font-size="14.00" fill="#ebc72d">Noldor</text>
<text text-anchor="middle" x="1125.21" y="-129.226" font-family="Times,serif" font-size="14.00" fill="#ebc72d">Weaponry</text>
</a>
</g>
</g>
<!-- forge&#45;&gt;noldor_weaponry -->
<g id="edge29" class="edge"><title>forge&#45;&gt;noldor_weaponry</title>
<path fill="none" stroke="#ebc72d" d="M969.337,-233.074C978.822,-227.289 990.038,-220.489 1000.21,-214.426 1022.03,-201.426 1046.1,-187.313 1067.25,-174.992"/>
<polygon fill="#ebc72d" stroke="#ebc72d" points="1069.24,-177.886 1076.12,-169.83 1065.72,-171.836 1069.24,-177.886"/>
</g>
<!-- noldor_armour_crafting -->
<g id="node27" class="node"><title>noldor_armour_crafting</title>
<g id="a_node27"><a xlink:href="elves_noldor_armour_crafting_full.html" xlink:title="Noldor\nArmour Crafting">
<polygon fill="none" stroke="green" points="1030.23,-178.426 850.448,-178.426 804.201,-102.426 983.978,-102.426 1030.23,-178.426"/>
<text text-anchor="middle" x="917.213" y="-144.226" font-family="Times,serif" font-size="14.00" fill="#ebc72d">Noldor</text>
<text text-anchor="middle" x="917.213" y="-129.226" font-family="Times,serif" font-size="14.00" fill="#ebc72d">Armour Crafting</text>
</a>
</g>
</g>
<!-- forge&#45;&gt;noldor_armour_crafting -->
<g id="edge28" class="edge"><title>forge&#45;&gt;noldor_armour_crafting</title>
<path fill="none" stroke="#ebc72d" d="M943.291,-232.885C940.055,-221.537 935.266,-204.741 930.672,-188.628"/>
<polygon fill="#ebc72d" stroke="#ebc72d" points="933.96,-187.395 927.852,-178.738 927.228,-189.315 933.96,-187.395"/>
</g>
<!-- silverthorn_arrows -->
<g id="node29" class="node"><title>silverthorn_arrows</title>
<g id="a_node29"><a xlink:href="elves_silverthorn_arrows_full.html" xlink:title="Silverthorn\nArrows">
<polygon fill="none" stroke="green" points="1379.87,-178.426 1253.15,-178.426 1220.55,-102.426 1347.27,-102.426 1379.87,-178.426"/>
<text text-anchor="middle" x="1300.21" y="-144.226" font-family="Times,serif" font-size="14.00" fill="#ebc72d">Silverthorn</text>
<text text-anchor="middle" x="1300.21" y="-129.226" font-family="Times,serif" font-size="14.00" fill="#ebc72d">Arrows</text>
</a>
</g>
</g>
<!-- forge&#45;&gt;silverthorn_arrows -->
<g id="edge30" class="edge"><title>forge&#45;&gt;silverthorn_arrows</title>
<path fill="none" stroke="#ebc72d" d="M965.946,-232.854C975.707,-226.309 988.109,-218.949 1000.21,-214.426 1089.33,-181.131 1119.82,-204.853 1211.21,-178.426 1219.95,-175.9 1228.99,-172.779 1237.8,-169.43"/>
<polygon fill="#ebc72d" stroke="#ebc72d" points="1239.23,-172.631 1247.26,-165.723 1236.67,-166.114 1239.23,-172.631"/>
</g>
<!-- corral -->
<g id="node4" class="node"><title>corral</title>
<g id="a_node4"><a xlink:href="elves_corral_full.html" xlink:title="Corral">
<polygon fill="none" stroke="red" points="210.157,-360.415 169.213,-372.853 128.269,-360.415 128.307,-340.291 210.119,-340.291 210.157,-360.415"/>
<text text-anchor="middle" x="169.213" y="-351.153" font-family="Times,serif" font-size="14.00" fill="#ebc72d">Corral</text>
</a>
</g>
</g>
<!-- reaver -->
<g id="node8" class="node"><title>reaver</title>
<g id="a_node8"><a xlink:href="elves_reaver_full.html" xlink:title="Reaver">
<ellipse fill="none" stroke="magenta" cx="77.213" cy="-140.426" rx="35.9954" ry="18"/>
<text text-anchor="middle" x="77.213" y="-136.726" font-family="Times,serif" font-size="14.00" fill="#ebc72d">Reaver</text>
</a>
</g>
</g>
<!-- corral&#45;&gt;reaver -->
<g id="edge9" class="edge"><title>corral&#45;&gt;reaver</title>
<path fill="none" stroke="#ebc72d" d="M13.213,-246.64C2.07336,-215.079 28.4888,-182.775 50.6951,-162.437"/>
<polygon fill="#ebc72d" stroke="#ebc72d" points="53.0945,-164.989 58.3058,-155.764 48.4794,-159.725 53.0945,-164.989"/>
</g>
<!-- corral_gryphon_nest -->
<g id="node10" class="node"><title>corral_gryphon_nest</title>
<g id="a_node10"><a xlink:href="elves_corral_gryphon_nest_full.html" xlink:title="Corral\nGryphon Nest">
<ellipse fill="none" stroke="magenta" cx="197.213" cy="-247.64" rx="65.5227" ry="26.7407"/>
<text text-anchor="middle" x="197.213" y="-251.44" font-family="Times,serif" font-size="14.00" fill="#ebc72d">Corral</text>
<text text-anchor="middle" x="197.213" y="-236.44" font-family="Times,serif" font-size="14.00" fill="#ebc72d">Gryphon Nest</text>
</a>
</g>
</g>
<!-- corral&#45;&gt;corral_gryphon_nest -->
<g id="edge8" class="edge"><title>corral&#45;&gt;corral_gryphon_nest</title>
<path fill="none" stroke="#ebc72d" stroke-dasharray="5,2" d="M172.874,-340.098C176.618,-326.028 182.592,-303.579 187.684,-284.445"/>
<polygon fill="#ebc72d" stroke="#ebc72d" points="191.137,-285.08 190.326,-274.517 184.372,-283.28 191.137,-285.08"/>
</g>
<!-- silver_helm_lancer -->
<g id="node15" class="node"><title>silver_helm_lancer</title>
<g id="a_node15"><a xlink:href="elves_silver_helm_lancer_full.html" xlink:title="Silver\nHelm Lancer">
<ellipse fill="none" stroke="magenta" cx="141.213" cy="-33.2132" rx="62.8651" ry="26.7407"/>
<text text-anchor="middle" x="141.213" y="-37.0132" font-family="Times,serif" font-size="14.00" fill="#ebc72d">Silver</text>
<text text-anchor="middle" x="141.213" y="-22.0132" font-family="Times,serif" font-size="14.00" fill="#ebc72d">Helm Lancer</text>
</a>
</g>
</g>
<!-- corral&#45;&gt;silver_helm_lancer -->
<g id="edge10" class="edge"><title>corral&#45;&gt;silver_helm_lancer</title>
<path fill="none" stroke="#ebc72d" d="M127.941,-341.629C87.9068,-327.063 30.7183,-298.236 13.213,-248.64"/>
<path fill="none" stroke="#ebc72d" d="M13.213,-246.64C-8.30427,-185.677 -2.74445,-156.809 32.213,-102.426 45.0362,-82.4778 65.9863,-67.3391 86.1105,-56.4535"/>
<polygon fill="#ebc72d" stroke="#ebc72d" points="87.9712,-59.4325 95.2664,-51.7493 84.7722,-53.2062 87.9712,-59.4325"/>
</g>
<!-- minstrel -->
<g id="node5" class="node"><title>minstrel</title>
<g id="a_node5"><a xlink:href="elves_minstrel_full.html" xlink:title="Minstrel">
<ellipse fill="none" stroke="magenta" cx="849.213" cy="-247.64" rx="40.8928" ry="18"/>
<text text-anchor="middle" x="849.213" y="-243.94" font-family="Times,serif" font-size="14.00" fill="#ebc72d">Minstrel</text>
</a>
</g>
</g>
<!-- minstrel&#45;&gt;dryad -->
<g id="edge37" class="edge"><title>minstrel&#45;&gt;dryad</title>
<path fill="none" stroke="#ebc72d" d="M827.685,-231.899C818.997,-226.182 808.78,-219.745 799.213,-214.426 766.545,-196.267 754.306,-199.167 723.213,-178.426 716.742,-174.11 710.255,-168.814 704.412,-163.592"/>
<polygon fill="#ebc72d" stroke="#ebc72d" points="706.614,-160.86 696.905,-156.617 701.849,-165.988 706.614,-160.86"/>
</g>
<!-- ent -->
<g id="node7" class="node"><title>ent</title>
<g id="a_node7"><a xlink:href="elves_ent_full.html" xlink:title="Ent">
<ellipse fill="none" stroke="magenta" cx="759.213" cy="-140.426" rx="27" ry="18"/>
<text text-anchor="middle" x="759.213" y="-136.726" font-family="Times,serif" font-size="14.00" fill="#ebc72d">Ent</text>
</a>
</g>
</g>
<!-- minstrel&#45;&gt;ent -->
<g id="edge38" class="edge"><title>minstrel&#45;&gt;ent</title>
<path fill="none" stroke="#ebc72d" d="M835.544,-230.66C820.417,-212.976 795.913,-184.33 778.761,-164.278"/>
<polygon fill="#ebc72d" stroke="#ebc72d" points="781.293,-161.855 772.133,-156.531 775.974,-166.405 781.293,-161.855"/>
</g>
<!-- prince -->
<g id="node6" class="node"><title>prince</title>
<g id="a_node6"><a xlink:href="elves_prince_full.html" xlink:title="Prince">
<ellipse fill="none" stroke="magenta" cx="598.213" cy="-140.426" rx="33.2948" ry="18"/>
<text text-anchor="middle" x="598.213" y="-136.726" font-family="Times,serif" font-size="14.00" fill="#ebc72d">Prince</text>
</a>
</g>
</g>
<!-- forest_guardian -->
<g id="node19" class="node"><title>forest_guardian</title>
<g id="a_node19"><a xlink:href="elves_forest_guardian_full.html" xlink:title="Forest\nGuardian">
<polygon fill="none" stroke="red" points="1141.83,-43.543 1083.21,-66.641 1024.59,-43.543 1024.65,-6.16955 1141.78,-6.16955 1141.83,-43.543"/>
<text text-anchor="middle" x="1083.21" y="-37.0132" font-family="Times,serif" font-size="14.00" fill="#ebc72d">Forest</text>
<text text-anchor="middle" x="1083.21" y="-22.0132" font-family="Times,serif" font-size="14.00" fill="#ebc72d">Guardian</text>
</a>
</g>
</g>
<!-- ent&#45;&gt;forest_guardian -->
<g id="edge27" class="edge"><title>ent&#45;&gt;forest_guardian</title>
<path fill="none" stroke="#ebc72d" stroke-width="2" d="M770.66,-124.06C777.08,-116.476 785.702,-107.82 795.213,-102.426 863.663,-63.6126 953.279,-46.826 1014.24,-39.6025"/>
<polygon fill="#ebc72d" stroke="#ebc72d" stroke-width="2" points="1014.98,-43.0414 1024.53,-38.4424 1014.2,-36.0856 1014.98,-43.0414"/>
</g>
<!-- academy -->
<g id="node9" class="node"><title>academy</title>
<g id="a_node9"><a xlink:href="elves_academy_full.html" xlink:title="Academy">
<polygon fill="none" stroke="red" points="637.579,-452.415 582.213,-464.853 526.847,-452.415 526.899,-432.291 637.527,-432.291 637.579,-452.415"/>
<text text-anchor="middle" x="582.213" y="-443.153" font-family="Times,serif" font-size="14.00" fill="#ebc72d">Academy</text>
</a>
</g>
</g>
<!-- academy&#45;&gt;grey_elf_archer -->
<g id="edge5" class="edge"><title>academy&#45;&gt;grey_elf_archer</title>
<path fill="none" stroke="#ebc72d" d="M582.213,-432.184C582.213,-421.5 582.213,-406.138 582.213,-391.993"/>
<polygon fill="#ebc72d" stroke="#ebc72d" points="585.713,-391.992 582.213,-381.992 578.713,-391.992 585.713,-391.992"/>
</g>
<!-- academy&#45;&gt;corral -->
<g id="edge1" class="edge"><title>academy&#45;&gt;corral</title>
<path fill="none" stroke="#ebc72d" stroke-dasharray="1,5" d="M533.438,-432.238C528.317,-431.006 523.172,-429.85 518.213,-428.853 403.411,-405.779 370.145,-423.809 257.213,-392.853 237.438,-387.432 216.224,-378.609 199.58,-370.939"/>
<polygon fill="#ebc72d" stroke="#ebc72d" points="200.892,-367.688 190.354,-366.59 197.907,-374.02 200.892,-367.688"/>
</g>
<!-- wood_hall -->
<g id="node11" class="node"><title>wood_hall</title>
<g id="a_node11"><a xlink:href="elves_wood_hall_full.html" xlink:title="Wood\nHall">
<polygon fill="none" stroke="red" points="948.117,-365.183 904.213,-388.281 860.309,-365.183 860.35,-327.809 948.076,-327.809 948.117,-365.183"/>
<text text-anchor="middle" x="904.213" y="-358.653" font-family="Times,serif" font-size="14.00" fill="#ebc72d">Wood</text>
<text text-anchor="middle" x="904.213" y="-343.653" font-family="Times,serif" font-size="14.00" fill="#ebc72d">Hall</text>
</a>
</g>
</g>
<!-- academy&#45;&gt;wood_hall -->
<g id="edge7" class="edge"><title>academy&#45;&gt;wood_hall</title>
<path fill="none" stroke="#ebc72d" stroke-dasharray="1,5" d="M637.888,-433.212C680.837,-423.153 741.599,-408.252 794.213,-392.853 815.305,-386.68 838.392,-379.05 857.945,-372.326"/>
<polygon fill="#ebc72d" stroke="#ebc72d" points="859.224,-375.588 867.527,-369.007 856.932,-368.973 859.224,-375.588"/>
</g>
<!-- galadrim_archer -->
<g id="node13" class="node"><title>galadrim_archer</title>
<g id="a_node13"><a xlink:href="elves_galadrim_archer_full.html" xlink:title="Galadrim\nArcher">
<ellipse fill="none" stroke="magenta" cx="612.213" cy="-247.64" rx="48.1667" ry="26.7407"/>
<text text-anchor="middle" x="612.213" y="-251.44" font-family="Times,serif" font-size="14.00" fill="#ebc72d">Galadrim</text>
<text text-anchor="middle" x="612.213" y="-236.44" font-family="Times,serif" font-size="14.00" fill="#ebc72d">Archer</text>
</a>
</g>
</g>
<!-- academy&#45;&gt;galadrim_archer -->
<g id="edge4" class="edge"><title>academy&#45;&gt;galadrim_archer</title>
<path fill="none" stroke="#ebc72d" d="M637.707,-436.839C684.537,-427.966 746.28,-412.848 761.213,-392.853 781.425,-365.789 780.255,-344.752 761.213,-316.853 736.461,-280.587 708.869,-299.701 669.213,-280.853 663.952,-278.352 658.512,-275.562 653.177,-272.698"/>
<polygon fill="#ebc72d" stroke="#ebc72d" points="654.797,-269.594 644.347,-267.846 651.426,-275.729 654.797,-269.594"/>
</g>
<!-- magol_hedir -->
<g id="node21" class="node"><title>magol_hedir</title>
<g id="a_node21"><a xlink:href="elves_magol_hedir_full.html" xlink:title="Magol\nHedir">
<ellipse fill="none" stroke="magenta" cx="303.213" cy="-354.853" rx="37.4533" ry="26.7407"/>
<text text-anchor="middle" x="303.213" y="-358.653" font-family="Times,serif" font-size="14.00" fill="#ebc72d">Magol</text>
<text text-anchor="middle" x="303.213" y="-343.653" font-family="Times,serif" font-size="14.00" fill="#ebc72d">Hedir</text>
</a>
</g>
</g>
<!-- academy&#45;&gt;magol_hedir -->
<g id="edge6" class="edge"><title>academy&#45;&gt;magol_hedir</title>
<path fill="none" stroke="#ebc72d" d="M531.964,-432.253C527.323,-431.073 522.685,-429.923 518.213,-428.853 443.523,-410.99 418.575,-425.816 349.213,-392.853 343.757,-390.26 338.375,-386.9 333.323,-383.264"/>
<polygon fill="#ebc72d" stroke="#ebc72d" points="335.228,-380.313 325.175,-376.969 330.949,-385.852 335.228,-380.313"/>
</g>
<!-- dryad_weaponry -->
<g id="node23" class="node"><title>dryad_weaponry</title>
<g id="a_node23"><a xlink:href="elves_dryad_weaponry_full.html" xlink:title="Dryad\nWeaponry">
<polygon fill="none" stroke="green" points="512.153,-392.853 389.759,-392.853 358.273,-316.853 480.667,-316.853 512.153,-392.853"/>
<text text-anchor="middle" x="435.213" y="-358.653" font-family="Times,serif" font-size="14.00" fill="#ebc72d">Dryad</text>
<text text-anchor="middle" x="435.213" y="-343.653" font-family="Times,serif" font-size="14.00" fill="#ebc72d">Weaponry</text>
</a>
</g>
</g>
<!-- academy&#45;&gt;dryad_weaponry -->
<g id="edge2" class="edge"><title>academy&#45;&gt;dryad_weaponry</title>
<path fill="none" stroke="#ebc72d" d="M559.887,-432.184C544.988,-423.062 524.52,-410.53 504.473,-398.257"/>
<polygon fill="#ebc72d" stroke="#ebc72d" points="506.281,-395.26 495.925,-393.024 502.626,-401.23 506.281,-395.26"/>
</g>
<!-- elven_lore -->
<g id="node28" class="node"><title>elven_lore</title>
<g id="a_node28"><a xlink:href="elves_elven_lore_full.html" xlink:title="Elven\nLore">
<polygon fill="none" stroke="green" points="751.742,-392.853 672.952,-392.853 652.684,-316.853 731.474,-316.853 751.742,-392.853"/>
<text text-anchor="middle" x="702.213" y="-358.653" font-family="Times,serif" font-size="14.00" fill="#ebc72d">Elven</text>
<text text-anchor="middle" x="702.213" y="-343.653" font-family="Times,serif" font-size="14.00" fill="#ebc72d">Lore</text>
</a>
</g>
</g>
<!-- academy&#45;&gt;elven_lore -->
<g id="edge3" class="edge"><title>academy&#45;&gt;elven_lore</title>
<path fill="none" stroke="#ebc72d" d="M600.438,-432.184C616.53,-420.115 640.579,-402.078 661.26,-386.568"/>
<polygon fill="#ebc72d" stroke="#ebc72d" points="663.391,-389.344 669.291,-380.544 659.191,-383.744 663.391,-389.344"/>
</g>
<!-- corral_gryphon_nest&#45;&gt;reaver -->
<g id="edge12" class="edge"><title>corral_gryphon_nest&#45;&gt;reaver</title>
<path fill="none" stroke="#ebc72d" d="M170.283,-223.028C149.876,-205.136 122.048,-180.736 102.148,-163.289"/>
<polygon fill="#ebc72d" stroke="#ebc72d" points="104.241,-160.469 94.4141,-156.508 99.6258,-165.732 104.241,-160.469"/>
</g>
<!-- corral_gryphon_nest&#45;&gt;silver_helm_lancer -->
<g id="edge13" class="edge"><title>corral_gryphon_nest&#45;&gt;silver_helm_lancer</title>
<path fill="none" stroke="#ebc72d" d="M180.64,-221.407C173.228,-208.955 165.082,-193.419 160.213,-178.426 148.647,-142.809 144.105,-100.066 142.331,-70.4036"/>
<polygon fill="#ebc72d" stroke="#ebc72d" points="145.81,-69.9089 141.794,-60.1045 138.819,-70.273 145.81,-69.9089"/>
</g>
<!-- gryphon -->
<g id="node22" class="node"><title>gryphon</title>
<g id="a_node22"><a xlink:href="elves_gryphon_full.html" xlink:title="Gryphon">
<ellipse fill="none" stroke="magenta" cx="211.213" cy="-140.426" rx="42.4939" ry="18"/>
<text text-anchor="middle" x="211.213" y="-136.726" font-family="Times,serif" font-size="14.00" fill="#ebc72d">Gryphon</text>
</a>
</g>
</g>
<!-- corral_gryphon_nest&#45;&gt;gryphon -->
<g id="edge11" class="edge"><title>corral_gryphon_nest&#45;&gt;gryphon</title>
<path fill="none" stroke="#ebc72d" d="M200.674,-220.632C202.766,-204.909 205.43,-184.884 207.557,-168.904"/>
<polygon fill="#ebc72d" stroke="#ebc72d" points="211.08,-168.963 208.929,-158.589 204.141,-168.04 211.08,-168.963"/>
</g>
<!-- taming_song -->
<g id="node24" class="node"><title>taming_song</title>
<g id="a_node24"><a xlink:href="elves_taming_song_full.html" xlink:title="Taming\nSong">
<polygon fill="none" stroke="green" points="393.55,-178.426 295.976,-178.426 270.876,-102.426 368.45,-102.426 393.55,-178.426"/>
<text text-anchor="middle" x="332.213" y="-144.226" font-family="Times,serif" font-size="14.00" fill="#ebc72d">Taming</text>
<text text-anchor="middle" x="332.213" y="-129.226" font-family="Times,serif" font-size="14.00" fill="#ebc72d">Song</text>
</a>
</g>
</g>
<!-- corral_gryphon_nest&#45;&gt;taming_song -->
<g id="edge14" class="edge"><title>corral_gryphon_nest&#45;&gt;taming_song</title>
<path fill="none" stroke="#ebc72d" stroke-dasharray="1,5" d="M226.839,-223.55C244.098,-210.099 266.242,-192.842 285.771,-177.621"/>
<polygon fill="#ebc72d" stroke="#ebc72d" points="287.939,-180.369 293.675,-171.461 283.636,-174.848 287.939,-180.369"/>
</g>
<!-- wood_hall&#45;&gt;forge -->
<g id="edge45" class="edge"><title>wood_hall&#45;&gt;forge</title>
<path fill="none" stroke="#ebc72d" stroke-dasharray="1,5" d="M914.953,-327.575C921.751,-310.941 930.483,-289.576 937.147,-273.269"/>
<polygon fill="#ebc72d" stroke="#ebc72d" points="940.45,-274.438 940.994,-263.857 933.971,-271.79 940.45,-274.438"/>
</g>
<!-- wood_hall&#45;&gt;minstrel -->
<g id="edge46" class="edge"><title>wood_hall&#45;&gt;minstrel</title>
<path fill="none" stroke="#ebc72d" d="M890.476,-327.575C881.965,-311.293 871.084,-290.478 862.633,-274.311"/>
<polygon fill="#ebc72d" stroke="#ebc72d" points="865.708,-272.639 857.974,-265.398 859.505,-275.882 865.708,-272.639"/>
</g>
<!-- quenya -->
<g id="node30" class="node"><title>quenya</title>
<g id="a_node30"><a xlink:href="elves_quenya_full.html" xlink:title="Quenya">
<polygon fill="none" stroke="green" points="790.661,-265.64 700.865,-265.64 677.765,-229.64 767.561,-229.64 790.661,-265.64"/>
<text text-anchor="middle" x="734.213" y="-243.94" font-family="Times,serif" font-size="14.00" fill="#ebc72d">Quenya</text>
</a>
</g>
</g>
<!-- wood_hall&#45;&gt;quenya -->
<g id="edge47" class="edge"><title>wood_hall&#45;&gt;quenya</title>
<path fill="none" stroke="#ebc72d" d="M863.404,-327.67C857.644,-324.018 851.788,-320.328 846.213,-316.853 821.421,-301.398 793.343,-284.298 771.502,-271.085"/>
<polygon fill="#ebc72d" stroke="#ebc72d" points="773.223,-268.036 762.854,-265.859 769.603,-274.027 773.223,-268.036"/>
</g>
<!-- gryphon_rider -->
<g id="node12" class="node"><title>gryphon_rider</title>
<g id="a_node12"><a xlink:href="elves_gryphon_rider_full.html" xlink:title="Gryphon\nRider">
<ellipse fill="none" stroke="magenta" cx="300.213" cy="-33.2132" rx="45.9239" ry="26.7407"/>
<text text-anchor="middle" x="300.213" y="-37.0132" font-family="Times,serif" font-size="14.00" fill="#ebc72d">Gryphon</text>
<text text-anchor="middle" x="300.213" y="-22.0132" font-family="Times,serif" font-size="14.00" fill="#ebc72d">Rider</text>
</a>
</g>
</g>
<!-- galadrim_archer&#45;&gt;prince -->
<g id="edge31" class="edge"><title>galadrim_archer&#45;&gt;prince</title>
<path fill="none" stroke="#ebc72d" stroke-dasharray="5,2" d="M608.752,-220.632C606.66,-204.909 603.996,-184.884 601.869,-168.904"/>
<polygon fill="#ebc72d" stroke="#ebc72d" points="605.285,-168.04 600.497,-158.589 598.346,-168.963 605.285,-168.04"/>
</g>
<!-- sanctuary -->
<g id="node14" class="node"><title>sanctuary</title>
<g id="a_node14"><a xlink:href="elves_sanctuary_full.html" xlink:title="Sanctuary">
<polygon fill="none" stroke="red" points="509.292,-452.415 452.213,-464.853 395.134,-452.415 395.187,-432.291 509.239,-432.291 509.292,-452.415"/>
<text text-anchor="middle" x="452.213" y="-443.153" font-family="Times,serif" font-size="14.00" fill="#ebc72d">Sanctuary</text>
</a>
</g>
</g>
<!-- elf -->
<g id="node17" class="node"><title>elf</title>
<g id="a_node17"><a xlink:href="elves_elf_full.html" xlink:title="Elf">
<ellipse fill="none" stroke="magenta" cx="517.213" cy="-518.853" rx="27" ry="18"/>
<text text-anchor="middle" x="517.213" y="-515.153" font-family="Times,serif" font-size="14.00" fill="#ebc72d">Elf</text>
</a>
</g>
</g>
<!-- wise_elf -->
<g id="node16" class="node"><title>wise_elf</title>
<g id="a_node16"><a xlink:href="elves_wise_elf_full.html" xlink:title="Wise\nElf">
<ellipse fill="none" stroke="magenta" cx="517.213" cy="-702.149" rx="31.6406" ry="26.7407"/>
<text text-anchor="middle" x="517.213" y="-705.949" font-family="Times,serif" font-size="14.00" fill="#ebc72d">Wise</text>
<text text-anchor="middle" x="517.213" y="-690.949" font-family="Times,serif" font-size="14.00" fill="#ebc72d">Elf</text>
</a>
</g>
</g>
<!-- tree_of_life -->
<g id="node18" class="node"><title>tree_of_life</title>
<g id="a_node18"><a xlink:href="elves_tree_of_life_full.html" xlink:title="Tree\nOf Life">
<polygon fill="none" stroke="red" points="527.853,-616.396 478.213,-639.494 428.573,-616.396 428.619,-579.022 527.807,-579.022 527.853,-616.396"/>
<text text-anchor="middle" x="478.213" y="-609.866" font-family="Times,serif" font-size="14.00" fill="#ebc72d">Tree</text>
<text text-anchor="middle" x="478.213" y="-594.866" font-family="Times,serif" font-size="14.00" fill="#ebc72d">Of Life</text>
</a>
</g>
</g>
<!-- wise_elf&#45;&gt;tree_of_life -->
<g id="edge44" class="edge"><title>wise_elf&#45;&gt;tree_of_life</title>
<path fill="none" stroke="#ebc72d" stroke-width="2" d="M506.966,-676.43C502.812,-666.408 497.928,-654.627 493.376,-643.646"/>
<polygon fill="#ebc72d" stroke="#ebc72d" stroke-width="2" points="496.551,-642.165 489.489,-634.267 490.085,-644.845 496.551,-642.165"/>
</g>
<!-- wise_elf&#45;&gt;forest_guardian -->
<g id="edge43" class="edge"><title>wise_elf&#45;&gt;forest_guardian</title>
<path fill="none" stroke="#ebc72d" stroke-width="2" d="M548.68,-696.69C657.93,-680.341 1014.21,-619.391 1014.21,-519.853 1014.21,-519.853 1014.21,-519.853 1014.21,-445.853 1014.21,-402.028 984.772,-281.103 1014.21,-248.64"/>
</g>
<!-- elf&#45;&gt;forge -->
<g id="edge18" class="edge"><title>elf&#45;&gt;forge</title>
<path fill="none" stroke="#ebc72d" stroke-width="2" d="M904.213,-445.853C924.232,-419.226 937.59,-419.772 957.213,-392.853 968.102,-377.915 969.822,-373.199 976.213,-355.853"/>
<path fill="none" stroke="#ebc72d" stroke-width="2" d="M976.213,-353.853C986.427,-326.131 973.44,-293.146 961.725,-271.595"/>
<polygon fill="#ebc72d" stroke="#ebc72d" stroke-width="2" points="964.706,-269.757 956.688,-262.832 958.638,-273.246 964.706,-269.757"/>
</g>
<!-- elf&#45;&gt;corral -->
<g id="edge16" class="edge"><title>elf&#45;&gt;corral</title>
<path fill="none" stroke="#ebc72d" stroke-width="2" d="M494.257,-509.214C467.914,-499.153 423.54,-481.745 386.213,-464.853 317.975,-433.972 239.938,-393.456 198.568,-371.552"/>
<polygon fill="#ebc72d" stroke="#ebc72d" stroke-width="2" points="200.063,-368.383 189.59,-366.785 196.781,-374.566 200.063,-368.383"/>
</g>
<!-- elf&#45;&gt;academy -->
<g id="edge15" class="edge"><title>elf&#45;&gt;academy</title>
<path fill="none" stroke="#ebc72d" stroke-width="2" d="M530.998,-503.008C539.994,-493.319 551.893,-480.506 561.956,-469.668"/>
<polygon fill="#ebc72d" stroke="#ebc72d" stroke-width="2" points="564.653,-471.907 568.893,-462.198 559.523,-467.144 564.653,-471.907"/>
</g>
<!-- elf&#45;&gt;wood_hall -->
<g id="edge23" class="edge"><title>elf&#45;&gt;wood_hall</title>
<path fill="none" stroke="#ebc72d" stroke-width="2" d="M904.213,-445.853C915.901,-431.79 916.903,-411.776 914.546,-394.191"/>
<polygon fill="#ebc72d" stroke="#ebc72d" stroke-width="2" points="917.969,-393.443 912.825,-384.181 911.07,-394.629 917.969,-393.443"/>
</g>
<!-- elf&#45;&gt;sanctuary -->
<g id="edge20" class="edge"><title>elf&#45;&gt;sanctuary</title>
<path fill="none" stroke="#ebc72d" stroke-width="2" d="M496.432,-495.474C488.759,-487.21 480.079,-477.862 472.454,-469.65"/>
<polygon fill="#ebc72d" stroke="#ebc72d" stroke-width="2" points="494.059,-498.061 503.428,-503.008 499.188,-493.298 494.059,-498.061"/>
<polygon fill="#ebc72d" stroke="#ebc72d" stroke-width="2" points="474.903,-467.144 465.533,-462.198 469.773,-471.907 474.903,-467.144"/>
</g>
<!-- elf&#45;&gt;wise_elf -->
<g id="edge22" class="edge"><title>elf&#45;&gt;wise_elf</title>
<path fill="none" stroke="#ebc72d" stroke-dasharray="5,2" d="M525.105,-536.122C529.639,-546.39 534.884,-560.082 537.213,-572.853 542.511,-601.897 541.81,-610.116 537.213,-639.279 535.77,-648.434 533.196,-658.081 530.364,-666.962"/>
<polygon fill="#ebc72d" stroke="#ebc72d" points="526.994,-666.002 527.104,-676.597 533.624,-668.246 526.994,-666.002"/>
</g>
<!-- elf&#45;&gt;forest_guardian -->
<g id="edge17" class="edge"><title>elf&#45;&gt;forest_guardian</title>
<path fill="none" stroke="#ebc72d" stroke-width="2" d="M976.213,-353.853C984.807,-330.527 997.446,-266.993 1014.21,-248.64"/>
<path fill="none" stroke="#ebc72d" stroke-width="2" d="M1014.21,-246.64C1128.47,-121.571 1280.67,-308.489 1389.21,-178.426 1410.86,-152.493 1410.34,-128.782 1389.21,-102.426 1360.08,-66.0782 1233.09,-47.8405 1152.14,-39.7454"/>
<polygon fill="#ebc72d" stroke="#ebc72d" stroke-width="2" points="1152.3,-36.2454 1142.01,-38.7617 1151.63,-43.2125 1152.3,-36.2454"/>
</g>
<!-- lore_house -->
<g id="node20" class="node"><title>lore_house</title>
<g id="a_node20"><a xlink:href="elves_lore_house_full.html" xlink:title="Lore\nHouse">
<polygon fill="none" stroke="red" points="534.864,-257.969 490.213,-281.067 445.562,-257.969 445.603,-220.596 534.823,-220.596 534.864,-257.969"/>
<text text-anchor="middle" x="490.213" y="-251.44" font-family="Times,serif" font-size="14.00" fill="#ebc72d">Lore</text>
<text text-anchor="middle" x="490.213" y="-236.44" font-family="Times,serif" font-size="14.00" fill="#ebc72d">House</text>
</a>
</g>
</g>
<!-- elf&#45;&gt;lore_house -->
<g id="edge19" class="edge"><title>elf&#45;&gt;lore_house</title>
<path fill="none" stroke="#ebc72d" stroke-width="2" d="M544.329,-517.268C624.571,-514.91 858.117,-503.316 904.213,-447.853"/>
<path fill="none" stroke="#ebc72d" stroke-width="2" d="M904.213,-445.853C907.632,-441.739 766.022,-319.197 761.213,-316.853 677.664,-276.134 643.538,-309.786 555.213,-280.853 546.604,-278.033 537.701,-274.254 529.349,-270.279"/>
<polygon fill="#ebc72d" stroke="#ebc72d" stroke-width="2" points="530.714,-267.049 520.199,-265.747 527.607,-273.321 530.714,-267.049"/>
</g>
<!-- tree_of_life&#45;&gt;elf -->
<g id="edge42" class="edge"><title>tree_of_life&#45;&gt;elf</title>
<path fill="none" stroke="#ebc72d" d="M494.648,-569.158C498.302,-561.173 502.103,-552.867 505.522,-545.398"/>
<polygon fill="#ebc72d" stroke="#ebc72d" points="491.318,-568.022 490.339,-578.571 497.683,-570.935 491.318,-568.022"/>
<polygon fill="#ebc72d" stroke="#ebc72d" points="508.771,-546.709 509.75,-536.16 502.405,-543.796 508.771,-546.709"/>
</g>
<!-- lore_house&#45;&gt;prince -->
<g id="edge34" class="edge"><title>lore_house&#45;&gt;prince</title>
<path fill="none" stroke="#ebc72d" stroke-dasharray="1,5" d="M517.187,-220.361C535.067,-202.943 558.272,-180.337 575.264,-163.783"/>
<polygon fill="#ebc72d" stroke="#ebc72d" points="577.872,-166.129 582.593,-156.644 572.988,-161.115 577.872,-166.129"/>
</g>
<!-- lore_house&#45;&gt;wise_elf -->
<g id="edge36" class="edge"><title>lore_house&#45;&gt;wise_elf</title>
<path fill="none" stroke="#ebc72d" d="M445.39,-248.243C392.079,-250.383 304.389,-262.641 257.213,-316.853 219.17,-360.57 238.213,-387.901 238.213,-445.853 238.213,-519.853 238.213,-519.853 238.213,-519.853 238.213,-631.94 398.5,-678.268 476.091,-694.127"/>
<polygon fill="#ebc72d" stroke="#ebc72d" points="475.532,-697.584 486.02,-696.082 476.885,-690.716 475.532,-697.584"/>
</g>
<!-- lore_house&#45;&gt;taming_song -->
<g id="edge35" class="edge"><title>lore_house&#45;&gt;taming_song</title>
<path fill="none" stroke="#ebc72d" d="M450.751,-220.361C434.264,-209.383 414.681,-196.343 396.231,-184.056"/>
<polygon fill="#ebc72d" stroke="#ebc72d" points="398.112,-181.104 387.848,-178.474 394.232,-186.93 398.112,-181.104"/>
</g>
<!-- mystical_forest -->
<g id="node26" class="node"><title>mystical_forest</title>
<g id="a_node26"><a xlink:href="elves_mystical_forest_full.html" xlink:title="Mystical\nForest">
<polygon fill="none" stroke="green" points="546.491,-178.426 439.467,-178.426 411.935,-102.426 518.959,-102.426 546.491,-178.426"/>
<text text-anchor="middle" x="479.213" y="-144.226" font-family="Times,serif" font-size="14.00" fill="#ebc72d">Mystical</text>
<text text-anchor="middle" x="479.213" y="-129.226" font-family="Times,serif" font-size="14.00" fill="#ebc72d">Forest</text>
</a>
</g>
</g>
<!-- lore_house&#45;&gt;mystical_forest -->
<g id="edge33" class="edge"><title>lore_house&#45;&gt;mystical_forest</title>
<path fill="none" stroke="#ebc72d" d="M487.466,-220.361C486.463,-210.767 485.295,-199.599 484.159,-188.736"/>
<polygon fill="#ebc72d" stroke="#ebc72d" points="487.607,-188.056 483.086,-178.474 480.645,-188.784 487.607,-188.056"/>
</g>
<!-- gryphon&#45;&gt;gryphon_rider -->
<g id="edge32" class="edge"><title>gryphon&#45;&gt;gryphon_rider</title>
<path fill="none" stroke="#ebc72d" stroke-dasharray="5,2" d="M225.119,-122.987C238.124,-107.613 257.885,-84.2527 273.871,-65.3536"/>
<polygon fill="#ebc72d" stroke="#ebc72d" points="276.675,-67.4587 280.461,-57.5634 271.331,-62.9379 276.675,-67.4587"/>
</g>
<!-- taming_song&#45;&gt;gryphon_rider -->
<g id="edge41" class="edge"><title>taming_song&#45;&gt;gryphon_rider</title>
<path fill="none" stroke="#ebc72d" stroke-dasharray="1,5" d="M320.931,-102.332C317.686,-91.6616 314.156,-80.0558 310.945,-69.4979"/>
<polygon fill="#ebc72d" stroke="#ebc72d" points="314.242,-68.3099 307.983,-59.7611 307.545,-70.3468 314.242,-68.3099"/>
</g>
<!-- noldor_armour_crafting&#45;&gt;silver_helm_lancer -->
<g id="edge39" class="edge"><title>noldor_armour_crafting&#45;&gt;silver_helm_lancer</title>
<path fill="none" stroke="#ebc72d" stroke-dasharray="1,5" d="M805.105,-104.372C801.782,-103.672 798.479,-103.021 795.213,-102.426 554.199,-58.5913 486.096,-110.973 245.213,-66.4264 229.585,-63.5363 213.004,-59.0696 197.781,-54.3738"/>
<polygon fill="#ebc72d" stroke="#ebc72d" points="198.588,-50.9579 187.998,-51.2692 196.471,-57.63 198.588,-50.9579"/>
</g>
<!-- elven_lore&#45;&gt;corral_gryphon_nest -->
<g id="edge24" class="edge"><title>elven_lore&#45;&gt;corral_gryphon_nest</title>
<path fill="none" stroke="#ebc72d" stroke-dasharray="1,5" d="M653.74,-321.376C650.254,-319.691 646.726,-318.159 643.213,-316.853 608.88,-304.088 386.616,-273.561 269.377,-258.042"/>
<polygon fill="#ebc72d" stroke="#ebc72d" points="269.773,-254.564 259.401,-256.724 268.857,-261.503 269.773,-254.564"/>
</g>
<!-- elven_lore&#45;&gt;galadrim_archer -->
<g id="edge25" class="edge"><title>elven_lore&#45;&gt;galadrim_archer</title>
<path fill="none" stroke="#ebc72d" stroke-dasharray="1,5" d="M670.482,-316.759C660.203,-304.741 648.908,-291.538 639.022,-279.98"/>
<polygon fill="#ebc72d" stroke="#ebc72d" points="641.593,-277.601 632.433,-272.277 636.273,-282.151 641.593,-277.601"/>
</g>
<!-- elven_lore&#45;&gt;lore_house -->
<g id="edge26" class="edge"><title>elven_lore&#45;&gt;lore_house</title>
<path fill="none" stroke="#ebc72d" stroke-dasharray="1,5" d="M653.982,-322.686C650.378,-320.642 646.763,-318.675 643.213,-316.853 605.619,-297.556 593.725,-298.246 555.213,-280.853 547.293,-277.276 538.92,-273.287 530.914,-269.368"/>
<polygon fill="#ebc72d" stroke="#ebc72d" points="532.249,-266.123 521.734,-264.828 529.146,-272.398 532.249,-266.123"/>
</g>
</g>
</svg>
