<?xml version="1.0" encoding="UTF-8" standalone="no"?>
<!DOCTYPE svg PUBLIC "-//W3C//DTD SVG 1.1//EN"
 "http://www.w3.org/Graphics/SVG/1.1/DTD/svg11.dtd">
<!-- Generated by graphviz version 2.38.0 (20140413.2041)
 -->
<!-- Title: test Pages: 1 -->
<svg width="1792pt" height="737pt"
 viewBox="0.00 0.00 1791.67 737.02" xmlns="http://www.w3.org/2000/svg" xmlns:xlink="http://www.w3.org/1999/xlink">
<g id="graph0" class="graph" transform="scale(1 1) rotate(0) translate(4 733.019)">
<title>test</title>
<polygon fill="#151515" stroke="none" points="-4,4 -4,-733.019 1787.67,-733.019 1787.67,4 -4,4"/>
<!-- dryad -->
<g id="node1" class="node"><title>dryad</title>
<g id="a_node1"><a xlink:href="elves_dryad_full.html" xlink:title="Dryad">
<ellipse fill="none" stroke="magenta" cx="42.9464" cy="-18" rx="32.4942" ry="18"/>
<text text-anchor="middle" x="42.9464" y="-14.3" font-family="Times,serif" font-size="14.00" fill="#ebc72d">Dryad</text>
</a>
</g>
</g>
<!-- grey_elf_archer -->
<g id="node2" class="node"><title>grey_elf_archer</title>
<g id="a_node2"><a xlink:href="elves_grey_elf_archer_full.html" xlink:title="Grey\nElf Archer">
<ellipse fill="none" stroke="magenta" cx="1317.95" cy="-324.426" rx="52.1524" ry="26.7407"/>
<text text-anchor="middle" x="1317.95" y="-328.226" font-family="Times,serif" font-size="14.00" fill="#ebc72d">Grey</text>
<text text-anchor="middle" x="1317.95" y="-313.226" font-family="Times,serif" font-size="14.00" fill="#ebc72d">Elf Archer</text>
</a>
</g>
</g>
<!-- forge -->
<g id="node3" class="node"><title>forge</title>
<g id="a_node3"><a xlink:href="elves_forge_full.html" xlink:title="Forge">
<polygon fill="none" stroke="red" points="567.57,-329.989 528.946,-342.426 490.322,-329.989 490.359,-309.864 567.534,-309.864 567.57,-329.989"/>
<text text-anchor="middle" x="528.946" y="-320.726" font-family="Times,serif" font-size="14.00" fill="#ebc72d">Forge</text>
</a>
</g>
</g>
<!-- noldor_weaponry -->
<g id="node26" class="node"><title>noldor_weaponry</title>
<g id="a_node26"><a xlink:href="elves_noldor_weaponry_full.html" xlink:title="Noldor\nWeaponry">
<polygon fill="none" stroke="green" points="291.886,-250.426 169.492,-250.426 138.006,-174.426 260.401,-174.426 291.886,-250.426"/>
<text text-anchor="middle" x="214.946" y="-216.226" font-family="Times,serif" font-size="14.00" fill="#ebc72d">Noldor</text>
<text text-anchor="middle" x="214.946" y="-201.226" font-family="Times,serif" font-size="14.00" fill="#ebc72d">Weaponry</text>
</a>
</g>
</g>
<!-- forge&#45;&gt;noldor_weaponry -->
<g id="edge25" class="edge"><title>forge&#45;&gt;noldor_weaponry</title>
<path fill="none" stroke="#ebc72d" d="M514.969,-309.842C505.954,-301.836 493.588,-292.179 480.946,-286.426 406.689,-252.635 378.842,-274.68 300.946,-250.426 300.733,-250.36 300.519,-250.293 300.306,-250.226"/>
<polygon fill="#ebc72d" stroke="#ebc72d" points="301.186,-246.83 290.592,-246.989 298.973,-253.471 301.186,-246.83"/>
</g>
<!-- noldor_armour_crafting -->
<g id="node28" class="node"><title>noldor_armour_crafting</title>
<g id="a_node28"><a xlink:href="elves_noldor_armour_crafting_full.html" xlink:title="Noldor\nArmour Crafting">
<polygon fill="none" stroke="green" points="535.959,-250.426 356.181,-250.426 309.934,-174.426 489.711,-174.426 535.959,-250.426"/>
<text text-anchor="middle" x="422.946" y="-216.226" font-family="Times,serif" font-size="14.00" fill="#ebc72d">Noldor</text>
<text text-anchor="middle" x="422.946" y="-201.226" font-family="Times,serif" font-size="14.00" fill="#ebc72d">Armour Crafting</text>
</a>
</g>
</g>
<!-- forge&#45;&gt;noldor_armour_crafting -->
<g id="edge24" class="edge"><title>forge&#45;&gt;noldor_armour_crafting</title>
<path fill="none" stroke="#ebc72d" d="M515.521,-309.495C503.029,-296.532 483.723,-276.496 465.967,-258.07"/>
<polygon fill="#ebc72d" stroke="#ebc72d" points="468.456,-255.61 458.997,-250.838 463.416,-260.467 468.456,-255.61"/>
</g>
<!-- silverthorn_arrows -->
<g id="node30" class="node"><title>silverthorn_arrows</title>
<g id="a_node30"><a xlink:href="elves_silverthorn_arrows_full.html" xlink:title="Silverthorn\nArrows">
<polygon fill="none" stroke="green" points="713.607,-250.426 586.885,-250.426 554.286,-174.426 681.008,-174.426 713.607,-250.426"/>
<text text-anchor="middle" x="633.946" y="-216.226" font-family="Times,serif" font-size="14.00" fill="#ebc72d">Silverthorn</text>
<text text-anchor="middle" x="633.946" y="-201.226" font-family="Times,serif" font-size="14.00" fill="#ebc72d">Arrows</text>
</a>
</g>
</g>
<!-- forge&#45;&gt;silverthorn_arrows -->
<g id="edge26" class="edge"><title>forge&#45;&gt;silverthorn_arrows</title>
<path fill="none" stroke="#ebc72d" d="M542.245,-309.495C554.509,-296.646 573.405,-276.85 590.865,-258.56"/>
<polygon fill="#ebc72d" stroke="#ebc72d" points="593.863,-260.488 598.236,-250.838 588.799,-255.655 593.863,-260.488"/>
</g>
<!-- corral -->
<g id="node4" class="node"><title>corral</title>
<g id="a_node4"><a xlink:href="elves_corral_full.html" xlink:title="Corral">
<polygon fill="none" stroke="red" points="871.89,-437.202 830.946,-449.64 790.002,-437.202 790.041,-417.077 871.852,-417.077 871.89,-437.202"/>
<text text-anchor="middle" x="830.946" y="-427.94" font-family="Times,serif" font-size="14.00" fill="#ebc72d">Corral</text>
</a>
</g>
</g>
<!-- reaver -->
<g id="node8" class="node"><title>reaver</title>
<g id="a_node8"><a xlink:href="elves_reaver_full.html" xlink:title="Reaver">
<ellipse fill="none" stroke="magenta" cx="805.946" cy="-212.426" rx="35.9954" ry="18"/>
<text text-anchor="middle" x="805.946" y="-208.726" font-family="Times,serif" font-size="14.00" fill="#ebc72d">Reaver</text>
</a>
</g>
</g>
<!-- corral&#45;&gt;reaver -->
<g id="edge7" class="edge"><title>corral&#45;&gt;reaver</title>
<path fill="none" stroke="#ebc72d" d="M741.946,-323.426C734.86,-289.727 760.125,-256.288 780.976,-235.284"/>
<polygon fill="#ebc72d" stroke="#ebc72d" points="783.623,-237.593 788.39,-228.131 778.763,-232.556 783.623,-237.593"/>
</g>
<!-- corral_gryphon_nest -->
<g id="node10" class="node"><title>corral_gryphon_nest</title>
<g id="a_node10"><a xlink:href="elves_corral_gryphon_nest_full.html" xlink:title="Corral\nGryphon Nest">
<ellipse fill="none" stroke="magenta" cx="835.946" cy="-324.426" rx="65.5227" ry="26.7407"/>
<text text-anchor="middle" x="835.946" y="-328.226" font-family="Times,serif" font-size="14.00" fill="#ebc72d">Corral</text>
<text text-anchor="middle" x="835.946" y="-313.226" font-family="Times,serif" font-size="14.00" fill="#ebc72d">Gryphon Nest</text>
</a>
</g>
</g>
<!-- corral&#45;&gt;corral_gryphon_nest -->
<g id="edge6" class="edge"><title>corral&#45;&gt;corral_gryphon_nest</title>
<path fill="none" stroke="#ebc72d" stroke-dasharray="5,2" d="M831.6,-416.885C832.266,-402.879 833.326,-380.573 834.232,-361.496"/>
<polygon fill="#ebc72d" stroke="#ebc72d" points="837.738,-361.458 834.717,-351.303 830.746,-361.126 837.738,-361.458"/>
</g>
<!-- silver_helm_lancer -->
<g id="node15" class="node"><title>silver_helm_lancer</title>
<g id="a_node15"><a xlink:href="elves_silver_helm_lancer_full.html" xlink:title="Silver\nHelm Lancer">
<ellipse fill="none" stroke="magenta" cx="741.946" cy="-105.213" rx="62.8651" ry="26.7407"/>
<text text-anchor="middle" x="741.946" y="-109.013" font-family="Times,serif" font-size="14.00" fill="#ebc72d">Silver</text>
<text text-anchor="middle" x="741.946" y="-94.0132" font-family="Times,serif" font-size="14.00" fill="#ebc72d">Helm Lancer</text>
</a>
</g>
</g>
<!-- corral&#45;&gt;silver_helm_lancer -->
<g id="edge8" class="edge"><title>corral&#45;&gt;silver_helm_lancer</title>
<path fill="none" stroke="#ebc72d" d="M810.811,-416.786C787.247,-398.957 750.366,-365.462 741.946,-325.426"/>
<path fill="none" stroke="#ebc72d" d="M741.946,-323.426C728.791,-260.867 733.058,-185.912 737.443,-142.41"/>
<polygon fill="#ebc72d" stroke="#ebc72d" points="740.939,-142.631 738.52,-132.316 733.979,-141.888 740.939,-142.631"/>
</g>
<!-- minstrel -->
<g id="node5" class="node"><title>minstrel</title>
<g id="a_node5"><a xlink:href="elves_minstrel_full.html" xlink:title="Minstrel">
<ellipse fill="none" stroke="magenta" cx="40.9464" cy="-324.426" rx="40.8928" ry="18"/>
<text text-anchor="middle" x="40.9464" y="-320.726" font-family="Times,serif" font-size="14.00" fill="#ebc72d">Minstrel</text>
</a>
</g>
</g>
<!-- minstrel&#45;&gt;dryad -->
<g id="edge34" class="edge"><title>minstrel&#45;&gt;dryad</title>
<path fill="none" stroke="#ebc72d" d="M34.3504,-306.638C28.9916,-292.045 21.8612,-270.2 18.9464,-250.426 7.38159,-171.974 2.21357,-149.515 18.9464,-72 20.9595,-62.6743 24.7542,-53.0153 28.7418,-44.5384"/>
<polygon fill="#ebc72d" stroke="#ebc72d" points="31.8942,-46.0597 33.2412,-35.5509 25.6348,-42.9261 31.8942,-46.0597"/>
</g>
<!-- ent -->
<g id="node7" class="node"><title>ent</title>
<g id="a_node7"><a xlink:href="elves_ent_full.html" xlink:title="Ent">
<ellipse fill="none" stroke="magenta" cx="54.9464" cy="-212.426" rx="27" ry="18"/>
<text text-anchor="middle" x="54.9464" y="-208.726" font-family="Times,serif" font-size="14.00" fill="#ebc72d">Ent</text>
</a>
</g>
</g>
<!-- minstrel&#45;&gt;ent -->
<g id="edge35" class="edge"><title>minstrel&#45;&gt;ent</title>
<path fill="none" stroke="#ebc72d" d="M43.1339,-306.239C45.3736,-288.641 48.8873,-261.033 51.501,-240.497"/>
<polygon fill="#ebc72d" stroke="#ebc72d" points="54.9836,-240.855 52.7742,-230.493 48.0396,-239.971 54.9836,-240.855"/>
</g>
<!-- prince -->
<g id="node6" class="node"><title>prince</title>
<g id="a_node6"><a xlink:href="elves_prince_full.html" xlink:title="Prince">
<ellipse fill="none" stroke="magenta" cx="1212.95" cy="-105.213" rx="33.2948" ry="18"/>
<text text-anchor="middle" x="1212.95" y="-101.513" font-family="Times,serif" font-size="14.00" fill="#ebc72d">Prince</text>
</a>
</g>
</g>
<!-- forest_guardian -->
<g id="node19" class="node"><title>forest_guardian</title>
<g id="a_node19"><a xlink:href="elves_forest_guardian_full.html" xlink:title="Forest\nGuardian">
<polygon fill="none" stroke="red" points="145.567,-115.543 86.9464,-138.641 28.326,-115.543 28.3807,-78.1695 145.512,-78.1695 145.567,-115.543"/>
<text text-anchor="middle" x="86.9464" y="-109.013" font-family="Times,serif" font-size="14.00" fill="#ebc72d">Forest</text>
<text text-anchor="middle" x="86.9464" y="-94.0132" font-family="Times,serif" font-size="14.00" fill="#ebc72d">Guardian</text>
</a>
</g>
</g>
<!-- ent&#45;&gt;forest_guardian -->
<g id="edge22" class="edge"><title>ent&#45;&gt;forest_guardian</title>
<path fill="none" stroke="#ebc72d" stroke-width="2" d="M60.0877,-194.522C64.1344,-181.217 69.9356,-162.143 75.1117,-145.125"/>
<polygon fill="#ebc72d" stroke="#ebc72d" stroke-width="2" points="78.5078,-145.987 78.0691,-135.401 71.8107,-143.95 78.5078,-145.987"/>
</g>
<!-- academy -->
<g id="node9" class="node"><title>academy</title>
<g id="a_node9"><a xlink:href="elves_academy_full.html" xlink:title="Academy">
<polygon fill="none" stroke="red" points="1373.31,-437.202 1317.95,-449.64 1262.58,-437.202 1262.63,-417.077 1373.26,-417.077 1373.31,-437.202"/>
<text text-anchor="middle" x="1317.95" y="-427.94" font-family="Times,serif" font-size="14.00" fill="#ebc72d">Academy</text>
</a>
</g>
</g>
<!-- academy&#45;&gt;grey_elf_archer -->
<g id="edge3" class="edge"><title>academy&#45;&gt;grey_elf_archer</title>
<path fill="none" stroke="#ebc72d" d="M1317.95,-416.885C1317.95,-402.879 1317.95,-380.573 1317.95,-361.496"/>
<polygon fill="#ebc72d" stroke="#ebc72d" points="1321.45,-361.303 1317.95,-351.303 1314.45,-361.303 1321.45,-361.303"/>
</g>
<!-- galadrim_archer -->
<g id="node13" class="node"><title>galadrim_archer</title>
<g id="a_node13"><a xlink:href="elves_galadrim_archer_full.html" xlink:title="Galadrim\nArcher">
<ellipse fill="none" stroke="magenta" cx="1212.95" cy="-212.426" rx="48.1667" ry="26.7407"/>
<text text-anchor="middle" x="1212.95" y="-216.226" font-family="Times,serif" font-size="14.00" fill="#ebc72d">Galadrim</text>
<text text-anchor="middle" x="1212.95" y="-201.226" font-family="Times,serif" font-size="14.00" fill="#ebc72d">Archer</text>
</a>
</g>
</g>
<!-- academy&#45;&gt;galadrim_archer -->
<g id="edge2" class="edge"><title>academy&#45;&gt;galadrim_archer</title>
<path fill="none" stroke="#ebc72d" d="M1302.28,-416.961C1288.51,-404.142 1268.86,-383.798 1256.95,-362.426 1236.95,-326.546 1225.18,-280.628 1218.92,-249.311"/>
<polygon fill="#ebc72d" stroke="#ebc72d" points="1222.31,-248.451 1217,-239.286 1215.44,-249.765 1222.31,-248.451"/>
</g>
<!-- magol_hedir -->
<g id="node21" class="node"><title>magol_hedir</title>
<g id="a_node21"><a xlink:href="elves_magol_hedir_full.html" xlink:title="Magol\nHedir">
<ellipse fill="none" stroke="magenta" cx="1425.95" cy="-324.426" rx="37.4533" ry="26.7407"/>
<text text-anchor="middle" x="1425.95" y="-328.226" font-family="Times,serif" font-size="14.00" fill="#ebc72d">Magol</text>
<text text-anchor="middle" x="1425.95" y="-313.226" font-family="Times,serif" font-size="14.00" fill="#ebc72d">Hedir</text>
</a>
</g>
</g>
<!-- academy&#45;&gt;magol_hedir -->
<g id="edge4" class="edge"><title>academy&#45;&gt;magol_hedir</title>
<path fill="none" stroke="#ebc72d" d="M1332.07,-416.885C1348.46,-400.911 1375.94,-374.138 1396.95,-353.675"/>
<polygon fill="#ebc72d" stroke="#ebc72d" points="1399.64,-355.938 1404.36,-346.453 1394.76,-350.924 1399.64,-355.938"/>
</g>
<!-- training_field -->
<g id="node23" class="node"><title>training_field</title>
<g id="a_node23"><a xlink:href="elves_training_field_full.html" xlink:title="Training\nField">
<polygon fill="none" stroke="green" points="1612.08,-362.426 1508.47,-362.426 1481.81,-286.426 1585.42,-286.426 1612.08,-362.426"/>
<text text-anchor="middle" x="1546.95" y="-328.226" font-family="Times,serif" font-size="14.00" fill="#ebc72d">Training</text>
<text text-anchor="middle" x="1546.95" y="-313.226" font-family="Times,serif" font-size="14.00" fill="#ebc72d">Field</text>
</a>
</g>
</g>
<!-- academy&#45;&gt;training_field -->
<g id="edge5" class="edge"><title>academy&#45;&gt;training_field</title>
<path fill="none" stroke="#ebc72d" d="M1343.86,-416.962C1355.41,-411.032 1369.24,-404.151 1381.95,-398.426 1421.22,-380.726 1432.6,-379.97 1471.95,-362.426 1479.13,-359.225 1486.62,-355.723 1493.98,-352.191"/>
<polygon fill="#ebc72d" stroke="#ebc72d" points="1495.73,-355.235 1503.2,-347.721 1492.67,-348.937 1495.73,-355.235"/>
</g>
<!-- dryad_weaponry -->
<g id="node24" class="node"><title>dryad_weaponry</title>
<g id="a_node24"><a xlink:href="elves_dryad_weaponry_full.html" xlink:title="Dryad\nWeaponry">
<polygon fill="none" stroke="green" points="1783.89,-362.426 1661.49,-362.426 1630.01,-286.426 1752.4,-286.426 1783.89,-362.426"/>
<text text-anchor="middle" x="1706.95" y="-328.226" font-family="Times,serif" font-size="14.00" fill="#ebc72d">Dryad</text>
<text text-anchor="middle" x="1706.95" y="-313.226" font-family="Times,serif" font-size="14.00" fill="#ebc72d">Weaponry</text>
</a>
</g>
</g>
<!-- academy&#45;&gt;dryad_weaponry -->
<g id="edge1" class="edge"><title>academy&#45;&gt;dryad_weaponry</title>
<path fill="none" stroke="#ebc72d" d="M1340.6,-417.019C1352.52,-410.434 1367.6,-402.988 1381.95,-398.426 1484.31,-365.871 1517.65,-391.896 1620.95,-362.426 1629.35,-360.029 1638.02,-357.007 1646.47,-353.727"/>
<polygon fill="#ebc72d" stroke="#ebc72d" points="1647.92,-356.916 1655.89,-349.936 1645.3,-350.422 1647.92,-356.916"/>
</g>
<!-- corral_gryphon_nest&#45;&gt;reaver -->
<g id="edge10" class="edge"><title>corral_gryphon_nest&#45;&gt;reaver</title>
<path fill="none" stroke="#ebc72d" d="M828.913,-297.636C824.237,-280.493 818.107,-258.016 813.356,-240.596"/>
<polygon fill="#ebc72d" stroke="#ebc72d" points="816.61,-239.223 810.602,-230.496 809.856,-241.065 816.61,-239.223"/>
</g>
<!-- corral_gryphon_nest&#45;&gt;silver_helm_lancer -->
<g id="edge11" class="edge"><title>corral_gryphon_nest&#45;&gt;silver_helm_lancer</title>
<path fill="none" stroke="#ebc72d" d="M846.933,-297.918C858.558,-266.734 872.487,-213.318 850.946,-174.426 839.405,-153.588 818.546,-138.27 798.143,-127.49"/>
<polygon fill="#ebc72d" stroke="#ebc72d" points="799.658,-124.335 789.147,-123 796.531,-130.598 799.658,-124.335"/>
</g>
<!-- gryphon -->
<g id="node22" class="node"><title>gryphon</title>
<g id="a_node22"><a xlink:href="elves_gryphon_full.html" xlink:title="Gryphon">
<ellipse fill="none" stroke="magenta" cx="939.946" cy="-212.426" rx="42.4939" ry="18"/>
<text text-anchor="middle" x="939.946" y="-208.726" font-family="Times,serif" font-size="14.00" fill="#ebc72d">Gryphon</text>
</a>
</g>
</g>
<!-- corral_gryphon_nest&#45;&gt;gryphon -->
<g id="edge9" class="edge"><title>corral_gryphon_nest&#45;&gt;gryphon</title>
<path fill="none" stroke="#ebc72d" d="M859.027,-299.014C876.621,-280.405 900.691,-254.947 917.998,-236.641"/>
<polygon fill="#ebc72d" stroke="#ebc72d" points="920.636,-238.946 924.963,-229.275 915.549,-234.137 920.636,-238.946"/>
</g>
<!-- taming_song -->
<g id="node25" class="node"><title>taming_song</title>
<g id="a_node25"><a xlink:href="elves_taming_song_full.html" xlink:title="Taming\nSong">
<polygon fill="none" stroke="green" points="1122.28,-250.426 1024.71,-250.426 999.609,-174.426 1097.18,-174.426 1122.28,-250.426"/>
<text text-anchor="middle" x="1060.95" y="-216.226" font-family="Times,serif" font-size="14.00" fill="#ebc72d">Taming</text>
<text text-anchor="middle" x="1060.95" y="-201.226" font-family="Times,serif" font-size="14.00" fill="#ebc72d">Song</text>
</a>
</g>
</g>
<!-- corral_gryphon_nest&#45;&gt;taming_song -->
<g id="edge12" class="edge"><title>corral_gryphon_nest&#45;&gt;taming_song</title>
<path fill="none" stroke="#ebc72d" stroke-dasharray="1,5" d="M878.187,-303.799C916.492,-285.952 970.057,-260.859 990.946,-250.426 997.372,-247.217 1004.09,-243.777 1010.71,-240.333"/>
<polygon fill="#ebc72d" stroke="#ebc72d" points="1012.42,-243.394 1019.65,-235.657 1009.17,-237.191 1012.42,-243.394"/>
</g>
<!-- wood_hall -->
<g id="node11" class="node"><title>wood_hall</title>
<g id="a_node11"><a xlink:href="elves_wood_hall_full.html" xlink:title="Wood\nHall">
<polygon fill="none" stroke="red" points="526.851,-441.969 482.946,-465.067 439.042,-441.969 439.083,-404.596 526.81,-404.596 526.851,-441.969"/>
<text text-anchor="middle" x="482.946" y="-435.44" font-family="Times,serif" font-size="14.00" fill="#ebc72d">Wood</text>
<text text-anchor="middle" x="482.946" y="-420.44" font-family="Times,serif" font-size="14.00" fill="#ebc72d">Hall</text>
</a>
</g>
</g>
<!-- wood_hall&#45;&gt;forge -->
<g id="edge41" class="edge"><title>wood_hall&#45;&gt;forge</title>
<path fill="none" stroke="#ebc72d" stroke-dasharray="1,5" d="M494.435,-404.361C501.752,-387.627 511.162,-366.104 518.308,-349.76"/>
<polygon fill="#ebc72d" stroke="#ebc72d" points="521.626,-350.907 522.425,-340.342 515.212,-348.103 521.626,-350.907"/>
</g>
<!-- wood_hall&#45;&gt;minstrel -->
<g id="edge42" class="edge"><title>wood_hall&#45;&gt;minstrel</title>
<path fill="none" stroke="#ebc72d" d="M438.95,-420.167C354.599,-400.088 170.968,-356.377 85.8846,-336.123"/>
<polygon fill="#ebc72d" stroke="#ebc72d" points="86.5491,-332.684 76.0104,-333.773 84.9281,-339.494 86.5491,-332.684"/>
</g>
<!-- quenya -->
<g id="node31" class="node"><title>quenya</title>
<g id="a_node31"><a xlink:href="elves_quenya_full.html" xlink:title="Quenya">
<polygon fill="none" stroke="green" points="472.394,-342.426 382.598,-342.426 359.499,-306.426 449.294,-306.426 472.394,-342.426"/>
<text text-anchor="middle" x="415.946" y="-320.726" font-family="Times,serif" font-size="14.00" fill="#ebc72d">Quenya</text>
</a>
</g>
</g>
<!-- wood_hall&#45;&gt;quenya -->
<g id="edge43" class="edge"><title>wood_hall&#45;&gt;quenya</title>
<path fill="none" stroke="#ebc72d" d="M466.212,-404.361C455.813,-388.03 442.508,-367.138 432.2,-350.95"/>
<polygon fill="#ebc72d" stroke="#ebc72d" points="435.142,-349.055 426.819,-342.5 429.238,-352.815 435.142,-349.055"/>
</g>
<!-- gryphon_rider -->
<g id="node12" class="node"><title>gryphon_rider</title>
<g id="a_node12"><a xlink:href="elves_gryphon_rider_full.html" xlink:title="Gryphon\nRider">
<ellipse fill="none" stroke="magenta" cx="999.946" cy="-105.213" rx="45.9239" ry="26.7407"/>
<text text-anchor="middle" x="999.946" y="-109.013" font-family="Times,serif" font-size="14.00" fill="#ebc72d">Gryphon</text>
<text text-anchor="middle" x="999.946" y="-94.0132" font-family="Times,serif" font-size="14.00" fill="#ebc72d">Rider</text>
</a>
</g>
</g>
<!-- galadrim_archer&#45;&gt;prince -->
<g id="edge27" class="edge"><title>galadrim_archer&#45;&gt;prince</title>
<path fill="none" stroke="#ebc72d" stroke-dasharray="5,2" d="M1212.95,-185.419C1212.95,-169.696 1212.95,-149.671 1212.95,-133.69"/>
<polygon fill="#ebc72d" stroke="#ebc72d" points="1216.45,-133.376 1212.95,-123.376 1209.45,-133.376 1216.45,-133.376"/>
</g>
<!-- sanctuary -->
<g id="node14" class="node"><title>sanctuary</title>
<g id="a_node14"><a xlink:href="elves_sanctuary_full.html" xlink:title="Sanctuary">
<polygon fill="none" stroke="red" points="1505.03,-437.202 1447.95,-449.64 1390.87,-437.202 1390.92,-417.077 1504.97,-417.077 1505.03,-437.202"/>
<text text-anchor="middle" x="1447.95" y="-427.94" font-family="Times,serif" font-size="14.00" fill="#ebc72d">Sanctuary</text>
</a>
</g>
</g>
<!-- wise_elf -->
<g id="node16" class="node"><title>wise_elf</title>
<g id="a_node16"><a xlink:href="elves_wise_elf_full.html" xlink:title="Wise\nElf">
<ellipse fill="none" stroke="magenta" cx="800.946" cy="-702.149" rx="31.6406" ry="26.7407"/>
<text text-anchor="middle" x="800.946" y="-705.949" font-family="Times,serif" font-size="14.00" fill="#ebc72d">Wise</text>
<text text-anchor="middle" x="800.946" y="-690.949" font-family="Times,serif" font-size="14.00" fill="#ebc72d">Elf</text>
</a>
</g>
</g>
<!-- tree_of_life -->
<g id="node18" class="node"><title>tree_of_life</title>
<g id="a_node18"><a xlink:href="elves_tree_of_life_full.html" xlink:title="Tree\nOf Life">
<polygon fill="none" stroke="red" points="889.587,-616.396 839.946,-639.494 790.306,-616.396 790.352,-579.022 889.54,-579.022 889.587,-616.396"/>
<text text-anchor="middle" x="839.946" y="-609.866" font-family="Times,serif" font-size="14.00" fill="#ebc72d">Tree</text>
<text text-anchor="middle" x="839.946" y="-594.866" font-family="Times,serif" font-size="14.00" fill="#ebc72d">Of Life</text>
</a>
</g>
</g>
<!-- wise_elf&#45;&gt;tree_of_life -->
<g id="edge40" class="edge"><title>wise_elf&#45;&gt;tree_of_life</title>
<path fill="none" stroke="#ebc72d" stroke-width="2" d="M811.193,-676.43C815.348,-666.408 820.231,-654.627 824.783,-643.646"/>
<polygon fill="#ebc72d" stroke="#ebc72d" stroke-width="2" points="828.075,-644.845 828.671,-634.267 821.608,-642.165 828.075,-644.845"/>
</g>
<!-- wise_elf&#45;&gt;forest_guardian -->
<g id="edge39" class="edge"><title>wise_elf&#45;&gt;forest_guardian</title>
<path fill="none" stroke="#ebc72d" stroke-width="2" d="M769.004,-699.759C633.105,-692.995 109.946,-657.986 109.946,-519.853 109.946,-519.853 109.946,-519.853 109.946,-323.426 109.946,-261.463 100.576,-190.106 93.7972,-146.591"/>
<polygon fill="#ebc72d" stroke="#ebc72d" stroke-width="2" points="97.2487,-146.009 92.223,-136.682 90.3354,-147.107 97.2487,-146.009"/>
</g>
<!-- elf -->
<g id="node17" class="node"><title>elf</title>
<g id="a_node17"><a xlink:href="elves_elf_full.html" xlink:title="Elf">
<ellipse fill="none" stroke="magenta" cx="836.946" cy="-518.853" rx="27" ry="18"/>
<text text-anchor="middle" x="836.946" y="-515.153" font-family="Times,serif" font-size="14.00" fill="#ebc72d">Elf</text>
</a>
</g>
</g>
<!-- elf&#45;&gt;forge -->
<g id="edge15" class="edge"><title>elf&#45;&gt;forge</title>
<path fill="none" stroke="#ebc72d" stroke-width="2" d="M817.68,-505.816C764.692,-472.711 616.681,-380.24 555.713,-342.149"/>
<polygon fill="#ebc72d" stroke="#ebc72d" stroke-width="2" points="557.372,-339.059 547.037,-336.729 553.663,-344.995 557.372,-339.059"/>
</g>
<!-- elf&#45;&gt;corral -->
<g id="edge14" class="edge"><title>elf&#45;&gt;corral</title>
<path fill="none" stroke="#ebc72d" stroke-width="2" d="M835.732,-500.609C834.905,-488.866 833.794,-473.083 832.85,-459.682"/>
<polygon fill="#ebc72d" stroke="#ebc72d" stroke-width="2" points="836.332,-459.297 832.138,-449.567 829.349,-459.789 836.332,-459.297"/>
</g>
<!-- elf&#45;&gt;academy -->
<g id="edge13" class="edge"><title>elf&#45;&gt;academy</title>
<path fill="none" stroke="#ebc72d" stroke-width="2" d="M862.807,-513.271C938.835,-499.802 1162.72,-460.14 1265.4,-441.949"/>
<polygon fill="#ebc72d" stroke="#ebc72d" stroke-width="2" points="1266.3,-445.344 1275.54,-440.153 1265.08,-438.451 1266.3,-445.344"/>
</g>
<!-- elf&#45;&gt;wood_hall -->
<g id="edge20" class="edge"><title>elf&#45;&gt;wood_hall</title>
<path fill="none" stroke="#ebc72d" stroke-width="2" d="M810.65,-514.606C761.072,-508.09 650.697,-491.703 560.946,-464.853 549.103,-461.31 536.594,-456.603 525.144,-451.884"/>
<polygon fill="#ebc72d" stroke="#ebc72d" stroke-width="2" points="526.386,-448.61 515.813,-447.943 523.663,-455.058 526.386,-448.61"/>
</g>
<!-- elf&#45;&gt;sanctuary -->
<g id="edge17" class="edge"><title>elf&#45;&gt;sanctuary</title>
<path fill="none" stroke="#ebc72d" stroke-width="2" d="M863.797,-516.508C959.367,-511.526 1282.58,-492.944 1381.95,-464.853 1394.19,-461.392 1406.91,-455.736 1417.88,-450.121"/>
<polygon fill="#ebc72d" stroke="#ebc72d" stroke-width="2" points="1419.84,-453.045 1427.02,-445.254 1416.55,-446.868 1419.84,-453.045"/>
</g>
<!-- elf&#45;&gt;wise_elf -->
<g id="edge19" class="edge"><title>elf&#45;&gt;wise_elf</title>
<path fill="none" stroke="#ebc72d" stroke-dasharray="5,2" d="M817.715,-531.834C804.639,-541.199 788.408,-555.516 780.946,-572.853 767.907,-603.148 776.305,-640.72 785.895,-667.357"/>
<polygon fill="#ebc72d" stroke="#ebc72d" points="782.741,-668.906 789.587,-676.992 789.277,-666.401 782.741,-668.906"/>
</g>
<!-- lore_house -->
<g id="node20" class="node"><title>lore_house</title>
<g id="a_node20"><a xlink:href="elves_lore_house_full.html" xlink:title="Lore\nHouse">
<polygon fill="none" stroke="red" points="979.598,-441.969 934.946,-465.067 890.295,-441.969 890.337,-404.596 979.556,-404.596 979.598,-441.969"/>
<text text-anchor="middle" x="934.946" y="-435.44" font-family="Times,serif" font-size="14.00" fill="#ebc72d">Lore</text>
<text text-anchor="middle" x="934.946" y="-420.44" font-family="Times,serif" font-size="14.00" fill="#ebc72d">House</text>
</a>
</g>
</g>
<!-- elf&#45;&gt;lore_house -->
<g id="edge16" class="edge"><title>elf&#45;&gt;lore_house</title>
<path fill="none" stroke="#ebc72d" stroke-width="2" d="M860.31,-497.537C873.384,-486.169 889.847,-471.854 903.983,-459.563"/>
<polygon fill="#ebc72d" stroke="#ebc72d" stroke-width="2" points="857.941,-494.959 852.692,-504.162 862.535,-500.241 857.941,-494.959"/>
<polygon fill="#ebc72d" stroke="#ebc72d" stroke-width="2" points="906.311,-462.177 911.56,-452.974 901.718,-456.895 906.311,-462.177"/>
</g>
<!-- tree_of_life&#45;&gt;elf -->
<g id="edge38" class="edge"><title>tree_of_life&#45;&gt;elf</title>
<path fill="none" stroke="#ebc72d" d="M838.654,-568.349C838.401,-561.175 838.141,-553.774 837.901,-546.981"/>
<polygon fill="#ebc72d" stroke="#ebc72d" points="835.164,-568.701 839.014,-578.571 842.159,-568.454 835.164,-568.701"/>
<polygon fill="#ebc72d" stroke="#ebc72d" points="841.397,-546.796 837.547,-536.926 834.402,-547.043 841.397,-546.796"/>
</g>
<!-- forest_guardian&#45;&gt;dryad -->
<g id="edge23" class="edge"><title>forest_guardian&#45;&gt;dryad</title>
<path fill="none" stroke="#ebc72d" d="M73.2657,-77.7183C67.819,-67.1699 61.5744,-55.0763 56.1735,-44.6165"/>
<polygon fill="#ebc72d" stroke="#ebc72d" points="59.1956,-42.8406 51.4977,-35.561 52.9758,-46.0523 59.1956,-42.8406"/>
</g>
<!-- lore_house&#45;&gt;wise_elf -->
<g id="edge33" class="edge"><title>lore_house&#45;&gt;wise_elf</title>
<path fill="none" stroke="#ebc72d" d="M937.023,-464.229C938.291,-507.443 934.811,-585.724 898.946,-639.279 884.577,-660.736 859.984,-676.229 839.03,-686.345"/>
<polygon fill="#ebc72d" stroke="#ebc72d" points="837.341,-683.269 829.708,-690.617 840.257,-689.633 837.341,-683.269"/>
</g>
<!-- lore_house&#45;&gt;taming_song -->
<g id="edge32" class="edge"><title>lore_house&#45;&gt;taming_song</title>
<path fill="none" stroke="#ebc72d" d="M931.062,-404.589C927.866,-373.984 926.909,-322.78 948.946,-286.426 956.648,-273.721 984.659,-255.466 1010.74,-240.39"/>
<polygon fill="#ebc72d" stroke="#ebc72d" points="1012.52,-243.403 1019.48,-235.411 1009.06,-237.321 1012.52,-243.403"/>
</g>
<!-- mystical_forest -->
<g id="node27" class="node"><title>mystical_forest</title>
<g id="a_node27"><a xlink:href="elves_mystical_forest_full.html" xlink:title="Mystical\nForest">
<polygon fill="none" stroke="green" points="1092.22,-362.426 985.2,-362.426 957.668,-286.426 1064.69,-286.426 1092.22,-362.426"/>
<text text-anchor="middle" x="1024.95" y="-328.226" font-family="Times,serif" font-size="14.00" fill="#ebc72d">Mystical</text>
<text text-anchor="middle" x="1024.95" y="-313.226" font-family="Times,serif" font-size="14.00" fill="#ebc72d">Forest</text>
</a>
</g>
</g>
<!-- lore_house&#45;&gt;mystical_forest -->
<g id="edge31" class="edge"><title>lore_house&#45;&gt;mystical_forest</title>
<path fill="none" stroke="#ebc72d" d="M957.425,-404.361C966.224,-394.075 976.571,-381.979 986.485,-370.389"/>
<polygon fill="#ebc72d" stroke="#ebc72d" points="989.415,-372.349 993.255,-362.474 984.095,-367.798 989.415,-372.349"/>
</g>
<!-- elven_lore -->
<g id="node29" class="node"><title>elven_lore</title>
<g id="a_node29"><a xlink:href="elves_elven_lore_full.html" xlink:title="Elven\nLore">
<polygon fill="none" stroke="green" points="1209.48,-362.426 1130.69,-362.426 1110.42,-286.426 1189.21,-286.426 1209.48,-362.426"/>
<text text-anchor="middle" x="1159.95" y="-328.226" font-family="Times,serif" font-size="14.00" fill="#ebc72d">Elven</text>
<text text-anchor="middle" x="1159.95" y="-313.226" font-family="Times,serif" font-size="14.00" fill="#ebc72d">Lore</text>
</a>
</g>
</g>
<!-- lore_house&#45;&gt;elven_lore -->
<g id="edge30" class="edge"><title>lore_house&#45;&gt;elven_lore</title>
<path fill="none" stroke="#ebc72d" d="M979.554,-414.678C1013.51,-401.964 1061.05,-382.946 1100.95,-362.426 1106.52,-359.56 1112.26,-356.337 1117.86,-353.019"/>
<polygon fill="#ebc72d" stroke="#ebc72d" points="1119.78,-355.946 1126.52,-347.766 1116.15,-349.962 1119.78,-355.946"/>
</g>
<!-- gryphon&#45;&gt;gryphon_rider -->
<g id="edge28" class="edge"><title>gryphon&#45;&gt;gryphon_rider</title>
<path fill="none" stroke="#ebc72d" stroke-dasharray="5,2" d="M949.586,-194.522C957.936,-179.88 970.27,-158.252 980.642,-140.064"/>
<polygon fill="#ebc72d" stroke="#ebc72d" points="983.942,-141.343 985.855,-130.923 977.861,-137.876 983.942,-141.343"/>
</g>
<!-- taming_song&#45;&gt;gryphon_rider -->
<g id="edge37" class="edge"><title>taming_song&#45;&gt;gryphon_rider</title>
<path fill="none" stroke="#ebc72d" stroke-dasharray="1,5" d="M1039.44,-174.332C1032.9,-163.054 1025.76,-150.732 1019.36,-139.706"/>
<polygon fill="#ebc72d" stroke="#ebc72d" points="1022.24,-137.696 1014.2,-130.8 1016.19,-141.207 1022.24,-137.696"/>
</g>
<!-- noldor_armour_crafting&#45;&gt;silver_helm_lancer -->
<g id="edge36" class="edge"><title>noldor_armour_crafting&#45;&gt;silver_helm_lancer</title>
<path fill="none" stroke="#ebc72d" stroke-dasharray="1,5" d="M497.335,-186.891C554.065,-168.18 631.111,-142.769 683.471,-125.5"/>
<polygon fill="#ebc72d" stroke="#ebc72d" points="684.874,-128.722 693.275,-122.266 682.682,-122.075 684.874,-128.722"/>
</g>
<!-- elven_lore&#45;&gt;galadrim_archer -->
<g id="edge21" class="edge"><title>elven_lore&#45;&gt;galadrim_archer</title>
<path fill="none" stroke="#ebc72d" stroke-dasharray="1,5" d="M1177.89,-286.185C1183.92,-273.669 1190.61,-259.779 1196.52,-247.517"/>
<polygon fill="#ebc72d" stroke="#ebc72d" points="1199.67,-249.036 1200.86,-238.508 1193.37,-245.997 1199.67,-249.036"/>
</g>
</g>
</svg>
