<?xml version="1.0" encoding="UTF-8" standalone="no"?>
<!DOCTYPE svg PUBLIC "-//W3C//DTD SVG 1.1//EN"
 "http://www.w3.org/Graphics/SVG/1.1/DTD/svg11.dtd">
<!-- Generated by graphviz version 2.38.0 (20140413.2041)
 -->
<!-- Title: test Pages: 1 -->
<svg width="1067pt" height="615pt"
 viewBox="0.00 0.00 1067.14 615.45" xmlns="http://www.w3.org/2000/svg" xmlns:xlink="http://www.w3.org/1999/xlink">
<g id="graph0" class="graph" transform="scale(1 1) rotate(0) translate(4 611.446)">
<title>test</title>
<polygon fill="#151515" stroke="none" points="-4,4 -4,-611.446 1063.14,-611.446 1063.14,4 -4,4"/>
<!-- dryad -->
<g id="node1" class="node"><title>dryad</title>
<g id="a_node1"><a xlink:href="elves_dryad_full.html" xlink:title="Dryad">
<ellipse fill="none" stroke="magenta" cx="135.56" cy="-120.426" rx="32.4942" ry="18"/>
<text text-anchor="middle" x="135.56" y="-116.726" font-family="Times,serif" font-size="14.00" fill="#ebc72d">Dryad</text>
</a>
</g>
</g>
<!-- grey_elf_archer -->
<g id="node2" class="node"><title>grey_elf_archer</title>
<g id="a_node2"><a xlink:href="elves_grey_elf_archer_full.html" xlink:title="Grey\nElf Archer">
<ellipse fill="none" stroke="magenta" cx="691.56" cy="-207.64" rx="52.1524" ry="26.7407"/>
<text text-anchor="middle" x="691.56" y="-211.44" font-family="Times,serif" font-size="14.00" fill="#ebc72d">Grey</text>
<text text-anchor="middle" x="691.56" y="-196.44" font-family="Times,serif" font-size="14.00" fill="#ebc72d">Elf Archer</text>
</a>
</g>
</g>
<!-- forge -->
<g id="node3" class="node"><title>forge</title>
<g id="a_node3"><a xlink:href="elves_forge_full.html" xlink:title="Forge">
<polygon fill="none" stroke="red" points="986.184,-315.628 947.56,-328.066 908.936,-315.628 908.972,-295.504 986.148,-295.504 986.184,-315.628"/>
<text text-anchor="middle" x="947.56" y="-306.366" font-family="Times,serif" font-size="14.00" fill="#ebc72d">Forge</text>
</a>
</g>
</g>
<!-- corral -->
<g id="node4" class="node"><title>corral</title>
<g id="a_node4"><a xlink:href="elves_corral_full.html" xlink:title="Corral">
<polygon fill="none" stroke="red" points="405.504,-315.628 364.56,-328.066 323.616,-315.628 323.654,-295.504 405.466,-295.504 405.504,-315.628"/>
<text text-anchor="middle" x="364.56" y="-306.366" font-family="Times,serif" font-size="14.00" fill="#ebc72d">Corral</text>
</a>
</g>
</g>
<!-- reaver -->
<g id="node8" class="node"><title>reaver</title>
<g id="a_node8"><a xlink:href="elves_reaver_full.html" xlink:title="Reaver">
<ellipse fill="none" stroke="magenta" cx="366.56" cy="-207.64" rx="35.9954" ry="18"/>
<text text-anchor="middle" x="366.56" y="-203.94" font-family="Times,serif" font-size="14.00" fill="#ebc72d">Reaver</text>
</a>
</g>
</g>
<!-- corral&#45;&gt;reaver -->
<g id="edge6" class="edge"><title>corral&#45;&gt;reaver</title>
<path fill="none" stroke="#ebc72d" d="M364.838,-295.102C365.141,-279.894 365.633,-255.185 366.014,-236.068"/>
<polygon fill="#ebc72d" stroke="#ebc72d" points="369.518,-235.914 366.217,-225.846 362.519,-235.775 369.518,-235.914"/>
</g>
<!-- silver_helm_lancer -->
<g id="node15" class="node"><title>silver_helm_lancer</title>
<g id="a_node15"><a xlink:href="elves_silver_helm_lancer_full.html" xlink:title="Silver\nHelm Lancer">
<ellipse fill="none" stroke="magenta" cx="249.56" cy="-207.64" rx="62.8651" ry="26.7407"/>
<text text-anchor="middle" x="249.56" y="-211.44" font-family="Times,serif" font-size="14.00" fill="#ebc72d">Silver</text>
<text text-anchor="middle" x="249.56" y="-196.44" font-family="Times,serif" font-size="14.00" fill="#ebc72d">Helm Lancer</text>
</a>
</g>
</g>
<!-- corral&#45;&gt;silver_helm_lancer -->
<g id="edge7" class="edge"><title>corral&#45;&gt;silver_helm_lancer</title>
<path fill="none" stroke="#ebc72d" d="M348.57,-295.102C331.97,-280.606 305.487,-257.479 284.086,-238.79"/>
<polygon fill="#ebc72d" stroke="#ebc72d" points="286.293,-236.071 276.459,-232.13 281.689,-241.344 286.293,-236.071"/>
</g>
<!-- minstrel -->
<g id="node5" class="node"><title>minstrel</title>
<g id="a_node5"><a xlink:href="elves_minstrel_full.html" xlink:title="Minstrel">
<ellipse fill="none" stroke="magenta" cx="127.56" cy="-207.64" rx="40.8928" ry="18"/>
<text text-anchor="middle" x="127.56" y="-203.94" font-family="Times,serif" font-size="14.00" fill="#ebc72d">Minstrel</text>
</a>
</g>
</g>
<!-- minstrel&#45;&gt;dryad -->
<g id="edge26" class="edge"><title>minstrel&#45;&gt;dryad</title>
<path fill="none" stroke="#ebc72d" d="M129.179,-189.395C130.274,-177.73 131.744,-162.076 132.997,-148.732"/>
<polygon fill="#ebc72d" stroke="#ebc72d" points="136.494,-148.928 133.944,-138.645 129.524,-148.274 136.494,-148.928"/>
</g>
<!-- ent -->
<g id="node7" class="node"><title>ent</title>
<g id="a_node7"><a xlink:href="elves_ent_full.html" xlink:title="Ent">
<ellipse fill="none" stroke="magenta" cx="58.5601" cy="-120.426" rx="27" ry="18"/>
<text text-anchor="middle" x="58.5601" y="-116.726" font-family="Times,serif" font-size="14.00" fill="#ebc72d">Ent</text>
</a>
</g>
</g>
<!-- minstrel&#45;&gt;ent -->
<g id="edge27" class="edge"><title>minstrel&#45;&gt;ent</title>
<path fill="none" stroke="#ebc72d" d="M114.256,-190.21C103.781,-177.273 89.0481,-159.078 77.3663,-144.652"/>
<polygon fill="#ebc72d" stroke="#ebc72d" points="79.9091,-142.23 70.896,-136.661 74.4689,-146.635 79.9091,-142.23"/>
</g>
<!-- prince -->
<g id="node6" class="node"><title>prince</title>
<g id="a_node6"><a xlink:href="elves_prince_full.html" xlink:title="Prince">
<ellipse fill="none" stroke="magenta" cx="958.56" cy="-120.426" rx="33.2948" ry="18"/>
<text text-anchor="middle" x="958.56" y="-116.726" font-family="Times,serif" font-size="14.00" fill="#ebc72d">Prince</text>
</a>
</g>
</g>
<!-- forest_guardian -->
<g id="node19" class="node"><title>forest_guardian</title>
<g id="a_node19"><a xlink:href="elves_forest_guardian_full.html" xlink:title="Forest\nGuardian">
<polygon fill="none" stroke="red" points="117.181,-43.543 58.5601,-66.641 -0.0602091,-43.543 -0.00549398,-6.16955 117.126,-6.16955 117.181,-43.543"/>
<text text-anchor="middle" x="58.5601" y="-37.0132" font-family="Times,serif" font-size="14.00" fill="#ebc72d">Forest</text>
<text text-anchor="middle" x="58.5601" y="-22.0132" font-family="Times,serif" font-size="14.00" fill="#ebc72d">Guardian</text>
</a>
</g>
</g>
<!-- ent&#45;&gt;forest_guardian -->
<g id="edge20" class="edge"><title>ent&#45;&gt;forest_guardian</title>
<path fill="none" stroke="#ebc72d" stroke-width="2" d="M58.5601,-102.182C58.5601,-94.7621 58.5601,-85.7283 58.5601,-76.7016"/>
<polygon fill="#ebc72d" stroke="#ebc72d" stroke-width="2" points="62.0602,-76.5995 58.5601,-66.5996 55.0602,-76.5996 62.0602,-76.5995"/>
</g>
<!-- academy -->
<g id="node9" class="node"><title>academy</title>
<g id="a_node9"><a xlink:href="elves_academy_full.html" xlink:title="Academy">
<polygon fill="none" stroke="red" points="720.926,-315.628 665.56,-328.066 610.195,-315.628 610.246,-295.504 720.874,-295.504 720.926,-315.628"/>
<text text-anchor="middle" x="665.56" y="-306.366" font-family="Times,serif" font-size="14.00" fill="#ebc72d">Academy</text>
</a>
</g>
</g>
<!-- academy&#45;&gt;grey_elf_archer -->
<g id="edge3" class="edge"><title>academy&#45;&gt;grey_elf_archer</title>
<path fill="none" stroke="#ebc72d" d="M669.175,-295.102C672.558,-282.037 677.756,-261.96 682.291,-244.441"/>
<polygon fill="#ebc72d" stroke="#ebc72d" points="685.749,-245.052 684.867,-234.494 678.972,-243.297 685.749,-245.052"/>
</g>
<!-- corral_gryphon_nest -->
<g id="node10" class="node"><title>corral_gryphon_nest</title>
<g id="a_node10"><a xlink:href="elves_corral_gryphon_nest_full.html" xlink:title="Corral\nGryphon Nest">
<polygon fill="none" stroke="red" points="620.631,-217.969 539.56,-241.067 458.49,-217.969 458.565,-180.596 620.555,-180.596 620.631,-217.969"/>
<text text-anchor="middle" x="539.56" y="-211.44" font-family="Times,serif" font-size="14.00" fill="#ebc72d">Corral</text>
<text text-anchor="middle" x="539.56" y="-196.44" font-family="Times,serif" font-size="14.00" fill="#ebc72d">Gryphon Nest</text>
</a>
</g>
</g>
<!-- academy&#45;&gt;corral_gryphon_nest -->
<g id="edge1" class="edge"><title>academy&#45;&gt;corral_gryphon_nest</title>
<path fill="none" stroke="#ebc72d" stroke-dasharray="1,5" d="M648.305,-295.313C630.217,-280.897 601.216,-257.782 577.711,-239.047"/>
<polygon fill="#ebc72d" stroke="#ebc72d" points="579.654,-236.12 569.653,-232.624 575.291,-241.594 579.654,-236.12"/>
</g>
<!-- galadrim_archer -->
<g id="node13" class="node"><title>galadrim_archer</title>
<g id="a_node13"><a xlink:href="elves_galadrim_archer_full.html" xlink:title="Galadrim\nArcher">
<ellipse fill="none" stroke="magenta" cx="903.56" cy="-207.64" rx="48.1667" ry="26.7407"/>
<text text-anchor="middle" x="903.56" y="-211.44" font-family="Times,serif" font-size="14.00" fill="#ebc72d">Galadrim</text>
<text text-anchor="middle" x="903.56" y="-196.44" font-family="Times,serif" font-size="14.00" fill="#ebc72d">Archer</text>
</a>
</g>
</g>
<!-- academy&#45;&gt;galadrim_archer -->
<g id="edge2" class="edge"><title>academy&#45;&gt;galadrim_archer</title>
<path fill="none" stroke="#ebc72d" d="M692.754,-295.425C705.321,-289.368 720.537,-282.376 734.56,-276.853 782.815,-257.847 798.002,-261.54 845.56,-240.853 851.109,-238.439 856.822,-235.66 862.4,-232.766"/>
<polygon fill="#ebc72d" stroke="#ebc72d" points="864.443,-235.642 871.604,-227.834 861.137,-229.472 864.443,-235.642"/>
</g>
<!-- lore_house -->
<g id="node20" class="node"><title>lore_house</title>
<g id="a_node20"><a xlink:href="elves_lore_house_full.html" xlink:title="Lore\nHouse">
<polygon fill="none" stroke="red" points="1059.21,-217.969 1014.56,-241.067 969.909,-217.969 969.95,-180.596 1059.17,-180.596 1059.21,-217.969"/>
<text text-anchor="middle" x="1014.56" y="-211.44" font-family="Times,serif" font-size="14.00" fill="#ebc72d">Lore</text>
<text text-anchor="middle" x="1014.56" y="-196.44" font-family="Times,serif" font-size="14.00" fill="#ebc72d">House</text>
</a>
</g>
</g>
<!-- academy&#45;&gt;lore_house -->
<g id="edge4" class="edge"><title>academy&#45;&gt;lore_house</title>
<path fill="none" stroke="#ebc72d" stroke-dasharray="1,5" d="M690.448,-295.387C703.283,-288.87 719.392,-281.501 734.56,-276.853 831.807,-247.05 864.943,-275.53 960.56,-240.853 966.689,-238.63 972.896,-235.692 978.813,-232.492"/>
<polygon fill="#ebc72d" stroke="#ebc72d" points="980.893,-235.333 987.818,-227.315 977.404,-229.265 980.893,-235.333"/>
</g>
<!-- magol_hedir -->
<g id="node21" class="node"><title>magol_hedir</title>
<g id="a_node21"><a xlink:href="elves_magol_hedir_full.html" xlink:title="Magol\nHedir">
<ellipse fill="none" stroke="magenta" cx="799.56" cy="-207.64" rx="37.4533" ry="26.7407"/>
<text text-anchor="middle" x="799.56" y="-211.44" font-family="Times,serif" font-size="14.00" fill="#ebc72d">Magol</text>
<text text-anchor="middle" x="799.56" y="-196.44" font-family="Times,serif" font-size="14.00" fill="#ebc72d">Hedir</text>
</a>
</g>
</g>
<!-- academy&#45;&gt;magol_hedir -->
<g id="edge5" class="edge"><title>academy&#45;&gt;magol_hedir</title>
<path fill="none" stroke="#ebc72d" d="M683.911,-295.313C704.996,-279.511 740.028,-253.256 766.021,-233.776"/>
<polygon fill="#ebc72d" stroke="#ebc72d" points="768.21,-236.509 774.113,-227.711 764.012,-230.907 768.21,-236.509"/>
</g>
<!-- gryphon -->
<g id="node22" class="node"><title>gryphon</title>
<g id="a_node22"><a xlink:href="elves_gryphon_full.html" xlink:title="Gryphon">
<ellipse fill="none" stroke="magenta" cx="644.56" cy="-120.426" rx="42.4939" ry="18"/>
<text text-anchor="middle" x="644.56" y="-116.726" font-family="Times,serif" font-size="14.00" fill="#ebc72d">Gryphon</text>
</a>
</g>
</g>
<!-- corral_gryphon_nest&#45;&gt;gryphon -->
<g id="edge8" class="edge"><title>corral_gryphon_nest&#45;&gt;gryphon</title>
<path fill="none" stroke="#ebc72d" d="M571.92,-180.378C586.629,-168.441 603.823,-154.487 617.789,-143.152"/>
<polygon fill="#ebc72d" stroke="#ebc72d" points="620.038,-145.835 625.597,-136.816 615.626,-140.4 620.038,-145.835"/>
</g>
<!-- taming_song -->
<g id="node23" class="node"><title>taming_song</title>
<ellipse fill="none" stroke="black" cx="527.56" cy="-120.426" rx="56.59" ry="18"/>
<text text-anchor="middle" x="527.56" y="-116.726" font-family="Times,serif" font-size="14.00">taming_song</text>
</g>
<!-- corral_gryphon_nest&#45;&gt;taming_song -->
<g id="edge9" class="edge"><title>corral_gryphon_nest&#45;&gt;taming_song</title>
<path fill="none" stroke="#ebc72d" stroke-dasharray="1,5" d="M535.829,-180.145C534.409,-170.064 532.791,-158.573 531.365,-148.444"/>
<polygon fill="#ebc72d" stroke="#ebc72d" points="534.825,-147.914 529.964,-138.499 527.893,-148.89 534.825,-147.914"/>
</g>
<!-- wood_hall -->
<g id="node11" class="node"><title>wood_hall</title>
<g id="a_node11"><a xlink:href="elves_wood_hall_full.html" xlink:title="Wood\nHall">
<polygon fill="none" stroke="red" points="239.464,-320.396 195.56,-343.494 151.656,-320.396 151.697,-283.022 239.423,-283.022 239.464,-320.396"/>
<text text-anchor="middle" x="195.56" y="-313.866" font-family="Times,serif" font-size="14.00" fill="#ebc72d">Wood</text>
<text text-anchor="middle" x="195.56" y="-298.866" font-family="Times,serif" font-size="14.00" fill="#ebc72d">Hall</text>
</a>
</g>
</g>
<!-- wood_hall&#45;&gt;minstrel -->
<g id="edge33" class="edge"><title>wood_hall&#45;&gt;minstrel</title>
<path fill="none" stroke="#ebc72d" d="M177.871,-282.942C167.542,-267.688 154.581,-248.545 144.401,-233.511"/>
<polygon fill="#ebc72d" stroke="#ebc72d" points="147.274,-231.512 138.769,-225.194 141.478,-235.437 147.274,-231.512"/>
</g>
<!-- gryphon_rider -->
<g id="node12" class="node"><title>gryphon_rider</title>
<g id="a_node12"><a xlink:href="elves_gryphon_rider_full.html" xlink:title="Gryphon\nRider">
<ellipse fill="none" stroke="magenta" cx="644.56" cy="-33.2132" rx="45.9239" ry="26.7407"/>
<text text-anchor="middle" x="644.56" y="-37.0132" font-family="Times,serif" font-size="14.00" fill="#ebc72d">Gryphon</text>
<text text-anchor="middle" x="644.56" y="-22.0132" font-family="Times,serif" font-size="14.00" fill="#ebc72d">Rider</text>
</a>
</g>
</g>
<!-- galadrim_archer&#45;&gt;prince -->
<g id="edge21" class="edge"><title>galadrim_archer&#45;&gt;prince</title>
<path fill="none" stroke="#ebc72d" stroke-dasharray="5,2" d="M919.468,-181.992C926.728,-170.745 935.307,-157.453 942.576,-146.191"/>
<polygon fill="#ebc72d" stroke="#ebc72d" points="945.592,-147.972 948.074,-137.672 939.711,-144.176 945.592,-147.972"/>
</g>
<!-- sanctuary -->
<g id="node14" class="node"><title>sanctuary</title>
<g id="a_node14"><a xlink:href="elves_sanctuary_full.html" xlink:title="Sanctuary">
<polygon fill="none" stroke="red" points="890.639,-315.628 833.56,-328.066 776.481,-315.628 776.534,-295.504 890.586,-295.504 890.639,-315.628"/>
<text text-anchor="middle" x="833.56" y="-306.366" font-family="Times,serif" font-size="14.00" fill="#ebc72d">Sanctuary</text>
</a>
</g>
</g>
<!-- elf -->
<g id="node17" class="node"><title>elf</title>
<g id="a_node17"><a xlink:href="elves_elf_full.html" xlink:title="Elf">
<ellipse fill="none" stroke="magenta" cx="706.56" cy="-397.279" rx="27" ry="18"/>
<text text-anchor="middle" x="706.56" y="-393.579" font-family="Times,serif" font-size="14.00" fill="#ebc72d">Elf</text>
</a>
</g>
</g>
<!-- wise_elf -->
<g id="node16" class="node"><title>wise_elf</title>
<g id="a_node16"><a xlink:href="elves_wise_elf_full.html" xlink:title="Wise\nElf">
<ellipse fill="none" stroke="magenta" cx="745.56" cy="-580.576" rx="31.6406" ry="26.7407"/>
<text text-anchor="middle" x="745.56" y="-584.376" font-family="Times,serif" font-size="14.00" fill="#ebc72d">Wise</text>
<text text-anchor="middle" x="745.56" y="-569.376" font-family="Times,serif" font-size="14.00" fill="#ebc72d">Elf</text>
</a>
</g>
</g>
<!-- wise_elf&#45;&gt;ent -->
<g id="edge30" class="edge"><title>wise_elf&#45;&gt;ent</title>
<path fill="none" stroke="#ebc72d" stroke-dasharray="1,5" d="M58.5601,-206.64C55.6062,-187.449 55.6812,-165.537 56.4557,-148.739"/>
<polygon fill="#ebc72d" stroke="#ebc72d" points="59.9635,-148.703 57.041,-138.519 52.9749,-148.302 59.9635,-148.703"/>
</g>
<!-- tree_of_life -->
<g id="node18" class="node"><title>tree_of_life</title>
<g id="a_node18"><a xlink:href="elves_tree_of_life_full.html" xlink:title="Tree\nOf Life">
<polygon fill="none" stroke="red" points="834.2,-494.822 784.56,-517.92 734.92,-494.822 734.966,-457.449 834.154,-457.449 834.2,-494.822"/>
<text text-anchor="middle" x="784.56" y="-488.293" font-family="Times,serif" font-size="14.00" fill="#ebc72d">Tree</text>
<text text-anchor="middle" x="784.56" y="-473.293" font-family="Times,serif" font-size="14.00" fill="#ebc72d">Of Life</text>
</a>
</g>
</g>
<!-- wise_elf&#45;&gt;tree_of_life -->
<g id="edge32" class="edge"><title>wise_elf&#45;&gt;tree_of_life</title>
<path fill="none" stroke="#ebc72d" stroke-width="2" d="M755.807,-554.857C759.961,-544.835 764.845,-533.053 769.397,-522.072"/>
<polygon fill="#ebc72d" stroke="#ebc72d" stroke-width="2" points="772.689,-523.272 773.285,-512.693 766.222,-520.591 772.689,-523.272"/>
</g>
<!-- wise_elf&#45;&gt;forest_guardian -->
<g id="edge31" class="edge"><title>wise_elf&#45;&gt;forest_guardian</title>
<path fill="none" stroke="#ebc72d" stroke-width="2" d="M713.543,-577.311C584.095,-566.177 104.184,-505.044 58.5601,-208.64"/>
<path fill="none" stroke="#ebc72d" stroke-width="2" d="M58.5601,-206.64C42.4666,-160.355 10.7787,-149.992 22.5601,-102.426 25.4237,-90.8655 30.6432,-79.1036 36.2358,-68.676"/>
<polygon fill="#ebc72d" stroke="#ebc72d" stroke-width="2" points="39.3254,-70.3227 41.1968,-59.8944 33.2307,-66.8796 39.3254,-70.3227"/>
</g>
<!-- elf&#45;&gt;forge -->
<g id="edge14" class="edge"><title>elf&#45;&gt;forge</title>
<path fill="none" stroke="#ebc72d" stroke-width="2" d="M732.456,-391.926C770.381,-384.947 842.697,-369.326 899.56,-343.279 907.955,-339.434 916.515,-334.192 924.037,-329.054"/>
<polygon fill="#ebc72d" stroke="#ebc72d" stroke-width="2" points="926.201,-331.81 932.319,-323.16 922.143,-326.107 926.201,-331.81"/>
</g>
<!-- elf&#45;&gt;corral -->
<g id="edge11" class="edge"><title>elf&#45;&gt;corral</title>
<path fill="none" stroke="#ebc72d" stroke-width="2" d="M679.623,-394.426C627.793,-390.188 511.212,-377.383 419.56,-343.279 409.448,-339.517 399.061,-333.948 390.075,-328.494"/>
<polygon fill="#ebc72d" stroke="#ebc72d" stroke-width="2" points="391.941,-325.533 381.617,-323.149 388.201,-331.45 391.941,-325.533"/>
</g>
<!-- elf&#45;&gt;academy -->
<g id="edge10" class="edge"><title>elf&#45;&gt;academy</title>
<path fill="none" stroke="#ebc72d" stroke-width="2" d="M698.655,-379.849C692.643,-367.353 684.27,-349.953 677.451,-335.78"/>
<polygon fill="#ebc72d" stroke="#ebc72d" stroke-width="2" points="680.516,-334.078 673.027,-326.584 674.208,-337.113 680.516,-334.078"/>
</g>
<!-- elf&#45;&gt;corral_gryphon_nest -->
<g id="edge12" class="edge"><title>elf&#45;&gt;corral_gryphon_nest</title>
<path fill="none" stroke="#ebc72d" stroke-width="2" d="M433.56,-309.066C420.049,-276.916 451.668,-250.319 483.815,-232.591"/>
<polygon fill="#ebc72d" stroke="#ebc72d" stroke-width="2" points="485.642,-235.585 492.86,-227.829 482.381,-229.391 485.642,-235.585"/>
</g>
<!-- elf&#45;&gt;wood_hall -->
<g id="edge19" class="edge"><title>elf&#45;&gt;wood_hall</title>
<path fill="none" stroke="#ebc72d" stroke-width="2" d="M679.743,-393.867C615.991,-387.869 450.535,-370.755 314.56,-343.279 291.287,-338.577 265.839,-331.901 244.471,-325.845"/>
<polygon fill="#ebc72d" stroke="#ebc72d" stroke-width="2" points="245.228,-322.421 234.65,-323.025 243.296,-329.149 245.228,-322.421"/>
</g>
<!-- elf&#45;&gt;sanctuary -->
<g id="edge16" class="edge"><title>elf&#45;&gt;sanctuary</title>
<path fill="none" stroke="#ebc72d" stroke-width="2" d="M733.417,-378.259C754.706,-363.975 784.348,-344.086 805.855,-329.655"/>
<polygon fill="#ebc72d" stroke="#ebc72d" stroke-width="2" points="731.381,-375.41 725.027,-383.889 735.281,-381.223 731.381,-375.41"/>
<polygon fill="#ebc72d" stroke="#ebc72d" stroke-width="2" points="807.884,-332.509 814.238,-324.031 803.984,-326.696 807.884,-332.509"/>
</g>
<!-- elf&#45;&gt;wise_elf -->
<g id="edge18" class="edge"><title>elf&#45;&gt;wise_elf</title>
<path fill="none" stroke="#ebc72d" stroke-dasharray="5,2" d="M708.444,-415.451C711.198,-438.8 716.949,-481.773 725.56,-517.706 727.701,-526.639 730.502,-536.144 733.326,-544.956"/>
<polygon fill="#ebc72d" stroke="#ebc72d" points="730.033,-546.143 736.492,-554.541 736.679,-543.948 730.033,-546.143"/>
</g>
<!-- elf&#45;&gt;forest_guardian -->
<g id="edge13" class="edge"><title>elf&#45;&gt;forest_guardian</title>
<path fill="none" stroke="#ebc72d" stroke-width="2" d="M680.248,-393.003C615.683,-384.274 453.23,-357.869 433.56,-311.066"/>
<path fill="none" stroke="#ebc72d" stroke-width="2" d="M433.56,-309.066C410.069,-253.168 449.56,-221.675 411.56,-174.426 341.312,-87.0819 208.722,-53.9116 127.549,-41.4819"/>
<polygon fill="#ebc72d" stroke="#ebc72d" stroke-width="2" points="127.827,-37.9853 117.425,-39.9983 126.812,-44.9114 127.827,-37.9853"/>
</g>
<!-- elf&#45;&gt;lore_house -->
<g id="edge15" class="edge"><title>elf&#45;&gt;lore_house</title>
<path fill="none" stroke="#ebc72d" stroke-width="2" d="M713.969,-379.846C728.147,-348.71 758.513,-283.61 767.56,-276.853 837.471,-224.639 878.931,-271.684 960.56,-240.853 966.592,-238.575 972.715,-235.633 978.565,-232.455"/>
<polygon fill="#ebc72d" stroke="#ebc72d" stroke-width="2" points="980.558,-235.347 987.484,-227.329 977.07,-229.278 980.558,-235.347"/>
</g>
<!-- tree_of_life&#45;&gt;elf -->
<g id="edge29" class="edge"><title>tree_of_life&#45;&gt;elf</title>
<path fill="none" stroke="#ebc72d" d="M753.285,-449.325C744.453,-439.676 735.071,-429.426 727.049,-420.663"/>
<polygon fill="#ebc72d" stroke="#ebc72d" points="750.974,-451.984 760.308,-456.998 756.138,-447.258 750.974,-451.984"/>
<polygon fill="#ebc72d" stroke="#ebc72d" points="729.453,-418.105 720.119,-413.092 724.289,-422.831 729.453,-418.105"/>
</g>
<!-- lore_house&#45;&gt;prince -->
<g id="edge23" class="edge"><title>lore_house&#45;&gt;prince</title>
<path fill="none" stroke="#ebc72d" stroke-dasharray="1,5" d="M997.148,-180.145C990.025,-169.305 981.828,-156.833 974.827,-146.179"/>
<polygon fill="#ebc72d" stroke="#ebc72d" points="977.694,-144.168 969.277,-137.734 971.844,-148.013 977.694,-144.168"/>
</g>
<!-- lore_house&#45;&gt;wise_elf -->
<g id="edge25" class="edge"><title>lore_house&#45;&gt;wise_elf</title>
<path fill="none" stroke="#ebc72d" d="M1014.56,-398.279C957.147,-491.566 831.697,-547.753 774.735,-569.365"/>
</g>
<!-- lore_house&#45;&gt;tree_of_life -->
<g id="edge24" class="edge"><title>lore_house&#45;&gt;tree_of_life</title>
<path fill="none" stroke="#ebc72d" stroke-dasharray="1,5" d="M1022.1,-237.444C1030.06,-273.638 1038.89,-337.074 1018.68,-387.103"/>
<polygon fill="#ebc72d" stroke="#ebc72d" points="1015.46,-385.723 1014.56,-396.279 1021.85,-388.589 1015.46,-385.723"/>
<path fill="none" stroke="#ebc72d" stroke-dasharray="1,5" d="M1014.56,-398.279C982.406,-463.019 891.767,-479.369 834.341,-483.038"/>
</g>
<!-- gryphon&#45;&gt;gryphon_rider -->
<g id="edge22" class="edge"><title>gryphon&#45;&gt;gryphon_rider</title>
<path fill="none" stroke="#ebc72d" stroke-dasharray="5,2" d="M644.56,-102.182C644.56,-93.0425 644.56,-81.4546 644.56,-70.4472"/>
<polygon fill="#ebc72d" stroke="#ebc72d" points="648.06,-70.1705 644.56,-60.1705 641.06,-70.1706 648.06,-70.1705"/>
</g>
</g>
</svg>
