<?xml version="1.0" encoding="UTF-8" standalone="no"?>
<!DOCTYPE svg PUBLIC "-//W3C//DTD SVG 1.1//EN"
 "http://www.w3.org/Graphics/SVG/1.1/DTD/svg11.dtd">
<!-- Generated by graphviz version 2.38.0 (20140413.2041)
 -->
<!-- Title: test Pages: 1 -->
<svg width="1300pt" height="737pt"
 viewBox="0.00 0.00 1300.13 737.02" xmlns="http://www.w3.org/2000/svg" xmlns:xlink="http://www.w3.org/1999/xlink">
<g id="graph0" class="graph" transform="scale(1 1) rotate(0) translate(4 733.019)">
<title>test</title>
<polygon fill="#151515" stroke="none" points="-4,4 -4,-733.019 1296.13,-733.019 1296.13,4 -4,4"/>
<!-- dryad -->
<g id="node1" class="node"><title>dryad</title>
<g id="a_node1"><a xlink:href="elves_dryad_full.html" xlink:title="Dryad">
<ellipse fill="none" stroke="magenta" cx="569.389" cy="-140.426" rx="32.4942" ry="18"/>
<text text-anchor="middle" x="569.389" y="-136.726" font-family="Times,serif" font-size="14.00" fill="#ebc72d">Dryad</text>
</a>
</g>
</g>
<!-- grey_elf_archer -->
<g id="node2" class="node"><title>grey_elf_archer</title>
<g id="a_node2"><a xlink:href="elves_grey_elf_archer_full.html" xlink:title="Grey\nElf Archer">
<ellipse fill="none" stroke="magenta" cx="335.389" cy="-354.853" rx="52.1524" ry="26.7407"/>
<text text-anchor="middle" x="335.389" y="-358.653" font-family="Times,serif" font-size="14.00" fill="#ebc72d">Grey</text>
<text text-anchor="middle" x="335.389" y="-343.653" font-family="Times,serif" font-size="14.00" fill="#ebc72d">Elf Archer</text>
</a>
</g>
</g>
<!-- forge -->
<g id="node3" class="node"><title>forge</title>
<g id="a_node3"><a xlink:href="elves_forge_full.html" xlink:title="Forge">
<polygon fill="none" stroke="red" points="935.013,-253.202 896.389,-265.64 857.765,-253.202 857.801,-233.077 934.977,-233.077 935.013,-253.202"/>
<text text-anchor="middle" x="896.389" y="-243.94" font-family="Times,serif" font-size="14.00" fill="#ebc72d">Forge</text>
</a>
</g>
</g>
<!-- noldor_weaponry -->
<g id="node25" class="node"><title>noldor_weaponry</title>
<g id="a_node25"><a xlink:href="elves_noldor_weaponry_full.html" xlink:title="Noldor\nWeaponry">
<polygon fill="none" stroke="green" points="1089.33,-178.426 966.935,-178.426 935.449,-102.426 1057.84,-102.426 1089.33,-178.426"/>
<text text-anchor="middle" x="1012.39" y="-144.226" font-family="Times,serif" font-size="14.00" fill="#ebc72d">Noldor</text>
<text text-anchor="middle" x="1012.39" y="-129.226" font-family="Times,serif" font-size="14.00" fill="#ebc72d">Weaponry</text>
</a>
</g>
</g>
<!-- forge&#45;&gt;noldor_weaponry -->
<g id="edge28" class="edge"><title>forge&#45;&gt;noldor_weaponry</title>
<path fill="none" stroke="#ebc72d" d="M911.554,-232.885C924.945,-220.739 945.22,-202.35 964.085,-185.238"/>
<polygon fill="#ebc72d" stroke="#ebc72d" points="966.449,-187.82 971.504,-178.509 961.746,-182.635 966.449,-187.82"/>
</g>
<!-- noldor_armour_crafting -->
<g id="node27" class="node"><title>noldor_armour_crafting</title>
<g id="a_node27"><a xlink:href="elves_noldor_armour_crafting_full.html" xlink:title="Noldor\nArmour Crafting">
<polygon fill="none" stroke="green" points="917.401,-178.426 737.624,-178.426 691.377,-102.426 871.154,-102.426 917.401,-178.426"/>
<text text-anchor="middle" x="804.389" y="-144.226" font-family="Times,serif" font-size="14.00" fill="#ebc72d">Noldor</text>
<text text-anchor="middle" x="804.389" y="-129.226" font-family="Times,serif" font-size="14.00" fill="#ebc72d">Armour Crafting</text>
</a>
</g>
</g>
<!-- forge&#45;&gt;noldor_armour_crafting -->
<g id="edge27" class="edge"><title>forge&#45;&gt;noldor_armour_crafting</title>
<path fill="none" stroke="#ebc72d" d="M884.362,-232.885C873.971,-221.002 858.356,-203.144 843.673,-186.353"/>
<polygon fill="#ebc72d" stroke="#ebc72d" points="846.232,-183.962 837.015,-178.738 840.963,-188.57 846.232,-183.962"/>
</g>
<!-- silverthorn_arrows -->
<g id="node29" class="node"><title>silverthorn_arrows</title>
<g id="a_node29"><a xlink:href="elves_silverthorn_arrows_full.html" xlink:title="Silverthorn\nArrows">
<polygon fill="none" stroke="green" points="1267.05,-178.426 1140.33,-178.426 1107.73,-102.426 1234.45,-102.426 1267.05,-178.426"/>
<text text-anchor="middle" x="1187.39" y="-144.226" font-family="Times,serif" font-size="14.00" fill="#ebc72d">Silverthorn</text>
<text text-anchor="middle" x="1187.39" y="-129.226" font-family="Times,serif" font-size="14.00" fill="#ebc72d">Arrows</text>
</a>
</g>
</g>
<!-- forge&#45;&gt;silverthorn_arrows -->
<g id="edge29" class="edge"><title>forge&#45;&gt;silverthorn_arrows</title>
<path fill="none" stroke="#ebc72d" d="M915.75,-232.877C925.467,-226.499 937.645,-219.276 949.389,-214.426 1012.36,-188.424 1033.62,-199.568 1098.39,-178.426 1107.03,-175.605 1116.02,-172.313 1124.81,-168.879"/>
<polygon fill="#ebc72d" stroke="#ebc72d" points="1126.26,-172.07 1134.25,-165.112 1123.66,-165.569 1126.26,-172.07"/>
</g>
<!-- corral -->
<g id="node4" class="node"><title>corral</title>
<g id="a_node4"><a xlink:href="elves_corral_full.html" xlink:title="Corral">
<polygon fill="none" stroke="red" points="736.333,-360.415 695.389,-372.853 654.445,-360.415 654.483,-340.291 736.295,-340.291 736.333,-360.415"/>
<text text-anchor="middle" x="695.389" y="-351.153" font-family="Times,serif" font-size="14.00" fill="#ebc72d">Corral</text>
</a>
</g>
</g>
<!-- reaver -->
<g id="node8" class="node"><title>reaver</title>
<g id="a_node8"><a xlink:href="elves_reaver_full.html" xlink:title="Reaver">
<ellipse fill="none" stroke="magenta" cx="573.389" cy="-247.64" rx="35.9954" ry="18"/>
<text text-anchor="middle" x="573.389" y="-243.94" font-family="Times,serif" font-size="14.00" fill="#ebc72d">Reaver</text>
</a>
</g>
</g>
<!-- corral&#45;&gt;reaver -->
<g id="edge9" class="edge"><title>corral&#45;&gt;reaver</title>
<path fill="none" stroke="#ebc72d" d="M679.44,-340.098C658.897,-322.382 622.954,-291.385 598.671,-270.443"/>
<polygon fill="#ebc72d" stroke="#ebc72d" points="600.78,-267.64 590.921,-263.76 596.208,-272.941 600.78,-267.64"/>
</g>
<!-- corral_gryphon_nest -->
<g id="node10" class="node"><title>corral_gryphon_nest</title>
<g id="a_node10"><a xlink:href="elves_corral_gryphon_nest_full.html" xlink:title="Corral\nGryphon Nest">
<polygon fill="none" stroke="red" points="481.459,-257.969 400.389,-281.067 319.318,-257.969 319.394,-220.596 481.384,-220.596 481.459,-257.969"/>
<text text-anchor="middle" x="400.389" y="-251.44" font-family="Times,serif" font-size="14.00" fill="#ebc72d">Corral</text>
<text text-anchor="middle" x="400.389" y="-236.44" font-family="Times,serif" font-size="14.00" fill="#ebc72d">Gryphon Nest</text>
</a>
</g>
</g>
<!-- corral&#45;&gt;corral_gryphon_nest -->
<g id="edge8" class="edge"><title>corral&#45;&gt;corral_gryphon_nest</title>
<path fill="none" stroke="#ebc72d" stroke-dasharray="1,5" d="M678.471,-340.198C668.032,-332.369 654.063,-322.923 640.389,-316.853 579.699,-289.912 559.109,-299.531 495.389,-280.853 484.273,-277.594 472.52,-273.855 461.211,-270.103"/>
<polygon fill="#ebc72d" stroke="#ebc72d" points="462.009,-266.679 451.415,-266.816 459.782,-273.316 462.009,-266.679"/>
</g>
<!-- silver_helm_lancer -->
<g id="node15" class="node"><title>silver_helm_lancer</title>
<g id="a_node15"><a xlink:href="elves_silver_helm_lancer_full.html" xlink:title="Silver\nHelm Lancer">
<ellipse fill="none" stroke="magenta" cx="548.389" cy="-33.2132" rx="62.8651" ry="26.7407"/>
<text text-anchor="middle" x="548.389" y="-37.0132" font-family="Times,serif" font-size="14.00" fill="#ebc72d">Silver</text>
<text text-anchor="middle" x="548.389" y="-22.0132" font-family="Times,serif" font-size="14.00" fill="#ebc72d">Helm Lancer</text>
</a>
</g>
</g>
<!-- corral&#45;&gt;silver_helm_lancer -->
<g id="edge10" class="edge"><title>corral&#45;&gt;silver_helm_lancer</title>
<path fill="none" stroke="#ebc72d" d="M677.829,-340.174C667.393,-332.531 653.643,-323.281 640.389,-316.853 593.344,-294.035 559.189,-323.105 528.389,-280.853 482.624,-218.072 511.499,-120.909 532.397,-69.2706"/>
<polygon fill="#ebc72d" stroke="#ebc72d" points="535.696,-70.4518 536.316,-59.8751 529.236,-67.7569 535.696,-70.4518"/>
</g>
<!-- minstrel -->
<g id="node5" class="node"><title>minstrel</title>
<g id="a_node5"><a xlink:href="elves_minstrel_full.html" xlink:title="Minstrel">
<ellipse fill="none" stroke="magenta" cx="798.389" cy="-247.64" rx="40.8928" ry="18"/>
<text text-anchor="middle" x="798.389" y="-243.94" font-family="Times,serif" font-size="14.00" fill="#ebc72d">Minstrel</text>
</a>
</g>
</g>
<!-- minstrel&#45;&gt;dryad -->
<g id="edge36" class="edge"><title>minstrel&#45;&gt;dryad</title>
<path fill="none" stroke="#ebc72d" d="M778.299,-231.614C769.483,-225.583 758.789,-218.993 748.389,-214.426 690.352,-188.942 666.176,-208.518 610.389,-178.426 603.427,-174.671 596.694,-169.494 590.766,-164.201"/>
<polygon fill="#ebc72d" stroke="#ebc72d" points="592.892,-161.392 583.235,-157.034 588.066,-166.463 592.892,-161.392"/>
</g>
<!-- ent -->
<g id="node7" class="node"><title>ent</title>
<g id="a_node7"><a xlink:href="elves_ent_full.html" xlink:title="Ent">
<ellipse fill="none" stroke="magenta" cx="646.389" cy="-140.426" rx="27" ry="18"/>
<text text-anchor="middle" x="646.389" y="-136.726" font-family="Times,serif" font-size="14.00" fill="#ebc72d">Ent</text>
</a>
</g>
</g>
<!-- minstrel&#45;&gt;ent -->
<g id="edge37" class="edge"><title>minstrel&#45;&gt;ent</title>
<path fill="none" stroke="#ebc72d" d="M776.701,-232.177C767.991,-226.498 757.801,-220.015 748.389,-214.426 719.659,-197.367 709.004,-198.627 682.389,-178.426 676.729,-174.131 671.122,-168.947 666.078,-163.837"/>
<polygon fill="#ebc72d" stroke="#ebc72d" points="668.566,-161.374 659.15,-156.516 663.481,-166.185 668.566,-161.374"/>
</g>
<!-- prince -->
<g id="node6" class="node"><title>prince</title>
<g id="a_node6"><a xlink:href="elves_prince_full.html" xlink:title="Prince">
<ellipse fill="none" stroke="magenta" cx="186.389" cy="-140.426" rx="33.2948" ry="18"/>
<text text-anchor="middle" x="186.389" y="-136.726" font-family="Times,serif" font-size="14.00" fill="#ebc72d">Prince</text>
</a>
</g>
</g>
<!-- forest_guardian -->
<g id="node19" class="node"><title>forest_guardian</title>
<g id="a_node19"><a xlink:href="elves_forest_guardian_full.html" xlink:title="Forest\nGuardian">
<polygon fill="none" stroke="red" points="1069.01,-43.543 1010.39,-66.641 951.769,-43.543 951.823,-6.16955 1068.95,-6.16955 1069.01,-43.543"/>
<text text-anchor="middle" x="1010.39" y="-37.0132" font-family="Times,serif" font-size="14.00" fill="#ebc72d">Forest</text>
<text text-anchor="middle" x="1010.39" y="-22.0132" font-family="Times,serif" font-size="14.00" fill="#ebc72d">Guardian</text>
</a>
</g>
</g>
<!-- ent&#45;&gt;forest_guardian -->
<g id="edge26" class="edge"><title>ent&#45;&gt;forest_guardian</title>
<path fill="none" stroke="#ebc72d" stroke-width="2" d="M657.775,-123.952C664.179,-116.338 672.804,-107.688 682.389,-102.426 764.104,-57.5656 872.063,-42.1397 941.376,-36.8759"/>
<polygon fill="#ebc72d" stroke="#ebc72d" stroke-width="2" points="942.009,-40.34 951.737,-36.143 941.515,-33.3574 942.009,-40.34"/>
</g>
<!-- academy -->
<g id="node9" class="node"><title>academy</title>
<g id="a_node9"><a xlink:href="elves_academy_full.html" xlink:title="Academy">
<polygon fill="none" stroke="red" points="550.754,-452.415 495.389,-464.853 440.023,-452.415 440.075,-432.291 550.703,-432.291 550.754,-452.415"/>
<text text-anchor="middle" x="495.389" y="-443.153" font-family="Times,serif" font-size="14.00" fill="#ebc72d">Academy</text>
</a>
</g>
</g>
<!-- academy&#45;&gt;grey_elf_archer -->
<g id="edge5" class="edge"><title>academy&#45;&gt;grey_elf_archer</title>
<path fill="none" stroke="#ebc72d" d="M469.433,-432.2C449.584,-421.667 421.603,-406.618 397.389,-392.853 390.871,-389.148 384.014,-385.154 377.333,-381.209"/>
<polygon fill="#ebc72d" stroke="#ebc72d" points="378.764,-377.988 368.379,-375.891 375.19,-384.007 378.764,-377.988"/>
</g>
<!-- academy&#45;&gt;corral -->
<g id="edge1" class="edge"><title>academy&#45;&gt;corral</title>
<path fill="none" stroke="#ebc72d" stroke-dasharray="1,5" d="M525.765,-432.184C562.88,-415.482 625.399,-387.348 663.283,-370.3"/>
<polygon fill="#ebc72d" stroke="#ebc72d" points="665.131,-373.307 672.814,-366.012 662.258,-366.924 665.131,-373.307"/>
</g>
<!-- wood_hall -->
<g id="node11" class="node"><title>wood_hall</title>
<g id="a_node11"><a xlink:href="elves_wood_hall_full.html" xlink:title="Wood\nHall">
<polygon fill="none" stroke="red" points="842.293,-365.183 798.389,-388.281 754.485,-365.183 754.526,-327.809 842.252,-327.809 842.293,-365.183"/>
<text text-anchor="middle" x="798.389" y="-358.653" font-family="Times,serif" font-size="14.00" fill="#ebc72d">Wood</text>
<text text-anchor="middle" x="798.389" y="-343.653" font-family="Times,serif" font-size="14.00" fill="#ebc72d">Hall</text>
</a>
</g>
</g>
<!-- academy&#45;&gt;wood_hall -->
<g id="edge7" class="edge"><title>academy&#45;&gt;wood_hall</title>
<path fill="none" stroke="#ebc72d" stroke-dasharray="1,5" d="M550.96,-440.515C602.946,-434.047 681.89,-420.39 745.389,-392.853 752.325,-389.845 759.282,-385.857 765.767,-381.614"/>
<polygon fill="#ebc72d" stroke="#ebc72d" points="768.035,-384.301 774.273,-375.738 764.056,-378.542 768.035,-384.301"/>
</g>
<!-- galadrim_archer -->
<g id="node13" class="node"><title>galadrim_archer</title>
<g id="a_node13"><a xlink:href="elves_galadrim_archer_full.html" xlink:title="Galadrim\nArcher">
<ellipse fill="none" stroke="magenta" cx="253.389" cy="-247.64" rx="48.1667" ry="26.7407"/>
<text text-anchor="middle" x="253.389" y="-251.44" font-family="Times,serif" font-size="14.00" fill="#ebc72d">Galadrim</text>
<text text-anchor="middle" x="253.389" y="-236.44" font-family="Times,serif" font-size="14.00" fill="#ebc72d">Archer</text>
</a>
</g>
</g>
<!-- academy&#45;&gt;galadrim_archer -->
<g id="edge4" class="edge"><title>academy&#45;&gt;galadrim_archer</title>
<path fill="none" stroke="#ebc72d" d="M440.05,-439.67C382.06,-432.005 296.371,-416.927 274.389,-392.853 247.911,-363.855 245.819,-317.012 248.277,-284.619"/>
<polygon fill="#ebc72d" stroke="#ebc72d" points="251.763,-284.933 249.21,-274.651 244.794,-284.281 251.763,-284.933"/>
</g>
<!-- magol_hedir -->
<g id="node21" class="node"><title>magol_hedir</title>
<g id="a_node21"><a xlink:href="elves_magol_hedir_full.html" xlink:title="Magol\nHedir">
<ellipse fill="none" stroke="magenta" cx="443.389" cy="-354.853" rx="37.4533" ry="26.7407"/>
<text text-anchor="middle" x="443.389" y="-358.653" font-family="Times,serif" font-size="14.00" fill="#ebc72d">Magol</text>
<text text-anchor="middle" x="443.389" y="-343.653" font-family="Times,serif" font-size="14.00" fill="#ebc72d">Hedir</text>
</a>
</g>
</g>
<!-- academy&#45;&gt;magol_hedir -->
<g id="edge6" class="edge"><title>academy&#45;&gt;magol_hedir</title>
<path fill="none" stroke="#ebc72d" d="M487.491,-432.184C480.856,-420.7 471.099,-403.812 462.448,-388.839"/>
<polygon fill="#ebc72d" stroke="#ebc72d" points="465.275,-386.737 457.242,-379.829 459.214,-390.239 465.275,-386.737"/>
</g>
<!-- dryad_weaponry -->
<g id="node23" class="node"><title>dryad_weaponry</title>
<g id="a_node23"><a xlink:href="elves_dryad_weaponry_full.html" xlink:title="Dryad\nWeaponry">
<polygon fill="none" stroke="green" points="227.329,-392.853 104.935,-392.853 73.4489,-316.853 195.843,-316.853 227.329,-392.853"/>
<text text-anchor="middle" x="150.389" y="-358.653" font-family="Times,serif" font-size="14.00" fill="#ebc72d">Dryad</text>
<text text-anchor="middle" x="150.389" y="-343.653" font-family="Times,serif" font-size="14.00" fill="#ebc72d">Weaponry</text>
</a>
</g>
</g>
<!-- academy&#45;&gt;dryad_weaponry -->
<g id="edge2" class="edge"><title>academy&#45;&gt;dryad_weaponry</title>
<path fill="none" stroke="#ebc72d" d="M439.916,-437.249C387.968,-428.497 308.5,-413.315 241.389,-392.853 239.235,-392.196 237.061,-391.509 234.876,-390.796"/>
<polygon fill="#ebc72d" stroke="#ebc72d" points="235.833,-387.424 225.238,-387.519 233.579,-394.052 235.833,-387.424"/>
</g>
<!-- elven_lore -->
<g id="node28" class="node"><title>elven_lore</title>
<g id="a_node28"><a xlink:href="elves_elven_lore_full.html" xlink:title="Elven\nLore">
<polygon fill="none" stroke="green" points="597.918,-392.853 519.128,-392.853 498.86,-316.853 577.65,-316.853 597.918,-392.853"/>
<text text-anchor="middle" x="548.389" y="-358.653" font-family="Times,serif" font-size="14.00" fill="#ebc72d">Elven</text>
<text text-anchor="middle" x="548.389" y="-343.653" font-family="Times,serif" font-size="14.00" fill="#ebc72d">Lore</text>
</a>
</g>
</g>
<!-- academy&#45;&gt;elven_lore -->
<g id="edge3" class="edge"><title>academy&#45;&gt;elven_lore</title>
<path fill="none" stroke="#ebc72d" d="M503.439,-432.184C508.283,-423.958 514.76,-412.959 521.286,-401.877"/>
<polygon fill="#ebc72d" stroke="#ebc72d" points="524.441,-403.417 526.5,-393.024 518.409,-399.864 524.441,-403.417"/>
</g>
<!-- gryphon -->
<g id="node22" class="node"><title>gryphon</title>
<g id="a_node22"><a xlink:href="elves_gryphon_full.html" xlink:title="Gryphon">
<ellipse fill="none" stroke="magenta" cx="419.389" cy="-140.426" rx="42.4939" ry="18"/>
<text text-anchor="middle" x="419.389" y="-136.726" font-family="Times,serif" font-size="14.00" fill="#ebc72d">Gryphon</text>
</a>
</g>
</g>
<!-- corral_gryphon_nest&#45;&gt;gryphon -->
<g id="edge11" class="edge"><title>corral_gryphon_nest&#45;&gt;gryphon</title>
<path fill="none" stroke="#ebc72d" d="M405.134,-220.361C407.974,-204.635 411.578,-184.679 414.451,-168.768"/>
<polygon fill="#ebc72d" stroke="#ebc72d" points="417.973,-168.963 416.306,-158.5 411.084,-167.719 417.973,-168.963"/>
</g>
<!-- taming_song -->
<g id="node24" class="node"><title>taming_song</title>
<g id="a_node24"><a xlink:href="elves_taming_song_full.html" xlink:title="Taming\nSong">
<polygon fill="none" stroke="green" points="359.726,-178.426 262.152,-178.426 237.052,-102.426 334.626,-102.426 359.726,-178.426"/>
<text text-anchor="middle" x="298.389" y="-144.226" font-family="Times,serif" font-size="14.00" fill="#ebc72d">Taming</text>
<text text-anchor="middle" x="298.389" y="-129.226" font-family="Times,serif" font-size="14.00" fill="#ebc72d">Song</text>
</a>
</g>
</g>
<!-- corral_gryphon_nest&#45;&gt;taming_song -->
<g id="edge12" class="edge"><title>corral_gryphon_nest&#45;&gt;taming_song</title>
<path fill="none" stroke="#ebc72d" stroke-dasharray="1,5" d="M374.913,-220.361C364.749,-209.877 352.763,-197.513 341.331,-185.721"/>
<polygon fill="#ebc72d" stroke="#ebc72d" points="343.779,-183.218 334.306,-178.474 338.753,-188.091 343.779,-183.218"/>
</g>
<!-- wood_hall&#45;&gt;forge -->
<g id="edge44" class="edge"><title>wood_hall&#45;&gt;forge</title>
<path fill="none" stroke="#ebc72d" stroke-dasharray="1,5" d="M822.866,-327.575C839.626,-309.581 861.543,-286.051 877.074,-269.376"/>
<polygon fill="#ebc72d" stroke="#ebc72d" points="879.88,-271.498 884.135,-261.795 874.758,-266.727 879.88,-271.498"/>
</g>
<!-- wood_hall&#45;&gt;minstrel -->
<g id="edge45" class="edge"><title>wood_hall&#45;&gt;minstrel</title>
<path fill="none" stroke="#ebc72d" d="M798.389,-327.575C798.389,-311.848 798.389,-291.893 798.389,-275.981"/>
<polygon fill="#ebc72d" stroke="#ebc72d" points="801.889,-275.713 798.389,-265.713 794.889,-275.713 801.889,-275.713"/>
</g>
<!-- quenya -->
<g id="node30" class="node"><title>quenya</title>
<g id="a_node30"><a xlink:href="elves_quenya_full.html" xlink:title="Quenya">
<polygon fill="none" stroke="green" points="739.837,-265.64 650.041,-265.64 626.941,-229.64 716.737,-229.64 739.837,-265.64"/>
<text text-anchor="middle" x="683.389" y="-243.94" font-family="Times,serif" font-size="14.00" fill="#ebc72d">Quenya</text>
</a>
</g>
</g>
<!-- wood_hall&#45;&gt;quenya -->
<g id="edge46" class="edge"><title>wood_hall&#45;&gt;quenya</title>
<path fill="none" stroke="#ebc72d" d="M769.666,-327.575C751.32,-310.79 727.708,-289.187 709.825,-272.826"/>
<polygon fill="#ebc72d" stroke="#ebc72d" points="711.791,-269.881 702.051,-265.713 707.066,-275.046 711.791,-269.881"/>
</g>
<!-- gryphon_rider -->
<g id="node12" class="node"><title>gryphon_rider</title>
<g id="a_node12"><a xlink:href="elves_gryphon_rider_full.html" xlink:title="Gryphon\nRider">
<ellipse fill="none" stroke="magenta" cx="379.389" cy="-33.2132" rx="45.9239" ry="26.7407"/>
<text text-anchor="middle" x="379.389" y="-37.0132" font-family="Times,serif" font-size="14.00" fill="#ebc72d">Gryphon</text>
<text text-anchor="middle" x="379.389" y="-22.0132" font-family="Times,serif" font-size="14.00" fill="#ebc72d">Rider</text>
</a>
</g>
</g>
<!-- galadrim_archer&#45;&gt;prince -->
<g id="edge30" class="edge"><title>galadrim_archer&#45;&gt;prince</title>
<path fill="none" stroke="#ebc72d" stroke-dasharray="5,2" d="M237.68,-221.972C227.042,-205.265 213.03,-183.262 202.34,-166.476"/>
<polygon fill="#ebc72d" stroke="#ebc72d" points="205.11,-164.308 196.786,-157.753 199.205,-168.068 205.11,-164.308"/>
</g>
<!-- sanctuary -->
<g id="node14" class="node"><title>sanctuary</title>
<g id="a_node14"><a xlink:href="elves_sanctuary_full.html" xlink:title="Sanctuary">
<polygon fill="none" stroke="red" points="837.468,-452.415 780.389,-464.853 723.31,-452.415 723.363,-432.291 837.415,-432.291 837.468,-452.415"/>
<text text-anchor="middle" x="780.389" y="-443.153" font-family="Times,serif" font-size="14.00" fill="#ebc72d">Sanctuary</text>
</a>
</g>
</g>
<!-- elf -->
<g id="node17" class="node"><title>elf</title>
<g id="a_node17"><a xlink:href="elves_elf_full.html" xlink:title="Elf">
<ellipse fill="none" stroke="magenta" cx="595.389" cy="-518.853" rx="27" ry="18"/>
<text text-anchor="middle" x="595.389" y="-515.153" font-family="Times,serif" font-size="14.00" fill="#ebc72d">Elf</text>
</a>
</g>
</g>
<!-- wise_elf -->
<g id="node16" class="node"><title>wise_elf</title>
<g id="a_node16"><a xlink:href="elves_wise_elf_full.html" xlink:title="Wise\nElf">
<ellipse fill="none" stroke="magenta" cx="595.389" cy="-702.149" rx="31.6406" ry="26.7407"/>
<text text-anchor="middle" x="595.389" y="-705.949" font-family="Times,serif" font-size="14.00" fill="#ebc72d">Wise</text>
<text text-anchor="middle" x="595.389" y="-690.949" font-family="Times,serif" font-size="14.00" fill="#ebc72d">Elf</text>
</a>
</g>
</g>
<!-- tree_of_life -->
<g id="node18" class="node"><title>tree_of_life</title>
<g id="a_node18"><a xlink:href="elves_tree_of_life_full.html" xlink:title="Tree\nOf Life">
<polygon fill="none" stroke="red" points="606.029,-616.396 556.389,-639.494 506.749,-616.396 506.795,-579.022 605.983,-579.022 606.029,-616.396"/>
<text text-anchor="middle" x="556.389" y="-609.866" font-family="Times,serif" font-size="14.00" fill="#ebc72d">Tree</text>
<text text-anchor="middle" x="556.389" y="-594.866" font-family="Times,serif" font-size="14.00" fill="#ebc72d">Of Life</text>
</a>
</g>
</g>
<!-- wise_elf&#45;&gt;tree_of_life -->
<g id="edge43" class="edge"><title>wise_elf&#45;&gt;tree_of_life</title>
<path fill="none" stroke="#ebc72d" stroke-width="2" d="M585.142,-676.43C580.988,-666.408 576.104,-654.627 571.552,-643.646"/>
<polygon fill="#ebc72d" stroke="#ebc72d" stroke-width="2" points="574.727,-642.165 567.664,-634.267 568.261,-644.845 574.727,-642.165"/>
</g>
<!-- wise_elf&#45;&gt;forest_guardian -->
<g id="edge42" class="edge"><title>wise_elf&#45;&gt;forest_guardian</title>
<path fill="none" stroke="#ebc72d" stroke-width="2" d="M627.403,-700.146C716.935,-695.474 963.389,-669.061 963.389,-519.853 963.389,-519.853 963.389,-519.853 963.389,-445.853 963.389,-402.028 934.758,-281.82 963.389,-248.64"/>
</g>
<!-- elf&#45;&gt;forge -->
<g id="edge17" class="edge"><title>elf&#45;&gt;forge</title>
<path fill="none" stroke="#ebc72d" stroke-width="2" d="M695.389,-445.853C703.394,-437.834 704.409,-434.22 714.389,-428.853 769.835,-399.034 792.475,-415.049 851.389,-392.853 885.799,-379.889 904.14,-385.863 925.389,-355.853"/>
<path fill="none" stroke="#ebc72d" stroke-width="2" d="M925.389,-353.853C943,-328.981 927.034,-293.831 912.731,-271.135"/>
<polygon fill="#ebc72d" stroke="#ebc72d" stroke-width="2" points="915.457,-268.914 907.006,-262.523 909.628,-272.789 915.457,-268.914"/>
</g>
<!-- elf&#45;&gt;corral -->
<g id="edge14" class="edge"><title>elf&#45;&gt;corral</title>
<path fill="none" stroke="#ebc72d" stroke-width="2" d="M695.389,-445.853C711.84,-429.374 709.138,-401.582 704.007,-381.233"/>
<polygon fill="#ebc72d" stroke="#ebc72d" stroke-width="2" points="707.302,-380.025 701.191,-371.37 700.571,-381.946 707.302,-380.025"/>
</g>
<!-- elf&#45;&gt;academy -->
<g id="edge13" class="edge"><title>elf&#45;&gt;academy</title>
<path fill="none" stroke="#ebc72d" stroke-width="2" d="M577.511,-505.338C562.202,-494.622 539.927,-479.029 522.436,-466.786"/>
<polygon fill="#ebc72d" stroke="#ebc72d" stroke-width="2" points="523.988,-463.6 513.789,-460.733 519.974,-469.335 523.988,-463.6"/>
</g>
<!-- elf&#45;&gt;corral_gryphon_nest -->
<g id="edge15" class="edge"><title>elf&#45;&gt;corral_gryphon_nest</title>
<path fill="none" stroke="#ebc72d" stroke-width="2" d="M615.73,-506.529C637.117,-493.994 670.984,-472.299 695.389,-447.853"/>
<path fill="none" stroke="#ebc72d" stroke-width="2" d="M695.389,-445.853C718.268,-422.935 663.939,-419.397 645.389,-392.853 623.756,-361.898 635.961,-341.547 607.389,-316.853 604.516,-314.37 523.819,-288.168 464.049,-268.977"/>
<polygon fill="#ebc72d" stroke="#ebc72d" stroke-width="2" points="464.87,-265.565 454.279,-265.843 462.732,-272.23 464.87,-265.565"/>
</g>
<!-- elf&#45;&gt;wood_hall -->
<g id="edge22" class="edge"><title>elf&#45;&gt;wood_hall</title>
<path fill="none" stroke="#ebc72d" stroke-width="2" d="M695.389,-445.853C717.902,-423.301 745.113,-399.664 765.912,-382.275"/>
<polygon fill="#ebc72d" stroke="#ebc72d" stroke-width="2" points="768.374,-384.779 773.83,-375.697 763.901,-379.395 768.374,-384.779"/>
</g>
<!-- elf&#45;&gt;sanctuary -->
<g id="edge19" class="edge"><title>elf&#45;&gt;sanctuary</title>
<path fill="none" stroke="#ebc72d" stroke-width="2" d="M628.222,-505.429C660.195,-493.332 708.758,-474.956 742.386,-462.232"/>
<polygon fill="#ebc72d" stroke="#ebc72d" stroke-width="2" points="626.56,-502.316 618.445,-509.129 629.037,-508.863 626.56,-502.316"/>
<polygon fill="#ebc72d" stroke="#ebc72d" stroke-width="2" points="743.764,-465.453 751.878,-458.641 741.286,-458.906 743.764,-465.453"/>
</g>
<!-- elf&#45;&gt;wise_elf -->
<g id="edge21" class="edge"><title>elf&#45;&gt;wise_elf</title>
<path fill="none" stroke="#ebc72d" stroke-dasharray="5,2" d="M603.281,-536.122C607.815,-546.39 613.059,-560.082 615.389,-572.853 620.687,-601.897 619.985,-610.116 615.389,-639.279 613.946,-648.434 611.371,-658.081 608.54,-666.962"/>
<polygon fill="#ebc72d" stroke="#ebc72d" points="605.169,-666.002 605.28,-676.597 611.8,-668.246 605.169,-666.002"/>
</g>
<!-- elf&#45;&gt;forest_guardian -->
<g id="edge16" class="edge"><title>elf&#45;&gt;forest_guardian</title>
<path fill="none" stroke="#ebc72d" stroke-width="2" d="M925.389,-353.853C954.12,-313.277 930.721,-286.119 963.389,-248.64"/>
<path fill="none" stroke="#ebc72d" stroke-width="2" d="M963.389,-246.64C1056.94,-139.311 1187.07,-289.303 1276.39,-178.426 1297.58,-152.122 1297.1,-129.113 1276.39,-102.426 1252.4,-71.5071 1149.78,-52.1908 1079.25,-42.3118"/>
<polygon fill="#ebc72d" stroke="#ebc72d" stroke-width="2" points="1079.47,-38.8096 1069.09,-40.9225 1078.52,-45.7451 1079.47,-38.8096"/>
</g>
<!-- lore_house -->
<g id="node20" class="node"><title>lore_house</title>
<g id="a_node20"><a xlink:href="elves_lore_house_full.html" xlink:title="Lore\nHouse">
<polygon fill="none" stroke="red" points="159.04,-257.969 114.389,-281.067 69.7376,-257.969 69.7792,-220.596 158.999,-220.596 159.04,-257.969"/>
<text text-anchor="middle" x="114.389" y="-251.44" font-family="Times,serif" font-size="14.00" fill="#ebc72d">Lore</text>
<text text-anchor="middle" x="114.389" y="-236.44" font-family="Times,serif" font-size="14.00" fill="#ebc72d">House</text>
</a>
</g>
</g>
<!-- elf&#45;&gt;lore_house -->
<g id="edge18" class="edge"><title>elf&#45;&gt;lore_house</title>
<path fill="none" stroke="#ebc72d" stroke-width="2" d="M568.68,-515.814C470.036,-507.678 128.625,-473.966 64.389,-392.853 43.4187,-366.373 53.8834,-348.955 64.389,-316.853 68.9825,-302.816 77.6854,-289.279 86.5592,-278.016"/>
<polygon fill="#ebc72d" stroke="#ebc72d" stroke-width="2" points="89.3139,-280.177 92.9946,-270.242 83.9218,-275.713 89.3139,-280.177"/>
</g>
<!-- tree_of_life&#45;&gt;elf -->
<g id="edge41" class="edge"><title>tree_of_life&#45;&gt;elf</title>
<path fill="none" stroke="#ebc72d" d="M572.823,-569.158C576.478,-561.173 580.279,-552.867 583.698,-545.398"/>
<polygon fill="#ebc72d" stroke="#ebc72d" points="569.494,-568.022 568.515,-578.571 575.859,-570.935 569.494,-568.022"/>
<polygon fill="#ebc72d" stroke="#ebc72d" points="586.946,-546.709 587.926,-536.16 580.581,-543.796 586.946,-546.709"/>
</g>
<!-- lore_house&#45;&gt;prince -->
<g id="edge33" class="edge"><title>lore_house&#45;&gt;prince</title>
<path fill="none" stroke="#ebc72d" stroke-dasharray="1,5" d="M132.372,-220.361C143.759,-203.722 158.385,-182.348 169.546,-166.039"/>
<polygon fill="#ebc72d" stroke="#ebc72d" points="172.588,-167.791 175.347,-157.562 166.811,-163.838 172.588,-167.791"/>
</g>
<!-- lore_house&#45;&gt;wise_elf -->
<g id="edge35" class="edge"><title>lore_house&#45;&gt;wise_elf</title>
<path fill="none" stroke="#ebc72d" d="M90.1441,-268.58C76.22,-281.158 59.3719,-298.461 48.389,-316.853 17.5455,-368.504 7.38896,-385.693 7.38896,-445.853 7.38896,-519.853 7.38896,-519.853 7.38896,-519.853 7.38896,-634.263 419.044,-684.14 553.477,-697.378"/>
<polygon fill="#ebc72d" stroke="#ebc72d" points="553.485,-700.895 563.776,-698.373 554.159,-693.927 553.485,-700.895"/>
</g>
<!-- lore_house&#45;&gt;taming_song -->
<g id="edge34" class="edge"><title>lore_house&#45;&gt;taming_song</title>
<path fill="none" stroke="#ebc72d" d="M159.4,-220.902C186.473,-205.421 220.966,-185.697 248.817,-169.772"/>
<polygon fill="#ebc72d" stroke="#ebc72d" points="250.665,-172.747 257.609,-164.745 247.19,-166.671 250.665,-172.747"/>
</g>
<!-- mystical_forest -->
<g id="node26" class="node"><title>mystical_forest</title>
<g id="a_node26"><a xlink:href="elves_mystical_forest_full.html" xlink:title="Mystical\nForest">
<polygon fill="none" stroke="green" points="134.667,-178.426 27.6427,-178.426 0.110862,-102.426 107.135,-102.426 134.667,-178.426"/>
<text text-anchor="middle" x="67.389" y="-144.226" font-family="Times,serif" font-size="14.00" fill="#ebc72d">Mystical</text>
<text text-anchor="middle" x="67.389" y="-129.226" font-family="Times,serif" font-size="14.00" fill="#ebc72d">Forest</text>
</a>
</g>
</g>
<!-- lore_house&#45;&gt;mystical_forest -->
<g id="edge32" class="edge"><title>lore_house&#45;&gt;mystical_forest</title>
<path fill="none" stroke="#ebc72d" d="M102.65,-220.361C98.2318,-210.471 93.0662,-198.907 88.0726,-187.728"/>
<polygon fill="#ebc72d" stroke="#ebc72d" points="91.2131,-186.177 83.9387,-178.474 84.8218,-189.032 91.2131,-186.177"/>
</g>
<!-- gryphon&#45;&gt;gryphon_rider -->
<g id="edge31" class="edge"><title>gryphon&#45;&gt;gryphon_rider</title>
<path fill="none" stroke="#ebc72d" stroke-dasharray="5,2" d="M412.962,-122.522C407.521,-108.211 399.543,-87.2241 392.729,-69.3007"/>
<polygon fill="#ebc72d" stroke="#ebc72d" points="395.911,-67.8236 389.086,-59.7202 389.368,-70.3112 395.911,-67.8236"/>
</g>
<!-- taming_song&#45;&gt;gryphon_rider -->
<g id="edge40" class="edge"><title>taming_song&#45;&gt;gryphon_rider</title>
<path fill="none" stroke="#ebc72d" stroke-dasharray="1,5" d="M326.947,-102.332C336.036,-90.5255 346.007,-77.5738 354.792,-66.1635"/>
<polygon fill="#ebc72d" stroke="#ebc72d" points="357.622,-68.2248 360.949,-58.1659 352.075,-63.9546 357.622,-68.2248"/>
</g>
<!-- noldor_armour_crafting&#45;&gt;silver_helm_lancer -->
<g id="edge38" class="edge"><title>noldor_armour_crafting&#45;&gt;silver_helm_lancer</title>
<path fill="none" stroke="#ebc72d" stroke-dasharray="1,5" d="M714.133,-102.332C676.661,-86.9318 634.45,-69.5834 602.004,-56.2486"/>
<polygon fill="#ebc72d" stroke="#ebc72d" points="603.275,-52.9868 592.695,-52.4227 600.614,-59.4613 603.275,-52.9868"/>
</g>
<!-- elven_lore&#45;&gt;corral_gryphon_nest -->
<g id="edge23" class="edge"><title>elven_lore&#45;&gt;corral_gryphon_nest</title>
<path fill="none" stroke="#ebc72d" stroke-dasharray="1,5" d="M499.107,-318.818C480.463,-305.564 459.454,-290.629 441.625,-277.954"/>
<polygon fill="#ebc72d" stroke="#ebc72d" points="443.33,-274.872 433.152,-271.931 439.274,-280.577 443.33,-274.872"/>
</g>
<!-- elven_lore&#45;&gt;galadrim_archer -->
<g id="edge24" class="edge"><title>elven_lore&#45;&gt;galadrim_archer</title>
<path fill="none" stroke="#ebc72d" stroke-dasharray="1,5" d="M499.843,-321.565C496.374,-319.835 492.871,-318.241 489.389,-316.853 414.008,-286.806 386.437,-309.168 310.389,-280.853 304.725,-278.744 298.955,-276.121 293.367,-273.29"/>
<polygon fill="#ebc72d" stroke="#ebc72d" points="294.655,-270.009 284.186,-268.38 291.354,-276.182 294.655,-270.009"/>
</g>
<!-- elven_lore&#45;&gt;lore_house -->
<g id="edge25" class="edge"><title>elven_lore&#45;&gt;lore_house</title>
<path fill="none" stroke="#ebc72d" stroke-dasharray="1,5" d="M499.96,-321.256C496.463,-319.6 492.921,-318.107 489.389,-316.853 365.75,-272.952 323.567,-313.095 196.389,-280.853 183.275,-277.528 169.433,-272.655 156.933,-267.701"/>
<polygon fill="#ebc72d" stroke="#ebc72d" points="158.251,-264.458 147.67,-263.921 155.606,-270.94 158.251,-264.458"/>
</g>
</g>
</svg>
