<?xml version="1.0" encoding="UTF-8" standalone="no"?>
<!DOCTYPE svg PUBLIC "-//W3C//DTD SVG 1.1//EN"
 "http://www.w3.org/Graphics/SVG/1.1/DTD/svg11.dtd">
<!-- Generated by graphviz version 2.38.0 (20140413.2041)
 -->
<!-- Title: test Pages: 1 -->
<svg width="307pt" height="454pt"
 viewBox="0.00 0.00 306.60 453.71" xmlns="http://www.w3.org/2000/svg" xmlns:xlink="http://www.w3.org/1999/xlink">
<g id="graph0" class="graph" transform="scale(1 1) rotate(0) translate(4 449.706)">
<title>test</title>
<polygon fill="#151515" stroke="none" points="-4,4 -4,-449.706 302.6,-449.706 302.6,4 -4,4"/>
<!-- forge -->
<g id="node1" class="node"><title>forge</title>
<g id="a_node1"><a xlink:href="elves_forge_full.html" xlink:title="Forge">
<polygon fill="none" stroke="red" points="198.663,-213.202 160.039,-225.64 121.416,-213.202 121.452,-193.077 198.627,-193.077 198.663,-213.202"/>
<text text-anchor="middle" x="160.039" y="-203.94" font-family="Times,serif" font-size="14.00" fill="#ebc72d">Forge</text>
</a>
</g>
</g>
<!-- corral -->
<g id="node2" class="node"><title>corral</title>
<g id="a_node2"><a xlink:href="elves_corral_full.html" xlink:title="Corral">
<polygon fill="none" stroke="red" points="97.9835,-315.628 57.0395,-328.066 16.0954,-315.628 16.1336,-295.504 97.9453,-295.504 97.9835,-315.628"/>
<text text-anchor="middle" x="57.0395" y="-306.366" font-family="Times,serif" font-size="14.00" fill="#ebc72d">Corral</text>
</a>
</g>
</g>
<!-- lore_house -->
<g id="node8" class="node"><title>lore_house</title>
<g id="a_node8"><a xlink:href="elves_lore_house_full.html" xlink:title="Lore\nHouse">
<polygon fill="none" stroke="red" points="101.691,-217.969 57.0395,-241.067 12.3881,-217.969 12.4298,-180.596 101.649,-180.596 101.691,-217.969"/>
<text text-anchor="middle" x="57.0395" y="-211.44" font-family="Times,serif" font-size="14.00" fill="#ebc72d">Lore</text>
<text text-anchor="middle" x="57.0395" y="-196.44" font-family="Times,serif" font-size="14.00" fill="#ebc72d">House</text>
</a>
</g>
</g>
<!-- corral&#45;&gt;lore_house -->
<g id="edge3" class="edge"><title>corral&#45;&gt;lore_house</title>
<path fill="none" stroke="#ebc72d" stroke-dasharray="1,5" d="M57.0395,-295.102C57.0395,-283.696 57.0395,-266.946 57.0395,-251.219"/>
<polygon fill="#ebc72d" stroke="#ebc72d" points="60.5396,-251.098 57.0395,-241.098 53.5396,-251.098 60.5396,-251.098"/>
</g>
<!-- academy -->
<g id="node3" class="node"><title>academy</title>
<g id="a_node3"><a xlink:href="elves_academy_full.html" xlink:title="Academy">
<polygon fill="none" stroke="red" points="163.405,-418.055 108.039,-430.493 52.6739,-418.055 52.7256,-397.93 163.353,-397.93 163.405,-418.055"/>
<text text-anchor="middle" x="108.039" y="-408.793" font-family="Times,serif" font-size="14.00" fill="#ebc72d">Academy</text>
</a>
</g>
</g>
<!-- academy&#45;&gt;corral -->
<g id="edge1" class="edge"><title>academy&#45;&gt;corral</title>
<path fill="none" stroke="#ebc72d" stroke-dasharray="1,5" d="M100.948,-397.529C92.7532,-381.392 79.1269,-354.56 69.2243,-335.06"/>
<polygon fill="#ebc72d" stroke="#ebc72d" points="72.2168,-333.222 64.5681,-325.891 65.9755,-336.392 72.2168,-333.222"/>
</g>
<!-- wood_hall -->
<g id="node4" class="node"><title>wood_hall</title>
<g id="a_node4"><a xlink:href="elves_wood_hall_full.html" xlink:title="Wood\nHall">
<polygon fill="none" stroke="red" points="203.944,-320.396 160.039,-343.494 116.135,-320.396 116.176,-283.022 203.903,-283.022 203.944,-320.396"/>
<text text-anchor="middle" x="160.039" y="-313.866" font-family="Times,serif" font-size="14.00" fill="#ebc72d">Wood</text>
<text text-anchor="middle" x="160.039" y="-298.866" font-family="Times,serif" font-size="14.00" fill="#ebc72d">Hall</text>
</a>
</g>
</g>
<!-- academy&#45;&gt;wood_hall -->
<g id="edge2" class="edge"><title>academy&#45;&gt;wood_hall</title>
<path fill="none" stroke="#ebc72d" stroke-dasharray="1,5" d="M115.27,-397.529C122.161,-384.219 132.82,-363.634 142.009,-345.888"/>
<polygon fill="#ebc72d" stroke="#ebc72d" points="145.162,-347.41 146.652,-336.92 138.946,-344.191 145.162,-347.41"/>
</g>
<!-- wood_hall&#45;&gt;forge -->
<g id="edge6" class="edge"><title>wood_hall&#45;&gt;forge</title>
<path fill="none" stroke="#ebc72d" stroke-dasharray="1,5" d="M160.039,-282.942C160.039,-268.586 160.039,-250.786 160.039,-236.207"/>
<polygon fill="#ebc72d" stroke="#ebc72d" points="163.54,-235.797 160.039,-225.797 156.54,-235.798 163.54,-235.797"/>
</g>
<!-- sanctuary -->
<g id="node5" class="node"><title>sanctuary</title>
<g id="a_node5"><a xlink:href="elves_sanctuary_full.html" xlink:title="Sanctuary">
<polygon fill="none" stroke="red" points="114.118,-23.5623 57.0395,-36 -0.0395034,-23.5623 0.0137731,-3.43769 114.065,-3.43769 114.118,-23.5623"/>
<text text-anchor="middle" x="57.0395" y="-14.3" font-family="Times,serif" font-size="14.00" fill="#ebc72d">Sanctuary</text>
</a>
</g>
</g>
<!-- tree_of_life -->
<g id="node6" class="node"><title>tree_of_life</title>
<g id="a_node6"><a xlink:href="elves_tree_of_life_full.html" xlink:title="Tree\nOf Life">
<polygon fill="none" stroke="red" points="106.68,-115.543 57.0395,-138.641 7.39917,-115.543 7.44551,-78.1695 106.633,-78.1695 106.68,-115.543"/>
<text text-anchor="middle" x="57.0395" y="-109.013" font-family="Times,serif" font-size="14.00" fill="#ebc72d">Tree</text>
<text text-anchor="middle" x="57.0395" y="-94.0132" font-family="Times,serif" font-size="14.00" fill="#ebc72d">Of Life</text>
</a>
</g>
</g>
<!-- tree_of_life&#45;&gt;sanctuary -->
<g id="edge5" class="edge"><title>tree_of_life&#45;&gt;sanctuary</title>
<path fill="none" stroke="#ebc72d" stroke-dasharray="1,5" d="M57.0395,-77.7183C57.0395,-67.744 57.0395,-56.388 57.0395,-46.3382"/>
<polygon fill="#ebc72d" stroke="#ebc72d" points="60.5396,-46.0729 57.0395,-36.0729 53.5396,-46.0729 60.5396,-46.0729"/>
</g>
<!-- forest_guardian -->
<g id="node7" class="node"><title>forest_guardian</title>
<g id="a_node7"><a xlink:href="elves_forest_guardian_full.html" xlink:title="Forest\nGuardian">
<polygon fill="none" stroke="red" points="298.66,-422.822 240.039,-445.92 181.419,-422.822 181.474,-385.449 298.605,-385.449 298.66,-422.822"/>
<text text-anchor="middle" x="240.039" y="-416.293" font-family="Times,serif" font-size="14.00" fill="#ebc72d">Forest</text>
<text text-anchor="middle" x="240.039" y="-401.293" font-family="Times,serif" font-size="14.00" fill="#ebc72d">Guardian</text>
</a>
</g>
</g>
<!-- lore_house&#45;&gt;tree_of_life -->
<g id="edge4" class="edge"><title>lore_house&#45;&gt;tree_of_life</title>
<path fill="none" stroke="#ebc72d" stroke-dasharray="1,5" d="M57.0395,-180.516C57.0395,-170.827 57.0395,-159.569 57.0395,-148.792"/>
<polygon fill="#ebc72d" stroke="#ebc72d" points="60.5396,-148.674 57.0395,-138.674 53.5396,-148.674 60.5396,-148.674"/>
</g>
</g>
</svg>
