<?xml version="1.0" encoding="UTF-8" standalone="no"?>
<!DOCTYPE svg PUBLIC "-//W3C//DTD SVG 1.1//EN"
 "http://www.w3.org/Graphics/SVG/1.1/DTD/svg11.dtd">
<!-- Generated by graphviz version 2.38.0 (20140413.2041)
 -->
<!-- Title: test Pages: 1 -->
<svg width="343pt" height="351pt"
 viewBox="0.00 0.00 342.53 351.28" xmlns="http://www.w3.org/2000/svg" xmlns:xlink="http://www.w3.org/1999/xlink">
<g id="graph0" class="graph" transform="scale(1 1) rotate(0) translate(4 347.279)">
<title>test</title>
<polygon fill="#151515" stroke="none" points="-4,4 -4,-347.279 338.532,-347.279 338.532,4 -4,4"/>
<!-- forge -->
<g id="node1" class="node"><title>forge</title>
<g id="a_node1"><a xlink:href="elves_forge_full.html" xlink:title="Forge">
<polygon fill="none" stroke="red" points="182.596,-110.776 143.972,-123.213 105.348,-110.776 105.384,-90.6509 182.56,-90.6509 182.596,-110.776"/>
<text text-anchor="middle" x="143.972" y="-101.513" font-family="Times,serif" font-size="14.00" fill="#ebc72d">Forge</text>
</a>
</g>
</g>
<!-- corral -->
<g id="node2" class="node"><title>corral</title>
<g id="a_node2"><a xlink:href="elves_corral_full.html" xlink:title="Corral">
<polygon fill="none" stroke="red" points="81.9161,-213.202 40.972,-225.64 0.0279629,-213.202 0.0661793,-193.077 81.8779,-193.077 81.9161,-213.202"/>
<text text-anchor="middle" x="40.972" y="-203.94" font-family="Times,serif" font-size="14.00" fill="#ebc72d">Corral</text>
</a>
</g>
</g>
<!-- academy -->
<g id="node3" class="node"><title>academy</title>
<g id="a_node3"><a xlink:href="elves_academy_full.html" xlink:title="Academy">
<polygon fill="none" stroke="red" points="199.338,-315.628 143.972,-328.066 88.6065,-315.628 88.6582,-295.504 199.286,-295.504 199.338,-315.628"/>
<text text-anchor="middle" x="143.972" y="-306.366" font-family="Times,serif" font-size="14.00" fill="#ebc72d">Academy</text>
</a>
</g>
</g>
<!-- academy&#45;&gt;corral -->
<g id="edge1" class="edge"><title>academy&#45;&gt;corral</title>
<path fill="none" stroke="#ebc72d" stroke-dasharray="1,5" d="M129.65,-295.102C112.005,-277.898 81.8915,-248.537 61.716,-228.865"/>
<polygon fill="#ebc72d" stroke="#ebc72d" points="64.1202,-226.321 54.5169,-221.846 59.2335,-231.333 64.1202,-226.321"/>
</g>
<!-- wood_hall -->
<g id="node4" class="node"><title>wood_hall</title>
<g id="a_node4"><a xlink:href="elves_wood_hall_full.html" xlink:title="Wood\nHall">
<polygon fill="none" stroke="red" points="187.876,-217.969 143.972,-241.067 100.068,-217.969 100.109,-180.596 187.835,-180.596 187.876,-217.969"/>
<text text-anchor="middle" x="143.972" y="-211.44" font-family="Times,serif" font-size="14.00" fill="#ebc72d">Wood</text>
<text text-anchor="middle" x="143.972" y="-196.44" font-family="Times,serif" font-size="14.00" fill="#ebc72d">Hall</text>
</a>
</g>
</g>
<!-- academy&#45;&gt;wood_hall -->
<g id="edge3" class="edge"><title>academy&#45;&gt;wood_hall</title>
<path fill="none" stroke="#ebc72d" stroke-dasharray="1,5" d="M143.972,-295.102C143.972,-283.696 143.972,-266.946 143.972,-251.219"/>
<polygon fill="#ebc72d" stroke="#ebc72d" points="147.472,-251.098 143.972,-241.098 140.472,-251.098 147.472,-251.098"/>
</g>
<!-- lore_house -->
<g id="node8" class="node"><title>lore_house</title>
<g id="a_node8"><a xlink:href="elves_lore_house_full.html" xlink:title="Lore\nHouse">
<polygon fill="none" stroke="red" points="294.623,-217.969 249.972,-241.067 205.321,-217.969 205.362,-180.596 294.582,-180.596 294.623,-217.969"/>
<text text-anchor="middle" x="249.972" y="-211.44" font-family="Times,serif" font-size="14.00" fill="#ebc72d">Lore</text>
<text text-anchor="middle" x="249.972" y="-196.44" font-family="Times,serif" font-size="14.00" fill="#ebc72d">House</text>
</a>
</g>
</g>
<!-- academy&#45;&gt;lore_house -->
<g id="edge2" class="edge"><title>academy&#45;&gt;lore_house</title>
<path fill="none" stroke="#ebc72d" stroke-dasharray="1,5" d="M158.711,-295.102C174.55,-280.096 200.15,-255.842 220.212,-236.835"/>
<polygon fill="#ebc72d" stroke="#ebc72d" points="222.745,-239.256 227.597,-229.838 217.931,-234.175 222.745,-239.256"/>
</g>
<!-- wood_hall&#45;&gt;forge -->
<g id="edge6" class="edge"><title>wood_hall&#45;&gt;forge</title>
<path fill="none" stroke="#ebc72d" stroke-dasharray="1,5" d="M143.972,-180.516C143.972,-166.159 143.972,-148.359 143.972,-133.781"/>
<polygon fill="#ebc72d" stroke="#ebc72d" points="147.472,-133.371 143.972,-123.371 140.472,-133.371 147.472,-133.371"/>
</g>
<!-- sanctuary -->
<g id="node5" class="node"><title>sanctuary</title>
<g id="a_node5"><a xlink:href="elves_sanctuary_full.html" xlink:title="Sanctuary">
<polygon fill="none" stroke="red" points="307.051,-23.5623 249.972,-36 192.893,-23.5623 192.946,-3.43769 306.998,-3.43769 307.051,-23.5623"/>
<text text-anchor="middle" x="249.972" y="-14.3" font-family="Times,serif" font-size="14.00" fill="#ebc72d">Sanctuary</text>
</a>
</g>
</g>
<!-- tree_of_life -->
<g id="node6" class="node"><title>tree_of_life</title>
<g id="a_node6"><a xlink:href="elves_tree_of_life_full.html" xlink:title="Tree\nOf Life">
<polygon fill="none" stroke="red" points="299.612,-115.543 249.972,-138.641 200.332,-115.543 200.378,-78.1695 299.566,-78.1695 299.612,-115.543"/>
<text text-anchor="middle" x="249.972" y="-109.013" font-family="Times,serif" font-size="14.00" fill="#ebc72d">Tree</text>
<text text-anchor="middle" x="249.972" y="-94.0132" font-family="Times,serif" font-size="14.00" fill="#ebc72d">Of Life</text>
</a>
</g>
</g>
<!-- tree_of_life&#45;&gt;sanctuary -->
<g id="edge5" class="edge"><title>tree_of_life&#45;&gt;sanctuary</title>
<path fill="none" stroke="#ebc72d" stroke-dasharray="1,5" d="M249.972,-77.7183C249.972,-67.744 249.972,-56.388 249.972,-46.3382"/>
<polygon fill="#ebc72d" stroke="#ebc72d" points="253.472,-46.0729 249.972,-36.0729 246.472,-46.0729 253.472,-46.0729"/>
</g>
<!-- forest_guardian -->
<g id="node7" class="node"><title>forest_guardian</title>
<g id="a_node7"><a xlink:href="elves_forest_guardian_full.html" xlink:title="Forest\nGuardian">
<polygon fill="none" stroke="red" points="334.592,-320.396 275.972,-343.494 217.352,-320.396 217.406,-283.022 334.538,-283.022 334.592,-320.396"/>
<text text-anchor="middle" x="275.972" y="-313.866" font-family="Times,serif" font-size="14.00" fill="#ebc72d">Forest</text>
<text text-anchor="middle" x="275.972" y="-298.866" font-family="Times,serif" font-size="14.00" fill="#ebc72d">Guardian</text>
</a>
</g>
</g>
<!-- lore_house&#45;&gt;tree_of_life -->
<g id="edge4" class="edge"><title>lore_house&#45;&gt;tree_of_life</title>
<path fill="none" stroke="#ebc72d" stroke-dasharray="1,5" d="M249.972,-180.516C249.972,-170.827 249.972,-159.569 249.972,-148.792"/>
<polygon fill="#ebc72d" stroke="#ebc72d" points="253.472,-148.674 249.972,-138.674 246.472,-148.674 253.472,-148.674"/>
</g>
</g>
</svg>
