<?xml version="1.0" encoding="UTF-8" standalone="no"?>
<!DOCTYPE svg PUBLIC "-//W3C//DTD SVG 1.1//EN"
 "http://www.w3.org/Graphics/SVG/1.1/DTD/svg11.dtd">
<!-- Generated by graphviz version 2.38.0 (20140413.2041)
 -->
<!-- Title: test Pages: 1 -->
<svg width="810pt" height="692pt"
 viewBox="0.00 0.00 809.71 692.50" xmlns="http://www.w3.org/2000/svg" xmlns:xlink="http://www.w3.org/1999/xlink">
<g id="graph0" class="graph" transform="scale(1 1) rotate(0) translate(4 688.5)">
<title>test</title>
<polygon fill="#151515" stroke="none" points="-4,4 -4,-688.5 805.707,-688.5 805.707,4 -4,4"/>
<!-- dryad -->
<g id="node1" class="node"><title>dryad</title>
<g id="a_node1"><a xlink:href="elves_dryad_full.html" xlink:title="Dryad">
<ellipse fill="none" stroke="magenta" cx="101.56" cy="-18" rx="32.4942" ry="18"/>
<text text-anchor="middle" x="101.56" y="-14.3" font-family="Times,serif" font-size="14.00" fill="#ebc72d">Dryad</text>
</a>
</g>
</g>
<!-- grey_elf_archer -->
<g id="node2" class="node"><title>grey_elf_archer</title>
<g id="a_node2"><a xlink:href="elves_grey_elf_archer_full.html" xlink:title="Grey\nElf Archer">
<ellipse fill="none" stroke="magenta" cx="435.56" cy="-291.037" rx="52.1524" ry="26.7407"/>
<text text-anchor="middle" x="435.56" y="-294.837" font-family="Times,serif" font-size="14.00" fill="#ebc72d">Grey</text>
<text text-anchor="middle" x="435.56" y="-279.837" font-family="Times,serif" font-size="14.00" fill="#ebc72d">Elf Archer</text>
</a>
</g>
</g>
<!-- forge -->
<g id="node3" class="node"><title>forge</title>
<g id="a_node3"><a xlink:href="elves_forge_full.html" xlink:title="Forge">
<polygon fill="none" stroke="red" points="675.184,-392.682 636.56,-405.12 597.936,-392.682 597.972,-372.558 675.148,-372.558 675.184,-392.682"/>
<text text-anchor="middle" x="636.56" y="-383.42" font-family="Times,serif" font-size="14.00" fill="#ebc72d">Forge</text>
</a>
</g>
</g>
<!-- corral -->
<g id="node4" class="node"><title>corral</title>
<g id="a_node4"><a xlink:href="elves_corral_full.html" xlink:title="Corral">
<polygon fill="none" stroke="red" points="319.504,-392.682 278.56,-405.12 237.616,-392.682 237.654,-372.558 319.466,-372.558 319.504,-392.682"/>
<text text-anchor="middle" x="278.56" y="-383.42" font-family="Times,serif" font-size="14.00" fill="#ebc72d">Corral</text>
</a>
</g>
</g>
<!-- reaver -->
<g id="node8" class="node"><title>reaver</title>
<g id="a_node8"><a xlink:href="elves_reaver_full.html" xlink:title="Reaver">
<ellipse fill="none" stroke="magenta" cx="417.56" cy="-201.296" rx="35.9954" ry="18"/>
<text text-anchor="middle" x="417.56" y="-197.596" font-family="Times,serif" font-size="14.00" fill="#ebc72d">Reaver</text>
</a>
</g>
</g>
<!-- corral&#45;&gt;reaver -->
<g id="edge5" class="edge"><title>corral&#45;&gt;reaver</title>
<path fill="none" stroke="#ebc72d" d="M262.56,-290.037C280.648,-236.942 322.034,-252.526 372.56,-228.167 377.21,-225.925 382.032,-223.391 386.716,-220.808"/>
<polygon fill="#ebc72d" stroke="#ebc72d" points="388.499,-223.821 395.473,-215.845 385.047,-217.731 388.499,-223.821"/>
</g>
<!-- corral_gryphon_nest -->
<g id="node10" class="node"><title>corral_gryphon_nest</title>
<g id="a_node10"><a xlink:href="elves_corral_gryphon_nest_full.html" xlink:title="Corral\nGryphon Nest">
<ellipse fill="none" stroke="magenta" cx="571.56" cy="-291.037" rx="65.5227" ry="26.7407"/>
<text text-anchor="middle" x="571.56" y="-294.837" font-family="Times,serif" font-size="14.00" fill="#ebc72d">Corral</text>
<text text-anchor="middle" x="571.56" y="-279.837" font-family="Times,serif" font-size="14.00" fill="#ebc72d">Gryphon Nest</text>
</a>
</g>
</g>
<!-- corral&#45;&gt;corral_gryphon_nest -->
<g id="edge4" class="edge"><title>corral&#45;&gt;corral_gryphon_nest</title>
<path fill="none" stroke="#ebc72d" stroke-dasharray="5,2" d="M296.204,-372.511C305.405,-366.011 317.107,-358.637 328.56,-353.907 399.138,-324.754 422.998,-338.394 496.56,-317.907 502.17,-316.344 507.973,-314.592 513.752,-312.756"/>
<polygon fill="#ebc72d" stroke="#ebc72d" points="514.994,-316.032 523.417,-309.604 512.824,-309.377 514.994,-316.032"/>
</g>
<!-- silver_helm_lancer -->
<g id="node15" class="node"><title>silver_helm_lancer</title>
<g id="a_node15"><a xlink:href="elves_silver_helm_lancer_full.html" xlink:title="Silver\nHelm Lancer">
<ellipse fill="none" stroke="magenta" cx="300.56" cy="-201.296" rx="62.8651" ry="26.7407"/>
<text text-anchor="middle" x="300.56" y="-205.096" font-family="Times,serif" font-size="14.00" fill="#ebc72d">Silver</text>
<text text-anchor="middle" x="300.56" y="-190.096" font-family="Times,serif" font-size="14.00" fill="#ebc72d">Helm Lancer</text>
</a>
</g>
</g>
<!-- corral&#45;&gt;silver_helm_lancer -->
<g id="edge6" class="edge"><title>corral&#45;&gt;silver_helm_lancer</title>
<path fill="none" stroke="#ebc72d" d="M272.094,-372.386C264.246,-353.757 253.157,-319.639 262.56,-292.037"/>
<path fill="none" stroke="#ebc72d" d="M262.56,-290.037C268.589,-272.34 276.668,-253.232 283.826,-237.38"/>
<polygon fill="#ebc72d" stroke="#ebc72d" points="287.153,-238.521 288.138,-227.972 280.79,-235.605 287.153,-238.521"/>
</g>
<!-- minstrel -->
<g id="node5" class="node"><title>minstrel</title>
<g id="a_node5"><a xlink:href="elves_minstrel_full.html" xlink:title="Minstrel">
<ellipse fill="none" stroke="magenta" cx="137.56" cy="-291.037" rx="40.8928" ry="18"/>
<text text-anchor="middle" x="137.56" y="-287.337" font-family="Times,serif" font-size="14.00" fill="#ebc72d">Minstrel</text>
</a>
</g>
</g>
<!-- minstrel&#45;&gt;dryad -->
<g id="edge29" class="edge"><title>minstrel&#45;&gt;dryad</title>
<path fill="none" stroke="#ebc72d" d="M138.913,-273.024C141.39,-235.873 144.851,-144.978 126.56,-72 124.224,-62.679 120.208,-53.0212 116.071,-44.544"/>
<polygon fill="#ebc72d" stroke="#ebc72d" points="119.128,-42.8357 111.43,-35.5556 112.908,-46.0469 119.128,-42.8357"/>
</g>
<!-- ent -->
<g id="node7" class="node"><title>ent</title>
<g id="a_node7"><a xlink:href="elves_ent_full.html" xlink:title="Ent">
<ellipse fill="none" stroke="magenta" cx="65.5601" cy="-201.296" rx="27" ry="18"/>
<text text-anchor="middle" x="65.5601" y="-197.596" font-family="Times,serif" font-size="14.00" fill="#ebc72d">Ent</text>
</a>
</g>
</g>
<!-- minstrel&#45;&gt;ent -->
<g id="edge30" class="edge"><title>minstrel&#45;&gt;ent</title>
<path fill="none" stroke="#ebc72d" d="M124.354,-273.944C113.187,-260.336 97.05,-240.67 84.5055,-225.384"/>
<polygon fill="#ebc72d" stroke="#ebc72d" points="87.0097,-222.918 77.9604,-217.408 81.5984,-227.358 87.0097,-222.918"/>
</g>
<!-- prince -->
<g id="node6" class="node"><title>prince</title>
<g id="a_node6"><a xlink:href="elves_prince_full.html" xlink:title="Prince">
<ellipse fill="none" stroke="magenta" cx="768.56" cy="-201.296" rx="33.2948" ry="18"/>
<text text-anchor="middle" x="768.56" y="-197.596" font-family="Times,serif" font-size="14.00" fill="#ebc72d">Prince</text>
</a>
</g>
</g>
<!-- forest_guardian -->
<g id="node19" class="node"><title>forest_guardian</title>
<g id="a_node19"><a xlink:href="elves_forest_guardian_full.html" xlink:title="Forest\nGuardian">
<polygon fill="none" stroke="red" points="117.181,-115.543 58.5601,-138.641 -0.0602091,-115.543 -0.00549398,-78.1695 117.126,-78.1695 117.181,-115.543"/>
<text text-anchor="middle" x="58.5601" y="-109.013" font-family="Times,serif" font-size="14.00" fill="#ebc72d">Forest</text>
<text text-anchor="middle" x="58.5601" y="-94.0132" font-family="Times,serif" font-size="14.00" fill="#ebc72d">Guardian</text>
</a>
</g>
</g>
<!-- ent&#45;&gt;forest_guardian -->
<g id="edge20" class="edge"><title>ent&#45;&gt;forest_guardian</title>
<path fill="none" stroke="#ebc72d" stroke-width="2" d="M64.2762,-183.04C63.5424,-173.176 62.5876,-160.345 61.6693,-148.001"/>
<polygon fill="#ebc72d" stroke="#ebc72d" stroke-width="2" points="65.1445,-147.536 60.912,-137.824 58.1638,-148.056 65.1445,-147.536"/>
</g>
<!-- academy -->
<g id="node9" class="node"><title>academy</title>
<g id="a_node9"><a xlink:href="elves_academy_full.html" xlink:title="Academy">
<polygon fill="none" stroke="red" points="447.926,-392.682 392.56,-405.12 337.195,-392.682 337.246,-372.558 447.874,-372.558 447.926,-392.682"/>
<text text-anchor="middle" x="392.56" y="-383.42" font-family="Times,serif" font-size="14.00" fill="#ebc72d">Academy</text>
</a>
</g>
</g>
<!-- academy&#45;&gt;grey_elf_archer -->
<g id="edge2" class="edge"><title>academy&#45;&gt;grey_elf_archer</title>
<path fill="none" stroke="#ebc72d" d="M398.905,-372.238C404.361,-360.301 412.465,-342.568 419.667,-326.81"/>
<polygon fill="#ebc72d" stroke="#ebc72d" points="423.03,-327.873 424.003,-317.323 416.663,-324.963 423.03,-327.873"/>
</g>
<!-- galadrim_archer -->
<g id="node13" class="node"><title>galadrim_archer</title>
<g id="a_node13"><a xlink:href="elves_galadrim_archer_full.html" xlink:title="Galadrim\nArcher">
<ellipse fill="none" stroke="magenta" cx="703.56" cy="-291.037" rx="48.1667" ry="26.7407"/>
<text text-anchor="middle" x="703.56" y="-294.837" font-family="Times,serif" font-size="14.00" fill="#ebc72d">Galadrim</text>
<text text-anchor="middle" x="703.56" y="-279.837" font-family="Times,serif" font-size="14.00" fill="#ebc72d">Archer</text>
</a>
</g>
</g>
<!-- academy&#45;&gt;galadrim_archer -->
<g id="edge1" class="edge"><title>academy&#45;&gt;galadrim_archer</title>
<path fill="none" stroke="#ebc72d" d="M415.885,-372.4C427.726,-365.953 442.541,-358.658 456.56,-353.907 537.959,-326.318 564.623,-343.852 646.56,-317.907 650.64,-316.615 654.813,-315.109 658.954,-313.484"/>
<polygon fill="#ebc72d" stroke="#ebc72d" points="660.604,-316.589 668.5,-309.525 657.922,-310.123 660.604,-316.589"/>
</g>
<!-- magol_hedir -->
<g id="node21" class="node"><title>magol_hedir</title>
<g id="a_node21"><a xlink:href="elves_magol_hedir_full.html" xlink:title="Magol\nHedir">
<ellipse fill="none" stroke="magenta" cx="327.56" cy="-291.037" rx="37.4533" ry="26.7407"/>
<text text-anchor="middle" x="327.56" y="-294.837" font-family="Times,serif" font-size="14.00" fill="#ebc72d">Magol</text>
<text text-anchor="middle" x="327.56" y="-279.837" font-family="Times,serif" font-size="14.00" fill="#ebc72d">Hedir</text>
</a>
</g>
</g>
<!-- academy&#45;&gt;magol_hedir -->
<g id="edge3" class="edge"><title>academy&#45;&gt;magol_hedir</title>
<path fill="none" stroke="#ebc72d" d="M382.969,-372.238C374.188,-359.528 360.867,-340.247 349.487,-323.775"/>
<polygon fill="#ebc72d" stroke="#ebc72d" points="352.311,-321.705 343.748,-315.467 346.552,-325.684 352.311,-321.705"/>
</g>
<!-- corral_gryphon_nest&#45;&gt;reaver -->
<g id="edge8" class="edge"><title>corral_gryphon_nest&#45;&gt;reaver</title>
<path fill="none" stroke="#ebc72d" d="M534.281,-268.797C508.391,-254.047 474.251,-234.595 449.588,-220.544"/>
<polygon fill="#ebc72d" stroke="#ebc72d" points="451.058,-217.353 440.636,-215.444 447.592,-223.435 451.058,-217.353"/>
</g>
<!-- corral_gryphon_nest&#45;&gt;silver_helm_lancer -->
<g id="edge9" class="edge"><title>corral_gryphon_nest&#45;&gt;silver_helm_lancer</title>
<path fill="none" stroke="#ebc72d" d="M522.861,-272.846C514.129,-269.876 505.093,-266.875 496.56,-264.167 441.863,-246.805 427.145,-245.878 372.56,-228.167 367.428,-226.501 362.111,-224.713 356.798,-222.883"/>
<polygon fill="#ebc72d" stroke="#ebc72d" points="357.873,-219.551 347.278,-219.56 355.566,-226.16 357.873,-219.551"/>
</g>
<!-- gryphon -->
<g id="node22" class="node"><title>gryphon</title>
<g id="a_node22"><a xlink:href="elves_gryphon_full.html" xlink:title="Gryphon">
<ellipse fill="none" stroke="magenta" cx="533.56" cy="-201.296" rx="42.4939" ry="18"/>
<text text-anchor="middle" x="533.56" y="-197.596" font-family="Times,serif" font-size="14.00" fill="#ebc72d">Gryphon</text>
</a>
</g>
</g>
<!-- corral_gryphon_nest&#45;&gt;gryphon -->
<g id="edge7" class="edge"><title>corral_gryphon_nest&#45;&gt;gryphon</title>
<path fill="none" stroke="#ebc72d" d="M560.364,-264.186C555.488,-252.926 549.781,-239.75 544.889,-228.455"/>
<polygon fill="#ebc72d" stroke="#ebc72d" points="548.028,-226.895 540.842,-219.11 541.605,-229.677 548.028,-226.895"/>
</g>
<!-- taming_song -->
<g id="node23" class="node"><title>taming_song</title>
<ellipse fill="none" stroke="black" cx="650.56" cy="-201.296" rx="56.59" ry="18"/>
<text text-anchor="middle" x="650.56" y="-197.596" font-family="Times,serif" font-size="14.00">taming_song</text>
</g>
<!-- corral_gryphon_nest&#45;&gt;taming_song -->
<g id="edge10" class="edge"><title>corral_gryphon_nest&#45;&gt;taming_song</title>
<path fill="none" stroke="#ebc72d" stroke-dasharray="1,5" d="M593.566,-265.596C604.577,-253.367 617.86,-238.614 628.832,-226.428"/>
<polygon fill="#ebc72d" stroke="#ebc72d" points="631.571,-228.617 635.662,-218.843 626.369,-223.933 631.571,-228.617"/>
</g>
<!-- wood_hall -->
<g id="node11" class="node"><title>wood_hall</title>
<g id="a_node11"><a xlink:href="elves_wood_hall_full.html" xlink:title="Wood\nHall">
<polygon fill="none" stroke="red" points="181.464,-397.45 137.56,-420.548 93.656,-397.45 93.697,-360.076 181.423,-360.076 181.464,-397.45"/>
<text text-anchor="middle" x="137.56" y="-390.92" font-family="Times,serif" font-size="14.00" fill="#ebc72d">Wood</text>
<text text-anchor="middle" x="137.56" y="-375.92" font-family="Times,serif" font-size="14.00" fill="#ebc72d">Hall</text>
</a>
</g>
</g>
<!-- wood_hall&#45;&gt;minstrel -->
<g id="edge35" class="edge"><title>wood_hall&#45;&gt;minstrel</title>
<path fill="none" stroke="#ebc72d" d="M137.56,-359.912C137.56,-347.254 137.56,-332.073 137.56,-319.281"/>
<polygon fill="#ebc72d" stroke="#ebc72d" points="141.06,-319.206 137.56,-309.206 134.06,-319.206 141.06,-319.206"/>
</g>
<!-- gryphon_rider -->
<g id="node12" class="node"><title>gryphon_rider</title>
<g id="a_node12"><a xlink:href="elves_gryphon_rider_full.html" xlink:title="Gryphon\nRider">
<ellipse fill="none" stroke="magenta" cx="533.56" cy="-105.213" rx="45.9239" ry="26.7407"/>
<text text-anchor="middle" x="533.56" y="-109.013" font-family="Times,serif" font-size="14.00" fill="#ebc72d">Gryphon</text>
<text text-anchor="middle" x="533.56" y="-94.0132" font-family="Times,serif" font-size="14.00" fill="#ebc72d">Rider</text>
</a>
</g>
</g>
<!-- galadrim_archer&#45;&gt;prince -->
<g id="edge22" class="edge"><title>galadrim_archer&#45;&gt;prince</title>
<path fill="none" stroke="#ebc72d" stroke-dasharray="5,2" d="M721.322,-266.061C730.484,-253.694 741.629,-238.65 750.792,-226.281"/>
<polygon fill="#ebc72d" stroke="#ebc72d" points="753.63,-228.33 756.77,-218.211 748.005,-224.163 753.63,-228.33"/>
</g>
<!-- sanctuary -->
<g id="node14" class="node"><title>sanctuary</title>
<g id="a_node14"><a xlink:href="elves_sanctuary_full.html" xlink:title="Sanctuary">
<polygon fill="none" stroke="red" points="579.639,-392.682 522.56,-405.12 465.481,-392.682 465.534,-372.558 579.586,-372.558 579.639,-392.682"/>
<text text-anchor="middle" x="522.56" y="-383.42" font-family="Times,serif" font-size="14.00" fill="#ebc72d">Sanctuary</text>
</a>
</g>
</g>
<!-- wise_elf -->
<g id="node16" class="node"><title>wise_elf</title>
<g id="a_node16"><a xlink:href="elves_wise_elf_full.html" xlink:title="Wise\nElf">
<ellipse fill="none" stroke="magenta" cx="392.56" cy="-657.63" rx="31.6406" ry="26.7407"/>
<text text-anchor="middle" x="392.56" y="-661.43" font-family="Times,serif" font-size="14.00" fill="#ebc72d">Wise</text>
<text text-anchor="middle" x="392.56" y="-646.43" font-family="Times,serif" font-size="14.00" fill="#ebc72d">Elf</text>
</a>
</g>
</g>
<!-- wise_elf&#45;&gt;ent -->
<g id="edge32" class="edge"><title>wise_elf&#45;&gt;ent</title>
<path fill="none" stroke="#ebc72d" stroke-dasharray="1,5" d="M65.5601,-290.037C62.5517,-269.951 62.6769,-246.988 63.4878,-229.593"/>
<polygon fill="#ebc72d" stroke="#ebc72d" points="66.985,-229.74 64.0593,-219.557 59.9963,-229.342 66.985,-229.74"/>
</g>
<!-- tree_of_life -->
<g id="node18" class="node"><title>tree_of_life</title>
<g id="a_node18"><a xlink:href="elves_tree_of_life_full.html" xlink:title="Tree\nOf Life">
<polygon fill="none" stroke="red" points="481.2,-571.876 431.56,-594.974 381.92,-571.876 381.966,-534.503 481.154,-534.503 481.2,-571.876"/>
<text text-anchor="middle" x="431.56" y="-565.346" font-family="Times,serif" font-size="14.00" fill="#ebc72d">Tree</text>
<text text-anchor="middle" x="431.56" y="-550.346" font-family="Times,serif" font-size="14.00" fill="#ebc72d">Of Life</text>
</a>
</g>
</g>
<!-- wise_elf&#45;&gt;tree_of_life -->
<g id="edge34" class="edge"><title>wise_elf&#45;&gt;tree_of_life</title>
<path fill="none" stroke="#ebc72d" stroke-width="2" d="M402.807,-631.91C406.961,-621.888 411.845,-610.107 416.397,-599.126"/>
<polygon fill="#ebc72d" stroke="#ebc72d" stroke-width="2" points="419.689,-600.325 420.285,-589.747 413.222,-597.645 419.689,-600.325"/>
</g>
<!-- wise_elf&#45;&gt;forest_guardian -->
<g id="edge33" class="edge"><title>wise_elf&#45;&gt;forest_guardian</title>
<path fill="none" stroke="#ebc72d" stroke-width="2" d="M364.604,-644.334C302.447,-615.387 152.9,-536.516 84.5601,-420.333 55.3353,-370.648 74.0988,-349.043 65.5601,-292.037"/>
<path fill="none" stroke="#ebc72d" stroke-width="2" d="M65.5601,-290.037C59.063,-258.893 37.8461,-258.883 29.5601,-228.167 23.3394,-205.106 24.7918,-197.83 29.5601,-174.426 31.7407,-163.724 35.663,-152.621 39.9325,-142.558"/>
<polygon fill="#ebc72d" stroke="#ebc72d" stroke-width="2" points="43.1961,-143.834 44.0868,-133.276 36.8068,-140.974 43.1961,-143.834"/>
</g>
<!-- elf -->
<g id="node17" class="node"><title>elf</title>
<g id="a_node17"><a xlink:href="elves_elf_full.html" xlink:title="Elf">
<ellipse fill="none" stroke="magenta" cx="392.56" cy="-474.333" rx="27" ry="18"/>
<text text-anchor="middle" x="392.56" y="-470.633" font-family="Times,serif" font-size="14.00" fill="#ebc72d">Elf</text>
</a>
</g>
</g>
<!-- elf&#45;&gt;forge -->
<g id="edge14" class="edge"><title>elf&#45;&gt;forge</title>
<path fill="none" stroke="#ebc72d" stroke-width="2" d="M418.54,-469.107C456.971,-462.244 530.662,-446.717 588.56,-420.333 596.962,-416.504 605.524,-411.267 613.047,-406.128"/>
<polygon fill="#ebc72d" stroke="#ebc72d" stroke-width="2" points="615.212,-408.883 621.327,-400.231 611.151,-403.181 615.212,-408.883"/>
</g>
<!-- elf&#45;&gt;corral -->
<g id="edge12" class="edge"><title>elf&#45;&gt;corral</title>
<path fill="none" stroke="#ebc72d" stroke-width="2" d="M375.246,-460.391C356,-446.005 324.771,-422.662 303.031,-406.412"/>
<polygon fill="#ebc72d" stroke="#ebc72d" stroke-width="2" points="305.031,-403.537 294.926,-400.353 300.84,-409.143 305.031,-403.537"/>
</g>
<!-- elf&#45;&gt;academy -->
<g id="edge11" class="edge"><title>elf&#45;&gt;academy</title>
<path fill="none" stroke="#ebc72d" stroke-width="2" d="M392.56,-456.089C392.56,-444.423 392.56,-428.77 392.56,-415.425"/>
<polygon fill="#ebc72d" stroke="#ebc72d" stroke-width="2" points="396.06,-415.338 392.56,-405.338 389.06,-415.338 396.06,-415.338"/>
</g>
<!-- elf&#45;&gt;wood_hall -->
<g id="edge19" class="edge"><title>elf&#45;&gt;wood_hall</title>
<path fill="none" stroke="#ebc72d" stroke-width="2" d="M366.723,-468.486C328.445,-460.839 254.812,-444.336 195.56,-420.333 188.734,-417.568 181.7,-414.175 174.988,-410.639"/>
<polygon fill="#ebc72d" stroke="#ebc72d" stroke-width="2" points="176.537,-407.498 166.083,-405.776 173.182,-413.641 176.537,-407.498"/>
</g>
<!-- elf&#45;&gt;sanctuary -->
<g id="edge16" class="edge"><title>elf&#45;&gt;sanctuary</title>
<path fill="none" stroke="#ebc72d" stroke-width="2" d="M411.186,-461.124C432.916,-446.881 469.073,-423.18 494.274,-406.661"/>
<polygon fill="#ebc72d" stroke="#ebc72d" stroke-width="2" points="496.245,-409.554 502.69,-401.145 492.408,-403.699 496.245,-409.554"/>
</g>
<!-- elf&#45;&gt;wise_elf -->
<g id="edge18" class="edge"><title>elf&#45;&gt;wise_elf</title>
<path fill="none" stroke="#ebc72d" stroke-dasharray="5,2" d="M384.668,-491.602C380.134,-501.87 374.89,-515.562 372.56,-528.333 367.263,-557.377 367.964,-565.597 372.56,-594.76 374.003,-603.915 376.578,-613.561 379.409,-622.442"/>
<polygon fill="#ebc72d" stroke="#ebc72d" points="376.149,-623.726 382.669,-632.077 382.78,-621.483 376.149,-623.726"/>
</g>
<!-- elf&#45;&gt;forest_guardian -->
<g id="edge13" class="edge"><title>elf&#45;&gt;forest_guardian</title>
<path fill="none" stroke="#ebc72d" stroke-width="2" d="M365.434,-472.276C329.055,-469.359 264.847,-458.705 228.56,-420.333 179.255,-368.195 220.11,-328.119 187.56,-264.167 162.317,-214.57 119.442,-166.332 90.1023,-136.481"/>
<polygon fill="#ebc72d" stroke="#ebc72d" stroke-width="2" points="92.4886,-133.917 82.9536,-129.298 87.5271,-138.855 92.4886,-133.917"/>
</g>
<!-- lore_house -->
<g id="node20" class="node"><title>lore_house</title>
<g id="a_node20"><a xlink:href="elves_lore_house_full.html" xlink:title="Lore\nHouse">
<polygon fill="none" stroke="red" points="782.212,-397.45 737.56,-420.548 692.909,-397.45 692.95,-360.076 782.17,-360.076 782.212,-397.45"/>
<text text-anchor="middle" x="737.56" y="-390.92" font-family="Times,serif" font-size="14.00" fill="#ebc72d">Lore</text>
<text text-anchor="middle" x="737.56" y="-375.92" font-family="Times,serif" font-size="14.00" fill="#ebc72d">House</text>
</a>
</g>
</g>
<!-- elf&#45;&gt;lore_house -->
<g id="edge15" class="edge"><title>elf&#45;&gt;lore_house</title>
<path fill="none" stroke="#ebc72d" stroke-width="2" d="M428.421,-467.183C503.772,-454.212 672.613,-424.869 684.56,-420.333 690.506,-418.076 696.529,-415.145 702.278,-411.973"/>
<polygon fill="#ebc72d" stroke="#ebc72d" stroke-width="2" points="427.698,-463.756 418.436,-468.901 428.884,-470.655 427.698,-463.756"/>
<polygon fill="#ebc72d" stroke="#ebc72d" stroke-width="2" points="704.171,-414.92 711.034,-406.849 700.636,-408.878 704.171,-414.92"/>
</g>
<!-- tree_of_life&#45;&gt;elf -->
<g id="edge31" class="edge"><title>tree_of_life&#45;&gt;elf</title>
<path fill="none" stroke="#ebc72d" d="M415.126,-524.638C411.471,-516.653 407.67,-508.347 404.252,-500.878"/>
<polygon fill="#ebc72d" stroke="#ebc72d" points="412.09,-526.415 419.434,-534.051 418.455,-523.502 412.09,-526.415"/>
<polygon fill="#ebc72d" stroke="#ebc72d" points="407.368,-499.277 400.024,-491.64 401.003,-502.19 407.368,-499.277"/>
</g>
<!-- forest_guardian&#45;&gt;dryad -->
<g id="edge21" class="edge"><title>forest_guardian&#45;&gt;dryad</title>
<path fill="none" stroke="#ebc72d" d="M71.9299,-77.7183C77.2528,-67.1699 83.3554,-55.0763 88.6336,-44.6165"/>
<polygon fill="#ebc72d" stroke="#ebc72d" points="91.8227,-46.0656 93.2032,-35.561 85.5733,-42.912 91.8227,-46.0656"/>
</g>
<!-- lore_house&#45;&gt;prince -->
<g id="edge26" class="edge"><title>lore_house&#45;&gt;prince</title>
<path fill="none" stroke="#ebc72d" stroke-dasharray="1,5" d="M748.125,-359.986C752.732,-347.462 757.721,-332.123 760.56,-317.907 766.514,-288.101 768.227,-253.211 768.63,-229.619"/>
<polygon fill="#ebc72d" stroke="#ebc72d" points="772.133,-229.36 768.736,-219.325 765.134,-229.289 772.133,-229.36"/>
</g>
<!-- lore_house&#45;&gt;corral_gryphon_nest -->
<g id="edge24" class="edge"><title>lore_house&#45;&gt;corral_gryphon_nest</title>
<path fill="none" stroke="#ebc72d" stroke-dasharray="1,5" d="M694.848,-359.932C691.378,-357.875 687.917,-355.845 684.56,-353.907 663.395,-341.689 639.712,-328.629 619.515,-317.673"/>
<polygon fill="#ebc72d" stroke="#ebc72d" points="620.964,-314.477 610.503,-312.797 617.633,-320.634 620.964,-314.477"/>
</g>
<!-- lore_house&#45;&gt;wise_elf -->
<g id="edge28" class="edge"><title>lore_house&#45;&gt;wise_elf</title>
<path fill="none" stroke="#ebc72d" d="M509.56,-475.333C470.522,-512.275 520.136,-549.883 490.56,-594.76 474.173,-619.624 443.979,-636.418 421.42,-646.162"/>
</g>
<!-- lore_house&#45;&gt;tree_of_life -->
<g id="edge27" class="edge"><title>lore_house&#45;&gt;tree_of_life</title>
<path fill="none" stroke="#ebc72d" stroke-dasharray="1,5" d="M710.22,-406.538C702.178,-411.454 693.212,-416.468 684.56,-420.333 613.548,-452.054 572.237,-420.442 517.077,-466.629"/>
<polygon fill="#ebc72d" stroke="#ebc72d" points="514.694,-464.065 509.56,-473.333 519.353,-469.289 514.694,-464.065"/>
<path fill="none" stroke="#ebc72d" stroke-dasharray="1,5" d="M509.56,-475.333C489.749,-494.081 468.973,-516.959 453.849,-534.287"/>
</g>
<!-- gryphon&#45;&gt;gryphon_rider -->
<g id="edge23" class="edge"><title>gryphon&#45;&gt;gryphon_rider</title>
<path fill="none" stroke="#ebc72d" stroke-dasharray="5,2" d="M533.56,-183.04C533.56,-171.711 533.56,-156.466 533.56,-142.543"/>
<polygon fill="#ebc72d" stroke="#ebc72d" points="537.06,-142.241 533.56,-132.241 530.06,-142.241 537.06,-142.241"/>
</g>
</g>
</svg>
