<?xml version="1.0" encoding="UTF-8" standalone="no"?>
<!DOCTYPE svg PUBLIC "-//W3C//DTD SVG 1.1//EN"
 "http://www.w3.org/Graphics/SVG/1.1/DTD/svg11.dtd">
<!-- Generated by graphviz version 2.38.0 (20140413.2041)
 -->
<!-- Title: test Pages: 1 -->
<svg width="1423pt" height="737pt"
 viewBox="0.00 0.00 1423.43 737.02" xmlns="http://www.w3.org/2000/svg" xmlns:xlink="http://www.w3.org/1999/xlink">
<g id="graph0" class="graph" transform="scale(1 1) rotate(0) translate(4 733.019)">
<title>test</title>
<polygon fill="#151515" stroke="none" points="-4,4 -4,-733.019 1419.43,-733.019 1419.43,4 -4,4"/>
<!-- dryad -->
<g id="node1" class="node"><title>dryad</title>
<g id="a_node1"><a xlink:href="elves_dryad_full.html" xlink:title="Dryad">
<ellipse fill="none" stroke="magenta" cx="133.178" cy="-18" rx="32.4942" ry="18"/>
<text text-anchor="middle" x="133.178" y="-14.3" font-family="Times,serif" font-size="14.00" fill="#ebc72d">Dryad</text>
</a>
</g>
</g>
<!-- grey_elf_archer -->
<g id="node2" class="node"><title>grey_elf_archer</title>
<g id="a_node2"><a xlink:href="elves_grey_elf_archer_full.html" xlink:title="Grey\nElf Archer">
<ellipse fill="none" stroke="magenta" cx="714.178" cy="-324.426" rx="52.1524" ry="26.7407"/>
<text text-anchor="middle" x="714.178" y="-328.226" font-family="Times,serif" font-size="14.00" fill="#ebc72d">Grey</text>
<text text-anchor="middle" x="714.178" y="-313.226" font-family="Times,serif" font-size="14.00" fill="#ebc72d">Elf Archer</text>
</a>
</g>
</g>
<!-- forge -->
<g id="node3" class="node"><title>forge</title>
<g id="a_node3"><a xlink:href="elves_forge_full.html" xlink:title="Forge">
<polygon fill="none" stroke="red" points="323.802,-329.989 285.178,-342.426 246.555,-329.989 246.591,-309.864 323.766,-309.864 323.802,-329.989"/>
<text text-anchor="middle" x="285.178" y="-320.726" font-family="Times,serif" font-size="14.00" fill="#ebc72d">Forge</text>
</a>
</g>
</g>
<!-- noldor_weaponry -->
<g id="node26" class="node"><title>noldor_weaponry</title>
<g id="a_node26"><a xlink:href="elves_noldor_weaponry_full.html" xlink:title="Noldor\nWeaponry">
<polygon fill="none" stroke="green" points="537.119,-250.426 414.724,-250.426 383.238,-174.426 505.633,-174.426 537.119,-250.426"/>
<text text-anchor="middle" x="460.178" y="-216.226" font-family="Times,serif" font-size="14.00" fill="#ebc72d">Noldor</text>
<text text-anchor="middle" x="460.178" y="-201.226" font-family="Times,serif" font-size="14.00" fill="#ebc72d">Weaponry</text>
</a>
</g>
</g>
<!-- forge&#45;&gt;noldor_weaponry -->
<g id="edge26" class="edge"><title>forge&#45;&gt;noldor_weaponry</title>
<path fill="none" stroke="#ebc72d" d="M301.651,-309.842C310.731,-302.584 322.331,-293.677 333.178,-286.426 354.921,-271.894 379.688,-257.258 401.541,-244.946"/>
<polygon fill="#ebc72d" stroke="#ebc72d" points="403.373,-247.932 410.392,-239.996 399.956,-241.822 403.373,-247.932"/>
</g>
<!-- noldor_armour_crafting -->
<g id="node28" class="node"><title>noldor_armour_crafting</title>
<g id="a_node28"><a xlink:href="elves_noldor_armour_crafting_full.html" xlink:title="Noldor\nArmour Crafting">
<polygon fill="none" stroke="green" points="782.191,-250.426 602.414,-250.426 556.166,-174.426 735.943,-174.426 782.191,-250.426"/>
<text text-anchor="middle" x="669.178" y="-216.226" font-family="Times,serif" font-size="14.00" fill="#ebc72d">Noldor</text>
<text text-anchor="middle" x="669.178" y="-201.226" font-family="Times,serif" font-size="14.00" fill="#ebc72d">Armour Crafting</text>
</a>
</g>
</g>
<!-- forge&#45;&gt;noldor_armour_crafting -->
<g id="edge25" class="edge"><title>forge&#45;&gt;noldor_armour_crafting</title>
<path fill="none" stroke="#ebc72d" d="M299.096,-309.709C308.088,-301.652 320.452,-291.989 333.178,-286.426 421.151,-247.974 452.694,-272.297 546.178,-250.426 558.723,-247.492 571.87,-243.997 584.708,-240.345"/>
<polygon fill="#ebc72d" stroke="#ebc72d" points="585.816,-243.668 594.451,-237.528 583.872,-236.943 585.816,-243.668"/>
</g>
<!-- silverthorn_arrows -->
<g id="node30" class="node"><title>silverthorn_arrows</title>
<g id="a_node30"><a xlink:href="elves_silverthorn_arrows_full.html" xlink:title="Silverthorn\nArrows">
<polygon fill="none" stroke="green" points="364.839,-250.426 238.117,-250.426 205.518,-174.426 332.24,-174.426 364.839,-250.426"/>
<text text-anchor="middle" x="285.178" y="-216.226" font-family="Times,serif" font-size="14.00" fill="#ebc72d">Silverthorn</text>
<text text-anchor="middle" x="285.178" y="-201.226" font-family="Times,serif" font-size="14.00" fill="#ebc72d">Arrows</text>
</a>
</g>
</g>
<!-- forge&#45;&gt;silverthorn_arrows -->
<g id="edge27" class="edge"><title>forge&#45;&gt;silverthorn_arrows</title>
<path fill="none" stroke="#ebc72d" d="M285.178,-309.495C285.178,-297.22 285.178,-278.604 285.178,-261.018"/>
<polygon fill="#ebc72d" stroke="#ebc72d" points="288.679,-260.838 285.178,-250.838 281.679,-260.838 288.679,-260.838"/>
</g>
<!-- corral -->
<g id="node4" class="node"><title>corral</title>
<g id="a_node4"><a xlink:href="elves_corral_full.html" xlink:title="Corral">
<polygon fill="none" stroke="red" points="966.123,-437.202 925.178,-449.64 884.234,-437.202 884.273,-417.077 966.084,-417.077 966.123,-437.202"/>
<text text-anchor="middle" x="925.178" y="-427.94" font-family="Times,serif" font-size="14.00" fill="#ebc72d">Corral</text>
</a>
</g>
</g>
<!-- reaver -->
<g id="node8" class="node"><title>reaver</title>
<g id="a_node8"><a xlink:href="elves_reaver_full.html" xlink:title="Reaver">
<ellipse fill="none" stroke="magenta" cx="1081.18" cy="-212.426" rx="35.9954" ry="18"/>
<text text-anchor="middle" x="1081.18" y="-208.726" font-family="Times,serif" font-size="14.00" fill="#ebc72d">Reaver</text>
</a>
</g>
</g>
<!-- corral&#45;&gt;reaver -->
<g id="edge7" class="edge"><title>corral&#45;&gt;reaver</title>
<path fill="none" stroke="#ebc72d" d="M944.638,-416.941C953.694,-410.872 964.75,-403.887 975.178,-398.426 1012.25,-379.016 1036.77,-395.672 1062.18,-362.426 1089.07,-327.246 1088.65,-273.181 1085.31,-240.762"/>
<polygon fill="#ebc72d" stroke="#ebc72d" points="1088.77,-240.17 1084.11,-230.656 1081.82,-241 1088.77,-240.17"/>
</g>
<!-- corral_gryphon_nest -->
<g id="node10" class="node"><title>corral_gryphon_nest</title>
<g id="a_node10"><a xlink:href="elves_corral_gryphon_nest_full.html" xlink:title="Corral\nGryphon Nest">
<ellipse fill="none" stroke="magenta" cx="1175.18" cy="-324.426" rx="65.5227" ry="26.7407"/>
<text text-anchor="middle" x="1175.18" y="-328.226" font-family="Times,serif" font-size="14.00" fill="#ebc72d">Corral</text>
<text text-anchor="middle" x="1175.18" y="-313.226" font-family="Times,serif" font-size="14.00" fill="#ebc72d">Gryphon Nest</text>
</a>
</g>
</g>
<!-- corral&#45;&gt;corral_gryphon_nest -->
<g id="edge6" class="edge"><title>corral&#45;&gt;corral_gryphon_nest</title>
<path fill="none" stroke="#ebc72d" stroke-dasharray="5,2" d="M943.924,-416.773C953.014,-410.525 964.3,-403.44 975.178,-398.426 1025.75,-375.119 1043.11,-382.163 1095.18,-362.426 1105.05,-358.686 1115.4,-354.276 1125.27,-349.828"/>
<polygon fill="#ebc72d" stroke="#ebc72d" points="1126.92,-352.924 1134.55,-345.573 1124,-346.561 1126.92,-352.924"/>
</g>
<!-- silver_helm_lancer -->
<g id="node15" class="node"><title>silver_helm_lancer</title>
<g id="a_node15"><a xlink:href="elves_silver_helm_lancer_full.html" xlink:title="Silver\nHelm Lancer">
<ellipse fill="none" stroke="magenta" cx="944.178" cy="-105.213" rx="62.8651" ry="26.7407"/>
<text text-anchor="middle" x="944.178" y="-109.013" font-family="Times,serif" font-size="14.00" fill="#ebc72d">Silver</text>
<text text-anchor="middle" x="944.178" y="-94.0132" font-family="Times,serif" font-size="14.00" fill="#ebc72d">Helm Lancer</text>
</a>
</g>
</g>
<!-- corral&#45;&gt;silver_helm_lancer -->
<g id="edge8" class="edge"><title>corral&#45;&gt;silver_helm_lancer</title>
<path fill="none" stroke="#ebc72d" d="M925.995,-416.699C928.765,-369.401 937.865,-214.024 942.044,-142.652"/>
<polygon fill="#ebc72d" stroke="#ebc72d" points="945.557,-142.538 942.648,-132.351 938.569,-142.129 945.557,-142.538"/>
</g>
<!-- minstrel -->
<g id="node5" class="node"><title>minstrel</title>
<g id="a_node5"><a xlink:href="elves_minstrel_full.html" xlink:title="Minstrel">
<ellipse fill="none" stroke="magenta" cx="187.178" cy="-324.426" rx="40.8928" ry="18"/>
<text text-anchor="middle" x="187.178" y="-320.726" font-family="Times,serif" font-size="14.00" fill="#ebc72d">Minstrel</text>
</a>
</g>
</g>
<!-- minstrel&#45;&gt;dryad -->
<g id="edge35" class="edge"><title>minstrel&#45;&gt;dryad</title>
<path fill="none" stroke="#ebc72d" d="M187.105,-306.285C186.523,-265.083 182.579,-157.567 158.178,-72 155.543,-62.759 151.449,-53.1223 147.332,-44.6397"/>
<polygon fill="#ebc72d" stroke="#ebc72d" points="150.405,-42.9605 142.75,-35.6357 144.166,-46.1354 150.405,-42.9605"/>
</g>
<!-- ent -->
<g id="node7" class="node"><title>ent</title>
<g id="a_node7"><a xlink:href="elves_ent_full.html" xlink:title="Ent">
<ellipse fill="none" stroke="magenta" cx="106.178" cy="-212.426" rx="27" ry="18"/>
<text text-anchor="middle" x="106.178" y="-208.726" font-family="Times,serif" font-size="14.00" fill="#ebc72d">Ent</text>
</a>
</g>
</g>
<!-- minstrel&#45;&gt;ent -->
<g id="edge36" class="edge"><title>minstrel&#45;&gt;ent</title>
<path fill="none" stroke="#ebc72d" d="M175.227,-307.196C161.612,-288.707 139.24,-258.325 123.665,-237.173"/>
<polygon fill="#ebc72d" stroke="#ebc72d" points="126.403,-234.989 117.655,-229.012 120.766,-239.139 126.403,-234.989"/>
</g>
<!-- prince -->
<g id="node6" class="node"><title>prince</title>
<g id="a_node6"><a xlink:href="elves_prince_full.html" xlink:title="Prince">
<ellipse fill="none" stroke="magenta" cx="830.178" cy="-105.213" rx="33.2948" ry="18"/>
<text text-anchor="middle" x="830.178" y="-101.513" font-family="Times,serif" font-size="14.00" fill="#ebc72d">Prince</text>
</a>
</g>
</g>
<!-- forest_guardian -->
<g id="node19" class="node"><title>forest_guardian</title>
<g id="a_node19"><a xlink:href="elves_forest_guardian_full.html" xlink:title="Forest\nGuardian">
<polygon fill="none" stroke="red" points="148.799,-115.543 90.1785,-138.641 31.5581,-115.543 31.6129,-78.1695 148.744,-78.1695 148.799,-115.543"/>
<text text-anchor="middle" x="90.1785" y="-109.013" font-family="Times,serif" font-size="14.00" fill="#ebc72d">Forest</text>
<text text-anchor="middle" x="90.1785" y="-94.0132" font-family="Times,serif" font-size="14.00" fill="#ebc72d">Guardian</text>
</a>
</g>
</g>
<!-- ent&#45;&gt;forest_guardian -->
<g id="edge23" class="edge"><title>ent&#45;&gt;forest_guardian</title>
<path fill="none" stroke="#ebc72d" stroke-width="2" d="M103.536,-194.053C101.581,-181.196 98.8358,-163.142 96.3421,-146.744"/>
<polygon fill="#ebc72d" stroke="#ebc72d" stroke-width="2" points="99.795,-146.169 94.8312,-136.809 92.8745,-147.221 99.795,-146.169"/>
</g>
<!-- academy -->
<g id="node9" class="node"><title>academy</title>
<g id="a_node9"><a xlink:href="elves_academy_full.html" xlink:title="Academy">
<polygon fill="none" stroke="red" points="695.544,-437.202 640.178,-449.64 584.813,-437.202 584.865,-417.077 695.492,-417.077 695.544,-437.202"/>
<text text-anchor="middle" x="640.178" y="-427.94" font-family="Times,serif" font-size="14.00" fill="#ebc72d">Academy</text>
</a>
</g>
</g>
<!-- academy&#45;&gt;grey_elf_archer -->
<g id="edge3" class="edge"><title>academy&#45;&gt;grey_elf_archer</title>
<path fill="none" stroke="#ebc72d" d="M649.853,-416.885C660.227,-402.134 677.078,-378.176 690.93,-358.481"/>
<polygon fill="#ebc72d" stroke="#ebc72d" points="693.962,-360.254 696.852,-350.061 688.236,-356.227 693.962,-360.254"/>
</g>
<!-- galadrim_archer -->
<g id="node13" class="node"><title>galadrim_archer</title>
<g id="a_node13"><a xlink:href="elves_galadrim_archer_full.html" xlink:title="Galadrim\nArcher">
<ellipse fill="none" stroke="magenta" cx="849.178" cy="-212.426" rx="48.1667" ry="26.7407"/>
<text text-anchor="middle" x="849.178" y="-216.226" font-family="Times,serif" font-size="14.00" fill="#ebc72d">Galadrim</text>
<text text-anchor="middle" x="849.178" y="-201.226" font-family="Times,serif" font-size="14.00" fill="#ebc72d">Archer</text>
</a>
</g>
</g>
<!-- academy&#45;&gt;galadrim_archer -->
<g id="edge2" class="edge"><title>academy&#45;&gt;galadrim_archer</title>
<path fill="none" stroke="#ebc72d" d="M695.675,-421.77C756.282,-410.818 847.513,-390.18 868.178,-362.426 892.772,-329.398 879.796,-280.422 866.241,-247.74"/>
<polygon fill="#ebc72d" stroke="#ebc72d" points="869.448,-246.339 862.245,-238.569 863.031,-249.135 869.448,-246.339"/>
</g>
<!-- magol_hedir -->
<g id="node21" class="node"><title>magol_hedir</title>
<g id="a_node21"><a xlink:href="elves_magol_hedir_full.html" xlink:title="Magol\nHedir">
<ellipse fill="none" stroke="magenta" cx="822.178" cy="-324.426" rx="37.4533" ry="26.7407"/>
<text text-anchor="middle" x="822.178" y="-328.226" font-family="Times,serif" font-size="14.00" fill="#ebc72d">Magol</text>
<text text-anchor="middle" x="822.178" y="-313.226" font-family="Times,serif" font-size="14.00" fill="#ebc72d">Hedir</text>
</a>
</g>
</g>
<!-- academy&#45;&gt;magol_hedir -->
<g id="edge4" class="edge"><title>academy&#45;&gt;magol_hedir</title>
<path fill="none" stroke="#ebc72d" d="M671.426,-417.009C699.421,-404.299 741.186,-384.089 775.178,-362.426 780.228,-359.209 785.387,-355.563 790.35,-351.847"/>
<polygon fill="#ebc72d" stroke="#ebc72d" points="792.684,-354.466 798.463,-345.587 788.408,-348.924 792.684,-354.466"/>
</g>
<!-- training_field -->
<g id="node23" class="node"><title>training_field</title>
<g id="a_node23"><a xlink:href="elves_training_field_full.html" xlink:title="Training\nField">
<polygon fill="none" stroke="green" points="472.31,-362.426 368.7,-362.426 342.047,-286.426 445.657,-286.426 472.31,-362.426"/>
<text text-anchor="middle" x="407.178" y="-328.226" font-family="Times,serif" font-size="14.00" fill="#ebc72d">Training</text>
<text text-anchor="middle" x="407.178" y="-313.226" font-family="Times,serif" font-size="14.00" fill="#ebc72d">Field</text>
</a>
</g>
</g>
<!-- academy&#45;&gt;training_field -->
<g id="edge5" class="edge"><title>academy&#45;&gt;training_field</title>
<path fill="none" stroke="#ebc72d" d="M606.735,-416.959C574.386,-403.57 524.092,-382.339 481.178,-362.426 480.755,-362.23 480.33,-362.032 479.905,-361.834"/>
<polygon fill="#ebc72d" stroke="#ebc72d" points="481.377,-358.659 470.84,-357.552 478.387,-364.988 481.377,-358.659"/>
</g>
<!-- dryad_weaponry -->
<g id="node24" class="node"><title>dryad_weaponry</title>
<g id="a_node24"><a xlink:href="elves_dryad_weaponry_full.html" xlink:title="Dryad\nWeaponry">
<polygon fill="none" stroke="green" points="644.119,-362.426 521.724,-362.426 490.238,-286.426 612.633,-286.426 644.119,-362.426"/>
<text text-anchor="middle" x="567.178" y="-328.226" font-family="Times,serif" font-size="14.00" fill="#ebc72d">Dryad</text>
<text text-anchor="middle" x="567.178" y="-313.226" font-family="Times,serif" font-size="14.00" fill="#ebc72d">Weaponry</text>
</a>
</g>
</g>
<!-- academy&#45;&gt;dryad_weaponry -->
<g id="edge1" class="edge"><title>academy&#45;&gt;dryad_weaponry</title>
<path fill="none" stroke="#ebc72d" d="M630.635,-416.885C622.539,-405.216 610.445,-387.786 598.98,-371.261"/>
<polygon fill="#ebc72d" stroke="#ebc72d" points="601.643,-368.959 593.066,-362.738 595.891,-372.949 601.643,-368.959"/>
</g>
<!-- corral_gryphon_nest&#45;&gt;reaver -->
<g id="edge10" class="edge"><title>corral_gryphon_nest&#45;&gt;reaver</title>
<path fill="none" stroke="#ebc72d" d="M1154.08,-298.74C1138.31,-280.284 1116.88,-255.204 1101.34,-237.017"/>
<polygon fill="#ebc72d" stroke="#ebc72d" points="1103.81,-234.523 1094.65,-229.194 1098.49,-239.07 1103.81,-234.523"/>
</g>
<!-- corral_gryphon_nest&#45;&gt;silver_helm_lancer -->
<g id="edge11" class="edge"><title>corral_gryphon_nest&#45;&gt;silver_helm_lancer</title>
<path fill="none" stroke="#ebc72d" d="M1169.49,-297.444C1160.77,-259.699 1143.29,-192.254 1126.18,-174.426 1096.36,-143.365 1051.05,-126.321 1013.1,-117.038"/>
<polygon fill="#ebc72d" stroke="#ebc72d" points="1013.65,-113.573 1003.12,-114.731 1012.08,-120.393 1013.65,-113.573"/>
</g>
<!-- gryphon -->
<g id="node22" class="node"><title>gryphon</title>
<g id="a_node22"><a xlink:href="elves_gryphon_full.html" xlink:title="Gryphon">
<ellipse fill="none" stroke="magenta" cx="1215.18" cy="-212.426" rx="42.4939" ry="18"/>
<text text-anchor="middle" x="1215.18" y="-208.726" font-family="Times,serif" font-size="14.00" fill="#ebc72d">Gryphon</text>
</a>
</g>
</g>
<!-- corral_gryphon_nest&#45;&gt;gryphon -->
<g id="edge9" class="edge"><title>corral_gryphon_nest&#45;&gt;gryphon</title>
<path fill="none" stroke="#ebc72d" d="M1184.56,-297.636C1190.85,-280.331 1199.12,-257.591 1205.48,-240.104"/>
<polygon fill="#ebc72d" stroke="#ebc72d" points="1208.84,-241.09 1208.97,-230.496 1202.26,-238.698 1208.84,-241.09"/>
</g>
<!-- taming_song -->
<g id="node25" class="node"><title>taming_song</title>
<g id="a_node25"><a xlink:href="elves_taming_song_full.html" xlink:title="Taming\nSong">
<polygon fill="none" stroke="green" points="1397.52,-250.426 1299.94,-250.426 1274.84,-174.426 1372.42,-174.426 1397.52,-250.426"/>
<text text-anchor="middle" x="1336.18" y="-216.226" font-family="Times,serif" font-size="14.00" fill="#ebc72d">Taming</text>
<text text-anchor="middle" x="1336.18" y="-201.226" font-family="Times,serif" font-size="14.00" fill="#ebc72d">Song</text>
</a>
</g>
</g>
<!-- corral_gryphon_nest&#45;&gt;taming_song -->
<g id="edge12" class="edge"><title>corral_gryphon_nest&#45;&gt;taming_song</title>
<path fill="none" stroke="#ebc72d" stroke-dasharray="1,5" d="M1208.15,-300.901C1231.13,-285.202 1262.15,-264.003 1287.91,-246.406"/>
<polygon fill="#ebc72d" stroke="#ebc72d" points="1290.14,-249.121 1296.42,-240.59 1286.19,-243.341 1290.14,-249.121"/>
</g>
<!-- wood_hall -->
<g id="node11" class="node"><title>wood_hall</title>
<g id="a_node11"><a xlink:href="elves_wood_hall_full.html" xlink:title="Wood\nHall">
<polygon fill="none" stroke="red" points="178.083,-441.969 134.178,-465.067 90.2744,-441.969 90.3153,-404.596 178.042,-404.596 178.083,-441.969"/>
<text text-anchor="middle" x="134.178" y="-435.44" font-family="Times,serif" font-size="14.00" fill="#ebc72d">Wood</text>
<text text-anchor="middle" x="134.178" y="-420.44" font-family="Times,serif" font-size="14.00" fill="#ebc72d">Hall</text>
</a>
</g>
</g>
<!-- wood_hall&#45;&gt;forge -->
<g id="edge42" class="edge"><title>wood_hall&#45;&gt;forge</title>
<path fill="none" stroke="#ebc72d" stroke-dasharray="1,5" d="M175.239,-404.413C194.293,-391.997 217.116,-376.774 237.178,-362.426 245.349,-356.583 254.101,-349.952 261.865,-343.934"/>
<polygon fill="#ebc72d" stroke="#ebc72d" points="264.104,-346.626 269.827,-337.71 259.793,-341.111 264.104,-346.626"/>
</g>
<!-- wood_hall&#45;&gt;minstrel -->
<g id="edge43" class="edge"><title>wood_hall&#45;&gt;minstrel</title>
<path fill="none" stroke="#ebc72d" d="M147.416,-404.361C155.541,-388.232 165.907,-367.653 174.018,-351.552"/>
<polygon fill="#ebc72d" stroke="#ebc72d" points="177.363,-352.691 178.737,-342.185 171.112,-349.541 177.363,-352.691"/>
</g>
<!-- quenya -->
<g id="node31" class="node"><title>quenya</title>
<g id="a_node31"><a xlink:href="elves_quenya_full.html" xlink:title="Quenya">
<polygon fill="none" stroke="green" points="128.626,-342.426 38.8305,-342.426 15.7308,-306.426 105.526,-306.426 128.626,-342.426"/>
<text text-anchor="middle" x="72.1785" y="-320.726" font-family="Times,serif" font-size="14.00" fill="#ebc72d">Quenya</text>
</a>
</g>
</g>
<!-- wood_hall&#45;&gt;quenya -->
<g id="edge44" class="edge"><title>wood_hall&#45;&gt;quenya</title>
<path fill="none" stroke="#ebc72d" d="M118.693,-404.361C109.159,-388.181 96.9861,-367.525 87.4849,-351.401"/>
<polygon fill="#ebc72d" stroke="#ebc72d" points="90.3318,-349.338 82.2395,-342.5 84.3011,-352.892 90.3318,-349.338"/>
</g>
<!-- gryphon_rider -->
<g id="node12" class="node"><title>gryphon_rider</title>
<g id="a_node12"><a xlink:href="elves_gryphon_rider_full.html" xlink:title="Gryphon\nRider">
<ellipse fill="none" stroke="magenta" cx="1275.18" cy="-105.213" rx="45.9239" ry="26.7407"/>
<text text-anchor="middle" x="1275.18" y="-109.013" font-family="Times,serif" font-size="14.00" fill="#ebc72d">Gryphon</text>
<text text-anchor="middle" x="1275.18" y="-94.0132" font-family="Times,serif" font-size="14.00" fill="#ebc72d">Rider</text>
</a>
</g>
</g>
<!-- galadrim_archer&#45;&gt;prince -->
<g id="edge28" class="edge"><title>galadrim_archer&#45;&gt;prince</title>
<path fill="none" stroke="#ebc72d" stroke-dasharray="5,2" d="M844.482,-185.419C841.615,-169.545 837.957,-149.286 835.057,-133.231"/>
<polygon fill="#ebc72d" stroke="#ebc72d" points="838.499,-132.594 833.278,-123.376 831.611,-133.838 838.499,-132.594"/>
</g>
<!-- sanctuary -->
<g id="node14" class="node"><title>sanctuary</title>
<g id="a_node14"><a xlink:href="elves_sanctuary_full.html" xlink:title="Sanctuary">
<polygon fill="none" stroke="red" points="310.257,-437.202 253.178,-449.64 196.1,-437.202 196.153,-417.077 310.204,-417.077 310.257,-437.202"/>
<text text-anchor="middle" x="253.178" y="-427.94" font-family="Times,serif" font-size="14.00" fill="#ebc72d">Sanctuary</text>
</a>
</g>
</g>
<!-- wise_elf -->
<g id="node16" class="node"><title>wise_elf</title>
<g id="a_node16"><a xlink:href="elves_wise_elf_full.html" xlink:title="Wise\nElf">
<ellipse fill="none" stroke="magenta" cx="140.178" cy="-702.149" rx="31.6406" ry="26.7407"/>
<text text-anchor="middle" x="140.178" y="-705.949" font-family="Times,serif" font-size="14.00" fill="#ebc72d">Wise</text>
<text text-anchor="middle" x="140.178" y="-690.949" font-family="Times,serif" font-size="14.00" fill="#ebc72d">Elf</text>
</a>
</g>
</g>
<!-- tree_of_life -->
<g id="node18" class="node"><title>tree_of_life</title>
<g id="a_node18"><a xlink:href="elves_tree_of_life_full.html" xlink:title="Tree\nOf Life">
<polygon fill="none" stroke="red" points="189.819,-616.396 140.178,-639.494 90.5382,-616.396 90.5845,-579.022 189.772,-579.022 189.819,-616.396"/>
<text text-anchor="middle" x="140.178" y="-609.866" font-family="Times,serif" font-size="14.00" fill="#ebc72d">Tree</text>
<text text-anchor="middle" x="140.178" y="-594.866" font-family="Times,serif" font-size="14.00" fill="#ebc72d">Of Life</text>
</a>
</g>
</g>
<!-- wise_elf&#45;&gt;tree_of_life -->
<g id="edge41" class="edge"><title>wise_elf&#45;&gt;tree_of_life</title>
<path fill="none" stroke="#ebc72d" stroke-width="2" d="M140.178,-675.192C140.178,-667.217 140.178,-658.222 140.178,-649.446"/>
<polygon fill="#ebc72d" stroke="#ebc72d" stroke-width="2" points="143.679,-649.319 140.178,-639.319 136.679,-649.319 143.679,-649.319"/>
</g>
<!-- wise_elf&#45;&gt;forest_guardian -->
<g id="edge40" class="edge"><title>wise_elf&#45;&gt;forest_guardian</title>
<path fill="none" stroke="#ebc72d" stroke-width="2" d="M116.875,-683.446C104.022,-672.283 89.1023,-656.709 81.1785,-639.279 43.0107,-555.32 102.691,-515.492 62.1785,-432.64"/>
<path fill="none" stroke="#ebc72d" stroke-width="2" d="M62.1785,-430.64C43.9216,-396.24 20.1396,-399.151 7.1785,-362.426 -4.06315,-330.574 -0.0543911,-319.421 7.1785,-286.426 18.8921,-232.992 48.0136,-176.502 68.4374,-141.311"/>
<polygon fill="#ebc72d" stroke="#ebc72d" stroke-width="2" points="71.6243,-142.796 73.6857,-132.404 65.5935,-139.243 71.6243,-142.796"/>
</g>
<!-- elf -->
<g id="node17" class="node"><title>elf</title>
<g id="a_node17"><a xlink:href="elves_elf_full.html" xlink:title="Elf">
<ellipse fill="none" stroke="magenta" cx="117.178" cy="-518.853" rx="27" ry="18"/>
<text text-anchor="middle" x="117.178" y="-515.153" font-family="Times,serif" font-size="14.00" fill="#ebc72d">Elf</text>
</a>
</g>
</g>
<!-- elf&#45;&gt;forge -->
<g id="edge16" class="edge"><title>elf&#45;&gt;forge</title>
<path fill="none" stroke="#ebc72d" stroke-width="2" d="M143.079,-512.88C195.108,-502.634 308.299,-478.955 319.178,-464.853 345.935,-430.17 319.905,-377.365 300.972,-347.687"/>
<polygon fill="#ebc72d" stroke="#ebc72d" stroke-width="2" points="303.832,-345.667 295.391,-339.265 297.997,-349.534 303.832,-345.667"/>
</g>
<!-- elf&#45;&gt;corral -->
<g id="edge14" class="edge"><title>elf&#45;&gt;corral</title>
<path fill="none" stroke="#ebc72d" stroke-width="2" d="M142.55,-512.052C159.832,-508.31 183.279,-503.637 204.178,-500.853 425.025,-471.435 482.687,-488.937 704.178,-464.853 764.793,-458.262 834.328,-447.614 878.954,-440.379"/>
<polygon fill="#ebc72d" stroke="#ebc72d" stroke-width="2" points="879.607,-443.819 888.913,-438.754 878.48,-436.91 879.607,-443.819"/>
</g>
<!-- elf&#45;&gt;academy -->
<g id="edge13" class="edge"><title>elf&#45;&gt;academy</title>
<path fill="none" stroke="#ebc72d" stroke-width="2" d="M142.637,-512.615C159.957,-509.117 183.413,-504.505 204.178,-500.853 340.177,-476.936 500.79,-452.885 583.949,-440.743"/>
<polygon fill="#ebc72d" stroke="#ebc72d" stroke-width="2" points="584.552,-444.192 593.943,-439.287 583.542,-437.266 584.552,-444.192"/>
</g>
<!-- elf&#45;&gt;wood_hall -->
<g id="edge21" class="edge"><title>elf&#45;&gt;wood_hall</title>
<path fill="none" stroke="#ebc72d" stroke-width="2" d="M120.619,-500.609C122.263,-492.366 124.305,-482.131 126.301,-472.127"/>
<polygon fill="#ebc72d" stroke="#ebc72d" stroke-width="2" points="129.741,-472.774 128.265,-462.282 122.876,-471.404 129.741,-472.774"/>
</g>
<!-- elf&#45;&gt;sanctuary -->
<g id="edge18" class="edge"><title>elf&#45;&gt;sanctuary</title>
<path fill="none" stroke="#ebc72d" stroke-width="2" d="M136.089,-506.004C158.908,-491.706 197.521,-467.513 224.129,-450.841"/>
<polygon fill="#ebc72d" stroke="#ebc72d" stroke-width="2" points="226.037,-453.776 232.652,-445.501 222.32,-447.844 226.037,-453.776"/>
</g>
<!-- elf&#45;&gt;wise_elf -->
<g id="edge20" class="edge"><title>elf&#45;&gt;wise_elf</title>
<path fill="none" stroke="#ebc72d" stroke-dasharray="5,2" d="M141.007,-527.624C169.21,-538.338 212.993,-560.346 217.878,-594.966"/>
<polygon fill="#ebc72d" stroke="#ebc72d" points="214.382,-595.175 218.178,-605.066 221.379,-594.966 214.382,-595.175"/>
<path fill="none" stroke="#ebc72d" stroke-dasharray="5,2" d="M218.178,-607.066C215.566,-640.275 186.821,-668.137 164.979,-684.72"/>
</g>
<!-- elf&#45;&gt;forest_guardian -->
<g id="edge15" class="edge"><title>elf&#45;&gt;forest_guardian</title>
<path fill="none" stroke="#ebc72d" stroke-width="2" d="M105.668,-502.494C93.6362,-485.919 74.786,-458.423 62.1785,-432.64"/>
</g>
<!-- lore_house -->
<g id="node20" class="node"><title>lore_house</title>
<g id="a_node20"><a xlink:href="elves_lore_house_full.html" xlink:title="Lore\nHouse">
<polygon fill="none" stroke="red" points="1073.83,-441.969 1029.18,-465.067 984.527,-441.969 984.569,-404.596 1073.79,-404.596 1073.83,-441.969"/>
<text text-anchor="middle" x="1029.18" y="-435.44" font-family="Times,serif" font-size="14.00" fill="#ebc72d">Lore</text>
<text text-anchor="middle" x="1029.18" y="-420.44" font-family="Times,serif" font-size="14.00" fill="#ebc72d">House</text>
</a>
</g>
</g>
<!-- elf&#45;&gt;lore_house -->
<g id="edge17" class="edge"><title>elf&#45;&gt;lore_house</title>
<path fill="none" stroke="#ebc72d" stroke-width="2" d="M152.043,-509.829C167.87,-506.5 186.882,-502.935 204.178,-500.853 374.469,-480.351 810.932,-514.272 975.178,-464.853 981.49,-462.954 987.828,-460.159 993.829,-456.996"/>
<polygon fill="#ebc72d" stroke="#ebc72d" stroke-width="2" points="151.187,-506.433 142.151,-511.965 152.665,-513.275 151.187,-506.433"/>
<polygon fill="#ebc72d" stroke="#ebc72d" stroke-width="2" points="995.981,-459.798 1002.93,-451.799 992.509,-453.719 995.981,-459.798"/>
</g>
<!-- tree_of_life&#45;&gt;elf -->
<g id="edge39" class="edge"><title>tree_of_life&#45;&gt;elf</title>
<path fill="none" stroke="#ebc72d" d="M130.34,-568.614C128.324,-561.146 126.239,-553.421 124.339,-546.381"/>
<polygon fill="#ebc72d" stroke="#ebc72d" points="127.042,-569.829 133.027,-578.571 133.8,-568.005 127.042,-569.829"/>
<polygon fill="#ebc72d" stroke="#ebc72d" points="127.702,-545.412 121.717,-536.669 120.944,-547.236 127.702,-545.412"/>
</g>
<!-- forest_guardian&#45;&gt;dryad -->
<g id="edge24" class="edge"><title>forest_guardian&#45;&gt;dryad</title>
<path fill="none" stroke="#ebc72d" d="M103.548,-77.7183C108.871,-67.1699 114.974,-55.0763 120.252,-44.6165"/>
<polygon fill="#ebc72d" stroke="#ebc72d" points="123.441,-46.0656 124.822,-35.561 117.192,-42.912 123.441,-46.0656"/>
</g>
<!-- lore_house&#45;&gt;wise_elf -->
<g id="edge34" class="edge"><title>lore_house&#45;&gt;wise_elf</title>
<path fill="none" stroke="#ebc72d" d="M1002.1,-451.336C993.775,-456.377 984.372,-461.387 975.178,-464.853 818.376,-523.965 255.351,-438.166 219.715,-594.899"/>
<polygon fill="#ebc72d" stroke="#ebc72d" points="216.212,-594.655 218.178,-605.066 223.133,-595.701 216.212,-594.655"/>
</g>
<!-- lore_house&#45;&gt;taming_song -->
<g id="edge33" class="edge"><title>lore_house&#45;&gt;taming_song</title>
<path fill="none" stroke="#ebc72d" d="M1073.89,-429.335C1163.67,-425.674 1360.81,-412.042 1402.18,-362.426 1423.81,-336.482 1414.32,-317.948 1402.18,-286.426 1398.36,-276.518 1392.51,-267.119 1385.84,-258.566"/>
<polygon fill="#ebc72d" stroke="#ebc72d" points="1388.32,-256.074 1379.22,-250.635 1382.94,-260.557 1388.32,-256.074"/>
</g>
<!-- mystical_forest -->
<g id="node27" class="node"><title>mystical_forest</title>
<g id="a_node27"><a xlink:href="elves_mystical_forest_full.html" xlink:title="Mystical\nForest">
<polygon fill="none" stroke="green" points="1393.46,-362.426 1286.43,-362.426 1258.9,-286.426 1365.92,-286.426 1393.46,-362.426"/>
<text text-anchor="middle" x="1326.18" y="-328.226" font-family="Times,serif" font-size="14.00" fill="#ebc72d">Mystical</text>
<text text-anchor="middle" x="1326.18" y="-313.226" font-family="Times,serif" font-size="14.00" fill="#ebc72d">Forest</text>
</a>
</g>
</g>
<!-- lore_house&#45;&gt;mystical_forest -->
<g id="edge32" class="edge"><title>lore_house&#45;&gt;mystical_forest</title>
<path fill="none" stroke="#ebc72d" d="M1073.9,-419.015C1119.04,-406.776 1190.43,-386.031 1250.18,-362.426 1257.38,-359.583 1264.83,-356.341 1272.14,-352.986"/>
<polygon fill="#ebc72d" stroke="#ebc72d" points="1273.71,-356.113 1281.28,-348.696 1270.74,-349.776 1273.71,-356.113"/>
</g>
<!-- elven_lore -->
<g id="node29" class="node"><title>elven_lore</title>
<g id="a_node29"><a xlink:href="elves_elven_lore_full.html" xlink:title="Elven\nLore">
<polygon fill="none" stroke="green" points="1052.71,-362.426 973.918,-362.426 953.649,-286.426 1032.44,-286.426 1052.71,-362.426"/>
<text text-anchor="middle" x="1003.18" y="-328.226" font-family="Times,serif" font-size="14.00" fill="#ebc72d">Elven</text>
<text text-anchor="middle" x="1003.18" y="-313.226" font-family="Times,serif" font-size="14.00" fill="#ebc72d">Lore</text>
</a>
</g>
</g>
<!-- lore_house&#45;&gt;elven_lore -->
<g id="edge31" class="edge"><title>lore_house&#45;&gt;elven_lore</title>
<path fill="none" stroke="#ebc72d" d="M1022.68,-404.361C1020.29,-394.668 1017.5,-383.369 1014.79,-372.4"/>
<polygon fill="#ebc72d" stroke="#ebc72d" points="1018.13,-371.343 1012.33,-362.474 1011.33,-373.022 1018.13,-371.343"/>
</g>
<!-- gryphon&#45;&gt;gryphon_rider -->
<g id="edge29" class="edge"><title>gryphon&#45;&gt;gryphon_rider</title>
<path fill="none" stroke="#ebc72d" stroke-dasharray="5,2" d="M1224.82,-194.522C1233.17,-179.88 1245.5,-158.252 1255.87,-140.064"/>
<polygon fill="#ebc72d" stroke="#ebc72d" points="1259.17,-141.343 1261.09,-130.923 1253.09,-137.876 1259.17,-141.343"/>
</g>
<!-- taming_song&#45;&gt;gryphon_rider -->
<g id="edge38" class="edge"><title>taming_song&#45;&gt;gryphon_rider</title>
<path fill="none" stroke="#ebc72d" stroke-dasharray="1,5" d="M1314.67,-174.332C1308.13,-163.054 1300.99,-150.732 1294.6,-139.706"/>
<polygon fill="#ebc72d" stroke="#ebc72d" points="1297.48,-137.696 1289.43,-130.8 1291.42,-141.207 1297.48,-137.696"/>
</g>
<!-- noldor_armour_crafting&#45;&gt;silver_helm_lancer -->
<g id="edge37" class="edge"><title>noldor_armour_crafting&#45;&gt;silver_helm_lancer</title>
<path fill="none" stroke="#ebc72d" stroke-dasharray="1,5" d="M743.45,-186.229C782.1,-172.737 829.97,-155.43 872.178,-138.426 878.99,-135.682 886.107,-132.675 893.103,-129.634"/>
<polygon fill="#ebc72d" stroke="#ebc72d" points="894.783,-132.719 902.527,-125.489 891.965,-126.311 894.783,-132.719"/>
</g>
<!-- elven_lore&#45;&gt;galadrim_archer -->
<g id="edge22" class="edge"><title>elven_lore&#45;&gt;galadrim_archer</title>
<path fill="none" stroke="#ebc72d" stroke-dasharray="1,5" d="M954.029,-288.319C932.154,-272.695 906.814,-254.595 886.526,-240.103"/>
<polygon fill="#ebc72d" stroke="#ebc72d" points="888.336,-237.095 878.165,-234.131 884.268,-242.791 888.336,-237.095"/>
</g>
</g>
</svg>
