<?xml version="1.0" encoding="UTF-8" standalone="no"?>
<!DOCTYPE svg PUBLIC "-//W3C//DTD SVG 1.1//EN"
 "http://www.w3.org/Graphics/SVG/1.1/DTD/svg11.dtd">
<!-- Generated by graphviz version 2.38.0 (20140413.2041)
 -->
<!-- Title: test Pages: 1 -->
<svg width="1586pt" height="545pt"
 viewBox="0.00 0.00 1586.46 544.85" xmlns="http://www.w3.org/2000/svg" xmlns:xlink="http://www.w3.org/1999/xlink">
<g id="graph0" class="graph" transform="scale(1 1) rotate(0) translate(4 540.853)">
<title>test</title>
<polygon fill="#151515" stroke="none" points="-4,4 -4,-540.853 1582.46,-540.853 1582.46,4 -4,4"/>
<!-- cavalry -->
<g id="node1" class="node"><title>cavalry</title>
<g id="a_node1"><a xlink:href="british_cavalry_full.html" xlink:title="Cavalry">
<ellipse fill="none" stroke="magenta" cx="1068.19" cy="-217.213" rx="38.1938" ry="18"/>
<text text-anchor="middle" x="1068.19" y="-213.513" font-family="Times,serif" font-size="14.00" fill="#ebc72d">Cavalry</text>
</a>
</g>
</g>
<!-- grenader -->
<g id="node2" class="node"><title>grenader</title>
<g id="a_node2"><a xlink:href="british_grenader_full.html" xlink:title="Grenader">
<ellipse fill="none" stroke="magenta" cx="418.19" cy="-217.213" rx="43.5923" ry="18"/>
<text text-anchor="middle" x="418.19" y="-213.513" font-family="Times,serif" font-size="14.00" fill="#ebc72d">Grenader</text>
</a>
</g>
</g>
<!-- colonist -->
<g id="node3" class="node"><title>colonist</title>
<g id="a_node3"><a xlink:href="british_colonist_full.html" xlink:title="Colonist">
<ellipse fill="none" stroke="magenta" cx="1070.19" cy="-518.853" rx="40.0939" ry="18"/>
<text text-anchor="middle" x="1070.19" y="-515.153" font-family="Times,serif" font-size="14.00" fill="#ebc72d">Colonist</text>
</a>
</g>
</g>
<!-- powder_house -->
<g id="node6" class="node"><title>powder_house</title>
<g id="a_node6"><a xlink:href="british_powder_house_full.html" xlink:title="Powder\nHouse">
<polygon fill="none" stroke="red" points="638.078,-441.969 587.19,-465.067 536.302,-441.969 536.349,-404.596 638.031,-404.596 638.078,-441.969"/>
<text text-anchor="middle" x="587.19" y="-435.44" font-family="Times,serif" font-size="14.00" fill="#ebc72d">Powder</text>
<text text-anchor="middle" x="587.19" y="-420.44" font-family="Times,serif" font-size="14.00" fill="#ebc72d">House</text>
</a>
</g>
</g>
<!-- colonist&#45;&gt;powder_house -->
<g id="edge23" class="edge"><title>colonist&#45;&gt;powder_house</title>
<path fill="none" stroke="#ebc72d" stroke-width="2" d="M1033.49,-511.378C950.909,-496.809 749.771,-461.323 648.124,-443.39"/>
<polygon fill="#ebc72d" stroke="#ebc72d" stroke-width="2" points="648.469,-439.897 638.013,-441.606 647.253,-446.79 648.469,-439.897"/>
</g>
<!-- balloon_base -->
<g id="node7" class="node"><title>balloon_base</title>
<g id="a_node7"><a xlink:href="british_balloon_base_full.html" xlink:title="Balloon\nBase">
<polygon fill="none" stroke="red" points="297.826,-227.543 246.19,-250.641 194.554,-227.543 194.602,-190.17 297.778,-190.17 297.826,-227.543"/>
<text text-anchor="middle" x="246.19" y="-221.013" font-family="Times,serif" font-size="14.00" fill="#ebc72d">Balloon</text>
<text text-anchor="middle" x="246.19" y="-206.013" font-family="Times,serif" font-size="14.00" fill="#ebc72d">Base</text>
</a>
</g>
</g>
<!-- colonist&#45;&gt;balloon_base -->
<g id="edge18" class="edge"><title>colonist&#45;&gt;balloon_base</title>
<path fill="none" stroke="#ebc72d" stroke-width="2" d="M186.19,-430.64C129.176,-400.162 183.869,-347.458 205.19,-286.426 209.391,-274.401 215.883,-262.191 222.471,-251.489"/>
<polygon fill="#ebc72d" stroke="#ebc72d" stroke-width="2" points="225.533,-253.199 227.98,-242.89 219.639,-249.422 225.533,-253.199"/>
</g>
<!-- artillery_foundry -->
<g id="node12" class="node"><title>artillery_foundry</title>
<g id="a_node12"><a xlink:href="british_artillery_foundry_full.html" xlink:title="Artillery\nFoundry">
<polygon fill="none" stroke="red" points="704.318,-334.756 649.19,-357.854 594.062,-334.756 594.113,-297.383 704.267,-297.383 704.318,-334.756"/>
<text text-anchor="middle" x="649.19" y="-328.226" font-family="Times,serif" font-size="14.00" fill="#ebc72d">Artillery</text>
<text text-anchor="middle" x="649.19" y="-313.226" font-family="Times,serif" font-size="14.00" fill="#ebc72d">Foundry</text>
</a>
</g>
</g>
<!-- colonist&#45;&gt;artillery_foundry -->
<g id="edge17" class="edge"><title>colonist&#45;&gt;artillery_foundry</title>
<path fill="none" stroke="#ebc72d" stroke-width="2" d="M1042.89,-505.376C972.394,-473.153 783.625,-386.872 695.589,-346.634"/>
<polygon fill="#ebc72d" stroke="#ebc72d" stroke-width="2" points="696.927,-343.397 686.377,-342.424 694.017,-349.764 696.927,-343.397"/>
</g>
<!-- lookout_tower -->
<g id="node13" class="node"><title>lookout_tower</title>
<g id="a_node13"><a xlink:href="british_lookout_tower_full.html" xlink:title="Lookout\nTower">
<polygon fill="none" stroke="red" points="108.571,-227.543 54.19,-250.641 -0.190655,-227.543 -0.139898,-190.17 108.52,-190.17 108.571,-227.543"/>
<text text-anchor="middle" x="54.19" y="-221.013" font-family="Times,serif" font-size="14.00" fill="#ebc72d">Lookout</text>
<text text-anchor="middle" x="54.19" y="-206.013" font-family="Times,serif" font-size="14.00" fill="#ebc72d">Tower</text>
</a>
</g>
</g>
<!-- colonist&#45;&gt;lookout_tower -->
<g id="edge22" class="edge"><title>colonist&#45;&gt;lookout_tower</title>
<path fill="none" stroke="#ebc72d" stroke-width="2" d="M1029.71,-518.041C876.717,-518.135 334.943,-512.695 186.19,-432.64"/>
<path fill="none" stroke="#ebc72d" stroke-width="2" d="M186.19,-430.64C119.196,-394.585 70.9127,-426.045 29.19,-362.426 7.84713,-329.883 20.9898,-284.662 34.994,-253.58"/>
<polygon fill="#ebc72d" stroke="#ebc72d" stroke-width="2" points="38.216,-254.954 39.3306,-244.418 31.8889,-251.959 38.216,-254.954"/>
</g>
<!-- fort -->
<g id="node15" class="node"><title>fort</title>
<g id="a_node15"><a xlink:href="british_fort_full.html" xlink:title="Fort">
<polygon fill="none" stroke="red" points="1325.35,-437.202 1294.19,-449.64 1263.03,-437.202 1263.06,-417.077 1325.32,-417.077 1325.35,-437.202"/>
<text text-anchor="middle" x="1294.19" y="-427.94" font-family="Times,serif" font-size="14.00" fill="#ebc72d">Fort</text>
</a>
</g>
</g>
<!-- colonist&#45;&gt;fort -->
<g id="edge21" class="edge"><title>colonist&#45;&gt;fort</title>
<path fill="none" stroke="#ebc72d" stroke-width="2" d="M1116.97,-509.483C1155.09,-501.466 1209.56,-487.232 1253.19,-464.853 1260.28,-461.217 1267.34,-456.275 1273.55,-451.353"/>
<polygon fill="#ebc72d" stroke="#ebc72d" stroke-width="2" points="1116.26,-506.056 1107.16,-511.485 1117.66,-512.915 1116.26,-506.056"/>
<polygon fill="#ebc72d" stroke="#ebc72d" stroke-width="2" points="1275.99,-453.876 1281.42,-444.78 1271.5,-448.504 1275.99,-453.876"/>
</g>
<!-- wagon_worker -->
<g id="node17" class="node"><title>wagon_worker</title>
<g id="a_node17"><a xlink:href="british_wagon_worker_full.html" xlink:title="Wagon\nWorker">
<ellipse fill="none" stroke="magenta" cx="1166.19" cy="-217.213" rx="41.9398" ry="26.7407"/>
<text text-anchor="middle" x="1166.19" y="-221.013" font-family="Times,serif" font-size="14.00" fill="#ebc72d">Wagon</text>
<text text-anchor="middle" x="1166.19" y="-206.013" font-family="Times,serif" font-size="14.00" fill="#ebc72d">Worker</text>
</a>
</g>
</g>
<!-- colonist&#45;&gt;wagon_worker -->
<g id="edge24" class="edge"><title>colonist&#45;&gt;wagon_worker</title>
<path fill="none" stroke="#ebc72d" stroke-dasharray="5,2" d="M1107.64,-512.2C1213.74,-495.303 1512,-441.404 1563.19,-362.426 1581.56,-334.082 1584.96,-312.254 1563.19,-286.426 1519.65,-234.768 1315.7,-222.23 1218.27,-219.188"/>
<polygon fill="#ebc72d" stroke="#ebc72d" points="1218.15,-215.683 1208.05,-218.892 1217.95,-222.68 1218.15,-215.683"/>
</g>
<!-- camp -->
<g id="node21" class="node"><title>camp</title>
<g id="a_node21"><a xlink:href="british_camp_full.html" xlink:title="Camp">
<polygon fill="none" stroke="red" points="1244.53,-437.202 1204.19,-449.64 1163.85,-437.202 1163.89,-417.077 1244.49,-417.077 1244.53,-437.202"/>
<text text-anchor="middle" x="1204.19" y="-427.94" font-family="Times,serif" font-size="14.00" fill="#ebc72d">Camp</text>
</a>
</g>
</g>
<!-- colonist&#45;&gt;camp -->
<g id="edge19" class="edge"><title>colonist&#45;&gt;camp</title>
<path fill="none" stroke="#ebc72d" stroke-width="2" d="M1092.32,-503.782C1115.62,-488.962 1152.33,-465.618 1177.29,-449.745"/>
<polygon fill="#ebc72d" stroke="#ebc72d" stroke-width="2" points="1179.35,-452.585 1185.91,-444.265 1175.59,-446.678 1179.35,-452.585"/>
</g>
<!-- farm_house -->
<g id="node22" class="node"><title>farm_house</title>
<g id="a_node22"><a xlink:href="british_farm_house_full.html" xlink:title="Farm\nHouse">
<polygon fill="none" stroke="red" points="1114.84,-441.969 1070.19,-465.067 1025.54,-441.969 1025.58,-404.596 1114.8,-404.596 1114.84,-441.969"/>
<text text-anchor="middle" x="1070.19" y="-435.44" font-family="Times,serif" font-size="14.00" fill="#ebc72d">Farm</text>
<text text-anchor="middle" x="1070.19" y="-420.44" font-family="Times,serif" font-size="14.00" fill="#ebc72d">House</text>
</a>
</g>
</g>
<!-- colonist&#45;&gt;farm_house -->
<g id="edge20" class="edge"><title>colonist&#45;&gt;farm_house</title>
<path fill="none" stroke="#ebc72d" stroke-width="2" d="M1070.19,-500.609C1070.19,-493.189 1070.19,-484.155 1070.19,-475.128"/>
<polygon fill="#ebc72d" stroke="#ebc72d" stroke-width="2" points="1073.69,-475.026 1070.19,-465.026 1066.69,-475.026 1073.69,-475.026"/>
</g>
<!-- captain_ -->
<g id="node4" class="node"><title>captain_</title>
<g id="a_node4"><a xlink:href="british_captain__full.html" xlink:title="Captain\n">
<ellipse fill="none" stroke="magenta" cx="415.19" cy="-324.426" rx="38.1938" ry="18"/>
<text text-anchor="middle" x="415.19" y="-320.726" font-family="Times,serif" font-size="14.00" fill="#ebc72d">Captain</text>
</a>
</g>
</g>
<!-- captain -->
<g id="node20" class="node"><title>captain</title>
<g id="a_node20"><a xlink:href="british_captain_full.html" xlink:title="Captain">
<ellipse fill="none" stroke="magenta" cx="755.19" cy="-217.213" rx="38.1938" ry="18"/>
<text text-anchor="middle" x="755.19" y="-213.513" font-family="Times,serif" font-size="14.00" fill="#ebc72d">Captain</text>
</a>
</g>
</g>
<!-- captain_&#45;&gt;captain -->
<g id="edge16" class="edge"><title>captain_&#45;&gt;captain</title>
<path fill="none" stroke="#ebc72d" stroke-dasharray="5,2" d="M431.163,-307.748C439.918,-300.079 451.373,-291.441 463.19,-286.426 564.505,-243.436 605.715,-290.571 708.19,-250.426 715.282,-247.648 722.36,-243.627 728.791,-239.362"/>
<polygon fill="#ebc72d" stroke="#ebc72d" points="730.954,-242.119 737.099,-233.488 726.913,-236.403 730.954,-242.119"/>
</g>
<!-- balloon -->
<g id="node5" class="node"><title>balloon</title>
<g id="a_node5"><a xlink:href="british_balloon_full.html" xlink:title="Balloon">
<ellipse fill="none" stroke="magenta" cx="246.19" cy="-18" rx="38.1938" ry="18"/>
<text text-anchor="middle" x="246.19" y="-14.3" font-family="Times,serif" font-size="14.00" fill="#ebc72d">Balloon</text>
</a>
</g>
</g>
<!-- powder_house&#45;&gt;cavalry -->
<g id="edge36" class="edge"><title>powder_house&#45;&gt;cavalry</title>
<path fill="none" stroke="#ebc72d" stroke-dasharray="1,5" d="M637.888,-411.78C662.962,-400.475 692.256,-384.053 713.19,-362.426 739.456,-335.292 720.456,-308.372 751.19,-286.426 849.355,-216.332 907.388,-293.15 1020.19,-250.426 1027.55,-247.64 1034.9,-243.541 1041.56,-239.193"/>
<polygon fill="#ebc72d" stroke="#ebc72d" points="1043.94,-241.799 1050.14,-233.211 1039.94,-236.055 1043.94,-241.799"/>
</g>
<!-- powder_house&#45;&gt;captain_ -->
<g id="edge35" class="edge"><title>powder_house&#45;&gt;captain_</title>
<path fill="none" stroke="#ebc72d" stroke-dasharray="1,5" d="M536.386,-404.964C513.537,-392.844 486.519,-377.705 463.19,-362.426 456.011,-357.725 448.534,-352.263 441.678,-347.003"/>
<polygon fill="#ebc72d" stroke="#ebc72d" points="443.426,-343.927 433.394,-340.521 439.112,-349.44 443.426,-343.927"/>
</g>
<!-- infantryman -->
<g id="node8" class="node"><title>infantryman</title>
<g id="a_node8"><a xlink:href="british_infantryman_full.html" xlink:title="Infantryman">
<ellipse fill="none" stroke="magenta" cx="815.19" cy="-324.426" rx="54.6905" ry="18"/>
<text text-anchor="middle" x="815.19" y="-320.726" font-family="Times,serif" font-size="14.00" fill="#ebc72d">Infantryman</text>
</a>
</g>
</g>
<!-- powder_house&#45;&gt;infantryman -->
<g id="edge39" class="edge"><title>powder_house&#45;&gt;infantryman</title>
<path fill="none" stroke="#ebc72d" stroke-dasharray="1,5" d="M638.178,-410.09C669.621,-397.092 710.602,-379.562 746.19,-362.426 757.178,-357.136 768.939,-351.009 779.582,-345.282"/>
<polygon fill="#ebc72d" stroke="#ebc72d" points="781.483,-348.232 788.599,-340.383 778.141,-342.081 781.483,-348.232"/>
</g>
<!-- powder_house&#45;&gt;artillery_foundry -->
<g id="edge33" class="edge"><title>powder_house&#45;&gt;artillery_foundry</title>
<path fill="none" stroke="#ebc72d" stroke-dasharray="1,5" d="M602.675,-404.361C610.517,-391.054 620.143,-374.719 628.599,-360.369"/>
<polygon fill="#ebc72d" stroke="#ebc72d" points="631.626,-362.127 633.687,-351.734 625.595,-358.573 631.626,-362.127"/>
</g>
<!-- bullets -->
<g id="node24" class="node"><title>bullets</title>
<g id="a_node24"><a xlink:href="british_bullets_full.html" xlink:title="Bullets">
<polygon fill="none" stroke="green" points="576.513,-342.426 493.279,-342.426 471.867,-306.426 555.101,-306.426 576.513,-342.426"/>
<text text-anchor="middle" x="524.19" y="-320.726" font-family="Times,serif" font-size="14.00" fill="#ebc72d">Bullets</text>
</a>
</g>
</g>
<!-- powder_house&#45;&gt;bullets -->
<g id="edge34" class="edge"><title>powder_house&#45;&gt;bullets</title>
<path fill="none" stroke="#ebc72d" d="M571.455,-404.361C561.767,-388.181 549.398,-367.525 539.743,-351.401"/>
<polygon fill="#ebc72d" stroke="#ebc72d" points="542.553,-349.281 534.413,-342.5 536.548,-352.877 542.553,-349.281"/>
</g>
<!-- explosives -->
<g id="node26" class="node"><title>explosives</title>
<g id="a_node26"><a xlink:href="british_explosives_full.html" xlink:title="Explosives">
<polygon fill="none" stroke="green" points="358.537,-342.426 243.449,-342.426 213.843,-306.426 328.931,-306.426 358.537,-342.426"/>
<text text-anchor="middle" x="286.19" y="-320.726" font-family="Times,serif" font-size="14.00" fill="#ebc72d">Explosives</text>
</a>
</g>
</g>
<!-- powder_house&#45;&gt;explosives -->
<g id="edge37" class="edge"><title>powder_house&#45;&gt;explosives</title>
<path fill="none" stroke="#ebc72d" d="M536.144,-416.652C491.374,-403.933 424.778,-383.914 368.19,-362.426 355.978,-357.789 342.992,-352.232 331.042,-346.852"/>
<polygon fill="#ebc72d" stroke="#ebc72d" points="332.266,-343.563 321.715,-342.596 329.36,-349.931 332.266,-343.563"/>
</g>
<!-- gun_powder -->
<g id="node28" class="node"><title>gun_powder</title>
<g id="a_node28"><a xlink:href="british_gun_powder_full.html" xlink:title="Gun\nPowder">
<polygon fill="none" stroke="green" points="158.454,-362.426 62.5877,-362.426 37.9263,-286.426 133.792,-286.426 158.454,-362.426"/>
<text text-anchor="middle" x="98.19" y="-328.226" font-family="Times,serif" font-size="14.00" fill="#ebc72d">Gun</text>
<text text-anchor="middle" x="98.19" y="-313.226" font-family="Times,serif" font-size="14.00" fill="#ebc72d">Powder</text>
</a>
</g>
</g>
<!-- powder_house&#45;&gt;gun_powder -->
<g id="edge38" class="edge"><title>powder_house&#45;&gt;gun_powder</title>
<path fill="none" stroke="#ebc72d" d="M536.283,-424.13C462.544,-414.121 322.049,-392.865 205.19,-362.426 191.281,-358.803 176.587,-354.231 162.693,-349.548"/>
<polygon fill="#ebc72d" stroke="#ebc72d" points="163.815,-346.233 153.22,-346.298 161.543,-352.854 163.815,-346.233"/>
</g>
<!-- balloon_base&#45;&gt;balloon -->
<g id="edge8" class="edge"><title>balloon_base&#45;&gt;balloon</title>
<path fill="none" stroke="#ebc72d" d="M235.183,-190.16C230.479,-177.653 225.537,-162.306 223.19,-148 217.722,-114.668 216.323,-105.072 223.19,-72 225.095,-62.8235 228.674,-53.2851 232.45,-44.8715"/>
<polygon fill="#ebc72d" stroke="#ebc72d" points="235.727,-46.1317 236.886,-35.6004 229.413,-43.1105 235.727,-46.1317"/>
</g>
<!-- heated_air -->
<g id="node27" class="node"><title>heated_air</title>
<g id="a_node27"><a xlink:href="british_heated_air_full.html" xlink:title="Heated\nAir">
<polygon fill="none" stroke="green" points="346.233,-148 255.49,-148 232.147,-72 322.89,-72 346.233,-148"/>
<text text-anchor="middle" x="289.19" y="-113.8" font-family="Times,serif" font-size="14.00" fill="#ebc72d">Heated</text>
<text text-anchor="middle" x="289.19" y="-98.8" font-family="Times,serif" font-size="14.00" fill="#ebc72d">Air</text>
</a>
</g>
</g>
<!-- balloon_base&#45;&gt;heated_air -->
<g id="edge9" class="edge"><title>balloon_base&#45;&gt;heated_air</title>
<path fill="none" stroke="#ebc72d" d="M256.93,-189.935C260.932,-180.143 265.604,-168.712 270.13,-157.638"/>
<polygon fill="#ebc72d" stroke="#ebc72d" points="273.505,-158.629 274.049,-148.048 267.026,-155.981 273.505,-158.629"/>
</g>
<!-- mortar -->
<g id="node9" class="node"><title>mortar</title>
<g id="a_node9"><a xlink:href="british_mortar_full.html" xlink:title="Mortar">
<polygon fill="none" stroke="green" points="1011.51,-235.213 928.279,-235.213 906.867,-199.213 990.101,-199.213 1011.51,-235.213"/>
<text text-anchor="middle" x="959.19" y="-213.513" font-family="Times,serif" font-size="14.00" fill="#ebc72d">Mortar</text>
</a>
</g>
</g>
<!-- pig -->
<g id="node10" class="node"><title>pig</title>
<g id="a_node10"><a xlink:href="british_pig_full.html" xlink:title="Pig">
<ellipse fill="none" stroke="magenta" cx="1039.19" cy="-324.426" rx="27" ry="18"/>
<text text-anchor="middle" x="1039.19" y="-320.726" font-family="Times,serif" font-size="14.00" fill="#ebc72d">Pig</text>
</a>
</g>
</g>
<!-- nurse -->
<g id="node11" class="node"><title>nurse</title>
<g id="a_node11"><a xlink:href="british_nurse_full.html" xlink:title="Nurse">
<ellipse fill="none" stroke="magenta" cx="1264.19" cy="-324.426" rx="31.6951" ry="18"/>
<text text-anchor="middle" x="1264.19" y="-320.726" font-family="Times,serif" font-size="14.00" fill="#ebc72d">Nurse</text>
</a>
</g>
</g>
<!-- artillery_foundry&#45;&gt;grenader -->
<g id="edge4" class="edge"><title>artillery_foundry&#45;&gt;grenader</title>
<path fill="none" stroke="#ebc72d" d="M605.899,-297.34C599.053,-293.524 591.989,-289.761 585.19,-286.426 543.347,-265.904 493.72,-246.192 459.498,-233.282"/>
<polygon fill="#ebc72d" stroke="#ebc72d" points="460.429,-229.893 449.837,-229.663 457.974,-236.448 460.429,-229.893"/>
</g>
<!-- artillery_foundry&#45;&gt;balloon_base -->
<g id="edge1" class="edge"><title>artillery_foundry&#45;&gt;balloon_base</title>
<path fill="none" stroke="#ebc72d" stroke-dasharray="1,5" d="M608.94,-297.246C601.284,-293.117 593.167,-289.277 585.19,-286.426 491.889,-253.087 462.023,-271.398 365.19,-250.426 343.618,-245.754 320.115,-239.619 299.738,-233.958"/>
<polygon fill="#ebc72d" stroke="#ebc72d" points="300.581,-230.559 290.007,-231.225 298.689,-237.299 300.581,-230.559"/>
</g>
<!-- artillery_foundry&#45;&gt;mortar -->
<g id="edge5" class="edge"><title>artillery_foundry&#45;&gt;mortar</title>
<path fill="none" stroke="#ebc72d" d="M693.22,-297.366C701.336,-293.275 709.876,-289.417 718.19,-286.426 794.548,-258.956 820.655,-277.398 897.19,-250.426 905.248,-247.587 913.566,-243.871 921.39,-239.976"/>
<polygon fill="#ebc72d" stroke="#ebc72d" points="923.031,-243.068 930.303,-235.363 919.813,-236.851 923.031,-243.068"/>
</g>
<!-- cannon -->
<g id="node16" class="node"><title>cannon</title>
<g id="a_node16"><a xlink:href="british_cannon_full.html" xlink:title="Cannon">
<ellipse fill="none" stroke="magenta" cx="850.19" cy="-217.213" rx="38.1938" ry="18"/>
<text text-anchor="middle" x="850.19" y="-213.513" font-family="Times,serif" font-size="14.00" fill="#ebc72d">Cannon</text>
</a>
</g>
</g>
<!-- artillery_foundry&#45;&gt;cannon -->
<g id="edge2" class="edge"><title>artillery_foundry&#45;&gt;cannon</title>
<path fill="none" stroke="#ebc72d" d="M696.795,-297.203C703.915,-293.484 711.209,-289.786 718.19,-286.426 754.789,-268.812 766.506,-269.827 802.19,-250.426 808.737,-246.867 815.524,-242.663 821.861,-238.487"/>
<polygon fill="#ebc72d" stroke="#ebc72d" points="823.837,-241.375 830.159,-232.873 819.915,-235.577 823.837,-241.375"/>
</g>
<!-- artillery_foundry&#45;&gt;wagon_worker -->
<g id="edge7" class="edge"><title>artillery_foundry&#45;&gt;wagon_worker</title>
<path fill="none" stroke="#ebc72d" stroke-dasharray="1,5" d="M704.288,-300.604C719.279,-295.18 735.668,-289.951 751.19,-286.426 909.721,-250.429 961.446,-303.254 1115.19,-250.426 1120.51,-248.597 1125.85,-246.116 1130.96,-243.337"/>
<polygon fill="#ebc72d" stroke="#ebc72d" points="1133.02,-246.185 1139.86,-238.091 1129.47,-240.155 1133.02,-246.185"/>
</g>
<!-- artillery_foundry&#45;&gt;captain -->
<g id="edge3" class="edge"><title>artillery_foundry&#45;&gt;captain</title>
<path fill="none" stroke="#ebc72d" d="M675.665,-297.148C693.107,-279.836 715.713,-257.397 732.362,-240.871"/>
<polygon fill="#ebc72d" stroke="#ebc72d" points="734.921,-243.263 739.553,-233.734 729.99,-238.295 734.921,-243.263"/>
</g>
<!-- puckle -->
<g id="node25" class="node"><title>puckle</title>
<g id="a_node25"><a xlink:href="british_puckle_full.html" xlink:title="Puckle">
<polygon fill="none" stroke="green" points="698.702,-235.213 618.349,-235.213 597.678,-199.213 678.031,-199.213 698.702,-235.213"/>
<text text-anchor="middle" x="648.19" y="-213.513" font-family="Times,serif" font-size="14.00" fill="#ebc72d">Puckle</text>
</a>
</g>
</g>
<!-- artillery_foundry&#45;&gt;puckle -->
<g id="edge6" class="edge"><title>artillery_foundry&#45;&gt;puckle</title>
<path fill="none" stroke="#ebc72d" d="M648.94,-297.148C648.791,-281.422 648.601,-261.466 648.45,-245.555"/>
<polygon fill="#ebc72d" stroke="#ebc72d" points="651.947,-245.253 648.352,-235.287 644.948,-245.319 651.947,-245.253"/>
</g>
<!-- saberman -->
<g id="node14" class="node"><title>saberman</title>
<g id="a_node14"><a xlink:href="british_saberman_full.html" xlink:title="Saberman">
<ellipse fill="none" stroke="magenta" cx="1360.19" cy="-324.426" rx="46.2923" ry="18"/>
<text text-anchor="middle" x="1360.19" y="-320.726" font-family="Times,serif" font-size="14.00" fill="#ebc72d">Saberman</text>
</a>
</g>
</g>
<!-- saberman&#45;&gt;mortar -->
<g id="edge41" class="edge"><title>saberman&#45;&gt;mortar</title>
<path fill="none" stroke="#ebc72d" stroke-dasharray="5,2" d="M1341.56,-307.683C1331.44,-299.995 1318.33,-291.361 1305.19,-286.426 1186.08,-241.709 1142.64,-288.346 1021.19,-250.426 1012.78,-247.802 1004.16,-244.076 996.118,-240.083"/>
<polygon fill="#ebc72d" stroke="#ebc72d" points="997.477,-236.845 986.992,-235.325 994.24,-243.052 997.477,-236.845"/>
</g>
<!-- puckle_gun -->
<g id="node18" class="node"><title>puckle_gun</title>
<g id="a_node18"><a xlink:href="british_puckle_gun_full.html" xlink:title="Puckle\nGun">
<ellipse fill="none" stroke="magenta" cx="973.19" cy="-110" rx="37.4533" ry="26.7407"/>
<text text-anchor="middle" x="973.19" y="-113.8" font-family="Times,serif" font-size="14.00" fill="#ebc72d">Puckle</text>
<text text-anchor="middle" x="973.19" y="-98.8" font-family="Times,serif" font-size="14.00" fill="#ebc72d">Gun</text>
</a>
</g>
</g>
<!-- saberman&#45;&gt;puckle_gun -->
<g id="edge42" class="edge"><title>saberman&#45;&gt;puckle_gun</title>
<path fill="none" stroke="#ebc72d" stroke-dasharray="5,2" d="M1347.9,-307.064C1325.24,-278.025 1273.97,-217.403 1217.19,-184 1154.26,-146.981 1071,-127.347 1019.81,-118.071"/>
<polygon fill="#ebc72d" stroke="#ebc72d" points="1020.16,-114.579 1009.71,-116.3 1018.95,-121.474 1020.16,-114.579"/>
</g>
<!-- cow -->
<g id="node19" class="node"><title>cow</title>
<g id="a_node19"><a xlink:href="british_cow_full.html" xlink:title="Cow">
<ellipse fill="none" stroke="magenta" cx="1111.19" cy="-324.426" rx="27.0966" ry="18"/>
<text text-anchor="middle" x="1111.19" y="-320.726" font-family="Times,serif" font-size="14.00" fill="#ebc72d">Cow</text>
</a>
</g>
</g>
<!-- camp&#45;&gt;cavalry -->
<g id="edge11" class="edge"><title>camp&#45;&gt;cavalry</title>
<path fill="none" stroke="#ebc72d" d="M1204.19,-323.426C1196.95,-312.353 1134.51,-266.157 1096.8,-238.796"/>
<polygon fill="#ebc72d" stroke="#ebc72d" points="1098.4,-235.635 1088.25,-232.607 1094.3,-241.305 1098.4,-235.635"/>
</g>
<!-- camp&#45;&gt;infantryman -->
<g id="edge12" class="edge"><title>camp&#45;&gt;infantryman</title>
<path fill="none" stroke="#ebc72d" d="M1175.13,-417C1160.2,-410.492 1141.53,-403.121 1124.19,-398.426 1017.95,-369.67 983.129,-398.614 879.19,-362.426 867.753,-358.444 856.052,-352.371 845.836,-346.289"/>
<polygon fill="#ebc72d" stroke="#ebc72d" points="847.629,-343.283 837.284,-340.995 843.944,-349.234 847.629,-343.283"/>
</g>
<!-- camp&#45;&gt;nurse -->
<g id="edge13" class="edge"><title>camp&#45;&gt;nurse</title>
<path fill="none" stroke="#ebc72d" d="M1212.03,-416.885C1221.56,-400.172 1237.84,-371.638 1249.68,-350.878"/>
<polygon fill="#ebc72d" stroke="#ebc72d" points="1252.85,-352.377 1254.76,-341.956 1246.77,-348.909 1252.85,-352.377"/>
</g>
<!-- camp&#45;&gt;saberman -->
<g id="edge14" class="edge"><title>camp&#45;&gt;saberman</title>
<path fill="none" stroke="#ebc72d" d="M1224.58,-416.885C1251.38,-398.81 1298.68,-366.91 1329.73,-345.969"/>
<polygon fill="#ebc72d" stroke="#ebc72d" points="1331.69,-348.867 1338.03,-340.374 1327.78,-343.063 1331.69,-348.867"/>
</g>
<!-- camp&#45;&gt;cannon -->
<g id="edge10" class="edge"><title>camp&#45;&gt;cannon</title>
<path fill="none" stroke="#ebc72d" stroke-dasharray="1,5" d="M1208.56,-417.029C1214.54,-395.602 1222.59,-353.555 1204.19,-325.426"/>
<path fill="none" stroke="#ebc72d" stroke-dasharray="1,5" d="M1204.19,-323.426C1144.45,-232.079 943.74,-267.954 898.19,-250.426 890.849,-247.602 883.504,-243.487 876.845,-239.137"/>
<polygon fill="#ebc72d" stroke="#ebc72d" points="878.463,-235.999 868.256,-233.159 874.464,-241.745 878.463,-235.999"/>
</g>
<!-- training_field -->
<g id="node23" class="node"><title>training_field</title>
<g id="a_node23"><a xlink:href="british_training_field_full.html" xlink:title="Training\nField">
<polygon fill="none" stroke="green" points="1554.32,-362.426 1450.71,-362.426 1424.06,-286.426 1527.67,-286.426 1554.32,-362.426"/>
<text text-anchor="middle" x="1489.19" y="-328.226" font-family="Times,serif" font-size="14.00" fill="#ebc72d">Training</text>
<text text-anchor="middle" x="1489.19" y="-313.226" font-family="Times,serif" font-size="14.00" fill="#ebc72d">Field</text>
</a>
</g>
</g>
<!-- camp&#45;&gt;training_field -->
<g id="edge15" class="edge"><title>camp&#45;&gt;training_field</title>
<path fill="none" stroke="#ebc72d" d="M1221.85,-417.073C1231.06,-410.585 1242.76,-403.208 1254.19,-398.426 1321.83,-370.133 1346.11,-387.004 1415.19,-362.426 1422.17,-359.944 1429.34,-356.96 1436.34,-353.778"/>
<polygon fill="#ebc72d" stroke="#ebc72d" points="1438.19,-356.774 1445.74,-349.345 1435.21,-350.442 1438.19,-356.774"/>
</g>
<!-- farm_house&#45;&gt;pig -->
<g id="edge27" class="edge"><title>farm_house&#45;&gt;pig</title>
<path fill="none" stroke="#ebc72d" d="M1062.45,-404.361C1057.74,-388.384 1051.75,-368.041 1047.02,-352.009"/>
<polygon fill="#ebc72d" stroke="#ebc72d" points="1050.31,-350.788 1044.13,-342.185 1043.6,-352.767 1050.31,-350.788"/>
</g>
<!-- farm_house&#45;&gt;wagon_worker -->
<g id="edge29" class="edge"><title>farm_house&#45;&gt;wagon_worker</title>
<path fill="none" stroke="#ebc72d" stroke-dasharray="1,5" d="M1110.17,-404.4C1124.13,-393.162 1138.47,-378.828 1147.19,-362.426 1165.05,-328.813 1168.47,-284.788 1168.25,-254.264"/>
<polygon fill="#ebc72d" stroke="#ebc72d" points="1171.75,-253.996 1168.05,-244.07 1164.75,-254.139 1171.75,-253.996"/>
</g>
<!-- farm_house&#45;&gt;cow -->
<g id="edge26" class="edge"><title>farm_house&#45;&gt;cow</title>
<path fill="none" stroke="#ebc72d" d="M1080.43,-404.361C1086.72,-388.232 1094.73,-367.653 1101.01,-351.552"/>
<polygon fill="#ebc72d" stroke="#ebc72d" points="1104.29,-352.773 1104.66,-342.185 1097.77,-350.232 1104.29,-352.773"/>
</g>
<!-- stables -->
<g id="node29" class="node"><title>stables</title>
<g id="a_node29"><a xlink:href="british_stables_full.html" xlink:title="Stables">
<polygon fill="none" stroke="green" points="994.42,-342.426 909.743,-342.426 887.96,-306.426 972.637,-306.426 994.42,-342.426"/>
<text text-anchor="middle" x="941.19" y="-320.726" font-family="Times,serif" font-size="14.00" fill="#ebc72d">Stables</text>
</a>
</g>
</g>
<!-- farm_house&#45;&gt;stables -->
<g id="edge28" class="edge"><title>farm_house&#45;&gt;stables</title>
<path fill="none" stroke="#ebc72d" d="M1037.97,-404.361C1017.11,-387.35 990.188,-365.389 970.034,-348.952"/>
<polygon fill="#ebc72d" stroke="#ebc72d" points="972.085,-346.108 962.123,-342.5 967.661,-351.533 972.085,-346.108"/>
</g>
<!-- puckle&#45;&gt;puckle_gun -->
<g id="edge40" class="edge"><title>puckle&#45;&gt;puckle_gun</title>
<path fill="none" stroke="#ebc72d" stroke-dasharray="1,5" d="M676.857,-199.135C686.581,-193.803 697.653,-188.218 708.19,-184 782.691,-154.178 873.661,-132.036 927.317,-120.352"/>
<polygon fill="#ebc72d" stroke="#ebc72d" points="928.172,-123.749 937.212,-118.224 926.7,-116.905 928.172,-123.749"/>
</g>
<!-- explosives&#45;&gt;grenader -->
<g id="edge25" class="edge"><title>explosives&#45;&gt;grenader</title>
<path fill="none" stroke="#ebc72d" stroke-dasharray="1,5" d="M307.692,-306.288C330.401,-288.187 366.268,-259.599 390.943,-239.931"/>
<polygon fill="#ebc72d" stroke="#ebc72d" points="393.209,-242.601 398.847,-233.631 388.846,-237.127 393.209,-242.601"/>
</g>
<!-- heated_air&#45;&gt;balloon -->
<g id="edge32" class="edge"><title>heated_air&#45;&gt;balloon</title>
<path fill="none" stroke="#ebc72d" stroke-dasharray="1,5" d="M271.452,-71.8739C267.129,-62.8253 262.596,-53.3382 258.583,-44.9382"/>
<polygon fill="#ebc72d" stroke="#ebc72d" points="261.623,-43.1823 254.154,-35.6681 255.307,-46.2 261.623,-43.1823"/>
</g>
<!-- gun_powder&#45;&gt;lookout_tower -->
<g id="edge31" class="edge"><title>gun_powder&#45;&gt;lookout_tower</title>
<path fill="none" stroke="#ebc72d" stroke-dasharray="1,5" d="M82.6772,-286.332C78.4773,-276.289 73.9309,-265.418 69.7295,-255.372"/>
<polygon fill="#ebc72d" stroke="#ebc72d" points="72.9169,-253.921 65.8296,-246.046 66.4589,-256.622 72.9169,-253.921"/>
</g>
<!-- stables&#45;&gt;cavalry -->
<g id="edge44" class="edge"><title>stables&#45;&gt;cavalry</title>
<path fill="none" stroke="#ebc72d" stroke-dasharray="1,5" d="M961.877,-306.288C983.758,-288.161 1018.33,-259.519 1042.08,-239.848"/>
<polygon fill="#ebc72d" stroke="#ebc72d" points="1044.52,-242.371 1049.98,-233.296 1040.05,-236.981 1044.52,-242.371"/>
</g>
<!-- stables&#45;&gt;captain -->
<g id="edge43" class="edge"><title>stables&#45;&gt;captain</title>
<path fill="none" stroke="#ebc72d" stroke-dasharray="1,5" d="M913.737,-306.276C903.08,-299.821 890.691,-292.564 879.19,-286.426 846.216,-268.83 835.686,-268.891 803.19,-250.426 796.711,-246.745 789.953,-242.489 783.622,-238.302"/>
<polygon fill="#ebc72d" stroke="#ebc72d" points="785.566,-235.392 775.32,-232.695 781.648,-241.193 785.566,-235.392"/>
</g>
</g>
</svg>
