<?xml version="1.0" encoding="UTF-8" standalone="no"?>
<!DOCTYPE svg PUBLIC "-//W3C//DTD SVG 1.1//EN"
 "http://www.w3.org/Graphics/SVG/1.1/DTD/svg11.dtd">
<!-- Generated by graphviz version 2.38.0 (20140413.2041)
 -->
<!-- Title: test Pages: 1 -->
<svg width="1741pt" height="545pt"
 viewBox="0.00 0.00 1740.57 544.85" xmlns="http://www.w3.org/2000/svg" xmlns:xlink="http://www.w3.org/1999/xlink">
<g id="graph0" class="graph" transform="scale(1 1) rotate(0) translate(4 540.853)">
<title>test</title>
<polygon fill="#151515" stroke="none" points="-4,4 -4,-540.853 1736.57,-540.853 1736.57,4 -4,4"/>
<!-- cavalry -->
<g id="node1" class="node"><title>cavalry</title>
<g id="a_node1"><a xlink:href="british_cavalry_full.html" xlink:title="Cavalry">
<ellipse fill="none" stroke="magenta" cx="836.568" cy="-217.213" rx="38.1938" ry="18"/>
<text text-anchor="middle" x="836.568" y="-213.513" font-family="Times,serif" font-size="14.00" fill="#ebc72d">Cavalry</text>
</a>
</g>
</g>
<!-- grenader -->
<g id="node2" class="node"><title>grenader</title>
<g id="a_node2"><a xlink:href="british_grenader_full.html" xlink:title="Grenader">
<ellipse fill="none" stroke="magenta" cx="641.568" cy="-217.213" rx="43.5923" ry="18"/>
<text text-anchor="middle" x="641.568" y="-213.513" font-family="Times,serif" font-size="14.00" fill="#ebc72d">Grenader</text>
</a>
</g>
</g>
<!-- colonist -->
<g id="node3" class="node"><title>colonist</title>
<g id="a_node3"><a xlink:href="british_colonist_full.html" xlink:title="Colonist">
<ellipse fill="none" stroke="magenta" cx="845.568" cy="-518.853" rx="40.0939" ry="18"/>
<text text-anchor="middle" x="845.568" y="-515.153" font-family="Times,serif" font-size="14.00" fill="#ebc72d">Colonist</text>
</a>
</g>
</g>
<!-- powder_house -->
<g id="node6" class="node"><title>powder_house</title>
<g id="a_node6"><a xlink:href="british_powder_house_full.html" xlink:title="Powder\nHouse">
<polygon fill="none" stroke="red" points="896.456,-441.969 845.568,-465.067 794.679,-441.969 794.727,-404.596 896.409,-404.596 896.456,-441.969"/>
<text text-anchor="middle" x="845.568" y="-435.44" font-family="Times,serif" font-size="14.00" fill="#ebc72d">Powder</text>
<text text-anchor="middle" x="845.568" y="-420.44" font-family="Times,serif" font-size="14.00" fill="#ebc72d">House</text>
</a>
</g>
</g>
<!-- colonist&#45;&gt;powder_house -->
<g id="edge22" class="edge"><title>colonist&#45;&gt;powder_house</title>
<path fill="none" stroke="#ebc72d" stroke-width="2" d="M845.568,-500.609C845.568,-493.189 845.568,-484.155 845.568,-475.128"/>
<polygon fill="#ebc72d" stroke="#ebc72d" stroke-width="2" points="849.068,-475.026 845.568,-465.026 842.068,-475.026 849.068,-475.026"/>
</g>
<!-- balloon_base -->
<g id="node7" class="node"><title>balloon_base</title>
<g id="a_node7"><a xlink:href="british_balloon_base_full.html" xlink:title="Balloon\nBase">
<polygon fill="none" stroke="red" points="103.204,-227.543 51.5679,-250.641 -0.0679804,-227.543 -0.0197844,-190.17 103.156,-190.17 103.204,-227.543"/>
<text text-anchor="middle" x="51.5679" y="-221.013" font-family="Times,serif" font-size="14.00" fill="#ebc72d">Balloon</text>
<text text-anchor="middle" x="51.5679" y="-206.013" font-family="Times,serif" font-size="14.00" fill="#ebc72d">Base</text>
</a>
</g>
</g>
<!-- colonist&#45;&gt;balloon_base -->
<g id="edge16" class="edge"><title>colonist&#45;&gt;balloon_base</title>
<path fill="none" stroke="#ebc72d" stroke-width="2" d="M805.329,-516.468C667.625,-511.22 222.57,-489.88 201.568,-432.64"/>
<path fill="none" stroke="#ebc72d" stroke-width="2" d="M201.568,-430.64C185.46,-386.74 215.619,-370.027 201.568,-325.426"/>
<path fill="none" stroke="#ebc72d" stroke-width="2" d="M201.568,-323.426C187.69,-279.376 141.302,-251.448 103.746,-235.525"/>
<polygon fill="#ebc72d" stroke="#ebc72d" stroke-width="2" points="104.995,-232.255 94.413,-231.733 102.36,-238.74 104.995,-232.255"/>
</g>
<!-- artillery_foundry -->
<g id="node12" class="node"><title>artillery_foundry</title>
<g id="a_node12"><a xlink:href="british_artillery_foundry_full.html" xlink:title="Artillery\nFoundry">
<polygon fill="none" stroke="red" points="449.696,-334.756 394.568,-357.854 339.44,-334.756 339.491,-297.383 449.645,-297.383 449.696,-334.756"/>
<text text-anchor="middle" x="394.568" y="-328.226" font-family="Times,serif" font-size="14.00" fill="#ebc72d">Artillery</text>
<text text-anchor="middle" x="394.568" y="-313.226" font-family="Times,serif" font-size="14.00" fill="#ebc72d">Foundry</text>
</a>
</g>
</g>
<!-- colonist&#45;&gt;artillery_foundry -->
<g id="edge15" class="edge"><title>colonist&#45;&gt;artillery_foundry</title>
<path fill="none" stroke="#ebc72d" stroke-width="2" d="M201.568,-430.64C179.228,-369.753 273.817,-393.821 330.568,-362.426 337.994,-358.318 345.854,-353.864 353.428,-349.516"/>
<polygon fill="#ebc72d" stroke="#ebc72d" stroke-width="2" points="355.231,-352.517 362.145,-344.488 351.734,-346.453 355.231,-352.517"/>
</g>
<!-- lookout_tower -->
<g id="node13" class="node"><title>lookout_tower</title>
<g id="a_node13"><a xlink:href="british_lookout_tower_full.html" xlink:title="Lookout\nTower">
<polygon fill="none" stroke="red" points="1311.95,-227.543 1257.57,-250.641 1203.19,-227.543 1203.24,-190.17 1311.9,-190.17 1311.95,-227.543"/>
<text text-anchor="middle" x="1257.57" y="-221.013" font-family="Times,serif" font-size="14.00" fill="#ebc72d">Lookout</text>
<text text-anchor="middle" x="1257.57" y="-206.013" font-family="Times,serif" font-size="14.00" fill="#ebc72d">Tower</text>
</a>
</g>
</g>
<!-- colonist&#45;&gt;lookout_tower -->
<g id="edge21" class="edge"><title>colonist&#45;&gt;lookout_tower</title>
<path fill="none" stroke="#ebc72d" stroke-width="2" d="M884.049,-513.117C997.827,-498.207 1328.28,-448.075 1385.57,-362.426 1404.35,-334.351 1402.95,-315.388 1385.57,-286.426 1370.16,-260.756 1341.45,-244.216 1315.12,-233.863"/>
<polygon fill="#ebc72d" stroke="#ebc72d" stroke-width="2" points="1316.15,-230.512 1305.56,-230.323 1313.72,-237.077 1316.15,-230.512"/>
</g>
<!-- fort -->
<g id="node15" class="node"><title>fort</title>
<g id="a_node15"><a xlink:href="british_fort_full.html" xlink:title="Fort">
<polygon fill="none" stroke="red" points="776.732,-437.202 745.568,-449.64 714.404,-437.202 714.433,-417.077 776.703,-417.077 776.732,-437.202"/>
<text text-anchor="middle" x="745.568" y="-427.94" font-family="Times,serif" font-size="14.00" fill="#ebc72d">Fort</text>
</a>
</g>
</g>
<!-- colonist&#45;&gt;fort -->
<g id="edge20" class="edge"><title>colonist&#45;&gt;fort</title>
<path fill="none" stroke="#ebc72d" stroke-width="2" d="M819.874,-495.958C803.625,-482.112 782.852,-464.41 767.402,-451.246"/>
<polygon fill="#ebc72d" stroke="#ebc72d" stroke-width="2" points="817.808,-498.797 827.69,-502.618 822.349,-493.469 817.808,-498.797"/>
<polygon fill="#ebc72d" stroke="#ebc72d" stroke-width="2" points="769.311,-448.274 759.43,-444.452 764.771,-453.602 769.311,-448.274"/>
</g>
<!-- wagon_worker -->
<g id="node18" class="node"><title>wagon_worker</title>
<g id="a_node18"><a xlink:href="british_wagon_worker_full.html" xlink:title="Wagon\nWorker">
<ellipse fill="none" stroke="magenta" cx="201.568" cy="-217.213" rx="41.9398" ry="26.7407"/>
<text text-anchor="middle" x="201.568" y="-221.013" font-family="Times,serif" font-size="14.00" fill="#ebc72d">Wagon</text>
<text text-anchor="middle" x="201.568" y="-206.013" font-family="Times,serif" font-size="14.00" fill="#ebc72d">Worker</text>
</a>
</g>
</g>
<!-- colonist&#45;&gt;wagon_worker -->
<g id="edge23" class="edge"><title>colonist&#45;&gt;wagon_worker</title>
<path fill="none" stroke="#ebc72d" stroke-dasharray="5,2" d="M201.568,-323.426C194.525,-301.07 194.542,-274.691 196.312,-253.939"/>
<polygon fill="#ebc72d" stroke="#ebc72d" points="199.798,-254.254 197.333,-243.949 192.834,-253.542 199.798,-254.254"/>
</g>
<!-- field_hospital -->
<g id="node19" class="node"><title>field_hospital</title>
<g id="a_node19"><a xlink:href="british_field_hospital_full.html" xlink:title="Field\nHospital">
<polygon fill="none" stroke="red" points="1128.95,-441.969 1074.57,-465.067 1020.19,-441.969 1020.24,-404.596 1128.9,-404.596 1128.95,-441.969"/>
<text text-anchor="middle" x="1074.57" y="-435.44" font-family="Times,serif" font-size="14.00" fill="#ebc72d">Field</text>
<text text-anchor="middle" x="1074.57" y="-420.44" font-family="Times,serif" font-size="14.00" fill="#ebc72d">Hospital</text>
</a>
</g>
</g>
<!-- colonist&#45;&gt;field_hospital -->
<g id="edge19" class="edge"><title>colonist&#45;&gt;field_hospital</title>
<path fill="none" stroke="#ebc72d" stroke-width="2" d="M875.506,-506.713C913.31,-492.645 978.901,-468.238 1024.41,-451.303"/>
<polygon fill="#ebc72d" stroke="#ebc72d" stroke-width="2" points="1025.65,-454.577 1033.8,-447.81 1023.21,-448.017 1025.65,-454.577"/>
</g>
<!-- camp -->
<g id="node24" class="node"><title>camp</title>
<g id="a_node24"><a xlink:href="british_camp_full.html" xlink:title="Camp">
<polygon fill="none" stroke="red" points="558.906,-437.202 518.568,-449.64 478.23,-437.202 478.268,-417.077 558.868,-417.077 558.906,-437.202"/>
<text text-anchor="middle" x="518.568" y="-427.94" font-family="Times,serif" font-size="14.00" fill="#ebc72d">Camp</text>
</a>
</g>
</g>
<!-- colonist&#45;&gt;camp -->
<g id="edge17" class="edge"><title>colonist&#45;&gt;camp</title>
<path fill="none" stroke="#ebc72d" stroke-width="2" d="M811.499,-508.975C750.632,-493.113 623.52,-459.989 558.598,-443.071"/>
<polygon fill="#ebc72d" stroke="#ebc72d" stroke-width="2" points="559.291,-439.635 548.731,-440.5 557.526,-446.409 559.291,-439.635"/>
</g>
<!-- farm_house -->
<g id="node25" class="node"><title>farm_house</title>
<g id="a_node25"><a xlink:href="british_farm_house_full.html" xlink:title="Farm\nHouse">
<polygon fill="none" stroke="red" points="1559.22,-441.969 1514.57,-465.067 1469.92,-441.969 1469.96,-404.596 1559.18,-404.596 1559.22,-441.969"/>
<text text-anchor="middle" x="1514.57" y="-435.44" font-family="Times,serif" font-size="14.00" fill="#ebc72d">Farm</text>
<text text-anchor="middle" x="1514.57" y="-420.44" font-family="Times,serif" font-size="14.00" fill="#ebc72d">House</text>
</a>
</g>
</g>
<!-- colonist&#45;&gt;farm_house -->
<g id="edge18" class="edge"><title>colonist&#45;&gt;farm_house</title>
<path fill="none" stroke="#ebc72d" stroke-width="2" d="M896.169,-517.089C996.765,-514.712 1228.57,-504.951 1418.57,-464.853 1435.52,-461.275 1453.65,-455.679 1469.53,-450.148"/>
<polygon fill="#ebc72d" stroke="#ebc72d" stroke-width="2" points="895.909,-513.593 885.989,-517.314 896.064,-520.592 895.909,-513.593"/>
<polygon fill="#ebc72d" stroke="#ebc72d" stroke-width="2" points="1470.86,-453.389 1479.1,-446.731 1468.51,-446.797 1470.86,-453.389"/>
</g>
<!-- captain_ -->
<g id="node4" class="node"><title>captain_</title>
<g id="a_node4"><a xlink:href="british_captain__full.html" xlink:title="Captain\n">
<ellipse fill="none" stroke="magenta" cx="994.568" cy="-324.426" rx="38.1938" ry="18"/>
<text text-anchor="middle" x="994.568" y="-320.726" font-family="Times,serif" font-size="14.00" fill="#ebc72d">Captain</text>
</a>
</g>
</g>
<!-- captain -->
<g id="node23" class="node"><title>captain</title>
<g id="a_node23"><a xlink:href="british_captain_full.html" xlink:title="Captain">
<ellipse fill="none" stroke="magenta" cx="741.568" cy="-217.213" rx="38.1938" ry="18"/>
<text text-anchor="middle" x="741.568" y="-213.513" font-family="Times,serif" font-size="14.00" fill="#ebc72d">Captain</text>
</a>
</g>
</g>
<!-- captain_&#45;&gt;captain -->
<g id="edge14" class="edge"><title>captain_&#45;&gt;captain</title>
<path fill="none" stroke="#ebc72d" stroke-dasharray="5,2" d="M977.988,-307.758C969.246,-300.283 957.986,-291.816 946.568,-286.426 881.83,-255.866 855.274,-278.847 789.568,-250.426 782.475,-247.359 775.307,-243.222 768.75,-238.937"/>
<polygon fill="#ebc72d" stroke="#ebc72d" points="770.474,-235.875 760.252,-233.088 766.505,-241.641 770.474,-235.875"/>
</g>
<!-- balloon -->
<g id="node5" class="node"><title>balloon</title>
<g id="a_node5"><a xlink:href="british_balloon_full.html" xlink:title="Balloon">
<ellipse fill="none" stroke="magenta" cx="51.5679" cy="-18" rx="38.1938" ry="18"/>
<text text-anchor="middle" x="51.5679" y="-14.3" font-family="Times,serif" font-size="14.00" fill="#ebc72d">Balloon</text>
</a>
</g>
</g>
<!-- powder_house&#45;&gt;cavalry -->
<g id="edge38" class="edge"><title>powder_house&#45;&gt;cavalry</title>
<path fill="none" stroke="#ebc72d" stroke-dasharray="1,5" d="M835.514,-404.504C831.219,-391.978 826.706,-376.64 824.568,-362.426 818.443,-321.713 825.077,-274.029 830.645,-244.982"/>
<polygon fill="#ebc72d" stroke="#ebc72d" points="834.077,-245.666 832.622,-235.171 827.215,-244.282 834.077,-245.666"/>
</g>
<!-- powder_house&#45;&gt;captain_ -->
<g id="edge37" class="edge"><title>powder_house&#45;&gt;captain_</title>
<path fill="none" stroke="#ebc72d" stroke-dasharray="1,5" d="M885.781,-404.318C904.455,-391.883 926.84,-376.671 946.568,-362.426 953.406,-357.489 960.667,-352.017 967.417,-346.828"/>
<polygon fill="#ebc72d" stroke="#ebc72d" points="969.862,-349.361 975.622,-340.468 965.574,-343.828 969.862,-349.361"/>
</g>
<!-- infantryman -->
<g id="node8" class="node"><title>infantryman</title>
<g id="a_node8"><a xlink:href="british_infantryman_full.html" xlink:title="Infantryman">
<ellipse fill="none" stroke="magenta" cx="560.568" cy="-324.426" rx="54.6905" ry="18"/>
<text text-anchor="middle" x="560.568" y="-320.726" font-family="Times,serif" font-size="14.00" fill="#ebc72d">Infantryman</text>
</a>
</g>
</g>
<!-- powder_house&#45;&gt;infantryman -->
<g id="edge41" class="edge"><title>powder_house&#45;&gt;infantryman</title>
<path fill="none" stroke="#ebc72d" stroke-dasharray="1,5" d="M799.973,-404.531C795.189,-402.287 790.332,-400.2 785.568,-398.426 716.852,-372.847 692.873,-389.083 624.568,-362.426 613.583,-358.14 602.24,-352.164 592.21,-346.264"/>
<polygon fill="#ebc72d" stroke="#ebc72d" points="593.779,-343.122 583.416,-340.918 590.143,-349.104 593.779,-343.122"/>
</g>
<!-- powder_house&#45;&gt;artillery_foundry -->
<g id="edge35" class="edge"><title>powder_house&#45;&gt;artillery_foundry</title>
<path fill="none" stroke="#ebc72d" stroke-dasharray="1,5" d="M801.501,-404.59C796.253,-402.211 790.873,-400.079 785.568,-398.426 648.083,-355.592 601.063,-405.226 463.568,-362.426 453.737,-359.366 443.682,-354.877 434.397,-350.073"/>
<polygon fill="#ebc72d" stroke="#ebc72d" points="435.866,-346.889 425.406,-345.206 432.533,-353.044 435.866,-346.889"/>
</g>
<!-- bullets -->
<g id="node26" class="node"><title>bullets</title>
<g id="a_node26"><a xlink:href="british_bullets_full.html" xlink:title="Bullets">
<polygon fill="none" stroke="green" points="937.891,-342.426 854.656,-342.426 833.244,-306.426 916.479,-306.426 937.891,-342.426"/>
<text text-anchor="middle" x="885.568" y="-320.726" font-family="Times,serif" font-size="14.00" fill="#ebc72d">Bullets</text>
</a>
</g>
</g>
<!-- powder_house&#45;&gt;bullets -->
<g id="edge36" class="edge"><title>powder_house&#45;&gt;bullets</title>
<path fill="none" stroke="#ebc72d" d="M855.558,-404.361C861.652,-388.333 869.416,-367.91 875.521,-351.854"/>
<polygon fill="#ebc72d" stroke="#ebc72d" points="878.795,-353.091 879.077,-342.5 872.252,-350.603 878.795,-353.091"/>
</g>
<!-- explosives -->
<g id="node28" class="node"><title>explosives</title>
<g id="a_node28"><a xlink:href="british_explosives_full.html" xlink:title="Explosives">
<polygon fill="none" stroke="green" points="777.915,-342.426 662.827,-342.426 633.221,-306.426 748.309,-306.426 777.915,-342.426"/>
<text text-anchor="middle" x="705.568" y="-320.726" font-family="Times,serif" font-size="14.00" fill="#ebc72d">Explosives</text>
</a>
</g>
</g>
<!-- powder_house&#45;&gt;explosives -->
<g id="edge39" class="edge"><title>powder_house&#45;&gt;explosives</title>
<path fill="none" stroke="#ebc72d" d="M810.601,-404.361C787.764,-387.199 758.224,-364.998 736.29,-348.515"/>
<polygon fill="#ebc72d" stroke="#ebc72d" points="738.383,-345.71 728.286,-342.5 734.178,-351.306 738.383,-345.71"/>
</g>
<!-- gun_powder -->
<g id="node30" class="node"><title>gun_powder</title>
<g id="a_node30"><a xlink:href="british_gun_powder_full.html" xlink:title="Gun\nPowder">
<polygon fill="none" stroke="green" points="1170.83,-362.426 1074.97,-362.426 1050.3,-286.426 1146.17,-286.426 1170.83,-362.426"/>
<text text-anchor="middle" x="1110.57" y="-328.226" font-family="Times,serif" font-size="14.00" fill="#ebc72d">Gun</text>
<text text-anchor="middle" x="1110.57" y="-313.226" font-family="Times,serif" font-size="14.00" fill="#ebc72d">Powder</text>
</a>
</g>
</g>
<!-- powder_house&#45;&gt;gun_powder -->
<g id="edge40" class="edge"><title>powder_house&#45;&gt;gun_powder</title>
<path fill="none" stroke="#ebc72d" d="M896.352,-415.389C936.423,-402.78 993.399,-383.566 1041.57,-362.426 1047.92,-359.637 1054.49,-356.488 1060.93,-353.235"/>
<polygon fill="#ebc72d" stroke="#ebc72d" points="1062.96,-356.126 1070.23,-348.422 1059.74,-349.908 1062.96,-356.126"/>
</g>
<!-- balloon_base&#45;&gt;balloon -->
<g id="edge8" class="edge"><title>balloon_base&#45;&gt;balloon</title>
<path fill="none" stroke="#ebc72d" d="M40.5611,-190.16C35.8573,-177.653 30.9148,-162.306 28.5679,-148 23.0997,-114.668 21.7012,-105.072 28.5679,-72 30.4732,-62.8235 34.0517,-53.2851 37.8281,-44.8715"/>
<polygon fill="#ebc72d" stroke="#ebc72d" points="41.1051,-46.1317 42.2639,-35.6004 34.7906,-43.1105 41.1051,-46.1317"/>
</g>
<!-- heated_air -->
<g id="node29" class="node"><title>heated_air</title>
<g id="a_node29"><a xlink:href="british_heated_air_full.html" xlink:title="Heated\nAir">
<polygon fill="none" stroke="green" points="151.611,-148 60.8683,-148 37.525,-72 128.267,-72 151.611,-148"/>
<text text-anchor="middle" x="94.5679" y="-113.8" font-family="Times,serif" font-size="14.00" fill="#ebc72d">Heated</text>
<text text-anchor="middle" x="94.5679" y="-98.8" font-family="Times,serif" font-size="14.00" fill="#ebc72d">Air</text>
</a>
</g>
</g>
<!-- balloon_base&#45;&gt;heated_air -->
<g id="edge9" class="edge"><title>balloon_base&#45;&gt;heated_air</title>
<path fill="none" stroke="#ebc72d" d="M62.3077,-189.935C66.3095,-180.143 70.9815,-168.712 75.5074,-157.638"/>
<polygon fill="#ebc72d" stroke="#ebc72d" points="78.8832,-158.629 79.4266,-148.048 72.4035,-155.981 78.8832,-158.629"/>
</g>
<!-- mortar -->
<g id="node9" class="node"><title>mortar</title>
<g id="a_node9"><a xlink:href="british_mortar_full.html" xlink:title="Mortar">
<polygon fill="none" stroke="green" points="365.891,-235.213 282.656,-235.213 261.244,-199.213 344.479,-199.213 365.891,-235.213"/>
<text text-anchor="middle" x="313.568" y="-213.513" font-family="Times,serif" font-size="14.00" fill="#ebc72d">Mortar</text>
</a>
</g>
</g>
<!-- pig -->
<g id="node10" class="node"><title>pig</title>
<g id="a_node10"><a xlink:href="british_pig_full.html" xlink:title="Pig">
<ellipse fill="none" stroke="magenta" cx="1705.57" cy="-324.426" rx="27" ry="18"/>
<text text-anchor="middle" x="1705.57" y="-320.726" font-family="Times,serif" font-size="14.00" fill="#ebc72d">Pig</text>
</a>
</g>
</g>
<!-- nurse -->
<g id="node11" class="node"><title>nurse</title>
<g id="a_node11"><a xlink:href="british_nurse_full.html" xlink:title="Nurse">
<ellipse fill="none" stroke="magenta" cx="1220.57" cy="-324.426" rx="31.6951" ry="18"/>
<text text-anchor="middle" x="1220.57" y="-320.726" font-family="Times,serif" font-size="14.00" fill="#ebc72d">Nurse</text>
</a>
</g>
</g>
<!-- artillery_foundry&#45;&gt;grenader -->
<g id="edge4" class="edge"><title>artillery_foundry&#45;&gt;grenader</title>
<path fill="none" stroke="#ebc72d" d="M439.937,-297.356C447.689,-293.409 455.761,-289.602 463.568,-286.426 517.121,-264.644 535.621,-273.645 588.568,-250.426 596.195,-247.082 604.051,-242.818 611.302,-238.495"/>
<polygon fill="#ebc72d" stroke="#ebc72d" points="613.436,-241.291 620.099,-233.053 609.754,-235.337 613.436,-241.291"/>
</g>
<!-- artillery_foundry&#45;&gt;balloon_base -->
<g id="edge1" class="edge"><title>artillery_foundry&#45;&gt;balloon_base</title>
<path fill="none" stroke="#ebc72d" stroke-dasharray="1,5" d="M353.885,-297.289C346.341,-293.206 338.373,-289.371 330.568,-286.426 254.236,-257.626 229.494,-271.084 150.568,-250.426 134.647,-246.259 117.527,-240.981 102.075,-235.91"/>
<polygon fill="#ebc72d" stroke="#ebc72d" points="102.785,-232.457 92.1912,-232.621 100.574,-239.099 102.785,-232.457"/>
</g>
<!-- artillery_foundry&#45;&gt;mortar -->
<g id="edge5" class="edge"><title>artillery_foundry&#45;&gt;mortar</title>
<path fill="none" stroke="#ebc72d" d="M374.337,-297.148C361.648,-280.666 345.382,-259.538 332.873,-243.289"/>
<polygon fill="#ebc72d" stroke="#ebc72d" points="335.586,-241.075 326.712,-235.287 330.039,-245.346 335.586,-241.075"/>
</g>
<!-- cannon -->
<g id="node17" class="node"><title>cannon</title>
<g id="a_node17"><a xlink:href="british_cannon_full.html" xlink:title="Cannon">
<ellipse fill="none" stroke="magenta" cx="541.568" cy="-217.213" rx="38.1938" ry="18"/>
<text text-anchor="middle" x="541.568" y="-213.513" font-family="Times,serif" font-size="14.00" fill="#ebc72d">Cannon</text>
</a>
</g>
</g>
<!-- artillery_foundry&#45;&gt;cannon -->
<g id="edge2" class="edge"><title>artillery_foundry&#45;&gt;cannon</title>
<path fill="none" stroke="#ebc72d" d="M431.283,-297.148C456.469,-279.122 489.419,-255.538 512.723,-238.858"/>
<polygon fill="#ebc72d" stroke="#ebc72d" points="515.052,-241.496 521.146,-232.83 510.977,-235.804 515.052,-241.496"/>
</g>
<!-- artillery_foundry&#45;&gt;wagon_worker -->
<g id="edge7" class="edge"><title>artillery_foundry&#45;&gt;wagon_worker</title>
<path fill="none" stroke="#ebc72d" stroke-dasharray="1,5" d="M350.447,-297.216C343.838,-293.496 337.063,-289.794 330.568,-286.426 296.672,-268.853 286.113,-268.66 252.568,-250.426 248.026,-247.958 243.34,-245.244 238.734,-242.47"/>
<polygon fill="#ebc72d" stroke="#ebc72d" points="240.384,-239.376 230.033,-237.113 236.714,-245.337 240.384,-239.376"/>
</g>
<!-- artillery_foundry&#45;&gt;captain -->
<g id="edge3" class="edge"><title>artillery_foundry&#45;&gt;captain</title>
<path fill="none" stroke="#ebc72d" d="M438.117,-297.248C446.355,-293.118 455.062,-289.277 463.568,-286.426 562.087,-253.405 597.987,-288.748 694.568,-250.426 701.648,-247.617 708.721,-243.584 715.151,-239.316"/>
<polygon fill="#ebc72d" stroke="#ebc72d" points="717.313,-242.074 723.46,-233.445 713.273,-236.357 717.313,-242.074"/>
</g>
<!-- puckle -->
<g id="node27" class="node"><title>puckle</title>
<g id="a_node27"><a xlink:href="british_puckle_full.html" xlink:title="Puckle">
<polygon fill="none" stroke="green" points="485.079,-235.213 404.727,-235.213 384.056,-199.213 464.409,-199.213 485.079,-235.213"/>
<text text-anchor="middle" x="434.568" y="-213.513" font-family="Times,serif" font-size="14.00" fill="#ebc72d">Puckle</text>
</a>
</g>
</g>
<!-- artillery_foundry&#45;&gt;puckle -->
<g id="edge6" class="edge"><title>artillery_foundry&#45;&gt;puckle</title>
<path fill="none" stroke="#ebc72d" d="M404.558,-297.148C410.652,-281.119 418.416,-260.697 424.521,-244.641"/>
<polygon fill="#ebc72d" stroke="#ebc72d" points="427.795,-245.878 428.077,-235.287 421.252,-243.39 427.795,-245.878"/>
</g>
<!-- saberman -->
<g id="node14" class="node"><title>saberman</title>
<g id="a_node14"><a xlink:href="british_saberman_full.html" xlink:title="Saberman">
<ellipse fill="none" stroke="magenta" cx="275.568" cy="-324.426" rx="46.2923" ry="18"/>
<text text-anchor="middle" x="275.568" y="-320.726" font-family="Times,serif" font-size="14.00" fill="#ebc72d">Saberman</text>
</a>
</g>
</g>
<!-- saberman&#45;&gt;mortar -->
<g id="edge43" class="edge"><title>saberman&#45;&gt;mortar</title>
<path fill="none" stroke="#ebc72d" stroke-dasharray="5,2" d="M281.673,-306.522C287.676,-289.902 296.93,-264.279 303.927,-244.905"/>
<polygon fill="#ebc72d" stroke="#ebc72d" points="307.246,-246.019 307.351,-235.425 300.663,-243.642 307.246,-246.019"/>
</g>
<!-- puckle_gun -->
<g id="node20" class="node"><title>puckle_gun</title>
<g id="a_node20"><a xlink:href="british_puckle_gun_full.html" xlink:title="Puckle\nGun">
<ellipse fill="none" stroke="magenta" cx="320.568" cy="-110" rx="37.4533" ry="26.7407"/>
<text text-anchor="middle" x="320.568" y="-113.8" font-family="Times,serif" font-size="14.00" fill="#ebc72d">Puckle</text>
<text text-anchor="middle" x="320.568" y="-98.8" font-family="Times,serif" font-size="14.00" fill="#ebc72d">Gun</text>
</a>
</g>
</g>
<!-- saberman&#45;&gt;puckle_gun -->
<g id="edge44" class="edge"><title>saberman&#45;&gt;puckle_gun</title>
<path fill="none" stroke="#ebc72d" stroke-dasharray="5,2" d="M252.356,-308.763C241.29,-301.862 227.822,-293.593 215.568,-286.426 187.061,-269.755 167.334,-278.878 150.568,-250.426 135.579,-224.991 134.325,-208.653 150.568,-184 177.693,-142.831 233.405,-124.787 273.672,-116.938"/>
<polygon fill="#ebc72d" stroke="#ebc72d" points="274.332,-120.375 283.55,-115.154 273.087,-113.487 274.332,-120.375"/>
</g>
<!-- stone_tax -->
<g id="node16" class="node"><title>stone_tax</title>
<g id="a_node16"><a xlink:href="british_stone_tax_full.html" xlink:title="Stone\nTax">
<ellipse fill="none" stroke="magenta" cx="1465.57" cy="-324.426" rx="33.4697" ry="26.7407"/>
<text text-anchor="middle" x="1465.57" y="-328.226" font-family="Times,serif" font-size="14.00" fill="#ebc72d">Stone</text>
<text text-anchor="middle" x="1465.57" y="-313.226" font-family="Times,serif" font-size="14.00" fill="#ebc72d">Tax</text>
</a>
</g>
</g>
<!-- field_hospital&#45;&gt;nurse -->
<g id="edge31" class="edge"><title>field_hospital&#45;&gt;nurse</title>
<path fill="none" stroke="#ebc72d" d="M1118.02,-404.575C1137.35,-392.437 1160.09,-377.393 1179.57,-362.426 1185.63,-357.768 1191.9,-352.421 1197.65,-347.267"/>
<polygon fill="#ebc72d" stroke="#ebc72d" points="1200.09,-349.774 1205.11,-340.44 1195.37,-344.61 1200.09,-349.774"/>
</g>
<!-- wood_tax -->
<g id="node21" class="node"><title>wood_tax</title>
<g id="a_node21"><a xlink:href="british_wood_tax_full.html" xlink:title="Wood\nTax">
<ellipse fill="none" stroke="magenta" cx="1552.57" cy="-324.426" rx="35.2113" ry="26.7407"/>
<text text-anchor="middle" x="1552.57" y="-328.226" font-family="Times,serif" font-size="14.00" fill="#ebc72d">Wood</text>
<text text-anchor="middle" x="1552.57" y="-313.226" font-family="Times,serif" font-size="14.00" fill="#ebc72d">Tax</text>
</a>
</g>
</g>
<!-- cow -->
<g id="node22" class="node"><title>cow</title>
<g id="a_node22"><a xlink:href="british_cow_full.html" xlink:title="Cow">
<ellipse fill="none" stroke="magenta" cx="1633.57" cy="-324.426" rx="27.0966" ry="18"/>
<text text-anchor="middle" x="1633.57" y="-320.726" font-family="Times,serif" font-size="14.00" fill="#ebc72d">Cow</text>
</a>
</g>
</g>
<!-- camp&#45;&gt;cavalry -->
<g id="edge11" class="edge"><title>camp&#45;&gt;cavalry</title>
<path fill="none" stroke="#ebc72d" d="M477.568,-323.426C484.221,-306.179 481.411,-297.009 496.568,-286.426 603.78,-211.568 666.046,-296.107 788.568,-250.426 795.938,-247.679 803.294,-243.594 809.955,-239.249"/>
<polygon fill="#ebc72d" stroke="#ebc72d" points="812.339,-241.853 818.541,-233.263 808.336,-236.11 812.339,-241.853"/>
</g>
<!-- camp&#45;&gt;infantryman -->
<g id="edge12" class="edge"><title>camp&#45;&gt;infantryman</title>
<path fill="none" stroke="#ebc72d" d="M524.059,-416.885C530.632,-400.418 541.786,-372.476 550.04,-351.8"/>
<polygon fill="#ebc72d" stroke="#ebc72d" points="553.369,-352.901 553.826,-342.316 546.868,-350.306 553.369,-352.901"/>
</g>
<!-- camp&#45;&gt;saberman -->
<g id="edge13" class="edge"><title>camp&#45;&gt;saberman</title>
<path fill="none" stroke="#ebc72d" d="M478.141,-419.117C439.245,-407.309 379.321,-387.199 330.568,-362.426 321.583,-357.861 312.308,-352.089 303.994,-346.47"/>
<polygon fill="#ebc72d" stroke="#ebc72d" points="305.939,-343.56 295.73,-340.727 301.945,-349.308 305.939,-343.56"/>
</g>
<!-- camp&#45;&gt;cannon -->
<g id="edge10" class="edge"><title>camp&#45;&gt;cannon</title>
<path fill="none" stroke="#ebc72d" stroke-dasharray="1,5" d="M506.515,-417.031C490.297,-396.99 464.867,-358.349 477.568,-325.426"/>
<path fill="none" stroke="#ebc72d" stroke-dasharray="1,5" d="M477.568,-323.426C489.015,-293.755 508.767,-263.042 523.308,-242.516"/>
<polygon fill="#ebc72d" stroke="#ebc72d" points="526.169,-244.533 529.182,-234.376 520.492,-240.438 526.169,-244.533"/>
</g>
<!-- farm_house&#45;&gt;pig -->
<g id="edge27" class="edge"><title>farm_house&#45;&gt;pig</title>
<path fill="none" stroke="#ebc72d" d="M1559.34,-416.147C1591.64,-404.489 1635.39,-386.151 1669.57,-362.426 1675.4,-358.374 1681.08,-353.283 1686.13,-348.186"/>
<polygon fill="#ebc72d" stroke="#ebc72d" points="1688.74,-350.518 1693.04,-340.832 1683.64,-345.727 1688.74,-350.518"/>
</g>
<!-- farm_house&#45;&gt;stone_tax -->
<g id="edge29" class="edge"><title>farm_house&#45;&gt;stone_tax</title>
<path fill="none" stroke="#ebc72d" d="M1502.33,-404.361C1495.96,-390.681 1488.1,-373.799 1481.28,-359.164"/>
<polygon fill="#ebc72d" stroke="#ebc72d" points="1484.37,-357.515 1476.98,-349.927 1478.03,-360.47 1484.37,-357.515"/>
</g>
<!-- farm_house&#45;&gt;wood_tax -->
<g id="edge30" class="edge"><title>farm_house&#45;&gt;wood_tax</title>
<path fill="none" stroke="#ebc72d" d="M1524.06,-404.361C1528.88,-391.009 1534.81,-374.607 1540,-360.221"/>
<polygon fill="#ebc72d" stroke="#ebc72d" points="1543.35,-361.24 1543.46,-350.645 1536.77,-358.862 1543.35,-361.24"/>
</g>
<!-- farm_house&#45;&gt;cow -->
<g id="edge26" class="edge"><title>farm_house&#45;&gt;cow</title>
<path fill="none" stroke="#ebc72d" d="M1547.48,-404.418C1562.69,-392.003 1580.84,-376.78 1596.57,-362.426 1601.8,-357.654 1607.27,-352.358 1612.36,-347.3"/>
<polygon fill="#ebc72d" stroke="#ebc72d" points="1614.9,-349.711 1619.46,-340.148 1609.93,-344.779 1614.9,-349.711"/>
</g>
<!-- stables -->
<g id="node31" class="node"><title>stables</title>
<g id="a_node31"><a xlink:href="british_stables_full.html" xlink:title="Stables">
<polygon fill="none" stroke="green" points="1376.8,-342.426 1292.12,-342.426 1270.34,-306.426 1355.01,-306.426 1376.8,-342.426"/>
<text text-anchor="middle" x="1323.57" y="-320.726" font-family="Times,serif" font-size="14.00" fill="#ebc72d">Stables</text>
</a>
</g>
</g>
<!-- farm_house&#45;&gt;stables -->
<g id="edge28" class="edge"><title>farm_house&#45;&gt;stables</title>
<path fill="none" stroke="#ebc72d" d="M1469.79,-405.972C1437.57,-388.227 1394.51,-364.506 1363.47,-347.408"/>
<polygon fill="#ebc72d" stroke="#ebc72d" points="1365.1,-344.31 1354.65,-342.551 1361.72,-350.441 1365.1,-344.31"/>
</g>
<!-- puckle&#45;&gt;puckle_gun -->
<g id="edge42" class="edge"><title>puckle&#45;&gt;puckle_gun</title>
<path fill="none" stroke="#ebc72d" stroke-dasharray="1,5" d="M415.998,-199.075C398.319,-182.759 371.409,-157.922 350.666,-138.778"/>
<polygon fill="#ebc72d" stroke="#ebc72d" points="352.773,-135.96 343.05,-131.749 348.025,-141.104 352.773,-135.96"/>
</g>
<!-- explosives&#45;&gt;grenader -->
<g id="edge24" class="edge"><title>explosives&#45;&gt;grenader</title>
<path fill="none" stroke="#ebc72d" stroke-dasharray="1,5" d="M695,-306.053C684.64,-289.022 668.734,-262.874 656.969,-243.532"/>
<polygon fill="#ebc72d" stroke="#ebc72d" points="659.916,-241.642 651.729,-234.917 653.936,-245.28 659.916,-241.642"/>
</g>
<!-- heated_air&#45;&gt;balloon -->
<g id="edge34" class="edge"><title>heated_air&#45;&gt;balloon</title>
<path fill="none" stroke="#ebc72d" stroke-dasharray="1,5" d="M76.8299,-71.8739C72.5066,-62.8253 67.9739,-53.3382 63.9606,-44.9382"/>
<polygon fill="#ebc72d" stroke="#ebc72d" points="67.0007,-43.1823 59.5315,-35.6681 60.6845,-46.2 67.0007,-43.1823"/>
</g>
<!-- gun_powder&#45;&gt;lookout_tower -->
<g id="edge33" class="edge"><title>gun_powder&#45;&gt;lookout_tower</title>
<path fill="none" stroke="#ebc72d" stroke-dasharray="1,5" d="M1149.58,-295.507C1171.65,-279.707 1199.1,-260.063 1220.8,-244.533"/>
<polygon fill="#ebc72d" stroke="#ebc72d" points="1223.01,-247.25 1229.11,-238.584 1218.94,-241.558 1223.01,-247.25"/>
</g>
<!-- stables&#45;&gt;cavalry -->
<g id="edge46" class="edge"><title>stables&#45;&gt;cavalry</title>
<path fill="none" stroke="#ebc72d" stroke-dasharray="1,5" d="M1299.9,-306.409C1288.76,-299.179 1275,-291.308 1261.57,-286.426 1130.83,-238.912 965.519,-224.43 885.032,-220.065"/>
<polygon fill="#ebc72d" stroke="#ebc72d" points="884.881,-216.553 874.715,-219.536 884.523,-223.544 884.881,-216.553"/>
</g>
<!-- stables&#45;&gt;captain -->
<g id="edge45" class="edge"><title>stables&#45;&gt;captain</title>
<path fill="none" stroke="#ebc72d" stroke-dasharray="1,5" d="M1300.66,-306.276C1289.46,-298.831 1275.43,-290.822 1261.57,-286.426 1061.02,-222.831 988.356,-319.317 789.568,-250.426 782.136,-247.851 774.755,-243.833 768.092,-239.497"/>
<polygon fill="#ebc72d" stroke="#ebc72d" points="769.711,-236.359 759.511,-233.494 765.698,-242.095 769.711,-236.359"/>
</g>
</g>
</svg>
