<?xml version="1.0" encoding="UTF-8" standalone="no"?>
<!DOCTYPE svg PUBLIC "-//W3C//DTD SVG 1.1//EN"
 "http://www.w3.org/Graphics/SVG/1.1/DTD/svg11.dtd">
<!-- Generated by graphviz version 2.38.0 (20140413.2041)
 -->
<!-- Title: test Pages: 1 -->
<svg width="1355pt" height="339pt"
 viewBox="0.00 0.00 1355.35 338.59" xmlns="http://www.w3.org/2000/svg" xmlns:xlink="http://www.w3.org/1999/xlink">
<g id="graph0" class="graph" transform="scale(1 1) rotate(0) translate(4 334.593)">
<title>test</title>
<polygon fill="#151515" stroke="none" points="-4,4 -4,-334.593 1351.35,-334.593 1351.35,4 -4,4"/>
<!-- cavalry -->
<g id="node1" class="node"><title>cavalry</title>
<g id="a_node1"><a xlink:href="british_cavalry_full.html" xlink:title="Cavalry">
<ellipse fill="none" stroke="magenta" cx="795.347" cy="-122.953" rx="38.1938" ry="18"/>
<text text-anchor="middle" x="795.347" y="-119.253" font-family="Times,serif" font-size="14.00" fill="#ebc72d">Cavalry</text>
</a>
</g>
</g>
<!-- grenader -->
<g id="node2" class="node"><title>grenader</title>
<g id="a_node2"><a xlink:href="british_grenader_full.html" xlink:title="Grenader">
<ellipse fill="none" stroke="magenta" cx="138.347" cy="-122.953" rx="43.5923" ry="18"/>
<text text-anchor="middle" x="138.347" y="-119.253" font-family="Times,serif" font-size="14.00" fill="#ebc72d">Grenader</text>
</a>
</g>
</g>
<!-- colonist -->
<g id="node3" class="node"><title>colonist</title>
<g id="a_node3"><a xlink:href="british_colonist_full.html" xlink:title="Colonist">
<ellipse fill="none" stroke="magenta" cx="735.347" cy="-312.593" rx="40.0939" ry="18"/>
<text text-anchor="middle" x="735.347" y="-308.893" font-family="Times,serif" font-size="14.00" fill="#ebc72d">Colonist</text>
</a>
</g>
</g>
<!-- powder_house -->
<g id="node6" class="node"><title>powder_house</title>
<g id="a_node6"><a xlink:href="british_powder_house_full.html" xlink:title="Powder\nHouse">
<polygon fill="none" stroke="red" points="527.235,-235.71 476.347,-258.808 425.458,-235.71 425.506,-198.336 527.188,-198.336 527.235,-235.71"/>
<text text-anchor="middle" x="476.347" y="-229.18" font-family="Times,serif" font-size="14.00" fill="#ebc72d">Powder</text>
<text text-anchor="middle" x="476.347" y="-214.18" font-family="Times,serif" font-size="14.00" fill="#ebc72d">House</text>
</a>
</g>
</g>
<!-- colonist&#45;&gt;powder_house -->
<g id="edge21" class="edge"><title>colonist&#45;&gt;powder_house</title>
<path fill="none" stroke="#ebc72d" stroke-width="2" d="M703.847,-301.229C660.026,-286.812 580.151,-260.532 527.663,-243.263"/>
<polygon fill="#ebc72d" stroke="#ebc72d" stroke-width="2" points="528.466,-239.843 517.873,-240.042 526.278,-246.492 528.466,-239.843"/>
</g>
<!-- balloon_base -->
<g id="node7" class="node"><title>balloon_base</title>
<g id="a_node7"><a xlink:href="british_balloon_base_full.html" xlink:title="Balloon\nBase">
<polygon fill="none" stroke="red" points="127.982,-235.71 76.3466,-258.808 24.7107,-235.71 24.7589,-198.336 127.934,-198.336 127.982,-235.71"/>
<text text-anchor="middle" x="76.3466" y="-229.18" font-family="Times,serif" font-size="14.00" fill="#ebc72d">Balloon</text>
<text text-anchor="middle" x="76.3466" y="-214.18" font-family="Times,serif" font-size="14.00" fill="#ebc72d">Base</text>
</a>
</g>
</g>
<!-- colonist&#45;&gt;balloon_base -->
<g id="edge16" class="edge"><title>colonist&#45;&gt;balloon_base</title>
<path fill="none" stroke="#ebc72d" stroke-width="2" d="M695.414,-309.345C607.585,-304.007 391.216,-288.705 212.347,-258.593 185.533,-254.079 156.135,-247.344 131.552,-241.198"/>
<polygon fill="#ebc72d" stroke="#ebc72d" stroke-width="2" points="132.238,-237.762 121.685,-238.699 130.519,-244.547 132.238,-237.762"/>
</g>
<!-- artillery_foundry -->
<g id="node12" class="node"><title>artillery_foundry</title>
<g id="a_node12"><a xlink:href="british_artillery_foundry_full.html" xlink:title="Artillery\nFoundry">
<polygon fill="none" stroke="red" points="331.475,-235.71 276.347,-258.808 221.218,-235.71 221.27,-198.336 331.423,-198.336 331.475,-235.71"/>
<text text-anchor="middle" x="276.347" y="-229.18" font-family="Times,serif" font-size="14.00" fill="#ebc72d">Artillery</text>
<text text-anchor="middle" x="276.347" y="-214.18" font-family="Times,serif" font-size="14.00" fill="#ebc72d">Foundry</text>
</a>
</g>
</g>
<!-- colonist&#45;&gt;artillery_foundry -->
<g id="edge15" class="edge"><title>colonist&#45;&gt;artillery_foundry</title>
<path fill="none" stroke="#ebc72d" stroke-width="2" d="M697.399,-306.061C637.488,-297.154 517.405,-278.595 416.347,-258.593 389.682,-253.315 360.348,-246.693 335.449,-240.828"/>
<polygon fill="#ebc72d" stroke="#ebc72d" stroke-width="2" points="335.967,-237.353 325.429,-238.452 334.352,-244.165 335.967,-237.353"/>
</g>
<!-- lookout_tower -->
<g id="node13" class="node"><title>lookout_tower</title>
<g id="a_node13"><a xlink:href="british_lookout_tower_full.html" xlink:title="Lookout\nTower">
<polygon fill="none" stroke="red" points="611.727,-133.283 557.347,-156.381 502.966,-133.283 503.017,-95.9097 611.676,-95.9097 611.727,-133.283"/>
<text text-anchor="middle" x="557.347" y="-126.753" font-family="Times,serif" font-size="14.00" fill="#ebc72d">Lookout</text>
<text text-anchor="middle" x="557.347" y="-111.753" font-family="Times,serif" font-size="14.00" fill="#ebc72d">Tower</text>
</a>
</g>
</g>
<!-- colonist&#45;&gt;lookout_tower -->
<g id="edge20" class="edge"><title>colonist&#45;&gt;lookout_tower</title>
<path fill="none" stroke="#ebc72d" stroke-width="2" d="M720.17,-295.595C690.552,-264.372 624.604,-194.853 586.345,-154.522"/>
<polygon fill="#ebc72d" stroke="#ebc72d" stroke-width="2" points="588.731,-151.952 579.31,-147.106 583.653,-156.769 588.731,-151.952"/>
</g>
<!-- fort -->
<g id="node15" class="node"><title>fort</title>
<g id="a_node15"><a xlink:href="british_fort_full.html" xlink:title="Fort">
<polygon fill="none" stroke="red" points="952.511,-230.942 921.347,-243.38 890.183,-230.942 890.212,-210.817 952.481,-210.817 952.511,-230.942"/>
<text text-anchor="middle" x="921.347" y="-221.68" font-family="Times,serif" font-size="14.00" fill="#ebc72d">Fort</text>
</a>
</g>
</g>
<!-- colonist&#45;&gt;fort -->
<g id="edge19" class="edge"><title>colonist&#45;&gt;fort</title>
<path fill="none" stroke="#ebc72d" stroke-width="2" d="M771.765,-294.908C806.911,-278.807 859.446,-254.739 891.993,-239.828"/>
<polygon fill="#ebc72d" stroke="#ebc72d" stroke-width="2" points="770.026,-291.855 762.393,-299.202 772.942,-298.219 770.026,-291.855"/>
<polygon fill="#ebc72d" stroke="#ebc72d" stroke-width="2" points="893.777,-242.86 901.41,-235.513 890.861,-236.496 893.777,-242.86"/>
</g>
<!-- wagon_worker -->
<g id="node17" class="node"><title>wagon_worker</title>
<g id="a_node17"><a xlink:href="british_wagon_worker_full.html" xlink:title="Wagon\nWorker">
<ellipse fill="none" stroke="magenta" cx="1161.35" cy="-122.953" rx="41.9398" ry="26.7407"/>
<text text-anchor="middle" x="1161.35" y="-126.753" font-family="Times,serif" font-size="14.00" fill="#ebc72d">Wagon</text>
<text text-anchor="middle" x="1161.35" y="-111.753" font-family="Times,serif" font-size="14.00" fill="#ebc72d">Worker</text>
</a>
</g>
</g>
<!-- colonist&#45;&gt;wagon_worker -->
<g id="edge22" class="edge"><title>colonist&#45;&gt;wagon_worker</title>
<path fill="none" stroke="#ebc72d" stroke-dasharray="5,2" d="M773.873,-306.886C819.961,-300.289 898.738,-285.911 961.347,-258.593 1025.37,-230.658 1090.91,-181.93 1128.78,-151.388"/>
<polygon fill="#ebc72d" stroke="#ebc72d" points="1131.35,-153.816 1136.89,-144.787 1126.93,-148.388 1131.35,-153.816"/>
</g>
<!-- camp -->
<g id="node21" class="node"><title>camp</title>
<g id="a_node21"><a xlink:href="british_camp_full.html" xlink:title="Camp">
<polygon fill="none" stroke="red" points="835.685,-230.942 795.347,-243.38 755.009,-230.942 755.046,-210.817 835.647,-210.817 835.685,-230.942"/>
<text text-anchor="middle" x="795.347" y="-221.68" font-family="Times,serif" font-size="14.00" fill="#ebc72d">Camp</text>
</a>
</g>
</g>
<!-- colonist&#45;&gt;camp -->
<g id="edge17" class="edge"><title>colonist&#45;&gt;camp</title>
<path fill="none" stroke="#ebc72d" stroke-width="2" d="M746.915,-295.163C756.165,-282.026 769.231,-263.469 779.461,-248.94"/>
<polygon fill="#ebc72d" stroke="#ebc72d" stroke-width="2" points="782.51,-250.69 785.405,-240.499 776.786,-246.66 782.51,-250.69"/>
</g>
<!-- farm_house -->
<g id="node22" class="node"><title>farm_house</title>
<g id="a_node22"><a xlink:href="british_farm_house_full.html" xlink:title="Farm\nHouse">
<polygon fill="none" stroke="red" points="1249,-235.71 1204.35,-258.808 1159.7,-235.71 1159.74,-198.336 1248.96,-198.336 1249,-235.71"/>
<text text-anchor="middle" x="1204.35" y="-229.18" font-family="Times,serif" font-size="14.00" fill="#ebc72d">Farm</text>
<text text-anchor="middle" x="1204.35" y="-214.18" font-family="Times,serif" font-size="14.00" fill="#ebc72d">House</text>
</a>
</g>
</g>
<!-- colonist&#45;&gt;farm_house -->
<g id="edge18" class="edge"><title>colonist&#45;&gt;farm_house</title>
<path fill="none" stroke="#ebc72d" stroke-width="2" d="M773.227,-306.415C834.888,-297.787 960.702,-279.354 1066.35,-258.593 1094.9,-252.981 1126.54,-245.677 1152.3,-239.443"/>
<polygon fill="#ebc72d" stroke="#ebc72d" stroke-width="2" points="1153.35,-242.791 1162.23,-237.023 1151.69,-235.99 1153.35,-242.791"/>
</g>
<!-- captain_ -->
<g id="node4" class="node"><title>captain_</title>
<g id="a_node4"><a xlink:href="british_captain__full.html" xlink:title="Captain\n">
<ellipse fill="none" stroke="magenta" cx="409.347" cy="-122.953" rx="38.1938" ry="18"/>
<text text-anchor="middle" x="409.347" y="-119.253" font-family="Times,serif" font-size="14.00" fill="#ebc72d">Captain</text>
</a>
</g>
</g>
<!-- captain -->
<g id="node20" class="node"><title>captain</title>
<g id="a_node20"><a xlink:href="british_captain_full.html" xlink:title="Captain">
<ellipse fill="none" stroke="magenta" cx="248.347" cy="-26.8701" rx="38.1938" ry="18"/>
<text text-anchor="middle" x="248.347" y="-23.1701" font-family="Times,serif" font-size="14.00" fill="#ebc72d">Captain</text>
</a>
</g>
</g>
<!-- captain_&#45;&gt;captain -->
<g id="edge14" class="edge"><title>captain_&#45;&gt;captain</title>
<path fill="none" stroke="#ebc72d" stroke-dasharray="5,2" d="M388.584,-107.425C380.23,-101.737 370.438,-95.2643 361.347,-89.7401 335.307,-73.918 304.982,-57.4148 282.306,-45.4359"/>
<polygon fill="#ebc72d" stroke="#ebc72d" points="283.88,-42.3095 273.4,-40.7559 280.624,-48.506 283.88,-42.3095"/>
</g>
<!-- balloon -->
<g id="node5" class="node"><title>balloon</title>
<g id="a_node5"><a xlink:href="british_balloon_full.html" xlink:title="Balloon">
<ellipse fill="none" stroke="magenta" cx="38.3466" cy="-122.953" rx="38.1938" ry="18"/>
<text text-anchor="middle" x="38.3466" y="-119.253" font-family="Times,serif" font-size="14.00" fill="#ebc72d">Balloon</text>
</a>
</g>
</g>
<!-- powder_house&#45;&gt;cavalry -->
<g id="edge31" class="edge"><title>powder_house&#45;&gt;cavalry</title>
<path fill="none" stroke="#ebc72d" stroke-dasharray="1,5" d="M527.257,-217.158C583.283,-207.962 675.107,-189.162 748.347,-156.167 755.167,-153.094 762.06,-149.025 768.387,-144.817"/>
<polygon fill="#ebc72d" stroke="#ebc72d" points="770.412,-147.672 776.603,-139.074 766.402,-141.934 770.412,-147.672"/>
</g>
<!-- powder_house&#45;&gt;captain_ -->
<g id="edge30" class="edge"><title>powder_house&#45;&gt;captain_</title>
<path fill="none" stroke="#ebc72d" stroke-dasharray="1,5" d="M458.918,-198.256C448.836,-183.144 436.208,-164.216 426.222,-149.247"/>
<polygon fill="#ebc72d" stroke="#ebc72d" points="428.852,-146.884 420.391,-140.508 423.029,-150.769 428.852,-146.884"/>
</g>
<!-- infantryman -->
<g id="node8" class="node"><title>infantryman</title>
<g id="a_node8"><a xlink:href="british_infantryman_full.html" xlink:title="Infantryman">
<ellipse fill="none" stroke="magenta" cx="684.347" cy="-122.953" rx="54.6905" ry="18"/>
<text text-anchor="middle" x="684.347" y="-119.253" font-family="Times,serif" font-size="14.00" fill="#ebc72d">Infantryman</text>
</a>
</g>
</g>
<!-- powder_house&#45;&gt;infantryman -->
<g id="edge32" class="edge"><title>powder_house&#45;&gt;infantryman</title>
<path fill="none" stroke="#ebc72d" stroke-dasharray="1,5" d="M527.137,-200.683C554.776,-187.696 589.524,-171.221 620.347,-156.167 628.965,-151.957 638.198,-147.361 646.894,-142.993"/>
<polygon fill="#ebc72d" stroke="#ebc72d" points="648.709,-145.997 656.064,-138.371 645.559,-139.746 648.709,-145.997"/>
</g>
<!-- mortar -->
<g id="node9" class="node"><title>mortar</title>
<g id="a_node9"><a xlink:href="british_mortar_full.html" xlink:title="Mortar">
<ellipse fill="none" stroke="magenta" cx="897.347" cy="-26.8701" rx="35.9954" ry="18"/>
<text text-anchor="middle" x="897.347" y="-23.1701" font-family="Times,serif" font-size="14.00" fill="#ebc72d">Mortar</text>
</a>
</g>
</g>
<!-- powder_house&#45;&gt;mortar -->
<g id="edge34" class="edge"><title>powder_house&#45;&gt;mortar</title>
<path fill="none" stroke="#ebc72d" stroke-dasharray="1,5" d="M475.347,-121.953C483.793,-107.637 480.582,-99.0584 494.347,-89.7401 551.987,-50.7184 758.913,-35.1374 851.731,-30.0114"/>
<polygon fill="#ebc72d" stroke="#ebc72d" points="852.14,-33.4946 861.939,-29.4645 851.766,-26.5046 852.14,-33.4946"/>
</g>
<!-- powder_house&#45;&gt;lookout_tower -->
<g id="edge33" class="edge"><title>powder_house&#45;&gt;lookout_tower</title>
<path fill="none" stroke="#ebc72d" stroke-dasharray="1,5" d="M497.417,-198.256C507.743,-185.454 520.277,-169.914 531.207,-156.362"/>
<polygon fill="#ebc72d" stroke="#ebc72d" points="534.218,-158.204 537.772,-148.223 528.769,-153.809 534.218,-158.204"/>
</g>
<!-- cannon -->
<g id="node16" class="node"><title>cannon</title>
<g id="a_node16"><a xlink:href="british_cannon_full.html" xlink:title="Cannon">
<ellipse fill="none" stroke="magenta" cx="314.347" cy="-122.953" rx="38.1938" ry="18"/>
<text text-anchor="middle" x="314.347" y="-119.253" font-family="Times,serif" font-size="14.00" fill="#ebc72d">Cannon</text>
</a>
</g>
</g>
<!-- powder_house&#45;&gt;cannon -->
<g id="edge28" class="edge"><title>powder_house&#45;&gt;cannon</title>
<path fill="none" stroke="#ebc72d" stroke-dasharray="1,5" d="M431.353,-198.184C410.246,-185.711 384.844,-170.433 362.347,-156.167 356.31,-152.339 349.918,-148.148 343.834,-144.092"/>
<polygon fill="#ebc72d" stroke="#ebc72d" points="345.472,-140.976 335.22,-138.304 341.568,-146.786 345.472,-140.976"/>
</g>
<!-- puckle_gun -->
<g id="node18" class="node"><title>puckle_gun</title>
<g id="a_node18"><a xlink:href="british_puckle_gun_full.html" xlink:title="Puckle\nGun">
<ellipse fill="none" stroke="magenta" cx="409.347" cy="-26.8701" rx="37.4533" ry="26.7407"/>
<text text-anchor="middle" x="409.347" y="-30.6701" font-family="Times,serif" font-size="14.00" fill="#ebc72d">Puckle</text>
<text text-anchor="middle" x="409.347" y="-15.6701" font-family="Times,serif" font-size="14.00" fill="#ebc72d">Gun</text>
</a>
</g>
</g>
<!-- powder_house&#45;&gt;puckle_gun -->
<g id="edge35" class="edge"><title>powder_house&#45;&gt;puckle_gun</title>
<path fill="none" stroke="#ebc72d" stroke-dasharray="1,5" d="M469.05,-198.14C464.65,-176.678 462.145,-146.329 475.347,-123.953"/>
<path fill="none" stroke="#ebc72d" stroke-dasharray="1,5" d="M475.347,-121.953C489.948,-97.2047 467.232,-70.5254 444.565,-51.9205"/>
<polygon fill="#ebc72d" stroke="#ebc72d" points="446.643,-49.1018 436.611,-45.6929 442.327,-54.6134 446.643,-49.1018"/>
</g>
<!-- powder_house&#45;&gt;captain -->
<g id="edge29" class="edge"><title>powder_house&#45;&gt;captain</title>
<path fill="none" stroke="#ebc72d" stroke-dasharray="1,5" d="M425.583,-214.208C370.583,-202.127 287.907,-180.518 267.347,-156.167 243.647,-128.096 242.439,-83.6933 244.679,-55.1783"/>
<polygon fill="#ebc72d" stroke="#ebc72d" points="248.176,-55.3883 245.667,-45.0947 241.209,-54.7057 248.176,-55.3883"/>
</g>
<!-- balloon_base&#45;&gt;balloon -->
<g id="edge7" class="edge"><title>balloon_base&#45;&gt;balloon</title>
<path fill="none" stroke="#ebc72d" d="M66.4617,-198.256C60.8871,-183.523 53.9405,-165.165 48.347,-150.383"/>
<polygon fill="#ebc72d" stroke="#ebc72d" points="51.5369,-148.923 44.7243,-140.808 44.9899,-151.4 51.5369,-148.923"/>
</g>
<!-- pig -->
<g id="node10" class="node"><title>pig</title>
<g id="a_node10"><a xlink:href="british_pig_full.html" xlink:title="Pig">
<ellipse fill="none" stroke="magenta" cx="1320.35" cy="-122.953" rx="27" ry="18"/>
<text text-anchor="middle" x="1320.35" y="-119.253" font-family="Times,serif" font-size="14.00" fill="#ebc72d">Pig</text>
</a>
</g>
</g>
<!-- nurse -->
<g id="node11" class="node"><title>nurse</title>
<g id="a_node11"><a xlink:href="british_nurse_full.html" xlink:title="Nurse">
<ellipse fill="none" stroke="magenta" cx="1031.35" cy="-122.953" rx="31.6951" ry="18"/>
<text text-anchor="middle" x="1031.35" y="-119.253" font-family="Times,serif" font-size="14.00" fill="#ebc72d">Nurse</text>
</a>
</g>
</g>
<!-- artillery_foundry&#45;&gt;grenader -->
<g id="edge4" class="edge"><title>artillery_foundry&#45;&gt;grenader</title>
<path fill="none" stroke="#ebc72d" d="M240.449,-198.256C217.707,-181.706 188.678,-160.581 167.391,-145.09"/>
<polygon fill="#ebc72d" stroke="#ebc72d" points="169.215,-142.088 159.07,-139.034 165.096,-147.748 169.215,-142.088"/>
</g>
<!-- artillery_foundry&#45;&gt;balloon -->
<g id="edge1" class="edge"><title>artillery_foundry&#45;&gt;balloon</title>
<path fill="none" stroke="#ebc72d" stroke-dasharray="1,5" d="M221.282,-208.859C182.26,-196.876 129.254,-178.577 85.3466,-156.167 78.6833,-152.766 71.8552,-148.563 65.5413,-144.329"/>
<polygon fill="#ebc72d" stroke="#ebc72d" points="67.5222,-141.443 57.3137,-138.608 63.526,-147.19 67.5222,-141.443"/>
</g>
<!-- artillery_foundry&#45;&gt;cannon -->
<g id="edge2" class="edge"><title>artillery_foundry&#45;&gt;cannon</title>
<path fill="none" stroke="#ebc72d" d="M286.231,-198.256C291.806,-183.523 298.753,-165.165 304.346,-150.383"/>
<polygon fill="#ebc72d" stroke="#ebc72d" points="307.703,-151.4 307.969,-140.808 301.156,-148.923 307.703,-151.4"/>
</g>
<!-- artillery_foundry&#45;&gt;wagon_worker -->
<g id="edge6" class="edge"><title>artillery_foundry&#45;&gt;wagon_worker</title>
<path fill="none" stroke="#ebc72d" stroke-dasharray="1,5" d="M331.464,-209.4C357.082,-203.031 388.071,-196.165 416.347,-192.167 705.464,-151.279 786.234,-214.477 1072.35,-156.167 1087.52,-153.074 1103.59,-147.892 1117.83,-142.578"/>
<polygon fill="#ebc72d" stroke="#ebc72d" points="1119.29,-145.765 1127.36,-138.903 1116.78,-139.234 1119.29,-145.765"/>
</g>
<!-- artillery_foundry&#45;&gt;puckle_gun -->
<g id="edge5" class="edge"><title>artillery_foundry&#45;&gt;puckle_gun</title>
<path fill="none" stroke="#ebc72d" stroke-dasharray="1,5" d="M210.347,-121.953C215.654,-88.7577 307.657,-56.7526 364.686,-39.9805"/>
<polygon fill="#ebc72d" stroke="#ebc72d" points="365.919,-43.2673 374.553,-37.1272 363.974,-36.5428 365.919,-43.2673"/>
</g>
<!-- artillery_foundry&#45;&gt;captain -->
<g id="edge3" class="edge"><title>artillery_foundry&#45;&gt;captain</title>
<path fill="none" stroke="#ebc72d" d="M244.309,-198.16C225.335,-179.345 205.801,-152.384 210.347,-123.953"/>
<path fill="none" stroke="#ebc72d" d="M210.347,-121.953C214.231,-97.6602 225.186,-71.8727 234.341,-53.4511"/>
<polygon fill="#ebc72d" stroke="#ebc72d" points="237.465,-55.0309 238.918,-44.5362 231.237,-51.8339 237.465,-55.0309"/>
</g>
<!-- saberman -->
<g id="node14" class="node"><title>saberman</title>
<g id="a_node14"><a xlink:href="british_saberman_full.html" xlink:title="Saberman">
<ellipse fill="none" stroke="magenta" cx="897.347" cy="-122.953" rx="46.2923" ry="18"/>
<text text-anchor="middle" x="897.347" y="-119.253" font-family="Times,serif" font-size="14.00" fill="#ebc72d">Saberman</text>
</a>
</g>
</g>
<!-- saberman&#45;&gt;mortar -->
<g id="edge36" class="edge"><title>saberman&#45;&gt;mortar</title>
<path fill="none" stroke="#ebc72d" stroke-dasharray="5,2" d="M897.347,-104.697C897.347,-90.9043 897.347,-71.3082 897.347,-55.3595"/>
<polygon fill="#ebc72d" stroke="#ebc72d" points="900.847,-55.0169 897.347,-45.017 893.847,-55.017 900.847,-55.0169"/>
</g>
<!-- saberman&#45;&gt;puckle_gun -->
<g id="edge37" class="edge"><title>saberman&#45;&gt;puckle_gun</title>
<path fill="none" stroke="#ebc72d" stroke-dasharray="5,2" d="M876.086,-106.886C866.252,-100.621 854.152,-93.8616 842.347,-89.7401 708.208,-42.9111 538.853,-31.4847 457.409,-28.7262"/>
<polygon fill="#ebc72d" stroke="#ebc72d" points="457.085,-25.2147 446.982,-28.4047 456.869,-32.2113 457.085,-25.2147"/>
</g>
<!-- fort&#45;&gt;mortar -->
<g id="edge27" class="edge"><title>fort&#45;&gt;mortar</title>
<path fill="none" stroke="#ebc72d" stroke-dasharray="1,5" d="M952.676,-220.251C988.619,-213.655 1045.98,-197.01 1072.35,-156.167 1088.36,-131.363 1089.39,-113.845 1072.35,-89.7401 1043.27,-48.6265 984.494,-34.6523 943.102,-30.0041"/>
<polygon fill="#ebc72d" stroke="#ebc72d" points="943.276,-26.5045 932.983,-29.0125 942.594,-33.4711 943.276,-26.5045"/>
</g>
<!-- cow -->
<g id="node19" class="node"><title>cow</title>
<g id="a_node19"><a xlink:href="british_cow_full.html" xlink:title="Cow">
<ellipse fill="none" stroke="magenta" cx="1248.35" cy="-122.953" rx="27.0966" ry="18"/>
<text text-anchor="middle" x="1248.35" y="-119.253" font-family="Times,serif" font-size="14.00" fill="#ebc72d">Cow</text>
</a>
</g>
</g>
<!-- camp&#45;&gt;cavalry -->
<g id="edge9" class="edge"><title>camp&#45;&gt;cavalry</title>
<path fill="none" stroke="#ebc72d" d="M795.347,-210.416C795.347,-195.207 795.347,-170.499 795.347,-151.382"/>
<polygon fill="#ebc72d" stroke="#ebc72d" points="798.847,-151.16 795.347,-141.16 791.847,-151.16 798.847,-151.16"/>
</g>
<!-- camp&#45;&gt;infantryman -->
<g id="edge10" class="edge"><title>camp&#45;&gt;infantryman</title>
<path fill="none" stroke="#ebc72d" d="M779.913,-210.416C761.768,-194 731.39,-166.515 709.755,-146.942"/>
<polygon fill="#ebc72d" stroke="#ebc72d" points="711.983,-144.237 702.219,-140.123 707.286,-149.428 711.983,-144.237"/>
</g>
<!-- camp&#45;&gt;mortar -->
<g id="edge11" class="edge"><title>camp&#45;&gt;mortar</title>
<path fill="none" stroke="#ebc72d" stroke-dasharray="1,5" d="M832.316,-210.763C876.477,-194.13 945.318,-166.883 952.347,-156.167 968.537,-131.479 962.839,-117.336 952.347,-89.7401 946.454,-74.241 934.701,-60.1455 923.567,-49.3366"/>
<polygon fill="#ebc72d" stroke="#ebc72d" points="925.765,-46.602 916.038,-42.4017 921.022,-51.7509 925.765,-46.602"/>
</g>
<!-- camp&#45;&gt;nurse -->
<g id="edge12" class="edge"><title>camp&#45;&gt;nurse</title>
<path fill="none" stroke="#ebc72d" d="M831.257,-210.699C846.648,-204.895 864.847,-198.111 881.347,-192.167 927.364,-175.587 941.783,-178.409 985.347,-156.167 992.152,-152.692 999.102,-148.325 1005.47,-143.939"/>
<polygon fill="#ebc72d" stroke="#ebc72d" points="1007.63,-146.695 1013.73,-138.027 1003.56,-141.004 1007.63,-146.695"/>
</g>
<!-- camp&#45;&gt;saberman -->
<g id="edge13" class="edge"><title>camp&#45;&gt;saberman</title>
<path fill="none" stroke="#ebc72d" d="M809.529,-210.416C826.13,-194.072 853.873,-166.756 873.736,-147.2"/>
<polygon fill="#ebc72d" stroke="#ebc72d" points="876.253,-149.633 880.923,-140.123 871.342,-144.645 876.253,-149.633"/>
</g>
<!-- camp&#45;&gt;cannon -->
<g id="edge8" class="edge"><title>camp&#45;&gt;cannon</title>
<path fill="none" stroke="#ebc72d" stroke-dasharray="1,5" d="M754.962,-219.032C654.476,-205.581 398.657,-170.403 362.347,-156.167 355.024,-153.295 347.686,-149.163 341.028,-144.811"/>
<polygon fill="#ebc72d" stroke="#ebc72d" points="342.645,-141.672 332.437,-138.837 338.649,-147.419 342.645,-141.672"/>
</g>
<!-- farm_house&#45;&gt;pig -->
<g id="edge24" class="edge"><title>farm_house&#45;&gt;pig</title>
<path fill="none" stroke="#ebc72d" d="M1235.27,-198.313C1250.17,-185.671 1268.26,-170.216 1284.35,-156.167 1288.61,-152.442 1293.13,-148.442 1297.47,-144.571"/>
<polygon fill="#ebc72d" stroke="#ebc72d" points="1299.89,-147.107 1305,-137.829 1295.22,-141.891 1299.89,-147.107"/>
</g>
<!-- farm_house&#45;&gt;wagon_worker -->
<g id="edge25" class="edge"><title>farm_house&#45;&gt;wagon_worker</title>
<path fill="none" stroke="#ebc72d" stroke-dasharray="1,5" d="M1193.16,-198.256C1188.01,-186.215 1181.81,-171.752 1176.27,-158.799"/>
<polygon fill="#ebc72d" stroke="#ebc72d" points="1179.33,-157.068 1172.18,-149.253 1172.9,-159.823 1179.33,-157.068"/>
</g>
<!-- farm_house&#45;&gt;cow -->
<g id="edge23" class="edge"><title>farm_house&#45;&gt;cow</title>
<path fill="none" stroke="#ebc72d" d="M1215.79,-198.256C1222.35,-183.286 1230.55,-164.573 1237.08,-149.672"/>
<polygon fill="#ebc72d" stroke="#ebc72d" points="1240.29,-151.072 1241.09,-140.508 1233.87,-148.263 1240.29,-151.072"/>
</g>
</g>
</svg>
