<?xml version="1.0" encoding="UTF-8" standalone="no"?>
<!DOCTYPE svg PUBLIC "-//W3C//DTD SVG 1.1//EN"
 "http://www.w3.org/Graphics/SVG/1.1/DTD/svg11.dtd">
<!-- Generated by graphviz version 2.38.0 (20140413.2041)
 -->
<!-- Title: test Pages: 1 -->
<svg width="574pt" height="351pt"
 viewBox="0.00 0.00 573.66 351.28" xmlns="http://www.w3.org/2000/svg" xmlns:xlink="http://www.w3.org/1999/xlink">
<g id="graph0" class="graph" transform="scale(1 1) rotate(0) translate(4 347.279)">
<title>test</title>
<polygon fill="#151515" stroke="none" points="-4,4 -4,-347.279 569.663,-347.279 569.663,4 -4,4"/>
<!-- air_box -->
<g id="node1" class="node"><title>air_box</title>
<g id="a_node1"><a xlink:href="british_air_box_full.html" xlink:title="Air\nBox">
<polygon fill="none" stroke="red" points="68.262,-145.969 34.0872,-169.067 -0.0874738,-145.969 -0.0555758,-108.596 68.2301,-108.596 68.262,-145.969"/>
<text text-anchor="middle" x="34.0872" y="-139.44" font-family="Times,serif" font-size="14.00" fill="#ebc72d">Air</text>
<text text-anchor="middle" x="34.0872" y="-124.44" font-family="Times,serif" font-size="14.00" fill="#ebc72d">Box</text>
</a>
</g>
</g>
<!-- powder_house -->
<g id="node2" class="node"><title>powder_house</title>
<g id="a_node2"><a xlink:href="british_powder_house_full.html" xlink:title="Powder\nHouse">
<polygon fill="none" stroke="red" points="254.976,-248.396 204.087,-271.494 153.199,-248.396 153.246,-211.022 254.928,-211.022 254.976,-248.396"/>
<text text-anchor="middle" x="204.087" y="-241.866" font-family="Times,serif" font-size="14.00" fill="#ebc72d">Powder</text>
<text text-anchor="middle" x="204.087" y="-226.866" font-family="Times,serif" font-size="14.00" fill="#ebc72d">House</text>
</a>
</g>
</g>
<!-- powder_house&#45;&gt;air_box -->
<g id="edge7" class="edge"><title>powder_house&#45;&gt;air_box</title>
<path fill="none" stroke="#ebc72d" stroke-dasharray="1,5" d="M153.336,-212.03C129.688,-199.805 101.456,-184.401 77.0872,-168.853 72.9786,-166.231 68.7558,-163.338 64.6367,-160.393"/>
<polygon fill="#ebc72d" stroke="#ebc72d" points="66.5297,-157.441 56.3969,-154.346 62.3881,-163.084 66.5297,-157.441"/>
</g>
<!-- artillery_foundry -->
<g id="node4" class="node"><title>artillery_foundry</title>
<g id="a_node4"><a xlink:href="british_artillery_foundry_full.html" xlink:title="Artillery\nFoundry">
<polygon fill="none" stroke="red" points="322.215,-145.969 267.087,-169.067 211.959,-145.969 212.011,-108.596 322.164,-108.596 322.215,-145.969"/>
<text text-anchor="middle" x="267.087" y="-139.44" font-family="Times,serif" font-size="14.00" fill="#ebc72d">Artillery</text>
<text text-anchor="middle" x="267.087" y="-124.44" font-family="Times,serif" font-size="14.00" fill="#ebc72d">Foundry</text>
</a>
</g>
</g>
<!-- powder_house&#45;&gt;artillery_foundry -->
<g id="edge8" class="edge"><title>powder_house&#45;&gt;artillery_foundry</title>
<path fill="none" stroke="#ebc72d" stroke-dasharray="1,5" d="M220.475,-210.942C228.059,-198.854 237.173,-184.325 245.324,-171.333"/>
<polygon fill="#ebc72d" stroke="#ebc72d" points="248.432,-172.964 250.781,-162.633 242.502,-169.244 248.432,-172.964"/>
</g>
<!-- lookout_tower -->
<g id="node5" class="node"><title>lookout_tower</title>
<g id="a_node5"><a xlink:href="british_lookout_tower_full.html" xlink:title="Lookout\nTower">
<polygon fill="none" stroke="red" points="194.468,-145.969 140.087,-169.067 85.7066,-145.969 85.7574,-108.596 194.417,-108.596 194.468,-145.969"/>
<text text-anchor="middle" x="140.087" y="-139.44" font-family="Times,serif" font-size="14.00" fill="#ebc72d">Lookout</text>
<text text-anchor="middle" x="140.087" y="-124.44" font-family="Times,serif" font-size="14.00" fill="#ebc72d">Tower</text>
</a>
</g>
</g>
<!-- powder_house&#45;&gt;lookout_tower -->
<g id="edge9" class="edge"><title>powder_house&#45;&gt;lookout_tower</title>
<path fill="none" stroke="#ebc72d" stroke-dasharray="1,5" d="M187.439,-210.942C179.675,-198.76 170.331,-184.097 162.003,-171.028"/>
<polygon fill="#ebc72d" stroke="#ebc72d" points="164.757,-168.837 156.431,-162.285 158.853,-172.599 164.757,-168.837"/>
</g>
<!-- balloon_base -->
<g id="node3" class="node"><title>balloon_base</title>
<g id="a_node3"><a xlink:href="british_balloon_base_full.html" xlink:title="Balloon\nBase">
<polygon fill="none" stroke="red" points="359.723,-43.543 308.087,-66.641 256.451,-43.543 256.5,-6.16955 359.675,-6.16955 359.723,-43.543"/>
<text text-anchor="middle" x="308.087" y="-37.0132" font-family="Times,serif" font-size="14.00" fill="#ebc72d">Balloon</text>
<text text-anchor="middle" x="308.087" y="-22.0132" font-family="Times,serif" font-size="14.00" fill="#ebc72d">Base</text>
</a>
</g>
</g>
<!-- artillery_foundry&#45;&gt;balloon_base -->
<g id="edge1" class="edge"><title>artillery_foundry&#45;&gt;balloon_base</title>
<path fill="none" stroke="#ebc72d" stroke-dasharray="1,5" d="M277.752,-108.516C282.358,-97.2349 287.832,-83.8279 292.853,-71.5284"/>
<polygon fill="#ebc72d" stroke="#ebc72d" points="296.218,-72.5448 296.758,-61.9637 289.738,-69.8989 296.218,-72.5448"/>
</g>
<!-- fort -->
<g id="node6" class="node"><title>fort</title>
<g id="a_node6"><a xlink:href="british_fort_full.html" xlink:title="Fort">
<polygon fill="none" stroke="red" points="415.251,-330.842 384.087,-343.279 352.923,-330.842 352.952,-310.717 415.222,-310.717 415.251,-330.842"/>
<text text-anchor="middle" x="384.087" y="-321.579" font-family="Times,serif" font-size="14.00" fill="#ebc72d">Fort</text>
</a>
</g>
</g>
<!-- fort&#45;&gt;powder_house -->
<g id="edge6" class="edge"><title>fort&#45;&gt;powder_house</title>
<path fill="none" stroke="#ebc72d" stroke-dasharray="1,5" d="M355.167,-310.588C326.281,-296.913 281.499,-275.713 248.181,-259.94"/>
<polygon fill="#ebc72d" stroke="#ebc72d" points="249.646,-256.762 239.11,-255.646 246.651,-263.088 249.646,-256.762"/>
</g>
<!-- fort&#45;&gt;balloon_base -->
<g id="edge3" class="edge"><title>fort&#45;&gt;balloon_base</title>
<path fill="none" stroke="#ebc72d" stroke-dasharray="1,5" d="M350.087,-237.066C327.765,-180.907 345.023,-161.23 331.087,-102.426 328.688,-92.3026 325.417,-81.5495 322.095,-71.647"/>
<polygon fill="#ebc72d" stroke="#ebc72d" points="325.363,-70.389 318.786,-62.083 318.748,-72.6777 325.363,-70.389"/>
</g>
<!-- fort&#45;&gt;artillery_foundry -->
<g id="edge2" class="edge"><title>fort&#45;&gt;artillery_foundry</title>
<path fill="none" stroke="#ebc72d" stroke-dasharray="1,5" d="M378.659,-310.706C371.938,-293.895 360.148,-264.377 350.087,-239.066"/>
<path fill="none" stroke="#ebc72d" stroke-dasharray="1,5" d="M350.087,-237.066C339.268,-209.846 318.155,-184.466 299.932,-166.031"/>
<polygon fill="#ebc72d" stroke="#ebc72d" points="301.924,-163.081 292.338,-158.57 297.018,-168.075 301.924,-163.081"/>
</g>
<!-- camp -->
<g id="node7" class="node"><title>camp</title>
<g id="a_node7"><a xlink:href="british_camp_full.html" xlink:title="Camp">
<polygon fill="none" stroke="red" points="458.425,-243.628 418.087,-256.066 377.749,-243.628 377.787,-223.504 458.388,-223.504 458.425,-243.628"/>
<text text-anchor="middle" x="418.087" y="-234.366" font-family="Times,serif" font-size="14.00" fill="#ebc72d">Camp</text>
</a>
</g>
</g>
<!-- fort&#45;&gt;camp -->
<g id="edge4" class="edge"><title>fort&#45;&gt;camp</title>
<path fill="none" stroke="#ebc72d" stroke-dasharray="1,5" d="M389.55,-310.588C394.57,-298.007 402.131,-279.057 408.209,-263.823"/>
<polygon fill="#ebc72d" stroke="#ebc72d" points="411.493,-265.038 411.948,-254.453 404.991,-262.444 411.493,-265.038"/>
</g>
<!-- farm_house -->
<g id="node8" class="node"><title>farm_house</title>
<g id="a_node8"><a xlink:href="british_farm_house_full.html" xlink:title="Farm\nHouse">
<polygon fill="none" stroke="red" points="565.739,-248.396 521.087,-271.494 476.436,-248.396 476.478,-211.022 565.697,-211.022 565.739,-248.396"/>
<text text-anchor="middle" x="521.087" y="-241.866" font-family="Times,serif" font-size="14.00" fill="#ebc72d">Farm</text>
<text text-anchor="middle" x="521.087" y="-226.866" font-family="Times,serif" font-size="14.00" fill="#ebc72d">House</text>
</a>
</g>
</g>
<!-- fort&#45;&gt;farm_house -->
<g id="edge5" class="edge"><title>fort&#45;&gt;farm_house</title>
<path fill="none" stroke="#ebc72d" stroke-dasharray="1,5" d="M406.099,-310.588C426.982,-297.599 458.78,-277.821 483.648,-262.353"/>
<polygon fill="#ebc72d" stroke="#ebc72d" points="485.821,-265.123 492.464,-256.87 482.124,-259.179 485.821,-265.123"/>
</g>
</g>
</svg>
