<?xml version="1.0" encoding="UTF-8" standalone="no"?>
<!DOCTYPE svg PUBLIC "-//W3C//DTD SVG 1.1//EN"
 "http://www.w3.org/Graphics/SVG/1.1/DTD/svg11.dtd">
<!-- Generated by graphviz version 2.38.0 (20140413.2041)
 -->
<!-- Title: test Pages: 1 -->
<svg width="1608pt" height="545pt"
 viewBox="0.00 0.00 1608.13 544.85" xmlns="http://www.w3.org/2000/svg" xmlns:xlink="http://www.w3.org/1999/xlink">
<g id="graph0" class="graph" transform="scale(1 1) rotate(0) translate(4 540.853)">
<title>test</title>
<polygon fill="#151515" stroke="none" points="-4,4 -4,-540.853 1604.13,-540.853 1604.13,4 -4,4"/>
<!-- air_box -->
<g id="node1" class="node"><title>air_box</title>
<g id="a_node1"><a xlink:href="british_air_box_full.html" xlink:title="Air\nBox">
<polygon fill="none" stroke="red" points="215.975,-227.543 181.8,-250.641 147.625,-227.543 147.657,-190.17 215.943,-190.17 215.975,-227.543"/>
<text text-anchor="middle" x="181.8" y="-221.013" font-family="Times,serif" font-size="14.00" fill="#ebc72d">Air</text>
<text text-anchor="middle" x="181.8" y="-206.013" font-family="Times,serif" font-size="14.00" fill="#ebc72d">Box</text>
</a>
</g>
</g>
<!-- livestock -->
<g id="node2" class="node"><title>livestock</title>
<g id="a_node2"><a xlink:href="british_livestock_full.html" xlink:title="Livestock">
<ellipse fill="none" stroke="magenta" cx="1347.8" cy="-324.426" rx="45.4919" ry="18"/>
<text text-anchor="middle" x="1347.8" y="-320.726" font-family="Times,serif" font-size="14.00" fill="#ebc72d">Livestock</text>
</a>
</g>
</g>
<!-- cavalry -->
<g id="node3" class="node"><title>cavalry</title>
<g id="a_node3"><a xlink:href="british_cavalry_full.html" xlink:title="Cavalry">
<ellipse fill="none" stroke="magenta" cx="837.8" cy="-217.213" rx="38.1938" ry="18"/>
<text text-anchor="middle" x="837.8" y="-213.513" font-family="Times,serif" font-size="14.00" fill="#ebc72d">Cavalry</text>
</a>
</g>
</g>
<!-- colonist -->
<g id="node4" class="node"><title>colonist</title>
<g id="a_node4"><a xlink:href="british_colonist_full.html" xlink:title="Colonist">
<ellipse fill="none" stroke="magenta" cx="1098.8" cy="-518.853" rx="40.0939" ry="18"/>
<text text-anchor="middle" x="1098.8" y="-515.153" font-family="Times,serif" font-size="14.00" fill="#ebc72d">Colonist</text>
</a>
</g>
</g>
<!-- powder_house -->
<g id="node6" class="node"><title>powder_house</title>
<g id="a_node6"><a xlink:href="british_powder_house_full.html" xlink:title="Powder\nHouse">
<polygon fill="none" stroke="red" points="942.688,-441.969 891.8,-465.067 840.911,-441.969 840.959,-404.596 942.641,-404.596 942.688,-441.969"/>
<text text-anchor="middle" x="891.8" y="-435.44" font-family="Times,serif" font-size="14.00" fill="#ebc72d">Powder</text>
<text text-anchor="middle" x="891.8" y="-420.44" font-family="Times,serif" font-size="14.00" fill="#ebc72d">House</text>
</a>
</g>
</g>
<!-- colonist&#45;&gt;powder_house -->
<g id="edge21" class="edge"><title>colonist&#45;&gt;powder_house</title>
<path fill="none" stroke="#ebc72d" stroke-width="2" d="M1070.02,-506.004C1036.08,-492.033 979.189,-468.614 938.821,-451.996"/>
<polygon fill="#ebc72d" stroke="#ebc72d" stroke-width="2" points="940.031,-448.709 929.451,-448.139 937.366,-455.182 940.031,-448.709"/>
</g>
<!-- balloon_base -->
<g id="node7" class="node"><title>balloon_base</title>
<g id="a_node7"><a xlink:href="british_balloon_base_full.html" xlink:title="Balloon\nBase">
<polygon fill="none" stroke="red" points="538.436,-227.543 486.8,-250.641 435.164,-227.543 435.212,-190.17 538.388,-190.17 538.436,-227.543"/>
<text text-anchor="middle" x="486.8" y="-221.013" font-family="Times,serif" font-size="14.00" fill="#ebc72d">Balloon</text>
<text text-anchor="middle" x="486.8" y="-206.013" font-family="Times,serif" font-size="14.00" fill="#ebc72d">Base</text>
</a>
</g>
</g>
<!-- colonist&#45;&gt;balloon_base -->
<g id="edge16" class="edge"><title>colonist&#45;&gt;balloon_base</title>
<path fill="none" stroke="#ebc72d" stroke-width="2" d="M1058.28,-517.972C895.573,-517.465 293.432,-505.81 189.8,-362.426 170.014,-335.051 167.782,-312.042 189.8,-286.426 224.525,-246.029 376.262,-267.271 426.8,-250.426 433.663,-248.139 440.673,-245.105 447.367,-241.811"/>
<polygon fill="#ebc72d" stroke="#ebc72d" stroke-width="2" points="448.988,-244.913 456.258,-237.205 445.768,-238.698 448.988,-244.913"/>
</g>
<!-- artillery_foundry -->
<g id="node12" class="node"><title>artillery_foundry</title>
<g id="a_node12"><a xlink:href="british_artillery_foundry_full.html" xlink:title="Artillery\nFoundry">
<polygon fill="none" stroke="red" points="946.928,-334.756 891.8,-357.854 836.672,-334.756 836.723,-297.383 946.877,-297.383 946.928,-334.756"/>
<text text-anchor="middle" x="891.8" y="-328.226" font-family="Times,serif" font-size="14.00" fill="#ebc72d">Artillery</text>
<text text-anchor="middle" x="891.8" y="-313.226" font-family="Times,serif" font-size="14.00" fill="#ebc72d">Foundry</text>
</a>
</g>
</g>
<!-- colonist&#45;&gt;artillery_foundry -->
<g id="edge15" class="edge"><title>colonist&#45;&gt;artillery_foundry</title>
<path fill="none" stroke="#ebc72d" stroke-width="2" d="M1102.43,-500.811C1105.39,-483.083 1107.78,-454.861 1098.8,-432.64"/>
<path fill="none" stroke="#ebc72d" stroke-width="2" d="M1098.8,-430.64C1072.43,-365.349 1018.11,-395.232 955.8,-362.426 948.209,-358.43 940.219,-353.997 932.555,-349.63"/>
<polygon fill="#ebc72d" stroke="#ebc72d" stroke-width="2" points="934.165,-346.518 923.753,-344.562 930.673,-352.585 934.165,-346.518"/>
</g>
<!-- lookout_tower -->
<g id="node13" class="node"><title>lookout_tower</title>
<g id="a_node13"><a xlink:href="british_lookout_tower_full.html" xlink:title="Lookout\nTower">
<polygon fill="none" stroke="red" points="1441.18,-227.543 1386.8,-250.641 1332.42,-227.543 1332.47,-190.17 1441.13,-190.17 1441.18,-227.543"/>
<text text-anchor="middle" x="1386.8" y="-221.013" font-family="Times,serif" font-size="14.00" fill="#ebc72d">Lookout</text>
<text text-anchor="middle" x="1386.8" y="-206.013" font-family="Times,serif" font-size="14.00" fill="#ebc72d">Tower</text>
</a>
</g>
</g>
<!-- colonist&#45;&gt;lookout_tower -->
<g id="edge20" class="edge"><title>colonist&#45;&gt;lookout_tower</title>
<path fill="none" stroke="#ebc72d" stroke-width="2" d="M1138.95,-517.101C1224.12,-512.994 1420.77,-489.553 1490.8,-362.426 1507.1,-332.84 1506.85,-316.148 1490.8,-286.426 1479.14,-264.828 1457.32,-248.961 1436.68,-237.994"/>
<polygon fill="#ebc72d" stroke="#ebc72d" stroke-width="2" points="1438.13,-234.807 1427.62,-233.444 1434.99,-241.062 1438.13,-234.807"/>
</g>
<!-- fort -->
<g id="node15" class="node"><title>fort</title>
<g id="a_node15"><a xlink:href="british_fort_full.html" xlink:title="Fort">
<polygon fill="none" stroke="red" points="1599.96,-437.202 1568.8,-449.64 1537.64,-437.202 1537.66,-417.077 1599.93,-417.077 1599.96,-437.202"/>
<text text-anchor="middle" x="1568.8" y="-427.94" font-family="Times,serif" font-size="14.00" fill="#ebc72d">Fort</text>
</a>
</g>
</g>
<!-- colonist&#45;&gt;fort -->
<g id="edge19" class="edge"><title>colonist&#45;&gt;fort</title>
<path fill="none" stroke="#ebc72d" stroke-width="2" d="M1148.7,-514.721C1245.77,-508.124 1456.4,-491.203 1523.8,-464.853 1532.11,-461.606 1540.3,-456.479 1547.38,-451.263"/>
<polygon fill="#ebc72d" stroke="#ebc72d" stroke-width="2" points="1148.3,-511.24 1138.56,-515.401 1148.77,-518.224 1148.3,-511.24"/>
<polygon fill="#ebc72d" stroke="#ebc72d" stroke-width="2" points="1549.97,-453.676 1555.67,-444.741 1545.64,-448.174 1549.97,-453.676"/>
</g>
<!-- wagon_worker -->
<g id="node19" class="node"><title>wagon_worker</title>
<g id="a_node19"><a xlink:href="british_wagon_worker_full.html" xlink:title="Wagon\nWorker">
<ellipse fill="none" stroke="magenta" cx="1149.8" cy="-217.213" rx="41.9398" ry="26.7407"/>
<text text-anchor="middle" x="1149.8" y="-221.013" font-family="Times,serif" font-size="14.00" fill="#ebc72d">Wagon</text>
<text text-anchor="middle" x="1149.8" y="-206.013" font-family="Times,serif" font-size="14.00" fill="#ebc72d">Worker</text>
</a>
</g>
</g>
<!-- colonist&#45;&gt;wagon_worker -->
<g id="edge22" class="edge"><title>colonist&#45;&gt;wagon_worker</title>
<path fill="none" stroke="#ebc72d" stroke-dasharray="5,2" d="M1098.8,-430.64C1074.18,-369.7 1106.26,-293.929 1129.56,-251.327"/>
<polygon fill="#ebc72d" stroke="#ebc72d" points="1132.67,-252.936 1134.52,-242.504 1126.57,-249.505 1132.67,-252.936"/>
</g>
<!-- camp -->
<g id="node22" class="node"><title>camp</title>
<g id="a_node22"><a xlink:href="british_camp_full.html" xlink:title="Camp">
<polygon fill="none" stroke="red" points="589.138,-437.202 548.8,-449.64 508.462,-437.202 508.5,-417.077 589.1,-417.077 589.138,-437.202"/>
<text text-anchor="middle" x="548.8" y="-427.94" font-family="Times,serif" font-size="14.00" fill="#ebc72d">Camp</text>
</a>
</g>
</g>
<!-- colonist&#45;&gt;camp -->
<g id="edge17" class="edge"><title>colonist&#45;&gt;camp</title>
<path fill="none" stroke="#ebc72d" stroke-width="2" d="M1061.43,-512.063C964.09,-496.982 702.875,-456.511 595.684,-439.904"/>
<polygon fill="#ebc72d" stroke="#ebc72d" stroke-width="2" points="595.918,-436.398 585.5,-438.326 594.846,-443.316 595.918,-436.398"/>
</g>
<!-- farm_house -->
<g id="node23" class="node"><title>farm_house</title>
<g id="a_node23"><a xlink:href="british_farm_house_full.html" xlink:title="Farm\nHouse">
<polygon fill="none" stroke="red" points="1319.45,-441.969 1274.8,-465.067 1230.15,-441.969 1230.19,-404.596 1319.41,-404.596 1319.45,-441.969"/>
<text text-anchor="middle" x="1274.8" y="-435.44" font-family="Times,serif" font-size="14.00" fill="#ebc72d">Farm</text>
<text text-anchor="middle" x="1274.8" y="-420.44" font-family="Times,serif" font-size="14.00" fill="#ebc72d">House</text>
</a>
</g>
</g>
<!-- colonist&#45;&gt;farm_house -->
<g id="edge18" class="edge"><title>colonist&#45;&gt;farm_house</title>
<path fill="none" stroke="#ebc72d" stroke-width="2" d="M1125.15,-505.096C1153.72,-491.26 1199.73,-468.987 1233.19,-452.783"/>
<polygon fill="#ebc72d" stroke="#ebc72d" stroke-width="2" points="1234.8,-455.894 1242.28,-448.386 1231.75,-449.594 1234.8,-455.894"/>
</g>
<!-- balloon -->
<g id="node5" class="node"><title>balloon</title>
<g id="a_node5"><a xlink:href="british_balloon_full.html" xlink:title="Balloon">
<ellipse fill="none" stroke="magenta" cx="493.8" cy="-18" rx="38.1938" ry="18"/>
<text text-anchor="middle" x="493.8" y="-14.3" font-family="Times,serif" font-size="14.00" fill="#ebc72d">Balloon</text>
</a>
</g>
</g>
<!-- powder_house&#45;&gt;cavalry -->
<g id="edge38" class="edge"><title>powder_house&#45;&gt;cavalry</title>
<path fill="none" stroke="#ebc72d" stroke-dasharray="1,5" d="M858.154,-404.312C846.194,-392.878 834.133,-378.432 827.8,-362.426 812.519,-323.807 821.173,-274.853 829.203,-245.065"/>
<polygon fill="#ebc72d" stroke="#ebc72d" points="832.589,-245.953 831.977,-235.376 825.86,-244.026 832.589,-245.953"/>
</g>
<!-- powder_house&#45;&gt;artillery_foundry -->
<g id="edge37" class="edge"><title>powder_house&#45;&gt;artillery_foundry</title>
<path fill="none" stroke="#ebc72d" stroke-dasharray="1,5" d="M891.8,-404.361C891.8,-393.329 891.8,-380.216 891.8,-367.878"/>
<polygon fill="#ebc72d" stroke="#ebc72d" points="895.3,-367.758 891.8,-357.758 888.3,-367.758 895.3,-367.758"/>
</g>
<!-- imperialism -->
<g id="node25" class="node"><title>imperialism</title>
<g id="a_node25"><a xlink:href="british_imperialism_full.html" xlink:title="Imperialism">
<polygon fill="none" stroke="green" points="632.988,-342.426 507.017,-342.426 474.612,-306.426 600.582,-306.426 632.988,-342.426"/>
<text text-anchor="middle" x="553.8" y="-320.726" font-family="Times,serif" font-size="14.00" fill="#ebc72d">Imperialism</text>
</a>
</g>
</g>
<!-- powder_house&#45;&gt;imperialism -->
<g id="edge40" class="edge"><title>powder_house&#45;&gt;imperialism</title>
<path fill="none" stroke="#ebc72d" d="M840.928,-418.845C789.988,-406.548 709.635,-385.828 641.8,-362.426 628.31,-357.773 613.94,-352.064 600.807,-346.536"/>
<polygon fill="#ebc72d" stroke="#ebc72d" points="602.065,-343.268 591.494,-342.561 599.317,-349.706 602.065,-343.268"/>
</g>
<!-- gun_powder -->
<g id="node29" class="node"><title>gun_powder</title>
<g id="a_node29"><a xlink:href="british_gun_powder_full.html" xlink:title="Gun\nPowder">
<polygon fill="none" stroke="green" points="1247.06,-362.426 1151.2,-362.426 1126.54,-286.426 1222.4,-286.426 1247.06,-362.426"/>
<text text-anchor="middle" x="1186.8" y="-328.226" font-family="Times,serif" font-size="14.00" fill="#ebc72d">Gun</text>
<text text-anchor="middle" x="1186.8" y="-313.226" font-family="Times,serif" font-size="14.00" fill="#ebc72d">Powder</text>
</a>
</g>
</g>
<!-- powder_house&#45;&gt;gun_powder -->
<g id="edge39" class="edge"><title>powder_house&#45;&gt;gun_powder</title>
<path fill="none" stroke="#ebc72d" d="M942.512,-412.553C996.127,-393.431 1080.29,-363.414 1134.5,-344.08"/>
<polygon fill="#ebc72d" stroke="#ebc72d" points="1135.68,-347.374 1143.93,-340.718 1133.33,-340.781 1135.68,-347.374"/>
</g>
<!-- balloon_base&#45;&gt;balloon -->
<g id="edge7" class="edge"><title>balloon_base&#45;&gt;balloon</title>
<path fill="none" stroke="#ebc72d" d="M501.935,-189.911C508.17,-177.605 514.661,-162.493 517.8,-148 524.949,-114.988 524.927,-105.017 517.8,-72 515.787,-62.6743 511.992,-53.0153 508.004,-44.5384"/>
<polygon fill="#ebc72d" stroke="#ebc72d" points="511.111,-42.9261 503.505,-35.5509 504.852,-46.0597 511.111,-42.9261"/>
</g>
<!-- heated_air -->
<g id="node27" class="node"><title>heated_air</title>
<g id="a_node27"><a xlink:href="british_heated_air_full.html" xlink:title="Heated\nAir">
<polygon fill="none" stroke="green" points="508.843,-148 418.1,-148 394.757,-72 485.499,-72 508.843,-148"/>
<text text-anchor="middle" x="451.8" y="-113.8" font-family="Times,serif" font-size="14.00" fill="#ebc72d">Heated</text>
<text text-anchor="middle" x="451.8" y="-98.8" font-family="Times,serif" font-size="14.00" fill="#ebc72d">Air</text>
</a>
</g>
</g>
<!-- balloon_base&#45;&gt;heated_air -->
<g id="edge8" class="edge"><title>balloon_base&#45;&gt;heated_air</title>
<path fill="none" stroke="#ebc72d" d="M478.058,-189.935C474.801,-180.143 470.998,-168.712 467.314,-157.638"/>
<polygon fill="#ebc72d" stroke="#ebc72d" points="470.602,-156.432 464.124,-148.048 463.96,-158.642 470.602,-156.432"/>
</g>
<!-- grenadier -->
<g id="node8" class="node"><title>grenadier</title>
<g id="a_node8"><a xlink:href="british_grenadier_full.html" xlink:title="Grenadier">
<ellipse fill="none" stroke="magenta" cx="640.8" cy="-217.213" rx="46.2923" ry="18"/>
<text text-anchor="middle" x="640.8" y="-213.513" font-family="Times,serif" font-size="14.00" fill="#ebc72d">Grenadier</text>
</a>
</g>
</g>
<!-- infantryman -->
<g id="node9" class="node"><title>infantryman</title>
<g id="a_node9"><a xlink:href="british_infantryman_full.html" xlink:title="Infantryman">
<ellipse fill="none" stroke="magenta" cx="401.8" cy="-324.426" rx="54.6905" ry="18"/>
<text text-anchor="middle" x="401.8" y="-320.726" font-family="Times,serif" font-size="14.00" fill="#ebc72d">Infantryman</text>
</a>
</g>
</g>
<!-- mortar -->
<g id="node10" class="node"><title>mortar</title>
<g id="a_node10"><a xlink:href="british_mortar_full.html" xlink:title="Mortar">
<ellipse fill="none" stroke="magenta" cx="381.8" cy="-217.213" rx="35.9954" ry="18"/>
<text text-anchor="middle" x="381.8" y="-213.513" font-family="Times,serif" font-size="14.00" fill="#ebc72d">Mortar</text>
</a>
</g>
</g>
<!-- nurse -->
<g id="node11" class="node"><title>nurse</title>
<g id="a_node11"><a xlink:href="british_nurse_full.html" xlink:title="Nurse">
<ellipse fill="none" stroke="magenta" cx="110.8" cy="-324.426" rx="31.6951" ry="18"/>
<text text-anchor="middle" x="110.8" y="-320.726" font-family="Times,serif" font-size="14.00" fill="#ebc72d">Nurse</text>
</a>
</g>
</g>
<!-- nurse&#45;&gt;air_box -->
<g id="edge34" class="edge"><title>nurse&#45;&gt;air_box</title>
<path fill="none" stroke="#ebc72d" stroke-width="2" d="M121.583,-307.447C132.012,-291.993 148.09,-268.167 161.01,-249.021"/>
<polygon fill="#ebc72d" stroke="#ebc72d" stroke-width="2" points="164,-250.848 166.692,-240.601 158.197,-246.932 164,-250.848"/>
</g>
<!-- battering_ram -->
<g id="node17" class="node"><title>battering_ram</title>
<g id="a_node17"><a xlink:href="british_battering_ram_full.html" xlink:title="Battering\nRam">
<ellipse fill="none" stroke="magenta" cx="280.8" cy="-217.213" rx="47.2526" ry="26.7407"/>
<text text-anchor="middle" x="280.8" y="-221.013" font-family="Times,serif" font-size="14.00" fill="#ebc72d">Battering</text>
<text text-anchor="middle" x="280.8" y="-206.013" font-family="Times,serif" font-size="14.00" fill="#ebc72d">Ram</text>
</a>
</g>
</g>
<!-- nurse&#45;&gt;battering_ram -->
<g id="edge35" class="edge"><title>nurse&#45;&gt;battering_ram</title>
<path fill="none" stroke="#ebc72d" stroke-dasharray="5,2" d="M127.255,-308.92C135.777,-301.741 146.527,-293.188 156.8,-286.426 185.364,-267.625 194.863,-266.955 224.8,-250.426 229.648,-247.75 234.709,-244.907 239.721,-242.063"/>
<polygon fill="#ebc72d" stroke="#ebc72d" points="241.683,-244.973 248.632,-236.975 238.212,-238.894 241.683,-244.973"/>
</g>
<!-- medicine -->
<g id="node28" class="node"><title>medicine</title>
<g id="a_node28"><a xlink:href="british_medicine_full.html" xlink:title="Medicine">
<polygon fill="none" stroke="green" points="129.4,-235.213 26.6355,-235.213 0.199519,-199.213 102.964,-199.213 129.4,-235.213"/>
<text text-anchor="middle" x="64.7999" y="-213.513" font-family="Times,serif" font-size="14.00" fill="#ebc72d">Medicine</text>
</a>
</g>
</g>
<!-- nurse&#45;&gt;medicine -->
<g id="edge36" class="edge"><title>nurse&#45;&gt;medicine</title>
<path fill="none" stroke="#ebc72d" d="M103.409,-306.522C96.1092,-289.825 84.8371,-264.043 76.3535,-244.639"/>
<polygon fill="#ebc72d" stroke="#ebc72d" points="79.5379,-243.186 72.325,-235.425 73.1241,-245.99 79.5379,-243.186"/>
</g>
<!-- artillery_foundry&#45;&gt;balloon_base -->
<g id="edge1" class="edge"><title>artillery_foundry&#45;&gt;balloon_base</title>
<path fill="none" stroke="#ebc72d" stroke-dasharray="1,5" d="M836.487,-302.483C820.016,-296.742 801.819,-290.88 784.8,-286.426 697.848,-263.672 672.957,-272.382 585.8,-250.426 569.841,-246.406 552.71,-241.171 537.26,-236.093"/>
<polygon fill="#ebc72d" stroke="#ebc72d" points="537.973,-232.641 527.379,-232.793 535.755,-239.28 537.973,-232.641"/>
</g>
<!-- artillery_foundry&#45;&gt;grenadier -->
<g id="edge4" class="edge"><title>artillery_foundry&#45;&gt;grenadier</title>
<path fill="none" stroke="#ebc72d" d="M836.688,-304.106C788.141,-286.866 721.304,-262.533 695.8,-250.426 688.209,-246.823 680.281,-242.523 672.886,-238.257"/>
<polygon fill="#ebc72d" stroke="#ebc72d" points="674.257,-235.001 663.867,-232.925 670.695,-241.027 674.257,-235.001"/>
</g>
<!-- cannon -->
<g id="node16" class="node"><title>cannon</title>
<g id="a_node16"><a xlink:href="british_cannon_full.html" xlink:title="Cannon">
<ellipse fill="none" stroke="magenta" cx="742.8" cy="-217.213" rx="38.1938" ry="18"/>
<text text-anchor="middle" x="742.8" y="-213.513" font-family="Times,serif" font-size="14.00" fill="#ebc72d">Cannon</text>
</a>
</g>
</g>
<!-- artillery_foundry&#45;&gt;cannon -->
<g id="edge2" class="edge"><title>artillery_foundry&#45;&gt;cannon</title>
<path fill="none" stroke="#ebc72d" d="M854.585,-297.148C828.791,-278.934 794.962,-255.046 771.302,-238.339"/>
<polygon fill="#ebc72d" stroke="#ebc72d" points="773.266,-235.442 763.079,-232.533 769.229,-241.16 773.266,-235.442"/>
</g>
<!-- artillery_foundry&#45;&gt;wagon_worker -->
<g id="edge6" class="edge"><title>artillery_foundry&#45;&gt;wagon_worker</title>
<path fill="none" stroke="#ebc72d" stroke-dasharray="1,5" d="M933.304,-297.229C940.627,-293.25 948.307,-289.466 955.8,-286.426 1016.53,-261.788 1038.56,-276.249 1098.8,-250.426 1103.85,-248.26 1108.98,-245.628 1113.93,-242.811"/>
<polygon fill="#ebc72d" stroke="#ebc72d" points="1115.84,-245.748 1122.62,-237.604 1112.24,-239.745 1115.84,-245.748"/>
</g>
<!-- captain -->
<g id="node21" class="node"><title>captain</title>
<g id="a_node21"><a xlink:href="british_captain_full.html" xlink:title="Captain">
<ellipse fill="none" stroke="magenta" cx="1051.8" cy="-217.213" rx="38.1938" ry="18"/>
<text text-anchor="middle" x="1051.8" y="-213.513" font-family="Times,serif" font-size="14.00" fill="#ebc72d">Captain</text>
</a>
</g>
</g>
<!-- artillery_foundry&#45;&gt;captain -->
<g id="edge3" class="edge"><title>artillery_foundry&#45;&gt;captain</title>
<path fill="none" stroke="#ebc72d" d="M932.772,-297.338C954.303,-283.532 981.079,-266.213 1004.8,-250.426 1010.66,-246.523 1016.9,-242.298 1022.86,-238.233"/>
<polygon fill="#ebc72d" stroke="#ebc72d" points="1025.02,-240.99 1031.29,-232.448 1021.07,-235.217 1025.02,-240.99"/>
</g>
<!-- puckle -->
<g id="node26" class="node"><title>puckle</title>
<g id="a_node26"><a xlink:href="british_puckle_full.html" xlink:title="Puckle">
<polygon fill="none" stroke="green" points="995.311,-235.213 914.959,-235.213 894.288,-199.213 974.641,-199.213 995.311,-235.213"/>
<text text-anchor="middle" x="944.8" y="-213.513" font-family="Times,serif" font-size="14.00" fill="#ebc72d">Puckle</text>
</a>
</g>
</g>
<!-- artillery_foundry&#45;&gt;puckle -->
<g id="edge5" class="edge"><title>artillery_foundry&#45;&gt;puckle</title>
<path fill="none" stroke="#ebc72d" d="M905.037,-297.148C913.112,-281.119 923.399,-260.697 931.487,-244.641"/>
<polygon fill="#ebc72d" stroke="#ebc72d" points="934.826,-245.792 936.199,-235.287 928.575,-242.643 934.826,-245.792"/>
</g>
<!-- saberman -->
<g id="node14" class="node"><title>saberman</title>
<g id="a_node14"><a xlink:href="british_saberman_full.html" xlink:title="Saberman">
<ellipse fill="none" stroke="magenta" cx="696.8" cy="-324.426" rx="46.2923" ry="18"/>
<text text-anchor="middle" x="696.8" y="-320.726" font-family="Times,serif" font-size="14.00" fill="#ebc72d">Saberman</text>
</a>
</g>
</g>
<!-- saberman&#45;&gt;mortar -->
<g id="edge42" class="edge"><title>saberman&#45;&gt;mortar</title>
<path fill="none" stroke="#ebc72d" stroke-dasharray="5,2" d="M678.09,-307.893C667.948,-300.263 654.845,-291.617 641.8,-286.426 551.37,-250.447 515.496,-288.197 425.8,-250.426 419.234,-247.662 412.727,-243.739 406.81,-239.578"/>
<polygon fill="#ebc72d" stroke="#ebc72d" points="408.722,-236.636 398.627,-233.418 404.512,-242.229 408.722,-236.636"/>
</g>
<!-- puckle_gun -->
<g id="node20" class="node"><title>puckle_gun</title>
<g id="a_node20"><a xlink:href="british_puckle_gun_full.html" xlink:title="Puckle\nGun">
<ellipse fill="none" stroke="magenta" cx="772.8" cy="-110" rx="37.4533" ry="26.7407"/>
<text text-anchor="middle" x="772.8" y="-113.8" font-family="Times,serif" font-size="14.00" fill="#ebc72d">Puckle</text>
<text text-anchor="middle" x="772.8" y="-98.8" font-family="Times,serif" font-size="14.00" fill="#ebc72d">Gun</text>
</a>
</g>
</g>
<!-- saberman&#45;&gt;puckle_gun -->
<g id="edge43" class="edge"><title>saberman&#45;&gt;puckle_gun</title>
<path fill="none" stroke="#ebc72d" stroke-dasharray="5,2" d="M674.924,-308.558C664.867,-301.761 652.761,-293.635 641.8,-286.426 617.079,-270.168 599.978,-276.396 585.8,-250.426 571.653,-224.514 569.147,-208.378 585.8,-184 616.896,-138.48 680.957,-121.342 725.375,-114.891"/>
<polygon fill="#ebc72d" stroke="#ebc72d" points="725.917,-118.35 735.372,-113.57 725,-111.411 725.917,-118.35"/>
</g>
<!-- rabid_sheep -->
<g id="node18" class="node"><title>rabid_sheep</title>
<g id="a_node18"><a xlink:href="british_rabid_sheep_full.html" xlink:title="Rabid\nSheep">
<ellipse fill="none" stroke="magenta" cx="1446.8" cy="-324.426" rx="35.2113" ry="26.7407"/>
<text text-anchor="middle" x="1446.8" y="-328.226" font-family="Times,serif" font-size="14.00" fill="#ebc72d">Rabid</text>
<text text-anchor="middle" x="1446.8" y="-313.226" font-family="Times,serif" font-size="14.00" fill="#ebc72d">Sheep</text>
</a>
</g>
</g>
<!-- camp&#45;&gt;cavalry -->
<g id="edge10" class="edge"><title>camp&#45;&gt;cavalry</title>
<path fill="none" stroke="#ebc72d" d="M770.8,-323.426C790.649,-297.338 810.45,-265.315 823.32,-243.497"/>
<polygon fill="#ebc72d" stroke="#ebc72d" points="826.368,-245.218 828.392,-234.819 820.325,-241.687 826.368,-245.218"/>
</g>
<!-- camp&#45;&gt;infantryman -->
<g id="edge11" class="edge"><title>camp&#45;&gt;infantryman</title>
<path fill="none" stroke="#ebc72d" d="M529.582,-416.885C504.791,-399.141 461.384,-368.073 432.122,-347.129"/>
<polygon fill="#ebc72d" stroke="#ebc72d" points="434.071,-344.22 423.902,-341.246 429.996,-349.912 434.071,-344.22"/>
</g>
<!-- camp&#45;&gt;nurse -->
<g id="edge12" class="edge"><title>camp&#45;&gt;nurse</title>
<path fill="none" stroke="#ebc72d" d="M508.408,-426.308C441.085,-418.352 302.223,-398.797 189.8,-362.426 173.643,-357.199 156.484,-349.453 142.301,-342.397"/>
<polygon fill="#ebc72d" stroke="#ebc72d" points="143.505,-339.083 133.006,-337.662 140.327,-345.32 143.505,-339.083"/>
</g>
<!-- camp&#45;&gt;saberman -->
<g id="edge13" class="edge"><title>camp&#45;&gt;saberman</title>
<path fill="none" stroke="#ebc72d" d="M568.148,-416.885C593.394,-398.938 637.812,-367.361 667.276,-346.415"/>
<polygon fill="#ebc72d" stroke="#ebc72d" points="669.409,-349.193 675.531,-340.546 665.353,-343.488 669.409,-349.193"/>
</g>
<!-- camp&#45;&gt;cannon -->
<g id="edge9" class="edge"><title>camp&#45;&gt;cannon</title>
<path fill="none" stroke="#ebc72d" stroke-dasharray="1,5" d="M589.078,-426.197C633.543,-419.404 705.007,-402.67 751.8,-362.426 765.815,-350.373 759.607,-340.138 770.8,-325.426"/>
<path fill="none" stroke="#ebc72d" stroke-dasharray="1,5" d="M770.8,-323.426C788.684,-299.921 774.304,-265.911 760.384,-242.978"/>
<polygon fill="#ebc72d" stroke="#ebc72d" points="763.282,-241.014 754.941,-234.481 757.388,-244.789 763.282,-241.014"/>
</g>
<!-- training_field -->
<g id="node24" class="node"><title>training_field</title>
<g id="a_node24"><a xlink:href="british_training_field_full.html" xlink:title="Training\nField">
<polygon fill="none" stroke="green" points="328.931,-362.426 225.322,-362.426 198.668,-286.426 302.278,-286.426 328.931,-362.426"/>
<text text-anchor="middle" x="263.8" y="-328.226" font-family="Times,serif" font-size="14.00" fill="#ebc72d">Training</text>
<text text-anchor="middle" x="263.8" y="-313.226" font-family="Times,serif" font-size="14.00" fill="#ebc72d">Field</text>
</a>
</g>
</g>
<!-- camp&#45;&gt;training_field -->
<g id="edge14" class="edge"><title>camp&#45;&gt;training_field</title>
<path fill="none" stroke="#ebc72d" d="M508.49,-419.577C465.543,-407.338 395.884,-386.178 337.8,-362.426 337.592,-362.341 337.384,-362.256 337.176,-362.171"/>
<polygon fill="#ebc72d" stroke="#ebc72d" points="338.272,-358.833 327.702,-358.117 335.519,-365.268 338.272,-358.833"/>
</g>
<!-- farm_house&#45;&gt;livestock -->
<g id="edge23" class="edge"><title>farm_house&#45;&gt;livestock</title>
<path fill="none" stroke="#ebc72d" d="M1293.03,-404.361C1304.51,-387.825 1319.22,-366.612 1330.51,-350.342"/>
<polygon fill="#ebc72d" stroke="#ebc72d" points="1333.56,-352.084 1336.39,-341.872 1327.81,-348.093 1333.56,-352.084"/>
</g>
<!-- farm_house&#45;&gt;rabid_sheep -->
<g id="edge24" class="edge"><title>farm_house&#45;&gt;rabid_sheep</title>
<path fill="none" stroke="#ebc72d" d="M1319.52,-409.317C1344.43,-396.784 1375.61,-379.985 1401.8,-362.426 1406.53,-359.259 1411.35,-355.697 1415.99,-352.067"/>
<polygon fill="#ebc72d" stroke="#ebc72d" points="1418.52,-354.527 1424.11,-345.529 1414.13,-349.075 1418.52,-354.527"/>
</g>
<!-- farm_house&#45;&gt;wagon_worker -->
<g id="edge26" class="edge"><title>farm_house&#45;&gt;wagon_worker</title>
<path fill="none" stroke="#ebc72d" stroke-dasharray="1,5" d="M1277.63,-404.482C1279.61,-373.775 1278.65,-322.472 1255.8,-286.426 1241.45,-263.785 1216.56,-247.193 1194.5,-236.045"/>
<polygon fill="#ebc72d" stroke="#ebc72d" points="1195.79,-232.781 1185.26,-231.599 1192.76,-239.089 1195.79,-232.781"/>
</g>
<!-- stables -->
<g id="node30" class="node"><title>stables</title>
<g id="a_node30"><a xlink:href="british_stables_full.html" xlink:title="Stables">
<polygon fill="none" stroke="green" points="1071.03,-342.426 986.353,-342.426 964.57,-306.426 1049.25,-306.426 1071.03,-342.426"/>
<text text-anchor="middle" x="1017.8" y="-320.726" font-family="Times,serif" font-size="14.00" fill="#ebc72d">Stables</text>
</a>
</g>
</g>
<!-- farm_house&#45;&gt;stables -->
<g id="edge25" class="edge"><title>farm_house&#45;&gt;stables</title>
<path fill="none" stroke="#ebc72d" d="M1230.03,-412.313C1185.1,-393.916 1115.96,-365.612 1068.9,-346.346"/>
<polygon fill="#ebc72d" stroke="#ebc72d" points="1070.08,-343.049 1059.5,-342.499 1067.43,-349.527 1070.08,-343.049"/>
</g>
<!-- imperialism&#45;&gt;air_box -->
<g id="edge30" class="edge"><title>imperialism&#45;&gt;air_box</title>
<path fill="none" stroke="#ebc72d" stroke-dasharray="1,5" d="M518.982,-306.419C503.093,-299.28 483.833,-291.479 465.8,-286.426 361.515,-257.211 324.734,-292.163 224.8,-250.426 219.974,-248.411 215.2,-245.734 210.686,-242.781"/>
<polygon fill="#ebc72d" stroke="#ebc72d" points="212.557,-239.816 202.382,-236.864 208.495,-245.517 212.557,-239.816"/>
</g>
<!-- imperialism&#45;&gt;grenadier -->
<g id="edge32" class="edge"><title>imperialism&#45;&gt;grenadier</title>
<path fill="none" stroke="#ebc72d" stroke-dasharray="1,5" d="M568.166,-306.053C582.524,-288.689 604.72,-261.847 620.797,-242.404"/>
<polygon fill="#ebc72d" stroke="#ebc72d" points="623.597,-244.51 627.272,-234.573 618.202,-240.05 623.597,-244.51"/>
</g>
<!-- imperialism&#45;&gt;mortar -->
<g id="edge33" class="edge"><title>imperialism&#45;&gt;mortar</title>
<path fill="none" stroke="#ebc72d" stroke-dasharray="1,5" d="M521.641,-306.408C495.387,-292.202 457.57,-271.021 425.8,-250.426 420.274,-246.844 414.502,-242.83 409.026,-238.884"/>
<polygon fill="#ebc72d" stroke="#ebc72d" points="410.877,-235.9 400.743,-232.809 406.737,-241.545 410.877,-235.9"/>
</g>
<!-- imperialism&#45;&gt;battering_ram -->
<g id="edge31" class="edge"><title>imperialism&#45;&gt;battering_ram</title>
<path fill="none" stroke="#ebc72d" stroke-dasharray="1,5" d="M516.089,-306.341C500.668,-299.679 482.547,-292.258 465.8,-286.426 409.586,-266.852 391.693,-273.446 336.8,-250.426 331.366,-248.148 325.805,-245.448 320.396,-242.596"/>
<polygon fill="#ebc72d" stroke="#ebc72d" points="321.938,-239.449 311.489,-237.699 318.566,-245.584 321.938,-239.449"/>
</g>
<!-- puckle&#45;&gt;puckle_gun -->
<g id="edge41" class="edge"><title>puckle&#45;&gt;puckle_gun</title>
<path fill="none" stroke="#ebc72d" stroke-dasharray="1,5" d="M916.782,-199.075C887.546,-181.191 841.577,-153.071 809.469,-133.43"/>
<polygon fill="#ebc72d" stroke="#ebc72d" points="811.162,-130.364 800.805,-128.131 807.51,-136.335 811.162,-130.364"/>
</g>
<!-- heated_air&#45;&gt;balloon -->
<g id="edge29" class="edge"><title>heated_air&#45;&gt;balloon</title>
<path fill="none" stroke="#ebc72d" stroke-dasharray="1,5" d="M469.125,-71.8739C473.348,-62.8253 477.775,-53.3382 481.695,-44.9382"/>
<polygon fill="#ebc72d" stroke="#ebc72d" points="484.964,-46.21 486.021,-35.6681 478.621,-43.2498 484.964,-46.21"/>
</g>
<!-- gun_powder&#45;&gt;lookout_tower -->
<g id="edge28" class="edge"><title>gun_powder&#45;&gt;lookout_tower</title>
<path fill="none" stroke="#ebc72d" stroke-dasharray="1,5" d="M1227.76,-301.881C1261.54,-284.11 1309.32,-258.972 1343.68,-240.896"/>
<polygon fill="#ebc72d" stroke="#ebc72d" points="1345.33,-243.983 1352.55,-236.23 1342.07,-237.788 1345.33,-243.983"/>
</g>
<!-- stables&#45;&gt;cavalry -->
<g id="edge45" class="edge"><title>stables&#45;&gt;cavalry</title>
<path fill="none" stroke="#ebc72d" stroke-dasharray="1,5" d="M989.95,-306.253C979.353,-299.864 967.108,-292.658 955.8,-286.426 924.813,-269.351 915.235,-268.466 884.8,-250.426 878.739,-246.834 872.413,-242.747 866.439,-238.72"/>
<polygon fill="#ebc72d" stroke="#ebc72d" points="868.232,-235.705 858.008,-232.925 864.266,-241.474 868.232,-235.705"/>
</g>
<!-- stables&#45;&gt;captain -->
<g id="edge44" class="edge"><title>stables&#45;&gt;captain</title>
<path fill="none" stroke="#ebc72d" stroke-dasharray="1,5" d="M1023.41,-306.053C1028.79,-289.429 1036.97,-264.119 1043.17,-244.93"/>
<polygon fill="#ebc72d" stroke="#ebc72d" points="1046.55,-245.856 1046.29,-235.264 1039.88,-243.703 1046.55,-245.856"/>
</g>
</g>
</svg>
