<?xml version="1.0" encoding="UTF-8" standalone="no"?>
<!DOCTYPE svg PUBLIC "-//W3C//DTD SVG 1.1//EN"
 "http://www.w3.org/Graphics/SVG/1.1/DTD/svg11.dtd">
<!-- Generated by graphviz version 2.38.0 (20140413.2041)
 -->
<!-- Title: test Pages: 1 -->
<svg width="488pt" height="351pt"
 viewBox="0.00 0.00 487.77 351.28" xmlns="http://www.w3.org/2000/svg" xmlns:xlink="http://www.w3.org/1999/xlink">
<g id="graph0" class="graph" transform="scale(1 1) rotate(0) translate(4 347.279)">
<title>test</title>
<polygon fill="#151515" stroke="none" points="-4,4 -4,-347.279 483.766,-347.279 483.766,4 -4,4"/>
<!-- powder_house -->
<g id="node1" class="node"><title>powder_house</title>
<g id="a_node1"><a xlink:href="british_powder_house_full.html" xlink:title="Powder\nHouse">
<polygon fill="none" stroke="red" points="232.078,-248.396 181.19,-271.494 130.302,-248.396 130.349,-211.022 232.031,-211.022 232.078,-248.396"/>
<text text-anchor="middle" x="181.19" y="-241.866" font-family="Times,serif" font-size="14.00" fill="#ebc72d">Powder</text>
<text text-anchor="middle" x="181.19" y="-226.866" font-family="Times,serif" font-size="14.00" fill="#ebc72d">House</text>
</a>
</g>
</g>
<!-- artillery_foundry -->
<g id="node3" class="node"><title>artillery_foundry</title>
<g id="a_node3"><a xlink:href="british_artillery_foundry_full.html" xlink:title="Artillery\nFoundry">
<polygon fill="none" stroke="red" points="236.318,-145.969 181.19,-169.067 126.062,-145.969 126.113,-108.596 236.267,-108.596 236.318,-145.969"/>
<text text-anchor="middle" x="181.19" y="-139.44" font-family="Times,serif" font-size="14.00" fill="#ebc72d">Artillery</text>
<text text-anchor="middle" x="181.19" y="-124.44" font-family="Times,serif" font-size="14.00" fill="#ebc72d">Foundry</text>
</a>
</g>
</g>
<!-- powder_house&#45;&gt;artillery_foundry -->
<g id="edge7" class="edge"><title>powder_house&#45;&gt;artillery_foundry</title>
<path fill="none" stroke="#ebc72d" stroke-dasharray="1,5" d="M181.19,-210.942C181.19,-201.253 181.19,-189.996 181.19,-179.219"/>
<polygon fill="#ebc72d" stroke="#ebc72d" points="184.69,-179.1 181.19,-169.1 177.69,-179.1 184.69,-179.1"/>
</g>
<!-- lookout_tower -->
<g id="node4" class="node"><title>lookout_tower</title>
<g id="a_node4"><a xlink:href="british_lookout_tower_full.html" xlink:title="Lookout\nTower">
<polygon fill="none" stroke="red" points="108.571,-145.969 54.19,-169.067 -0.190655,-145.969 -0.139898,-108.596 108.52,-108.596 108.571,-145.969"/>
<text text-anchor="middle" x="54.19" y="-139.44" font-family="Times,serif" font-size="14.00" fill="#ebc72d">Lookout</text>
<text text-anchor="middle" x="54.19" y="-124.44" font-family="Times,serif" font-size="14.00" fill="#ebc72d">Tower</text>
</a>
</g>
</g>
<!-- powder_house&#45;&gt;lookout_tower -->
<g id="edge8" class="edge"><title>powder_house&#45;&gt;lookout_tower</title>
<path fill="none" stroke="#ebc72d" stroke-dasharray="1,5" d="M148.154,-210.942C130.053,-196.629 107.625,-178.894 89.2203,-164.34"/>
<polygon fill="#ebc72d" stroke="#ebc72d" points="91.0922,-161.358 81.0773,-157.901 86.7503,-166.849 91.0922,-161.358"/>
</g>
<!-- balloon_base -->
<g id="node2" class="node"><title>balloon_base</title>
<g id="a_node2"><a xlink:href="british_balloon_base_full.html" xlink:title="Balloon\nBase">
<polygon fill="none" stroke="red" points="273.826,-43.543 222.19,-66.641 170.554,-43.543 170.602,-6.16955 273.778,-6.16955 273.826,-43.543"/>
<text text-anchor="middle" x="222.19" y="-37.0132" font-family="Times,serif" font-size="14.00" fill="#ebc72d">Balloon</text>
<text text-anchor="middle" x="222.19" y="-22.0132" font-family="Times,serif" font-size="14.00" fill="#ebc72d">Base</text>
</a>
</g>
</g>
<!-- artillery_foundry&#45;&gt;balloon_base -->
<g id="edge1" class="edge"><title>artillery_foundry&#45;&gt;balloon_base</title>
<path fill="none" stroke="#ebc72d" stroke-dasharray="1,5" d="M191.855,-108.516C196.461,-97.2349 201.934,-83.8279 206.956,-71.5284"/>
<polygon fill="#ebc72d" stroke="#ebc72d" points="210.321,-72.5448 210.861,-61.9637 203.84,-69.8989 210.321,-72.5448"/>
</g>
<!-- fort -->
<g id="node5" class="node"><title>fort</title>
<g id="a_node5"><a xlink:href="british_fort_full.html" xlink:title="Fort">
<polygon fill="none" stroke="red" points="329.354,-330.842 298.19,-343.279 267.026,-330.842 267.055,-310.717 329.325,-310.717 329.354,-330.842"/>
<text text-anchor="middle" x="298.19" y="-321.579" font-family="Times,serif" font-size="14.00" fill="#ebc72d">Fort</text>
</a>
</g>
</g>
<!-- fort&#45;&gt;powder_house -->
<g id="edge6" class="edge"><title>fort&#45;&gt;powder_house</title>
<path fill="none" stroke="#ebc72d" stroke-dasharray="1,5" d="M279.392,-310.588C262.587,-298.349 237.506,-280.082 216.897,-265.072"/>
<polygon fill="#ebc72d" stroke="#ebc72d" points="218.811,-262.137 208.667,-259.078 214.69,-267.795 218.811,-262.137"/>
</g>
<!-- fort&#45;&gt;balloon_base -->
<g id="edge3" class="edge"><title>fort&#45;&gt;balloon_base</title>
<path fill="none" stroke="#ebc72d" stroke-dasharray="1,5" d="M264.19,-237.066C241.867,-180.907 259.126,-161.23 245.19,-102.426 242.791,-92.3026 239.52,-81.5495 236.197,-71.647"/>
<polygon fill="#ebc72d" stroke="#ebc72d" points="239.466,-70.389 232.889,-62.083 232.851,-72.6777 239.466,-70.389"/>
</g>
<!-- fort&#45;&gt;artillery_foundry -->
<g id="edge2" class="edge"><title>fort&#45;&gt;artillery_foundry</title>
<path fill="none" stroke="#ebc72d" stroke-dasharray="1,5" d="M292.762,-310.706C286.041,-293.895 274.251,-264.377 264.19,-239.066"/>
<path fill="none" stroke="#ebc72d" stroke-dasharray="1,5" d="M264.19,-237.066C253.37,-209.846 232.258,-184.466 214.035,-166.031"/>
<polygon fill="#ebc72d" stroke="#ebc72d" points="216.027,-163.081 206.44,-158.57 211.121,-168.075 216.027,-163.081"/>
</g>
<!-- camp -->
<g id="node6" class="node"><title>camp</title>
<g id="a_node6"><a xlink:href="british_camp_full.html" xlink:title="Camp">
<polygon fill="none" stroke="red" points="372.528,-243.628 332.19,-256.066 291.852,-243.628 291.89,-223.504 372.49,-223.504 372.528,-243.628"/>
<text text-anchor="middle" x="332.19" y="-234.366" font-family="Times,serif" font-size="14.00" fill="#ebc72d">Camp</text>
</a>
</g>
</g>
<!-- fort&#45;&gt;camp -->
<g id="edge4" class="edge"><title>fort&#45;&gt;camp</title>
<path fill="none" stroke="#ebc72d" stroke-dasharray="1,5" d="M303.653,-310.588C308.673,-298.007 316.234,-279.057 322.312,-263.823"/>
<polygon fill="#ebc72d" stroke="#ebc72d" points="325.596,-265.038 326.051,-254.453 319.094,-262.444 325.596,-265.038"/>
</g>
<!-- farm_house -->
<g id="node7" class="node"><title>farm_house</title>
<g id="a_node7"><a xlink:href="british_farm_house_full.html" xlink:title="Farm\nHouse">
<polygon fill="none" stroke="red" points="479.841,-248.396 435.19,-271.494 390.539,-248.396 390.58,-211.022 479.8,-211.022 479.841,-248.396"/>
<text text-anchor="middle" x="435.19" y="-241.866" font-family="Times,serif" font-size="14.00" fill="#ebc72d">Farm</text>
<text text-anchor="middle" x="435.19" y="-226.866" font-family="Times,serif" font-size="14.00" fill="#ebc72d">House</text>
</a>
</g>
</g>
<!-- fort&#45;&gt;farm_house -->
<g id="edge5" class="edge"><title>fort&#45;&gt;farm_house</title>
<path fill="none" stroke="#ebc72d" stroke-dasharray="1,5" d="M320.201,-310.588C341.085,-297.599 372.883,-277.821 397.751,-262.353"/>
<polygon fill="#ebc72d" stroke="#ebc72d" points="399.924,-265.123 406.567,-256.87 396.227,-259.179 399.924,-265.123"/>
</g>
</g>
</svg>
