<?xml version="1.0" encoding="UTF-8" standalone="no"?>
<!DOCTYPE svg PUBLIC "-//W3C//DTD SVG 1.1//EN"
 "http://www.w3.org/Graphics/SVG/1.1/DTD/svg11.dtd">
<!-- Generated by graphviz version 2.38.0 (20140413.2041)
 -->
<!-- Title: test Pages: 1 -->
<svg width="1327pt" height="351pt"
 viewBox="0.00 0.00 1326.54 351.28" xmlns="http://www.w3.org/2000/svg" xmlns:xlink="http://www.w3.org/1999/xlink">
<g id="graph0" class="graph" transform="scale(1 1) rotate(0) translate(4 347.279)">
<title>test</title>
<polygon fill="#151515" stroke="none" points="-4,4 -4,-347.279 1322.54,-347.279 1322.54,4 -4,4"/>
<!-- air_box -->
<g id="node1" class="node"><title>air_box</title>
<g id="a_node1"><a xlink:href="british_air_box_full.html" xlink:title="Air\nBox">
<polygon fill="none" stroke="red" points="395.357,-43.543 361.182,-66.641 327.007,-43.543 327.039,-6.16955 395.325,-6.16955 395.357,-43.543"/>
<text text-anchor="middle" x="361.182" y="-37.0132" font-family="Times,serif" font-size="14.00" fill="#ebc72d">Air</text>
<text text-anchor="middle" x="361.182" y="-22.0132" font-family="Times,serif" font-size="14.00" fill="#ebc72d">Box</text>
</a>
</g>
</g>
<!-- livestock -->
<g id="node2" class="node"><title>livestock</title>
<g id="a_node2"><a xlink:href="british_livestock_full.html" xlink:title="Livestock">
<ellipse fill="none" stroke="magenta" cx="1184.18" cy="-135.64" rx="45.4919" ry="18"/>
<text text-anchor="middle" x="1184.18" y="-131.94" font-family="Times,serif" font-size="14.00" fill="#ebc72d">Livestock</text>
</a>
</g>
</g>
<!-- cavalry -->
<g id="node3" class="node"><title>cavalry</title>
<g id="a_node3"><a xlink:href="british_cavalry_full.html" xlink:title="Cavalry">
<ellipse fill="none" stroke="magenta" cx="385.182" cy="-135.64" rx="38.1938" ry="18"/>
<text text-anchor="middle" x="385.182" y="-131.94" font-family="Times,serif" font-size="14.00" fill="#ebc72d">Cavalry</text>
</a>
</g>
</g>
<!-- colonist -->
<g id="node4" class="node"><title>colonist</title>
<g id="a_node4"><a xlink:href="british_colonist_full.html" xlink:title="Colonist">
<ellipse fill="none" stroke="magenta" cx="736.182" cy="-325.279" rx="40.0939" ry="18"/>
<text text-anchor="middle" x="736.182" y="-321.579" font-family="Times,serif" font-size="14.00" fill="#ebc72d">Colonist</text>
</a>
</g>
</g>
<!-- powder_house -->
<g id="node6" class="node"><title>powder_house</title>
<g id="a_node6"><a xlink:href="british_powder_house_full.html" xlink:title="Powder\nHouse">
<polygon fill="none" stroke="red" points="604.071,-248.396 553.182,-271.494 502.294,-248.396 502.341,-211.022 604.023,-211.022 604.071,-248.396"/>
<text text-anchor="middle" x="553.182" y="-241.866" font-family="Times,serif" font-size="14.00" fill="#ebc72d">Powder</text>
<text text-anchor="middle" x="553.182" y="-226.866" font-family="Times,serif" font-size="14.00" fill="#ebc72d">House</text>
</a>
</g>
</g>
<!-- colonist&#45;&gt;powder_house -->
<g id="edge20" class="edge"><title>colonist&#45;&gt;powder_house</title>
<path fill="none" stroke="#ebc72d" stroke-width="2" d="M709.18,-311.706C679.917,-298.08 632.747,-276.115 597.928,-259.902"/>
<polygon fill="#ebc72d" stroke="#ebc72d" stroke-width="2" points="599.003,-256.541 588.46,-255.493 596.048,-262.887 599.003,-256.541"/>
</g>
<!-- balloon_base -->
<g id="node7" class="node"><title>balloon_base</title>
<g id="a_node7"><a xlink:href="british_balloon_base_full.html" xlink:title="Balloon\nBase">
<polygon fill="none" stroke="red" points="1006.82,-248.396 955.182,-271.494 903.546,-248.396 903.595,-211.022 1006.77,-211.022 1006.82,-248.396"/>
<text text-anchor="middle" x="955.182" y="-241.866" font-family="Times,serif" font-size="14.00" fill="#ebc72d">Balloon</text>
<text text-anchor="middle" x="955.182" y="-226.866" font-family="Times,serif" font-size="14.00" fill="#ebc72d">Base</text>
</a>
</g>
</g>
<!-- colonist&#45;&gt;balloon_base -->
<g id="edge15" class="edge"><title>colonist&#45;&gt;balloon_base</title>
<path fill="none" stroke="#ebc72d" stroke-width="2" d="M765.718,-312.787C801.863,-298.723 863.568,-274.713 906.707,-257.928"/>
<polygon fill="#ebc72d" stroke="#ebc72d" stroke-width="2" points="908.107,-261.139 916.158,-254.251 905.569,-254.615 908.107,-261.139"/>
</g>
<!-- artillery_foundry -->
<g id="node12" class="node"><title>artillery_foundry</title>
<g id="a_node12"><a xlink:href="british_artillery_foundry_full.html" xlink:title="Artillery\nFoundry">
<polygon fill="none" stroke="red" points="860.31,-248.396 805.182,-271.494 750.054,-248.396 750.106,-211.022 860.259,-211.022 860.31,-248.396"/>
<text text-anchor="middle" x="805.182" y="-241.866" font-family="Times,serif" font-size="14.00" fill="#ebc72d">Artillery</text>
<text text-anchor="middle" x="805.182" y="-226.866" font-family="Times,serif" font-size="14.00" fill="#ebc72d">Foundry</text>
</a>
</g>
</g>
<!-- colonist&#45;&gt;artillery_foundry -->
<g id="edge14" class="edge"><title>colonist&#45;&gt;artillery_foundry</title>
<path fill="none" stroke="#ebc72d" stroke-width="2" d="M749.486,-307.849C757.838,-297.534 768.897,-283.877 778.958,-271.453"/>
<polygon fill="#ebc72d" stroke="#ebc72d" stroke-width="2" points="781.814,-273.488 785.386,-263.513 776.373,-269.082 781.814,-273.488"/>
</g>
<!-- lookout_tower -->
<g id="node13" class="node"><title>lookout_tower</title>
<g id="a_node13"><a xlink:href="british_lookout_tower_full.html" xlink:title="Lookout\nTower">
<polygon fill="none" stroke="red" points="682.563,-145.969 628.182,-169.067 573.802,-145.969 573.852,-108.596 682.512,-108.596 682.563,-145.969"/>
<text text-anchor="middle" x="628.182" y="-139.44" font-family="Times,serif" font-size="14.00" fill="#ebc72d">Lookout</text>
<text text-anchor="middle" x="628.182" y="-124.44" font-family="Times,serif" font-size="14.00" fill="#ebc72d">Tower</text>
</a>
</g>
</g>
<!-- colonist&#45;&gt;lookout_tower -->
<g id="edge19" class="edge"><title>colonist&#45;&gt;lookout_tower</title>
<path fill="none" stroke="#ebc72d" stroke-width="2" d="M726.598,-307.628C709.08,-277.192 671.553,-211.992 648.234,-171.478"/>
<polygon fill="#ebc72d" stroke="#ebc72d" stroke-width="2" points="651.224,-169.656 643.202,-162.735 645.157,-173.148 651.224,-169.656"/>
</g>
<!-- fort -->
<g id="node15" class="node"><title>fort</title>
<g id="a_node15"><a xlink:href="british_fort_full.html" xlink:title="Fort">
<polygon fill="none" stroke="red" points="80.3462,-243.628 49.1822,-256.066 18.0182,-243.628 18.0473,-223.504 80.3171,-223.504 80.3462,-243.628"/>
<text text-anchor="middle" x="49.1822" y="-234.366" font-family="Times,serif" font-size="14.00" fill="#ebc72d">Fort</text>
</a>
</g>
</g>
<!-- colonist&#45;&gt;fort -->
<g id="edge18" class="edge"><title>colonist&#45;&gt;fort</title>
<path fill="none" stroke="#ebc72d" stroke-width="2" d="M686.155,-321.723C589.176,-316.268 369.054,-301.449 186.182,-271.279 151.231,-265.513 111.929,-255.947 84.4127,-248.733"/>
<polygon fill="#ebc72d" stroke="#ebc72d" stroke-width="2" points="686.079,-325.224 696.257,-322.282 686.466,-318.235 686.079,-325.224"/>
<polygon fill="#ebc72d" stroke="#ebc72d" stroke-width="2" points="85.0409,-245.279 74.4777,-246.097 83.2454,-252.045 85.0409,-245.279"/>
</g>
<!-- wagon_worker -->
<g id="node19" class="node"><title>wagon_worker</title>
<g id="a_node19"><a xlink:href="british_wagon_worker_full.html" xlink:title="Wagon\nWorker">
<ellipse fill="none" stroke="magenta" cx="1079.18" cy="-135.64" rx="41.9398" ry="26.7407"/>
<text text-anchor="middle" x="1079.18" y="-139.44" font-family="Times,serif" font-size="14.00" fill="#ebc72d">Wagon</text>
<text text-anchor="middle" x="1079.18" y="-124.44" font-family="Times,serif" font-size="14.00" fill="#ebc72d">Worker</text>
</a>
</g>
</g>
<!-- colonist&#45;&gt;wagon_worker -->
<g id="edge21" class="edge"><title>colonist&#45;&gt;wagon_worker</title>
<path fill="none" stroke="#ebc72d" stroke-dasharray="5,2" d="M775.552,-321.227C843.519,-315.254 979.153,-300.024 1016.18,-271.279 1047.5,-246.967 1063.92,-203.345 1072.04,-172.345"/>
<polygon fill="#ebc72d" stroke="#ebc72d" points="1075.51,-172.908 1074.49,-162.363 1068.71,-171.242 1075.51,-172.908"/>
</g>
<!-- camp -->
<g id="node22" class="node"><title>camp</title>
<g id="a_node22"><a xlink:href="british_camp_full.html" xlink:title="Camp">
<polygon fill="none" stroke="red" points="275.52,-243.628 235.182,-256.066 194.844,-243.628 194.882,-223.504 275.483,-223.504 275.52,-243.628"/>
<text text-anchor="middle" x="235.182" y="-234.366" font-family="Times,serif" font-size="14.00" fill="#ebc72d">Camp</text>
</a>
</g>
</g>
<!-- colonist&#45;&gt;camp -->
<g id="edge16" class="edge"><title>colonist&#45;&gt;camp</title>
<path fill="none" stroke="#ebc72d" stroke-width="2" d="M698.935,-317.944C608.807,-302.615 379.167,-263.556 280.912,-246.844"/>
<polygon fill="#ebc72d" stroke="#ebc72d" stroke-width="2" points="281.431,-243.382 270.986,-245.156 280.257,-250.283 281.431,-243.382"/>
</g>
<!-- farm_house -->
<g id="node23" class="node"><title>farm_house</title>
<g id="a_node23"><a xlink:href="british_farm_house_full.html" xlink:title="Farm\nHouse">
<polygon fill="none" stroke="red" points="1201.83,-248.396 1157.18,-271.494 1112.53,-248.396 1112.57,-211.022 1201.79,-211.022 1201.83,-248.396"/>
<text text-anchor="middle" x="1157.18" y="-241.866" font-family="Times,serif" font-size="14.00" fill="#ebc72d">Farm</text>
<text text-anchor="middle" x="1157.18" y="-226.866" font-family="Times,serif" font-size="14.00" fill="#ebc72d">House</text>
</a>
</g>
</g>
<!-- colonist&#45;&gt;farm_house -->
<g id="edge17" class="edge"><title>colonist&#45;&gt;farm_house</title>
<path fill="none" stroke="#ebc72d" stroke-width="2" d="M775.397,-320.664C838.497,-314.271 966.129,-298.962 1071.18,-271.279 1085.08,-267.618 1099.85,-262.542 1113.15,-257.501"/>
<polygon fill="#ebc72d" stroke="#ebc72d" stroke-width="2" points="1114.49,-260.736 1122.55,-253.858 1111.96,-254.209 1114.49,-260.736"/>
</g>
<!-- balloon -->
<g id="node5" class="node"><title>balloon</title>
<g id="a_node5"><a xlink:href="british_balloon_full.html" xlink:title="Balloon">
<ellipse fill="none" stroke="magenta" cx="981.182" cy="-135.64" rx="38.1938" ry="18"/>
<text text-anchor="middle" x="981.182" y="-131.94" font-family="Times,serif" font-size="14.00" fill="#ebc72d">Balloon</text>
</a>
</g>
</g>
<!-- powder_house&#45;&gt;air_box -->
<g id="edge29" class="edge"><title>powder_house&#45;&gt;air_box</title>
<path fill="none" stroke="#ebc72d" stroke-dasharray="1,5" d="M451.182,-134.64C438.591,-123.789 442.493,-115.464 432.182,-102.426 419.861,-86.8479 404.098,-71.3583 390.556,-59.0863"/>
<polygon fill="#ebc72d" stroke="#ebc72d" points="392.678,-56.2901 382.881,-52.2562 388.024,-61.519 392.678,-56.2901"/>
</g>
<!-- powder_house&#45;&gt;cavalry -->
<g id="edge32" class="edge"><title>powder_house&#45;&gt;cavalry</title>
<path fill="none" stroke="#ebc72d" stroke-dasharray="1,5" d="M508.144,-210.906C486.6,-198.309 460.484,-182.919 437.182,-168.853 430.278,-164.685 422.895,-160.156 415.924,-155.846"/>
<polygon fill="#ebc72d" stroke="#ebc72d" points="417.724,-152.844 407.381,-150.547 414.034,-158.793 417.724,-152.844"/>
</g>
<!-- mortar -->
<g id="node10" class="node"><title>mortar</title>
<g id="a_node10"><a xlink:href="british_mortar_full.html" xlink:title="Mortar">
<ellipse fill="none" stroke="magenta" cx="124.182" cy="-33.2132" rx="35.9954" ry="18"/>
<text text-anchor="middle" x="124.182" y="-29.5132" font-family="Times,serif" font-size="14.00" fill="#ebc72d">Mortar</text>
</a>
</g>
</g>
<!-- powder_house&#45;&gt;mortar -->
<g id="edge34" class="edge"><title>powder_house&#45;&gt;mortar</title>
<path fill="none" stroke="#ebc72d" stroke-dasharray="1,5" d="M516.003,-211.022C500.723,-199.227 483.523,-184.44 470.182,-168.853 459.374,-156.225 463.774,-147.49 451.182,-136.64"/>
<path fill="none" stroke="#ebc72d" stroke-dasharray="1,5" d="M451.182,-134.64C438.591,-123.789 446.022,-111.632 432.182,-102.426 333.95,-37.0853 278.804,-110.04 169.182,-66.4264 162.185,-63.6427 155.255,-59.5441 149.006,-55.1967"/>
<polygon fill="#ebc72d" stroke="#ebc72d" points="151.077,-52.3753 140.965,-49.2143 146.899,-57.9915 151.077,-52.3753"/>
</g>
<!-- powder_house&#45;&gt;lookout_tower -->
<g id="edge33" class="edge"><title>powder_house&#45;&gt;lookout_tower</title>
<path fill="none" stroke="#ebc72d" stroke-dasharray="1,5" d="M572.692,-210.942C582.109,-198.333 593.509,-183.067 603.521,-169.661"/>
<polygon fill="#ebc72d" stroke="#ebc72d" points="606.366,-171.701 609.546,-161.594 600.758,-167.512 606.366,-171.701"/>
</g>
<!-- cannon -->
<g id="node16" class="node"><title>cannon</title>
<g id="a_node16"><a xlink:href="british_cannon_full.html" xlink:title="Cannon">
<ellipse fill="none" stroke="magenta" cx="517.182" cy="-135.64" rx="38.1938" ry="18"/>
<text text-anchor="middle" x="517.182" y="-131.94" font-family="Times,serif" font-size="14.00" fill="#ebc72d">Cannon</text>
</a>
</g>
</g>
<!-- powder_house&#45;&gt;cannon -->
<g id="edge30" class="edge"><title>powder_house&#45;&gt;cannon</title>
<path fill="none" stroke="#ebc72d" stroke-dasharray="1,5" d="M543.818,-210.942C538.536,-196.21 531.955,-177.851 526.656,-163.069"/>
<polygon fill="#ebc72d" stroke="#ebc72d" points="529.894,-161.727 523.224,-153.495 523.304,-164.089 529.894,-161.727"/>
</g>
<!-- puckle_gun -->
<g id="node20" class="node"><title>puckle_gun</title>
<g id="a_node20"><a xlink:href="british_puckle_gun_full.html" xlink:title="Puckle\nGun">
<ellipse fill="none" stroke="magenta" cx="451.182" cy="-33.2132" rx="37.4533" ry="26.7407"/>
<text text-anchor="middle" x="451.182" y="-37.0132" font-family="Times,serif" font-size="14.00" fill="#ebc72d">Puckle</text>
<text text-anchor="middle" x="451.182" y="-22.0132" font-family="Times,serif" font-size="14.00" fill="#ebc72d">Gun</text>
</a>
</g>
</g>
<!-- powder_house&#45;&gt;puckle_gun -->
<g id="edge35" class="edge"><title>powder_house&#45;&gt;puckle_gun</title>
<path fill="none" stroke="#ebc72d" stroke-dasharray="1,5" d="M451.182,-134.64C433.2,-119.144 434.345,-91.7254 439.358,-69.4488"/>
<polygon fill="#ebc72d" stroke="#ebc72d" points="442.78,-70.1931 441.879,-59.6367 436.001,-68.4513 442.78,-70.1931"/>
</g>
<!-- captain -->
<g id="node21" class="node"><title>captain</title>
<g id="a_node21"><a xlink:href="british_captain_full.html" xlink:title="Captain">
<ellipse fill="none" stroke="magenta" cx="739.182" cy="-135.64" rx="38.1938" ry="18"/>
<text text-anchor="middle" x="739.182" y="-131.94" font-family="Times,serif" font-size="14.00" fill="#ebc72d">Captain</text>
</a>
</g>
</g>
<!-- powder_house&#45;&gt;captain -->
<g id="edge31" class="edge"><title>powder_house&#45;&gt;captain</title>
<path fill="none" stroke="#ebc72d" stroke-dasharray="1,5" d="M604.166,-213.843C630.573,-201.322 663.085,-185.13 691.182,-168.853 697.63,-165.117 704.376,-160.839 710.704,-156.647"/>
<polygon fill="#ebc72d" stroke="#ebc72d" points="712.676,-159.538 719.007,-151.043 708.76,-153.736 712.676,-159.538"/>
</g>
<!-- balloon_base&#45;&gt;balloon -->
<g id="edge7" class="edge"><title>balloon_base&#45;&gt;balloon</title>
<path fill="none" stroke="#ebc72d" d="M961.946,-210.942C965.699,-196.445 970.361,-178.436 974.156,-163.78"/>
<polygon fill="#ebc72d" stroke="#ebc72d" points="977.622,-164.356 976.74,-153.797 970.845,-162.601 977.622,-164.356"/>
</g>
<!-- grenadier -->
<g id="node8" class="node"><title>grenadier</title>
<g id="a_node8"><a xlink:href="british_grenadier_full.html" xlink:title="Grenadier">
<ellipse fill="none" stroke="magenta" cx="879.182" cy="-135.64" rx="46.2923" ry="18"/>
<text text-anchor="middle" x="879.182" y="-131.94" font-family="Times,serif" font-size="14.00" fill="#ebc72d">Grenadier</text>
</a>
</g>
</g>
<!-- infantryman -->
<g id="node9" class="node"><title>infantryman</title>
<g id="a_node9"><a xlink:href="british_infantryman_full.html" xlink:title="Infantryman">
<ellipse fill="none" stroke="magenta" cx="83.1822" cy="-135.64" rx="54.6905" ry="18"/>
<text text-anchor="middle" x="83.1822" y="-131.94" font-family="Times,serif" font-size="14.00" fill="#ebc72d">Infantryman</text>
</a>
</g>
</g>
<!-- nurse -->
<g id="node11" class="node"><title>nurse</title>
<g id="a_node11"><a xlink:href="british_nurse_full.html" xlink:title="Nurse">
<ellipse fill="none" stroke="magenta" cx="187.182" cy="-135.64" rx="31.6951" ry="18"/>
<text text-anchor="middle" x="187.182" y="-131.94" font-family="Times,serif" font-size="14.00" fill="#ebc72d">Nurse</text>
</a>
</g>
</g>
<!-- nurse&#45;&gt;air_box -->
<g id="edge27" class="edge"><title>nurse&#45;&gt;air_box</title>
<path fill="none" stroke="#ebc72d" stroke-width="2" d="M204.194,-120.078C211.368,-114.259 219.951,-107.702 228.182,-102.426 258.769,-82.8246 295.676,-64.2624 322.844,-51.4647"/>
<polygon fill="#ebc72d" stroke="#ebc72d" stroke-width="2" points="324.437,-54.5839 332.021,-47.1861 321.479,-48.2395 324.437,-54.5839"/>
</g>
<!-- battering_ram -->
<g id="node17" class="node"><title>battering_ram</title>
<g id="a_node17"><a xlink:href="british_battering_ram_full.html" xlink:title="Battering\nRam">
<ellipse fill="none" stroke="magenta" cx="225.182" cy="-33.2132" rx="47.2526" ry="26.7407"/>
<text text-anchor="middle" x="225.182" y="-37.0132" font-family="Times,serif" font-size="14.00" fill="#ebc72d">Battering</text>
<text text-anchor="middle" x="225.182" y="-22.0132" font-family="Times,serif" font-size="14.00" fill="#ebc72d">Ram</text>
</a>
</g>
</g>
<!-- nurse&#45;&gt;battering_ram -->
<g id="edge28" class="edge"><title>nurse&#45;&gt;battering_ram</title>
<path fill="none" stroke="#ebc72d" stroke-dasharray="5,2" d="M193.628,-117.604C198.608,-104.442 205.671,-85.7767 211.853,-69.4406"/>
<polygon fill="#ebc72d" stroke="#ebc72d" points="215.295,-70.2317 215.561,-59.6402 208.748,-67.7544 215.295,-70.2317"/>
</g>
<!-- artillery_foundry&#45;&gt;balloon -->
<g id="edge1" class="edge"><title>artillery_foundry&#45;&gt;balloon</title>
<path fill="none" stroke="#ebc72d" stroke-dasharray="1,5" d="M857.72,-211.014C881.428,-198.819 909.573,-183.726 934.182,-168.853 940.212,-165.209 946.524,-161.099 952.495,-157.065"/>
<polygon fill="#ebc72d" stroke="#ebc72d" points="954.667,-159.819 960.926,-151.272 950.702,-154.05 954.667,-159.819"/>
</g>
<!-- artillery_foundry&#45;&gt;grenadier -->
<g id="edge4" class="edge"><title>artillery_foundry&#45;&gt;grenadier</title>
<path fill="none" stroke="#ebc72d" d="M824.432,-210.942C835.672,-195.688 849.777,-176.545 860.856,-161.511"/>
<polygon fill="#ebc72d" stroke="#ebc72d" points="863.87,-163.321 866.984,-153.194 858.234,-159.168 863.87,-163.321"/>
</g>
<!-- artillery_foundry&#45;&gt;cannon -->
<g id="edge2" class="edge"><title>artillery_foundry&#45;&gt;cannon</title>
<path fill="none" stroke="#ebc72d" d="M750.067,-226.568C700.263,-215.891 625.706,-196.904 565.182,-168.853 558.296,-165.661 551.29,-161.544 544.835,-157.327"/>
<polygon fill="#ebc72d" stroke="#ebc72d" points="546.67,-154.342 536.438,-151.592 542.721,-160.122 546.67,-154.342"/>
</g>
<!-- artillery_foundry&#45;&gt;wagon_worker -->
<g id="edge6" class="edge"><title>artillery_foundry&#45;&gt;wagon_worker</title>
<path fill="none" stroke="#ebc72d" stroke-dasharray="1,5" d="M860.482,-216.229C871.584,-212.279 883.21,-208.306 894.182,-204.853 953.006,-186.342 971.697,-193.598 1028.18,-168.853 1033.16,-166.673 1038.21,-164.054 1043.11,-161.263"/>
<polygon fill="#ebc72d" stroke="#ebc72d" points="1044.92,-164.256 1051.7,-156.111 1041.32,-158.253 1044.92,-164.256"/>
</g>
<!-- artillery_foundry&#45;&gt;puckle_gun -->
<g id="edge5" class="edge"><title>artillery_foundry&#45;&gt;puckle_gun</title>
<path fill="none" stroke="#ebc72d" stroke-dasharray="1,5" d="M809.595,-210.783C813.049,-180.558 813.443,-131.393 786.182,-102.426 747.515,-61.339 581.518,-43.6571 498.64,-37.2775"/>
<polygon fill="#ebc72d" stroke="#ebc72d" points="498.711,-33.7732 488.479,-36.52 498.191,-40.7538 498.711,-33.7732"/>
</g>
<!-- artillery_foundry&#45;&gt;captain -->
<g id="edge3" class="edge"><title>artillery_foundry&#45;&gt;captain</title>
<path fill="none" stroke="#ebc72d" d="M788.014,-210.942C778.082,-195.83 765.643,-176.903 755.805,-161.934"/>
<polygon fill="#ebc72d" stroke="#ebc72d" points="758.479,-159.629 750.062,-153.194 752.629,-163.473 758.479,-159.629"/>
</g>
<!-- saberman -->
<g id="node14" class="node"><title>saberman</title>
<g id="a_node14"><a xlink:href="british_saberman_full.html" xlink:title="Saberman">
<ellipse fill="none" stroke="magenta" cx="283.182" cy="-135.64" rx="46.2923" ry="18"/>
<text text-anchor="middle" x="283.182" y="-131.94" font-family="Times,serif" font-size="14.00" fill="#ebc72d">Saberman</text>
</a>
</g>
</g>
<!-- saberman&#45;&gt;mortar -->
<g id="edge36" class="edge"><title>saberman&#45;&gt;mortar</title>
<path fill="none" stroke="#ebc72d" stroke-dasharray="5,2" d="M258.781,-120.356C230.47,-103.728 185.578,-77.1743 169.182,-66.4264 163.593,-62.7623 157.718,-58.711 152.126,-54.7534"/>
<polygon fill="#ebc72d" stroke="#ebc72d" points="153.82,-51.6614 143.653,-48.6807 149.742,-57.351 153.82,-51.6614"/>
</g>
<!-- saberman&#45;&gt;puckle_gun -->
<g id="edge37" class="edge"><title>saberman&#45;&gt;puckle_gun</title>
<path fill="none" stroke="#ebc72d" stroke-dasharray="5,2" d="M307.458,-120.207C316.998,-114.592 328.068,-108.145 338.182,-102.426 367.268,-85.9812 375.698,-83.8939 404.182,-66.4264 408.288,-63.9086 412.532,-61.1833 416.713,-58.4205"/>
<polygon fill="#ebc72d" stroke="#ebc72d" points="418.798,-61.2363 425.143,-52.7514 414.892,-55.4276 418.798,-61.2363"/>
</g>
<!-- fort&#45;&gt;mortar -->
<g id="edge26" class="edge"><title>fort&#45;&gt;mortar</title>
<path fill="none" stroke="#ebc72d" stroke-dasharray="1,5" d="M37.9039,-223.457C23.7836,-205.041 1.29418,-170.571 0.182203,-136.64"/>
<path fill="none" stroke="#ebc72d" stroke-dasharray="1,5" d="M0.182203,-134.64C-1.27542,-90.161 47.9249,-61.9588 84.7796,-47.1204"/>
<polygon fill="#ebc72d" stroke="#ebc72d" points="86.2363,-50.3103 94.319,-43.4604 83.7289,-43.7748 86.2363,-50.3103"/>
</g>
<!-- rabid_sheep -->
<g id="node18" class="node"><title>rabid_sheep</title>
<g id="a_node18"><a xlink:href="british_rabid_sheep_full.html" xlink:title="Rabid\nSheep">
<ellipse fill="none" stroke="magenta" cx="1283.18" cy="-135.64" rx="35.2113" ry="26.7407"/>
<text text-anchor="middle" x="1283.18" y="-139.44" font-family="Times,serif" font-size="14.00" fill="#ebc72d">Rabid</text>
<text text-anchor="middle" x="1283.18" y="-124.44" font-family="Times,serif" font-size="14.00" fill="#ebc72d">Sheep</text>
</a>
</g>
</g>
<!-- camp&#45;&gt;cavalry -->
<g id="edge9" class="edge"><title>camp&#45;&gt;cavalry</title>
<path fill="none" stroke="#ebc72d" d="M256.158,-223.315C277.017,-209.607 309.901,-187.908 338.182,-168.853 343.915,-164.991 350.019,-160.837 355.866,-156.838"/>
<polygon fill="#ebc72d" stroke="#ebc72d" points="357.905,-159.684 364.174,-151.143 353.947,-153.91 357.905,-159.684"/>
</g>
<!-- camp&#45;&gt;infantryman -->
<g id="edge10" class="edge"><title>camp&#45;&gt;infantryman</title>
<path fill="none" stroke="#ebc72d" d="M214.366,-223.313C188.687,-206.347 144.773,-177.333 114.891,-157.59"/>
<polygon fill="#ebc72d" stroke="#ebc72d" points="116.756,-154.627 106.483,-152.035 112.897,-160.467 116.756,-154.627"/>
</g>
<!-- camp&#45;&gt;mortar -->
<g id="edge11" class="edge"><title>camp&#45;&gt;mortar</title>
<path fill="none" stroke="#ebc72d" stroke-dasharray="1,5" d="M194.874,-227.995C140.302,-215.107 46.5745,-190.639 19.1822,-168.853 6.17323,-158.506 0.72663,-153.253 0.182203,-136.64"/>
</g>
<!-- camp&#45;&gt;nurse -->
<g id="edge12" class="edge"><title>camp&#45;&gt;nurse</title>
<path fill="none" stroke="#ebc72d" d="M228.508,-223.102C221.015,-207.426 208.699,-181.658 199.458,-162.322"/>
<polygon fill="#ebc72d" stroke="#ebc72d" points="202.545,-160.666 195.075,-153.153 196.229,-163.684 202.545,-160.666"/>
</g>
<!-- camp&#45;&gt;saberman -->
<g id="edge13" class="edge"><title>camp&#45;&gt;saberman</title>
<path fill="none" stroke="#ebc72d" d="M241.856,-223.102C249.305,-207.518 261.521,-181.96 270.744,-162.664"/>
<polygon fill="#ebc72d" stroke="#ebc72d" points="273.97,-164.03 275.124,-153.498 267.654,-161.011 273.97,-164.03"/>
</g>
<!-- camp&#45;&gt;cannon -->
<g id="edge8" class="edge"><title>camp&#45;&gt;cannon</title>
<path fill="none" stroke="#ebc72d" stroke-dasharray="1,5" d="M275.397,-228.574C322.234,-217.91 401.334,-197.478 465.182,-168.853 472.813,-165.432 480.67,-161.067 487.892,-156.663"/>
<polygon fill="#ebc72d" stroke="#ebc72d" points="490.055,-159.436 496.635,-151.132 486.313,-153.52 490.055,-159.436"/>
</g>
<!-- farm_house&#45;&gt;livestock -->
<g id="edge22" class="edge"><title>farm_house&#45;&gt;livestock</title>
<path fill="none" stroke="#ebc72d" d="M1164.21,-210.942C1168.1,-196.445 1172.94,-178.436 1176.89,-163.78"/>
<polygon fill="#ebc72d" stroke="#ebc72d" points="1180.35,-164.363 1179.57,-153.797 1173.59,-162.546 1180.35,-164.363"/>
</g>
<!-- farm_house&#45;&gt;rabid_sheep -->
<g id="edge23" class="edge"><title>farm_house&#45;&gt;rabid_sheep</title>
<path fill="none" stroke="#ebc72d" d="M1189.96,-210.942C1208.89,-195.856 1232.58,-176.968 1251.35,-162.01"/>
<polygon fill="#ebc72d" stroke="#ebc72d" points="1253.69,-164.623 1259.33,-155.654 1249.32,-159.149 1253.69,-164.623"/>
</g>
<!-- farm_house&#45;&gt;wagon_worker -->
<g id="edge24" class="edge"><title>farm_house&#45;&gt;wagon_worker</title>
<path fill="none" stroke="#ebc72d" stroke-dasharray="1,5" d="M1136.89,-210.942C1126.72,-197.852 1114.33,-181.898 1103.64,-168.134"/>
<polygon fill="#ebc72d" stroke="#ebc72d" points="1106.14,-165.643 1097.24,-159.892 1100.61,-169.937 1106.14,-165.643"/>
</g>
</g>
</svg>
