<?xml version="1.0" encoding="UTF-8" standalone="no"?>
<!DOCTYPE svg PUBLIC "-//W3C//DTD SVG 1.1//EN"
 "http://www.w3.org/Graphics/SVG/1.1/DTD/svg11.dtd">
<!-- Generated by graphviz version 2.38.0 (20140413.2041)
 -->
<!-- Title: test Pages: 1 -->
<svg width="614pt" height="351pt"
 viewBox="0.00 0.00 613.77 351.28" xmlns="http://www.w3.org/2000/svg" xmlns:xlink="http://www.w3.org/1999/xlink">
<g id="graph0" class="graph" transform="scale(1 1) rotate(0) translate(4 347.279)">
<title>test</title>
<polygon fill="#151515" stroke="none" points="-4,4 -4,-347.279 609.766,-347.279 609.766,4 -4,4"/>
<!-- powder_house -->
<g id="node1" class="node"><title>powder_house</title>
<g id="a_node1"><a xlink:href="british_powder_house_full.html" xlink:title="Powder\nHouse">
<polygon fill="none" stroke="red" points="232.078,-248.396 181.19,-271.494 130.302,-248.396 130.349,-211.022 232.031,-211.022 232.078,-248.396"/>
<text text-anchor="middle" x="181.19" y="-241.866" font-family="Times,serif" font-size="14.00" fill="#ebc72d">Powder</text>
<text text-anchor="middle" x="181.19" y="-226.866" font-family="Times,serif" font-size="14.00" fill="#ebc72d">House</text>
</a>
</g>
</g>
<!-- artillery_foundry -->
<g id="node3" class="node"><title>artillery_foundry</title>
<g id="a_node3"><a xlink:href="british_artillery_foundry_full.html" xlink:title="Artillery\nFoundry">
<polygon fill="none" stroke="red" points="236.318,-145.969 181.19,-169.067 126.062,-145.969 126.113,-108.596 236.267,-108.596 236.318,-145.969"/>
<text text-anchor="middle" x="181.19" y="-139.44" font-family="Times,serif" font-size="14.00" fill="#ebc72d">Artillery</text>
<text text-anchor="middle" x="181.19" y="-124.44" font-family="Times,serif" font-size="14.00" fill="#ebc72d">Foundry</text>
</a>
</g>
</g>
<!-- powder_house&#45;&gt;artillery_foundry -->
<g id="edge8" class="edge"><title>powder_house&#45;&gt;artillery_foundry</title>
<path fill="none" stroke="#ebc72d" stroke-dasharray="1,5" d="M181.19,-210.942C181.19,-201.253 181.19,-189.996 181.19,-179.219"/>
<polygon fill="#ebc72d" stroke="#ebc72d" points="184.69,-179.1 181.19,-169.1 177.69,-179.1 184.69,-179.1"/>
</g>
<!-- lookout_tower -->
<g id="node4" class="node"><title>lookout_tower</title>
<g id="a_node4"><a xlink:href="british_lookout_tower_full.html" xlink:title="Lookout\nTower">
<polygon fill="none" stroke="red" points="108.571,-145.969 54.19,-169.067 -0.190655,-145.969 -0.139898,-108.596 108.52,-108.596 108.571,-145.969"/>
<text text-anchor="middle" x="54.19" y="-139.44" font-family="Times,serif" font-size="14.00" fill="#ebc72d">Lookout</text>
<text text-anchor="middle" x="54.19" y="-124.44" font-family="Times,serif" font-size="14.00" fill="#ebc72d">Tower</text>
</a>
</g>
</g>
<!-- powder_house&#45;&gt;lookout_tower -->
<g id="edge9" class="edge"><title>powder_house&#45;&gt;lookout_tower</title>
<path fill="none" stroke="#ebc72d" stroke-dasharray="1,5" d="M148.154,-210.942C130.053,-196.629 107.625,-178.894 89.2203,-164.34"/>
<polygon fill="#ebc72d" stroke="#ebc72d" points="91.0922,-161.358 81.0773,-157.901 86.7503,-166.849 91.0922,-161.358"/>
</g>
<!-- balloon_base -->
<g id="node2" class="node"><title>balloon_base</title>
<g id="a_node2"><a xlink:href="british_balloon_base_full.html" xlink:title="Balloon\nBase">
<polygon fill="none" stroke="red" points="273.826,-43.543 222.19,-66.641 170.554,-43.543 170.602,-6.16955 273.778,-6.16955 273.826,-43.543"/>
<text text-anchor="middle" x="222.19" y="-37.0132" font-family="Times,serif" font-size="14.00" fill="#ebc72d">Balloon</text>
<text text-anchor="middle" x="222.19" y="-22.0132" font-family="Times,serif" font-size="14.00" fill="#ebc72d">Base</text>
</a>
</g>
</g>
<!-- artillery_foundry&#45;&gt;balloon_base -->
<g id="edge1" class="edge"><title>artillery_foundry&#45;&gt;balloon_base</title>
<path fill="none" stroke="#ebc72d" stroke-dasharray="1,5" d="M191.855,-108.516C196.461,-97.2349 201.934,-83.8279 206.956,-71.5284"/>
<polygon fill="#ebc72d" stroke="#ebc72d" points="210.321,-72.5448 210.861,-61.9637 203.84,-69.8989 210.321,-72.5448"/>
</g>
<!-- fort -->
<g id="node5" class="node"><title>fort</title>
<g id="a_node5"><a xlink:href="british_fort_full.html" xlink:title="Fort">
<polygon fill="none" stroke="red" points="377.354,-330.842 346.19,-343.279 315.026,-330.842 315.055,-310.717 377.325,-310.717 377.354,-330.842"/>
<text text-anchor="middle" x="346.19" y="-321.579" font-family="Times,serif" font-size="14.00" fill="#ebc72d">Fort</text>
</a>
</g>
</g>
<!-- fort&#45;&gt;powder_house -->
<g id="edge7" class="edge"><title>fort&#45;&gt;powder_house</title>
<path fill="none" stroke="#ebc72d" stroke-dasharray="1,5" d="M319.68,-310.588C293.84,-297.243 254.124,-276.732 223.839,-261.092"/>
<polygon fill="#ebc72d" stroke="#ebc72d" points="225.259,-257.886 214.768,-256.407 222.047,-264.106 225.259,-257.886"/>
</g>
<!-- fort&#45;&gt;balloon_base -->
<g id="edge3" class="edge"><title>fort&#45;&gt;balloon_base</title>
<path fill="none" stroke="#ebc72d" stroke-dasharray="1,5" d="M264.19,-237.066C231.59,-186.18 259.126,-161.23 245.19,-102.426 242.791,-92.3026 239.52,-81.5495 236.197,-71.647"/>
<polygon fill="#ebc72d" stroke="#ebc72d" points="239.466,-70.389 232.889,-62.083 232.851,-72.6777 239.466,-70.389"/>
</g>
<!-- fort&#45;&gt;artillery_foundry -->
<g id="edge2" class="edge"><title>fort&#45;&gt;artillery_foundry</title>
<path fill="none" stroke="#ebc72d" stroke-dasharray="1,5" d="M326.781,-310.692C313.492,-300.769 296.022,-286.447 283.19,-271.279 272.455,-258.589 273.157,-253.062 264.19,-239.066"/>
<path fill="none" stroke="#ebc72d" stroke-dasharray="1,5" d="M264.19,-237.066C248.318,-212.292 227.147,-186.765 210.159,-167.648"/>
<polygon fill="#ebc72d" stroke="#ebc72d" points="212.689,-165.226 203.4,-160.129 207.483,-169.906 212.689,-165.226"/>
</g>
<!-- field_hospital -->
<g id="node6" class="node"><title>field_hospital</title>
<g id="a_node6"><a xlink:href="british_field_hospital_full.html" xlink:title="Field\nHospital">
<polygon fill="none" stroke="red" points="400.571,-248.396 346.19,-271.494 291.809,-248.396 291.86,-211.022 400.52,-211.022 400.571,-248.396"/>
<text text-anchor="middle" x="346.19" y="-241.866" font-family="Times,serif" font-size="14.00" fill="#ebc72d">Field</text>
<text text-anchor="middle" x="346.19" y="-226.866" font-family="Times,serif" font-size="14.00" fill="#ebc72d">Hospital</text>
</a>
</g>
</g>
<!-- fort&#45;&gt;field_hospital -->
<g id="edge6" class="edge"><title>fort&#45;&gt;field_hospital</title>
<path fill="none" stroke="#ebc72d" stroke-dasharray="1,5" d="M346.19,-310.588C346.19,-302.602 346.19,-292.05 346.19,-281.511"/>
<polygon fill="#ebc72d" stroke="#ebc72d" points="349.69,-281.494 346.19,-271.494 342.69,-281.494 349.69,-281.494"/>
</g>
<!-- camp -->
<g id="node7" class="node"><title>camp</title>
<g id="a_node7"><a xlink:href="british_camp_full.html" xlink:title="Camp">
<polygon fill="none" stroke="red" points="498.528,-243.628 458.19,-256.066 417.852,-243.628 417.89,-223.504 498.49,-223.504 498.528,-243.628"/>
<text text-anchor="middle" x="458.19" y="-234.366" font-family="Times,serif" font-size="14.00" fill="#ebc72d">Camp</text>
</a>
</g>
</g>
<!-- fort&#45;&gt;camp -->
<g id="edge4" class="edge"><title>fort&#45;&gt;camp</title>
<path fill="none" stroke="#ebc72d" stroke-dasharray="1,5" d="M364.185,-310.588C383.098,-296.199 412.961,-273.478 433.943,-257.514"/>
<polygon fill="#ebc72d" stroke="#ebc72d" points="436.218,-260.181 442.057,-251.34 431.98,-254.61 436.218,-260.181"/>
</g>
<!-- farm_house -->
<g id="node8" class="node"><title>farm_house</title>
<g id="a_node8"><a xlink:href="british_farm_house_full.html" xlink:title="Farm\nHouse">
<polygon fill="none" stroke="red" points="605.841,-248.396 561.19,-271.494 516.539,-248.396 516.58,-211.022 605.8,-211.022 605.841,-248.396"/>
<text text-anchor="middle" x="561.19" y="-241.866" font-family="Times,serif" font-size="14.00" fill="#ebc72d">Farm</text>
<text text-anchor="middle" x="561.19" y="-226.866" font-family="Times,serif" font-size="14.00" fill="#ebc72d">House</text>
</a>
</g>
</g>
<!-- fort&#45;&gt;farm_house -->
<g id="edge5" class="edge"><title>fort&#45;&gt;farm_house</title>
<path fill="none" stroke="#ebc72d" stroke-dasharray="1,5" d="M377.521,-316.175C410.539,-307.131 463.683,-291.124 507.19,-271.279 512.926,-268.663 518.822,-265.588 524.514,-262.394"/>
<polygon fill="#ebc72d" stroke="#ebc72d" points="526.349,-265.376 533.238,-257.326 522.833,-259.323 526.349,-265.376"/>
</g>
</g>
</svg>
