<?xml version="1.0" encoding="UTF-8" standalone="no"?>
<!DOCTYPE svg PUBLIC "-//W3C//DTD SVG 1.1//EN"
 "http://www.w3.org/Graphics/SVG/1.1/DTD/svg11.dtd">
<!-- Generated by graphviz version 2.38.0 (20140413.2041)
 -->
<!-- Title: test Pages: 1 -->
<svg width="1329pt" height="351pt"
 viewBox="0.00 0.00 1328.88 351.28" xmlns="http://www.w3.org/2000/svg" xmlns:xlink="http://www.w3.org/1999/xlink">
<g id="graph0" class="graph" transform="scale(1 1) rotate(0) translate(4 347.279)">
<title>test</title>
<polygon fill="#151515" stroke="none" points="-4,4 -4,-347.279 1324.88,-347.279 1324.88,4 -4,4"/>
<!-- air_box -->
<g id="node1" class="node"><title>air_box</title>
<g id="a_node1"><a xlink:href="british_air_box_full.html" xlink:title="Air\nBox">
<polygon fill="none" stroke="red" points="396.698,-43.543 362.524,-66.641 328.349,-43.543 328.381,-6.16955 396.666,-6.16955 396.698,-43.543"/>
<text text-anchor="middle" x="362.524" y="-37.0132" font-family="Times,serif" font-size="14.00" fill="#ebc72d">Air</text>
<text text-anchor="middle" x="362.524" y="-22.0132" font-family="Times,serif" font-size="14.00" fill="#ebc72d">Box</text>
</a>
</g>
</g>
<!-- livestock -->
<g id="node2" class="node"><title>livestock</title>
<g id="a_node2"><a xlink:href="british_livestock_full.html" xlink:title="Livestock">
<ellipse fill="none" stroke="magenta" cx="1186.52" cy="-135.64" rx="45.4919" ry="18"/>
<text text-anchor="middle" x="1186.52" y="-131.94" font-family="Times,serif" font-size="14.00" fill="#ebc72d">Livestock</text>
</a>
</g>
</g>
<!-- cavalry -->
<g id="node3" class="node"><title>cavalry</title>
<g id="a_node3"><a xlink:href="british_cavalry_full.html" xlink:title="Cavalry">
<ellipse fill="none" stroke="magenta" cx="386.524" cy="-135.64" rx="38.1938" ry="18"/>
<text text-anchor="middle" x="386.524" y="-131.94" font-family="Times,serif" font-size="14.00" fill="#ebc72d">Cavalry</text>
</a>
</g>
</g>
<!-- colonist -->
<g id="node4" class="node"><title>colonist</title>
<g id="a_node4"><a xlink:href="british_colonist_full.html" xlink:title="Colonist">
<ellipse fill="none" stroke="magenta" cx="669.524" cy="-325.279" rx="40.0939" ry="18"/>
<text text-anchor="middle" x="669.524" y="-321.579" font-family="Times,serif" font-size="14.00" fill="#ebc72d">Colonist</text>
</a>
</g>
</g>
<!-- powder_house -->
<g id="node6" class="node"><title>powder_house</title>
<g id="a_node6"><a xlink:href="british_powder_house_full.html" xlink:title="Powder\nHouse">
<polygon fill="none" stroke="red" points="585.412,-248.396 534.524,-271.494 483.635,-248.396 483.683,-211.022 585.364,-211.022 585.412,-248.396"/>
<text text-anchor="middle" x="534.524" y="-241.866" font-family="Times,serif" font-size="14.00" fill="#ebc72d">Powder</text>
<text text-anchor="middle" x="534.524" y="-226.866" font-family="Times,serif" font-size="14.00" fill="#ebc72d">House</text>
</a>
</g>
</g>
<!-- colonist&#45;&gt;powder_house -->
<g id="edge20" class="edge"><title>colonist&#45;&gt;powder_house</title>
<path fill="none" stroke="#ebc72d" stroke-width="2" d="M647.231,-310.208C627.088,-297.494 597.004,-278.505 572.983,-263.342"/>
<polygon fill="#ebc72d" stroke="#ebc72d" stroke-width="2" points="574.762,-260.326 564.437,-257.948 571.025,-266.245 574.762,-260.326"/>
</g>
<!-- balloon_base -->
<g id="node7" class="node"><title>balloon_base</title>
<g id="a_node7"><a xlink:href="british_balloon_base_full.html" xlink:title="Balloon\nBase">
<polygon fill="none" stroke="red" points="762.159,-248.396 710.524,-271.494 658.888,-248.396 658.936,-211.022 762.111,-211.022 762.159,-248.396"/>
<text text-anchor="middle" x="710.524" y="-241.866" font-family="Times,serif" font-size="14.00" fill="#ebc72d">Balloon</text>
<text text-anchor="middle" x="710.524" y="-226.866" font-family="Times,serif" font-size="14.00" fill="#ebc72d">Base</text>
</a>
</g>
</g>
<!-- colonist&#45;&gt;balloon_base -->
<g id="edge15" class="edge"><title>colonist&#45;&gt;balloon_base</title>
<path fill="none" stroke="#ebc72d" stroke-width="2" d="M677.624,-307.444C682.072,-298.198 687.769,-286.358 693.168,-275.138"/>
<polygon fill="#ebc72d" stroke="#ebc72d" stroke-width="2" points="696.417,-276.458 697.598,-265.929 690.109,-273.423 696.417,-276.458"/>
</g>
<!-- artillery_foundry -->
<g id="node12" class="node"><title>artillery_foundry</title>
<g id="a_node12"><a xlink:href="british_artillery_foundry_full.html" xlink:title="Artillery\nFoundry">
<polygon fill="none" stroke="red" points="890.652,-248.396 835.524,-271.494 780.395,-248.396 780.447,-211.022 890.6,-211.022 890.652,-248.396"/>
<text text-anchor="middle" x="835.524" y="-241.866" font-family="Times,serif" font-size="14.00" fill="#ebc72d">Artillery</text>
<text text-anchor="middle" x="835.524" y="-226.866" font-family="Times,serif" font-size="14.00" fill="#ebc72d">Foundry</text>
</a>
</g>
</g>
<!-- colonist&#45;&gt;artillery_foundry -->
<g id="edge14" class="edge"><title>colonist&#45;&gt;artillery_foundry</title>
<path fill="none" stroke="#ebc72d" stroke-width="2" d="M695.097,-311.151C720.73,-297.993 760.695,-277.478 791.445,-261.693"/>
<polygon fill="#ebc72d" stroke="#ebc72d" stroke-width="2" points="793.369,-264.64 800.667,-256.959 790.172,-258.412 793.369,-264.64"/>
</g>
<!-- lookout_tower -->
<g id="node13" class="node"><title>lookout_tower</title>
<g id="a_node13"><a xlink:href="british_lookout_tower_full.html" xlink:title="Lookout\nTower">
<polygon fill="none" stroke="red" points="683.904,-145.969 629.524,-169.067 575.143,-145.969 575.194,-108.596 683.853,-108.596 683.904,-145.969"/>
<text text-anchor="middle" x="629.524" y="-139.44" font-family="Times,serif" font-size="14.00" fill="#ebc72d">Lookout</text>
<text text-anchor="middle" x="629.524" y="-124.44" font-family="Times,serif" font-size="14.00" fill="#ebc72d">Tower</text>
</a>
</g>
</g>
<!-- colonist&#45;&gt;lookout_tower -->
<g id="edge19" class="edge"><title>colonist&#45;&gt;lookout_tower</title>
<path fill="none" stroke="#ebc72d" stroke-width="2" d="M662.094,-307.393C657.845,-297.128 652.738,-283.654 649.524,-271.279 641.551,-240.588 636.441,-205.078 633.384,-178.235"/>
<polygon fill="#ebc72d" stroke="#ebc72d" stroke-width="2" points="636.835,-177.597 632.273,-168.034 629.876,-178.355 636.835,-177.597"/>
</g>
<!-- fort -->
<g id="node15" class="node"><title>fort</title>
<g id="a_node15"><a xlink:href="british_fort_full.html" xlink:title="Fort">
<polygon fill="none" stroke="red" points="87.6875,-243.628 56.5235,-256.066 25.3595,-243.628 25.3886,-223.504 87.6584,-223.504 87.6875,-243.628"/>
<text text-anchor="middle" x="56.5235" y="-234.366" font-family="Times,serif" font-size="14.00" fill="#ebc72d">Fort</text>
</a>
</g>
</g>
<!-- colonist&#45;&gt;fort -->
<g id="edge18" class="edge"><title>colonist&#45;&gt;fort</title>
<path fill="none" stroke="#ebc72d" stroke-width="2" d="M619.978,-320.404C534.299,-313.316 353.074,-296.622 201.524,-271.279 163.983,-265.002 121.531,-255.255 92.3096,-248.126"/>
<polygon fill="#ebc72d" stroke="#ebc72d" stroke-width="2" points="619.939,-323.913 630.191,-321.241 620.51,-316.936 619.939,-323.913"/>
<polygon fill="#ebc72d" stroke="#ebc72d" stroke-width="2" points="93.102,-244.716 82.5551,-245.723 91.4279,-251.513 93.102,-244.716"/>
</g>
<!-- wagon_worker -->
<g id="node18" class="node"><title>wagon_worker</title>
<g id="a_node18"><a xlink:href="british_wagon_worker_full.html" xlink:title="Wagon\nWorker">
<ellipse fill="none" stroke="magenta" cx="1081.52" cy="-135.64" rx="41.9398" ry="26.7407"/>
<text text-anchor="middle" x="1081.52" y="-139.44" font-family="Times,serif" font-size="14.00" fill="#ebc72d">Wagon</text>
<text text-anchor="middle" x="1081.52" y="-124.44" font-family="Times,serif" font-size="14.00" fill="#ebc72d">Worker</text>
</a>
</g>
</g>
<!-- colonist&#45;&gt;wagon_worker -->
<g id="edge21" class="edge"><title>colonist&#45;&gt;wagon_worker</title>
<path fill="none" stroke="#ebc72d" stroke-dasharray="5,2" d="M708.533,-320.222C755.589,-314.235 836.254,-300.427 899.524,-271.279 958.349,-244.179 1016.86,-196.179 1051.08,-165.415"/>
<polygon fill="#ebc72d" stroke="#ebc72d" points="1053.78,-167.685 1058.83,-158.368 1049.08,-162.506 1053.78,-167.685"/>
</g>
<!-- camp -->
<g id="node21" class="node"><title>camp</title>
<g id="a_node21"><a xlink:href="british_camp_full.html" xlink:title="Camp">
<polygon fill="none" stroke="red" points="290.862,-243.628 250.524,-256.066 210.186,-243.628 210.223,-223.504 290.824,-223.504 290.862,-243.628"/>
<text text-anchor="middle" x="250.524" y="-234.366" font-family="Times,serif" font-size="14.00" fill="#ebc72d">Camp</text>
</a>
</g>
</g>
<!-- colonist&#45;&gt;camp -->
<g id="edge16" class="edge"><title>colonist&#45;&gt;camp</title>
<path fill="none" stroke="#ebc72d" stroke-width="2" d="M633.437,-316.94C556.548,-301.303 376.84,-264.755 293.891,-247.886"/>
<polygon fill="#ebc72d" stroke="#ebc72d" stroke-width="2" points="294.529,-244.444 284.032,-245.881 293.134,-251.304 294.529,-244.444"/>
</g>
<!-- farm_house -->
<g id="node22" class="node"><title>farm_house</title>
<g id="a_node22"><a xlink:href="british_farm_house_full.html" xlink:title="Farm\nHouse">
<polygon fill="none" stroke="red" points="1178.17,-248.396 1133.52,-271.494 1088.87,-248.396 1088.91,-211.022 1178.13,-211.022 1178.17,-248.396"/>
<text text-anchor="middle" x="1133.52" y="-241.866" font-family="Times,serif" font-size="14.00" fill="#ebc72d">Farm</text>
<text text-anchor="middle" x="1133.52" y="-226.866" font-family="Times,serif" font-size="14.00" fill="#ebc72d">House</text>
</a>
</g>
</g>
<!-- colonist&#45;&gt;farm_house -->
<g id="edge17" class="edge"><title>colonist&#45;&gt;farm_house</title>
<path fill="none" stroke="#ebc72d" stroke-width="2" d="M708.51,-320.532C774.96,-313.703 914.167,-297.472 1029.52,-271.279 1048.34,-267.006 1068.69,-261.018 1086.36,-255.363"/>
<polygon fill="#ebc72d" stroke="#ebc72d" stroke-width="2" points="1087.44,-258.69 1095.87,-252.268 1085.28,-252.034 1087.44,-258.69"/>
</g>
<!-- balloon -->
<g id="node5" class="node"><title>balloon</title>
<g id="a_node5"><a xlink:href="british_balloon_full.html" xlink:title="Balloon">
<ellipse fill="none" stroke="magenta" cx="835.524" cy="-135.64" rx="38.1938" ry="18"/>
<text text-anchor="middle" x="835.524" y="-131.94" font-family="Times,serif" font-size="14.00" fill="#ebc72d">Balloon</text>
</a>
</g>
</g>
<!-- powder_house&#45;&gt;air_box -->
<g id="edge28" class="edge"><title>powder_house&#45;&gt;air_box</title>
<path fill="none" stroke="#ebc72d" stroke-dasharray="1,5" d="M452.524,-134.64C441.127,-122.54 443.834,-115.464 433.524,-102.426 421.203,-86.8479 405.439,-71.3583 391.897,-59.0863"/>
<polygon fill="#ebc72d" stroke="#ebc72d" points="394.02,-56.2901 384.223,-52.2562 389.366,-61.519 394.02,-56.2901"/>
</g>
<!-- powder_house&#45;&gt;cavalry -->
<g id="edge31" class="edge"><title>powder_house&#45;&gt;cavalry</title>
<path fill="none" stroke="#ebc72d" stroke-dasharray="1,5" d="M496.025,-210.942C470.963,-193.936 438.781,-172.099 415.803,-156.508"/>
<polygon fill="#ebc72d" stroke="#ebc72d" points="417.722,-153.58 407.482,-150.861 413.791,-159.372 417.722,-153.58"/>
</g>
<!-- mortar -->
<g id="node10" class="node"><title>mortar</title>
<g id="a_node10"><a xlink:href="british_mortar_full.html" xlink:title="Mortar">
<ellipse fill="none" stroke="magenta" cx="202.524" cy="-33.2132" rx="35.9954" ry="18"/>
<text text-anchor="middle" x="202.524" y="-29.5132" font-family="Times,serif" font-size="14.00" fill="#ebc72d">Mortar</text>
</a>
</g>
</g>
<!-- powder_house&#45;&gt;mortar -->
<g id="edge33" class="edge"><title>powder_house&#45;&gt;mortar</title>
<path fill="none" stroke="#ebc72d" stroke-dasharray="1,5" d="M507.997,-210.999C496.18,-198.741 482.488,-183.601 471.524,-168.853 461.606,-155.514 463.92,-148.739 452.524,-136.64"/>
<path fill="none" stroke="#ebc72d" stroke-dasharray="1,5" d="M452.524,-134.64C441.127,-122.54 446.629,-112.651 433.524,-102.426 425.856,-96.4447 307.328,-63.13 243.125,-45.3698"/>
<polygon fill="#ebc72d" stroke="#ebc72d" points="243.883,-41.9482 233.312,-42.6595 242.019,-48.6956 243.883,-41.9482"/>
</g>
<!-- powder_house&#45;&gt;lookout_tower -->
<g id="edge32" class="edge"><title>powder_house&#45;&gt;lookout_tower</title>
<path fill="none" stroke="#ebc72d" stroke-dasharray="1,5" d="M559.236,-210.942C571.853,-197.605 587.281,-181.295 600.466,-167.357"/>
<polygon fill="#ebc72d" stroke="#ebc72d" points="603.198,-169.562 607.527,-159.892 598.112,-164.752 603.198,-169.562"/>
</g>
<!-- cannon -->
<g id="node16" class="node"><title>cannon</title>
<g id="a_node16"><a xlink:href="british_cannon_full.html" xlink:title="Cannon">
<ellipse fill="none" stroke="magenta" cx="518.524" cy="-135.64" rx="38.1938" ry="18"/>
<text text-anchor="middle" x="518.524" y="-131.94" font-family="Times,serif" font-size="14.00" fill="#ebc72d">Cannon</text>
</a>
</g>
</g>
<!-- powder_house&#45;&gt;cannon -->
<g id="edge29" class="edge"><title>powder_house&#45;&gt;cannon</title>
<path fill="none" stroke="#ebc72d" stroke-dasharray="1,5" d="M530.361,-210.942C528.052,-196.445 525.183,-178.436 522.847,-163.78"/>
<polygon fill="#ebc72d" stroke="#ebc72d" points="526.287,-163.122 521.257,-153.797 519.374,-164.224 526.287,-163.122"/>
</g>
<!-- puckle_gun -->
<g id="node19" class="node"><title>puckle_gun</title>
<g id="a_node19"><a xlink:href="british_puckle_gun_full.html" xlink:title="Puckle\nGun">
<ellipse fill="none" stroke="magenta" cx="452.524" cy="-33.2132" rx="37.4533" ry="26.7407"/>
<text text-anchor="middle" x="452.524" y="-37.0132" font-family="Times,serif" font-size="14.00" fill="#ebc72d">Puckle</text>
<text text-anchor="middle" x="452.524" y="-22.0132" font-family="Times,serif" font-size="14.00" fill="#ebc72d">Gun</text>
</a>
</g>
</g>
<!-- powder_house&#45;&gt;puckle_gun -->
<g id="edge34" class="edge"><title>powder_house&#45;&gt;puckle_gun</title>
<path fill="none" stroke="#ebc72d" stroke-dasharray="1,5" d="M452.524,-134.64C436.527,-117.657 437.253,-90.9909 441.591,-69.4038"/>
<polygon fill="#ebc72d" stroke="#ebc72d" points="445.017,-70.1209 443.871,-59.5882 438.199,-68.5368 445.017,-70.1209"/>
</g>
<!-- captain -->
<g id="node20" class="node"><title>captain</title>
<g id="a_node20"><a xlink:href="british_captain_full.html" xlink:title="Captain">
<ellipse fill="none" stroke="magenta" cx="740.524" cy="-135.64" rx="38.1938" ry="18"/>
<text text-anchor="middle" x="740.524" y="-131.94" font-family="Times,serif" font-size="14.00" fill="#ebc72d">Captain</text>
</a>
</g>
</g>
<!-- powder_house&#45;&gt;captain -->
<g id="edge30" class="edge"><title>powder_house&#45;&gt;captain</title>
<path fill="none" stroke="#ebc72d" stroke-dasharray="1,5" d="M585.451,-217.849C616.975,-205.283 657.9,-187.737 692.524,-168.853 699.065,-165.285 705.85,-161.077 712.187,-156.9"/>
<polygon fill="#ebc72d" stroke="#ebc72d" points="714.163,-159.789 720.485,-151.287 710.241,-153.991 714.163,-159.789"/>
</g>
<!-- balloon_base&#45;&gt;balloon -->
<g id="edge7" class="edge"><title>balloon_base&#45;&gt;balloon</title>
<path fill="none" stroke="#ebc72d" d="M743.039,-210.942C763.674,-194.365 790.023,-173.196 809.314,-157.697"/>
<polygon fill="#ebc72d" stroke="#ebc72d" points="811.508,-160.423 817.112,-151.432 807.124,-154.966 811.508,-160.423"/>
</g>
<!-- grenadier -->
<g id="node8" class="node"><title>grenadier</title>
<g id="a_node8"><a xlink:href="british_grenadier_full.html" xlink:title="Grenadier">
<ellipse fill="none" stroke="magenta" cx="975.524" cy="-135.64" rx="46.2923" ry="18"/>
<text text-anchor="middle" x="975.524" y="-131.94" font-family="Times,serif" font-size="14.00" fill="#ebc72d">Grenadier</text>
</a>
</g>
</g>
<!-- infantryman -->
<g id="node9" class="node"><title>infantryman</title>
<g id="a_node9"><a xlink:href="british_infantryman_full.html" xlink:title="Infantryman">
<ellipse fill="none" stroke="magenta" cx="83.5235" cy="-135.64" rx="54.6905" ry="18"/>
<text text-anchor="middle" x="83.5235" y="-131.94" font-family="Times,serif" font-size="14.00" fill="#ebc72d">Infantryman</text>
</a>
</g>
</g>
<!-- nurse -->
<g id="node11" class="node"><title>nurse</title>
<g id="a_node11"><a xlink:href="british_nurse_full.html" xlink:title="Nurse">
<ellipse fill="none" stroke="magenta" cx="298.524" cy="-135.64" rx="31.6951" ry="18"/>
<text text-anchor="middle" x="298.524" y="-131.94" font-family="Times,serif" font-size="14.00" fill="#ebc72d">Nurse</text>
</a>
</g>
</g>
<!-- nurse&#45;&gt;air_box -->
<g id="edge27" class="edge"><title>nurse&#45;&gt;air_box</title>
<path fill="none" stroke="#ebc72d" stroke-width="2" d="M308.806,-118.504C317.833,-104.34 331.225,-83.3249 342.38,-65.8224"/>
<polygon fill="#ebc72d" stroke="#ebc72d" stroke-width="2" points="345.551,-67.3588 347.973,-57.0447 339.648,-63.5968 345.551,-67.3588"/>
</g>
<!-- artillery_foundry&#45;&gt;balloon -->
<g id="edge1" class="edge"><title>artillery_foundry&#45;&gt;balloon</title>
<path fill="none" stroke="#ebc72d" stroke-dasharray="1,5" d="M835.524,-210.942C835.524,-196.586 835.524,-178.786 835.524,-164.207"/>
<polygon fill="#ebc72d" stroke="#ebc72d" points="839.024,-163.797 835.524,-153.797 832.024,-163.798 839.024,-163.797"/>
</g>
<!-- artillery_foundry&#45;&gt;grenadier -->
<g id="edge4" class="edge"><title>artillery_foundry&#45;&gt;grenadier</title>
<path fill="none" stroke="#ebc72d" d="M871.941,-210.942C895.115,-194.319 924.724,-173.08 946.346,-157.57"/>
<polygon fill="#ebc72d" stroke="#ebc72d" points="948.415,-160.393 954.5,-151.72 944.334,-154.705 948.415,-160.393"/>
</g>
<!-- artillery_foundry&#45;&gt;cannon -->
<g id="edge2" class="edge"><title>artillery_foundry&#45;&gt;cannon</title>
<path fill="none" stroke="#ebc72d" d="M787.234,-210.924C782.019,-208.657 776.719,-206.575 771.524,-204.853 683.716,-175.747 652.345,-203.376 566.524,-168.853 559.354,-165.969 552.155,-161.906 545.593,-157.633"/>
<polygon fill="#ebc72d" stroke="#ebc72d" points="547.319,-154.572 537.101,-151.769 543.341,-160.331 547.319,-154.572"/>
</g>
<!-- artillery_foundry&#45;&gt;wagon_worker -->
<g id="edge6" class="edge"><title>artillery_foundry&#45;&gt;wagon_worker</title>
<path fill="none" stroke="#ebc72d" stroke-dasharray="1,5" d="M890.653,-221.452C930.455,-209.306 984.986,-190.846 1030.52,-168.853 1035.24,-166.577 1040.05,-163.962 1044.75,-161.228"/>
<polygon fill="#ebc72d" stroke="#ebc72d" points="1046.84,-164.052 1053.59,-155.879 1043.22,-158.064 1046.84,-164.052"/>
</g>
<!-- artillery_foundry&#45;&gt;puckle_gun -->
<g id="edge5" class="edge"><title>artillery_foundry&#45;&gt;puckle_gun</title>
<path fill="none" stroke="#ebc72d" stroke-dasharray="1,5" d="M858.351,-210.963C881.191,-181.586 909.372,-133.87 882.524,-102.426 833.815,-45.3822 602.167,-35.7884 500.522,-34.3572"/>
<polygon fill="#ebc72d" stroke="#ebc72d" points="500.274,-30.8541 490.233,-34.2342 500.19,-37.8536 500.274,-30.8541"/>
</g>
<!-- artillery_foundry&#45;&gt;captain -->
<g id="edge3" class="edge"><title>artillery_foundry&#45;&gt;captain</title>
<path fill="none" stroke="#ebc72d" d="M810.811,-210.942C795.83,-195.106 776.886,-175.079 762.44,-159.808"/>
<polygon fill="#ebc72d" stroke="#ebc72d" points="764.756,-157.163 755.341,-152.304 759.671,-161.974 764.756,-157.163"/>
</g>
<!-- saberman -->
<g id="node14" class="node"><title>saberman</title>
<g id="a_node14"><a xlink:href="british_saberman_full.html" xlink:title="Saberman">
<ellipse fill="none" stroke="magenta" cx="202.524" cy="-135.64" rx="46.2923" ry="18"/>
<text text-anchor="middle" x="202.524" y="-131.94" font-family="Times,serif" font-size="14.00" fill="#ebc72d">Saberman</text>
</a>
</g>
</g>
<!-- saberman&#45;&gt;mortar -->
<g id="edge35" class="edge"><title>saberman&#45;&gt;mortar</title>
<path fill="none" stroke="#ebc72d" stroke-dasharray="5,2" d="M202.524,-117.604C202.524,-102.238 202.524,-79.3711 202.524,-61.4668"/>
<polygon fill="#ebc72d" stroke="#ebc72d" points="206.024,-61.3327 202.524,-51.3328 199.024,-61.3328 206.024,-61.3327"/>
</g>
<!-- saberman&#45;&gt;puckle_gun -->
<g id="edge36" class="edge"><title>saberman&#45;&gt;puckle_gun</title>
<path fill="none" stroke="#ebc72d" stroke-dasharray="5,2" d="M224.51,-119.774C234.283,-113.698 246.136,-107.031 257.524,-102.426 320.284,-77.0515 343.704,-94.0134 405.524,-66.4264 410.029,-64.4158 414.563,-61.966 418.943,-59.3243"/>
<polygon fill="#ebc72d" stroke="#ebc72d" points="421.147,-62.0682 427.66,-53.7118 417.357,-56.1827 421.147,-62.0682"/>
</g>
<!-- fort&#45;&gt;mortar -->
<g id="edge26" class="edge"><title>fort&#45;&gt;mortar</title>
<path fill="none" stroke="#ebc72d" stroke-dasharray="1,5" d="M42.3229,-223.428C25.0526,-205.246 -1.57057,-171.311 0.523524,-136.64"/>
<path fill="none" stroke="#ebc72d" stroke-dasharray="1,5" d="M0.523524,-134.64C4.67762,-65.8605 98.5296,-44.1856 156.827,-37.3555"/>
<polygon fill="#ebc72d" stroke="#ebc72d" points="157.344,-40.8202 166.917,-36.2787 156.602,-33.8598 157.344,-40.8202"/>
</g>
<!-- rabid_sheep -->
<g id="node17" class="node"><title>rabid_sheep</title>
<g id="a_node17"><a xlink:href="british_rabid_sheep_full.html" xlink:title="Rabid\nSheep">
<ellipse fill="none" stroke="magenta" cx="1285.52" cy="-135.64" rx="35.2113" ry="26.7407"/>
<text text-anchor="middle" x="1285.52" y="-139.44" font-family="Times,serif" font-size="14.00" fill="#ebc72d">Rabid</text>
<text text-anchor="middle" x="1285.52" y="-124.44" font-family="Times,serif" font-size="14.00" fill="#ebc72d">Sheep</text>
</a>
</g>
</g>
<!-- camp&#45;&gt;cavalry -->
<g id="edge9" class="edge"><title>camp&#45;&gt;cavalry</title>
<path fill="none" stroke="#ebc72d" d="M269.149,-223.313C292.255,-206.25 331.864,-177.002 358.609,-157.253"/>
<polygon fill="#ebc72d" stroke="#ebc72d" points="360.837,-159.958 366.802,-151.202 356.679,-154.327 360.837,-159.958"/>
</g>
<!-- camp&#45;&gt;infantryman -->
<g id="edge10" class="edge"><title>camp&#45;&gt;infantryman</title>
<path fill="none" stroke="#ebc72d" d="M227.653,-223.313C199.156,-206.176 150.218,-176.747 117.373,-156.995"/>
<polygon fill="#ebc72d" stroke="#ebc72d" points="118.94,-153.854 108.567,-151.7 115.333,-159.853 118.94,-153.854"/>
</g>
<!-- camp&#45;&gt;mortar -->
<g id="edge11" class="edge"><title>camp&#45;&gt;mortar</title>
<path fill="none" stroke="#ebc72d" stroke-dasharray="1,5" d="M210.343,-228.926C152.482,-216.591 49.3612,-192.131 19.5235,-168.853 6.4181,-158.629 -0.478569,-153.231 0.523524,-136.64"/>
</g>
<!-- camp&#45;&gt;nurse -->
<g id="edge12" class="edge"><title>camp&#45;&gt;nurse</title>
<path fill="none" stroke="#ebc72d" d="M257.198,-223.102C264.69,-207.426 277.007,-181.658 286.248,-162.322"/>
<polygon fill="#ebc72d" stroke="#ebc72d" points="289.476,-163.684 290.631,-153.153 283.161,-160.666 289.476,-163.684"/>
</g>
<!-- camp&#45;&gt;saberman -->
<g id="edge13" class="edge"><title>camp&#45;&gt;saberman</title>
<path fill="none" stroke="#ebc72d" d="M243.849,-223.102C236.401,-207.518 224.185,-181.96 214.962,-162.664"/>
<polygon fill="#ebc72d" stroke="#ebc72d" points="218.052,-161.011 210.581,-153.498 211.736,-164.03 218.052,-161.011"/>
</g>
<!-- camp&#45;&gt;cannon -->
<g id="edge8" class="edge"><title>camp&#45;&gt;cannon</title>
<path fill="none" stroke="#ebc72d" stroke-dasharray="1,5" d="M291.047,-227.494C335.307,-216.307 407.729,-195.836 466.524,-168.853 474.124,-165.365 481.97,-160.974 489.189,-156.567"/>
<polygon fill="#ebc72d" stroke="#ebc72d" points="491.35,-159.342 497.935,-151.041 487.611,-153.424 491.35,-159.342"/>
</g>
<!-- farm_house&#45;&gt;livestock -->
<g id="edge22" class="edge"><title>farm_house&#45;&gt;livestock</title>
<path fill="none" stroke="#ebc72d" d="M1147.31,-210.942C1155.16,-196.068 1164.96,-177.498 1172.8,-162.643"/>
<polygon fill="#ebc72d" stroke="#ebc72d" points="1176.06,-163.972 1177.63,-153.495 1169.87,-160.705 1176.06,-163.972"/>
</g>
<!-- farm_house&#45;&gt;rabid_sheep -->
<g id="edge23" class="edge"><title>farm_house&#45;&gt;rabid_sheep</title>
<path fill="none" stroke="#ebc72d" d="M1175.53,-211.018C1195.4,-198.512 1219.35,-183.164 1240.52,-168.853 1244.3,-166.302 1248.22,-163.591 1252.1,-160.867"/>
<polygon fill="#ebc72d" stroke="#ebc72d" points="1254.33,-163.577 1260.46,-154.94 1250.28,-157.866 1254.33,-163.577"/>
</g>
<!-- farm_house&#45;&gt;wagon_worker -->
<g id="edge24" class="edge"><title>farm_house&#45;&gt;wagon_worker</title>
<path fill="none" stroke="#ebc72d" stroke-dasharray="1,5" d="M1120,-210.942C1113.6,-198.596 1105.89,-183.704 1099.06,-170.503"/>
<polygon fill="#ebc72d" stroke="#ebc72d" points="1101.97,-168.522 1094.27,-161.251 1095.76,-171.74 1101.97,-168.522"/>
</g>
</g>
</svg>
