<?xml version="1.0" encoding="UTF-8" standalone="no"?>
<!DOCTYPE svg PUBLIC "-//W3C//DTD SVG 1.1//EN"
 "http://www.w3.org/Graphics/SVG/1.1/DTD/svg11.dtd">
<!-- Generated by graphviz version 2.38.0 (20140413.2041)
 -->
<!-- Title: test Pages: 1 -->
<svg width="1575pt" height="545pt"
 viewBox="0.00 0.00 1574.99 544.85" xmlns="http://www.w3.org/2000/svg" xmlns:xlink="http://www.w3.org/1999/xlink">
<g id="graph0" class="graph" transform="scale(1 1) rotate(0) translate(4 540.853)">
<title>test</title>
<polygon fill="#151515" stroke="none" points="-4,4 -4,-540.853 1570.99,-540.853 1570.99,4 -4,4"/>
<!-- air_box -->
<g id="node1" class="node"><title>air_box</title>
<g id="a_node1"><a xlink:href="british_air_box_full.html" xlink:title="Air\nBox">
<polygon fill="none" stroke="red" points="1398.36,-227.543 1364.19,-250.641 1330.02,-227.543 1330.05,-190.17 1398.33,-190.17 1398.36,-227.543"/>
<text text-anchor="middle" x="1364.19" y="-221.013" font-family="Times,serif" font-size="14.00" fill="#ebc72d">Air</text>
<text text-anchor="middle" x="1364.19" y="-206.013" font-family="Times,serif" font-size="14.00" fill="#ebc72d">Box</text>
</a>
</g>
</g>
<!-- livestock -->
<g id="node2" class="node"><title>livestock</title>
<g id="a_node2"><a xlink:href="british_livestock_full.html" xlink:title="Livestock">
<ellipse fill="none" stroke="magenta" cx="340.19" cy="-324.426" rx="45.4919" ry="18"/>
<text text-anchor="middle" x="340.19" y="-320.726" font-family="Times,serif" font-size="14.00" fill="#ebc72d">Livestock</text>
</a>
</g>
</g>
<!-- cavalry -->
<g id="node3" class="node"><title>cavalry</title>
<g id="a_node3"><a xlink:href="british_cavalry_full.html" xlink:title="Cavalry">
<ellipse fill="none" stroke="magenta" cx="896.19" cy="-217.213" rx="38.1938" ry="18"/>
<text text-anchor="middle" x="896.19" y="-213.513" font-family="Times,serif" font-size="14.00" fill="#ebc72d">Cavalry</text>
</a>
</g>
</g>
<!-- colonist -->
<g id="node4" class="node"><title>colonist</title>
<g id="a_node4"><a xlink:href="british_colonist_full.html" xlink:title="Colonist">
<ellipse fill="none" stroke="magenta" cx="592.19" cy="-518.853" rx="40.0939" ry="18"/>
<text text-anchor="middle" x="592.19" y="-515.153" font-family="Times,serif" font-size="14.00" fill="#ebc72d">Colonist</text>
</a>
</g>
</g>
<!-- powder_house -->
<g id="node6" class="node"><title>powder_house</title>
<g id="a_node6"><a xlink:href="british_powder_house_full.html" xlink:title="Powder\nHouse">
<polygon fill="none" stroke="red" points="684.078,-441.969 633.19,-465.067 582.302,-441.969 582.349,-404.596 684.031,-404.596 684.078,-441.969"/>
<text text-anchor="middle" x="633.19" y="-435.44" font-family="Times,serif" font-size="14.00" fill="#ebc72d">Powder</text>
<text text-anchor="middle" x="633.19" y="-420.44" font-family="Times,serif" font-size="14.00" fill="#ebc72d">House</text>
</a>
</g>
</g>
<!-- colonist&#45;&gt;powder_house -->
<g id="edge21" class="edge"><title>colonist&#45;&gt;powder_house</title>
<path fill="none" stroke="#ebc72d" stroke-width="2" d="M600.29,-501.017C604.739,-491.772 610.435,-479.932 615.834,-468.712"/>
<polygon fill="#ebc72d" stroke="#ebc72d" stroke-width="2" points="619.083,-470.032 620.265,-459.503 612.775,-466.997 619.083,-470.032"/>
</g>
<!-- balloon_base -->
<g id="node7" class="node"><title>balloon_base</title>
<g id="a_node7"><a xlink:href="british_balloon_base_full.html" xlink:title="Balloon\nBase">
<polygon fill="none" stroke="red" points="229.826,-227.543 178.19,-250.641 126.554,-227.543 126.602,-190.17 229.778,-190.17 229.826,-227.543"/>
<text text-anchor="middle" x="178.19" y="-221.013" font-family="Times,serif" font-size="14.00" fill="#ebc72d">Balloon</text>
<text text-anchor="middle" x="178.19" y="-206.013" font-family="Times,serif" font-size="14.00" fill="#ebc72d">Base</text>
</a>
</g>
</g>
<!-- colonist&#45;&gt;balloon_base -->
<g id="edge16" class="edge"><title>colonist&#45;&gt;balloon_base</title>
<path fill="none" stroke="#ebc72d" stroke-width="2" d="M178.19,-323.426C172.653,-302.789 172.176,-279.044 173.291,-259.34"/>
<polygon fill="#ebc72d" stroke="#ebc72d" stroke-width="2" points="176.797,-259.376 174.026,-249.15 169.815,-258.872 176.797,-259.376"/>
</g>
<!-- artillery_foundry -->
<g id="node12" class="node"><title>artillery_foundry</title>
<g id="a_node12"><a xlink:href="british_artillery_foundry_full.html" xlink:title="Artillery\nFoundry">
<polygon fill="none" stroke="red" points="690.318,-334.756 635.19,-357.854 580.062,-334.756 580.113,-297.383 690.267,-297.383 690.318,-334.756"/>
<text text-anchor="middle" x="635.19" y="-328.226" font-family="Times,serif" font-size="14.00" fill="#ebc72d">Artillery</text>
<text text-anchor="middle" x="635.19" y="-313.226" font-family="Times,serif" font-size="14.00" fill="#ebc72d">Foundry</text>
</a>
</g>
</g>
<!-- colonist&#45;&gt;artillery_foundry -->
<g id="edge15" class="edge"><title>colonist&#45;&gt;artillery_foundry</title>
<path fill="none" stroke="#ebc72d" stroke-width="2" d="M552.19,-430.64C551.224,-398.812 575.014,-370.944 597.366,-351.898"/>
<polygon fill="#ebc72d" stroke="#ebc72d" stroke-width="2" points="599.629,-354.569 605.169,-345.538 595.206,-349.143 599.629,-354.569"/>
</g>
<!-- lookout_tower -->
<g id="node13" class="node"><title>lookout_tower</title>
<g id="a_node13"><a xlink:href="british_lookout_tower_full.html" xlink:title="Lookout\nTower">
<polygon fill="none" stroke="red" points="108.571,-227.543 54.19,-250.641 -0.190655,-227.543 -0.139898,-190.17 108.52,-190.17 108.571,-227.543"/>
<text text-anchor="middle" x="54.19" y="-221.013" font-family="Times,serif" font-size="14.00" fill="#ebc72d">Lookout</text>
<text text-anchor="middle" x="54.19" y="-206.013" font-family="Times,serif" font-size="14.00" fill="#ebc72d">Tower</text>
</a>
</g>
</g>
<!-- colonist&#45;&gt;lookout_tower -->
<g id="edge20" class="edge"><title>colonist&#45;&gt;lookout_tower</title>
<path fill="none" stroke="#ebc72d" stroke-width="2" d="M552.018,-516.528C456.36,-510.843 219.939,-481.018 178.19,-325.426"/>
<path fill="none" stroke="#ebc72d" stroke-width="2" d="M178.19,-323.426C155.438,-291.152 120.534,-262.739 93.5479,-243.601"/>
<polygon fill="#ebc72d" stroke="#ebc72d" stroke-width="2" points="95.2982,-240.555 85.0897,-237.72 91.3021,-246.302 95.2982,-240.555"/>
</g>
<!-- fort -->
<g id="node15" class="node"><title>fort</title>
<g id="a_node15"><a xlink:href="british_fort_full.html" xlink:title="Fort">
<polygon fill="none" stroke="red" points="764.354,-437.202 733.19,-449.64 702.026,-437.202 702.055,-417.077 764.325,-417.077 764.354,-437.202"/>
<text text-anchor="middle" x="733.19" y="-427.94" font-family="Times,serif" font-size="14.00" fill="#ebc72d">Fort</text>
</a>
</g>
</g>
<!-- colonist&#45;&gt;fort -->
<g id="edge19" class="edge"><title>colonist&#45;&gt;fort</title>
<path fill="none" stroke="#ebc72d" stroke-width="2" d="M628.8,-500.796C648.419,-491.126 672.7,-478.295 693.19,-464.853 699.401,-460.778 705.806,-455.944 711.621,-451.276"/>
<polygon fill="#ebc72d" stroke="#ebc72d" stroke-width="2" points="627.043,-497.758 619.58,-505.278 630.104,-504.053 627.043,-497.758"/>
<polygon fill="#ebc72d" stroke="#ebc72d" stroke-width="2" points="714.145,-453.73 719.626,-444.664 709.687,-448.333 714.145,-453.73"/>
</g>
<!-- wagon_worker -->
<g id="node18" class="node"><title>wagon_worker</title>
<g id="a_node18"><a xlink:href="british_wagon_worker_full.html" xlink:title="Wagon\nWorker">
<ellipse fill="none" stroke="magenta" cx="489.19" cy="-217.213" rx="41.9398" ry="26.7407"/>
<text text-anchor="middle" x="489.19" y="-221.013" font-family="Times,serif" font-size="14.00" fill="#ebc72d">Wagon</text>
<text text-anchor="middle" x="489.19" y="-206.013" font-family="Times,serif" font-size="14.00" fill="#ebc72d">Worker</text>
</a>
</g>
</g>
<!-- colonist&#45;&gt;wagon_worker -->
<g id="edge22" class="edge"><title>colonist&#45;&gt;wagon_worker</title>
<path fill="none" stroke="#ebc72d" stroke-dasharray="5,2" d="M579.653,-501.609C568.218,-485.194 552.979,-458.613 552.19,-432.64"/>
<path fill="none" stroke="#ebc72d" stroke-dasharray="5,2" d="M552.19,-430.64C550.771,-383.9 556.931,-371.947 552.19,-325.426"/>
</g>
<!-- camp -->
<g id="node21" class="node"><title>camp</title>
<g id="a_node21"><a xlink:href="british_camp_full.html" xlink:title="Camp">
<polygon fill="none" stroke="red" points="1049.53,-437.202 1009.19,-449.64 968.852,-437.202 968.89,-417.077 1049.49,-417.077 1049.53,-437.202"/>
<text text-anchor="middle" x="1009.19" y="-427.94" font-family="Times,serif" font-size="14.00" fill="#ebc72d">Camp</text>
</a>
</g>
</g>
<!-- colonist&#45;&gt;camp -->
<g id="edge17" class="edge"><title>colonist&#45;&gt;camp</title>
<path fill="none" stroke="#ebc72d" stroke-width="2" d="M628.104,-510.514C704.627,-494.877 883.476,-458.329 966.029,-441.46"/>
<polygon fill="#ebc72d" stroke="#ebc72d" stroke-width="2" points="966.745,-444.886 975.842,-439.454 965.343,-438.027 966.745,-444.886"/>
</g>
<!-- farm_house -->
<g id="node22" class="node"><title>farm_house</title>
<g id="a_node22"><a xlink:href="british_farm_house_full.html" xlink:title="Farm\nHouse">
<polygon fill="none" stroke="red" points="523.841,-441.969 479.19,-465.067 434.539,-441.969 434.58,-404.596 523.8,-404.596 523.841,-441.969"/>
<text text-anchor="middle" x="479.19" y="-435.44" font-family="Times,serif" font-size="14.00" fill="#ebc72d">Farm</text>
<text text-anchor="middle" x="479.19" y="-420.44" font-family="Times,serif" font-size="14.00" fill="#ebc72d">House</text>
</a>
</g>
</g>
<!-- colonist&#45;&gt;farm_house -->
<g id="edge18" class="edge"><title>colonist&#45;&gt;farm_house</title>
<path fill="none" stroke="#ebc72d" stroke-width="2" d="M572.507,-503.01C556.13,-490.66 532.442,-472.797 513.032,-458.16"/>
<polygon fill="#ebc72d" stroke="#ebc72d" stroke-width="2" points="515.1,-455.336 505.008,-452.109 510.885,-460.925 515.1,-455.336"/>
</g>
<!-- balloon -->
<g id="node5" class="node"><title>balloon</title>
<g id="a_node5"><a xlink:href="british_balloon_full.html" xlink:title="Balloon">
<ellipse fill="none" stroke="magenta" cx="178.19" cy="-18" rx="38.1938" ry="18"/>
<text text-anchor="middle" x="178.19" y="-14.3" font-family="Times,serif" font-size="14.00" fill="#ebc72d">Balloon</text>
</a>
</g>
</g>
<!-- powder_house&#45;&gt;cavalry -->
<g id="edge36" class="edge"><title>powder_house&#45;&gt;cavalry</title>
<path fill="none" stroke="#ebc72d" stroke-dasharray="1,5" d="M679.546,-404.459C684.094,-402.284 688.691,-400.231 693.19,-398.426 775.997,-365.214 851.65,-409.958 880.19,-325.426"/>
<path fill="none" stroke="#ebc72d" stroke-dasharray="1,5" d="M880.19,-323.426C888.836,-297.819 892.825,-267.122 894.657,-245.513"/>
<polygon fill="#ebc72d" stroke="#ebc72d" points="898.157,-245.641 895.412,-235.408 891.176,-245.119 898.157,-245.641"/>
</g>
<!-- powder_house&#45;&gt;artillery_foundry -->
<g id="edge35" class="edge"><title>powder_house&#45;&gt;artillery_foundry</title>
<path fill="none" stroke="#ebc72d" stroke-dasharray="1,5" d="M633.69,-404.361C633.899,-393.329 634.148,-380.216 634.383,-367.878"/>
<polygon fill="#ebc72d" stroke="#ebc72d" points="637.885,-367.823 634.575,-357.758 630.886,-367.69 637.885,-367.823"/>
</g>
<!-- imperialism -->
<g id="node24" class="node"><title>imperialism</title>
<g id="a_node24"><a xlink:href="british_imperialism_full.html" xlink:title="Imperialism">
<polygon fill="none" stroke="green" points="1066.38,-342.426 940.408,-342.426 908.002,-306.426 1033.97,-306.426 1066.38,-342.426"/>
<text text-anchor="middle" x="987.19" y="-320.726" font-family="Times,serif" font-size="14.00" fill="#ebc72d">Imperialism</text>
</a>
</g>
</g>
<!-- powder_house&#45;&gt;imperialism -->
<g id="edge38" class="edge"><title>powder_house&#45;&gt;imperialism</title>
<path fill="none" stroke="#ebc72d" d="M678.374,-404.473C683.28,-402.211 688.277,-400.137 693.19,-398.426 778.901,-368.591 806.918,-387.327 894.19,-362.426 909.405,-358.085 925.562,-352.151 940.066,-346.307"/>
<polygon fill="#ebc72d" stroke="#ebc72d" points="941.415,-349.537 949.332,-342.497 938.753,-343.063 941.415,-349.537"/>
</g>
<!-- gun_powder -->
<g id="node28" class="node"><title>gun_powder</title>
<g id="a_node28"><a xlink:href="british_gun_powder_full.html" xlink:title="Gun\nPowder">
<polygon fill="none" stroke="green" points="524.454,-362.426 428.588,-362.426 403.926,-286.426 499.792,-286.426 524.454,-362.426"/>
<text text-anchor="middle" x="464.19" y="-328.226" font-family="Times,serif" font-size="14.00" fill="#ebc72d">Gun</text>
<text text-anchor="middle" x="464.19" y="-313.226" font-family="Times,serif" font-size="14.00" fill="#ebc72d">Powder</text>
</a>
</g>
</g>
<!-- powder_house&#45;&gt;gun_powder -->
<g id="edge37" class="edge"><title>powder_house&#45;&gt;gun_powder</title>
<path fill="none" stroke="#ebc72d" d="M590.98,-404.361C573.266,-393.333 552.211,-380.225 532.398,-367.89"/>
<polygon fill="#ebc72d" stroke="#ebc72d" points="534.038,-364.788 523.699,-362.474 530.338,-370.731 534.038,-364.788"/>
</g>
<!-- balloon_base&#45;&gt;balloon -->
<g id="edge7" class="edge"><title>balloon_base&#45;&gt;balloon</title>
<path fill="none" stroke="#ebc72d" d="M167.183,-190.16C162.479,-177.653 157.537,-162.306 155.19,-148 149.722,-114.668 148.323,-105.072 155.19,-72 157.095,-62.8235 160.674,-53.2851 164.45,-44.8715"/>
<polygon fill="#ebc72d" stroke="#ebc72d" points="167.727,-46.1317 168.886,-35.6004 161.413,-43.1105 167.727,-46.1317"/>
</g>
<!-- heated_air -->
<g id="node26" class="node"><title>heated_air</title>
<g id="a_node26"><a xlink:href="british_heated_air_full.html" xlink:title="Heated\nAir">
<polygon fill="none" stroke="green" points="278.233,-148 187.49,-148 164.147,-72 254.89,-72 278.233,-148"/>
<text text-anchor="middle" x="221.19" y="-113.8" font-family="Times,serif" font-size="14.00" fill="#ebc72d">Heated</text>
<text text-anchor="middle" x="221.19" y="-98.8" font-family="Times,serif" font-size="14.00" fill="#ebc72d">Air</text>
</a>
</g>
</g>
<!-- balloon_base&#45;&gt;heated_air -->
<g id="edge8" class="edge"><title>balloon_base&#45;&gt;heated_air</title>
<path fill="none" stroke="#ebc72d" d="M188.93,-189.935C192.932,-180.143 197.604,-168.712 202.13,-157.638"/>
<polygon fill="#ebc72d" stroke="#ebc72d" points="205.505,-158.629 206.049,-148.048 199.026,-155.981 205.505,-158.629"/>
</g>
<!-- grenadier -->
<g id="node8" class="node"><title>grenadier</title>
<g id="a_node8"><a xlink:href="british_grenadier_full.html" xlink:title="Grenadier">
<ellipse fill="none" stroke="magenta" cx="998.19" cy="-217.213" rx="46.2923" ry="18"/>
<text text-anchor="middle" x="998.19" y="-213.513" font-family="Times,serif" font-size="14.00" fill="#ebc72d">Grenadier</text>
</a>
</g>
</g>
<!-- infantryman -->
<g id="node9" class="node"><title>infantryman</title>
<g id="a_node9"><a xlink:href="british_infantryman_full.html" xlink:title="Infantryman">
<ellipse fill="none" stroke="magenta" cx="1139.19" cy="-324.426" rx="54.6905" ry="18"/>
<text text-anchor="middle" x="1139.19" y="-320.726" font-family="Times,serif" font-size="14.00" fill="#ebc72d">Infantryman</text>
</a>
</g>
</g>
<!-- mortar -->
<g id="node10" class="node"><title>mortar</title>
<g id="a_node10"><a xlink:href="british_mortar_full.html" xlink:title="Mortar">
<ellipse fill="none" stroke="magenta" cx="1109.19" cy="-217.213" rx="35.9954" ry="18"/>
<text text-anchor="middle" x="1109.19" y="-213.513" font-family="Times,serif" font-size="14.00" fill="#ebc72d">Mortar</text>
</a>
</g>
</g>
<!-- nurse -->
<g id="node11" class="node"><title>nurse</title>
<g id="a_node11"><a xlink:href="british_nurse_full.html" xlink:title="Nurse">
<ellipse fill="none" stroke="magenta" cx="1502.19" cy="-324.426" rx="31.6951" ry="18"/>
<text text-anchor="middle" x="1502.19" y="-320.726" font-family="Times,serif" font-size="14.00" fill="#ebc72d">Nurse</text>
</a>
</g>
</g>
<!-- nurse&#45;&gt;air_box -->
<g id="edge33" class="edge"><title>nurse&#45;&gt;air_box</title>
<path fill="none" stroke="#ebc72d" stroke-width="2" d="M1486.62,-308.557C1479.12,-301.611 1469.88,-293.364 1461.19,-286.426 1440.54,-269.945 1416.21,-252.845 1397.09,-239.888"/>
<polygon fill="#ebc72d" stroke="#ebc72d" stroke-width="2" points="1398.95,-236.922 1388.7,-234.244 1395.04,-242.73 1398.95,-236.922"/>
</g>
<!-- medicine -->
<g id="node27" class="node"><title>medicine</title>
<g id="a_node27"><a xlink:href="british_medicine_full.html" xlink:title="Medicine">
<polygon fill="none" stroke="green" points="1566.79,-235.213 1464.03,-235.213 1437.59,-199.213 1540.35,-199.213 1566.79,-235.213"/>
<text text-anchor="middle" x="1502.19" y="-213.513" font-family="Times,serif" font-size="14.00" fill="#ebc72d">Medicine</text>
</a>
</g>
</g>
<!-- nurse&#45;&gt;medicine -->
<g id="edge34" class="edge"><title>nurse&#45;&gt;medicine</title>
<path fill="none" stroke="#ebc72d" d="M1502.19,-306.053C1502.19,-289.582 1502.19,-264.585 1502.19,-245.463"/>
<polygon fill="#ebc72d" stroke="#ebc72d" points="1505.69,-245.264 1502.19,-235.264 1498.69,-245.264 1505.69,-245.264"/>
</g>
<!-- artillery_foundry&#45;&gt;balloon_base -->
<g id="edge1" class="edge"><title>artillery_foundry&#45;&gt;balloon_base</title>
<path fill="none" stroke="#ebc72d" stroke-dasharray="1,5" d="M580.12,-301.649C565.057,-296.189 548.626,-290.68 533.19,-286.426 431.983,-258.535 311.47,-237.97 240.09,-227.064"/>
<polygon fill="#ebc72d" stroke="#ebc72d" points="240.334,-223.561 229.923,-225.526 239.287,-230.483 240.334,-223.561"/>
</g>
<!-- artillery_foundry&#45;&gt;grenadier -->
<g id="edge4" class="edge"><title>artillery_foundry&#45;&gt;grenadier</title>
<path fill="none" stroke="#ebc72d" d="M675.056,-297.33C682.816,-293.139 691.07,-289.256 699.19,-286.426 802.703,-250.353 839.78,-286.792 943.19,-250.426 951.669,-247.445 960.303,-243.113 968.142,-238.587"/>
<polygon fill="#ebc72d" stroke="#ebc72d" points="970.19,-241.438 976.92,-233.255 966.556,-235.455 970.19,-241.438"/>
</g>
<!-- cannon -->
<g id="node16" class="node"><title>cannon</title>
<g id="a_node16"><a xlink:href="british_cannon_full.html" xlink:title="Cannon">
<ellipse fill="none" stroke="magenta" cx="801.19" cy="-217.213" rx="38.1938" ry="18"/>
<text text-anchor="middle" x="801.19" y="-213.513" font-family="Times,serif" font-size="14.00" fill="#ebc72d">Cannon</text>
</a>
</g>
</g>
<!-- artillery_foundry&#45;&gt;cannon -->
<g id="edge2" class="edge"><title>artillery_foundry&#45;&gt;cannon</title>
<path fill="none" stroke="#ebc72d" d="M678.308,-297.28C700.76,-283.532 728.589,-266.283 753.19,-250.426 759.198,-246.554 765.578,-242.343 771.658,-238.282"/>
<polygon fill="#ebc72d" stroke="#ebc72d" points="773.923,-240.976 780.273,-232.495 770.02,-235.166 773.923,-240.976"/>
</g>
<!-- artillery_foundry&#45;&gt;wagon_worker -->
<g id="edge6" class="edge"><title>artillery_foundry&#45;&gt;wagon_worker</title>
<path fill="none" stroke="#ebc72d" stroke-dasharray="1,5" d="M598.725,-297.148C576.107,-280.849 547.185,-260.006 524.74,-243.832"/>
<polygon fill="#ebc72d" stroke="#ebc72d" points="526.641,-240.888 516.482,-237.881 522.548,-246.567 526.641,-240.888"/>
</g>
<!-- captain -->
<g id="node20" class="node"><title>captain</title>
<g id="a_node20"><a xlink:href="british_captain_full.html" xlink:title="Captain">
<ellipse fill="none" stroke="magenta" cx="706.19" cy="-217.213" rx="38.1938" ry="18"/>
<text text-anchor="middle" x="706.19" y="-213.513" font-family="Times,serif" font-size="14.00" fill="#ebc72d">Captain</text>
</a>
</g>
</g>
<!-- artillery_foundry&#45;&gt;captain -->
<g id="edge3" class="edge"><title>artillery_foundry&#45;&gt;captain</title>
<path fill="none" stroke="#ebc72d" d="M652.923,-297.148C664.082,-280.612 678.397,-259.399 689.377,-243.128"/>
<polygon fill="#ebc72d" stroke="#ebc72d" points="692.399,-244.906 695.092,-234.659 686.597,-240.99 692.399,-244.906"/>
</g>
<!-- puckle -->
<g id="node25" class="node"><title>puckle</title>
<g id="a_node25"><a xlink:href="british_puckle_full.html" xlink:title="Puckle">
<polygon fill="none" stroke="green" points="649.702,-235.213 569.349,-235.213 548.678,-199.213 629.031,-199.213 649.702,-235.213"/>
<text text-anchor="middle" x="599.19" y="-213.513" font-family="Times,serif" font-size="14.00" fill="#ebc72d">Puckle</text>
</a>
</g>
</g>
<!-- artillery_foundry&#45;&gt;puckle -->
<g id="edge5" class="edge"><title>artillery_foundry&#45;&gt;puckle</title>
<path fill="none" stroke="#ebc72d" d="M626.199,-297.148C620.766,-281.271 613.858,-261.082 608.389,-245.097"/>
<polygon fill="#ebc72d" stroke="#ebc72d" points="611.581,-243.615 605.032,-235.287 604.958,-245.881 611.581,-243.615"/>
</g>
<!-- saberman -->
<g id="node14" class="node"><title>saberman</title>
<g id="a_node14"><a xlink:href="british_saberman_full.html" xlink:title="Saberman">
<ellipse fill="none" stroke="magenta" cx="1406.19" cy="-324.426" rx="46.2923" ry="18"/>
<text text-anchor="middle" x="1406.19" y="-320.726" font-family="Times,serif" font-size="14.00" fill="#ebc72d">Saberman</text>
</a>
</g>
</g>
<!-- saberman&#45;&gt;mortar -->
<g id="edge40" class="edge"><title>saberman&#45;&gt;mortar</title>
<path fill="none" stroke="#ebc72d" stroke-dasharray="5,2" d="M1386.73,-308.105C1376.59,-300.719 1363.72,-292.227 1351.19,-286.426 1315.43,-269.875 1209.73,-242.739 1150.54,-228.182"/>
<polygon fill="#ebc72d" stroke="#ebc72d" points="1151.3,-224.765 1140.75,-225.786 1149.64,-231.564 1151.3,-224.765"/>
</g>
<!-- puckle_gun -->
<g id="node19" class="node"><title>puckle_gun</title>
<g id="a_node19"><a xlink:href="british_puckle_gun_full.html" xlink:title="Puckle\nGun">
<ellipse fill="none" stroke="magenta" cx="929.19" cy="-110" rx="37.4533" ry="26.7407"/>
<text text-anchor="middle" x="929.19" y="-113.8" font-family="Times,serif" font-size="14.00" fill="#ebc72d">Puckle</text>
<text text-anchor="middle" x="929.19" y="-98.8" font-family="Times,serif" font-size="14.00" fill="#ebc72d">Gun</text>
</a>
</g>
</g>
<!-- saberman&#45;&gt;puckle_gun -->
<g id="edge41" class="edge"><title>saberman&#45;&gt;puckle_gun</title>
<path fill="none" stroke="#ebc72d" stroke-dasharray="5,2" d="M1384.87,-308.267C1374.82,-301.336 1362.57,-293.183 1351.19,-286.426 1266.34,-236.044 1245.21,-222.119 1154.19,-184 1093.14,-158.432 1019.78,-136.123 973.804,-123.104"/>
<polygon fill="#ebc72d" stroke="#ebc72d" points="974.716,-119.725 964.142,-120.39 972.824,-126.464 974.716,-119.725"/>
</g>
<!-- rabid_sheep -->
<g id="node17" class="node"><title>rabid_sheep</title>
<g id="a_node17"><a xlink:href="british_rabid_sheep_full.html" xlink:title="Rabid\nSheep">
<ellipse fill="none" stroke="magenta" cx="241.19" cy="-324.426" rx="35.2113" ry="26.7407"/>
<text text-anchor="middle" x="241.19" y="-328.226" font-family="Times,serif" font-size="14.00" fill="#ebc72d">Rabid</text>
<text text-anchor="middle" x="241.19" y="-313.226" font-family="Times,serif" font-size="14.00" fill="#ebc72d">Sheep</text>
</a>
</g>
</g>
<!-- camp&#45;&gt;cavalry -->
<g id="edge10" class="edge"><title>camp&#45;&gt;cavalry</title>
<path fill="none" stroke="#ebc72d" d="M968.821,-418.338C925.428,-402.548 864.612,-371.565 880.19,-325.426"/>
</g>
<!-- camp&#45;&gt;infantryman -->
<g id="edge11" class="edge"><title>camp&#45;&gt;infantryman</title>
<path fill="none" stroke="#ebc72d" d="M1026.19,-416.885C1047.92,-399.293 1085.84,-368.605 1111.71,-347.671"/>
<polygon fill="#ebc72d" stroke="#ebc72d" points="1114.07,-350.257 1119.64,-341.246 1109.67,-344.816 1114.07,-350.257"/>
</g>
<!-- camp&#45;&gt;nurse -->
<g id="edge12" class="edge"><title>camp&#45;&gt;nurse</title>
<path fill="none" stroke="#ebc72d" d="M1049.57,-427.538C1146.23,-419.641 1388.29,-396.922 1461.19,-362.426 1468.46,-358.987 1475.37,-353.829 1481.37,-348.449"/>
<polygon fill="#ebc72d" stroke="#ebc72d" points="1484.19,-350.585 1488.94,-341.114 1479.32,-345.557 1484.19,-350.585"/>
</g>
<!-- camp&#45;&gt;saberman -->
<g id="edge13" class="edge"><title>camp&#45;&gt;saberman</title>
<path fill="none" stroke="#ebc72d" d="M1049.39,-427.768C1114.87,-421.975 1247.65,-405.537 1351.19,-362.426 1360.65,-358.487 1370.19,-352.81 1378.6,-347.082"/>
<polygon fill="#ebc72d" stroke="#ebc72d" points="1380.79,-349.816 1386.91,-341.164 1376.73,-344.114 1380.79,-349.816"/>
</g>
<!-- camp&#45;&gt;cannon -->
<g id="edge9" class="edge"><title>camp&#45;&gt;cannon</title>
<path fill="none" stroke="#ebc72d" stroke-dasharray="1,5" d="M968.874,-419.789C937.423,-409.527 894.47,-391.325 866.19,-362.426 848.984,-344.844 824.026,-281.241 810.593,-244.642"/>
<polygon fill="#ebc72d" stroke="#ebc72d" points="813.83,-243.3 807.126,-235.096 807.25,-245.69 813.83,-243.3"/>
</g>
<!-- training_field -->
<g id="node23" class="node"><title>training_field</title>
<g id="a_node23"><a xlink:href="british_training_field_full.html" xlink:title="Training\nField">
<polygon fill="none" stroke="green" points="1342.32,-362.426 1238.71,-362.426 1212.06,-286.426 1315.67,-286.426 1342.32,-362.426"/>
<text text-anchor="middle" x="1277.19" y="-328.226" font-family="Times,serif" font-size="14.00" fill="#ebc72d">Training</text>
<text text-anchor="middle" x="1277.19" y="-313.226" font-family="Times,serif" font-size="14.00" fill="#ebc72d">Field</text>
</a>
</g>
</g>
<!-- camp&#45;&gt;training_field -->
<g id="edge14" class="edge"><title>camp&#45;&gt;training_field</title>
<path fill="none" stroke="#ebc72d" d="M1049.5,-418.102C1089.14,-405.395 1151.09,-384.509 1203.19,-362.426 1210.01,-359.536 1217.08,-356.309 1224.03,-352.999"/>
<polygon fill="#ebc72d" stroke="#ebc72d" points="1225.93,-355.969 1233.4,-348.456 1222.87,-349.671 1225.93,-355.969"/>
</g>
<!-- farm_house&#45;&gt;livestock -->
<g id="edge23" class="edge"><title>farm_house&#45;&gt;livestock</title>
<path fill="none" stroke="#ebc72d" d="M444.473,-404.361C421.047,-386.629 390.517,-363.52 368.552,-346.894"/>
<polygon fill="#ebc72d" stroke="#ebc72d" points="370.38,-343.888 360.294,-340.644 366.155,-349.47 370.38,-343.888"/>
</g>
<!-- farm_house&#45;&gt;rabid_sheep -->
<g id="edge24" class="edge"><title>farm_house&#45;&gt;rabid_sheep</title>
<path fill="none" stroke="#ebc72d" d="M434.386,-419.596C394.01,-408.551 333.849,-389.332 286.19,-362.426 280.999,-359.496 275.813,-355.954 270.905,-352.237"/>
<polygon fill="#ebc72d" stroke="#ebc72d" points="272.955,-349.395 262.955,-345.893 268.589,-354.866 272.955,-349.395"/>
</g>
<!-- farm_house&#45;&gt;wagon_worker -->
<g id="edge26" class="edge"><title>farm_house&#45;&gt;wagon_worker</title>
<path fill="none" stroke="#ebc72d" stroke-dasharray="1,5" d="M512.516,-404.482C533.218,-384.955 555.346,-356.391 552.19,-325.426"/>
<path fill="none" stroke="#ebc72d" stroke-dasharray="1,5" d="M552.19,-323.426C549.338,-295.441 532.648,-268.317 517.164,-248.62"/>
<polygon fill="#ebc72d" stroke="#ebc72d" points="519.687,-246.176 510.646,-240.652 514.269,-250.608 519.687,-246.176"/>
</g>
<!-- stables -->
<g id="node29" class="node"><title>stables</title>
<g id="a_node29"><a xlink:href="british_stables_full.html" xlink:title="Stables">
<polygon fill="none" stroke="green" points="814.42,-342.426 729.743,-342.426 707.96,-306.426 792.637,-306.426 814.42,-342.426"/>
<text text-anchor="middle" x="761.19" y="-320.726" font-family="Times,serif" font-size="14.00" fill="#ebc72d">Stables</text>
</a>
</g>
</g>
<!-- farm_house&#45;&gt;stables -->
<g id="edge25" class="edge"><title>farm_house&#45;&gt;stables</title>
<path fill="none" stroke="#ebc72d" d="M524.001,-404.518C528.71,-402.276 533.493,-400.194 538.19,-398.426 606.816,-372.606 631.071,-389.556 699.19,-362.426 708.972,-358.531 719.01,-353.208 728.083,-347.814"/>
<polygon fill="#ebc72d" stroke="#ebc72d" points="730.113,-350.674 736.788,-342.446 726.439,-344.715 730.113,-350.674"/>
</g>
<!-- imperialism&#45;&gt;air_box -->
<g id="edge30" class="edge"><title>imperialism&#45;&gt;air_box</title>
<path fill="none" stroke="#ebc72d" stroke-dasharray="1,5" d="M1023.92,-306.372C1039.51,-299.56 1058.01,-292.022 1075.19,-286.426 1160.1,-258.769 1262.42,-237.309 1319.71,-226.322"/>
<polygon fill="#ebc72d" stroke="#ebc72d" points="1320.7,-229.697 1329.87,-224.394 1319.39,-222.82 1320.7,-229.697"/>
</g>
<!-- imperialism&#45;&gt;grenadier -->
<g id="edge31" class="edge"><title>imperialism&#45;&gt;grenadier</title>
<path fill="none" stroke="#ebc72d" stroke-dasharray="1,5" d="M989.006,-306.053C990.728,-289.582 993.342,-264.585 995.341,-245.463"/>
<polygon fill="#ebc72d" stroke="#ebc72d" points="998.848,-245.574 996.407,-235.264 991.886,-244.846 998.848,-245.574"/>
</g>
<!-- imperialism&#45;&gt;mortar -->
<g id="edge32" class="edge"><title>imperialism&#45;&gt;mortar</title>
<path fill="none" stroke="#ebc72d" stroke-dasharray="1,5" d="M1007.06,-306.288C1028.08,-288.161 1061.29,-259.519 1084.1,-239.848"/>
<polygon fill="#ebc72d" stroke="#ebc72d" points="1086.41,-242.478 1091.7,-233.296 1081.84,-237.177 1086.41,-242.478"/>
</g>
<!-- puckle&#45;&gt;puckle_gun -->
<g id="edge39" class="edge"><title>puckle&#45;&gt;puckle_gun</title>
<path fill="none" stroke="#ebc72d" stroke-dasharray="1,5" d="M627.846,-199.106C637.568,-193.771 648.643,-188.193 659.19,-184 735.282,-153.75 828.283,-131.677 882.9,-120.134"/>
<polygon fill="#ebc72d" stroke="#ebc72d" points="883.892,-123.503 892.967,-118.034 882.463,-116.65 883.892,-123.503"/>
</g>
<!-- heated_air&#45;&gt;balloon -->
<g id="edge29" class="edge"><title>heated_air&#45;&gt;balloon</title>
<path fill="none" stroke="#ebc72d" stroke-dasharray="1,5" d="M203.452,-71.8739C199.129,-62.8253 194.596,-53.3382 190.583,-44.9382"/>
<polygon fill="#ebc72d" stroke="#ebc72d" points="193.623,-43.1823 186.154,-35.6681 187.307,-46.2 193.623,-43.1823"/>
</g>
<!-- gun_powder&#45;&gt;lookout_tower -->
<g id="edge28" class="edge"><title>gun_powder&#45;&gt;lookout_tower</title>
<path fill="none" stroke="#ebc72d" stroke-dasharray="1,5" d="M404.853,-290.273C401.297,-288.849 397.727,-287.551 394.19,-286.426 275.876,-248.822 235.757,-287.227 117.19,-250.426 109.931,-248.173 102.5,-245.127 95.4052,-241.804"/>
<polygon fill="#ebc72d" stroke="#ebc72d" points="96.5015,-238.441 85.9859,-237.148 93.3994,-244.717 96.5015,-238.441"/>
</g>
<!-- stables&#45;&gt;cavalry -->
<g id="edge43" class="edge"><title>stables&#45;&gt;cavalry</title>
<path fill="none" stroke="#ebc72d" stroke-dasharray="1,5" d="M783.181,-306.288C806.675,-287.978 843.937,-258.937 869.194,-239.252"/>
<polygon fill="#ebc72d" stroke="#ebc72d" points="871.526,-241.873 877.262,-232.965 867.223,-236.351 871.526,-241.873"/>
</g>
<!-- stables&#45;&gt;captain -->
<g id="edge42" class="edge"><title>stables&#45;&gt;captain</title>
<path fill="none" stroke="#ebc72d" stroke-dasharray="1,5" d="M752.108,-306.053C743.245,-289.099 729.66,-263.11 719.563,-243.795"/>
<polygon fill="#ebc72d" stroke="#ebc72d" points="722.656,-242.158 714.922,-234.917 716.453,-245.401 722.656,-242.158"/>
</g>
</g>
</svg>
