<?xml version="1.0" encoding="UTF-8" standalone="no"?>
<!DOCTYPE svg PUBLIC "-//W3C//DTD SVG 1.1//EN"
 "http://www.w3.org/Graphics/SVG/1.1/DTD/svg11.dtd">
<!-- Generated by graphviz version 2.38.0 (20140413.2041)
 -->
<!-- Title: test Pages: 1 -->
<svg width="1574pt" height="339pt"
 viewBox="0.00 0.00 1574.19 338.59" xmlns="http://www.w3.org/2000/svg" xmlns:xlink="http://www.w3.org/1999/xlink">
<g id="graph0" class="graph" transform="scale(1 1) rotate(0) translate(4 334.593)">
<title>test</title>
<polygon fill="#151515" stroke="none" points="-4,4 -4,-334.593 1570.19,-334.593 1570.19,4 -4,4"/>
<!-- cavalry -->
<g id="node1" class="node"><title>cavalry</title>
<g id="a_node1"><a xlink:href="british_cavalry_full.html" xlink:title="Cavalry">
<ellipse fill="none" stroke="magenta" cx="462.19" cy="-122.953" rx="38.1938" ry="18"/>
<text text-anchor="middle" x="462.19" y="-119.253" font-family="Times,serif" font-size="14.00" fill="#ebc72d">Cavalry</text>
</a>
</g>
</g>
<!-- grenader -->
<g id="node2" class="node"><title>grenader</title>
<g id="a_node2"><a xlink:href="british_grenader_full.html" xlink:title="Grenader">
<ellipse fill="none" stroke="magenta" cx="881.19" cy="-122.953" rx="43.5923" ry="18"/>
<text text-anchor="middle" x="881.19" y="-119.253" font-family="Times,serif" font-size="14.00" fill="#ebc72d">Grenader</text>
</a>
</g>
</g>
<!-- colonist -->
<g id="node3" class="node"><title>colonist</title>
<g id="a_node3"><a xlink:href="british_colonist_full.html" xlink:title="Colonist">
<ellipse fill="none" stroke="magenta" cx="977.19" cy="-312.593" rx="40.0939" ry="18"/>
<text text-anchor="middle" x="977.19" y="-308.893" font-family="Times,serif" font-size="14.00" fill="#ebc72d">Colonist</text>
</a>
</g>
</g>
<!-- powder_house -->
<g id="node6" class="node"><title>powder_house</title>
<g id="a_node6"><a xlink:href="british_powder_house_full.html" xlink:title="Powder\nHouse">
<polygon fill="none" stroke="red" points="361.078,-235.71 310.19,-258.808 259.302,-235.71 259.349,-198.336 361.031,-198.336 361.078,-235.71"/>
<text text-anchor="middle" x="310.19" y="-229.18" font-family="Times,serif" font-size="14.00" fill="#ebc72d">Powder</text>
<text text-anchor="middle" x="310.19" y="-214.18" font-family="Times,serif" font-size="14.00" fill="#ebc72d">House</text>
</a>
</g>
</g>
<!-- colonist&#45;&gt;powder_house -->
<g id="edge21" class="edge"><title>colonist&#45;&gt;powder_house</title>
<path fill="none" stroke="#ebc72d" stroke-width="2" d="M938.934,-306.705C828.186,-292.557 506.612,-251.474 371.313,-234.189"/>
<polygon fill="#ebc72d" stroke="#ebc72d" stroke-width="2" points="371.488,-230.683 361.125,-232.887 370.6,-237.626 371.488,-230.683"/>
</g>
<!-- balloon_base -->
<g id="node7" class="node"><title>balloon_base</title>
<g id="a_node7"><a xlink:href="british_balloon_base_full.html" xlink:title="Balloon\nBase">
<polygon fill="none" stroke="red" points="1028.83,-235.71 977.19,-258.808 925.554,-235.71 925.602,-198.336 1028.78,-198.336 1028.83,-235.71"/>
<text text-anchor="middle" x="977.19" y="-229.18" font-family="Times,serif" font-size="14.00" fill="#ebc72d">Balloon</text>
<text text-anchor="middle" x="977.19" y="-214.18" font-family="Times,serif" font-size="14.00" fill="#ebc72d">Base</text>
</a>
</g>
</g>
<!-- colonist&#45;&gt;balloon_base -->
<g id="edge15" class="edge"><title>colonist&#45;&gt;balloon_base</title>
<path fill="none" stroke="#ebc72d" stroke-width="2" d="M977.19,-294.349C977.19,-286.929 977.19,-277.895 977.19,-268.868"/>
<polygon fill="#ebc72d" stroke="#ebc72d" stroke-width="2" points="980.69,-268.766 977.19,-258.766 973.69,-268.766 980.69,-268.766"/>
</g>
<!-- artillery_foundry -->
<g id="node12" class="node"><title>artillery_foundry</title>
<g id="a_node12"><a xlink:href="british_artillery_foundry_full.html" xlink:title="Artillery\nFoundry">
<polygon fill="none" stroke="red" points="907.318,-235.71 852.19,-258.808 797.062,-235.71 797.113,-198.336 907.267,-198.336 907.318,-235.71"/>
<text text-anchor="middle" x="852.19" y="-229.18" font-family="Times,serif" font-size="14.00" fill="#ebc72d">Artillery</text>
<text text-anchor="middle" x="852.19" y="-214.18" font-family="Times,serif" font-size="14.00" fill="#ebc72d">Foundry</text>
</a>
</g>
</g>
<!-- colonist&#45;&gt;artillery_foundry -->
<g id="edge14" class="edge"><title>colonist&#45;&gt;artillery_foundry</title>
<path fill="none" stroke="#ebc72d" stroke-width="2" d="M955.985,-297.138C938.03,-284.897 911.844,-267.046 890.266,-252.336"/>
<polygon fill="#ebc72d" stroke="#ebc72d" stroke-width="2" points="892.181,-249.406 881.947,-246.665 888.238,-255.19 892.181,-249.406"/>
</g>
<!-- lookout_tower -->
<g id="node13" class="node"><title>lookout_tower</title>
<g id="a_node13"><a xlink:href="british_lookout_tower_full.html" xlink:title="Lookout\nTower">
<polygon fill="none" stroke="red" points="108.571,-133.283 54.19,-156.381 -0.190655,-133.283 -0.139898,-95.9097 108.52,-95.9097 108.571,-133.283"/>
<text text-anchor="middle" x="54.19" y="-126.753" font-family="Times,serif" font-size="14.00" fill="#ebc72d">Lookout</text>
<text text-anchor="middle" x="54.19" y="-111.753" font-family="Times,serif" font-size="14.00" fill="#ebc72d">Tower</text>
</a>
</g>
</g>
<!-- colonist&#45;&gt;lookout_tower -->
<g id="edge20" class="edge"><title>colonist&#45;&gt;lookout_tower</title>
<path fill="none" stroke="#ebc72d" stroke-width="2" d="M936.634,-311.411C803.101,-310.383 378.415,-303.567 250.19,-258.593 185.361,-235.855 121.993,-185.784 85.5813,-153.524"/>
<polygon fill="#ebc72d" stroke="#ebc72d" stroke-width="2" points="87.5721,-150.608 77.7934,-146.53 82.8948,-155.816 87.5721,-150.608"/>
</g>
<!-- fort -->
<g id="node15" class="node"><title>fort</title>
<g id="a_node15"><a xlink:href="british_fort_full.html" xlink:title="Fort">
<polygon fill="none" stroke="red" points="1147.35,-230.942 1116.19,-243.38 1085.03,-230.942 1085.06,-210.817 1147.32,-210.817 1147.35,-230.942"/>
<text text-anchor="middle" x="1116.19" y="-221.68" font-family="Times,serif" font-size="14.00" fill="#ebc72d">Fort</text>
</a>
</g>
</g>
<!-- colonist&#45;&gt;fort -->
<g id="edge19" class="edge"><title>colonist&#45;&gt;fort</title>
<path fill="none" stroke="#ebc72d" stroke-width="2" d="M1011.37,-293.478C1029.43,-283.618 1051.82,-270.939 1071.19,-258.593 1078.48,-253.946 1086.21,-248.585 1093.16,-243.586"/>
<polygon fill="#ebc72d" stroke="#ebc72d" stroke-width="2" points="1009.48,-290.52 1002.36,-298.361 1012.82,-296.675 1009.48,-290.52"/>
<polygon fill="#ebc72d" stroke="#ebc72d" stroke-width="2" points="1095.45,-246.25 1101.47,-237.53 1091.33,-240.594 1095.45,-246.25"/>
</g>
<!-- wagon_worker -->
<g id="node18" class="node"><title>wagon_worker</title>
<g id="a_node18"><a xlink:href="british_wagon_worker_full.html" xlink:title="Wagon\nWorker">
<ellipse fill="none" stroke="magenta" cx="1079.19" cy="-122.953" rx="41.9398" ry="26.7407"/>
<text text-anchor="middle" x="1079.19" y="-126.753" font-family="Times,serif" font-size="14.00" fill="#ebc72d">Wagon</text>
<text text-anchor="middle" x="1079.19" y="-111.753" font-family="Times,serif" font-size="14.00" fill="#ebc72d">Worker</text>
</a>
</g>
</g>
<!-- colonist&#45;&gt;wagon_worker -->
<g id="edge22" class="edge"><title>colonist&#45;&gt;wagon_worker</title>
<path fill="none" stroke="#ebc72d" stroke-dasharray="5,2" d="M999.166,-297.269C1012.21,-287.734 1028.11,-274.128 1038.19,-258.593 1057.79,-228.379 1068.41,-188.322 1073.9,-159.774"/>
<polygon fill="#ebc72d" stroke="#ebc72d" points="1077.36,-160.279 1075.69,-149.817 1070.47,-159.037 1077.36,-160.279"/>
</g>
<!-- field_hospital -->
<g id="node19" class="node"><title>field_hospital</title>
<g id="a_node19"><a xlink:href="british_field_hospital_full.html" xlink:title="Field\nHospital">
<polygon fill="none" stroke="red" points="1274.57,-235.71 1220.19,-258.808 1165.81,-235.71 1165.86,-198.336 1274.52,-198.336 1274.57,-235.71"/>
<text text-anchor="middle" x="1220.19" y="-229.18" font-family="Times,serif" font-size="14.00" fill="#ebc72d">Field</text>
<text text-anchor="middle" x="1220.19" y="-214.18" font-family="Times,serif" font-size="14.00" fill="#ebc72d">Hospital</text>
</a>
</g>
</g>
<!-- colonist&#45;&gt;field_hospital -->
<g id="edge18" class="edge"><title>colonist&#45;&gt;field_hospital</title>
<path fill="none" stroke="#ebc72d" stroke-width="2" d="M1011.79,-303.308C1048.3,-294.114 1107.22,-277.985 1156.19,-258.593 1163.11,-255.853 1170.29,-252.636 1177.23,-249.312"/>
<polygon fill="#ebc72d" stroke="#ebc72d" stroke-width="2" points="1179.07,-252.307 1186.5,-244.751 1175.98,-246.026 1179.07,-252.307"/>
</g>
<!-- camp -->
<g id="node24" class="node"><title>camp</title>
<g id="a_node24"><a xlink:href="british_camp_full.html" xlink:title="Camp">
<polygon fill="none" stroke="red" points="667.528,-230.942 627.19,-243.38 586.852,-230.942 586.89,-210.817 667.49,-210.817 667.528,-230.942"/>
<text text-anchor="middle" x="627.19" y="-221.68" font-family="Times,serif" font-size="14.00" fill="#ebc72d">Camp</text>
</a>
</g>
</g>
<!-- colonist&#45;&gt;camp -->
<g id="edge16" class="edge"><title>colonist&#45;&gt;camp</title>
<path fill="none" stroke="#ebc72d" stroke-width="2" d="M942.673,-303.189C877.744,-287.381 737.722,-253.291 668.148,-236.352"/>
<polygon fill="#ebc72d" stroke="#ebc72d" stroke-width="2" points="668.956,-232.946 658.412,-233.981 667.3,-239.748 668.956,-232.946"/>
</g>
<!-- farm_house -->
<g id="node25" class="node"><title>farm_house</title>
<g id="a_node25"><a xlink:href="british_farm_house_full.html" xlink:title="Farm\nHouse">
<polygon fill="none" stroke="red" points="1430.84,-235.71 1386.19,-258.808 1341.54,-235.71 1341.58,-198.336 1430.8,-198.336 1430.84,-235.71"/>
<text text-anchor="middle" x="1386.19" y="-229.18" font-family="Times,serif" font-size="14.00" fill="#ebc72d">Farm</text>
<text text-anchor="middle" x="1386.19" y="-214.18" font-family="Times,serif" font-size="14.00" fill="#ebc72d">House</text>
</a>
</g>
</g>
<!-- colonist&#45;&gt;farm_house -->
<g id="edge17" class="edge"><title>colonist&#45;&gt;farm_house</title>
<path fill="none" stroke="#ebc72d" stroke-width="2" d="M1025.74,-305.198C1086.43,-296.743 1193.28,-280.34 1283.19,-258.593 1301.46,-254.175 1321.22,-248.273 1338.51,-242.728"/>
<polygon fill="#ebc72d" stroke="#ebc72d" stroke-width="2" points="1025.11,-301.751 1015.69,-306.585 1026.07,-308.686 1025.11,-301.751"/>
<polygon fill="#ebc72d" stroke="#ebc72d" stroke-width="2" points="1339.94,-245.942 1348.37,-239.519 1337.78,-239.286 1339.94,-245.942"/>
</g>
<!-- captain_ -->
<g id="node4" class="node"><title>captain_</title>
<g id="a_node4"><a xlink:href="british_captain__full.html" xlink:title="Captain\n">
<ellipse fill="none" stroke="magenta" cx="202.19" cy="-122.953" rx="38.1938" ry="18"/>
<text text-anchor="middle" x="202.19" y="-119.253" font-family="Times,serif" font-size="14.00" fill="#ebc72d">Captain</text>
</a>
</g>
</g>
<!-- captain -->
<g id="node23" class="node"><title>captain</title>
<g id="a_node23"><a xlink:href="british_captain_full.html" xlink:title="Captain">
<ellipse fill="none" stroke="magenta" cx="202.19" cy="-26.8701" rx="38.1938" ry="18"/>
<text text-anchor="middle" x="202.19" y="-23.1701" font-family="Times,serif" font-size="14.00" fill="#ebc72d">Captain</text>
</a>
</g>
</g>
<!-- captain_&#45;&gt;captain -->
<g id="edge13" class="edge"><title>captain_&#45;&gt;captain</title>
<path fill="none" stroke="#ebc72d" stroke-dasharray="5,2" d="M202.19,-104.697C202.19,-90.9043 202.19,-71.3082 202.19,-55.3595"/>
<polygon fill="#ebc72d" stroke="#ebc72d" points="205.69,-55.0169 202.19,-45.017 198.69,-55.017 205.69,-55.0169"/>
</g>
<!-- balloon -->
<g id="node5" class="node"><title>balloon</title>
<g id="a_node5"><a xlink:href="british_balloon_full.html" xlink:title="Balloon">
<ellipse fill="none" stroke="magenta" cx="981.19" cy="-122.953" rx="38.1938" ry="18"/>
<text text-anchor="middle" x="981.19" y="-119.253" font-family="Times,serif" font-size="14.00" fill="#ebc72d">Balloon</text>
</a>
</g>
</g>
<!-- powder_house&#45;&gt;cavalry -->
<g id="edge34" class="edge"><title>powder_house&#45;&gt;cavalry</title>
<path fill="none" stroke="#ebc72d" stroke-dasharray="1,5" d="M350.981,-198.212C370.488,-185.614 394.125,-170.225 415.19,-156.167 421.05,-152.256 427.287,-148.028 433.238,-143.962"/>
<polygon fill="#ebc72d" stroke="#ebc72d" points="435.407,-146.718 441.674,-138.176 431.448,-140.945 435.407,-146.718"/>
</g>
<!-- powder_house&#45;&gt;captain_ -->
<g id="edge33" class="edge"><title>powder_house&#45;&gt;captain_</title>
<path fill="none" stroke="#ebc72d" stroke-dasharray="1,5" d="M282.096,-198.256C264.801,-182.174 242.86,-161.771 226.347,-146.416"/>
<polygon fill="#ebc72d" stroke="#ebc72d" points="228.427,-143.571 218.721,-139.325 223.66,-148.697 228.427,-143.571"/>
</g>
<!-- infantryman -->
<g id="node8" class="node"><title>infantryman</title>
<g id="a_node8"><a xlink:href="british_infantryman_full.html" xlink:title="Infantryman">
<ellipse fill="none" stroke="magenta" cx="351.19" cy="-122.953" rx="54.6905" ry="18"/>
<text text-anchor="middle" x="351.19" y="-119.253" font-family="Times,serif" font-size="14.00" fill="#ebc72d">Infantryman</text>
</a>
</g>
</g>
<!-- powder_house&#45;&gt;infantryman -->
<g id="edge35" class="edge"><title>powder_house&#45;&gt;infantryman</title>
<path fill="none" stroke="#ebc72d" stroke-dasharray="1,5" d="M320.855,-198.256C326.831,-183.618 334.269,-165.4 340.284,-150.667"/>
<polygon fill="#ebc72d" stroke="#ebc72d" points="343.646,-151.692 344.185,-141.111 337.165,-149.046 343.646,-151.692"/>
</g>
<!-- mortar -->
<g id="node9" class="node"><title>mortar</title>
<g id="a_node9"><a xlink:href="british_mortar_full.html" xlink:title="Mortar">
<ellipse fill="none" stroke="magenta" cx="742.19" cy="-26.8701" rx="35.9954" ry="18"/>
<text text-anchor="middle" x="742.19" y="-23.1701" font-family="Times,serif" font-size="14.00" fill="#ebc72d">Mortar</text>
</a>
</g>
</g>
<!-- powder_house&#45;&gt;mortar -->
<g id="edge37" class="edge"><title>powder_house&#45;&gt;mortar</title>
<path fill="none" stroke="#ebc72d" stroke-dasharray="1,5" d="M268.19,-121.953C275.874,-107.214 273.131,-98.6079 287.19,-89.7401 364.548,-40.945 609.94,-81.1763 697.19,-53.7401 702.563,-52.0506 707.994,-49.6441 713.136,-46.9713"/>
<polygon fill="#ebc72d" stroke="#ebc72d" points="715.011,-49.9319 722.002,-41.9703 711.572,-43.835 715.011,-49.9319"/>
</g>
<!-- powder_house&#45;&gt;lookout_tower -->
<g id="edge36" class="edge"><title>powder_house&#45;&gt;lookout_tower</title>
<path fill="none" stroke="#ebc72d" stroke-dasharray="1,5" d="M259.422,-207.415C221.304,-194.328 168.013,-175.283 122.19,-156.167 114.562,-152.984 106.55,-149.407 98.8109,-145.825"/>
<polygon fill="#ebc72d" stroke="#ebc72d" points="100.089,-142.558 89.5497,-141.479 97.1156,-148.895 100.089,-142.558"/>
</g>
<!-- cannon -->
<g id="node17" class="node"><title>cannon</title>
<g id="a_node17"><a xlink:href="british_cannon_full.html" xlink:title="Cannon">
<ellipse fill="none" stroke="magenta" cx="557.19" cy="-122.953" rx="38.1938" ry="18"/>
<text text-anchor="middle" x="557.19" y="-119.253" font-family="Times,serif" font-size="14.00" fill="#ebc72d">Cannon</text>
</a>
</g>
</g>
<!-- powder_house&#45;&gt;cannon -->
<g id="edge31" class="edge"><title>powder_house&#45;&gt;cannon</title>
<path fill="none" stroke="#ebc72d" stroke-dasharray="1,5" d="M361.125,-210.911C402.224,-199.11 460.935,-180.113 509.19,-156.167 515.989,-152.793 522.959,-148.601 529.407,-144.369"/>
<polygon fill="#ebc72d" stroke="#ebc72d" points="531.515,-147.168 537.81,-138.647 527.575,-141.383 531.515,-147.168"/>
</g>
<!-- puckle_gun -->
<g id="node20" class="node"><title>puckle_gun</title>
<g id="a_node20"><a xlink:href="british_puckle_gun_full.html" xlink:title="Puckle\nGun">
<ellipse fill="none" stroke="magenta" cx="651.19" cy="-26.8701" rx="37.4533" ry="26.7407"/>
<text text-anchor="middle" x="651.19" y="-30.6701" font-family="Times,serif" font-size="14.00" fill="#ebc72d">Puckle</text>
<text text-anchor="middle" x="651.19" y="-15.6701" font-family="Times,serif" font-size="14.00" fill="#ebc72d">Gun</text>
</a>
</g>
</g>
<!-- powder_house&#45;&gt;puckle_gun -->
<g id="edge38" class="edge"><title>powder_house&#45;&gt;puckle_gun</title>
<path fill="none" stroke="#ebc72d" stroke-dasharray="1,5" d="M286.526,-198.241C270.89,-177.644 255.436,-148.42 268.19,-123.953"/>
<path fill="none" stroke="#ebc72d" stroke-dasharray="1,5" d="M268.19,-121.953C275.874,-107.214 273.501,-99.1684 287.19,-89.7401 337.856,-54.8446 517.181,-37.4952 603.746,-30.9979"/>
<polygon fill="#ebc72d" stroke="#ebc72d" points="604.111,-34.4807 613.828,-30.2589 603.599,-27.4994 604.111,-34.4807"/>
</g>
<!-- powder_house&#45;&gt;captain -->
<g id="edge32" class="edge"><title>powder_house&#45;&gt;captain</title>
<path fill="none" stroke="#ebc72d" stroke-dasharray="1,5" d="M259.303,-216.735C223.517,-208.415 178.083,-191.254 155.19,-156.167 139.057,-131.441 145.768,-117.719 155.19,-89.7401 159.993,-75.4782 169.535,-61.8968 178.775,-51.1112"/>
<polygon fill="#ebc72d" stroke="#ebc72d" points="181.594,-53.2114 185.697,-43.4435 176.398,-48.5205 181.594,-53.2114"/>
</g>
<!-- balloon_base&#45;&gt;balloon -->
<g id="edge7" class="edge"><title>balloon_base&#45;&gt;balloon</title>
<path fill="none" stroke="#ebc72d" d="M978.23,-198.256C978.802,-183.899 979.511,-166.099 980.092,-151.521"/>
<polygon fill="#ebc72d" stroke="#ebc72d" points="983.606,-151.243 980.507,-141.111 976.611,-150.964 983.606,-151.243"/>
</g>
<!-- pig -->
<g id="node10" class="node"><title>pig</title>
<g id="a_node10"><a xlink:href="british_pig_full.html" xlink:title="Pig">
<ellipse fill="none" stroke="magenta" cx="1539.19" cy="-122.953" rx="27" ry="18"/>
<text text-anchor="middle" x="1539.19" y="-119.253" font-family="Times,serif" font-size="14.00" fill="#ebc72d">Pig</text>
</a>
</g>
</g>
<!-- nurse -->
<g id="node11" class="node"><title>nurse</title>
<g id="a_node11"><a xlink:href="british_nurse_full.html" xlink:title="Nurse">
<ellipse fill="none" stroke="magenta" cx="1216.19" cy="-122.953" rx="31.6951" ry="18"/>
<text text-anchor="middle" x="1216.19" y="-119.253" font-family="Times,serif" font-size="14.00" fill="#ebc72d">Nurse</text>
</a>
</g>
</g>
<!-- artillery_foundry&#45;&gt;grenader -->
<g id="edge4" class="edge"><title>artillery_foundry&#45;&gt;grenader</title>
<path fill="none" stroke="#ebc72d" d="M859.734,-198.256C863.92,-183.759 869.12,-165.75 873.353,-151.093"/>
<polygon fill="#ebc72d" stroke="#ebc72d" points="876.824,-151.69 876.235,-141.111 870.098,-149.748 876.824,-151.69"/>
</g>
<!-- artillery_foundry&#45;&gt;balloon -->
<g id="edge1" class="edge"><title>artillery_foundry&#45;&gt;balloon</title>
<path fill="none" stroke="#ebc72d" stroke-dasharray="1,5" d="M885.746,-198.256C907.041,-181.678 934.233,-160.509 954.141,-145.011"/>
<polygon fill="#ebc72d" stroke="#ebc72d" points="956.448,-147.65 962.189,-138.745 952.148,-142.127 956.448,-147.65"/>
</g>
<!-- artillery_foundry&#45;&gt;cannon -->
<g id="edge2" class="edge"><title>artillery_foundry&#45;&gt;cannon</title>
<path fill="none" stroke="#ebc72d" d="M797.11,-213.561C746.843,-202.615 671.166,-183.409 609.19,-156.167 601.534,-152.801 593.668,-148.458 586.445,-144.057"/>
<polygon fill="#ebc72d" stroke="#ebc72d" points="588.025,-140.915 577.704,-138.521 584.279,-146.829 588.025,-140.915"/>
</g>
<!-- artillery_foundry&#45;&gt;wagon_worker -->
<g id="edge6" class="edge"><title>artillery_foundry&#45;&gt;wagon_worker</title>
<path fill="none" stroke="#ebc72d" stroke-dasharray="1,5" d="M902.157,-198.307C906.857,-196.135 911.585,-194.052 916.19,-192.167 964.577,-172.353 980.821,-178.304 1028.19,-156.167 1033.11,-153.866 1038.13,-151.176 1043.01,-148.347"/>
<polygon fill="#ebc72d" stroke="#ebc72d" points="1044.84,-151.332 1051.59,-143.162 1041.22,-145.342 1044.84,-151.332"/>
</g>
<!-- artillery_foundry&#45;&gt;puckle_gun -->
<g id="edge5" class="edge"><title>artillery_foundry&#45;&gt;puckle_gun</title>
<path fill="none" stroke="#ebc72d" stroke-dasharray="1,5" d="M837.027,-198.252C819.316,-169.288 787.857,-122.359 752.19,-89.7401 741.762,-80.2034 713.419,-63.0734 689.403,-49.2523"/>
<polygon fill="#ebc72d" stroke="#ebc72d" points="690.876,-46.0628 680.457,-44.14 687.403,-52.1404 690.876,-46.0628"/>
</g>
<!-- artillery_foundry&#45;&gt;captain -->
<g id="edge3" class="edge"><title>artillery_foundry&#45;&gt;captain</title>
<path fill="none" stroke="#ebc72d" d="M796.941,-217.636C751.235,-209.624 686.806,-192.439 642.19,-156.167 615.799,-134.711 632.224,-108.999 604.19,-89.7401 547.46,-50.767 344.021,-35.2727 250.204,-30.0987"/>
<polygon fill="#ebc72d" stroke="#ebc72d" points="250.302,-26.599 240.129,-29.5597 249.928,-33.589 250.302,-26.599"/>
</g>
<!-- saberman -->
<g id="node14" class="node"><title>saberman</title>
<g id="a_node14"><a xlink:href="british_saberman_full.html" xlink:title="Saberman">
<ellipse fill="none" stroke="magenta" cx="697.19" cy="-122.953" rx="46.2923" ry="18"/>
<text text-anchor="middle" x="697.19" y="-119.253" font-family="Times,serif" font-size="14.00" fill="#ebc72d">Saberman</text>
</a>
</g>
</g>
<!-- saberman&#45;&gt;mortar -->
<g id="edge39" class="edge"><title>saberman&#45;&gt;mortar</title>
<path fill="none" stroke="#ebc72d" stroke-dasharray="5,2" d="M705.235,-105.133C712.082,-90.8177 722.026,-70.0271 729.875,-53.6178"/>
<polygon fill="#ebc72d" stroke="#ebc72d" points="733.057,-55.0761 734.215,-44.5446 726.742,-52.0556 733.057,-55.0761"/>
</g>
<!-- saberman&#45;&gt;puckle_gun -->
<g id="edge40" class="edge"><title>saberman&#45;&gt;puckle_gun</title>
<path fill="none" stroke="#ebc72d" stroke-dasharray="5,2" d="M688.966,-105.133C683.115,-93.1665 675.052,-76.675 667.877,-62.0005"/>
<polygon fill="#ebc72d" stroke="#ebc72d" points="670.86,-60.1318 663.323,-52.6855 664.571,-63.2065 670.86,-60.1318"/>
</g>
<!-- fort&#45;&gt;mortar -->
<g id="edge30" class="edge"><title>fort&#45;&gt;mortar</title>
<path fill="none" stroke="#ebc72d" stroke-dasharray="1,5" d="M1123.46,-210.616C1136.48,-183.861 1159.78,-124.424 1130.19,-89.7401 1086.71,-38.7743 881.517,-29.5947 788.377,-28.0823"/>
<polygon fill="#ebc72d" stroke="#ebc72d" points="788.171,-24.5792 778.123,-27.9396 788.073,-31.5785 788.171,-24.5792"/>
</g>
<!-- stone_tax -->
<g id="node16" class="node"><title>stone_tax</title>
<g id="a_node16"><a xlink:href="british_stone_tax_full.html" xlink:title="Stone\nTax">
<ellipse fill="none" stroke="magenta" cx="1299.19" cy="-122.953" rx="33.4697" ry="26.7407"/>
<text text-anchor="middle" x="1299.19" y="-126.753" font-family="Times,serif" font-size="14.00" fill="#ebc72d">Stone</text>
<text text-anchor="middle" x="1299.19" y="-111.753" font-family="Times,serif" font-size="14.00" fill="#ebc72d">Tax</text>
</a>
</g>
</g>
<!-- field_hospital&#45;&gt;nurse -->
<g id="edge28" class="edge"><title>field_hospital&#45;&gt;nurse</title>
<path fill="none" stroke="#ebc72d" d="M1219.15,-198.256C1218.58,-183.899 1217.87,-166.099 1217.29,-151.521"/>
<polygon fill="#ebc72d" stroke="#ebc72d" points="1220.77,-150.964 1216.87,-141.111 1213.77,-151.243 1220.77,-150.964"/>
</g>
<!-- wood_tax -->
<g id="node21" class="node"><title>wood_tax</title>
<g id="a_node21"><a xlink:href="british_wood_tax_full.html" xlink:title="Wood\nTax">
<ellipse fill="none" stroke="magenta" cx="1386.19" cy="-122.953" rx="35.2113" ry="26.7407"/>
<text text-anchor="middle" x="1386.19" y="-126.753" font-family="Times,serif" font-size="14.00" fill="#ebc72d">Wood</text>
<text text-anchor="middle" x="1386.19" y="-111.753" font-family="Times,serif" font-size="14.00" fill="#ebc72d">Tax</text>
</a>
</g>
</g>
<!-- cow -->
<g id="node22" class="node"><title>cow</title>
<g id="a_node22"><a xlink:href="british_cow_full.html" xlink:title="Cow">
<ellipse fill="none" stroke="magenta" cx="1467.19" cy="-122.953" rx="27.0966" ry="18"/>
<text text-anchor="middle" x="1467.19" y="-119.253" font-family="Times,serif" font-size="14.00" fill="#ebc72d">Cow</text>
</a>
</g>
</g>
<!-- camp&#45;&gt;cavalry -->
<g id="edge9" class="edge"><title>camp&#45;&gt;cavalry</title>
<path fill="none" stroke="#ebc72d" d="M602.722,-210.712C578.864,-197.246 541.676,-175.883 510.19,-156.167 504.132,-152.373 497.73,-148.197 491.644,-144.145"/>
<polygon fill="#ebc72d" stroke="#ebc72d" points="493.282,-141.029 483.03,-138.356 489.378,-146.839 493.282,-141.029"/>
</g>
<!-- camp&#45;&gt;infantryman -->
<g id="edge10" class="edge"><title>camp&#45;&gt;infantryman</title>
<path fill="none" stroke="#ebc72d" d="M586.672,-213.372C543.509,-201.179 473.508,-180.057 415.19,-156.167 405.963,-152.387 396.24,-147.816 387.236,-143.32"/>
<polygon fill="#ebc72d" stroke="#ebc72d" points="388.663,-140.119 378.164,-138.698 385.485,-146.356 388.663,-140.119"/>
</g>
<!-- camp&#45;&gt;mortar -->
<g id="edge11" class="edge"><title>camp&#45;&gt;mortar</title>
<path fill="none" stroke="#ebc72d" stroke-dasharray="1,5" d="M667.599,-214.214C696.741,-204.537 734.02,-186.781 752.19,-156.167 770.693,-124.991 761.721,-81.7899 752.671,-54.3344"/>
<polygon fill="#ebc72d" stroke="#ebc72d" points="755.88,-52.9094 749.256,-44.6407 749.278,-55.2355 755.88,-52.9094"/>
</g>
<!-- camp&#45;&gt;saberman -->
<g id="edge12" class="edge"><title>camp&#45;&gt;saberman</title>
<path fill="none" stroke="#ebc72d" d="M636.923,-210.416C647.999,-194.525 666.305,-168.263 679.84,-148.845"/>
<polygon fill="#ebc72d" stroke="#ebc72d" points="682.833,-150.672 685.68,-140.466 677.09,-146.669 682.833,-150.672"/>
</g>
<!-- camp&#45;&gt;cannon -->
<g id="edge8" class="edge"><title>camp&#45;&gt;cannon</title>
<path fill="none" stroke="#ebc72d" stroke-dasharray="1,5" d="M617.457,-210.416C606.381,-194.525 588.075,-168.263 574.54,-148.845"/>
<polygon fill="#ebc72d" stroke="#ebc72d" points="577.29,-146.669 568.7,-140.466 571.547,-150.672 577.29,-146.669"/>
</g>
<!-- farm_house&#45;&gt;pig -->
<g id="edge25" class="edge"><title>farm_house&#45;&gt;pig</title>
<path fill="none" stroke="#ebc72d" d="M1430.85,-201.133C1453.24,-188.79 1480.37,-172.764 1503.19,-156.167 1507.77,-152.836 1512.43,-149.023 1516.82,-145.212"/>
<polygon fill="#ebc72d" stroke="#ebc72d" points="1519.24,-147.745 1524.35,-138.462 1514.57,-142.534 1519.24,-147.745"/>
</g>
<!-- farm_house&#45;&gt;stone_tax -->
<g id="edge26" class="edge"><title>farm_house&#45;&gt;stone_tax</title>
<path fill="none" stroke="#ebc72d" d="M1363.56,-198.256C1351.58,-184.428 1336.83,-167.405 1324.48,-153.144"/>
<polygon fill="#ebc72d" stroke="#ebc72d" points="1327.09,-150.809 1317.89,-145.543 1321.8,-155.393 1327.09,-150.809"/>
</g>
<!-- farm_house&#45;&gt;wood_tax -->
<g id="edge27" class="edge"><title>farm_house&#45;&gt;wood_tax</title>
<path fill="none" stroke="#ebc72d" d="M1386.19,-198.256C1386.19,-186.633 1386.19,-172.752 1386.19,-160.152"/>
<polygon fill="#ebc72d" stroke="#ebc72d" points="1389.69,-159.946 1386.19,-149.946 1382.69,-159.946 1389.69,-159.946"/>
</g>
<!-- farm_house&#45;&gt;cow -->
<g id="edge24" class="edge"><title>farm_house&#45;&gt;cow</title>
<path fill="none" stroke="#ebc72d" d="M1407.26,-198.256C1420,-182.466 1436.09,-162.512 1448.39,-147.259"/>
<polygon fill="#ebc72d" stroke="#ebc72d" points="1451.24,-149.306 1454.79,-139.325 1445.79,-144.911 1451.24,-149.306"/>
</g>
</g>
</svg>
