<?xml version="1.0" encoding="UTF-8" standalone="no"?>
<!DOCTYPE svg PUBLIC "-//W3C//DTD SVG 1.1//EN"
 "http://www.w3.org/Graphics/SVG/1.1/DTD/svg11.dtd">
<!-- Generated by graphviz version 2.38.0 (20140413.2041)
 -->
<!-- Title: test Pages: 1 -->
<svg width="2393pt" height="572pt"
 viewBox="0.00 0.00 2392.84 572.17" xmlns="http://www.w3.org/2000/svg" xmlns:xlink="http://www.w3.org/1999/xlink">
<g id="graph0" class="graph" transform="scale(1 1) rotate(0) translate(4 568.167)">
<title>test</title>
<polygon fill="#151515" stroke="none" points="-4,4 -4,-568.167 2388.84,-568.167 2388.84,4 -4,4"/>
<!-- warrior_monk -->
<g id="node1" class="node"><title>warrior_monk</title>
<g id="a_node1"><a xlink:href="japanese_warrior_monk_full.html" xlink:title="Warrior\nMonk">
<ellipse fill="none" stroke="magenta" cx="201.499" cy="-351.74" rx="42.3529" ry="26.7407"/>
<text text-anchor="middle" x="201.499" y="-355.54" font-family="Times,serif" font-size="14.00" fill="#ebc72d">Warrior</text>
<text text-anchor="middle" x="201.499" y="-340.54" font-family="Times,serif" font-size="14.00" fill="#ebc72d">Monk</text>
</a>
</g>
</g>
<!-- blacksmith -->
<g id="node2" class="node"><title>blacksmith</title>
<g id="a_node2"><a xlink:href="japanese_blacksmith_full.html" xlink:title="Blacksmith">
<polygon fill="none" stroke="red" points="1862.93,-464.516 1799.5,-476.953 1736.07,-464.516 1736.13,-444.391 1862.87,-444.391 1862.93,-464.516"/>
<text text-anchor="middle" x="1799.5" y="-455.253" font-family="Times,serif" font-size="14.00" fill="#ebc72d">Blacksmith</text>
</a>
</g>
</g>
<!-- arquebus -->
<g id="node29" class="node"><title>arquebus</title>
<g id="a_node29"><a xlink:href="japanese_arquebus_full.html" xlink:title="Arquebus">
<polygon fill="none" stroke="green" points="1864.01,-257.74 1759.8,-257.74 1732.99,-221.74 1837.2,-221.74 1864.01,-257.74"/>
<text text-anchor="middle" x="1798.5" y="-236.04" font-family="Times,serif" font-size="14.00" fill="#ebc72d">Arquebus</text>
</a>
</g>
</g>
<!-- blacksmith&#45;&gt;arquebus -->
<g id="edge14" class="edge"><title>blacksmith&#45;&gt;arquebus</title>
<path fill="none" stroke="#ebc72d" d="M1779.98,-444.271C1764.36,-432.025 1743.62,-412.521 1734.5,-389.74 1721.95,-358.38 1722.6,-345.354 1734.5,-313.74 1741.55,-295.015 1755.82,-277.96 1769.1,-265.052"/>
<polygon fill="#ebc72d" stroke="#ebc72d" points="1771.8,-267.321 1776.74,-257.95 1767.03,-262.192 1771.8,-267.321"/>
</g>
<!-- blade_weapons -->
<g id="node33" class="node"><title>blade_weapons</title>
<g id="a_node33"><a xlink:href="japanese_blade_weapons_full.html" xlink:title="Blade\nWeapons">
<polygon fill="none" stroke="green" points="2174,-389.74 2061.85,-389.74 2033,-313.74 2145.15,-313.74 2174,-389.74"/>
<text text-anchor="middle" x="2103.5" y="-355.54" font-family="Times,serif" font-size="14.00" fill="#ebc72d">Blade</text>
<text text-anchor="middle" x="2103.5" y="-340.54" font-family="Times,serif" font-size="14.00" fill="#ebc72d">Weapons</text>
</a>
</g>
</g>
<!-- blacksmith&#45;&gt;blade_weapons -->
<g id="edge16" class="edge"><title>blacksmith&#45;&gt;blade_weapons</title>
<path fill="none" stroke="#ebc72d" d="M1826.71,-444.322C1839.98,-438.051 1856.32,-430.881 1871.5,-425.74 1937.25,-403.465 1957.89,-412.426 2023.5,-389.74 2031.21,-387.074 2039.18,-383.913 2046.97,-380.58"/>
<polygon fill="#ebc72d" stroke="#ebc72d" points="2048.6,-383.684 2056.34,-376.45 2045.78,-377.278 2048.6,-383.684"/>
</g>
<!-- ashigarudou -->
<g id="node34" class="node"><title>ashigarudou</title>
<g id="a_node34"><a xlink:href="japanese_ashigarudou_full.html" xlink:title="Ashigarudou">
<polygon fill="none" stroke="green" points="2355.4,-369.74 2225.11,-369.74 2191.59,-333.74 2321.89,-333.74 2355.4,-369.74"/>
<text text-anchor="middle" x="2273.5" y="-348.04" font-family="Times,serif" font-size="14.00" fill="#ebc72d">Ashigarudou</text>
</a>
</g>
</g>
<!-- blacksmith&#45;&gt;ashigarudou -->
<g id="edge15" class="edge"><title>blacksmith&#45;&gt;ashigarudou</title>
<path fill="none" stroke="#ebc72d" d="M1824.79,-444.351C1838.28,-437.687 1855.39,-430.164 1871.5,-425.74 2005.68,-388.898 2047.7,-424.261 2182.5,-389.74 2197.95,-385.783 2214.25,-379.78 2228.73,-373.753"/>
<polygon fill="#ebc72d" stroke="#ebc72d" points="2230.13,-376.961 2237.95,-369.811 2227.38,-370.525 2230.13,-376.961"/>
</g>
<!-- gusoku -->
<g id="node36" class="node"><title>gusoku</title>
<g id="a_node36"><a xlink:href="japanese_gusoku_full.html" xlink:title="Gusoku">
<polygon fill="none" stroke="green" points="1855.95,-369.74 1766.15,-369.74 1743.05,-333.74 1832.85,-333.74 1855.95,-369.74"/>
<text text-anchor="middle" x="1799.5" y="-348.04" font-family="Times,serif" font-size="14.00" fill="#ebc72d">Gusoku</text>
</a>
</g>
</g>
<!-- blacksmith&#45;&gt;gusoku -->
<g id="edge17" class="edge"><title>blacksmith&#45;&gt;gusoku</title>
<path fill="none" stroke="#ebc72d" d="M1799.5,-444.199C1799.5,-427.976 1799.5,-400.617 1799.5,-380.04"/>
<polygon fill="#ebc72d" stroke="#ebc72d" points="1803,-379.992 1799.5,-369.992 1796,-379.992 1803,-379.992"/>
</g>
<!-- piercing_weapons -->
<g id="node41" class="node"><title>piercing_weapons</title>
<g id="a_node41"><a xlink:href="japanese_piercing_weapons_full.html" xlink:title="Piercing\nWeapons">
<polygon fill="none" stroke="green" points="2015,-389.74 1902.85,-389.74 1874,-313.74 1986.15,-313.74 2015,-389.74"/>
<text text-anchor="middle" x="1944.5" y="-355.54" font-family="Times,serif" font-size="14.00" fill="#ebc72d">Piercing</text>
<text text-anchor="middle" x="1944.5" y="-340.54" font-family="Times,serif" font-size="14.00" fill="#ebc72d">Weapons</text>
</a>
</g>
</g>
<!-- blacksmith&#45;&gt;piercing_weapons -->
<g id="edge18" class="edge"><title>blacksmith&#45;&gt;piercing_weapons</title>
<path fill="none" stroke="#ebc72d" d="M1818.46,-444.199C1837.16,-430.628 1866.6,-409.263 1892.33,-390.595"/>
<polygon fill="#ebc72d" stroke="#ebc72d" points="1894.49,-393.348 1900.53,-384.642 1890.38,-387.682 1894.49,-393.348"/>
</g>
<!-- dojo -->
<g id="node3" class="node"><title>dojo</title>
<g id="a_node3"><a xlink:href="japanese_dojo_full.html" xlink:title="Dojo">
<polygon fill="none" stroke="red" points="493.697,-464.516 458.499,-476.953 423.302,-464.516 423.335,-444.391 493.664,-444.391 493.697,-464.516"/>
<text text-anchor="middle" x="458.499" y="-455.253" font-family="Times,serif" font-size="14.00" fill="#ebc72d">Dojo</text>
</a>
</g>
</g>
<!-- samurai -->
<g id="node8" class="node"><title>samurai</title>
<g id="a_node8"><a xlink:href="japanese_samurai_full.html" xlink:title="Samurai">
<ellipse fill="none" stroke="magenta" cx="568.499" cy="-127.74" rx="40.0939" ry="18"/>
<text text-anchor="middle" x="568.499" y="-124.04" font-family="Times,serif" font-size="14.00" fill="#ebc72d">Samurai</text>
</a>
</g>
</g>
<!-- dojo&#45;&gt;samurai -->
<g id="edge31" class="edge"><title>dojo&#45;&gt;samurai</title>
<path fill="none" stroke="#ebc72d" d="M440.162,-444.316C425.217,-431.962 405.212,-412.28 396.499,-389.74 366.373,-311.805 350.38,-271.415 396.499,-201.74 423.652,-160.719 478.992,-142.681 519.596,-134.792"/>
<polygon fill="#ebc72d" stroke="#ebc72d" points="520.353,-138.212 529.576,-132.997 519.114,-131.323 520.353,-138.212"/>
</g>
<!-- swordsman -->
<g id="node23" class="node"><title>swordsman</title>
<g id="a_node23"><a xlink:href="japanese_swordsman_full.html" xlink:title="Swordsman">
<ellipse fill="none" stroke="magenta" cx="458.499" cy="-351.74" rx="52.7911" ry="18"/>
<text text-anchor="middle" x="458.499" y="-348.04" font-family="Times,serif" font-size="14.00" fill="#ebc72d">Swordsman</text>
</a>
</g>
</g>
<!-- dojo&#45;&gt;swordsman -->
<g id="edge32" class="edge"><title>dojo&#45;&gt;swordsman</title>
<path fill="none" stroke="#ebc72d" d="M458.499,-444.199C458.499,-427.976 458.499,-400.617 458.499,-380.04"/>
<polygon fill="#ebc72d" stroke="#ebc72d" points="461.999,-379.992 458.499,-369.992 454.999,-379.992 461.999,-379.992"/>
</g>
<!-- taketaba_gunner -->
<g id="node4" class="node"><title>taketaba_gunner</title>
<g id="a_node4"><a xlink:href="japanese_taketaba_gunner_full.html" xlink:title="Taketaba\nGunner">
<ellipse fill="none" stroke="magenta" cx="1248.5" cy="-26.8701" rx="46.8387" ry="26.7407"/>
<text text-anchor="middle" x="1248.5" y="-30.6701" font-family="Times,serif" font-size="14.00" fill="#ebc72d">Taketaba</text>
<text text-anchor="middle" x="1248.5" y="-15.6701" font-family="Times,serif" font-size="14.00" fill="#ebc72d">Gunner</text>
</a>
</g>
</g>
<!-- worker -->
<g id="node5" class="node"><title>worker</title>
<g id="a_node5"><a xlink:href="japanese_worker_full.html" xlink:title="Worker">
<ellipse fill="none" stroke="magenta" cx="914.499" cy="-546.167" rx="38.1938" ry="18"/>
<text text-anchor="middle" x="914.499" y="-542.467" font-family="Times,serif" font-size="14.00" fill="#ebc72d">Worker</text>
</a>
</g>
</g>
<!-- worker&#45;&gt;blacksmith -->
<g id="edge50" class="edge"><title>worker&#45;&gt;blacksmith</title>
<path fill="none" stroke="#ebc72d" stroke-width="2" d="M952.868,-545.541C1066.6,-546.013 1411.43,-542.838 1691.5,-492.167 1714.23,-488.054 1738.96,-480.884 1759.02,-474.351"/>
<polygon fill="#ebc72d" stroke="#ebc72d" stroke-width="2" points="1760.37,-477.591 1768.75,-471.112 1758.16,-470.949 1760.37,-477.591"/>
</g>
<!-- worker&#45;&gt;dojo -->
<g id="edge54" class="edge"><title>worker&#45;&gt;dojo</title>
<path fill="none" stroke="#ebc72d" stroke-width="2" d="M876.391,-543.907C805.759,-540.715 650.343,-529.665 525.499,-492.167 511.844,-488.065 497.498,-481.505 485.6,-475.372"/>
<polygon fill="#ebc72d" stroke="#ebc72d" stroke-width="2" points="487.114,-472.213 476.643,-470.6 483.823,-478.391 487.114,-472.213"/>
</g>
<!-- european_trader -->
<g id="node7" class="node"><title>european_trader</title>
<g id="a_node7"><a xlink:href="japanese_european_trader_full.html" xlink:title="European\nTrader">
<polygon fill="none" stroke="red" points="888.868,-250.07 829.499,-273.168 770.131,-250.07 770.186,-212.696 888.812,-212.696 888.868,-250.07"/>
<text text-anchor="middle" x="829.499" y="-243.54" font-family="Times,serif" font-size="14.00" fill="#ebc72d">European</text>
<text text-anchor="middle" x="829.499" y="-228.54" font-family="Times,serif" font-size="14.00" fill="#ebc72d">Trader</text>
</a>
</g>
</g>
<!-- worker&#45;&gt;european_trader -->
<g id="edge55" class="edge"><title>worker&#45;&gt;european_trader</title>
<path fill="none" stroke="#ebc72d" stroke-width="2" d="M908.313,-528.076C898.147,-499.624 877.624,-440.639 863.499,-389.74 853.376,-353.262 843.976,-311.162 837.637,-281.038"/>
<polygon fill="#ebc72d" stroke="#ebc72d" stroke-width="2" points="840.993,-279.987 835.526,-270.911 834.14,-281.415 840.993,-279.987"/>
</g>
<!-- farmhouse -->
<g id="node9" class="node"><title>farmhouse</title>
<g id="a_node9"><a xlink:href="japanese_farmhouse_full.html" xlink:title="Farmhouse">
<polygon fill="none" stroke="red" points="753.219,-464.516 691.499,-476.953 629.779,-464.516 629.837,-444.391 753.161,-444.391 753.219,-464.516"/>
<text text-anchor="middle" x="691.499" y="-455.253" font-family="Times,serif" font-size="14.00" fill="#ebc72d">Farmhouse</text>
</a>
</g>
</g>
<!-- worker&#45;&gt;farmhouse -->
<g id="edge56" class="edge"><title>worker&#45;&gt;farmhouse</title>
<path fill="none" stroke="#ebc72d" stroke-width="2" d="M885.802,-534.201C846.213,-519.073 774.717,-491.753 730.366,-474.805"/>
<polygon fill="#ebc72d" stroke="#ebc72d" stroke-width="2" points="731.385,-471.448 720.794,-471.148 728.886,-477.987 731.385,-471.448"/>
</g>
<!-- ikki_mob -->
<g id="node12" class="node"><title>ikki_mob</title>
<g id="a_node12"><a xlink:href="japanese_ikki_mob_full.html" xlink:title="Ikki\nMob">
<ellipse fill="none" stroke="magenta" cx="435.499" cy="-239.74" rx="30.3115" ry="26.7407"/>
<text text-anchor="middle" x="435.499" y="-243.54" font-family="Times,serif" font-size="14.00" fill="#ebc72d">Ikki</text>
<text text-anchor="middle" x="435.499" y="-228.54" font-family="Times,serif" font-size="14.00" fill="#ebc72d">Mob</text>
</a>
</g>
</g>
<!-- worker&#45;&gt;ikki_mob -->
<g id="edge57" class="edge"><title>worker&#45;&gt;ikki_mob</title>
<path fill="none" stroke="#ebc72d" stroke-dasharray="5,2" d="M866.805,-541.333C794.078,-534.707 659.754,-519.162 620.499,-492.167 545.596,-440.656 576.409,-385.42 520.499,-313.74 505.386,-294.364 484.49,-276.334 467.199,-263.041"/>
<polygon fill="#ebc72d" stroke="#ebc72d" points="866.798,-544.846 877.069,-542.246 867.419,-537.874 866.798,-544.846"/>
<polygon fill="#ebc72d" stroke="#ebc72d" points="469.138,-260.12 459.041,-256.91 464.932,-265.716 469.138,-260.12"/>
</g>
<!-- yagura -->
<g id="node15" class="node"><title>yagura</title>
<g id="a_node15"><a xlink:href="japanese_yagura_full.html" xlink:title="Yagura">
<polygon fill="none" stroke="red" points="1972.48,-245.302 1927.5,-257.74 1882.52,-245.302 1882.56,-225.178 1972.44,-225.178 1972.48,-245.302"/>
<text text-anchor="middle" x="1927.5" y="-236.04" font-family="Times,serif" font-size="14.00" fill="#ebc72d">Yagura</text>
</a>
</g>
</g>
<!-- worker&#45;&gt;yagura -->
<g id="edge59" class="edge"><title>worker&#45;&gt;yagura</title>
<path fill="none" stroke="#ebc72d" stroke-width="2" d="M1677.5,-457.953C1690.18,-390.21 1682.86,-359.387 1734.5,-313.74 1782.31,-271.474 1815.41,-304.173 1873.5,-277.74 1884,-272.96 1894.67,-266.15 1903.72,-259.673"/>
<polygon fill="#ebc72d" stroke="#ebc72d" stroke-width="2" points="1905.9,-262.415 1911.84,-253.643 1901.72,-256.795 1905.9,-262.415"/>
</g>
<!-- daimyo_yashiki -->
<g id="node16" class="node"><title>daimyo_yashiki</title>
<g id="a_node16"><a xlink:href="japanese_daimyo_yashiki_full.html" xlink:title="Daimyo\nYashiki">
<polygon fill="none" stroke="red" points="1095.63,-469.283 1042.5,-492.381 989.367,-469.283 989.416,-431.91 1095.58,-431.91 1095.63,-469.283"/>
<text text-anchor="middle" x="1042.5" y="-462.753" font-family="Times,serif" font-size="14.00" fill="#ebc72d">Daimyo</text>
<text text-anchor="middle" x="1042.5" y="-447.753" font-family="Times,serif" font-size="14.00" fill="#ebc72d">Yashiki</text>
</a>
</g>
</g>
<!-- worker&#45;&gt;daimyo_yashiki -->
<g id="edge53" class="edge"><title>worker&#45;&gt;daimyo_yashiki</title>
<path fill="none" stroke="#ebc72d" stroke-width="2" d="M935.636,-531.095C954.273,-518.688 981.885,-500.306 1004.37,-485.335"/>
<polygon fill="#ebc72d" stroke="#ebc72d" stroke-width="2" points="1006.33,-488.239 1012.71,-479.784 1002.45,-482.412 1006.33,-488.239"/>
</g>
<!-- watchtower -->
<g id="node18" class="node"><title>watchtower</title>
<g id="a_node18"><a xlink:href="japanese_watchtower_full.html" xlink:title="Watchtower">
<polygon fill="none" stroke="red" points="2014.36,-464.516 1947.5,-476.953 1880.64,-464.516 1880.7,-444.391 2014.3,-444.391 2014.36,-464.516"/>
<text text-anchor="middle" x="1947.5" y="-455.253" font-family="Times,serif" font-size="14.00" fill="#ebc72d">Watchtower</text>
</a>
</g>
</g>
<!-- worker&#45;&gt;watchtower -->
<g id="edge58" class="edge"><title>worker&#45;&gt;watchtower</title>
<path fill="none" stroke="#ebc72d" stroke-width="2" d="M952.964,-544.8C1108.66,-543.045 1692.29,-533.771 1871.5,-492.167 1886.1,-488.776 1901.46,-482.778 1914.52,-476.869"/>
<polygon fill="#ebc72d" stroke="#ebc72d" stroke-width="2" points="1916.01,-480.036 1923.58,-472.621 1913.04,-473.698 1916.01,-480.036"/>
</g>
<!-- barrack -->
<g id="node21" class="node"><title>barrack</title>
<g id="a_node21"><a xlink:href="japanese_barrack_full.html" xlink:title="Barrack">
<polygon fill="none" stroke="red" points="1316.8,-357.302 1269.5,-369.74 1222.2,-357.302 1222.25,-337.178 1316.75,-337.178 1316.8,-357.302"/>
<text text-anchor="middle" x="1269.5" y="-348.04" font-family="Times,serif" font-size="14.00" fill="#ebc72d">Barrack</text>
</a>
</g>
</g>
<!-- worker&#45;&gt;barrack -->
<g id="edge49" class="edge"><title>worker&#45;&gt;barrack</title>
<path fill="none" stroke="#ebc72d" stroke-width="2" d="M952.885,-544.88C1105.8,-543.239 1663.96,-532.297 1677.5,-459.953"/>
<path fill="none" stroke="#ebc72d" stroke-width="2" d="M1677.5,-457.953C1692.12,-379.85 1400.18,-419.497 1326.5,-389.74 1315.11,-385.14 1303.55,-378.16 1293.85,-371.499"/>
<polygon fill="#ebc72d" stroke="#ebc72d" stroke-width="2" points="1295.7,-368.513 1285.52,-365.547 1291.63,-374.208 1295.7,-368.513"/>
</g>
<!-- buddhist_temple -->
<g id="node22" class="node"><title>buddhist_temple</title>
<g id="a_node22"><a xlink:href="japanese_buddhist_temple_full.html" xlink:title="Buddhist\nTemple">
<polygon fill="none" stroke="red" points="310.124,-469.283 253.499,-492.381 196.874,-469.283 196.927,-431.91 310.071,-431.91 310.124,-469.283"/>
<text text-anchor="middle" x="253.499" y="-462.753" font-family="Times,serif" font-size="14.00" fill="#ebc72d">Buddhist</text>
<text text-anchor="middle" x="253.499" y="-447.753" font-family="Times,serif" font-size="14.00" fill="#ebc72d">Temple</text>
</a>
</g>
</g>
<!-- worker&#45;&gt;buddhist_temple -->
<g id="edge51" class="edge"><title>worker&#45;&gt;buddhist_temple</title>
<path fill="none" stroke="#ebc72d" stroke-width="2" d="M876.713,-542.354C793.1,-535.87 586.219,-518.39 414.499,-492.167 381.461,-487.121 344.914,-479.94 315.003,-473.638"/>
<polygon fill="#ebc72d" stroke="#ebc72d" stroke-width="2" points="315.637,-470.195 305.128,-471.539 314.182,-477.042 315.637,-470.195"/>
</g>
<!-- castle -->
<g id="node26" class="node"><title>castle</title>
<g id="a_node26"><a xlink:href="japanese_castle_full.html" xlink:title="Castle">
<polygon fill="none" stroke="red" points="2112.84,-464.516 2072.5,-476.953 2032.16,-464.516 2032.2,-444.391 2112.8,-444.391 2112.84,-464.516"/>
<text text-anchor="middle" x="2072.5" y="-455.253" font-family="Times,serif" font-size="14.00" fill="#ebc72d">Castle</text>
</a>
</g>
</g>
<!-- worker&#45;&gt;castle -->
<g id="edge52" class="edge"><title>worker&#45;&gt;castle</title>
<path fill="none" stroke="#ebc72d" stroke-width="2" d="M963.197,-544.352C1163.99,-540.787 1921.87,-525.243 2023.5,-492.167 2032.64,-489.19 2041.71,-484.025 2049.51,-478.692"/>
<polygon fill="#ebc72d" stroke="#ebc72d" stroke-width="2" points="962.898,-540.856 952.961,-544.532 963.021,-547.855 962.898,-540.856"/>
<polygon fill="#ebc72d" stroke="#ebc72d" stroke-width="2" points="2051.7,-481.426 2057.72,-472.706 2047.58,-475.77 2051.7,-481.426"/>
</g>
<!-- teppo_ashigaru -->
<g id="node6" class="node"><title>teppo_ashigaru</title>
<g id="a_node6"><a xlink:href="japanese_teppo_ashigaru_full.html" xlink:title="Teppo\nAshigaru">
<ellipse fill="none" stroke="magenta" cx="1410.5" cy="-127.74" rx="46.8387" ry="26.7407"/>
<text text-anchor="middle" x="1410.5" y="-131.54" font-family="Times,serif" font-size="14.00" fill="#ebc72d">Teppo</text>
<text text-anchor="middle" x="1410.5" y="-116.54" font-family="Times,serif" font-size="14.00" fill="#ebc72d">Ashigaru</text>
</a>
</g>
</g>
<!-- teppo_ashigaru&#45;&gt;taketaba_gunner -->
<g id="edge47" class="edge"><title>teppo_ashigaru&#45;&gt;taketaba_gunner</title>
<path fill="none" stroke="#ebc72d" stroke-dasharray="5,2" d="M1379.26,-107.677C1353.46,-91.9297 1316.66,-69.4693 1288.67,-52.3855"/>
<polygon fill="#ebc72d" stroke="#ebc72d" points="1290.27,-49.2651 1279.91,-47.0431 1286.63,-55.2402 1290.27,-49.2651"/>
</g>
<!-- cannon -->
<g id="node13" class="node"><title>cannon</title>
<g id="a_node13"><a xlink:href="japanese_cannon_full.html" xlink:title="Cannon">
<ellipse fill="none" stroke="magenta" cx="985.499" cy="-127.74" rx="38.1938" ry="18"/>
<text text-anchor="middle" x="985.499" y="-124.04" font-family="Times,serif" font-size="14.00" fill="#ebc72d">Cannon</text>
</a>
</g>
</g>
<!-- european_trader&#45;&gt;cannon -->
<g id="edge34" class="edge"><title>european_trader&#45;&gt;cannon</title>
<path fill="none" stroke="#ebc72d" d="M866.469,-212.672C894.033,-193.235 931.154,-167.06 956.57,-149.139"/>
<polygon fill="#ebc72d" stroke="#ebc72d" points="958.882,-151.792 965.037,-143.168 954.848,-146.071 958.882,-151.792"/>
</g>
<!-- anatomische_tabellen -->
<g id="node42" class="node"><title>anatomische_tabellen</title>
<g id="a_node42"><a xlink:href="japanese_anatomische_tabellen_full.html" xlink:title="Anatomische\nTabellen">
<polygon fill="none" stroke="green" points="921.542,-165.74 775.123,-165.74 737.457,-89.7401 883.876,-89.7401 921.542,-165.74"/>
<text text-anchor="middle" x="829.499" y="-131.54" font-family="Times,serif" font-size="14.00" fill="#ebc72d">Anatomische</text>
<text text-anchor="middle" x="829.499" y="-116.54" font-family="Times,serif" font-size="14.00" fill="#ebc72d">Tabellen</text>
</a>
</g>
</g>
<!-- european_trader&#45;&gt;anatomische_tabellen -->
<g id="edge33" class="edge"><title>european_trader&#45;&gt;anatomische_tabellen</title>
<path fill="none" stroke="#ebc72d" d="M829.499,-212.672C829.499,-201.752 829.499,-188.705 829.499,-176.19"/>
<polygon fill="#ebc72d" stroke="#ebc72d" points="832.999,-175.861 829.499,-165.861 825.999,-175.861 832.999,-175.861"/>
</g>
<!-- peasant -->
<g id="node27" class="node"><title>peasant</title>
<g id="a_node27"><a xlink:href="japanese_peasant_full.html" xlink:title="Peasant">
<ellipse fill="none" stroke="magenta" cx="605.499" cy="-351.74" rx="37.8943" ry="18"/>
<text text-anchor="middle" x="605.499" y="-348.04" font-family="Times,serif" font-size="14.00" fill="#ebc72d">Peasant</text>
</a>
</g>
</g>
<!-- farmhouse&#45;&gt;peasant -->
<g id="edge35" class="edge"><title>farmhouse&#45;&gt;peasant</title>
<path fill="none" stroke="#ebc72d" d="M680.256,-444.199C666.269,-427.086 642.151,-397.581 625.097,-376.716"/>
<polygon fill="#ebc72d" stroke="#ebc72d" points="627.758,-374.441 618.719,-368.913 622.338,-378.871 627.758,-374.441"/>
</g>
<!-- nagae_ashigaru -->
<g id="node10" class="node"><title>nagae_ashigaru</title>
<g id="a_node10"><a xlink:href="japanese_nagae_ashigaru_full.html" xlink:title="Nagae\nAshigaru">
<ellipse fill="none" stroke="magenta" cx="568.499" cy="-239.74" rx="46.8387" ry="26.7407"/>
<text text-anchor="middle" x="568.499" y="-243.54" font-family="Times,serif" font-size="14.00" fill="#ebc72d">Nagae</text>
<text text-anchor="middle" x="568.499" y="-228.54" font-family="Times,serif" font-size="14.00" fill="#ebc72d">Ashigaru</text>
</a>
</g>
</g>
<!-- nagae_ashigaru&#45;&gt;samurai -->
<g id="edge37" class="edge"><title>nagae_ashigaru&#45;&gt;samurai</title>
<path fill="none" stroke="#ebc72d" stroke-dasharray="5,2" d="M568.499,-212.672C568.499,-195.625 568.499,-173.395 568.499,-156.096"/>
<polygon fill="#ebc72d" stroke="#ebc72d" points="571.999,-156.052 568.499,-146.052 564.999,-156.052 571.999,-156.052"/>
</g>
<!-- yagura_gun -->
<g id="node11" class="node"><title>yagura_gun</title>
<g id="a_node11"><a xlink:href="japanese_yagura_gun_full.html" xlink:title="Yagura\nGun">
<polygon fill="none" stroke="red" points="1911.39,-138.07 1862.5,-161.168 1813.61,-138.07 1813.65,-100.696 1911.35,-100.696 1911.39,-138.07"/>
<text text-anchor="middle" x="1862.5" y="-131.54" font-family="Times,serif" font-size="14.00" fill="#ebc72d">Yagura</text>
<text text-anchor="middle" x="1862.5" y="-116.54" font-family="Times,serif" font-size="14.00" fill="#ebc72d">Gun</text>
</a>
</g>
</g>
<!-- tsubute -->
<g id="node14" class="node"><title>tsubute</title>
<g id="a_node14"><a xlink:href="japanese_tsubute_full.html" xlink:title="Tsubute">
<ellipse fill="none" stroke="magenta" cx="1489.5" cy="-239.74" rx="38.9931" ry="18"/>
<text text-anchor="middle" x="1489.5" y="-236.04" font-family="Times,serif" font-size="14.00" fill="#ebc72d">Tsubute</text>
</a>
</g>
</g>
<!-- yagura&#45;&gt;yagura_gun -->
<g id="edge60" class="edge"><title>yagura&#45;&gt;yagura_gun</title>
<path fill="none" stroke="#ebc72d" stroke-dasharray="5,2" d="M1919.27,-224.809C1910.12,-209.33 1895.02,-183.768 1882.69,-162.902"/>
<polygon fill="#ebc72d" stroke="#ebc72d" points="1885.7,-161.118 1877.6,-154.29 1879.67,-164.679 1885.7,-161.118"/>
</g>
<!-- standard_bearer -->
<g id="node28" class="node"><title>standard_bearer</title>
<g id="a_node28"><a xlink:href="japanese_standard_bearer_full.html" xlink:title="Standard\nBearer">
<ellipse fill="none" stroke="magenta" cx="1236.5" cy="-239.74" rx="45.9239" ry="26.7407"/>
<text text-anchor="middle" x="1236.5" y="-243.54" font-family="Times,serif" font-size="14.00" fill="#ebc72d">Standard</text>
<text text-anchor="middle" x="1236.5" y="-228.54" font-family="Times,serif" font-size="14.00" fill="#ebc72d">Bearer</text>
</a>
</g>
</g>
<!-- daimyo_yashiki&#45;&gt;standard_bearer -->
<g id="edge30" class="edge"><title>daimyo_yashiki&#45;&gt;standard_bearer</title>
<path fill="none" stroke="#ebc72d" stroke-dasharray="1,5" d="M1095.74,-440.754C1122.62,-429.782 1154,-413.156 1175.5,-389.74 1191.25,-372.588 1212.33,-314.649 1225.14,-276.279"/>
<polygon fill="#ebc72d" stroke="#ebc72d" points="1228.56,-277.098 1228.37,-266.505 1221.91,-274.904 1228.56,-277.098"/>
</g>
<!-- shadow_syndicate -->
<g id="node31" class="node"><title>shadow_syndicate</title>
<g id="a_node31"><a xlink:href="japanese_shadow_syndicate_full.html" xlink:title="Shadow\nSyndicate">
<polygon fill="none" stroke="green" points="1166.14,-389.74 1050.58,-389.74 1020.85,-313.74 1136.42,-313.74 1166.14,-389.74"/>
<text text-anchor="middle" x="1093.5" y="-355.54" font-family="Times,serif" font-size="14.00" fill="#ebc72d">Shadow</text>
<text text-anchor="middle" x="1093.5" y="-340.54" font-family="Times,serif" font-size="14.00" fill="#ebc72d">Syndicate</text>
</a>
</g>
</g>
<!-- daimyo_yashiki&#45;&gt;shadow_syndicate -->
<g id="edge28" class="edge"><title>daimyo_yashiki&#45;&gt;shadow_syndicate</title>
<path fill="none" stroke="#ebc72d" d="M1055.24,-431.675C1060.03,-421.784 1065.64,-410.221 1071.06,-399.042"/>
<polygon fill="#ebc72d" stroke="#ebc72d" points="1074.33,-400.313 1075.54,-389.788 1068.03,-397.26 1074.33,-400.313"/>
</g>
<!-- civil_ikki -->
<g id="node35" class="node"><title>civil_ikki</title>
<g id="a_node35"><a xlink:href="japanese_civil_ikki_full.html" xlink:title="Civil\nIkki">
<polygon fill="none" stroke="green" points="964.234,-389.74 891.48,-389.74 872.765,-313.74 945.518,-313.74 964.234,-389.74"/>
<text text-anchor="middle" x="918.499" y="-355.54" font-family="Times,serif" font-size="14.00" fill="#ebc72d">Civil</text>
<text text-anchor="middle" x="918.499" y="-340.54" font-family="Times,serif" font-size="14.00" fill="#ebc72d">Ikki</text>
</a>
</g>
</g>
<!-- daimyo_yashiki&#45;&gt;civil_ikki -->
<g id="edge26" class="edge"><title>daimyo_yashiki&#45;&gt;civil_ikki</title>
<path fill="none" stroke="#ebc72d" d="M1011.53,-431.675C998.939,-420.993 984.05,-408.36 969.917,-396.368"/>
<polygon fill="#ebc72d" stroke="#ebc72d" points="972.052,-393.589 962.162,-389.788 967.523,-398.927 972.052,-393.589"/>
</g>
<!-- nanban_trade -->
<g id="node37" class="node"><title>nanban_trade</title>
<g id="a_node37"><a xlink:href="japanese_nanban_trade_full.html" xlink:title="Nanban\nTrade">
<polygon fill="none" stroke="green" points="1457.84,-389.74 1360.26,-389.74 1335.16,-313.74 1432.74,-313.74 1457.84,-389.74"/>
<text text-anchor="middle" x="1396.5" y="-355.54" font-family="Times,serif" font-size="14.00" fill="#ebc72d">Nanban</text>
<text text-anchor="middle" x="1396.5" y="-340.54" font-family="Times,serif" font-size="14.00" fill="#ebc72d">Trade</text>
</a>
</g>
</g>
<!-- daimyo_yashiki&#45;&gt;nanban_trade -->
<g id="edge27" class="edge"><title>daimyo_yashiki&#45;&gt;nanban_trade</title>
<path fill="none" stroke="#ebc72d" d="M1095.81,-449.123C1153.57,-438.635 1247.88,-418.819 1325.5,-389.74 1332.39,-387.159 1339.47,-384.063 1346.36,-380.775"/>
<polygon fill="#ebc72d" stroke="#ebc72d" points="1348.19,-383.773 1355.61,-376.204 1345.09,-377.498 1348.19,-383.773"/>
</g>
<!-- advanced_architecture -->
<g id="node38" class="node"><title>advanced_architecture</title>
<g id="a_node38"><a xlink:href="japanese_advanced_architecture_full.html" xlink:title="Advanced\nArchitecture">
<polygon fill="none" stroke="green" points="1649.67,-389.74 1511,-389.74 1475.32,-313.74 1614,-313.74 1649.67,-389.74"/>
<text text-anchor="middle" x="1562.5" y="-355.54" font-family="Times,serif" font-size="14.00" fill="#ebc72d">Advanced</text>
<text text-anchor="middle" x="1562.5" y="-340.54" font-family="Times,serif" font-size="14.00" fill="#ebc72d">Architecture</text>
</a>
</g>
</g>
<!-- daimyo_yashiki&#45;&gt;advanced_architecture -->
<g id="edge24" class="edge"><title>daimyo_yashiki&#45;&gt;advanced_architecture</title>
<path fill="none" stroke="#ebc72d" d="M1095.8,-452.981C1176.9,-444.611 1335.67,-425.06 1466.5,-389.74 1476.01,-387.174 1485.87,-383.997 1495.49,-380.592"/>
<polygon fill="#ebc72d" stroke="#ebc72d" points="1496.82,-383.834 1505.02,-377.124 1494.43,-377.256 1496.82,-383.834"/>
</g>
<!-- siege_engineering -->
<g id="node39" class="node"><title>siege_engineering</title>
<g id="a_node39"><a xlink:href="japanese_siege_engineering_full.html" xlink:title="Siege\nEngineering">
<polygon fill="none" stroke="green" points="1078.6,-277.74 941.633,-277.74 906.398,-201.74 1043.37,-201.74 1078.6,-277.74"/>
<text text-anchor="middle" x="992.499" y="-243.54" font-family="Times,serif" font-size="14.00" fill="#ebc72d">Siege</text>
<text text-anchor="middle" x="992.499" y="-228.54" font-family="Times,serif" font-size="14.00" fill="#ebc72d">Engineering</text>
</a>
</g>
</g>
<!-- daimyo_yashiki&#45;&gt;siege_engineering -->
<g id="edge29" class="edge"><title>daimyo_yashiki&#45;&gt;siege_engineering</title>
<path fill="none" stroke="#ebc72d" d="M1028.37,-431.765C1022.26,-419.357 1015.59,-404.13 1011.5,-389.74 1002.04,-356.417 997.278,-317.557 994.89,-287.88"/>
<polygon fill="#ebc72d" stroke="#ebc72d" points="998.372,-287.502 994.14,-277.789 991.391,-288.021 998.372,-287.502"/>
</g>
<!-- bushido -->
<g id="node40" class="node"><title>bushido</title>
<g id="a_node40"><a xlink:href="japanese_bushido_full.html" xlink:title="Bushido">
<polygon fill="none" stroke="green" points="751.664,-257.74 657.546,-257.74 633.335,-221.74 727.452,-221.74 751.664,-257.74"/>
<text text-anchor="middle" x="692.499" y="-236.04" font-family="Times,serif" font-size="14.00" fill="#ebc72d">Bushido</text>
</a>
</g>
</g>
<!-- daimyo_yashiki&#45;&gt;bushido -->
<g id="edge25" class="edge"><title>daimyo_yashiki&#45;&gt;bushido</title>
<path fill="none" stroke="#ebc72d" d="M989.347,-443.136C952.503,-431.59 903.138,-413.524 863.499,-389.74 804.42,-354.292 746.217,-297.695 715.292,-265.418"/>
<polygon fill="#ebc72d" stroke="#ebc72d" points="717.816,-262.993 708.394,-258.148 712.738,-267.811 717.816,-262.993"/>
</g>
<!-- shinobi -->
<g id="node17" class="node"><title>shinobi</title>
<g id="a_node17"><a xlink:href="japanese_shinobi_full.html" xlink:title="Shinobi">
<ellipse fill="none" stroke="magenta" cx="1134.5" cy="-239.74" rx="38.1938" ry="18"/>
<text text-anchor="middle" x="1134.5" y="-236.04" font-family="Times,serif" font-size="14.00" fill="#ebc72d">Shinobi</text>
</a>
</g>
</g>
<!-- watchtower_gun -->
<g id="node25" class="node"><title>watchtower_gun</title>
<g id="a_node25"><a xlink:href="japanese_watchtower_gun_full.html" xlink:title="Watchtower\nGun">
<polygon fill="none" stroke="red" points="2297.09,-138.07 2224.5,-161.168 2151.91,-138.07 2151.98,-100.696 2297.02,-100.696 2297.09,-138.07"/>
<text text-anchor="middle" x="2224.5" y="-131.54" font-family="Times,serif" font-size="14.00" fill="#ebc72d">Watchtower</text>
<text text-anchor="middle" x="2224.5" y="-116.54" font-family="Times,serif" font-size="14.00" fill="#ebc72d">Gun</text>
</a>
</g>
</g>
<!-- watchtower&#45;&gt;watchtower_gun -->
<g id="edge48" class="edge"><title>watchtower&#45;&gt;watchtower_gun</title>
<path fill="none" stroke="#ebc72d" stroke-dasharray="5,2" d="M1974.26,-444.313C1988.52,-437.638 2006.57,-430.117 2023.5,-425.74 2097.27,-406.664 2313.53,-446.379 2364.5,-389.74 2429.35,-317.682 2322.75,-210.199 2262.06,-158.552"/>
<polygon fill="#ebc72d" stroke="#ebc72d" points="2264.09,-155.689 2254.18,-151.942 2259.59,-161.051 2264.09,-155.689"/>
</g>
<!-- medical_priest -->
<g id="node19" class="node"><title>medical_priest</title>
<g id="a_node19"><a xlink:href="japanese_medical_priest_full.html" xlink:title="Medical\nPriest">
<ellipse fill="none" stroke="magenta" cx="305.499" cy="-351.74" rx="43.6818" ry="26.7407"/>
<text text-anchor="middle" x="305.499" y="-355.54" font-family="Times,serif" font-size="14.00" fill="#ebc72d">Medical</text>
<text text-anchor="middle" x="305.499" y="-340.54" font-family="Times,serif" font-size="14.00" fill="#ebc72d">Priest</text>
</a>
</g>
</g>
<!-- taketaba_archer -->
<g id="node20" class="node"><title>taketaba_archer</title>
<g id="a_node20"><a xlink:href="japanese_taketaba_archer_full.html" xlink:title="Taketaba\nArcher">
<ellipse fill="none" stroke="magenta" cx="1253.5" cy="-127.74" rx="46.8387" ry="26.7407"/>
<text text-anchor="middle" x="1253.5" y="-131.54" font-family="Times,serif" font-size="14.00" fill="#ebc72d">Taketaba</text>
<text text-anchor="middle" x="1253.5" y="-116.54" font-family="Times,serif" font-size="14.00" fill="#ebc72d">Archer</text>
</a>
</g>
</g>
<!-- barrack&#45;&gt;teppo_ashigaru -->
<g id="edge10" class="edge"><title>barrack&#45;&gt;teppo_ashigaru</title>
<path fill="none" stroke="#ebc72d" d="M1289.13,-337.034C1299.93,-329.74 1313.71,-320.838 1326.5,-313.74 1359.53,-295.412 1382.47,-309.127 1403.5,-277.74 1425.87,-244.347 1423.69,-196.678 1418.5,-164.317"/>
<polygon fill="#ebc72d" stroke="#ebc72d" points="1421.93,-163.621 1416.74,-154.386 1415.04,-164.844 1421.93,-163.621"/>
</g>
<!-- barrack&#45;&gt;nagae_ashigaru -->
<g id="edge7" class="edge"><title>barrack&#45;&gt;nagae_ashigaru</title>
<path fill="none" stroke="#ebc72d" d="M1241.43,-337.036C1223.11,-328.768 1198.43,-318.871 1175.5,-313.74 936.01,-260.156 857.098,-355.999 624.499,-277.74 617.286,-275.313 610.108,-271.716 603.417,-267.704"/>
<polygon fill="#ebc72d" stroke="#ebc72d" points="604.94,-264.522 594.638,-262.047 601.148,-270.406 604.94,-264.522"/>
</g>
<!-- barrack&#45;&gt;tsubute -->
<g id="edge12" class="edge"><title>barrack&#45;&gt;tsubute</title>
<path fill="none" stroke="#ebc72d" d="M1287.78,-337.126C1298.63,-329.505 1312.88,-320.255 1326.5,-313.74 1372.91,-291.55 1390.47,-300.709 1436.5,-277.74 1445.35,-273.324 1454.38,-267.564 1462.43,-261.909"/>
<polygon fill="#ebc72d" stroke="#ebc72d" points="1464.69,-264.594 1470.72,-255.881 1460.57,-258.932 1464.69,-264.594"/>
</g>
<!-- barrack&#45;&gt;shinobi -->
<g id="edge8" class="edge"><title>barrack&#45;&gt;shinobi</title>
<path fill="none" stroke="#ebc72d" d="M1252.67,-337.031C1229.61,-318.241 1187.96,-284.3 1160.77,-262.146"/>
<polygon fill="#ebc72d" stroke="#ebc72d" points="1162.8,-259.282 1152.83,-255.679 1158.37,-264.709 1162.8,-259.282"/>
</g>
<!-- yumi_ashigaru -->
<g id="node24" class="node"><title>yumi_ashigaru</title>
<g id="a_node24"><a xlink:href="japanese_yumi_ashigaru_full.html" xlink:title="Yumi\nAshigaru">
<ellipse fill="none" stroke="magenta" cx="1347.5" cy="-239.74" rx="46.8387" ry="26.7407"/>
<text text-anchor="middle" x="1347.5" y="-243.54" font-family="Times,serif" font-size="14.00" fill="#ebc72d">Yumi</text>
<text text-anchor="middle" x="1347.5" y="-228.54" font-family="Times,serif" font-size="14.00" fill="#ebc72d">Ashigaru</text>
</a>
</g>
</g>
<!-- barrack&#45;&gt;yumi_ashigaru -->
<g id="edge13" class="edge"><title>barrack&#45;&gt;yumi_ashigaru</title>
<path fill="none" stroke="#ebc72d" d="M1279.38,-336.809C1290.62,-320.956 1309.36,-294.527 1324.34,-273.398"/>
<polygon fill="#ebc72d" stroke="#ebc72d" points="1327.36,-275.19 1330.29,-265.008 1321.65,-271.141 1327.36,-275.19"/>
</g>
<!-- barrack&#45;&gt;standard_bearer -->
<g id="edge9" class="edge"><title>barrack&#45;&gt;standard_bearer</title>
<path fill="none" stroke="#ebc72d" d="M1265.32,-336.809C1260.76,-321.606 1253.28,-296.677 1247.08,-276.024"/>
<polygon fill="#ebc72d" stroke="#ebc72d" points="1250.39,-274.862 1244.16,-266.29 1243.69,-276.874 1250.39,-274.862"/>
</g>
<!-- training_field -->
<g id="node30" class="node"><title>training_field</title>
<g id="a_node30"><a xlink:href="japanese_training_field_full.html" xlink:title="Training\nField">
<polygon fill="none" stroke="green" points="1714.63,-277.74 1611.02,-277.74 1584.37,-201.74 1687.98,-201.74 1714.63,-277.74"/>
<text text-anchor="middle" x="1649.5" y="-243.54" font-family="Times,serif" font-size="14.00" fill="#ebc72d">Training</text>
<text text-anchor="middle" x="1649.5" y="-228.54" font-family="Times,serif" font-size="14.00" fill="#ebc72d">Field</text>
</a>
</g>
</g>
<!-- barrack&#45;&gt;training_field -->
<g id="edge11" class="edge"><title>barrack&#45;&gt;training_field</title>
<path fill="none" stroke="#ebc72d" d="M1286.41,-336.98C1297.23,-328.908 1311.93,-319.242 1326.5,-313.74 1429.05,-275.009 1465.53,-309.322 1570.5,-277.74 1579.23,-275.113 1588.23,-271.674 1596.88,-267.951"/>
<polygon fill="#ebc72d" stroke="#ebc72d" points="1598.41,-271.103 1606.1,-263.825 1595.55,-264.713 1598.41,-271.103"/>
</g>
<!-- bamboo_cartridge -->
<g id="node32" class="node"><title>bamboo_cartridge</title>
<g id="a_node32"><a xlink:href="japanese_bamboo_cartridge_full.html" xlink:title="Bamboo\nCartridge">
<polygon fill="none" stroke="green" points="1639,-165.74 1526.85,-165.74 1498,-89.7401 1610.15,-89.7401 1639,-165.74"/>
<text text-anchor="middle" x="1568.5" y="-131.54" font-family="Times,serif" font-size="14.00" fill="#ebc72d">Bamboo</text>
<text text-anchor="middle" x="1568.5" y="-116.54" font-family="Times,serif" font-size="14.00" fill="#ebc72d">Cartridge</text>
</a>
</g>
</g>
<!-- barrack&#45;&gt;bamboo_cartridge -->
<g id="edge6" class="edge"><title>barrack&#45;&gt;bamboo_cartridge</title>
<path fill="none" stroke="#ebc72d" d="M1286.45,-337.095C1297.29,-329.066 1311.99,-319.406 1326.5,-313.74 1415.11,-279.128 1469.03,-343.783 1537.5,-277.74 1564.36,-251.837 1571.02,-209.172 1571.59,-176.12"/>
<polygon fill="#ebc72d" stroke="#ebc72d" points="1575.09,-175.757 1571.58,-165.76 1568.09,-175.763 1575.09,-175.757"/>
</g>
<!-- buddhist_temple&#45;&gt;warrior_monk -->
<g id="edge21" class="edge"><title>buddhist_temple&#45;&gt;warrior_monk</title>
<path fill="none" stroke="#ebc72d" d="M240.512,-431.675C233.799,-418.094 225.529,-401.359 218.332,-386.799"/>
<polygon fill="#ebc72d" stroke="#ebc72d" points="221.354,-385.013 213.785,-377.599 215.079,-388.115 221.354,-385.013"/>
</g>
<!-- buddhist_temple&#45;&gt;medical_priest -->
<g id="edge20" class="edge"><title>buddhist_temple&#45;&gt;medical_priest</title>
<path fill="none" stroke="#ebc72d" d="M266.487,-431.675C273.199,-418.094 281.47,-401.359 288.666,-386.799"/>
<polygon fill="#ebc72d" stroke="#ebc72d" points="291.92,-388.115 293.213,-377.599 285.644,-385.013 291.92,-388.115"/>
</g>
<!-- eastern_medicine -->
<g id="node43" class="node"><title>eastern_medicine</title>
<g id="a_node43"><a xlink:href="japanese_eastern_medicine_full.html" xlink:title="Eastern\nMedicine">
<polygon fill="none" stroke="green" points="140.998,-389.74 28.8504,-389.74 0.000785147,-313.74 112.148,-313.74 140.998,-389.74"/>
<text text-anchor="middle" x="70.4992" y="-355.54" font-family="Times,serif" font-size="14.00" fill="#ebc72d">Eastern</text>
<text text-anchor="middle" x="70.4992" y="-340.54" font-family="Times,serif" font-size="14.00" fill="#ebc72d">Medicine</text>
</a>
</g>
</g>
<!-- buddhist_temple&#45;&gt;eastern_medicine -->
<g id="edge19" class="edge"><title>buddhist_temple&#45;&gt;eastern_medicine</title>
<path fill="none" stroke="#ebc72d" d="M207.793,-431.675C188.439,-420.548 165.403,-407.304 143.781,-394.872"/>
<polygon fill="#ebc72d" stroke="#ebc72d" points="145.352,-391.738 134.938,-389.788 141.863,-397.807 145.352,-391.738"/>
</g>
<!-- yumi_ashigaru&#45;&gt;taketaba_archer -->
<g id="edge61" class="edge"><title>yumi_ashigaru&#45;&gt;taketaba_archer</title>
<path fill="none" stroke="#ebc72d" stroke-dasharray="5,2" d="M1327.56,-215.412C1313.82,-199.333 1295.4,-177.776 1280.37,-160.184"/>
<polygon fill="#ebc72d" stroke="#ebc72d" points="1282.89,-157.742 1273.73,-152.414 1277.57,-162.29 1282.89,-157.742"/>
</g>
<!-- peasant&#45;&gt;teppo_ashigaru -->
<g id="edge42" class="edge"><title>peasant&#45;&gt;teppo_ashigaru</title>
<path fill="none" stroke="#ebc72d" stroke-dasharray="5,2" d="M585.087,-336.188C558.925,-317.32 516.449,-285.862 512.499,-277.74 497.726,-247.364 489.16,-226.158 512.499,-201.74 573.751,-137.659 1222.59,-183.19 1309.5,-165.74 1328.02,-162.022 1347.67,-155.466 1364.67,-148.895"/>
<polygon fill="#ebc72d" stroke="#ebc72d" points="1366.35,-151.995 1374.34,-145.045 1363.76,-145.491 1366.35,-151.995"/>
</g>
<!-- peasant&#45;&gt;nagae_ashigaru -->
<g id="edge41" class="edge"><title>peasant&#45;&gt;nagae_ashigaru</title>
<path fill="none" stroke="#ebc72d" stroke-dasharray="5,2" d="M599.718,-333.553C594.56,-318.219 586.846,-295.285 580.377,-276.052"/>
<polygon fill="#ebc72d" stroke="#ebc72d" points="583.633,-274.754 577.127,-266.391 576.998,-276.985 583.633,-274.754"/>
</g>
<!-- peasant&#45;&gt;ikki_mob -->
<g id="edge40" class="edge"><title>peasant&#45;&gt;ikki_mob</title>
<path fill="none" stroke="#ebc72d" stroke-dasharray="5,2" d="M586.26,-335.893C576.669,-328.795 564.743,-320.413 553.499,-313.74 522.047,-295.074 510.172,-297.661 479.499,-277.74 474.351,-274.397 469.138,-270.525 464.187,-266.57"/>
<polygon fill="#ebc72d" stroke="#ebc72d" points="466.093,-263.605 456.161,-259.917 461.626,-268.994 466.093,-263.605"/>
</g>
<!-- arquebus&#45;&gt;teppo_ashigaru -->
<g id="edge3" class="edge"><title>arquebus&#45;&gt;teppo_ashigaru</title>
<path fill="none" stroke="#ebc72d" stroke-dasharray="1,5" d="M1769.08,-221.622C1755.59,-214.462 1739.15,-206.674 1723.5,-201.74 1623.15,-170.095 1590.17,-196.366 1489.5,-165.74 1477.15,-161.984 1464.27,-156.628 1452.58,-151.154"/>
<polygon fill="#ebc72d" stroke="#ebc72d" points="1454.02,-147.963 1443.49,-146.767 1450.98,-154.266 1454.02,-147.963"/>
</g>
<!-- arquebus&#45;&gt;yagura_gun -->
<g id="edge5" class="edge"><title>arquebus&#45;&gt;yagura_gun</title>
<path fill="none" stroke="#ebc72d" stroke-dasharray="1,5" d="M1808.5,-221.553C1817.54,-206.008 1831.13,-182.653 1842.41,-163.26"/>
<polygon fill="#ebc72d" stroke="#ebc72d" points="1845.57,-164.795 1847.57,-154.391 1839.52,-161.275 1845.57,-164.795"/>
</g>
<!-- arquebus&#45;&gt;watchtower_gun -->
<g id="edge4" class="edge"><title>arquebus&#45;&gt;watchtower_gun</title>
<path fill="none" stroke="#ebc72d" stroke-dasharray="1,5" d="M1828.76,-221.627C1842.14,-214.641 1858.26,-206.988 1873.5,-201.74 1963.15,-170.865 2070.39,-150.886 2142.55,-139.768"/>
<polygon fill="#ebc72d" stroke="#ebc72d" points="2143.13,-143.22 2152.49,-138.258 2142.08,-136.3 2143.13,-143.22"/>
</g>
<!-- arquebus&#45;&gt;bamboo_cartridge -->
<g id="edge2" class="edge"><title>arquebus&#45;&gt;bamboo_cartridge</title>
<path fill="none" stroke="#ebc72d" stroke-dasharray="1,5" d="M1764.21,-221.663C1751.46,-215.352 1736.84,-208.171 1723.5,-201.74 1698.55,-189.713 1671.25,-176.779 1646.6,-165.188"/>
<polygon fill="#ebc72d" stroke="#ebc72d" points="1647.84,-161.9 1637.3,-160.816 1644.86,-168.236 1647.84,-161.9"/>
</g>
<!-- shadow_syndicate&#45;&gt;shinobi -->
<g id="edge43" class="edge"><title>shadow_syndicate&#45;&gt;shinobi</title>
<path fill="none" stroke="#ebc72d" stroke-dasharray="1,5" d="M1107.38,-313.499C1113.06,-298.252 1119.51,-280.966 1124.69,-267.069"/>
<polygon fill="#ebc72d" stroke="#ebc72d" points="1127.99,-268.219 1128.21,-257.626 1121.43,-265.774 1127.99,-268.219"/>
</g>
<!-- nanban_trade&#45;&gt;european_trader -->
<g id="edge39" class="edge"><title>nanban_trade&#45;&gt;european_trader</title>
<path fill="none" stroke="#ebc72d" stroke-dasharray="1,5" d="M1336.35,-317.396C1332.74,-316.021 1329.1,-314.785 1325.5,-313.74 1142.15,-260.589 1080.36,-332.531 897.499,-277.74 888.135,-274.934 878.603,-270.736 869.754,-266.163"/>
<polygon fill="#ebc72d" stroke="#ebc72d" points="871.273,-263.005 860.815,-261.305 867.93,-269.156 871.273,-263.005"/>
</g>
<!-- nanban_trade&#45;&gt;arquebus -->
<g id="edge38" class="edge"><title>nanban_trade&#45;&gt;arquebus</title>
<path fill="none" stroke="#ebc72d" stroke-dasharray="1,5" d="M1436.91,-326.354C1446.35,-321.521 1456.56,-316.954 1466.5,-313.74 1576.24,-278.258 1613.27,-311.685 1723.5,-277.74 1735.98,-273.896 1748.95,-268.185 1760.53,-262.394"/>
<polygon fill="#ebc72d" stroke="#ebc72d" points="1762.2,-265.47 1769.47,-257.767 1758.98,-259.252 1762.2,-265.47"/>
</g>
<!-- advanced_architecture&#45;&gt;yagura -->
<g id="edge1" class="edge"><title>advanced_architecture&#45;&gt;yagura</title>
<path fill="none" stroke="#ebc72d" stroke-dasharray="1,5" d="M1620.67,-327.392C1634.55,-322.391 1649.42,-317.491 1663.5,-313.74 1755,-289.353 1785.74,-313.325 1873.5,-277.74 1884.35,-273.339 1895.22,-266.484 1904.33,-259.865"/>
<polygon fill="#ebc72d" stroke="#ebc72d" points="1906.63,-262.517 1912.47,-253.679 1902.39,-256.944 1906.63,-262.517"/>
</g>
<!-- siege_engineering&#45;&gt;taketaba_gunner -->
<g id="edge46" class="edge"><title>siege_engineering&#45;&gt;taketaba_gunner</title>
<path fill="none" stroke="#ebc72d" stroke-dasharray="1,5" d="M1037.68,-201.526C1088.32,-159.811 1169.28,-93.1262 1214.72,-55.6934"/>
<polygon fill="#ebc72d" stroke="#ebc72d" points="1217.02,-58.3384 1222.51,-49.2789 1212.56,-52.9353 1217.02,-58.3384"/>
</g>
<!-- siege_engineering&#45;&gt;cannon -->
<g id="edge44" class="edge"><title>siege_engineering&#45;&gt;cannon</title>
<path fill="none" stroke="#ebc72d" stroke-dasharray="1,5" d="M990.129,-201.499C989.184,-186.647 988.116,-169.859 987.244,-156.154"/>
<polygon fill="#ebc72d" stroke="#ebc72d" points="990.721,-155.678 986.592,-145.92 983.735,-156.122 990.721,-155.678"/>
</g>
<!-- siege_engineering&#45;&gt;taketaba_archer -->
<g id="edge45" class="edge"><title>siege_engineering&#45;&gt;taketaba_archer</title>
<path fill="none" stroke="#ebc72d" stroke-dasharray="1,5" d="M1049.45,-214.736C1096.69,-194.83 1163,-166.881 1207.06,-148.311"/>
<polygon fill="#ebc72d" stroke="#ebc72d" points="1208.53,-151.491 1216.38,-144.382 1205.81,-145.041 1208.53,-151.491"/>
</g>
<!-- bushido&#45;&gt;samurai -->
<g id="edge22" class="edge"><title>bushido&#45;&gt;samurai</title>
<path fill="none" stroke="#ebc72d" stroke-dasharray="1,5" d="M673.124,-221.553C651.583,-202.443 616.736,-171.531 593.239,-150.686"/>
<polygon fill="#ebc72d" stroke="#ebc72d" points="595.544,-148.053 585.741,-144.035 590.899,-153.29 595.544,-148.053"/>
</g>
</g>
</svg>
