<?xml version="1.0" encoding="UTF-8" standalone="no"?>
<!DOCTYPE svg PUBLIC "-//W3C//DTD SVG 1.1//EN"
 "http://www.w3.org/Graphics/SVG/1.1/DTD/svg11.dtd">
<!-- Generated by graphviz version 2.38.0 (20140413.2041)
 -->
<!-- Title: test Pages: 1 -->
<svg width="993pt" height="177pt"
 viewBox="0.00 0.00 992.71 176.85" xmlns="http://www.w3.org/2000/svg" xmlns:xlink="http://www.w3.org/1999/xlink">
<g id="graph0" class="graph" transform="scale(1 1) rotate(0) translate(4 172.853)">
<title>test</title>
<polygon fill="#151515" stroke="none" points="-4,4 -4,-172.853 988.713,-172.853 988.713,4 -4,4"/>
<!-- blacksmith -->
<g id="node1" class="node"><title>blacksmith</title>
<g id="a_node1"><a xlink:href="japanese_blacksmith_full.html" xlink:title="Blacksmith">
<polygon fill="none" stroke="red" points="204.978,-141.202 141.545,-153.64 78.1117,-141.202 78.1709,-121.077 204.918,-121.077 204.978,-141.202"/>
<text text-anchor="middle" x="141.545" y="-131.94" font-family="Times,serif" font-size="14.00" fill="#ebc72d">Blacksmith</text>
</a>
</g>
</g>
<!-- yagura_gun -->
<g id="node5" class="node"><title>yagura_gun</title>
<g id="a_node5"><a xlink:href="japanese_yagura_gun_full.html" xlink:title="Yagura\nGun">
<polygon fill="none" stroke="red" points="260.436,-43.543 211.545,-66.641 162.653,-43.543 162.699,-6.16955 260.391,-6.16955 260.436,-43.543"/>
<text text-anchor="middle" x="211.545" y="-37.0132" font-family="Times,serif" font-size="14.00" fill="#ebc72d">Yagura</text>
<text text-anchor="middle" x="211.545" y="-22.0132" font-family="Times,serif" font-size="14.00" fill="#ebc72d">Gun</text>
</a>
</g>
</g>
<!-- blacksmith&#45;&gt;yagura_gun -->
<g id="edge2" class="edge"><title>blacksmith&#45;&gt;yagura_gun</title>
<path fill="none" stroke="#ebc72d" stroke-dasharray="1,5" d="M151.278,-120.676C160.834,-106.966 175.771,-85.537 188.383,-67.4429"/>
<polygon fill="#ebc72d" stroke="#ebc72d" points="191.507,-69.0819 194.354,-58.8767 185.764,-65.0791 191.507,-69.0819"/>
</g>
<!-- watchtower_gun -->
<g id="node11" class="node"><title>watchtower_gun</title>
<g id="a_node11"><a xlink:href="japanese_watchtower_gun_full.html" xlink:title="Watchtower\nGun">
<polygon fill="none" stroke="red" points="145.134,-43.543 72.5447,-66.641 -0.0446876,-43.543 0.023066,-6.16955 145.066,-6.16955 145.134,-43.543"/>
<text text-anchor="middle" x="72.5447" y="-37.0132" font-family="Times,serif" font-size="14.00" fill="#ebc72d">Watchtower</text>
<text text-anchor="middle" x="72.5447" y="-22.0132" font-family="Times,serif" font-size="14.00" fill="#ebc72d">Gun</text>
</a>
</g>
</g>
<!-- blacksmith&#45;&gt;watchtower_gun -->
<g id="edge1" class="edge"><title>blacksmith&#45;&gt;watchtower_gun</title>
<path fill="none" stroke="#ebc72d" stroke-dasharray="1,5" d="M131.951,-120.676C122.849,-107.429 108.796,-86.9761 96.6434,-69.2878"/>
<polygon fill="#ebc72d" stroke="#ebc72d" points="99.4075,-67.1303 90.8599,-60.8702 93.6381,-71.0943 99.4075,-67.1303"/>
</g>
<!-- dojo -->
<g id="node2" class="node"><title>dojo</title>
<g id="a_node2"><a xlink:href="japanese_dojo_full.html" xlink:title="Dojo">
<polygon fill="none" stroke="red" points="348.742,-38.7755 313.545,-51.2132 278.347,-38.7755 278.38,-18.6509 348.709,-18.6509 348.742,-38.7755"/>
<text text-anchor="middle" x="313.545" y="-29.5132" font-family="Times,serif" font-size="14.00" fill="#ebc72d">Dojo</text>
</a>
</g>
</g>
<!-- european_trader -->
<g id="node3" class="node"><title>european_trader</title>
<g id="a_node3"><a xlink:href="japanese_european_trader_full.html" xlink:title="European\nTrader">
<polygon fill="none" stroke="red" points="485.913,-43.543 426.545,-66.641 367.176,-43.543 367.232,-6.16955 485.858,-6.16955 485.913,-43.543"/>
<text text-anchor="middle" x="426.545" y="-37.0132" font-family="Times,serif" font-size="14.00" fill="#ebc72d">European</text>
<text text-anchor="middle" x="426.545" y="-22.0132" font-family="Times,serif" font-size="14.00" fill="#ebc72d">Trader</text>
</a>
</g>
</g>
<!-- farmhouse -->
<g id="node4" class="node"><title>farmhouse</title>
<g id="a_node4"><a xlink:href="japanese_farmhouse_full.html" xlink:title="Farmhouse">
<polygon fill="none" stroke="red" points="621.264,-141.202 559.545,-153.64 497.825,-141.202 497.883,-121.077 621.207,-121.077 621.264,-141.202"/>
<text text-anchor="middle" x="559.545" y="-131.94" font-family="Times,serif" font-size="14.00" fill="#ebc72d">Farmhouse</text>
</a>
</g>
</g>
<!-- yagura -->
<g id="node6" class="node"><title>yagura</title>
<g id="a_node6"><a xlink:href="japanese_yagura_full.html" xlink:title="Yagura">
<polygon fill="none" stroke="red" points="593.522,-38.7755 548.545,-51.2132 503.567,-38.7755 503.609,-18.6509 593.48,-18.6509 593.522,-38.7755"/>
<text text-anchor="middle" x="548.545" y="-29.5132" font-family="Times,serif" font-size="14.00" fill="#ebc72d">Yagura</text>
</a>
</g>
</g>
<!-- daimyo_yashiki -->
<g id="node7" class="node"><title>daimyo_yashiki</title>
<g id="a_node7"><a xlink:href="japanese_daimyo_yashiki_full.html" xlink:title="Daimyo\nYashiki">
<polygon fill="none" stroke="red" points="479.677,-145.969 426.545,-169.067 373.412,-145.969 373.462,-108.596 479.628,-108.596 479.677,-145.969"/>
<text text-anchor="middle" x="426.545" y="-139.44" font-family="Times,serif" font-size="14.00" fill="#ebc72d">Daimyo</text>
<text text-anchor="middle" x="426.545" y="-124.44" font-family="Times,serif" font-size="14.00" fill="#ebc72d">Yashiki</text>
</a>
</g>
</g>
<!-- daimyo_yashiki&#45;&gt;dojo -->
<g id="edge4" class="edge"><title>daimyo_yashiki&#45;&gt;dojo</title>
<path fill="none" stroke="#ebc72d" stroke-dasharray="1,5" d="M397.15,-108.516C377.643,-91.1789 352.485,-68.8208 334.884,-53.178"/>
<polygon fill="#ebc72d" stroke="#ebc72d" points="337.176,-50.5323 327.376,-46.5055 332.526,-55.7646 337.176,-50.5323"/>
</g>
<!-- daimyo_yashiki&#45;&gt;european_trader -->
<g id="edge5" class="edge"><title>daimyo_yashiki&#45;&gt;european_trader</title>
<path fill="none" stroke="#ebc72d" stroke-dasharray="1,5" d="M426.545,-108.516C426.545,-98.8268 426.545,-87.5693 426.545,-76.7922"/>
<polygon fill="#ebc72d" stroke="#ebc72d" points="430.045,-76.6736 426.545,-66.6736 423.045,-76.6737 430.045,-76.6736"/>
</g>
<!-- daimyo_yashiki&#45;&gt;yagura_gun -->
<g id="edge7" class="edge"><title>daimyo_yashiki&#45;&gt;yagura_gun</title>
<path fill="none" stroke="#ebc72d" stroke-dasharray="1,5" d="M373.268,-113.008C342.6,-100.18 303.523,-83.1946 269.545,-66.4264 263.715,-63.5497 257.637,-60.3757 251.703,-57.1754"/>
<polygon fill="#ebc72d" stroke="#ebc72d" points="253.006,-53.8983 242.554,-52.1635 249.643,-60.0375 253.006,-53.8983"/>
</g>
<!-- daimyo_yashiki&#45;&gt;yagura -->
<g id="edge6" class="edge"><title>daimyo_yashiki&#45;&gt;yagura</title>
<path fill="none" stroke="#ebc72d" stroke-dasharray="1,5" d="M458.28,-108.516C479.19,-91.3033 506.113,-69.1414 525.096,-53.5158"/>
<polygon fill="#ebc72d" stroke="#ebc72d" points="527.459,-56.1032 532.956,-47.0455 523.011,-50.6987 527.459,-56.1032"/>
</g>
<!-- buddhist_temple -->
<g id="node10" class="node"><title>buddhist_temple</title>
<g id="a_node10"><a xlink:href="japanese_buddhist_temple_full.html" xlink:title="Buddhist\nTemple">
<polygon fill="none" stroke="red" points="725.169,-43.543 668.545,-66.641 611.92,-43.543 611.973,-6.16955 725.117,-6.16955 725.169,-43.543"/>
<text text-anchor="middle" x="668.545" y="-37.0132" font-family="Times,serif" font-size="14.00" fill="#ebc72d">Buddhist</text>
<text text-anchor="middle" x="668.545" y="-22.0132" font-family="Times,serif" font-size="14.00" fill="#ebc72d">Temple</text>
</a>
</g>
</g>
<!-- daimyo_yashiki&#45;&gt;buddhist_temple -->
<g id="edge3" class="edge"><title>daimyo_yashiki&#45;&gt;buddhist_temple</title>
<path fill="none" stroke="#ebc72d" stroke-dasharray="1,5" d="M474.902,-108.504C479.466,-106.345 484.062,-104.282 488.545,-102.426 537.637,-82.1017 553.201,-86.1332 602.545,-66.4264 609.546,-63.6304 616.833,-60.4076 623.902,-57.1043"/>
<polygon fill="#ebc72d" stroke="#ebc72d" points="625.846,-60.0543 633.357,-52.5825 622.826,-53.7393 625.846,-60.0543"/>
</g>
<!-- watchtower -->
<g id="node8" class="node"><title>watchtower</title>
<g id="a_node8"><a xlink:href="japanese_watchtower_full.html" xlink:title="Watchtower">
<polygon fill="none" stroke="red" points="773.405,-141.202 706.545,-153.64 639.684,-141.202 639.747,-121.077 773.343,-121.077 773.405,-141.202"/>
<text text-anchor="middle" x="706.545" y="-131.94" font-family="Times,serif" font-size="14.00" fill="#ebc72d">Watchtower</text>
</a>
</g>
</g>
<!-- barrack -->
<g id="node9" class="node"><title>barrack</title>
<g id="a_node9"><a xlink:href="japanese_barrack_full.html" xlink:title="Barrack">
<polygon fill="none" stroke="red" points="885.843,-141.202 838.545,-153.64 791.246,-141.202 791.291,-121.077 885.799,-121.077 885.843,-141.202"/>
<text text-anchor="middle" x="838.545" y="-131.94" font-family="Times,serif" font-size="14.00" fill="#ebc72d">Barrack</text>
</a>
</g>
</g>
<!-- castle -->
<g id="node12" class="node"><title>castle</title>
<g id="a_node12"><a xlink:href="japanese_castle_full.html" xlink:title="Castle">
<polygon fill="none" stroke="red" points="984.883,-141.202 944.545,-153.64 904.207,-141.202 904.244,-121.077 984.845,-121.077 984.883,-141.202"/>
<text text-anchor="middle" x="944.545" y="-131.94" font-family="Times,serif" font-size="14.00" fill="#ebc72d">Castle</text>
</a>
</g>
</g>
</g>
</svg>
