<?xml version="1.0" encoding="UTF-8" standalone="no"?>
<!DOCTYPE svg PUBLIC "-//W3C//DTD SVG 1.1//EN"
 "http://www.w3.org/Graphics/SVG/1.1/DTD/svg11.dtd">
<!-- Generated by graphviz version 2.38.0 (20140413.2041)
 -->
<!-- Title: test Pages: 1 -->
<svg width="1426pt" height="441pt"
 viewBox="0.00 0.00 1426.49 441.02" xmlns="http://www.w3.org/2000/svg" xmlns:xlink="http://www.w3.org/1999/xlink">
<g id="graph0" class="graph" transform="scale(1 1) rotate(0) translate(4 437.019)">
<title>test</title>
<polygon fill="#151515" stroke="none" points="-4,4 -4,-437.019 1422.49,-437.019 1422.49,4 -4,4"/>
<!-- warrior_monk -->
<g id="node1" class="node"><title>warrior_monk</title>
<g id="a_node1"><a xlink:href="japanese_warrior_monk_full.html" xlink:title="Warrior\nMonk">
<ellipse fill="none" stroke="magenta" cx="1270.65" cy="-225.38" rx="42.3529" ry="26.7407"/>
<text text-anchor="middle" x="1270.65" y="-229.18" font-family="Times,serif" font-size="14.00" fill="#ebc72d">Warrior</text>
<text text-anchor="middle" x="1270.65" y="-214.18" font-family="Times,serif" font-size="14.00" fill="#ebc72d">Monk</text>
</a>
</g>
</g>
<!-- blacksmith -->
<g id="node2" class="node"><title>blacksmith</title>
<g id="a_node2"><a xlink:href="japanese_blacksmith_full.html" xlink:title="Blacksmith">
<polygon fill="none" stroke="red" points="456.078,-333.369 392.645,-345.806 329.212,-333.369 329.272,-313.244 456.019,-313.244 456.078,-333.369"/>
<text text-anchor="middle" x="392.645" y="-324.106" font-family="Times,serif" font-size="14.00" fill="#ebc72d">Blacksmith</text>
</a>
</g>
</g>
<!-- yagura_gun -->
<g id="node11" class="node"><title>yagura_gun</title>
<g id="a_node11"><a xlink:href="japanese_yagura_gun_full.html" xlink:title="Yagura\nGun">
<polygon fill="none" stroke="red" points="593.537,-133.283 544.645,-156.381 495.754,-133.283 495.799,-95.9097 593.491,-95.9097 593.537,-133.283"/>
<text text-anchor="middle" x="544.645" y="-126.753" font-family="Times,serif" font-size="14.00" fill="#ebc72d">Yagura</text>
<text text-anchor="middle" x="544.645" y="-111.753" font-family="Times,serif" font-size="14.00" fill="#ebc72d">Gun</text>
</a>
</g>
</g>
<!-- blacksmith&#45;&gt;yagura_gun -->
<g id="edge8" class="edge"><title>blacksmith&#45;&gt;yagura_gun</title>
<path fill="none" stroke="#ebc72d" stroke-dasharray="1,5" d="M381.831,-313.22C362.582,-287.284 326.888,-229.941 354.645,-192.167 386.358,-149.008 419.419,-174.759 469.645,-156.167 479.616,-152.476 490.184,-148.182 500.142,-143.955"/>
<polygon fill="#ebc72d" stroke="#ebc72d" points="501.662,-147.111 509.465,-139.945 498.895,-140.681 501.662,-147.111"/>
</g>
<!-- watchtower_gun -->
<g id="node25" class="node"><title>watchtower_gun</title>
<g id="a_node25"><a xlink:href="japanese_watchtower_gun_full.html" xlink:title="Watchtower\nGun">
<polygon fill="none" stroke="red" points="307.235,-235.71 234.645,-258.808 162.056,-235.71 162.124,-198.336 307.167,-198.336 307.235,-235.71"/>
<text text-anchor="middle" x="234.645" y="-229.18" font-family="Times,serif" font-size="14.00" fill="#ebc72d">Watchtower</text>
<text text-anchor="middle" x="234.645" y="-214.18" font-family="Times,serif" font-size="14.00" fill="#ebc72d">Gun</text>
</a>
</g>
</g>
<!-- blacksmith&#45;&gt;watchtower_gun -->
<g id="edge7" class="edge"><title>blacksmith&#45;&gt;watchtower_gun</title>
<path fill="none" stroke="#ebc72d" stroke-dasharray="1,5" d="M371.007,-313.053C347.007,-297.798 307.683,-272.803 277.416,-253.565"/>
<polygon fill="#ebc72d" stroke="#ebc72d" points="279.058,-250.461 268.741,-248.051 275.303,-256.369 279.058,-250.461"/>
</g>
<!-- dojo -->
<g id="node3" class="node"><title>dojo</title>
<g id="a_node3"><a xlink:href="japanese_dojo_full.html" xlink:title="Dojo">
<polygon fill="none" stroke="red" points="159.843,-333.369 124.645,-345.806 89.4479,-333.369 89.4807,-313.244 159.81,-313.244 159.843,-333.369"/>
<text text-anchor="middle" x="124.645" y="-324.106" font-family="Times,serif" font-size="14.00" fill="#ebc72d">Dojo</text>
</a>
</g>
</g>
<!-- samurai -->
<g id="node8" class="node"><title>samurai</title>
<g id="a_node8"><a xlink:href="japanese_samurai_full.html" xlink:title="Samurai">
<ellipse fill="none" stroke="magenta" cx="460.645" cy="-26.8701" rx="40.0939" ry="18"/>
<text text-anchor="middle" x="460.645" y="-23.1701" font-family="Times,serif" font-size="14.00" fill="#ebc72d">Samurai</text>
</a>
</g>
</g>
<!-- dojo&#45;&gt;samurai -->
<g id="edge16" class="edge"><title>dojo&#45;&gt;samurai</title>
<path fill="none" stroke="#ebc72d" d="M123.879,-313.058C123.134,-286.844 125.02,-229.046 152.645,-192.167 219.086,-103.469 347.761,-57.656 415.861,-38.7189"/>
<polygon fill="#ebc72d" stroke="#ebc72d" points="417.116,-42.0052 425.853,-36.0128 415.286,-35.2486 417.116,-42.0052"/>
</g>
<!-- swordsman -->
<g id="node23" class="node"><title>swordsman</title>
<g id="a_node23"><a xlink:href="japanese_swordsman_full.html" xlink:title="Swordsman">
<ellipse fill="none" stroke="magenta" cx="52.6453" cy="-225.38" rx="52.7911" ry="18"/>
<text text-anchor="middle" x="52.6453" y="-221.68" font-family="Times,serif" font-size="14.00" fill="#ebc72d">Swordsman</text>
</a>
</g>
</g>
<!-- dojo&#45;&gt;swordsman -->
<g id="edge17" class="edge"><title>dojo&#45;&gt;swordsman</title>
<path fill="none" stroke="#ebc72d" d="M114.634,-312.842C103.308,-297.045 84.6344,-270.998 70.7374,-251.615"/>
<polygon fill="#ebc72d" stroke="#ebc72d" points="73.4032,-249.326 64.732,-243.238 67.7142,-253.405 73.4032,-249.326"/>
</g>
<!-- taketaba_gunner -->
<g id="node4" class="node"><title>taketaba_gunner</title>
<g id="a_node4"><a xlink:href="japanese_taketaba_gunner_full.html" xlink:title="Taketaba\nGunner">
<ellipse fill="none" stroke="magenta" cx="897.645" cy="-26.8701" rx="46.8387" ry="26.7407"/>
<text text-anchor="middle" x="897.645" y="-30.6701" font-family="Times,serif" font-size="14.00" fill="#ebc72d">Taketaba</text>
<text text-anchor="middle" x="897.645" y="-15.6701" font-family="Times,serif" font-size="14.00" fill="#ebc72d">Gunner</text>
</a>
</g>
</g>
<!-- worker -->
<g id="node5" class="node"><title>worker</title>
<g id="a_node5"><a xlink:href="japanese_worker_full.html" xlink:title="Worker">
<ellipse fill="none" stroke="magenta" cx="614.645" cy="-415.019" rx="38.1938" ry="18"/>
<text text-anchor="middle" x="614.645" y="-411.319" font-family="Times,serif" font-size="14.00" fill="#ebc72d">Worker</text>
</a>
</g>
</g>
<!-- worker&#45;&gt;blacksmith -->
<g id="edge28" class="edge"><title>worker&#45;&gt;blacksmith</title>
<path fill="none" stroke="#ebc72d" stroke-width="2" d="M585.623,-402.879C546.177,-387.738 475.526,-360.619 431.529,-343.731"/>
<polygon fill="#ebc72d" stroke="#ebc72d" stroke-width="2" points="432.619,-340.401 422.029,-340.085 430.11,-346.936 432.619,-340.401"/>
</g>
<!-- worker&#45;&gt;dojo -->
<g id="edge32" class="edge"><title>worker&#45;&gt;dojo</title>
<path fill="none" stroke="#ebc72d" stroke-width="2" d="M576.765,-411.994C483.098,-406.593 242.831,-390.231 168.645,-361.019 160.593,-357.849 152.682,-352.836 145.837,-347.7"/>
<polygon fill="#ebc72d" stroke="#ebc72d" stroke-width="2" points="147.798,-344.786 137.807,-341.258 143.418,-350.246 147.798,-344.786"/>
</g>
<!-- european_trader -->
<g id="node7" class="node"><title>european_trader</title>
<g id="a_node7"><a xlink:href="japanese_european_trader_full.html" xlink:title="European\nTrader">
<polygon fill="none" stroke="red" points="482.014,-235.71 422.645,-258.808 363.277,-235.71 363.332,-198.336 481.958,-198.336 482.014,-235.71"/>
<text text-anchor="middle" x="422.645" y="-229.18" font-family="Times,serif" font-size="14.00" fill="#ebc72d">European</text>
<text text-anchor="middle" x="422.645" y="-214.18" font-family="Times,serif" font-size="14.00" fill="#ebc72d">Trader</text>
</a>
</g>
</g>
<!-- worker&#45;&gt;european_trader -->
<g id="edge33" class="edge"><title>worker&#45;&gt;european_trader</title>
<path fill="none" stroke="#ebc72d" stroke-width="2" d="M584.676,-403.63C562.758,-394.887 533.359,-380.649 512.645,-361.019 500.581,-349.586 501.93,-343.216 493.645,-328.806"/>
<path fill="none" stroke="#ebc72d" stroke-width="2" d="M493.645,-326.806C480.203,-303.425 462.741,-278.669 448.499,-259.586"/>
<polygon fill="#ebc72d" stroke="#ebc72d" stroke-width="2" points="451.225,-257.388 442.411,-251.51 445.635,-261.602 451.225,-257.388"/>
</g>
<!-- farmhouse -->
<g id="node9" class="node"><title>farmhouse</title>
<g id="a_node9"><a xlink:href="japanese_farmhouse_full.html" xlink:title="Farmhouse">
<polygon fill="none" stroke="red" points="856.365,-333.369 794.645,-345.806 732.926,-333.369 732.983,-313.244 856.307,-313.244 856.365,-333.369"/>
<text text-anchor="middle" x="794.645" y="-324.106" font-family="Times,serif" font-size="14.00" fill="#ebc72d">Farmhouse</text>
</a>
</g>
</g>
<!-- worker&#45;&gt;farmhouse -->
<g id="edge34" class="edge"><title>worker&#45;&gt;farmhouse</title>
<path fill="none" stroke="#ebc72d" stroke-width="2" d="M640.819,-401.629C672.28,-386.735 725.181,-361.691 760.003,-345.206"/>
<polygon fill="#ebc72d" stroke="#ebc72d" stroke-width="2" points="761.772,-348.241 769.313,-340.799 758.777,-341.914 761.772,-348.241"/>
</g>
<!-- ikki_mob -->
<g id="node12" class="node"><title>ikki_mob</title>
<g id="a_node12"><a xlink:href="japanese_ikki_mob_full.html" xlink:title="Ikki\nMob">
<ellipse fill="none" stroke="magenta" cx="673.645" cy="-122.953" rx="30.3115" ry="26.7407"/>
<text text-anchor="middle" x="673.645" y="-126.753" font-family="Times,serif" font-size="14.00" fill="#ebc72d">Ikki</text>
<text text-anchor="middle" x="673.645" y="-111.753" font-family="Times,serif" font-size="14.00" fill="#ebc72d">Mob</text>
</a>
</g>
</g>
<!-- worker&#45;&gt;ikki_mob -->
<g id="edge35" class="edge"><title>worker&#45;&gt;ikki_mob</title>
<path fill="none" stroke="#ebc72d" stroke-dasharray="5,2" d="M626.944,-387.887C630.514,-379.461 634.125,-369.981 636.645,-361.019 656.25,-291.305 666.291,-206.946 670.717,-159.984"/>
<polygon fill="#ebc72d" stroke="#ebc72d" points="623.669,-386.639 622.839,-397.201 630.075,-389.462 623.669,-386.639"/>
<polygon fill="#ebc72d" stroke="#ebc72d" points="674.205,-160.269 671.626,-149.993 667.234,-159.635 674.205,-160.269"/>
</g>
<!-- yagura -->
<g id="node15" class="node"><title>yagura</title>
<g id="a_node15"><a xlink:href="japanese_yagura_full.html" xlink:title="Yagura">
<polygon fill="none" stroke="red" points="589.623,-230.942 544.645,-243.38 499.668,-230.942 499.71,-210.817 589.581,-210.817 589.623,-230.942"/>
<text text-anchor="middle" x="544.645" y="-221.68" font-family="Times,serif" font-size="14.00" fill="#ebc72d">Yagura</text>
</a>
</g>
</g>
<!-- worker&#45;&gt;yagura -->
<g id="edge37" class="edge"><title>worker&#45;&gt;yagura</title>
<path fill="none" stroke="#ebc72d" stroke-width="2" d="M493.645,-326.806C478.002,-299.598 502.019,-267.033 522.116,-246.522"/>
<polygon fill="#ebc72d" stroke="#ebc72d" stroke-width="2" points="524.819,-248.775 529.536,-239.287 519.932,-243.763 524.819,-248.775"/>
</g>
<!-- daimyo_yashiki -->
<g id="node16" class="node"><title>daimyo_yashiki</title>
<g id="a_node16"><a xlink:href="japanese_daimyo_yashiki_full.html" xlink:title="Daimyo\nYashiki">
<polygon fill="none" stroke="red" points="627.778,-338.136 574.645,-361.234 521.513,-338.136 521.562,-300.763 627.728,-300.763 627.778,-338.136"/>
<text text-anchor="middle" x="574.645" y="-331.606" font-family="Times,serif" font-size="14.00" fill="#ebc72d">Daimyo</text>
<text text-anchor="middle" x="574.645" y="-316.606" font-family="Times,serif" font-size="14.00" fill="#ebc72d">Yashiki</text>
</a>
</g>
</g>
<!-- worker&#45;&gt;daimyo_yashiki -->
<g id="edge31" class="edge"><title>worker&#45;&gt;daimyo_yashiki</title>
<path fill="none" stroke="#ebc72d" stroke-width="2" d="M606.743,-397.184C602.438,-388.014 596.936,-376.292 591.708,-365.154"/>
<polygon fill="#ebc72d" stroke="#ebc72d" stroke-width="2" points="594.83,-363.569 587.412,-356.004 588.493,-366.544 594.83,-363.569"/>
</g>
<!-- watchtower -->
<g id="node18" class="node"><title>watchtower</title>
<g id="a_node18"><a xlink:href="japanese_watchtower_full.html" xlink:title="Watchtower">
<polygon fill="none" stroke="red" points="311.506,-333.369 244.645,-345.806 177.785,-333.369 177.847,-313.244 311.443,-313.244 311.506,-333.369"/>
<text text-anchor="middle" x="244.645" y="-324.106" font-family="Times,serif" font-size="14.00" fill="#ebc72d">Watchtower</text>
</a>
</g>
</g>
<!-- worker&#45;&gt;watchtower -->
<g id="edge36" class="edge"><title>worker&#45;&gt;watchtower</title>
<path fill="none" stroke="#ebc72d" stroke-width="2" d="M577.361,-409.997C520.934,-403.308 410.859,-387.904 320.645,-361.019 306.746,-356.877 291.959,-350.976 279.158,-345.353"/>
<polygon fill="#ebc72d" stroke="#ebc72d" stroke-width="2" points="280.359,-342.056 269.804,-341.142 277.486,-348.439 280.359,-342.056"/>
</g>
<!-- barrack -->
<g id="node21" class="node"><title>barrack</title>
<g id="a_node21"><a xlink:href="japanese_barrack_full.html" xlink:title="Barrack">
<polygon fill="none" stroke="red" points="980.944,-333.369 933.645,-345.806 886.347,-333.369 886.391,-313.244 980.899,-313.244 980.944,-333.369"/>
<text text-anchor="middle" x="933.645" y="-324.106" font-family="Times,serif" font-size="14.00" fill="#ebc72d">Barrack</text>
</a>
</g>
</g>
<!-- worker&#45;&gt;barrack -->
<g id="edge27" class="edge"><title>worker&#45;&gt;barrack</title>
<path fill="none" stroke="#ebc72d" stroke-width="2" d="M651.1,-409.065C700.586,-401.725 791.37,-386.067 865.645,-361.019 878.314,-356.747 891.721,-350.742 903.252,-345.073"/>
<polygon fill="#ebc72d" stroke="#ebc72d" stroke-width="2" points="905.089,-348.066 912.439,-340.435 901.934,-341.818 905.089,-348.066"/>
</g>
<!-- buddhist_temple -->
<g id="node22" class="node"><title>buddhist_temple</title>
<g id="a_node22"><a xlink:href="japanese_buddhist_temple_full.html" xlink:title="Buddhist\nTemple">
<polygon fill="none" stroke="red" points="1237.27,-338.136 1180.65,-361.234 1124.02,-338.136 1124.07,-300.763 1237.22,-300.763 1237.27,-338.136"/>
<text text-anchor="middle" x="1180.65" y="-331.606" font-family="Times,serif" font-size="14.00" fill="#ebc72d">Buddhist</text>
<text text-anchor="middle" x="1180.65" y="-316.606" font-family="Times,serif" font-size="14.00" fill="#ebc72d">Temple</text>
</a>
</g>
</g>
<!-- worker&#45;&gt;buddhist_temple -->
<g id="edge29" class="edge"><title>worker&#45;&gt;buddhist_temple</title>
<path fill="none" stroke="#ebc72d" stroke-width="2" d="M651.157,-409.188C718.265,-400.236 865.704,-380.226 989.645,-361.019 1031.26,-354.571 1077.86,-346.723 1114.62,-340.388"/>
<polygon fill="#ebc72d" stroke="#ebc72d" stroke-width="2" points="1115.46,-343.795 1124.71,-338.643 1114.26,-336.898 1115.46,-343.795"/>
</g>
<!-- castle -->
<g id="node26" class="node"><title>castle</title>
<g id="a_node26"><a xlink:href="japanese_castle_full.html" xlink:title="Castle">
<polygon fill="none" stroke="red" points="1335.98,-333.369 1295.65,-345.806 1255.31,-333.369 1255.34,-313.244 1335.95,-313.244 1335.98,-333.369"/>
<text text-anchor="middle" x="1295.65" y="-324.106" font-family="Times,serif" font-size="14.00" fill="#ebc72d">Castle</text>
</a>
</g>
</g>
<!-- worker&#45;&gt;castle -->
<g id="edge30" class="edge"><title>worker&#45;&gt;castle</title>
<path fill="none" stroke="#ebc72d" stroke-width="2" d="M663.531,-413.024C792.42,-409.909 1138.97,-398.218 1246.65,-361.019 1255.73,-357.88 1264.79,-352.672 1272.59,-347.349"/>
<polygon fill="#ebc72d" stroke="#ebc72d" stroke-width="2" points="663.102,-409.533 653.187,-413.267 663.267,-416.531 663.102,-409.533"/>
<polygon fill="#ebc72d" stroke="#ebc72d" stroke-width="2" points="1274.77,-350.096 1280.81,-341.395 1270.66,-344.427 1274.77,-350.096"/>
</g>
<!-- teppo_ashigaru -->
<g id="node6" class="node"><title>teppo_ashigaru</title>
<g id="a_node6"><a xlink:href="japanese_teppo_ashigaru_full.html" xlink:title="Teppo\nAshigaru">
<ellipse fill="none" stroke="magenta" cx="897.645" cy="-122.953" rx="46.8387" ry="26.7407"/>
<text text-anchor="middle" x="897.645" y="-126.753" font-family="Times,serif" font-size="14.00" fill="#ebc72d">Teppo</text>
<text text-anchor="middle" x="897.645" y="-111.753" font-family="Times,serif" font-size="14.00" fill="#ebc72d">Ashigaru</text>
</a>
</g>
</g>
<!-- teppo_ashigaru&#45;&gt;taketaba_gunner -->
<g id="edge25" class="edge"><title>teppo_ashigaru&#45;&gt;taketaba_gunner</title>
<path fill="none" stroke="#ebc72d" stroke-dasharray="5,2" d="M897.645,-95.9956C897.645,-86.1237 897.645,-74.6898 897.645,-64.042"/>
<polygon fill="#ebc72d" stroke="#ebc72d" points="901.145,-63.743 897.645,-53.7431 894.145,-63.7431 901.145,-63.743"/>
</g>
<!-- cannon -->
<g id="node13" class="node"><title>cannon</title>
<g id="a_node13"><a xlink:href="japanese_cannon_full.html" xlink:title="Cannon">
<ellipse fill="none" stroke="magenta" cx="422.645" cy="-122.953" rx="38.1938" ry="18"/>
<text text-anchor="middle" x="422.645" y="-119.253" font-family="Times,serif" font-size="14.00" fill="#ebc72d">Cannon</text>
</a>
</g>
</g>
<!-- european_trader&#45;&gt;cannon -->
<g id="edge18" class="edge"><title>european_trader&#45;&gt;cannon</title>
<path fill="none" stroke="#ebc72d" d="M422.645,-198.256C422.645,-183.899 422.645,-166.099 422.645,-151.521"/>
<polygon fill="#ebc72d" stroke="#ebc72d" points="426.145,-151.111 422.645,-141.111 419.145,-151.111 426.145,-151.111"/>
</g>
<!-- peasant -->
<g id="node27" class="node"><title>peasant</title>
<g id="a_node27"><a xlink:href="japanese_peasant_full.html" xlink:title="Peasant">
<ellipse fill="none" stroke="magenta" cx="831.645" cy="-225.38" rx="37.8943" ry="18"/>
<text text-anchor="middle" x="831.645" y="-221.68" font-family="Times,serif" font-size="14.00" fill="#ebc72d">Peasant</text>
</a>
</g>
</g>
<!-- farmhouse&#45;&gt;peasant -->
<g id="edge19" class="edge"><title>farmhouse&#45;&gt;peasant</title>
<path fill="none" stroke="#ebc72d" d="M799.79,-312.842C805.505,-297.33 814.862,-271.934 821.96,-252.669"/>
<polygon fill="#ebc72d" stroke="#ebc72d" points="825.261,-253.832 825.434,-243.238 818.693,-251.412 825.261,-253.832"/>
</g>
<!-- nagae_ashigaru -->
<g id="node10" class="node"><title>nagae_ashigaru</title>
<g id="a_node10"><a xlink:href="japanese_nagae_ashigaru_full.html" xlink:title="Nagae\nAshigaru">
<ellipse fill="none" stroke="magenta" cx="786.645" cy="-122.953" rx="46.8387" ry="26.7407"/>
<text text-anchor="middle" x="786.645" y="-126.753" font-family="Times,serif" font-size="14.00" fill="#ebc72d">Nagae</text>
<text text-anchor="middle" x="786.645" y="-111.753" font-family="Times,serif" font-size="14.00" fill="#ebc72d">Ashigaru</text>
</a>
</g>
</g>
<!-- nagae_ashigaru&#45;&gt;samurai -->
<g id="edge21" class="edge"><title>nagae_ashigaru&#45;&gt;samurai</title>
<path fill="none" stroke="#ebc72d" stroke-dasharray="5,2" d="M751.369,-105.142C739.265,-99.7665 725.522,-94.0885 712.645,-89.7401 642.368,-66.0082 558.243,-47.2094 507.158,-36.8155"/>
<polygon fill="#ebc72d" stroke="#ebc72d" points="507.579,-33.3302 497.085,-34.7881 506.198,-40.1926 507.579,-33.3302"/>
</g>
<!-- tsubute -->
<g id="node14" class="node"><title>tsubute</title>
<g id="a_node14"><a xlink:href="japanese_tsubute_full.html" xlink:title="Tsubute">
<ellipse fill="none" stroke="magenta" cx="1076.65" cy="-225.38" rx="38.9931" ry="18"/>
<text text-anchor="middle" x="1076.65" y="-221.68" font-family="Times,serif" font-size="14.00" fill="#ebc72d">Tsubute</text>
</a>
</g>
</g>
<!-- yagura&#45;&gt;yagura_gun -->
<g id="edge38" class="edge"><title>yagura&#45;&gt;yagura_gun</title>
<path fill="none" stroke="#ebc72d" stroke-dasharray="5,2" d="M544.645,-210.416C544.645,-199.009 544.645,-182.259 544.645,-166.532"/>
<polygon fill="#ebc72d" stroke="#ebc72d" points="548.145,-166.412 544.645,-156.412 541.145,-166.412 548.145,-166.412"/>
</g>
<!-- daimyo_yashiki&#45;&gt;european_trader -->
<g id="edge12" class="edge"><title>daimyo_yashiki&#45;&gt;european_trader</title>
<path fill="none" stroke="#ebc72d" stroke-dasharray="1,5" d="M535.106,-300.683C512.741,-285.906 484.856,-267.483 462.449,-252.678"/>
<polygon fill="#ebc72d" stroke="#ebc72d" points="464.113,-249.583 453.841,-246.99 460.255,-255.423 464.113,-249.583"/>
</g>
<!-- daimyo_yashiki&#45;&gt;yagura_gun -->
<g id="edge15" class="edge"><title>daimyo_yashiki&#45;&gt;yagura_gun</title>
<path fill="none" stroke="#ebc72d" stroke-dasharray="1,5" d="M586.985,-300.628C598.236,-273.035 611.323,-228.607 598.645,-192.167 593.693,-177.932 584.398,-164.431 574.897,-153.254"/>
<polygon fill="#ebc72d" stroke="#ebc72d" points="577.279,-150.667 568.002,-145.549 572.062,-155.335 577.279,-150.667"/>
</g>
<!-- daimyo_yashiki&#45;&gt;yagura -->
<g id="edge14" class="edge"><title>daimyo_yashiki&#45;&gt;yagura</title>
<path fill="none" stroke="#ebc72d" stroke-dasharray="1,5" d="M566.841,-300.683C562.356,-285.667 556.745,-266.884 552.287,-251.96"/>
<polygon fill="#ebc72d" stroke="#ebc72d" points="555.629,-250.918 549.413,-242.339 548.921,-252.922 555.629,-250.918"/>
</g>
<!-- standard_bearer -->
<g id="node28" class="node"><title>standard_bearer</title>
<g id="a_node28"><a xlink:href="japanese_standard_bearer_full.html" xlink:title="Standard\nBearer">
<ellipse fill="none" stroke="magenta" cx="729.645" cy="-225.38" rx="45.9239" ry="26.7407"/>
<text text-anchor="middle" x="729.645" y="-229.18" font-family="Times,serif" font-size="14.00" fill="#ebc72d">Standard</text>
<text text-anchor="middle" x="729.645" y="-214.18" font-family="Times,serif" font-size="14.00" fill="#ebc72d">Bearer</text>
</a>
</g>
</g>
<!-- daimyo_yashiki&#45;&gt;standard_bearer -->
<g id="edge13" class="edge"><title>daimyo_yashiki&#45;&gt;standard_bearer</title>
<path fill="none" stroke="#ebc72d" stroke-dasharray="1,5" d="M614.965,-300.683C638.349,-285.532 667.652,-266.546 690.783,-251.559"/>
<polygon fill="#ebc72d" stroke="#ebc72d" points="692.832,-254.402 699.321,-246.027 689.026,-248.527 692.832,-254.402"/>
</g>
<!-- shinobi -->
<g id="node17" class="node"><title>shinobi</title>
<g id="a_node17"><a xlink:href="japanese_shinobi_full.html" xlink:title="Shinobi">
<ellipse fill="none" stroke="magenta" cx="1171.65" cy="-225.38" rx="38.1938" ry="18"/>
<text text-anchor="middle" x="1171.65" y="-221.68" font-family="Times,serif" font-size="14.00" fill="#ebc72d">Shinobi</text>
</a>
</g>
</g>
<!-- watchtower&#45;&gt;watchtower_gun -->
<g id="edge26" class="edge"><title>watchtower&#45;&gt;watchtower_gun</title>
<path fill="none" stroke="#ebc72d" stroke-dasharray="5,2" d="M243.255,-312.842C242.101,-301.259 240.399,-284.165 238.812,-268.228"/>
<polygon fill="#ebc72d" stroke="#ebc72d" points="242.267,-267.596 237.793,-257.992 235.301,-268.289 242.267,-267.596"/>
</g>
<!-- medical_priest -->
<g id="node19" class="node"><title>medical_priest</title>
<g id="a_node19"><a xlink:href="japanese_medical_priest_full.html" xlink:title="Medical\nPriest">
<ellipse fill="none" stroke="magenta" cx="1374.65" cy="-225.38" rx="43.6818" ry="26.7407"/>
<text text-anchor="middle" x="1374.65" y="-229.18" font-family="Times,serif" font-size="14.00" fill="#ebc72d">Medical</text>
<text text-anchor="middle" x="1374.65" y="-214.18" font-family="Times,serif" font-size="14.00" fill="#ebc72d">Priest</text>
</a>
</g>
</g>
<!-- taketaba_archer -->
<g id="node20" class="node"><title>taketaba_archer</title>
<g id="a_node20"><a xlink:href="japanese_taketaba_archer_full.html" xlink:title="Taketaba\nArcher">
<ellipse fill="none" stroke="magenta" cx="1008.65" cy="-122.953" rx="46.8387" ry="26.7407"/>
<text text-anchor="middle" x="1008.65" y="-126.753" font-family="Times,serif" font-size="14.00" fill="#ebc72d">Taketaba</text>
<text text-anchor="middle" x="1008.65" y="-111.753" font-family="Times,serif" font-size="14.00" fill="#ebc72d">Archer</text>
</a>
</g>
</g>
<!-- barrack&#45;&gt;teppo_ashigaru -->
<g id="edge4" class="edge"><title>barrack&#45;&gt;teppo_ashigaru</title>
<path fill="none" stroke="#ebc72d" d="M897.645,-224.38C888.781,-204.384 888.604,-179.868 890.73,-160.065"/>
<polygon fill="#ebc72d" stroke="#ebc72d" points="894.233,-160.268 892.062,-149.898 887.292,-159.359 894.233,-160.268"/>
</g>
<!-- barrack&#45;&gt;nagae_ashigaru -->
<g id="edge1" class="edge"><title>barrack&#45;&gt;nagae_ashigaru</title>
<path fill="none" stroke="#ebc72d" d="M929.481,-313.241C923.329,-293.712 911.082,-256.689 897.645,-226.38"/>
<path fill="none" stroke="#ebc72d" d="M897.645,-224.38C890.909,-209.184 889.765,-204.521 878.645,-192.167 863.806,-175.68 844.43,-160.609 827.289,-148.85"/>
<polygon fill="#ebc72d" stroke="#ebc72d" points="828.822,-145.665 818.565,-143.013 824.93,-151.483 828.822,-145.665"/>
</g>
<!-- barrack&#45;&gt;tsubute -->
<g id="edge5" class="edge"><title>barrack&#45;&gt;tsubute</title>
<path fill="none" stroke="#ebc72d" d="M953.229,-313.053C977.63,-295.916 1019.53,-266.488 1047.66,-246.737"/>
<polygon fill="#ebc72d" stroke="#ebc72d" points="1049.74,-249.554 1055.91,-240.942 1045.71,-243.825 1049.74,-249.554"/>
</g>
<!-- barrack&#45;&gt;shinobi -->
<g id="edge2" class="edge"><title>barrack&#45;&gt;shinobi</title>
<path fill="none" stroke="#ebc72d" d="M980.966,-313.637C1020.5,-301.768 1077.76,-282.524 1124.65,-258.593 1131.31,-255.192 1138.14,-250.989 1144.45,-246.755"/>
<polygon fill="#ebc72d" stroke="#ebc72d" points="1146.47,-249.617 1152.68,-241.034 1142.47,-243.87 1146.47,-249.617"/>
</g>
<!-- yumi_ashigaru -->
<g id="node24" class="node"><title>yumi_ashigaru</title>
<g id="a_node24"><a xlink:href="japanese_yumi_ashigaru_full.html" xlink:title="Yumi\nAshigaru">
<ellipse fill="none" stroke="magenta" cx="972.645" cy="-225.38" rx="46.8387" ry="26.7407"/>
<text text-anchor="middle" x="972.645" y="-229.18" font-family="Times,serif" font-size="14.00" fill="#ebc72d">Yumi</text>
<text text-anchor="middle" x="972.645" y="-214.18" font-family="Times,serif" font-size="14.00" fill="#ebc72d">Ashigaru</text>
</a>
</g>
</g>
<!-- barrack&#45;&gt;yumi_ashigaru -->
<g id="edge6" class="edge"><title>barrack&#45;&gt;yumi_ashigaru</title>
<path fill="none" stroke="#ebc72d" d="M939.068,-312.842C944.225,-299.564 952.194,-279.044 959.074,-261.326"/>
<polygon fill="#ebc72d" stroke="#ebc72d" points="962.402,-262.424 962.76,-251.835 955.877,-259.89 962.402,-262.424"/>
</g>
<!-- barrack&#45;&gt;standard_bearer -->
<g id="edge3" class="edge"><title>barrack&#45;&gt;standard_bearer</title>
<path fill="none" stroke="#ebc72d" d="M905.264,-313.174C893.096,-307.378 878.705,-300.587 865.645,-294.593 829.841,-278.159 819.697,-276.576 784.645,-258.593 779.722,-256.067 774.625,-253.299 769.608,-250.48"/>
<polygon fill="#ebc72d" stroke="#ebc72d" points="771.138,-247.323 760.72,-245.392 767.659,-253.398 771.138,-247.323"/>
</g>
<!-- buddhist_temple&#45;&gt;warrior_monk -->
<g id="edge10" class="edge"><title>buddhist_temple&#45;&gt;warrior_monk</title>
<path fill="none" stroke="#ebc72d" d="M1204.06,-300.683C1216.1,-287.247 1230.84,-270.795 1243.39,-256.791"/>
<polygon fill="#ebc72d" stroke="#ebc72d" points="1246.04,-259.08 1250.11,-249.297 1240.83,-254.408 1246.04,-259.08"/>
</g>
<!-- buddhist_temple&#45;&gt;medical_priest -->
<g id="edge9" class="edge"><title>buddhist_temple&#45;&gt;medical_priest</title>
<path fill="none" stroke="#ebc72d" d="M1233.94,-300.756C1238.24,-298.667 1242.51,-296.593 1246.65,-294.593 1279.93,-278.484 1289.14,-276.216 1321.65,-258.593 1326.26,-256.091 1331.04,-253.374 1335.75,-250.614"/>
<polygon fill="#ebc72d" stroke="#ebc72d" points="1337.87,-253.424 1344.68,-245.3 1334.29,-247.41 1337.87,-253.424"/>
</g>
<!-- yumi_ashigaru&#45;&gt;taketaba_archer -->
<g id="edge39" class="edge"><title>yumi_ashigaru&#45;&gt;taketaba_archer</title>
<path fill="none" stroke="#ebc72d" stroke-dasharray="5,2" d="M981.823,-198.778C986.139,-186.738 991.354,-172.189 996.034,-159.134"/>
<polygon fill="#ebc72d" stroke="#ebc72d" points="999.405,-160.103 999.485,-149.508 992.815,-157.741 999.405,-160.103"/>
</g>
<!-- peasant&#45;&gt;teppo_ashigaru -->
<g id="edge24" class="edge"><title>peasant&#45;&gt;teppo_ashigaru</title>
<path fill="none" stroke="#ebc72d" stroke-dasharray="5,2" d="M842.544,-207.796C851.586,-194.038 864.724,-174.047 875.904,-157.036"/>
<polygon fill="#ebc72d" stroke="#ebc72d" points="878.972,-158.739 881.539,-148.46 873.122,-154.895 878.972,-158.739"/>
</g>
<!-- peasant&#45;&gt;nagae_ashigaru -->
<g id="edge23" class="edge"><title>peasant&#45;&gt;nagae_ashigaru</title>
<path fill="none" stroke="#ebc72d" stroke-dasharray="5,2" d="M824.012,-207.344C818.059,-194.058 809.592,-175.164 802.223,-158.719"/>
<polygon fill="#ebc72d" stroke="#ebc72d" points="805.322,-157.075 798.039,-149.38 798.934,-159.937 805.322,-157.075"/>
</g>
<!-- peasant&#45;&gt;ikki_mob -->
<g id="edge22" class="edge"><title>peasant&#45;&gt;ikki_mob</title>
<path fill="none" stroke="#ebc72d" stroke-dasharray="5,2" d="M811.204,-210.044C803.009,-204.382 793.44,-197.877 784.645,-192.167 758.969,-175.493 729.415,-157.382 707.261,-144.015"/>
<polygon fill="#ebc72d" stroke="#ebc72d" points="708.927,-140.933 698.555,-138.776 705.318,-146.931 708.927,-140.933"/>
</g>
</g>
</svg>
