<?xml version="1.0" encoding="UTF-8" standalone="no"?>
<!DOCTYPE svg PUBLIC "-//W3C//DTD SVG 1.1//EN"
 "http://www.w3.org/Graphics/SVG/1.1/DTD/svg11.dtd">
<!-- Generated by graphviz version 2.38.0 (20140413.2041)
 -->
<!-- Title: test Pages: 1 -->
<svg width="1458pt" height="326pt"
 viewBox="0.00 0.00 1458.41 325.91" xmlns="http://www.w3.org/2000/svg" xmlns:xlink="http://www.w3.org/1999/xlink">
<g id="graph0" class="graph" transform="scale(1 1) rotate(0) translate(4 321.907)">
<title>test</title>
<polygon fill="#151515" stroke="none" points="-4,4 -4,-321.907 1454.41,-321.907 1454.41,4 -4,4"/>
<!-- farm -->
<g id="node1" class="node"><title>farm</title>
<g id="a_node1"><a xlink:href="norsemen_farm_full.html" xlink:title="Farm">
<polygon fill="none" stroke="red" points="199.208,-218.256 162.298,-230.693 125.387,-218.256 125.422,-198.131 199.173,-198.131 199.208,-218.256"/>
<text text-anchor="middle" x="162.298" y="-208.993" font-family="Times,serif" font-size="14.00" fill="#ebc72d">Farm</text>
</a>
</g>
</g>
<!-- archer -->
<g id="node6" class="node"><title>archer</title>
<g id="a_node6"><a xlink:href="norsemen_archer_full.html" xlink:title="Archer">
<ellipse fill="none" stroke="magenta" cx="216.298" cy="-116.61" rx="35.194" ry="18"/>
<text text-anchor="middle" x="216.298" y="-112.91" font-family="Times,serif" font-size="14.00" fill="#ebc72d">Archer</text>
</a>
</g>
</g>
<!-- farm&#45;&gt;archer -->
<g id="edge14" class="edge"><title>farm&#45;&gt;archer</title>
<path fill="none" stroke="#ebc72d" stroke-dasharray="1,5" d="M170.265,-197.811C178.56,-183.36 191.73,-160.414 201.862,-142.761"/>
<polygon fill="#ebc72d" stroke="#ebc72d" points="204.899,-144.501 206.841,-134.086 198.828,-141.016 204.899,-144.501"/>
</g>
<!-- flying_valkyrie -->
<g id="node15" class="node"><title>flying_valkyrie</title>
<g id="a_node15"><a xlink:href="norsemen_flying_valkyrie_full.html" xlink:title="Flying\nValkyrie">
<ellipse fill="none" stroke="magenta" cx="118.298" cy="-116.61" rx="45.011" ry="26.7407"/>
<text text-anchor="middle" x="118.298" y="-120.41" font-family="Times,serif" font-size="14.00" fill="#ebc72d">Flying</text>
<text text-anchor="middle" x="118.298" y="-105.41" font-family="Times,serif" font-size="14.00" fill="#ebc72d">Valkyrie</text>
</a>
</g>
</g>
<!-- farm&#45;&gt;flying_valkyrie -->
<g id="edge16" class="edge"><title>farm&#45;&gt;flying_valkyrie</title>
<path fill="none" stroke="#ebc72d" stroke-dasharray="1,5" d="M155.805,-197.811C150.223,-185.874 141.93,-168.141 134.56,-152.383"/>
<polygon fill="#ebc72d" stroke="#ebc72d" points="137.53,-150.472 130.123,-142.896 131.189,-153.437 137.53,-150.472"/>
</g>
<!-- cow -->
<g id="node22" class="node"><title>cow</title>
<g id="a_node22"><a xlink:href="norsemen_cow_full.html" xlink:title="Cow">
<ellipse fill="none" stroke="magenta" cx="27.2976" cy="-116.61" rx="27.0966" ry="18"/>
<text text-anchor="middle" x="27.2976" y="-112.91" font-family="Times,serif" font-size="14.00" fill="#ebc72d">Cow</text>
</a>
</g>
</g>
<!-- farm&#45;&gt;cow -->
<g id="edge15" class="edge"><title>farm&#45;&gt;cow</title>
<path fill="none" stroke="#ebc72d" d="M142.766,-198.116C122.98,-184.359 91.4998,-162.457 64.2976,-143.48 60.8263,-141.059 57.1731,-138.507 53.5693,-135.989"/>
<polygon fill="#ebc72d" stroke="#ebc72d" points="55.56,-133.11 45.3587,-130.25 51.5494,-138.848 55.56,-133.11"/>
</g>
<!-- blacksmith -->
<g id="node2" class="node"><title>blacksmith</title>
<g id="a_node2"><a xlink:href="norsemen_blacksmith_full.html" xlink:title="Blacksmith">
<polygon fill="none" stroke="red" points="554.731,-218.256 491.298,-230.693 427.865,-218.256 427.924,-198.131 554.671,-198.131 554.731,-218.256"/>
<text text-anchor="middle" x="491.298" y="-208.993" font-family="Times,serif" font-size="14.00" fill="#ebc72d">Blacksmith</text>
</a>
</g>
</g>
<!-- thor -->
<g id="node5" class="node"><title>thor</title>
<g id="a_node5"><a xlink:href="norsemen_thor_full.html" xlink:title="Thor">
<ellipse fill="none" stroke="magenta" cx="547.298" cy="-116.61" rx="27.8951" ry="18"/>
<text text-anchor="middle" x="547.298" y="-112.91" font-family="Times,serif" font-size="14.00" fill="#ebc72d">Thor</text>
</a>
</g>
</g>
<!-- blacksmith&#45;&gt;thor -->
<g id="edge6" class="edge"><title>blacksmith&#45;&gt;thor</title>
<path fill="none" stroke="#ebc72d" stroke-dasharray="1,5" d="M499.561,-197.811C508.214,-183.273 521.985,-160.138 532.517,-142.443"/>
<polygon fill="#ebc72d" stroke="#ebc72d" points="535.578,-144.143 537.685,-133.76 529.562,-140.563 535.578,-144.143"/>
</g>
<!-- valkyrie -->
<g id="node11" class="node"><title>valkyrie</title>
<g id="a_node11"><a xlink:href="norsemen_valkyrie_full.html" xlink:title="Valkyrie">
<ellipse fill="none" stroke="magenta" cx="311.298" cy="-116.61" rx="41.6928" ry="18"/>
<text text-anchor="middle" x="311.298" y="-112.91" font-family="Times,serif" font-size="14.00" fill="#ebc72d">Valkyrie</text>
</a>
</g>
</g>
<!-- blacksmith&#45;&gt;valkyrie -->
<g id="edge7" class="edge"><title>blacksmith&#45;&gt;valkyrie</title>
<path fill="none" stroke="#ebc72d" stroke-dasharray="1,5" d="M465.124,-198.013C433.618,-181.545 380.611,-153.839 345.791,-135.639"/>
<polygon fill="#ebc72d" stroke="#ebc72d" points="347.404,-132.533 336.92,-131.003 344.161,-138.737 347.404,-132.533"/>
</g>
<!-- swordman_berserk -->
<g id="node12" class="node"><title>swordman_berserk</title>
<g id="a_node12"><a xlink:href="norsemen_swordman_berserk_full.html" xlink:title="Swordman\nBerserk">
<ellipse fill="none" stroke="magenta" cx="753.298" cy="-26.8701" rx="53.9813" ry="26.7407"/>
<text text-anchor="middle" x="753.298" y="-30.6701" font-family="Times,serif" font-size="14.00" fill="#ebc72d">Swordman</text>
<text text-anchor="middle" x="753.298" y="-15.6701" font-family="Times,serif" font-size="14.00" fill="#ebc72d">Berserk</text>
</a>
</g>
</g>
<!-- blacksmith&#45;&gt;swordman_berserk -->
<g id="edge5" class="edge"><title>blacksmith&#45;&gt;swordman_berserk</title>
<path fill="none" stroke="#ebc72d" stroke-dasharray="1,5" d="M488.874,-197.815C485.343,-172.634 481.984,-119.293 510.298,-89.7401 566.738,-30.8289 612.202,-77.3443 690.298,-53.7401 694.934,-52.3386 699.701,-50.7232 704.436,-48.9981"/>
<polygon fill="#ebc72d" stroke="#ebc72d" points="705.959,-52.1634 714.062,-45.3366 703.471,-45.6207 705.959,-52.1634"/>
</g>
<!-- blacksmith&#45;&gt;flying_valkyrie -->
<g id="edge4" class="edge"><title>blacksmith&#45;&gt;flying_valkyrie</title>
<path fill="none" stroke="#ebc72d" stroke-dasharray="1,5" d="M443.815,-198.107C421.59,-191.991 394.694,-184.936 370.298,-179.48 283.011,-159.959 257.386,-171.047 172.298,-143.48 168.512,-142.254 164.651,-140.816 160.822,-139.256"/>
<polygon fill="#ebc72d" stroke="#ebc72d" points="161.997,-135.951 151.43,-135.183 159.212,-142.373 161.997,-135.951"/>
</g>
<!-- battleaxe -->
<g id="node17" class="node"><title>battleaxe</title>
<g id="a_node17"><a xlink:href="norsemen_battleaxe_full.html" xlink:title="Battleaxe">
<ellipse fill="none" stroke="magenta" cx="637.298" cy="-116.61" rx="44.393" ry="18"/>
<text text-anchor="middle" x="637.298" y="-112.91" font-family="Times,serif" font-size="14.00" fill="#ebc72d">Battleaxe</text>
</a>
</g>
</g>
<!-- blacksmith&#45;&gt;battleaxe -->
<g id="edge2" class="edge"><title>blacksmith&#45;&gt;battleaxe</title>
<path fill="none" stroke="#ebc72d" stroke-dasharray="1,5" d="M512.527,-198.013C537.076,-182.193 577.719,-156.003 605.918,-137.831"/>
<polygon fill="#ebc72d" stroke="#ebc72d" points="608.09,-140.595 614.6,-132.236 604.298,-134.711 608.09,-140.595"/>
</g>
<!-- crossbow -->
<g id="node25" class="node"><title>crossbow</title>
<g id="a_node25"><a xlink:href="norsemen_crossbow_full.html" xlink:title="Crossbow">
<ellipse fill="none" stroke="magenta" cx="417.298" cy="-116.61" rx="46.2923" ry="18"/>
<text text-anchor="middle" x="417.298" y="-112.91" font-family="Times,serif" font-size="14.00" fill="#ebc72d">Crossbow</text>
</a>
</g>
</g>
<!-- blacksmith&#45;&gt;crossbow -->
<g id="edge3" class="edge"><title>blacksmith&#45;&gt;crossbow</title>
<path fill="none" stroke="#ebc72d" d="M480.379,-197.811C468.908,-183.227 450.633,-159.993 436.699,-142.277"/>
<polygon fill="#ebc72d" stroke="#ebc72d" points="439.189,-139.782 430.256,-134.086 433.687,-144.11 439.189,-139.782"/>
</g>
<!-- valhalla -->
<g id="node3" class="node"><title>valhalla</title>
<g id="a_node3"><a xlink:href="norsemen_valhalla_full.html" xlink:title="Valhalla">
<polygon fill="none" stroke="red" points="360.917,-218.256 311.298,-230.693 261.679,-218.256 261.725,-198.131 360.87,-198.131 360.917,-218.256"/>
<text text-anchor="middle" x="311.298" y="-208.993" font-family="Times,serif" font-size="14.00" fill="#ebc72d">Valhalla</text>
</a>
</g>
</g>
<!-- valhalla&#45;&gt;valkyrie -->
<g id="edge39" class="edge"><title>valhalla&#45;&gt;valkyrie</title>
<path fill="none" stroke="#ebc72d" d="M311.298,-197.811C311.298,-183.927 311.298,-162.202 311.298,-144.863"/>
<polygon fill="#ebc72d" stroke="#ebc72d" points="314.798,-144.743 311.298,-134.743 307.798,-144.743 314.798,-144.743"/>
</g>
<!-- valhalla&#45;&gt;flying_valkyrie -->
<g id="edge38" class="edge"><title>valhalla&#45;&gt;flying_valkyrie</title>
<path fill="none" stroke="#ebc72d" d="M283.234,-198.013C251.332,-182.462 198.872,-156.889 161.69,-138.763"/>
<polygon fill="#ebc72d" stroke="#ebc72d" points="163.11,-135.562 152.588,-134.326 160.043,-141.854 163.11,-135.562"/>
</g>
<!-- wild_sow -->
<g id="node4" class="node"><title>wild_sow</title>
<g id="a_node4"><a xlink:href="norsemen_wild_sow_full.html" xlink:title="Wild\nSow">
<ellipse fill="none" stroke="magenta" cx="1419.3" cy="-116.61" rx="31.2258" ry="26.7407"/>
<text text-anchor="middle" x="1419.3" y="-120.41" font-family="Times,serif" font-size="14.00" fill="#ebc72d">Wild</text>
<text text-anchor="middle" x="1419.3" y="-105.41" font-family="Times,serif" font-size="14.00" fill="#ebc72d">Sow</text>
</a>
</g>
</g>
<!-- mead_bar -->
<g id="node7" class="node"><title>mead_bar</title>
<g id="a_node7"><a xlink:href="norsemen_mead_bar_full.html" xlink:title="Mead\nBar">
<polygon fill="none" stroke="red" points="942.205,-223.023 900.298,-246.121 858.39,-223.023 858.43,-185.65 942.166,-185.65 942.205,-223.023"/>
<text text-anchor="middle" x="900.298" y="-216.493" font-family="Times,serif" font-size="14.00" fill="#ebc72d">Mead</text>
<text text-anchor="middle" x="900.298" y="-201.493" font-family="Times,serif" font-size="14.00" fill="#ebc72d">Bar</text>
</a>
</g>
</g>
<!-- mead_bar&#45;&gt;swordman_berserk -->
<g id="edge23" class="edge"><title>mead_bar&#45;&gt;swordman_berserk</title>
<path fill="none" stroke="#ebc72d" stroke-dasharray="1,5" d="M878.486,-185.437C868.225,-172.886 855.935,-157.56 845.298,-143.48 827.664,-120.14 825.383,-112.732 807.298,-89.7401 799.309,-79.5849 790.21,-68.8662 781.786,-59.2556"/>
<polygon fill="#ebc72d" stroke="#ebc72d" points="784.156,-56.6518 774.909,-51.48 778.913,-61.2894 784.156,-56.6518"/>
</g>
<!-- spearman -->
<g id="node14" class="node"><title>spearman</title>
<g id="a_node14"><a xlink:href="norsemen_spearman_full.html" xlink:title="Spearman">
<ellipse fill="none" stroke="magenta" cx="900.298" cy="-116.61" rx="46.2923" ry="18"/>
<text text-anchor="middle" x="900.298" y="-112.91" font-family="Times,serif" font-size="14.00" fill="#ebc72d">Spearman</text>
</a>
</g>
</g>
<!-- mead_bar&#45;&gt;spearman -->
<g id="edge22" class="edge"><title>mead_bar&#45;&gt;spearman</title>
<path fill="none" stroke="#ebc72d" d="M900.298,-185.486C900.298,-172.828 900.298,-157.647 900.298,-144.855"/>
<polygon fill="#ebc72d" stroke="#ebc72d" points="903.798,-144.779 900.298,-134.779 896.798,-144.779 903.798,-144.779"/>
</g>
<!-- axe_thrower -->
<g id="node18" class="node"><title>axe_thrower</title>
<g id="a_node18"><a xlink:href="norsemen_axe_thrower_full.html" xlink:title="Axe\nThrower">
<ellipse fill="none" stroke="magenta" cx="1009.3" cy="-116.61" rx="44.5955" ry="26.7407"/>
<text text-anchor="middle" x="1009.3" y="-120.41" font-family="Times,serif" font-size="14.00" fill="#ebc72d">Axe</text>
<text text-anchor="middle" x="1009.3" y="-105.41" font-family="Times,serif" font-size="14.00" fill="#ebc72d">Thrower</text>
</a>
</g>
</g>
<!-- mead_bar&#45;&gt;axe_thrower -->
<g id="edge20" class="edge"><title>mead_bar&#45;&gt;axe_thrower</title>
<path fill="none" stroke="#ebc72d" stroke-dasharray="1,5" d="M930.66,-185.486C944.904,-173.191 961.905,-158.517 976.449,-145.963"/>
<polygon fill="#ebc72d" stroke="#ebc72d" points="978.961,-148.419 984.244,-139.235 974.387,-143.12 978.961,-148.419"/>
</g>
<!-- cudgel_lady -->
<g id="node23" class="node"><title>cudgel_lady</title>
<g id="a_node23"><a xlink:href="norsemen_cudgel_lady_full.html" xlink:title="Cudgel\nLady">
<ellipse fill="none" stroke="magenta" cx="1111.3" cy="-116.61" rx="39.6962" ry="26.7407"/>
<text text-anchor="middle" x="1111.3" y="-120.41" font-family="Times,serif" font-size="14.00" fill="#ebc72d">Cudgel</text>
<text text-anchor="middle" x="1111.3" y="-105.41" font-family="Times,serif" font-size="14.00" fill="#ebc72d">Lady</text>
</a>
</g>
</g>
<!-- mead_bar&#45;&gt;cudgel_lady -->
<g id="edge21" class="edge"><title>mead_bar&#45;&gt;cudgel_lady</title>
<path fill="none" stroke="#ebc72d" d="M942.469,-185.821C946.741,-183.557 951.065,-181.4 955.298,-179.48 1001.38,-158.582 1016.86,-163.557 1063.3,-143.48 1066.34,-142.165 1069.45,-140.727 1072.54,-139.222"/>
<polygon fill="#ebc72d" stroke="#ebc72d" points="1074.39,-142.209 1081.73,-134.571 1071.23,-135.964 1074.39,-142.209"/>
</g>
<!-- thor_totem -->
<g id="node8" class="node"><title>thor_totem</title>
<g id="a_node8"><a xlink:href="norsemen_thor_totem_full.html" xlink:title="Thor\nTotem">
<polygon fill="none" stroke="red" points="678.446,-223.023 632.298,-246.121 586.15,-223.023 586.193,-185.65 678.403,-185.65 678.446,-223.023"/>
<text text-anchor="middle" x="632.298" y="-216.493" font-family="Times,serif" font-size="14.00" fill="#ebc72d">Thor</text>
<text text-anchor="middle" x="632.298" y="-201.493" font-family="Times,serif" font-size="14.00" fill="#ebc72d">Totem</text>
</a>
</g>
</g>
<!-- thor_totem&#45;&gt;thor -->
<g id="edge28" class="edge"><title>thor_totem&#45;&gt;thor</title>
<path fill="none" stroke="#ebc72d" stroke-dasharray="5,2" d="M608.62,-185.486C595.726,-171.214 579.936,-153.736 567.607,-140.09"/>
<polygon fill="#ebc72d" stroke="#ebc72d" points="570.098,-137.626 560.797,-132.552 564.904,-142.319 570.098,-137.626"/>
</g>
<!-- swordman -->
<g id="node9" class="node"><title>swordman</title>
<g id="a_node9"><a xlink:href="norsemen_swordman_full.html" xlink:title="Swordman">
<ellipse fill="none" stroke="magenta" cx="749.298" cy="-116.61" rx="49.2915" ry="18"/>
<text text-anchor="middle" x="749.298" y="-112.91" font-family="Times,serif" font-size="14.00" fill="#ebc72d">Swordman</text>
</a>
</g>
</g>
<!-- swordman&#45;&gt;swordman_berserk -->
<g id="edge27" class="edge"><title>swordman&#45;&gt;swordman_berserk</title>
<path fill="none" stroke="#ebc72d" stroke-dasharray="5,2" d="M750.088,-98.2755C750.535,-88.4643 751.112,-75.8168 751.653,-63.9541"/>
<polygon fill="#ebc72d" stroke="#ebc72d" points="755.155,-63.9713 752.114,-53.8222 748.163,-63.6524 755.155,-63.9713"/>
</g>
<!-- mistletoe_tree -->
<g id="node10" class="node"><title>mistletoe_tree</title>
<g id="a_node10"><a xlink:href="norsemen_mistletoe_tree_full.html" xlink:title="Mistletoe\nTree">
<polygon fill="none" stroke="red" points="1255.67,-223.023 1196.3,-246.121 1136.93,-223.023 1136.98,-185.65 1255.61,-185.65 1255.67,-223.023"/>
<text text-anchor="middle" x="1196.3" y="-216.493" font-family="Times,serif" font-size="14.00" fill="#ebc72d">Mistletoe</text>
<text text-anchor="middle" x="1196.3" y="-201.493" font-family="Times,serif" font-size="14.00" fill="#ebc72d">Tree</text>
</a>
</g>
</g>
<!-- mistletoe_tree&#45;&gt;wild_sow -->
<g id="edge25" class="edge"><title>mistletoe_tree&#45;&gt;wild_sow</title>
<path fill="none" stroke="#ebc72d" d="M1250.62,-185.528C1255.55,-183.4 1260.49,-181.351 1265.3,-179.48 1314.81,-160.201 1331.23,-166.111 1379.3,-143.48 1381.89,-142.258 1384.52,-140.893 1387.12,-139.444"/>
<polygon fill="#ebc72d" stroke="#ebc72d" points="1388.98,-142.411 1395.79,-134.293 1385.4,-136.394 1388.98,-142.411"/>
</g>
<!-- speedup_cow_production -->
<g id="node26" class="node"><title>speedup_cow_production</title>
<ellipse fill="none" stroke="black" cx="1269.3" cy="-116.61" rx="100.983" ry="18"/>
<text text-anchor="middle" x="1269.3" y="-112.91" font-family="Times,serif" font-size="14.00">speedup_cow_production</text>
</g>
<!-- mistletoe_tree&#45;&gt;speedup_cow_production -->
<g id="edge24" class="edge"><title>mistletoe_tree&#45;&gt;speedup_cow_production</title>
<path fill="none" stroke="#ebc72d" stroke-dasharray="1,5" d="M1216.63,-185.486C1227.01,-172.105 1239.58,-155.907 1249.84,-142.69"/>
<polygon fill="#ebc72d" stroke="#ebc72d" points="1252.83,-144.541 1256.2,-134.495 1247.3,-140.25 1252.83,-144.541"/>
</g>
<!-- thrall -->
<g id="node13" class="node"><title>thrall</title>
<g id="a_node13"><a xlink:href="norsemen_thrall_full.html" xlink:title="Thrall">
<ellipse fill="none" stroke="magenta" cx="749.298" cy="-299.907" rx="32.4942" ry="18"/>
<text text-anchor="middle" x="749.298" y="-296.207" font-family="Times,serif" font-size="14.00" fill="#ebc72d">Thrall</text>
</a>
</g>
</g>
<!-- thrall&#45;&gt;farm -->
<g id="edge32" class="edge"><title>thrall&#45;&gt;farm</title>
<path fill="none" stroke="#ebc72d" stroke-width="2" d="M716.882,-298.104C636.954,-295.555 424.432,-285.3 252.298,-245.907 232.418,-241.357 210.887,-233.753 193.869,-227.075"/>
<polygon fill="#ebc72d" stroke="#ebc72d" stroke-width="2" points="195.002,-223.758 184.418,-223.28 192.394,-230.254 195.002,-223.758"/>
</g>
<!-- thrall&#45;&gt;blacksmith -->
<g id="edge29" class="edge"><title>thrall&#45;&gt;blacksmith</title>
<path fill="none" stroke="#ebc72d" stroke-width="2" d="M721.128,-290.786C686.925,-280.798 627.574,-263.052 577.298,-245.907 561.849,-240.638 545.003,-234.432 530.348,-228.881"/>
<polygon fill="#ebc72d" stroke="#ebc72d" stroke-width="2" points="531.187,-225.455 520.596,-225.161 528.692,-231.995 531.187,-225.455"/>
</g>
<!-- thrall&#45;&gt;valhalla -->
<g id="edge37" class="edge"><title>thrall&#45;&gt;valhalla</title>
<path fill="none" stroke="#ebc72d" stroke-width="2" d="M717.639,-295.221C658.545,-288.033 527.627,-270.65 419.298,-245.907 396.02,-240.59 370.394,-233.022 349.948,-226.558"/>
<polygon fill="#ebc72d" stroke="#ebc72d" stroke-width="2" points="350.951,-223.204 340.359,-223.487 348.816,-229.87 350.951,-223.204"/>
</g>
<!-- thrall&#45;&gt;mead_bar -->
<g id="edge34" class="edge"><title>thrall&#45;&gt;mead_bar</title>
<path fill="none" stroke="#ebc72d" stroke-width="2" d="M771.254,-286.516C795.02,-273.104 833.37,-251.462 862.098,-235.251"/>
<polygon fill="#ebc72d" stroke="#ebc72d" stroke-width="2" points="864.067,-238.158 871.056,-230.195 860.627,-232.062 864.067,-238.158"/>
</g>
<!-- thrall&#45;&gt;thor_totem -->
<g id="edge36" class="edge"><title>thrall&#45;&gt;thor_totem</title>
<path fill="none" stroke="#ebc72d" stroke-width="2" d="M730.5,-285.216C713.467,-272.811 687.934,-254.214 667.172,-239.093"/>
<polygon fill="#ebc72d" stroke="#ebc72d" stroke-width="2" points="669.041,-236.124 658.897,-233.066 664.92,-241.783 669.041,-236.124"/>
</g>
<!-- thrall&#45;&gt;mistletoe_tree -->
<g id="edge35" class="edge"><title>thrall&#45;&gt;mistletoe_tree</title>
<path fill="none" stroke="#ebc72d" stroke-width="2" d="M780.237,-294.105C835.583,-285.392 955.124,-266.01 1055.3,-245.907 1081.48,-240.652 1110.24,-234.204 1134.92,-228.461"/>
<polygon fill="#ebc72d" stroke="#ebc72d" stroke-width="2" points="1135.93,-231.819 1144.87,-226.133 1134.34,-225.003 1135.93,-231.819"/>
</g>
<!-- bone_tent -->
<g id="node19" class="node"><title>bone_tent</title>
<g id="a_node19"><a xlink:href="norsemen_bone_tent_full.html" xlink:title="Bone\nTent">
<polygon fill="none" stroke="red" points="788.461,-223.023 749.298,-246.121 710.134,-223.023 710.171,-185.65 788.425,-185.65 788.461,-223.023"/>
<text text-anchor="middle" x="749.298" y="-216.493" font-family="Times,serif" font-size="14.00" fill="#ebc72d">Bone</text>
<text text-anchor="middle" x="749.298" y="-201.493" font-family="Times,serif" font-size="14.00" fill="#ebc72d">Tent</text>
</a>
</g>
</g>
<!-- thrall&#45;&gt;bone_tent -->
<g id="edge30" class="edge"><title>thrall&#45;&gt;bone_tent</title>
<path fill="none" stroke="#ebc72d" stroke-width="2" d="M749.298,-281.663C749.298,-274.242 749.298,-265.209 749.298,-256.182"/>
<polygon fill="#ebc72d" stroke="#ebc72d" stroke-width="2" points="752.798,-256.08 749.298,-246.08 745.798,-256.08 752.798,-256.08"/>
</g>
<!-- house -->
<g id="node20" class="node"><title>house</title>
<g id="a_node20"><a xlink:href="norsemen_house_full.html" xlink:title="House">
<polygon fill="none" stroke="red" points="1046.24,-218.256 1005.3,-230.693 964.354,-218.256 964.392,-198.131 1046.2,-198.131 1046.24,-218.256"/>
<text text-anchor="middle" x="1005.3" y="-208.993" font-family="Times,serif" font-size="14.00" fill="#ebc72d">House</text>
</a>
</g>
</g>
<!-- thrall&#45;&gt;house -->
<g id="edge33" class="edge"><title>thrall&#45;&gt;house</title>
<path fill="none" stroke="#ebc72d" stroke-width="2" d="M779.942,-293.654C820.295,-286.117 892.956,-270.383 951.298,-245.907 960.861,-241.895 970.762,-236.424 979.435,-231.13"/>
<polygon fill="#ebc72d" stroke="#ebc72d" stroke-width="2" points="981.375,-234.045 987.961,-225.746 977.637,-228.126 981.375,-234.045"/>
</g>
<!-- castle -->
<g id="node21" class="node"><title>castle</title>
<g id="a_node21"><a xlink:href="norsemen_castle_full.html" xlink:title="Castle">
<polygon fill="none" stroke="red" points="1354.64,-218.256 1314.3,-230.693 1273.96,-218.256 1274,-198.131 1354.6,-198.131 1354.64,-218.256"/>
<text text-anchor="middle" x="1314.3" y="-208.993" font-family="Times,serif" font-size="14.00" fill="#ebc72d">Castle</text>
</a>
</g>
</g>
<!-- thrall&#45;&gt;castle -->
<g id="edge31" class="edge"><title>thrall&#45;&gt;castle</title>
<path fill="none" stroke="#ebc72d" stroke-width="2" d="M791.858,-297.078C898.96,-292.072 1177.29,-276.433 1264.3,-245.907 1273.5,-242.678 1282.72,-237.446 1290.69,-232.129"/>
<polygon fill="#ebc72d" stroke="#ebc72d" stroke-width="2" points="791.57,-293.588 781.741,-297.543 791.892,-300.58 791.57,-293.588"/>
<polygon fill="#ebc72d" stroke="#ebc72d" stroke-width="2" points="1292.94,-234.823 1299.09,-226.193 1288.9,-229.106 1292.94,-234.823"/>
</g>
<!-- spearman_berserk -->
<g id="node16" class="node"><title>spearman_berserk</title>
<g id="a_node16"><a xlink:href="norsemen_spearman_berserk_full.html" xlink:title="Spearman\nBerserk">
<ellipse fill="none" stroke="magenta" cx="900.298" cy="-26.8701" rx="50.41" ry="26.7407"/>
<text text-anchor="middle" x="900.298" y="-30.6701" font-family="Times,serif" font-size="14.00" fill="#ebc72d">Spearman</text>
<text text-anchor="middle" x="900.298" y="-15.6701" font-family="Times,serif" font-size="14.00" fill="#ebc72d">Berserk</text>
</a>
</g>
</g>
<!-- spearman&#45;&gt;spearman_berserk -->
<g id="edge26" class="edge"><title>spearman&#45;&gt;spearman_berserk</title>
<path fill="none" stroke="#ebc72d" stroke-dasharray="5,2" d="M900.298,-98.2755C900.298,-88.4643 900.298,-75.8168 900.298,-63.9541"/>
<polygon fill="#ebc72d" stroke="#ebc72d" points="903.798,-63.8222 900.298,-53.8222 896.798,-63.8222 903.798,-63.8222"/>
</g>
<!-- battleaxe_berserk -->
<g id="node24" class="node"><title>battleaxe_berserk</title>
<g id="a_node24"><a xlink:href="norsemen_battleaxe_berserk_full.html" xlink:title="Battleaxe\nBerserk">
<ellipse fill="none" stroke="magenta" cx="633.298" cy="-26.8701" rx="48.1667" ry="26.7407"/>
<text text-anchor="middle" x="633.298" y="-30.6701" font-family="Times,serif" font-size="14.00" fill="#ebc72d">Battleaxe</text>
<text text-anchor="middle" x="633.298" y="-15.6701" font-family="Times,serif" font-size="14.00" fill="#ebc72d">Berserk</text>
</a>
</g>
</g>
<!-- battleaxe&#45;&gt;battleaxe_berserk -->
<g id="edge1" class="edge"><title>battleaxe&#45;&gt;battleaxe_berserk</title>
<path fill="none" stroke="#ebc72d" stroke-dasharray="5,2" d="M636.507,-98.2755C636.06,-88.4643 635.483,-75.8168 634.943,-63.9541"/>
<polygon fill="#ebc72d" stroke="#ebc72d" points="638.433,-63.6524 634.481,-53.8222 631.44,-63.9713 638.433,-63.6524"/>
</g>
<!-- bone_tent&#45;&gt;archer -->
<g id="edge8" class="edge"><title>bone_tent&#45;&gt;archer</title>
<path fill="none" stroke="#ebc72d" d="M709.907,-188.315C702.596,-184.827 694.871,-181.672 687.298,-179.48 504.35,-126.547 441.797,-201.182 260.298,-143.48 255.02,-141.802 249.696,-139.402 244.664,-136.731"/>
<polygon fill="#ebc72d" stroke="#ebc72d" points="246.405,-133.695 235.993,-131.731 242.908,-139.759 246.405,-133.695"/>
</g>
<!-- bone_tent&#45;&gt;swordman -->
<g id="edge12" class="edge"><title>bone_tent&#45;&gt;swordman</title>
<path fill="none" stroke="#ebc72d" d="M749.298,-185.486C749.298,-172.828 749.298,-157.647 749.298,-144.855"/>
<polygon fill="#ebc72d" stroke="#ebc72d" points="752.798,-144.779 749.298,-134.779 745.798,-144.779 752.798,-144.779"/>
</g>
<!-- bone_tent&#45;&gt;spearman -->
<g id="edge11" class="edge"><title>bone_tent&#45;&gt;spearman</title>
<path fill="none" stroke="#ebc72d" stroke-dasharray="1,5" d="M788.577,-187.22C813.263,-171.839 844.719,-152.239 867.96,-137.759"/>
<polygon fill="#ebc72d" stroke="#ebc72d" points="870.109,-140.544 876.745,-132.285 866.407,-134.603 870.109,-140.544"/>
</g>
<!-- bone_tent&#45;&gt;battleaxe -->
<g id="edge10" class="edge"><title>bone_tent&#45;&gt;battleaxe</title>
<path fill="none" stroke="#ebc72d" d="M718.099,-185.486C701.013,-171.133 680.065,-153.536 663.781,-139.857"/>
<polygon fill="#ebc72d" stroke="#ebc72d" points="665.643,-136.85 655.735,-133.098 661.141,-142.21 665.643,-136.85"/>
</g>
<!-- bone_tent&#45;&gt;axe_thrower -->
<g id="edge9" class="edge"><title>bone_tent&#45;&gt;axe_thrower</title>
<path fill="none" stroke="#ebc72d" d="M788.828,-198.903C844.119,-180.968 939.574,-149.82 955.298,-143.48 958.988,-141.992 962.783,-140.371 966.567,-138.689"/>
<polygon fill="#ebc72d" stroke="#ebc72d" points="968.251,-141.767 975.89,-134.426 965.34,-135.401 968.251,-141.767"/>
</g>
<!-- house&#45;&gt;spearman -->
<g id="edge19" class="edge"><title>house&#45;&gt;spearman</title>
<path fill="none" stroke="#ebc72d" d="M989.804,-197.811C972.883,-182.649 945.526,-158.136 925.505,-140.197"/>
<polygon fill="#ebc72d" stroke="#ebc72d" points="927.744,-137.504 917.961,-133.437 923.073,-142.717 927.744,-137.504"/>
</g>
<!-- house&#45;&gt;axe_thrower -->
<g id="edge17" class="edge"><title>house&#45;&gt;axe_thrower</title>
<path fill="none" stroke="#ebc72d" stroke-dasharray="1,5" d="M1005.89,-197.811C1006.38,-186.266 1007.1,-169.298 1007.75,-153.939"/>
<polygon fill="#ebc72d" stroke="#ebc72d" points="1011.26,-153.789 1008.19,-143.65 1004.27,-153.492 1011.26,-153.789"/>
</g>
<!-- house&#45;&gt;cudgel_lady -->
<g id="edge18" class="edge"><title>house&#45;&gt;cudgel_lady</title>
<path fill="none" stroke="#ebc72d" d="M1020.94,-197.811C1036.43,-184.064 1060.58,-162.63 1080.01,-145.378"/>
<polygon fill="#ebc72d" stroke="#ebc72d" points="1082.59,-147.772 1087.74,-138.516 1077.94,-142.536 1082.59,-147.772"/>
</g>
</g>
</svg>
