<?xml version="1.0" encoding="UTF-8" standalone="no"?>
<!DOCTYPE svg PUBLIC "-//W3C//DTD SVG 1.1//EN"
 "http://www.w3.org/Graphics/SVG/1.1/DTD/svg11.dtd">
<!-- Generated by graphviz version 2.38.0 (20140413.2041)
 -->
<!-- Title: test Pages: 1 -->
<svg width="1185pt" height="764pt"
 viewBox="0.00 0.00 1184.70 764.33" xmlns="http://www.w3.org/2000/svg" xmlns:xlink="http://www.w3.org/1999/xlink">
<g id="graph0" class="graph" transform="scale(1 1) rotate(0) translate(4 760.333)">
<title>test</title>
<polygon fill="#151515" stroke="none" points="-4,4 -4,-760.333 1180.7,-760.333 1180.7,4 -4,4"/>
<!-- farm -->
<g id="node1" class="node"><title>farm</title>
<g id="a_node1"><a xlink:href="norsemen_farm_full.html" xlink:title="Farm">
<polygon fill="none" stroke="red" points="138.011,-554.256 101.101,-566.693 64.1903,-554.256 64.2247,-534.131 137.977,-534.131 138.011,-554.256"/>
<text text-anchor="middle" x="101.101" y="-544.993" font-family="Times,serif" font-size="14.00" fill="#ebc72d">Farm</text>
</a>
</g>
</g>
<!-- archer -->
<g id="node6" class="node"><title>archer</title>
<g id="a_node6"><a xlink:href="norsemen_archer_full.html" xlink:title="Archer">
<ellipse fill="none" stroke="magenta" cx="374.101" cy="-452.61" rx="35.194" ry="18"/>
<text text-anchor="middle" x="374.101" y="-448.91" font-family="Times,serif" font-size="14.00" fill="#ebc72d">Archer</text>
</a>
</g>
</g>
<!-- farm&#45;&gt;archer -->
<g id="edge17" class="edge"><title>farm&#45;&gt;archer</title>
<path fill="none" stroke="#ebc72d" stroke-dasharray="1,5" d="M138.203,-534.907C190.111,-517.018 283.904,-484.694 336.225,-466.663"/>
<polygon fill="#ebc72d" stroke="#ebc72d" points="337.488,-469.93 345.802,-463.363 335.207,-463.312 337.488,-469.93"/>
</g>
<!-- flying_valkyrie -->
<g id="node15" class="node"><title>flying_valkyrie</title>
<g id="a_node15"><a xlink:href="norsemen_flying_valkyrie_full.html" xlink:title="Flying\nValkyrie">
<ellipse fill="none" stroke="magenta" cx="125.101" cy="-26.8701" rx="45.011" ry="26.7407"/>
<text text-anchor="middle" x="125.101" y="-30.6701" font-family="Times,serif" font-size="14.00" fill="#ebc72d">Flying</text>
<text text-anchor="middle" x="125.101" y="-15.6701" font-family="Times,serif" font-size="14.00" fill="#ebc72d">Valkyrie</text>
</a>
</g>
</g>
<!-- farm&#45;&gt;flying_valkyrie -->
<g id="edge19" class="edge"><title>farm&#45;&gt;flying_valkyrie</title>
<path fill="none" stroke="#ebc72d" stroke-dasharray="1,5" d="M94.6335,-534.106C68.3383,-476.797 -25.6268,-250.379 50.1006,-89.7401 57.3724,-74.3146 70.5859,-61.4282 83.9186,-51.4793"/>
<polygon fill="#ebc72d" stroke="#ebc72d" points="86.0164,-54.2829 92.1835,-45.6679 81.9901,-48.5568 86.0164,-54.2829"/>
</g>
<!-- cow -->
<g id="node22" class="node"><title>cow</title>
<g id="a_node22"><a xlink:href="norsemen_cow_full.html" xlink:title="Cow">
<ellipse fill="none" stroke="magenta" cx="115.101" cy="-452.61" rx="27.0966" ry="18"/>
<text text-anchor="middle" x="115.101" y="-448.91" font-family="Times,serif" font-size="14.00" fill="#ebc72d">Cow</text>
</a>
</g>
</g>
<!-- farm&#45;&gt;cow -->
<g id="edge18" class="edge"><title>farm&#45;&gt;cow</title>
<path fill="none" stroke="#ebc72d" d="M103.166,-533.811C105.232,-519.927 108.465,-498.202 111.045,-480.863"/>
<polygon fill="#ebc72d" stroke="#ebc72d" points="114.541,-481.15 112.551,-470.743 107.617,-480.119 114.541,-481.15"/>
</g>
<!-- speedup_cow_production -->
<g id="node32" class="node"><title>speedup_cow_production</title>
<g id="a_node32"><a xlink:href="norsemen_speedup_cow_production_full.html" xlink:title="Speedup\nCow Production">
<polygon fill="none" stroke="green" points="475.819,-277.74 302.872,-277.74 258.382,-201.74 431.329,-201.74 475.819,-277.74"/>
<text text-anchor="middle" x="367.101" y="-243.54" font-family="Times,serif" font-size="14.00" fill="#ebc72d">Speedup</text>
<text text-anchor="middle" x="367.101" y="-228.54" font-family="Times,serif" font-size="14.00" fill="#ebc72d">Cow Production</text>
</a>
</g>
</g>
<!-- farm&#45;&gt;speedup_cow_production -->
<g id="edge20" class="edge"><title>farm&#45;&gt;speedup_cow_production</title>
<path fill="none" stroke="#ebc72d" d="M113.888,-533.883C125.302,-520.818 141.635,-500.177 151.101,-479.48 182.533,-410.754 140.213,-371.372 189.101,-313.74 202.502,-297.941 244.715,-280.312 284.668,-266.336"/>
<polygon fill="#ebc72d" stroke="#ebc72d" points="285.901,-269.613 294.217,-263.048 283.622,-262.995 285.901,-269.613"/>
</g>
<!-- blacksmith -->
<g id="node2" class="node"><title>blacksmith</title>
<g id="a_node2"><a xlink:href="norsemen_blacksmith_full.html" xlink:title="Blacksmith">
<polygon fill="none" stroke="red" points="675.534,-458.172 612.101,-470.61 548.668,-458.172 548.727,-438.048 675.474,-438.048 675.534,-458.172"/>
<text text-anchor="middle" x="612.101" y="-448.91" font-family="Times,serif" font-size="14.00" fill="#ebc72d">Blacksmith</text>
</a>
</g>
</g>
<!-- thor -->
<g id="node5" class="node"><title>thor</title>
<g id="a_node5"><a xlink:href="norsemen_thor_full.html" xlink:title="Thor">
<ellipse fill="none" stroke="magenta" cx="226.101" cy="-351.74" rx="27.8951" ry="18"/>
<text text-anchor="middle" x="226.101" y="-348.04" font-family="Times,serif" font-size="14.00" fill="#ebc72d">Thor</text>
</a>
</g>
</g>
<!-- blacksmith&#45;&gt;thor -->
<g id="edge9" class="edge"><title>blacksmith&#45;&gt;thor</title>
<path fill="none" stroke="#ebc72d" stroke-dasharray="1,5" d="M548.471,-442.447C454.763,-428.634 287.998,-402.715 263.101,-389.74 256.497,-386.299 250.329,-381.268 244.995,-376.018"/>
<polygon fill="#ebc72d" stroke="#ebc72d" points="247.203,-373.254 237.822,-368.33 242.084,-378.029 247.203,-373.254"/>
</g>
<!-- mistletoe_tree -->
<g id="node10" class="node"><title>mistletoe_tree</title>
<g id="a_node10"><a xlink:href="norsemen_mistletoe_tree_full.html" xlink:title="Mistletoe\nTree">
<polygon fill="none" stroke="red" points="556.469,-362.07 497.101,-385.168 437.732,-362.07 437.788,-324.696 556.414,-324.696 556.469,-362.07"/>
<text text-anchor="middle" x="497.101" y="-355.54" font-family="Times,serif" font-size="14.00" fill="#ebc72d">Mistletoe</text>
<text text-anchor="middle" x="497.101" y="-340.54" font-family="Times,serif" font-size="14.00" fill="#ebc72d">Tree</text>
</a>
</g>
</g>
<!-- blacksmith&#45;&gt;mistletoe_tree -->
<g id="edge8" class="edge"><title>blacksmith&#45;&gt;mistletoe_tree</title>
<path fill="none" stroke="#ebc72d" stroke-dasharray="1,5" d="M596.11,-437.863C579.291,-423.402 552.324,-400.218 530.779,-381.695"/>
<polygon fill="#ebc72d" stroke="#ebc72d" points="532.98,-378.971 523.115,-375.106 528.416,-384.279 532.98,-378.971"/>
</g>
<!-- battleaxe -->
<g id="node17" class="node"><title>battleaxe</title>
<g id="a_node17"><a xlink:href="norsemen_battleaxe_full.html" xlink:title="Battleaxe">
<ellipse fill="none" stroke="magenta" cx="867.101" cy="-351.74" rx="44.393" ry="18"/>
<text text-anchor="middle" x="867.101" y="-348.04" font-family="Times,serif" font-size="14.00" fill="#ebc72d">Battleaxe</text>
</a>
</g>
</g>
<!-- blacksmith&#45;&gt;battleaxe -->
<g id="edge5" class="edge"><title>blacksmith&#45;&gt;battleaxe</title>
<path fill="none" stroke="#ebc72d" stroke-dasharray="1,5" d="M651.984,-437.935C663.897,-433.924 677.005,-429.585 689.101,-425.74 742.166,-408.871 758.48,-412.934 809.101,-389.74 818.955,-385.225 829.111,-379.262 838.117,-373.444"/>
<polygon fill="#ebc72d" stroke="#ebc72d" points="840.305,-376.192 846.685,-367.734 836.423,-370.367 840.305,-376.192"/>
</g>
<!-- crossbow -->
<g id="node25" class="node"><title>crossbow</title>
<g id="a_node25"><a xlink:href="norsemen_crossbow_full.html" xlink:title="Crossbow">
<ellipse fill="none" stroke="magenta" cx="747.101" cy="-239.74" rx="46.2923" ry="18"/>
<text text-anchor="middle" x="747.101" y="-236.04" font-family="Times,serif" font-size="14.00" fill="#ebc72d">Crossbow</text>
</a>
</g>
</g>
<!-- blacksmith&#45;&gt;crossbow -->
<g id="edge6" class="edge"><title>blacksmith&#45;&gt;crossbow</title>
<path fill="none" stroke="#ebc72d" d="M651.46,-438.023C698.778,-421.505 772.358,-395.153 776.101,-389.74 801.775,-352.614 780.111,-298.468 762.962,-266.696"/>
<polygon fill="#ebc72d" stroke="#ebc72d" points="765.796,-264.596 757.842,-257.598 759.696,-268.029 765.796,-264.596"/>
</g>
<!-- iron -->
<g id="node26" class="node"><title>iron</title>
<g id="a_node26"><a xlink:href="norsemen_iron_full.html" xlink:title="Iron">
<polygon fill="none" stroke="green" points="649.431,-369.74 590.047,-369.74 574.771,-333.74 634.154,-333.74 649.431,-369.74"/>
<text text-anchor="middle" x="612.101" y="-348.04" font-family="Times,serif" font-size="14.00" fill="#ebc72d">Iron</text>
</a>
</g>
</g>
<!-- blacksmith&#45;&gt;iron -->
<g id="edge7" class="edge"><title>blacksmith&#45;&gt;iron</title>
<path fill="none" stroke="#ebc72d" d="M612.101,-437.863C612.101,-422.979 612.101,-398.854 612.101,-380.08"/>
<polygon fill="#ebc72d" stroke="#ebc72d" points="615.601,-380.026 612.101,-370.026 608.601,-380.026 615.601,-380.026"/>
</g>
<!-- arrow -->
<g id="node30" class="node"><title>arrow</title>
<g id="a_node30"><a xlink:href="norsemen_arrow_full.html" xlink:title="Arrow">
<polygon fill="none" stroke="green" points="766.706,-369.74 687.795,-369.74 667.495,-333.74 746.407,-333.74 766.706,-369.74"/>
<text text-anchor="middle" x="717.101" y="-348.04" font-family="Times,serif" font-size="14.00" fill="#ebc72d">Arrow</text>
</a>
</g>
</g>
<!-- blacksmith&#45;&gt;arrow -->
<g id="edge4" class="edge"><title>blacksmith&#45;&gt;arrow</title>
<path fill="none" stroke="#ebc72d" d="M626.7,-437.863C643.389,-422.148 671.019,-396.132 691.348,-376.99"/>
<polygon fill="#ebc72d" stroke="#ebc72d" points="693.862,-379.429 698.743,-370.026 689.064,-374.333 693.862,-379.429"/>
</g>
<!-- advanced_iron -->
<g id="node31" class="node"><title>advanced_iron</title>
<g id="a_node31"><a xlink:href="norsemen_advanced_iron_full.html" xlink:title="Advanced\nIron">
<polygon fill="none" stroke="green" points="419.82,-389.74 302.549,-389.74 272.382,-313.74 389.652,-313.74 419.82,-389.74"/>
<text text-anchor="middle" x="346.101" y="-355.54" font-family="Times,serif" font-size="14.00" fill="#ebc72d">Advanced</text>
<text text-anchor="middle" x="346.101" y="-340.54" font-family="Times,serif" font-size="14.00" fill="#ebc72d">Iron</text>
</a>
</g>
</g>
<!-- blacksmith&#45;&gt;advanced_iron -->
<g id="edge3" class="edge"><title>blacksmith&#45;&gt;advanced_iron</title>
<path fill="none" stroke="#ebc72d" d="M568.057,-437.993C530.729,-426.15 475.954,-408.057 429.101,-389.74 428.66,-389.568 428.218,-389.394 427.775,-389.22"/>
<polygon fill="#ebc72d" stroke="#ebc72d" points="428.944,-385.918 418.36,-385.429 426.329,-392.411 428.944,-385.918"/>
</g>
<!-- valhalla -->
<g id="node3" class="node"><title>valhalla</title>
<g id="a_node3"><a xlink:href="norsemen_valhalla_full.html" xlink:title="Valhalla">
<polygon fill="none" stroke="red" points="239.72,-245.302 190.101,-257.74 140.482,-245.302 140.528,-225.178 239.673,-225.178 239.72,-245.302"/>
<text text-anchor="middle" x="190.101" y="-236.04" font-family="Times,serif" font-size="14.00" fill="#ebc72d">Valhalla</text>
</a>
</g>
</g>
<!-- valkyrie -->
<g id="node11" class="node"><title>valkyrie</title>
<g id="a_node11"><a xlink:href="norsemen_valkyrie_full.html" xlink:title="Valkyrie">
<ellipse fill="none" stroke="magenta" cx="289.101" cy="-127.74" rx="41.6928" ry="18"/>
<text text-anchor="middle" x="289.101" y="-124.04" font-family="Times,serif" font-size="14.00" fill="#ebc72d">Valkyrie</text>
</a>
</g>
</g>
<!-- valhalla&#45;&gt;valkyrie -->
<g id="edge55" class="edge"><title>valhalla&#45;&gt;valkyrie</title>
<path fill="none" stroke="#ebc72d" d="M202.639,-224.809C219.043,-206.582 248.03,-174.374 267.883,-152.316"/>
<polygon fill="#ebc72d" stroke="#ebc72d" points="270.655,-154.467 274.743,-144.693 265.452,-149.784 270.655,-154.467"/>
</g>
<!-- valhalla&#45;&gt;flying_valkyrie -->
<g id="edge53" class="edge"><title>valhalla&#45;&gt;flying_valkyrie</title>
<path fill="none" stroke="#ebc72d" d="M195.35,-224.76C204.746,-197.345 221.548,-135.235 200.101,-89.7401 192.829,-74.3146 179.615,-61.4282 166.283,-51.4793"/>
<polygon fill="#ebc72d" stroke="#ebc72d" points="168.211,-48.5568 158.018,-45.6679 164.185,-54.2829 168.211,-48.5568"/>
</g>
<!-- holy_valkyrie -->
<g id="node27" class="node"><title>holy_valkyrie</title>
<g id="a_node27"><a xlink:href="norsemen_holy_valkyrie_full.html" xlink:title="Holy\nValkyrie">
<polygon fill="none" stroke="green" points="191.305,-165.74 85.9885,-165.74 58.8959,-89.7401 164.213,-89.7401 191.305,-165.74"/>
<text text-anchor="middle" x="125.101" y="-131.54" font-family="Times,serif" font-size="14.00" fill="#ebc72d">Holy</text>
<text text-anchor="middle" x="125.101" y="-116.54" font-family="Times,serif" font-size="14.00" fill="#ebc72d">Valkyrie</text>
</a>
</g>
</g>
<!-- valhalla&#45;&gt;holy_valkyrie -->
<g id="edge54" class="edge"><title>valhalla&#45;&gt;holy_valkyrie</title>
<path fill="none" stroke="#ebc72d" d="M181.868,-224.809C174.412,-212.189 162.995,-192.869 152.35,-174.855"/>
<polygon fill="#ebc72d" stroke="#ebc72d" points="155.308,-172.98 147.207,-166.151 149.281,-176.541 155.308,-172.98"/>
</g>
<!-- wild_sow -->
<g id="node4" class="node"><title>wild_sow</title>
<g id="a_node4"><a xlink:href="norsemen_wild_sow_full.html" xlink:title="Wild\nSow">
<ellipse fill="none" stroke="magenta" cx="525.101" cy="-239.74" rx="31.2258" ry="26.7407"/>
<text text-anchor="middle" x="525.101" y="-243.54" font-family="Times,serif" font-size="14.00" fill="#ebc72d">Wild</text>
<text text-anchor="middle" x="525.101" y="-228.54" font-family="Times,serif" font-size="14.00" fill="#ebc72d">Sow</text>
</a>
</g>
</g>
<!-- mead_bar -->
<g id="node7" class="node"><title>mead_bar</title>
<g id="a_node7"><a xlink:href="norsemen_mead_bar_full.html" xlink:title="Mead\nBar">
<polygon fill="none" stroke="red" points="857.008,-559.023 815.101,-582.121 773.194,-559.023 773.233,-521.65 856.969,-521.65 857.008,-559.023"/>
<text text-anchor="middle" x="815.101" y="-552.493" font-family="Times,serif" font-size="14.00" fill="#ebc72d">Mead</text>
<text text-anchor="middle" x="815.101" y="-537.493" font-family="Times,serif" font-size="14.00" fill="#ebc72d">Bar</text>
</a>
</g>
</g>
<!-- mead_bar&#45;&gt;mistletoe_tree -->
<g id="edge32" class="edge"><title>mead_bar&#45;&gt;mistletoe_tree</title>
<path fill="none" stroke="#ebc72d" stroke-dasharray="1,5" d="M828.654,-521.475C840.633,-494.214 852.966,-451.935 830.101,-425.74 791.164,-381.134 622.418,-408.021 566.101,-389.74 556.697,-386.688 547.067,-382.383 538.098,-377.784"/>
<polygon fill="#ebc72d" stroke="#ebc72d" points="539.496,-374.562 529.029,-372.925 536.19,-380.733 539.496,-374.562"/>
</g>
<!-- spearman -->
<g id="node14" class="node"><title>spearman</title>
<g id="a_node14"><a xlink:href="norsemen_spearman_full.html" xlink:title="Spearman">
<ellipse fill="none" stroke="magenta" cx="1033.1" cy="-452.61" rx="46.2923" ry="18"/>
<text text-anchor="middle" x="1033.1" y="-448.91" font-family="Times,serif" font-size="14.00" fill="#ebc72d">Spearman</text>
</a>
</g>
</g>
<!-- mead_bar&#45;&gt;spearman -->
<g id="edge33" class="edge"><title>mead_bar&#45;&gt;spearman</title>
<path fill="none" stroke="#ebc72d" d="M857.191,-530.665C890.232,-517.157 937.309,-497.599 978.101,-479.48 983.923,-476.894 990.058,-474.089 996.035,-471.312"/>
<polygon fill="#ebc72d" stroke="#ebc72d" points="997.657,-474.417 1005.23,-467.006 994.688,-468.078 997.657,-474.417"/>
</g>
<!-- axe_thrower -->
<g id="node18" class="node"><title>axe_thrower</title>
<g id="a_node18"><a xlink:href="norsemen_axe_thrower_full.html" xlink:title="Axe\nThrower">
<ellipse fill="none" stroke="magenta" cx="776.101" cy="-452.61" rx="44.5955" ry="26.7407"/>
<text text-anchor="middle" x="776.101" y="-456.41" font-family="Times,serif" font-size="14.00" fill="#ebc72d">Axe</text>
<text text-anchor="middle" x="776.101" y="-441.41" font-family="Times,serif" font-size="14.00" fill="#ebc72d">Thrower</text>
</a>
</g>
</g>
<!-- mead_bar&#45;&gt;axe_thrower -->
<g id="edge29" class="edge"><title>mead_bar&#45;&gt;axe_thrower</title>
<path fill="none" stroke="#ebc72d" stroke-dasharray="1,5" d="M804.237,-521.486C799.983,-511.225 795.043,-499.307 790.5,-488.347"/>
<polygon fill="#ebc72d" stroke="#ebc72d" points="793.7,-486.925 786.637,-479.028 787.233,-489.606 793.7,-486.925"/>
</g>
<!-- cudgel_lady -->
<g id="node23" class="node"><title>cudgel_lady</title>
<g id="a_node23"><a xlink:href="norsemen_cudgel_lady_full.html" xlink:title="Cudgel\nLady">
<ellipse fill="none" stroke="magenta" cx="1137.1" cy="-452.61" rx="39.6962" ry="26.7407"/>
<text text-anchor="middle" x="1137.1" y="-456.41" font-family="Times,serif" font-size="14.00" fill="#ebc72d">Cudgel</text>
<text text-anchor="middle" x="1137.1" y="-441.41" font-family="Times,serif" font-size="14.00" fill="#ebc72d">Lady</text>
</a>
</g>
</g>
<!-- mead_bar&#45;&gt;cudgel_lady -->
<g id="edge30" class="edge"><title>mead_bar&#45;&gt;cudgel_lady</title>
<path fill="none" stroke="#ebc72d" d="M857.218,-540.441C911.68,-530.328 1008.93,-509.76 1088.1,-479.48 1091.54,-478.166 1095.04,-476.667 1098.51,-475.067"/>
<polygon fill="#ebc72d" stroke="#ebc72d" points="1100.11,-478.181 1107.57,-470.658 1097.05,-471.887 1100.11,-478.181"/>
</g>
<!-- mead -->
<g id="node28" class="node"><title>mead</title>
<g id="a_node28"><a xlink:href="norsemen_mead_full.html" xlink:title="Mead">
<polygon fill="none" stroke="green" points="969.084,-470.61 895.935,-470.61 877.117,-434.61 950.267,-434.61 969.084,-470.61"/>
<text text-anchor="middle" x="923.101" y="-448.91" font-family="Times,serif" font-size="14.00" fill="#ebc72d">Mead</text>
</a>
</g>
</g>
<!-- mead_bar&#45;&gt;mead -->
<g id="edge31" class="edge"><title>mead_bar&#45;&gt;mead</title>
<path fill="none" stroke="#ebc72d" d="M845.185,-521.486C861.023,-507.688 880.302,-490.894 895.72,-477.463"/>
<polygon fill="#ebc72d" stroke="#ebc72d" points="898.151,-479.987 903.392,-470.779 893.553,-474.709 898.151,-479.987"/>
</g>
<!-- thor_totem -->
<g id="node8" class="node"><title>thor_totem</title>
<g id="a_node8"><a xlink:href="norsemen_thor_totem_full.html" xlink:title="Thor\nTotem">
<polygon fill="none" stroke="red" points="450.249,-661.45 404.101,-684.548 357.953,-661.45 357.996,-624.076 450.206,-624.076 450.249,-661.45"/>
<text text-anchor="middle" x="404.101" y="-654.92" font-family="Times,serif" font-size="14.00" fill="#ebc72d">Thor</text>
<text text-anchor="middle" x="404.101" y="-639.92" font-family="Times,serif" font-size="14.00" fill="#ebc72d">Totem</text>
</a>
</g>
</g>
<!-- thor_totem&#45;&gt;thor -->
<g id="edge43" class="edge"><title>thor_totem&#45;&gt;thor</title>
<path fill="none" stroke="#ebc72d" stroke-dasharray="5,2" d="M388.46,-623.99C354.458,-567.183 274.193,-433.086 240.935,-377.523"/>
<polygon fill="#ebc72d" stroke="#ebc72d" points="243.792,-375.482 235.653,-368.699 237.786,-379.077 243.792,-375.482"/>
</g>
<!-- swordman -->
<g id="node9" class="node"><title>swordman</title>
<g id="a_node9"><a xlink:href="norsemen_swordman_full.html" xlink:title="Swordman">
<ellipse fill="none" stroke="magenta" cx="898.101" cy="-239.74" rx="49.2915" ry="18"/>
<text text-anchor="middle" x="898.101" y="-236.04" font-family="Times,serif" font-size="14.00" fill="#ebc72d">Swordman</text>
</a>
</g>
</g>
<!-- swordman_berserk -->
<g id="node12" class="node"><title>swordman_berserk</title>
<g id="a_node12"><a xlink:href="norsemen_swordman_berserk_full.html" xlink:title="Swordman\nBerserk">
<ellipse fill="none" stroke="magenta" cx="898.101" cy="-127.74" rx="53.9813" ry="26.7407"/>
<text text-anchor="middle" x="898.101" y="-131.54" font-family="Times,serif" font-size="14.00" fill="#ebc72d">Swordman</text>
<text text-anchor="middle" x="898.101" y="-116.54" font-family="Times,serif" font-size="14.00" fill="#ebc72d">Berserk</text>
</a>
</g>
</g>
<!-- swordman&#45;&gt;swordman_berserk -->
<g id="edge42" class="edge"><title>swordman&#45;&gt;swordman_berserk</title>
<path fill="none" stroke="#ebc72d" stroke-dasharray="5,2" d="M898.101,-221.553C898.101,-206.462 898.101,-184.009 898.101,-164.968"/>
<polygon fill="#ebc72d" stroke="#ebc72d" points="901.601,-164.809 898.101,-154.809 894.601,-164.809 901.601,-164.809"/>
</g>
<!-- mistletoe_tree&#45;&gt;valhalla -->
<g id="edge36" class="edge"><title>mistletoe_tree&#45;&gt;valhalla</title>
<path fill="none" stroke="#ebc72d" stroke-dasharray="1,5" d="M453.741,-324.658C445.739,-320.569 437.313,-316.718 429.101,-313.74 352.403,-285.929 324.903,-307.907 249.101,-277.74 237.371,-273.072 225.395,-266.057 215.324,-259.385"/>
<polygon fill="#ebc72d" stroke="#ebc72d" points="217.243,-256.457 207.019,-253.679 213.279,-262.227 217.243,-256.457"/>
</g>
<!-- mistletoe_tree&#45;&gt;wild_sow -->
<g id="edge37" class="edge"><title>mistletoe_tree&#45;&gt;wild_sow</title>
<path fill="none" stroke="#ebc72d" d="M503.736,-324.672C507.424,-310.183 512.065,-291.951 516.079,-276.183"/>
<polygon fill="#ebc72d" stroke="#ebc72d" points="519.534,-276.796 518.609,-266.242 512.751,-275.07 519.534,-276.796"/>
</g>
<!-- root -->
<g id="node29" class="node"><title>root</title>
<g id="a_node29"><a xlink:href="norsemen_root_full.html" xlink:title="Root">
<polygon fill="none" stroke="green" points="683.053,-257.74 617.907,-257.74 601.148,-221.74 666.295,-221.74 683.053,-257.74"/>
<text text-anchor="middle" x="642.101" y="-236.04" font-family="Times,serif" font-size="14.00" fill="#ebc72d">Root</text>
</a>
</g>
</g>
<!-- mistletoe_tree&#45;&gt;root -->
<g id="edge34" class="edge"><title>mistletoe_tree&#45;&gt;root</title>
<path fill="none" stroke="#ebc72d" d="M531.464,-324.672C555.63,-306.339 587.699,-282.01 611.087,-264.268"/>
<polygon fill="#ebc72d" stroke="#ebc72d" points="613.428,-266.885 619.28,-258.052 609.198,-261.308 613.428,-266.885"/>
</g>
<!-- mistletoe_tree&#45;&gt;speedup_cow_production -->
<g id="edge35" class="edge"><title>mistletoe_tree&#45;&gt;speedup_cow_production</title>
<path fill="none" stroke="#ebc72d" stroke-dasharray="1,5" d="M466.292,-324.672C452.097,-312.66 434.86,-298.075 418.763,-284.455"/>
<polygon fill="#ebc72d" stroke="#ebc72d" points="420.866,-281.649 410.971,-277.861 416.344,-286.993 420.866,-281.649"/>
</g>
<!-- thrall -->
<g id="node13" class="node"><title>thrall</title>
<g id="a_node13"><a xlink:href="norsemen_thrall_full.html" xlink:title="Thrall">
<ellipse fill="none" stroke="magenta" cx="612.101" cy="-738.333" rx="32.4942" ry="18"/>
<text text-anchor="middle" x="612.101" y="-734.633" font-family="Times,serif" font-size="14.00" fill="#ebc72d">Thrall</text>
</a>
</g>
</g>
<!-- thrall&#45;&gt;farm -->
<g id="edge47" class="edge"><title>thrall&#45;&gt;farm</title>
<path fill="none" stroke="#ebc72d" stroke-width="2" d="M22.1006,-650.12C3.36378,-617.993 43.0521,-584.873 72.6758,-565.84"/>
<polygon fill="#ebc72d" stroke="#ebc72d" stroke-width="2" points="74.8056,-568.638 81.4704,-560.402 71.1242,-562.685 74.8056,-568.638"/>
</g>
<!-- thrall&#45;&gt;blacksmith -->
<g id="edge44" class="edge"><title>thrall&#45;&gt;blacksmith</title>
<path fill="none" stroke="#ebc72d" stroke-width="2" d="M612.101,-547.693C607.106,-525.476 607.551,-499.555 608.993,-480.553"/>
<polygon fill="#ebc72d" stroke="#ebc72d" stroke-width="2" points="612.486,-480.783 609.896,-470.51 605.514,-480.157 612.486,-480.783"/>
</g>
<!-- thrall&#45;&gt;valhalla -->
<g id="edge52" class="edge"><title>thrall&#45;&gt;valhalla</title>
<path fill="none" stroke="#ebc72d" stroke-width="2" d="M579.663,-735.527C460.253,-728.504 50.5818,-700.955 22.1006,-652.12"/>
<path fill="none" stroke="#ebc72d" stroke-width="2" d="M22.1006,-650.12C-59.3699,-510.428 106.724,-323.678 168.342,-261.703"/>
<polygon fill="#ebc72d" stroke="#ebc72d" stroke-width="2" points="171.018,-263.979 175.648,-254.45 166.086,-259.012 171.018,-263.979"/>
</g>
<!-- thrall&#45;&gt;mead_bar -->
<g id="edge49" class="edge"><title>thrall&#45;&gt;mead_bar</title>
<path fill="none" stroke="#ebc72d" stroke-width="2" d="M612.101,-650.12C617.977,-634.572 618.35,-628.57 631.101,-617.907 631.278,-617.758 715.806,-586.451 770.218,-566.307"/>
<polygon fill="#ebc72d" stroke="#ebc72d" stroke-width="2" points="771.505,-569.563 779.668,-562.808 769.075,-562.998 771.505,-569.563"/>
</g>
<!-- thrall&#45;&gt;thor_totem -->
<g id="edge51" class="edge"><title>thrall&#45;&gt;thor_totem</title>
<path fill="none" stroke="#ebc72d" stroke-width="2" d="M586.596,-726.884C552.478,-712.907 491.416,-687.891 449.385,-670.672"/>
<polygon fill="#ebc72d" stroke="#ebc72d" stroke-width="2" points="450.512,-667.351 439.931,-666.799 447.858,-673.829 450.512,-667.351"/>
</g>
<!-- thrall&#45;&gt;mistletoe_tree -->
<g id="edge50" class="edge"><title>thrall&#45;&gt;mistletoe_tree</title>
<path fill="none" stroke="#ebc72d" stroke-width="2" d="M608.673,-720.371C605.878,-702.707 603.627,-674.538 612.101,-652.12"/>
<path fill="none" stroke="#ebc72d" stroke-width="2" d="M612.101,-650.12C627.881,-608.369 621.89,-593.241 612.101,-549.693"/>
<path fill="none" stroke="#ebc72d" stroke-width="2" d="M612.101,-547.693C602.432,-504.686 563.879,-516.598 540.101,-479.48 523.116,-452.967 512.064,-419.01 505.423,-392.919"/>
<polygon fill="#ebc72d" stroke="#ebc72d" stroke-width="2" points="508.77,-391.871 503.008,-382.98 501.968,-393.524 508.77,-391.871"/>
</g>
<!-- bone_tent -->
<g id="node19" class="node"><title>bone_tent</title>
<g id="a_node19"><a xlink:href="norsemen_bone_tent_full.html" xlink:title="Bone\nTent">
<polygon fill="none" stroke="red" points="719.264,-559.023 680.101,-582.121 640.937,-559.023 640.974,-521.65 719.228,-521.65 719.264,-559.023"/>
<text text-anchor="middle" x="680.101" y="-552.493" font-family="Times,serif" font-size="14.00" fill="#ebc72d">Bone</text>
<text text-anchor="middle" x="680.101" y="-537.493" font-family="Times,serif" font-size="14.00" fill="#ebc72d">Tent</text>
</a>
</g>
</g>
<!-- thrall&#45;&gt;bone_tent -->
<g id="edge45" class="edge"><title>thrall&#45;&gt;bone_tent</title>
<path fill="none" stroke="#ebc72d" stroke-width="2" d="M612.101,-650.12C621.958,-624.041 639.809,-598.074 654.748,-579.079"/>
<polygon fill="#ebc72d" stroke="#ebc72d" stroke-width="2" points="657.606,-581.11 661.154,-571.127 652.155,-576.719 657.606,-581.11"/>
</g>
<!-- house -->
<g id="node20" class="node"><title>house</title>
<g id="a_node20"><a xlink:href="norsemen_house_full.html" xlink:title="House">
<polygon fill="none" stroke="red" points="722.045,-656.682 681.101,-669.12 640.157,-656.682 640.195,-636.558 722.006,-636.558 722.045,-656.682"/>
<text text-anchor="middle" x="681.101" y="-647.42" font-family="Times,serif" font-size="14.00" fill="#ebc72d">House</text>
</a>
</g>
</g>
<!-- thrall&#45;&gt;house -->
<g id="edge48" class="edge"><title>thrall&#45;&gt;house</title>
<path fill="none" stroke="#ebc72d" stroke-width="2" d="M624.756,-721.704C635.554,-708.369 651.201,-689.045 663.268,-674.143"/>
<polygon fill="#ebc72d" stroke="#ebc72d" stroke-width="2" points="666.322,-675.933 669.895,-665.959 660.882,-671.528 666.322,-675.933"/>
</g>
<!-- castle -->
<g id="node21" class="node"><title>castle</title>
<g id="a_node21"><a xlink:href="norsemen_castle_full.html" xlink:title="Castle">
<polygon fill="none" stroke="red" points="820.439,-656.682 780.101,-669.12 739.763,-656.682 739.8,-636.558 820.401,-636.558 820.439,-656.682"/>
<text text-anchor="middle" x="780.101" y="-647.42" font-family="Times,serif" font-size="14.00" fill="#ebc72d">Castle</text>
</a>
</g>
</g>
<!-- thrall&#45;&gt;castle -->
<g id="edge46" class="edge"><title>thrall&#45;&gt;castle</title>
<path fill="none" stroke="#ebc72d" stroke-width="2" d="M647.654,-723.282C671.693,-713.352 703.892,-699.207 731.101,-684.333 739.062,-679.981 747.419,-674.755 754.931,-669.79"/>
<polygon fill="#ebc72d" stroke="#ebc72d" stroke-width="2" points="646.151,-720.115 638.217,-727.137 648.798,-726.595 646.151,-720.115"/>
<polygon fill="#ebc72d" stroke="#ebc72d" stroke-width="2" points="756.956,-672.646 763.288,-664.151 753.041,-666.844 756.956,-672.646"/>
</g>
<!-- spearman_berserk -->
<g id="node16" class="node"><title>spearman_berserk</title>
<g id="a_node16"><a xlink:href="norsemen_spearman_berserk_full.html" xlink:title="Spearman\nBerserk">
<ellipse fill="none" stroke="magenta" cx="767.101" cy="-127.74" rx="50.41" ry="26.7407"/>
<text text-anchor="middle" x="767.101" y="-131.54" font-family="Times,serif" font-size="14.00" fill="#ebc72d">Spearman</text>
<text text-anchor="middle" x="767.101" y="-116.54" font-family="Times,serif" font-size="14.00" fill="#ebc72d">Berserk</text>
</a>
</g>
</g>
<!-- spearman&#45;&gt;spearman_berserk -->
<g id="edge41" class="edge"><title>spearman&#45;&gt;spearman_berserk</title>
<path fill="none" stroke="#ebc72d" stroke-dasharray="5,2" d="M1033.05,-434.595C1031.96,-389.83 1022.7,-267.698 956.101,-201.74 916.234,-162.26 886.915,-187.266 835.101,-165.74 826.35,-162.105 817.263,-157.666 808.687,-153.141"/>
<polygon fill="#ebc72d" stroke="#ebc72d" points="810.082,-149.917 799.622,-148.232 806.749,-156.072 810.082,-149.917"/>
</g>
<!-- battleaxe_berserk -->
<g id="node24" class="node"><title>battleaxe_berserk</title>
<g id="a_node24"><a xlink:href="norsemen_battleaxe_berserk_full.html" xlink:title="Battleaxe\nBerserk">
<ellipse fill="none" stroke="magenta" cx="646.101" cy="-127.74" rx="48.1667" ry="26.7407"/>
<text text-anchor="middle" x="646.101" y="-131.54" font-family="Times,serif" font-size="14.00" fill="#ebc72d">Battleaxe</text>
<text text-anchor="middle" x="646.101" y="-116.54" font-family="Times,serif" font-size="14.00" fill="#ebc72d">Berserk</text>
</a>
</g>
</g>
<!-- battleaxe&#45;&gt;battleaxe_berserk -->
<g id="edge2" class="edge"><title>battleaxe&#45;&gt;battleaxe_berserk</title>
<path fill="none" stroke="#ebc72d" stroke-dasharray="5,2" d="M860.595,-333.869C846.237,-296.947 812.304,-211.488 802.101,-201.74 769.754,-170.836 748.347,-185.275 708.101,-165.74 700.727,-162.161 693.075,-157.996 685.768,-153.778"/>
<polygon fill="#ebc72d" stroke="#ebc72d" points="687.134,-150.52 676.744,-148.448 683.573,-156.547 687.134,-150.52"/>
</g>
<!-- bone_tent&#45;&gt;blacksmith -->
<g id="edge13" class="edge"><title>bone_tent&#45;&gt;blacksmith</title>
<path fill="none" stroke="#ebc72d" stroke-dasharray="1,5" d="M661.159,-521.486C651.037,-507.481 638.683,-490.388 628.904,-476.86"/>
<polygon fill="#ebc72d" stroke="#ebc72d" points="631.595,-474.607 622.9,-468.552 625.921,-478.707 631.595,-474.607"/>
</g>
<!-- bone_tent&#45;&gt;archer -->
<g id="edge10" class="edge"><title>bone_tent&#45;&gt;archer</title>
<path fill="none" stroke="#ebc72d" d="M640.685,-522.392C635.877,-519.845 630.948,-517.469 626.101,-515.48 555.72,-486.606 468.541,-468.904 417.349,-460.199"/>
<polygon fill="#ebc72d" stroke="#ebc72d" points="417.737,-456.715 407.298,-458.527 416.588,-463.62 417.737,-456.715"/>
</g>
<!-- bone_tent&#45;&gt;swordman -->
<g id="edge15" class="edge"><title>bone_tent&#45;&gt;swordman</title>
<path fill="none" stroke="#ebc72d" d="M703.101,-451.61C711.952,-440.422 710.003,-433.301 722.101,-425.74 797.948,-378.336 862.79,-458.41 920.101,-389.74 949.074,-355.024 928.865,-299.219 912.699,-266.659"/>
<polygon fill="#ebc72d" stroke="#ebc72d" points="915.787,-265.01 908.081,-257.739 909.57,-268.228 915.787,-265.01"/>
</g>
<!-- bone_tent&#45;&gt;spearman -->
<g id="edge14" class="edge"><title>bone_tent&#45;&gt;spearman</title>
<path fill="none" stroke="#ebc72d" stroke-dasharray="1,5" d="M719.298,-530.8C733.241,-525.291 749.183,-519.551 764.101,-515.48 857.145,-490.087 886.051,-508.274 978.101,-479.48 984.664,-477.427 991.45,-474.743 997.92,-471.882"/>
<polygon fill="#ebc72d" stroke="#ebc72d" points="999.514,-475.001 1007.11,-467.616 996.567,-468.651 999.514,-475.001"/>
</g>
<!-- bone_tent&#45;&gt;battleaxe -->
<g id="edge12" class="edge"><title>bone_tent&#45;&gt;battleaxe</title>
<path fill="none" stroke="#ebc72d" d="M680.718,-521.592C682.457,-501.139 687.764,-472.995 703.101,-453.61"/>
<path fill="none" stroke="#ebc72d" d="M703.101,-451.61C711.952,-440.422 711.144,-434.876 722.101,-425.74 750.19,-402.317 763.436,-406.193 796.101,-389.74 807.953,-383.77 820.84,-377.107 832.342,-371.098"/>
<polygon fill="#ebc72d" stroke="#ebc72d" points="833.99,-374.186 841.223,-366.444 830.741,-367.985 833.99,-374.186"/>
</g>
<!-- bone_tent&#45;&gt;axe_thrower -->
<g id="edge11" class="edge"><title>bone_tent&#45;&gt;axe_thrower</title>
<path fill="none" stroke="#ebc72d" d="M706.842,-521.486C719.086,-509.487 733.642,-495.221 746.242,-482.872"/>
<polygon fill="#ebc72d" stroke="#ebc72d" points="748.711,-485.354 753.403,-475.854 743.811,-480.354 748.711,-485.354"/>
</g>
<!-- house&#45;&gt;mead_bar -->
<g id="edge24" class="edge"><title>house&#45;&gt;mead_bar</title>
<path fill="none" stroke="#ebc72d" stroke-dasharray="1,5" d="M699.452,-636.367C720.666,-620.467 755.999,-593.987 782.039,-574.472"/>
<polygon fill="#ebc72d" stroke="#ebc72d" points="784.234,-577.201 790.137,-568.403 780.036,-571.599 784.234,-577.201"/>
</g>
<!-- house&#45;&gt;spearman -->
<g id="edge25" class="edge"><title>house&#45;&gt;spearman</title>
<path fill="none" stroke="#ebc72d" d="M698.703,-636.41C707.894,-629.885 719.599,-622.518 731.101,-617.907 879.818,-558.275 986.704,-676.149 1085.1,-549.693"/>
<path fill="none" stroke="#ebc72d" d="M1085.1,-547.693C1102.66,-525.13 1080.58,-495.882 1060.02,-476.028"/>
<polygon fill="#ebc72d" stroke="#ebc72d" points="1062.31,-473.38 1052.59,-469.169 1057.56,-478.523 1062.31,-473.38"/>
</g>
<!-- house&#45;&gt;bone_tent -->
<g id="edge22" class="edge"><title>house&#45;&gt;bone_tent</title>
<path fill="none" stroke="#ebc72d" stroke-dasharray="1,5" d="M680.962,-636.156C680.848,-624.75 680.681,-607.999 680.525,-592.272"/>
<polygon fill="#ebc72d" stroke="#ebc72d" points="684.023,-592.116 680.424,-582.152 677.024,-592.186 684.023,-592.116"/>
</g>
<!-- house&#45;&gt;cudgel_lady -->
<g id="edge23" class="edge"><title>house&#45;&gt;cudgel_lady</title>
<path fill="none" stroke="#ebc72d" d="M1085.1,-547.693C1099.51,-529.171 1112.31,-506.143 1121.61,-487.506"/>
<polygon fill="#ebc72d" stroke="#ebc72d" points="1124.77,-489.001 1126.01,-478.479 1118.48,-485.933 1124.77,-489.001"/>
</g>
<!-- iron&#45;&gt;crossbow -->
<g id="edge26" class="edge"><title>iron&#45;&gt;crossbow</title>
<path fill="none" stroke="#ebc72d" stroke-dasharray="1,5" d="M633.194,-333.553C656.615,-314.469 694.482,-283.615 720.062,-262.771"/>
<polygon fill="#ebc72d" stroke="#ebc72d" points="722.36,-265.414 727.902,-256.384 717.939,-259.987 722.36,-265.414"/>
</g>
<!-- holy_valkyrie&#45;&gt;flying_valkyrie -->
<g id="edge21" class="edge"><title>holy_valkyrie&#45;&gt;flying_valkyrie</title>
<path fill="none" stroke="#ebc72d" stroke-dasharray="1,5" d="M125.101,-89.6433C125.101,-81.2443 125.101,-72.3377 125.101,-63.9802"/>
<polygon fill="#ebc72d" stroke="#ebc72d" points="128.601,-63.7672 125.101,-53.7673 121.601,-63.7673 128.601,-63.7672"/>
</g>
<!-- mead&#45;&gt;swordman_berserk -->
<g id="edge28" class="edge"><title>mead&#45;&gt;swordman_berserk</title>
<path fill="none" stroke="#ebc72d" stroke-dasharray="1,5" d="M933.859,-434.494C940.786,-422.473 949.199,-405.745 953.101,-389.74 972.894,-308.552 983.63,-280.642 956.101,-201.74 950.677,-186.194 940.406,-171.477 929.997,-159.385"/>
<polygon fill="#ebc72d" stroke="#ebc72d" points="932.483,-156.915 923.186,-151.835 927.285,-161.604 932.483,-156.915"/>
</g>
<!-- mead&#45;&gt;battleaxe -->
<g id="edge27" class="edge"><title>mead&#45;&gt;battleaxe</title>
<path fill="none" stroke="#ebc72d" stroke-dasharray="1,5" d="M913.346,-434.388C904.621,-418.983 891.709,-396.187 881.744,-378.594"/>
<polygon fill="#ebc72d" stroke="#ebc72d" points="884.531,-376.411 876.557,-369.435 878.44,-379.861 884.531,-376.411"/>
</g>
<!-- root&#45;&gt;swordman_berserk -->
<g id="edge40" class="edge"><title>root&#45;&gt;swordman_berserk</title>
<path fill="none" stroke="#ebc72d" stroke-dasharray="1,5" d="M661.901,-221.403C670.667,-214.462 681.403,-206.904 692.101,-201.74 747.635,-174.93 768.575,-187.958 826.101,-165.74 835.442,-162.132 845.16,-157.667 854.323,-153.1"/>
<polygon fill="#ebc72d" stroke="#ebc72d" points="855.955,-156.197 863.265,-148.528 852.768,-149.964 855.955,-156.197"/>
</g>
<!-- root&#45;&gt;spearman_berserk -->
<g id="edge39" class="edge"><title>root&#45;&gt;spearman_berserk</title>
<path fill="none" stroke="#ebc72d" stroke-dasharray="1,5" d="M661.632,-221.553C681.003,-204.506 711.047,-178.067 734.122,-157.762"/>
<polygon fill="#ebc72d" stroke="#ebc72d" points="736.459,-160.367 741.654,-151.133 731.835,-155.112 736.459,-160.367"/>
</g>
<!-- root&#45;&gt;battleaxe_berserk -->
<g id="edge38" class="edge"><title>root&#45;&gt;battleaxe_berserk</title>
<path fill="none" stroke="#ebc72d" stroke-dasharray="1,5" d="M642.726,-221.553C643.274,-206.462 644.091,-184.009 644.783,-164.968"/>
<polygon fill="#ebc72d" stroke="#ebc72d" points="648.287,-164.929 645.153,-154.809 641.292,-164.675 648.287,-164.929"/>
</g>
<!-- arrow&#45;&gt;crossbow -->
<g id="edge1" class="edge"><title>arrow&#45;&gt;crossbow</title>
<path fill="none" stroke="#ebc72d" stroke-dasharray="1,5" d="M721.788,-333.553C726.61,-315.874 734.186,-288.094 739.795,-267.529"/>
<polygon fill="#ebc72d" stroke="#ebc72d" points="743.191,-268.376 742.446,-257.807 736.438,-266.534 743.191,-268.376"/>
</g>
</g>
</svg>
