<?xml version="1.0" encoding="UTF-8" standalone="no"?>
<!DOCTYPE svg PUBLIC "-//W3C//DTD SVG 1.1//EN"
 "http://www.w3.org/Graphics/SVG/1.1/DTD/svg11.dtd">
<!-- Generated by graphviz version 2.38.0 (20140413.2041)
 -->
<!-- Title: test Pages: 1 -->
<svg width="1255pt" height="326pt"
 viewBox="0.00 0.00 1255.47 325.91" xmlns="http://www.w3.org/2000/svg" xmlns:xlink="http://www.w3.org/1999/xlink">
<g id="graph0" class="graph" transform="scale(1 1) rotate(0) translate(4 321.907)">
<title>test</title>
<polygon fill="#151515" stroke="none" points="-4,4 -4,-321.907 1251.47,-321.907 1251.47,4 -4,4"/>
<!-- farm -->
<g id="node1" class="node"><title>farm</title>
<g id="a_node1"><a xlink:href="norsemen_farm_full.html" xlink:title="Farm">
<polygon fill="none" stroke="red" points="155.208,-218.256 118.298,-230.693 81.3872,-218.256 81.4217,-198.131 155.173,-198.131 155.208,-218.256"/>
<text text-anchor="middle" x="118.298" y="-208.993" font-family="Times,serif" font-size="14.00" fill="#ebc72d">Farm</text>
</a>
</g>
</g>
<!-- archer -->
<g id="node6" class="node"><title>archer</title>
<g id="a_node6"><a xlink:href="norsemen_archer_full.html" xlink:title="Archer">
<ellipse fill="none" stroke="magenta" cx="356.298" cy="-116.61" rx="35.194" ry="18"/>
<text text-anchor="middle" x="356.298" y="-112.91" font-family="Times,serif" font-size="14.00" fill="#ebc72d">Archer</text>
</a>
</g>
</g>
<!-- farm&#45;&gt;archer -->
<g id="edge14" class="edge"><title>farm&#45;&gt;archer</title>
<path fill="none" stroke="#ebc72d" stroke-dasharray="1,5" d="M135.436,-197.845C143.776,-191.601 154.17,-184.515 164.298,-179.48 167.84,-177.719 262.095,-147.602 317.2,-130.048"/>
<polygon fill="#ebc72d" stroke="#ebc72d" points="318.537,-133.296 327.003,-126.927 316.413,-126.626 318.537,-133.296"/>
</g>
<!-- flying_valkyrie -->
<g id="node15" class="node"><title>flying_valkyrie</title>
<g id="a_node15"><a xlink:href="norsemen_flying_valkyrie_full.html" xlink:title="Flying\nValkyrie">
<ellipse fill="none" stroke="magenta" cx="118.298" cy="-116.61" rx="45.011" ry="26.7407"/>
<text text-anchor="middle" x="118.298" y="-120.41" font-family="Times,serif" font-size="14.00" fill="#ebc72d">Flying</text>
<text text-anchor="middle" x="118.298" y="-105.41" font-family="Times,serif" font-size="14.00" fill="#ebc72d">Valkyrie</text>
</a>
</g>
</g>
<!-- farm&#45;&gt;flying_valkyrie -->
<g id="edge16" class="edge"><title>farm&#45;&gt;flying_valkyrie</title>
<path fill="none" stroke="#ebc72d" stroke-dasharray="1,5" d="M118.298,-197.811C118.298,-186.266 118.298,-169.298 118.298,-153.939"/>
<polygon fill="#ebc72d" stroke="#ebc72d" points="121.798,-153.65 118.298,-143.65 114.798,-153.65 121.798,-153.65"/>
</g>
<!-- cow -->
<g id="node22" class="node"><title>cow</title>
<g id="a_node22"><a xlink:href="norsemen_cow_full.html" xlink:title="Cow">
<ellipse fill="none" stroke="magenta" cx="27.2976" cy="-116.61" rx="27.0966" ry="18"/>
<text text-anchor="middle" x="27.2976" y="-112.91" font-family="Times,serif" font-size="14.00" fill="#ebc72d">Cow</text>
</a>
</g>
</g>
<!-- farm&#45;&gt;cow -->
<g id="edge15" class="edge"><title>farm&#45;&gt;cow</title>
<path fill="none" stroke="#ebc72d" d="M104.87,-197.811C89.9888,-182.426 65.7944,-157.411 48.3803,-139.407"/>
<polygon fill="#ebc72d" stroke="#ebc72d" points="50.8472,-136.923 41.3791,-132.169 45.8157,-141.79 50.8472,-136.923"/>
</g>
<!-- blacksmith -->
<g id="node2" class="node"><title>blacksmith</title>
<g id="a_node2"><a xlink:href="norsemen_blacksmith_full.html" xlink:title="Blacksmith">
<polygon fill="none" stroke="red" points="518.731,-218.256 455.298,-230.693 391.865,-218.256 391.924,-198.131 518.671,-198.131 518.731,-218.256"/>
<text text-anchor="middle" x="455.298" y="-208.993" font-family="Times,serif" font-size="14.00" fill="#ebc72d">Blacksmith</text>
</a>
</g>
</g>
<!-- thor -->
<g id="node5" class="node"><title>thor</title>
<g id="a_node5"><a xlink:href="norsemen_thor_full.html" xlink:title="Thor">
<ellipse fill="none" stroke="magenta" cx="547.298" cy="-116.61" rx="27.8951" ry="18"/>
<text text-anchor="middle" x="547.298" y="-112.91" font-family="Times,serif" font-size="14.00" fill="#ebc72d">Thor</text>
</a>
</g>
</g>
<!-- blacksmith&#45;&gt;thor -->
<g id="edge6" class="edge"><title>blacksmith&#45;&gt;thor</title>
<path fill="none" stroke="#ebc72d" stroke-dasharray="1,5" d="M468.872,-197.811C483.917,-182.426 508.378,-157.411 525.983,-139.407"/>
<polygon fill="#ebc72d" stroke="#ebc72d" points="528.572,-141.766 533.061,-132.169 523.567,-136.872 528.572,-141.766"/>
</g>
<!-- valkyrie -->
<g id="node11" class="node"><title>valkyrie</title>
<g id="a_node11"><a xlink:href="norsemen_valkyrie_full.html" xlink:title="Valkyrie">
<ellipse fill="none" stroke="magenta" cx="223.298" cy="-116.61" rx="41.6928" ry="18"/>
<text text-anchor="middle" x="223.298" y="-112.91" font-family="Times,serif" font-size="14.00" fill="#ebc72d">Valkyrie</text>
</a>
</g>
</g>
<!-- blacksmith&#45;&gt;valkyrie -->
<g id="edge7" class="edge"><title>blacksmith&#45;&gt;valkyrie</title>
<path fill="none" stroke="#ebc72d" stroke-dasharray="1,5" d="M418.283,-198.122C382.479,-184.813 326.811,-163.639 279.298,-143.48 272.872,-140.754 266.089,-137.739 259.547,-134.76"/>
<polygon fill="#ebc72d" stroke="#ebc72d" points="260.751,-131.461 250.203,-130.457 257.822,-137.819 260.751,-131.461"/>
</g>
<!-- swordman_berserk -->
<g id="node12" class="node"><title>swordman_berserk</title>
<g id="a_node12"><a xlink:href="norsemen_swordman_berserk_full.html" xlink:title="Swordman\nBerserk">
<ellipse fill="none" stroke="magenta" cx="749.298" cy="-26.8701" rx="53.9813" ry="26.7407"/>
<text text-anchor="middle" x="749.298" y="-30.6701" font-family="Times,serif" font-size="14.00" fill="#ebc72d">Swordman</text>
<text text-anchor="middle" x="749.298" y="-15.6701" font-family="Times,serif" font-size="14.00" fill="#ebc72d">Berserk</text>
</a>
</g>
</g>
<!-- blacksmith&#45;&gt;swordman_berserk -->
<g id="edge5" class="edge"><title>blacksmith&#45;&gt;swordman_berserk</title>
<path fill="none" stroke="#ebc72d" stroke-dasharray="1,5" d="M392.016,-198.029C362.432,-188.129 329.91,-171.396 312.298,-143.48 299.553,-123.28 296.238,-107.42 312.298,-89.7401 368.438,-27.9363 605.251,-73.8143 686.298,-53.7401 691.263,-52.5102 696.35,-50.9571 701.375,-49.2251"/>
<polygon fill="#ebc72d" stroke="#ebc72d" points="702.74,-52.4524 710.914,-45.7121 700.32,-45.8837 702.74,-52.4524"/>
</g>
<!-- blacksmith&#45;&gt;flying_valkyrie -->
<g id="edge4" class="edge"><title>blacksmith&#45;&gt;flying_valkyrie</title>
<path fill="none" stroke="#ebc72d" stroke-dasharray="1,5" d="M391.808,-200.365C333.714,-189.07 245.868,-169.641 172.298,-143.48 168.548,-142.147 164.713,-140.634 160.9,-139.025"/>
<polygon fill="#ebc72d" stroke="#ebc72d" points="162.096,-135.726 151.535,-134.874 159.259,-142.126 162.096,-135.726"/>
</g>
<!-- battleaxe -->
<g id="node17" class="node"><title>battleaxe</title>
<g id="a_node17"><a xlink:href="norsemen_battleaxe_full.html" xlink:title="Battleaxe">
<ellipse fill="none" stroke="magenta" cx="637.298" cy="-116.61" rx="44.393" ry="18"/>
<text text-anchor="middle" x="637.298" y="-112.91" font-family="Times,serif" font-size="14.00" fill="#ebc72d">Battleaxe</text>
</a>
</g>
</g>
<!-- blacksmith&#45;&gt;battleaxe -->
<g id="edge2" class="edge"><title>blacksmith&#45;&gt;battleaxe</title>
<path fill="none" stroke="#ebc72d" stroke-dasharray="1,5" d="M481.762,-198.013C513.528,-181.592 566.91,-153.997 602.121,-135.795"/>
<polygon fill="#ebc72d" stroke="#ebc72d" points="603.821,-138.856 611.097,-131.155 600.606,-132.638 603.821,-138.856"/>
</g>
<!-- crossbow -->
<g id="node25" class="node"><title>crossbow</title>
<g id="a_node25"><a xlink:href="norsemen_crossbow_full.html" xlink:title="Crossbow">
<ellipse fill="none" stroke="magenta" cx="455.298" cy="-116.61" rx="46.2923" ry="18"/>
<text text-anchor="middle" x="455.298" y="-112.91" font-family="Times,serif" font-size="14.00" fill="#ebc72d">Crossbow</text>
</a>
</g>
</g>
<!-- blacksmith&#45;&gt;crossbow -->
<g id="edge3" class="edge"><title>blacksmith&#45;&gt;crossbow</title>
<path fill="none" stroke="#ebc72d" d="M455.298,-197.811C455.298,-183.927 455.298,-162.202 455.298,-144.863"/>
<polygon fill="#ebc72d" stroke="#ebc72d" points="458.798,-144.743 455.298,-134.743 451.798,-144.743 458.798,-144.743"/>
</g>
<!-- valhalla -->
<g id="node3" class="node"><title>valhalla</title>
<g id="a_node3"><a xlink:href="norsemen_valhalla_full.html" xlink:title="Valhalla">
<polygon fill="none" stroke="red" points="272.917,-218.256 223.298,-230.693 173.679,-218.256 173.725,-198.131 272.87,-198.131 272.917,-218.256"/>
<text text-anchor="middle" x="223.298" y="-208.993" font-family="Times,serif" font-size="14.00" fill="#ebc72d">Valhalla</text>
</a>
</g>
</g>
<!-- valhalla&#45;&gt;valkyrie -->
<g id="edge38" class="edge"><title>valhalla&#45;&gt;valkyrie</title>
<path fill="none" stroke="#ebc72d" d="M223.298,-197.811C223.298,-183.927 223.298,-162.202 223.298,-144.863"/>
<polygon fill="#ebc72d" stroke="#ebc72d" points="226.798,-144.743 223.298,-134.743 219.798,-144.743 226.798,-144.743"/>
</g>
<!-- valhalla&#45;&gt;flying_valkyrie -->
<g id="edge37" class="edge"><title>valhalla&#45;&gt;flying_valkyrie</title>
<path fill="none" stroke="#ebc72d" d="M207.804,-197.811C192.763,-184.334 169.476,-163.467 150.425,-146.397"/>
<polygon fill="#ebc72d" stroke="#ebc72d" points="152.608,-143.654 142.824,-139.587 147.936,-148.867 152.608,-143.654"/>
</g>
<!-- wild_sow -->
<g id="node4" class="node"><title>wild_sow</title>
<g id="a_node4"><a xlink:href="norsemen_wild_sow_full.html" xlink:title="Wild\nSow">
<ellipse fill="none" stroke="magenta" cx="1201.3" cy="-116.61" rx="31.2258" ry="26.7407"/>
<text text-anchor="middle" x="1201.3" y="-120.41" font-family="Times,serif" font-size="14.00" fill="#ebc72d">Wild</text>
<text text-anchor="middle" x="1201.3" y="-105.41" font-family="Times,serif" font-size="14.00" fill="#ebc72d">Sow</text>
</a>
</g>
</g>
<!-- mead_bar -->
<g id="node7" class="node"><title>mead_bar</title>
<g id="a_node7"><a xlink:href="norsemen_mead_bar_full.html" xlink:title="Mead\nBar">
<polygon fill="none" stroke="red" points="1012.2,-223.023 970.298,-246.121 928.39,-223.023 928.43,-185.65 1012.17,-185.65 1012.2,-223.023"/>
<text text-anchor="middle" x="970.298" y="-216.493" font-family="Times,serif" font-size="14.00" fill="#ebc72d">Mead</text>
<text text-anchor="middle" x="970.298" y="-201.493" font-family="Times,serif" font-size="14.00" fill="#ebc72d">Bar</text>
</a>
</g>
</g>
<!-- mead_bar&#45;&gt;swordman_berserk -->
<g id="edge23" class="edge"><title>mead_bar&#45;&gt;swordman_berserk</title>
<path fill="none" stroke="#ebc72d" stroke-dasharray="1,5" d="M1009.9,-185.496C1013.69,-183.35 1017.53,-181.307 1021.3,-179.48 1064.56,-158.512 1095.53,-182.725 1123.3,-143.48 1137.09,-123.982 1139.19,-107.574 1123.3,-89.7401 1077.02,-37.7934 879.665,-71.1172 812.298,-53.7401 807.414,-52.4804 802.409,-50.9222 797.458,-49.2"/>
<polygon fill="#ebc72d" stroke="#ebc72d" points="798.644,-45.9069 788.05,-45.7213 796.216,-52.4724 798.644,-45.9069"/>
</g>
<!-- spearman -->
<g id="node14" class="node"><title>spearman</title>
<g id="a_node14"><a xlink:href="norsemen_spearman_full.html" xlink:title="Spearman">
<ellipse fill="none" stroke="magenta" cx="863.298" cy="-116.61" rx="46.2923" ry="18"/>
<text text-anchor="middle" x="863.298" y="-112.91" font-family="Times,serif" font-size="14.00" fill="#ebc72d">Spearman</text>
</a>
</g>
</g>
<!-- mead_bar&#45;&gt;spearman -->
<g id="edge22" class="edge"><title>mead_bar&#45;&gt;spearman</title>
<path fill="none" stroke="#ebc72d" d="M940.492,-185.486C924.273,-171.225 904.414,-153.763 888.9,-140.122"/>
<polygon fill="#ebc72d" stroke="#ebc72d" points="891.047,-137.349 881.226,-133.374 886.424,-142.606 891.047,-137.349"/>
</g>
<!-- axe_thrower -->
<g id="node18" class="node"><title>axe_thrower</title>
<g id="a_node18"><a xlink:href="norsemen_axe_thrower_full.html" xlink:title="Axe\nThrower">
<ellipse fill="none" stroke="magenta" cx="972.298" cy="-116.61" rx="44.5955" ry="26.7407"/>
<text text-anchor="middle" x="972.298" y="-120.41" font-family="Times,serif" font-size="14.00" fill="#ebc72d">Axe</text>
<text text-anchor="middle" x="972.298" y="-105.41" font-family="Times,serif" font-size="14.00" fill="#ebc72d">Thrower</text>
</a>
</g>
</g>
<!-- mead_bar&#45;&gt;axe_thrower -->
<g id="edge20" class="edge"><title>mead_bar&#45;&gt;axe_thrower</title>
<path fill="none" stroke="#ebc72d" stroke-dasharray="1,5" d="M970.855,-185.486C971.063,-175.699 971.303,-164.404 971.527,-153.872"/>
<polygon fill="#ebc72d" stroke="#ebc72d" points="975.03,-153.749 971.743,-143.677 968.032,-153.6 975.03,-153.749"/>
</g>
<!-- cudgel_lady -->
<g id="node23" class="node"><title>cudgel_lady</title>
<g id="a_node23"><a xlink:href="norsemen_cudgel_lady_full.html" xlink:title="Cudgel\nLady">
<ellipse fill="none" stroke="magenta" cx="1074.3" cy="-116.61" rx="39.6962" ry="26.7407"/>
<text text-anchor="middle" x="1074.3" y="-120.41" font-family="Times,serif" font-size="14.00" fill="#ebc72d">Cudgel</text>
<text text-anchor="middle" x="1074.3" y="-105.41" font-family="Times,serif" font-size="14.00" fill="#ebc72d">Lady</text>
</a>
</g>
</g>
<!-- mead_bar&#45;&gt;cudgel_lady -->
<g id="edge21" class="edge"><title>mead_bar&#45;&gt;cudgel_lady</title>
<path fill="none" stroke="#ebc72d" d="M999.267,-185.486C1013.06,-173.008 1029.56,-158.078 1043.58,-145.402"/>
<polygon fill="#ebc72d" stroke="#ebc72d" points="1046,-147.926 1051.07,-138.622 1041.31,-142.735 1046,-147.926"/>
</g>
<!-- thor_totem -->
<g id="node8" class="node"><title>thor_totem</title>
<g id="a_node8"><a xlink:href="norsemen_thor_totem_full.html" xlink:title="Thor\nTotem">
<polygon fill="none" stroke="red" points="660.446,-223.023 614.298,-246.121 568.15,-223.023 568.193,-185.65 660.403,-185.65 660.446,-223.023"/>
<text text-anchor="middle" x="614.298" y="-216.493" font-family="Times,serif" font-size="14.00" fill="#ebc72d">Thor</text>
<text text-anchor="middle" x="614.298" y="-201.493" font-family="Times,serif" font-size="14.00" fill="#ebc72d">Totem</text>
</a>
</g>
</g>
<!-- thor_totem&#45;&gt;thor -->
<g id="edge27" class="edge"><title>thor_totem&#45;&gt;thor</title>
<path fill="none" stroke="#ebc72d" stroke-dasharray="5,2" d="M595.634,-185.486C585.851,-171.749 573.953,-155.041 564.409,-141.639"/>
<polygon fill="#ebc72d" stroke="#ebc72d" points="567.175,-139.49 558.524,-133.374 561.474,-143.55 567.175,-139.49"/>
</g>
<!-- swordman -->
<g id="node9" class="node"><title>swordman</title>
<g id="a_node9"><a xlink:href="norsemen_swordman_full.html" xlink:title="Swordman">
<ellipse fill="none" stroke="magenta" cx="749.298" cy="-116.61" rx="49.2915" ry="18"/>
<text text-anchor="middle" x="749.298" y="-112.91" font-family="Times,serif" font-size="14.00" fill="#ebc72d">Swordman</text>
</a>
</g>
</g>
<!-- swordman&#45;&gt;swordman_berserk -->
<g id="edge26" class="edge"><title>swordman&#45;&gt;swordman_berserk</title>
<path fill="none" stroke="#ebc72d" stroke-dasharray="5,2" d="M749.298,-98.2755C749.298,-88.4643 749.298,-75.8168 749.298,-63.9541"/>
<polygon fill="#ebc72d" stroke="#ebc72d" points="752.798,-63.8222 749.298,-53.8222 745.798,-63.8222 752.798,-63.8222"/>
</g>
<!-- mistletoe_tree -->
<g id="node10" class="node"><title>mistletoe_tree</title>
<g id="a_node10"><a xlink:href="norsemen_mistletoe_tree_full.html" xlink:title="Mistletoe\nTree">
<polygon fill="none" stroke="red" points="1148.67,-223.023 1089.3,-246.121 1029.93,-223.023 1029.98,-185.65 1148.61,-185.65 1148.67,-223.023"/>
<text text-anchor="middle" x="1089.3" y="-216.493" font-family="Times,serif" font-size="14.00" fill="#ebc72d">Mistletoe</text>
<text text-anchor="middle" x="1089.3" y="-201.493" font-family="Times,serif" font-size="14.00" fill="#ebc72d">Tree</text>
</a>
</g>
</g>
<!-- mistletoe_tree&#45;&gt;wild_sow -->
<g id="edge24" class="edge"><title>mistletoe_tree&#45;&gt;wild_sow</title>
<path fill="none" stroke="#ebc72d" d="M1120.5,-185.486C1136.48,-172.059 1155.84,-155.793 1171.61,-142.552"/>
<polygon fill="#ebc72d" stroke="#ebc72d" points="1174.08,-145.046 1179.48,-135.934 1169.58,-139.686 1174.08,-145.046"/>
</g>
<!-- thrall -->
<g id="node13" class="node"><title>thrall</title>
<g id="a_node13"><a xlink:href="norsemen_thrall_full.html" xlink:title="Thrall">
<ellipse fill="none" stroke="magenta" cx="749.298" cy="-299.907" rx="32.4942" ry="18"/>
<text text-anchor="middle" x="749.298" y="-296.207" font-family="Times,serif" font-size="14.00" fill="#ebc72d">Thrall</text>
</a>
</g>
</g>
<!-- thrall&#45;&gt;farm -->
<g id="edge31" class="edge"><title>thrall&#45;&gt;farm</title>
<path fill="none" stroke="#ebc72d" stroke-width="2" d="M716.636,-298.152C609.102,-295.324 267.134,-283.519 164.298,-245.907 155.742,-242.778 147.304,-237.641 140.037,-232.38"/>
<polygon fill="#ebc72d" stroke="#ebc72d" stroke-width="2" points="142.162,-229.599 132.108,-226.259 137.885,-235.14 142.162,-229.599"/>
</g>
<!-- thrall&#45;&gt;blacksmith -->
<g id="edge28" class="edge"><title>thrall&#45;&gt;blacksmith</title>
<path fill="none" stroke="#ebc72d" stroke-width="2" d="M720.577,-291.168C683.307,-281.062 616.297,-262.68 559.298,-245.907 539.162,-239.981 516.927,-233.135 498.203,-227.282"/>
<polygon fill="#ebc72d" stroke="#ebc72d" stroke-width="2" points="499.069,-223.886 488.479,-224.234 496.974,-230.565 499.069,-223.886"/>
</g>
<!-- thrall&#45;&gt;valhalla -->
<g id="edge36" class="edge"><title>thrall&#45;&gt;valhalla</title>
<path fill="none" stroke="#ebc72d" stroke-width="2" d="M717.872,-294.947C654.449,-286.825 506.665,-267.241 383.298,-245.907 344.877,-239.262 301.53,-230.453 269.655,-223.727"/>
<polygon fill="#ebc72d" stroke="#ebc72d" stroke-width="2" points="270.239,-220.273 259.73,-221.621 268.786,-227.12 270.239,-220.273"/>
</g>
<!-- thrall&#45;&gt;mead_bar -->
<g id="edge33" class="edge"><title>thrall&#45;&gt;mead_bar</title>
<path fill="none" stroke="#ebc72d" stroke-width="2" d="M778.504,-291.683C812.233,-282.865 869.017,-266.543 915.298,-245.907 921.545,-243.121 927.982,-239.803 934.152,-236.371"/>
<polygon fill="#ebc72d" stroke="#ebc72d" stroke-width="2" points="936.026,-239.331 942.95,-231.311 932.536,-233.263 936.026,-239.331"/>
</g>
<!-- thrall&#45;&gt;thor_totem -->
<g id="edge35" class="edge"><title>thrall&#45;&gt;thor_totem</title>
<path fill="none" stroke="#ebc72d" stroke-width="2" d="M728.5,-285.779C708.211,-272.972 676.881,-253.197 652.165,-237.596"/>
<polygon fill="#ebc72d" stroke="#ebc72d" stroke-width="2" points="653.715,-234.435 643.391,-232.057 649.979,-240.355 653.715,-234.435"/>
</g>
<!-- thrall&#45;&gt;mistletoe_tree -->
<g id="edge34" class="edge"><title>thrall&#45;&gt;mistletoe_tree</title>
<path fill="none" stroke="#ebc72d" stroke-width="2" d="M780.946,-295.348C832.347,-288.994 936.74,-273.687 1021.3,-245.907 1029.06,-243.356 1037.09,-240.128 1044.8,-236.706"/>
<polygon fill="#ebc72d" stroke="#ebc72d" stroke-width="2" points="1046.37,-239.833 1053.99,-232.469 1043.44,-233.476 1046.37,-239.833"/>
</g>
<!-- bone_tent -->
<g id="node19" class="node"><title>bone_tent</title>
<g id="a_node19"><a xlink:href="norsemen_bone_tent_full.html" xlink:title="Bone\nTent">
<polygon fill="none" stroke="red" points="788.461,-223.023 749.298,-246.121 710.134,-223.023 710.171,-185.65 788.425,-185.65 788.461,-223.023"/>
<text text-anchor="middle" x="749.298" y="-216.493" font-family="Times,serif" font-size="14.00" fill="#ebc72d">Bone</text>
<text text-anchor="middle" x="749.298" y="-201.493" font-family="Times,serif" font-size="14.00" fill="#ebc72d">Tent</text>
</a>
</g>
</g>
<!-- thrall&#45;&gt;bone_tent -->
<g id="edge29" class="edge"><title>thrall&#45;&gt;bone_tent</title>
<path fill="none" stroke="#ebc72d" stroke-width="2" d="M749.298,-281.663C749.298,-274.242 749.298,-265.209 749.298,-256.182"/>
<polygon fill="#ebc72d" stroke="#ebc72d" stroke-width="2" points="752.798,-256.08 749.298,-246.08 745.798,-256.08 752.798,-256.08"/>
</g>
<!-- house -->
<g id="node20" class="node"><title>house</title>
<g id="a_node20"><a xlink:href="norsemen_house_full.html" xlink:title="House">
<polygon fill="none" stroke="red" points="906.242,-218.256 865.298,-230.693 824.354,-218.256 824.392,-198.131 906.203,-198.131 906.242,-218.256"/>
<text text-anchor="middle" x="865.298" y="-208.993" font-family="Times,serif" font-size="14.00" fill="#ebc72d">House</text>
</a>
</g>
</g>
<!-- thrall&#45;&gt;house -->
<g id="edge32" class="edge"><title>thrall&#45;&gt;house</title>
<path fill="none" stroke="#ebc72d" stroke-width="2" d="M768.193,-285.026C787.916,-270.537 818.932,-247.753 840.587,-231.846"/>
<polygon fill="#ebc72d" stroke="#ebc72d" stroke-width="2" points="842.681,-234.651 848.668,-225.91 838.537,-229.009 842.681,-234.651"/>
</g>
<!-- castle -->
<g id="node21" class="node"><title>castle</title>
<g id="a_node21"><a xlink:href="norsemen_castle_full.html" xlink:title="Castle">
<polygon fill="none" stroke="red" points="1247.64,-218.256 1207.3,-230.693 1166.96,-218.256 1167,-198.131 1247.6,-198.131 1247.64,-218.256"/>
<text text-anchor="middle" x="1207.3" y="-208.993" font-family="Times,serif" font-size="14.00" fill="#ebc72d">Castle</text>
</a>
</g>
</g>
<!-- thrall&#45;&gt;castle -->
<g id="edge30" class="edge"><title>thrall&#45;&gt;castle</title>
<path fill="none" stroke="#ebc72d" stroke-width="2" d="M792.042,-299.45C867.962,-299.1 1030.29,-292.378 1157.3,-245.907 1166.46,-242.555 1175.66,-237.292 1183.64,-231.983"/>
<polygon fill="#ebc72d" stroke="#ebc72d" stroke-width="2" points="791.912,-295.95 781.916,-299.461 791.919,-302.95 791.912,-295.95"/>
<polygon fill="#ebc72d" stroke="#ebc72d" stroke-width="2" points="1185.88,-234.686 1192.05,-226.07 1181.85,-228.96 1185.88,-234.686"/>
</g>
<!-- spearman_berserk -->
<g id="node16" class="node"><title>spearman_berserk</title>
<g id="a_node16"><a xlink:href="norsemen_spearman_berserk_full.html" xlink:title="Spearman\nBerserk">
<ellipse fill="none" stroke="magenta" cx="871.298" cy="-26.8701" rx="50.41" ry="26.7407"/>
<text text-anchor="middle" x="871.298" y="-30.6701" font-family="Times,serif" font-size="14.00" fill="#ebc72d">Spearman</text>
<text text-anchor="middle" x="871.298" y="-15.6701" font-family="Times,serif" font-size="14.00" fill="#ebc72d">Berserk</text>
</a>
</g>
</g>
<!-- spearman&#45;&gt;spearman_berserk -->
<g id="edge25" class="edge"><title>spearman&#45;&gt;spearman_berserk</title>
<path fill="none" stroke="#ebc72d" stroke-dasharray="5,2" d="M864.878,-98.2755C865.773,-88.4643 866.926,-75.8168 868.007,-63.9541"/>
<polygon fill="#ebc72d" stroke="#ebc72d" points="871.509,-64.0987 868.931,-53.8222 864.538,-63.4631 871.509,-64.0987"/>
</g>
<!-- battleaxe_berserk -->
<g id="node24" class="node"><title>battleaxe_berserk</title>
<g id="a_node24"><a xlink:href="norsemen_battleaxe_berserk_full.html" xlink:title="Battleaxe\nBerserk">
<ellipse fill="none" stroke="magenta" cx="629.298" cy="-26.8701" rx="48.1667" ry="26.7407"/>
<text text-anchor="middle" x="629.298" y="-30.6701" font-family="Times,serif" font-size="14.00" fill="#ebc72d">Battleaxe</text>
<text text-anchor="middle" x="629.298" y="-15.6701" font-family="Times,serif" font-size="14.00" fill="#ebc72d">Berserk</text>
</a>
</g>
</g>
<!-- battleaxe&#45;&gt;battleaxe_berserk -->
<g id="edge1" class="edge"><title>battleaxe&#45;&gt;battleaxe_berserk</title>
<path fill="none" stroke="#ebc72d" stroke-dasharray="5,2" d="M635.717,-98.2755C634.822,-88.4643 633.669,-75.8168 632.588,-63.9541"/>
<polygon fill="#ebc72d" stroke="#ebc72d" points="636.057,-63.4631 631.664,-53.8222 629.086,-64.0987 636.057,-63.4631"/>
</g>
<!-- bone_tent&#45;&gt;archer -->
<g id="edge8" class="edge"><title>bone_tent&#45;&gt;archer</title>
<path fill="none" stroke="#ebc72d" d="M710.084,-193.633C697.307,-188.367 682.906,-183.07 669.298,-179.48 552.666,-148.713 514.321,-182.827 400.298,-143.48 395.062,-141.674 389.76,-139.207 384.737,-136.511"/>
<polygon fill="#ebc72d" stroke="#ebc72d" points="386.479,-133.475 376.069,-131.502 382.976,-139.536 386.479,-133.475"/>
</g>
<!-- bone_tent&#45;&gt;swordman -->
<g id="edge12" class="edge"><title>bone_tent&#45;&gt;swordman</title>
<path fill="none" stroke="#ebc72d" d="M749.298,-185.486C749.298,-172.828 749.298,-157.647 749.298,-144.855"/>
<polygon fill="#ebc72d" stroke="#ebc72d" points="752.798,-144.779 749.298,-134.779 745.798,-144.779 752.798,-144.779"/>
</g>
<!-- bone_tent&#45;&gt;spearman -->
<g id="edge11" class="edge"><title>bone_tent&#45;&gt;spearman</title>
<path fill="none" stroke="#ebc72d" stroke-dasharray="1,5" d="M781.053,-185.486C798.604,-171.001 820.158,-153.213 836.796,-139.481"/>
<polygon fill="#ebc72d" stroke="#ebc72d" points="839.046,-142.163 844.531,-133.098 834.59,-136.764 839.046,-142.163"/>
</g>
<!-- bone_tent&#45;&gt;battleaxe -->
<g id="edge10" class="edge"><title>bone_tent&#45;&gt;battleaxe</title>
<path fill="none" stroke="#ebc72d" d="M718.099,-185.486C701.013,-171.133 680.065,-153.536 663.781,-139.857"/>
<polygon fill="#ebc72d" stroke="#ebc72d" points="665.643,-136.85 655.735,-133.098 661.141,-142.21 665.643,-136.85"/>
</g>
<!-- bone_tent&#45;&gt;axe_thrower -->
<g id="edge9" class="edge"><title>bone_tent&#45;&gt;axe_thrower</title>
<path fill="none" stroke="#ebc72d" d="M788.737,-191.506C797.401,-187.336 806.589,-183.112 815.298,-179.48 860.054,-160.813 873.473,-161.984 918.298,-143.48 921.923,-141.983 925.654,-140.366 929.379,-138.696"/>
<polygon fill="#ebc72d" stroke="#ebc72d" points="930.94,-141.83 938.565,-134.474 928.017,-135.469 930.94,-141.83"/>
</g>
<!-- house&#45;&gt;spearman -->
<g id="edge19" class="edge"><title>house&#45;&gt;spearman</title>
<path fill="none" stroke="#ebc72d" d="M865.002,-197.811C864.707,-183.927 864.246,-162.202 863.877,-144.863"/>
<polygon fill="#ebc72d" stroke="#ebc72d" points="867.374,-144.667 863.662,-134.743 860.375,-144.816 867.374,-144.667"/>
</g>
<!-- house&#45;&gt;axe_thrower -->
<g id="edge17" class="edge"><title>house&#45;&gt;axe_thrower</title>
<path fill="none" stroke="#ebc72d" stroke-dasharray="1,5" d="M881.086,-197.811C896.516,-184.244 920.461,-163.189 939.946,-146.056"/>
<polygon fill="#ebc72d" stroke="#ebc72d" points="942.513,-148.46 947.712,-139.228 937.891,-143.203 942.513,-148.46"/>
</g>
<!-- house&#45;&gt;cudgel_lady -->
<g id="edge18" class="edge"><title>house&#45;&gt;cudgel_lady</title>
<path fill="none" stroke="#ebc72d" d="M885.762,-198.077C895.628,-191.883 907.794,-184.773 919.298,-179.48 964.88,-158.508 980.27,-163.455 1026.3,-143.48 1029.34,-142.161 1032.44,-140.719 1035.54,-139.213"/>
<polygon fill="#ebc72d" stroke="#ebc72d" points="1037.39,-142.199 1044.73,-134.557 1034.23,-135.955 1037.39,-142.199"/>
</g>
</g>
</svg>
