<?xml version="1.0" encoding="UTF-8" standalone="no"?>
<!DOCTYPE svg PUBLIC "-//W3C//DTD SVG 1.1//EN"
 "http://www.w3.org/Graphics/SVG/1.1/DTD/svg11.dtd">
<!-- Generated by graphviz version 2.38.0 (20140413.2041)
 -->
<!-- Title: test Pages: 1 -->
<svg width="1115pt" height="742pt"
 viewBox="0.00 0.00 1115.37 742.07" xmlns="http://www.w3.org/2000/svg" xmlns:xlink="http://www.w3.org/1999/xlink">
<g id="graph0" class="graph" transform="scale(1 1) rotate(0) translate(4 738.073)">
<title>test</title>
<polygon fill="#151515" stroke="none" points="-4,4 -4,-738.073 1111.37,-738.073 1111.37,4 -4,4"/>
<!-- farm -->
<g id="node1" class="node"><title>farm</title>
<g id="a_node1"><a xlink:href="norsemen_farm_full.html" xlink:title="Farm">
<polygon fill="none" stroke="red" points="82.6827,-531.996 45.7723,-544.434 8.86198,-531.996 8.89643,-511.871 82.6482,-511.871 82.6827,-531.996"/>
<text text-anchor="middle" x="45.7723" y="-522.734" font-family="Times,serif" font-size="14.00" fill="#ebc72d">Farm</text>
</a>
</g>
</g>
<!-- archer -->
<g id="node6" class="node"><title>archer</title>
<g id="a_node6"><a xlink:href="norsemen_archer_full.html" xlink:title="Archer">
<ellipse fill="none" stroke="magenta" cx="290.772" cy="-430.35" rx="35.194" ry="18"/>
<text text-anchor="middle" x="290.772" y="-426.65" font-family="Times,serif" font-size="14.00" fill="#ebc72d">Archer</text>
</a>
</g>
</g>
<!-- farm&#45;&gt;archer -->
<g id="edge17" class="edge"><title>farm&#45;&gt;archer</title>
<path fill="none" stroke="#ebc72d" stroke-dasharray="1,5" d="M81.1358,-511.854C127.158,-494.18 207.201,-463.443 253.936,-445.496"/>
<polygon fill="#ebc72d" stroke="#ebc72d" points="255.298,-448.722 263.379,-441.87 252.789,-442.187 255.298,-448.722"/>
</g>
<!-- flying_valkyrie -->
<g id="node15" class="node"><title>flying_valkyrie</title>
<g id="a_node15"><a xlink:href="norsemen_flying_valkyrie_full.html" xlink:title="Flying\nValkyrie">
<ellipse fill="none" stroke="magenta" cx="99.7723" cy="-26.8701" rx="45.011" ry="26.7407"/>
<text text-anchor="middle" x="99.7723" y="-30.6701" font-family="Times,serif" font-size="14.00" fill="#ebc72d">Flying</text>
<text text-anchor="middle" x="99.7723" y="-15.6701" font-family="Times,serif" font-size="14.00" fill="#ebc72d">Valkyrie</text>
</a>
</g>
</g>
<!-- farm&#45;&gt;flying_valkyrie -->
<g id="edge19" class="edge"><title>farm&#45;&gt;flying_valkyrie</title>
<path fill="none" stroke="#ebc72d" stroke-dasharray="1,5" d="M39.1025,-511.706C32.8867,-498.195 23.9656,-476.801 19.7723,-457.22 -10.8503,-314.227 22.8718,-273.296 0.772337,-128.74"/>
<path fill="none" stroke="#ebc72d" stroke-dasharray="1,5" d="M0.772337,-126.74C-4.61605,-92.49 26.7802,-65.697 55.6172,-48.6929"/>
<polygon fill="#ebc72d" stroke="#ebc72d" points="57.439,-51.6839 64.4409,-43.7326 54.0087,-45.582 57.439,-51.6839"/>
</g>
<!-- cow -->
<g id="node22" class="node"><title>cow</title>
<g id="a_node22"><a xlink:href="norsemen_cow_full.html" xlink:title="Cow">
<ellipse fill="none" stroke="magenta" cx="55.7723" cy="-430.35" rx="27.0966" ry="18"/>
<text text-anchor="middle" x="55.7723" y="-426.65" font-family="Times,serif" font-size="14.00" fill="#ebc72d">Cow</text>
</a>
</g>
</g>
<!-- farm&#45;&gt;cow -->
<g id="edge18" class="edge"><title>farm&#45;&gt;cow</title>
<path fill="none" stroke="#ebc72d" d="M47.2479,-511.551C48.7236,-497.667 51.0327,-475.942 52.8756,-458.603"/>
<polygon fill="#ebc72d" stroke="#ebc72d" points="56.3746,-458.798 53.9513,-448.484 49.4138,-458.058 56.3746,-458.798"/>
</g>
<!-- blacksmith -->
<g id="node2" class="node"><title>blacksmith</title>
<g id="a_node2"><a xlink:href="norsemen_blacksmith_full.html" xlink:title="Blacksmith">
<polygon fill="none" stroke="red" points="550.205,-435.913 486.772,-448.35 423.339,-435.913 423.399,-415.788 550.146,-415.788 550.205,-435.913"/>
<text text-anchor="middle" x="486.772" y="-426.65" font-family="Times,serif" font-size="14.00" fill="#ebc72d">Blacksmith</text>
</a>
</g>
</g>
<!-- thor -->
<g id="node5" class="node"><title>thor</title>
<g id="a_node5"><a xlink:href="norsemen_thor_full.html" xlink:title="Thor">
<ellipse fill="none" stroke="magenta" cx="94.7723" cy="-329.48" rx="27.8951" ry="18"/>
<text text-anchor="middle" x="94.7723" y="-325.78" font-family="Times,serif" font-size="14.00" fill="#ebc72d">Thor</text>
</a>
</g>
</g>
<!-- blacksmith&#45;&gt;thor -->
<g id="edge9" class="edge"><title>blacksmith&#45;&gt;thor</title>
<path fill="none" stroke="#ebc72d" stroke-dasharray="1,5" d="M423.2,-418.518C321.94,-401.229 135.008,-369.161 131.772,-367.48 125.164,-364.048 118.994,-359.021 113.66,-353.772"/>
<polygon fill="#ebc72d" stroke="#ebc72d" points="115.868,-351.008 106.488,-346.082 110.749,-355.782 115.868,-351.008"/>
</g>
<!-- mistletoe_tree -->
<g id="node10" class="node"><title>mistletoe_tree</title>
<g id="a_node10"><a xlink:href="norsemen_mistletoe_tree_full.html" xlink:title="Mistletoe\nTree">
<polygon fill="none" stroke="red" points="673.141,-339.81 613.772,-362.908 554.404,-339.81 554.459,-302.437 673.085,-302.437 673.141,-339.81"/>
<text text-anchor="middle" x="613.772" y="-333.28" font-family="Times,serif" font-size="14.00" fill="#ebc72d">Mistletoe</text>
<text text-anchor="middle" x="613.772" y="-318.28" font-family="Times,serif" font-size="14.00" fill="#ebc72d">Tree</text>
</a>
</g>
</g>
<!-- blacksmith&#45;&gt;mistletoe_tree -->
<g id="edge8" class="edge"><title>blacksmith&#45;&gt;mistletoe_tree</title>
<path fill="none" stroke="#ebc72d" stroke-dasharray="1,5" d="M504.431,-415.603C523.209,-400.984 553.44,-377.449 577.359,-358.828"/>
<polygon fill="#ebc72d" stroke="#ebc72d" points="579.787,-361.374 585.528,-352.469 575.487,-355.85 579.787,-361.374"/>
</g>
<!-- battleaxe -->
<g id="node17" class="node"><title>battleaxe</title>
<g id="a_node17"><a xlink:href="norsemen_battleaxe_full.html" xlink:title="Battleaxe">
<ellipse fill="none" stroke="magenta" cx="735.772" cy="-329.48" rx="44.393" ry="18"/>
<text text-anchor="middle" x="735.772" y="-325.78" font-family="Times,serif" font-size="14.00" fill="#ebc72d">Battleaxe</text>
</a>
</g>
</g>
<!-- blacksmith&#45;&gt;battleaxe -->
<g id="edge5" class="edge"><title>blacksmith&#45;&gt;battleaxe</title>
<path fill="none" stroke="#ebc72d" stroke-dasharray="1,5" d="M544.793,-415.734C584.5,-405.274 637.723,-388.975 681.772,-367.48 690.793,-363.078 700.017,-357.31 708.23,-351.642"/>
<polygon fill="#ebc72d" stroke="#ebc72d" points="710.264,-354.49 716.372,-345.833 706.199,-348.791 710.264,-354.49"/>
</g>
<!-- crossbow -->
<g id="node25" class="node"><title>crossbow</title>
<g id="a_node25"><a xlink:href="norsemen_crossbow_full.html" xlink:title="Crossbow">
<ellipse fill="none" stroke="magenta" cx="263.772" cy="-228.61" rx="46.2923" ry="18"/>
<text text-anchor="middle" x="263.772" y="-224.91" font-family="Times,serif" font-size="14.00" fill="#ebc72d">Crossbow</text>
</a>
</g>
</g>
<!-- blacksmith&#45;&gt;crossbow -->
<g id="edge6" class="edge"><title>blacksmith&#45;&gt;crossbow</title>
<path fill="none" stroke="#ebc72d" d="M427.164,-415.681C396.881,-406.267 361.213,-391.086 335.772,-367.48 308.089,-341.793 315.314,-324.924 297.772,-291.48 291.457,-279.439 284.23,-266.215 278.068,-255.095"/>
<polygon fill="#ebc72d" stroke="#ebc72d" points="281.106,-253.357 273.185,-246.321 274.989,-256.761 281.106,-253.357"/>
</g>
<!-- iron -->
<g id="node26" class="node"><title>iron</title>
<g id="a_node26"><a xlink:href="norsemen_iron_full.html" xlink:title="Iron">
<polygon fill="none" stroke="green" points="419.102,-347.48 359.719,-347.48 344.442,-311.48 403.826,-311.48 419.102,-347.48"/>
<text text-anchor="middle" x="381.772" y="-325.78" font-family="Times,serif" font-size="14.00" fill="#ebc72d">Iron</text>
</a>
</g>
</g>
<!-- blacksmith&#45;&gt;iron -->
<g id="edge7" class="edge"><title>blacksmith&#45;&gt;iron</title>
<path fill="none" stroke="#ebc72d" d="M472.173,-415.603C455.484,-399.888 427.854,-373.872 407.525,-354.73"/>
<polygon fill="#ebc72d" stroke="#ebc72d" points="409.809,-352.073 400.129,-347.766 405.011,-357.169 409.809,-352.073"/>
</g>
<!-- arrow -->
<g id="node30" class="node"><title>arrow</title>
<g id="a_node30"><a xlink:href="norsemen_arrow_full.html" xlink:title="Arrow">
<polygon fill="none" stroke="green" points="536.378,-347.48 457.466,-347.48 437.167,-311.48 516.078,-311.48 536.378,-347.48"/>
<text text-anchor="middle" x="486.772" y="-325.78" font-family="Times,serif" font-size="14.00" fill="#ebc72d">Arrow</text>
</a>
</g>
</g>
<!-- blacksmith&#45;&gt;arrow -->
<g id="edge4" class="edge"><title>blacksmith&#45;&gt;arrow</title>
<path fill="none" stroke="#ebc72d" d="M486.772,-415.603C486.772,-400.719 486.772,-376.594 486.772,-357.821"/>
<polygon fill="#ebc72d" stroke="#ebc72d" points="490.272,-357.766 486.772,-347.766 483.272,-357.766 490.272,-357.766"/>
</g>
<!-- advanced_iron -->
<g id="node31" class="node"><title>advanced_iron</title>
<g id="a_node31"><a xlink:href="norsemen_advanced_iron_full.html" xlink:title="Advanced\nIron">
<polygon fill="none" stroke="green" points="288.491,-367.48 171.221,-367.48 141.053,-291.48 258.324,-291.48 288.491,-367.48"/>
<text text-anchor="middle" x="214.772" y="-333.28" font-family="Times,serif" font-size="14.00" fill="#ebc72d">Advanced</text>
<text text-anchor="middle" x="214.772" y="-318.28" font-family="Times,serif" font-size="14.00" fill="#ebc72d">Iron</text>
</a>
</g>
</g>
<!-- blacksmith&#45;&gt;advanced_iron -->
<g id="edge3" class="edge"><title>blacksmith&#45;&gt;advanced_iron</title>
<path fill="none" stroke="#ebc72d" d="M443.329,-415.74C405.841,-403.758 350.379,-385.464 302.772,-367.48 300.398,-366.583 297.993,-365.661 295.57,-364.721"/>
<polygon fill="#ebc72d" stroke="#ebc72d" points="296.742,-361.421 286.155,-361.011 294.176,-367.934 296.742,-361.421"/>
</g>
<!-- valhalla -->
<g id="node3" class="node"><title>valhalla</title>
<g id="a_node3"><a xlink:href="norsemen_valhalla_full.html" xlink:title="Valhalla">
<polygon fill="none" stroke="red" points="427.391,-234.172 377.772,-246.61 328.153,-234.172 328.2,-214.048 427.345,-214.048 427.391,-234.172"/>
<text text-anchor="middle" x="377.772" y="-224.91" font-family="Times,serif" font-size="14.00" fill="#ebc72d">Valhalla</text>
</a>
</g>
</g>
<!-- valkyrie -->
<g id="node11" class="node"><title>valkyrie</title>
<g id="a_node11"><a xlink:href="norsemen_valkyrie_full.html" xlink:title="Valkyrie">
<ellipse fill="none" stroke="magenta" cx="377.772" cy="-127.74" rx="41.6928" ry="18"/>
<text text-anchor="middle" x="377.772" y="-124.04" font-family="Times,serif" font-size="14.00" fill="#ebc72d">Valkyrie</text>
</a>
</g>
</g>
<!-- valhalla&#45;&gt;valkyrie -->
<g id="edge53" class="edge"><title>valhalla&#45;&gt;valkyrie</title>
<path fill="none" stroke="#ebc72d" d="M377.772,-213.863C377.772,-198.979 377.772,-174.854 377.772,-156.08"/>
<polygon fill="#ebc72d" stroke="#ebc72d" points="381.272,-156.026 377.772,-146.026 374.272,-156.026 381.272,-156.026"/>
</g>
<!-- valhalla&#45;&gt;flying_valkyrie -->
<g id="edge51" class="edge"><title>valhalla&#45;&gt;flying_valkyrie</title>
<path fill="none" stroke="#ebc72d" d="M350.36,-214.027C340.577,-209.601 329.356,-204.995 318.772,-201.74 249.471,-180.428 11.7294,-200.412 0.772337,-128.74"/>
</g>
<!-- holy_valkyrie -->
<g id="node27" class="node"><title>holy_valkyrie</title>
<g id="a_node27"><a xlink:href="norsemen_holy_valkyrie_full.html" xlink:title="Holy\nValkyrie">
<polygon fill="none" stroke="green" points="265.977,-165.74 160.66,-165.74 133.568,-89.7401 238.885,-89.7401 265.977,-165.74"/>
<text text-anchor="middle" x="199.772" y="-131.54" font-family="Times,serif" font-size="14.00" fill="#ebc72d">Holy</text>
<text text-anchor="middle" x="199.772" y="-116.54" font-family="Times,serif" font-size="14.00" fill="#ebc72d">Valkyrie</text>
</a>
</g>
</g>
<!-- valhalla&#45;&gt;holy_valkyrie -->
<g id="edge52" class="edge"><title>valhalla&#45;&gt;holy_valkyrie</title>
<path fill="none" stroke="#ebc72d" d="M353.022,-213.863C332.766,-202.611 303.001,-186.079 275.079,-170.569"/>
<polygon fill="#ebc72d" stroke="#ebc72d" points="276.534,-167.374 266.093,-165.578 273.135,-173.493 276.534,-167.374"/>
</g>
<!-- wild_sow -->
<g id="node4" class="node"><title>wild_sow</title>
<g id="a_node4"><a xlink:href="norsemen_wild_sow_full.html" xlink:title="Wild\nSow">
<ellipse fill="none" stroke="magenta" cx="582.772" cy="-228.61" rx="31.2258" ry="26.7407"/>
<text text-anchor="middle" x="582.772" y="-232.41" font-family="Times,serif" font-size="14.00" fill="#ebc72d">Wild</text>
<text text-anchor="middle" x="582.772" y="-217.41" font-family="Times,serif" font-size="14.00" fill="#ebc72d">Sow</text>
</a>
</g>
</g>
<!-- mead_bar -->
<g id="node7" class="node"><title>mead_bar</title>
<g id="a_node7"><a xlink:href="norsemen_mead_bar_full.html" xlink:title="Mead\nBar">
<polygon fill="none" stroke="red" points="812.679,-536.763 770.772,-559.861 728.865,-536.763 728.904,-499.39 812.64,-499.39 812.679,-536.763"/>
<text text-anchor="middle" x="770.772" y="-530.234" font-family="Times,serif" font-size="14.00" fill="#ebc72d">Mead</text>
<text text-anchor="middle" x="770.772" y="-515.234" font-family="Times,serif" font-size="14.00" fill="#ebc72d">Bar</text>
</a>
</g>
</g>
<!-- mead_bar&#45;&gt;mistletoe_tree -->
<g id="edge31" class="edge"><title>mead_bar&#45;&gt;mistletoe_tree</title>
<path fill="none" stroke="#ebc72d" stroke-dasharray="1,5" d="M775.759,-499.096C779.272,-472.52 780.368,-431.512 760.772,-403.48 738.897,-372.188 716.945,-384.51 682.772,-367.48 674.463,-363.34 665.677,-358.775 657.259,-354.307"/>
<polygon fill="#ebc72d" stroke="#ebc72d" points="658.778,-351.151 648.309,-349.522 655.477,-357.323 658.778,-351.151"/>
</g>
<!-- spearman -->
<g id="node14" class="node"><title>spearman</title>
<g id="a_node14"><a xlink:href="norsemen_spearman_full.html" xlink:title="Spearman">
<ellipse fill="none" stroke="magenta" cx="963.772" cy="-430.35" rx="46.2923" ry="18"/>
<text text-anchor="middle" x="963.772" y="-426.65" font-family="Times,serif" font-size="14.00" fill="#ebc72d">Spearman</text>
</a>
</g>
</g>
<!-- mead_bar&#45;&gt;spearman -->
<g id="edge32" class="edge"><title>mead_bar&#45;&gt;spearman</title>
<path fill="none" stroke="#ebc72d" d="M812.65,-505.019C846.655,-488.442 894.153,-465.288 926.773,-449.387"/>
<polygon fill="#ebc72d" stroke="#ebc72d" points="928.516,-452.431 935.971,-444.903 925.448,-446.139 928.516,-452.431"/>
</g>
<!-- axe_thrower -->
<g id="node18" class="node"><title>axe_thrower</title>
<g id="a_node18"><a xlink:href="norsemen_axe_thrower_full.html" xlink:title="Axe\nThrower">
<ellipse fill="none" stroke="magenta" cx="706.772" cy="-430.35" rx="44.5955" ry="26.7407"/>
<text text-anchor="middle" x="706.772" y="-434.15" font-family="Times,serif" font-size="14.00" fill="#ebc72d">Axe</text>
<text text-anchor="middle" x="706.772" y="-419.15" font-family="Times,serif" font-size="14.00" fill="#ebc72d">Thrower</text>
</a>
</g>
</g>
<!-- mead_bar&#45;&gt;axe_thrower -->
<g id="edge28" class="edge"><title>mead_bar&#45;&gt;axe_thrower</title>
<path fill="none" stroke="#ebc72d" stroke-dasharray="1,5" d="M752.945,-499.226C745.517,-488.308 736.814,-475.512 728.977,-463.992"/>
<polygon fill="#ebc72d" stroke="#ebc72d" points="731.707,-461.783 723.189,-455.484 725.92,-465.721 731.707,-461.783"/>
</g>
<!-- cudgel_lady -->
<g id="node23" class="node"><title>cudgel_lady</title>
<g id="a_node23"><a xlink:href="norsemen_cudgel_lady_full.html" xlink:title="Cudgel\nLady">
<ellipse fill="none" stroke="magenta" cx="1067.77" cy="-430.35" rx="39.6962" ry="26.7407"/>
<text text-anchor="middle" x="1067.77" y="-434.15" font-family="Times,serif" font-size="14.00" fill="#ebc72d">Cudgel</text>
<text text-anchor="middle" x="1067.77" y="-419.15" font-family="Times,serif" font-size="14.00" fill="#ebc72d">Lady</text>
</a>
</g>
</g>
<!-- mead_bar&#45;&gt;cudgel_lady -->
<g id="edge29" class="edge"><title>mead_bar&#45;&gt;cudgel_lady</title>
<path fill="none" stroke="#ebc72d" d="M812.921,-516.782C863.003,-505.835 948.608,-485.008 1018.77,-457.22 1022.19,-455.865 1025.69,-454.338 1029.15,-452.72"/>
<polygon fill="#ebc72d" stroke="#ebc72d" points="1030.76,-455.827 1038.2,-448.28 1027.68,-449.543 1030.76,-455.827"/>
</g>
<!-- mead -->
<g id="node28" class="node"><title>mead</title>
<g id="a_node28"><a xlink:href="norsemen_mead_full.html" xlink:title="Mead">
<polygon fill="none" stroke="green" points="899.756,-448.35 826.606,-448.35 807.789,-412.35 880.938,-412.35 899.756,-448.35"/>
<text text-anchor="middle" x="853.772" y="-426.65" font-family="Times,serif" font-size="14.00" fill="#ebc72d">Mead</text>
</a>
</g>
</g>
<!-- mead_bar&#45;&gt;mead -->
<g id="edge30" class="edge"><title>mead_bar&#45;&gt;mead</title>
<path fill="none" stroke="#ebc72d" d="M793.892,-499.226C805.73,-485.808 820.067,-469.556 831.745,-456.319"/>
<polygon fill="#ebc72d" stroke="#ebc72d" points="834.635,-458.334 838.626,-448.519 829.386,-453.703 834.635,-458.334"/>
</g>
<!-- thor_totem -->
<g id="node8" class="node"><title>thor_totem</title>
<g id="a_node8"><a xlink:href="norsemen_thor_totem_full.html" xlink:title="Thor\nTotem">
<polygon fill="none" stroke="red" points="420.92,-639.19 374.772,-662.288 328.624,-639.19 328.667,-601.816 420.877,-601.816 420.92,-639.19"/>
<text text-anchor="middle" x="374.772" y="-632.66" font-family="Times,serif" font-size="14.00" fill="#ebc72d">Thor</text>
<text text-anchor="middle" x="374.772" y="-617.66" font-family="Times,serif" font-size="14.00" fill="#ebc72d">Totem</text>
</a>
</g>
</g>
<!-- thor_totem&#45;&gt;thor -->
<g id="edge41" class="edge"><title>thor_totem&#45;&gt;thor</title>
<path fill="none" stroke="#ebc72d" stroke-dasharray="5,2" d="M350.17,-601.73C295.859,-544.048 166.517,-406.678 115.744,-352.753"/>
<polygon fill="#ebc72d" stroke="#ebc72d" points="118.244,-350.303 108.841,-345.422 113.148,-355.102 118.244,-350.303"/>
</g>
<!-- swordman -->
<g id="node9" class="node"><title>swordman</title>
<g id="a_node9"><a xlink:href="norsemen_swordman_full.html" xlink:title="Swordman">
<ellipse fill="none" stroke="magenta" cx="818.772" cy="-228.61" rx="49.2915" ry="18"/>
<text text-anchor="middle" x="818.772" y="-224.91" font-family="Times,serif" font-size="14.00" fill="#ebc72d">Swordman</text>
</a>
</g>
</g>
<!-- swordman_berserk -->
<g id="node12" class="node"><title>swordman_berserk</title>
<g id="a_node12"><a xlink:href="norsemen_swordman_berserk_full.html" xlink:title="Swordman\nBerserk">
<ellipse fill="none" stroke="magenta" cx="818.772" cy="-127.74" rx="53.9813" ry="26.7407"/>
<text text-anchor="middle" x="818.772" y="-131.54" font-family="Times,serif" font-size="14.00" fill="#ebc72d">Swordman</text>
<text text-anchor="middle" x="818.772" y="-116.54" font-family="Times,serif" font-size="14.00" fill="#ebc72d">Berserk</text>
</a>
</g>
</g>
<!-- swordman&#45;&gt;swordman_berserk -->
<g id="edge40" class="edge"><title>swordman&#45;&gt;swordman_berserk</title>
<path fill="none" stroke="#ebc72d" stroke-dasharray="5,2" d="M818.772,-210.388C818.772,-197.892 818.772,-180.53 818.772,-165.029"/>
<polygon fill="#ebc72d" stroke="#ebc72d" points="822.272,-164.677 818.772,-154.677 815.272,-164.677 822.272,-164.677"/>
</g>
<!-- mistletoe_tree&#45;&gt;valhalla -->
<g id="edge34" class="edge"><title>mistletoe_tree&#45;&gt;valhalla</title>
<path fill="none" stroke="#ebc72d" stroke-dasharray="1,5" d="M567.774,-302.286C560.5,-298.484 552.995,-294.754 545.772,-291.48 502.872,-272.034 451.893,-253.93 417.432,-242.394"/>
<polygon fill="#ebc72d" stroke="#ebc72d" points="418.327,-239.003 407.733,-239.175 416.122,-245.647 418.327,-239.003"/>
</g>
<!-- mistletoe_tree&#45;&gt;wild_sow -->
<g id="edge35" class="edge"><title>mistletoe_tree&#45;&gt;wild_sow</title>
<path fill="none" stroke="#ebc72d" d="M605.546,-302.244C601.923,-290.688 597.614,-276.945 593.724,-264.539"/>
<polygon fill="#ebc72d" stroke="#ebc72d" points="597.047,-263.438 590.715,-254.943 590.368,-265.532 597.047,-263.438"/>
</g>
<!-- root -->
<g id="node29" class="node"><title>root</title>
<g id="a_node29"><a xlink:href="norsemen_root_full.html" xlink:title="Root">
<polygon fill="none" stroke="green" points="751.725,-246.61 686.578,-246.61 669.82,-210.61 734.966,-210.61 751.725,-246.61"/>
<text text-anchor="middle" x="710.772" y="-224.91" font-family="Times,serif" font-size="14.00" fill="#ebc72d">Root</text>
</a>
</g>
</g>
<!-- mistletoe_tree&#45;&gt;root -->
<g id="edge33" class="edge"><title>mistletoe_tree&#45;&gt;root</title>
<path fill="none" stroke="#ebc72d" d="M639.512,-302.244C654.233,-287.24 672.572,-268.547 686.959,-253.883"/>
<polygon fill="#ebc72d" stroke="#ebc72d" points="689.577,-256.212 694.082,-246.622 684.58,-251.309 689.577,-256.212"/>
</g>
<!-- thrall -->
<g id="node13" class="node"><title>thrall</title>
<g id="a_node13"><a xlink:href="norsemen_thrall_full.html" xlink:title="Thrall">
<ellipse fill="none" stroke="magenta" cx="595.772" cy="-716.073" rx="32.4942" ry="18"/>
<text text-anchor="middle" x="595.772" y="-712.373" font-family="Times,serif" font-size="14.00" fill="#ebc72d">Thrall</text>
</a>
</g>
</g>
<!-- thrall&#45;&gt;farm -->
<g id="edge45" class="edge"><title>thrall&#45;&gt;farm</title>
<path fill="none" stroke="#ebc72d" stroke-width="2" d="M563.405,-713.67C466.107,-708.811 178.777,-689.593 110.772,-629.86"/>
<path fill="none" stroke="#ebc72d" stroke-width="2" d="M110.772,-627.86C86.4419,-606.489 67.6361,-573.895 56.6512,-551.678"/>
<polygon fill="#ebc72d" stroke="#ebc72d" stroke-width="2" points="59.7663,-550.079 52.2957,-542.566 53.4507,-553.098 59.7663,-550.079"/>
</g>
<!-- thrall&#45;&gt;blacksmith -->
<g id="edge42" class="edge"><title>thrall&#45;&gt;blacksmith</title>
<path fill="none" stroke="#ebc72d" stroke-width="2" d="M592.551,-697.876C589.985,-680.267 587.974,-652.366 595.772,-629.86"/>
<path fill="none" stroke="#ebc72d" stroke-width="2" d="M595.772,-627.86C610.386,-585.686 607.16,-570.59 595.772,-527.434"/>
<path fill="none" stroke="#ebc72d" stroke-width="2" d="M595.772,-525.434C586.261,-489.385 550.837,-463.407 522.921,-448.001"/>
<polygon fill="#ebc72d" stroke="#ebc72d" stroke-width="2" points="524.268,-444.754 513.79,-443.182 521.001,-450.945 524.268,-444.754"/>
</g>
<!-- thrall&#45;&gt;valhalla -->
<g id="edge50" class="edge"><title>thrall&#45;&gt;valhalla</title>
<path fill="none" stroke="#ebc72d" stroke-width="2" d="M110.772,-627.86C73.1757,-594.836 112.207,-449.158 91.7723,-403.48 82.7852,-383.391 65.9031,-387.931 57.7723,-367.48 45.2931,-336.092 35.5795,-316.944 57.7723,-291.48 96.2406,-247.342 262.426,-271.387 318.772,-255.48 328.021,-252.869 337.707,-249.097 346.496,-245.237"/>
<polygon fill="#ebc72d" stroke="#ebc72d" stroke-width="2" points="347.98,-248.407 355.617,-241.064 345.068,-242.041 347.98,-248.407"/>
</g>
<!-- thrall&#45;&gt;mead_bar -->
<g id="edge47" class="edge"><title>thrall&#45;&gt;mead_bar</title>
<path fill="none" stroke="#ebc72d" stroke-width="2" d="M595.772,-627.86C601.214,-612.154 602.041,-606.334 614.772,-595.647 649.674,-566.349 669.272,-578.466 710.772,-559.647 718.04,-556.351 725.647,-552.553 732.909,-548.748"/>
<polygon fill="#ebc72d" stroke="#ebc72d" stroke-width="2" points="734.699,-551.76 741.87,-543.961 731.401,-545.586 734.699,-551.76"/>
</g>
<!-- thrall&#45;&gt;thor_totem -->
<g id="edge49" class="edge"><title>thrall&#45;&gt;thor_totem</title>
<path fill="none" stroke="#ebc72d" stroke-width="2" d="M569.553,-704.964C533.016,-690.876 466.213,-665.118 421.156,-647.744"/>
<polygon fill="#ebc72d" stroke="#ebc72d" stroke-width="2" points="422.199,-644.396 411.609,-644.064 419.68,-650.927 422.199,-644.396"/>
</g>
<!-- thrall&#45;&gt;mistletoe_tree -->
<g id="edge48" class="edge"><title>thrall&#45;&gt;mistletoe_tree</title>
<path fill="none" stroke="#ebc72d" stroke-width="2" d="M595.772,-525.434C581.852,-472.676 592.467,-409.427 602.32,-369.588"/>
<polygon fill="#ebc72d" stroke="#ebc72d" stroke-width="2" points="605.752,-370.296 604.86,-359.739 598.974,-368.548 605.752,-370.296"/>
</g>
<!-- bone_tent -->
<g id="node19" class="node"><title>bone_tent</title>
<g id="a_node19"><a xlink:href="norsemen_bone_tent_full.html" xlink:title="Bone\nTent">
<polygon fill="none" stroke="red" points="701.936,-536.763 662.772,-559.861 623.609,-536.763 623.645,-499.39 701.899,-499.39 701.936,-536.763"/>
<text text-anchor="middle" x="662.772" y="-530.234" font-family="Times,serif" font-size="14.00" fill="#ebc72d">Bone</text>
<text text-anchor="middle" x="662.772" y="-515.234" font-family="Times,serif" font-size="14.00" fill="#ebc72d">Tent</text>
</a>
</g>
</g>
<!-- thrall&#45;&gt;bone_tent -->
<g id="edge43" class="edge"><title>thrall&#45;&gt;bone_tent</title>
<path fill="none" stroke="#ebc72d" stroke-width="2" d="M595.772,-627.86C604.858,-601.638 622.468,-575.676 637.355,-556.719"/>
<polygon fill="#ebc72d" stroke="#ebc72d" stroke-width="2" points="640.199,-558.768 643.748,-548.786 634.748,-554.376 640.199,-558.768"/>
</g>
<!-- house -->
<g id="node20" class="node"><title>house</title>
<g id="a_node20"><a xlink:href="norsemen_house_full.html" xlink:title="House">
<polygon fill="none" stroke="red" points="705.716,-634.422 664.772,-646.86 623.828,-634.422 623.866,-614.298 705.678,-614.298 705.716,-634.422"/>
<text text-anchor="middle" x="664.772" y="-625.16" font-family="Times,serif" font-size="14.00" fill="#ebc72d">House</text>
</a>
</g>
</g>
<!-- thrall&#45;&gt;house -->
<g id="edge46" class="edge"><title>thrall&#45;&gt;house</title>
<path fill="none" stroke="#ebc72d" stroke-width="2" d="M608.428,-699.444C619.226,-686.109 634.873,-666.785 646.939,-651.883"/>
<polygon fill="#ebc72d" stroke="#ebc72d" stroke-width="2" points="649.993,-653.673 653.566,-643.699 644.553,-649.268 649.993,-653.673"/>
</g>
<!-- castle -->
<g id="node21" class="node"><title>castle</title>
<g id="a_node21"><a xlink:href="norsemen_castle_full.html" xlink:title="Castle">
<polygon fill="none" stroke="red" points="804.11,-634.422 763.772,-646.86 723.434,-634.422 723.472,-614.298 804.073,-614.298 804.11,-634.422"/>
<text text-anchor="middle" x="763.772" y="-625.16" font-family="Times,serif" font-size="14.00" fill="#ebc72d">Castle</text>
</a>
</g>
</g>
<!-- thrall&#45;&gt;castle -->
<g id="edge44" class="edge"><title>thrall&#45;&gt;castle</title>
<path fill="none" stroke="#ebc72d" stroke-width="2" d="M631.326,-701.022C655.365,-691.092 687.564,-676.947 714.772,-662.073 722.734,-657.721 731.091,-652.495 738.603,-647.531"/>
<polygon fill="#ebc72d" stroke="#ebc72d" stroke-width="2" points="629.823,-697.855 621.889,-704.877 632.47,-704.335 629.823,-697.855"/>
<polygon fill="#ebc72d" stroke="#ebc72d" stroke-width="2" points="740.628,-650.386 746.959,-641.892 736.712,-644.584 740.628,-650.386"/>
</g>
<!-- spearman_berserk -->
<g id="node16" class="node"><title>spearman_berserk</title>
<g id="a_node16"><a xlink:href="norsemen_spearman_berserk_full.html" xlink:title="Spearman\nBerserk">
<ellipse fill="none" stroke="magenta" cx="944.772" cy="-127.74" rx="50.41" ry="26.7407"/>
<text text-anchor="middle" x="944.772" y="-131.54" font-family="Times,serif" font-size="14.00" fill="#ebc72d">Spearman</text>
<text text-anchor="middle" x="944.772" y="-116.54" font-family="Times,serif" font-size="14.00" fill="#ebc72d">Berserk</text>
</a>
</g>
</g>
<!-- spearman&#45;&gt;spearman_berserk -->
<g id="edge39" class="edge"><title>spearman&#45;&gt;spearman_berserk</title>
<path fill="none" stroke="#ebc72d" stroke-dasharray="5,2" d="M962.696,-412.327C959.7,-364.912 951.207,-230.55 947.08,-165.256"/>
<polygon fill="#ebc72d" stroke="#ebc72d" points="950.557,-164.78 946.433,-155.02 943.571,-165.221 950.557,-164.78"/>
</g>
<!-- battleaxe_berserk -->
<g id="node24" class="node"><title>battleaxe_berserk</title>
<g id="a_node24"><a xlink:href="norsemen_battleaxe_berserk_full.html" xlink:title="Battleaxe\nBerserk">
<ellipse fill="none" stroke="magenta" cx="669.772" cy="-127.74" rx="48.1667" ry="26.7407"/>
<text text-anchor="middle" x="669.772" y="-131.54" font-family="Times,serif" font-size="14.00" fill="#ebc72d">Battleaxe</text>
<text text-anchor="middle" x="669.772" y="-116.54" font-family="Times,serif" font-size="14.00" fill="#ebc72d">Berserk</text>
</a>
</g>
</g>
<!-- battleaxe&#45;&gt;battleaxe_berserk -->
<g id="edge2" class="edge"><title>battleaxe&#45;&gt;battleaxe_berserk</title>
<path fill="none" stroke="#ebc72d" stroke-dasharray="5,2" d="M712.936,-313.954C694.981,-301.06 671.302,-280.423 660.772,-255.48 648.579,-226.596 652.699,-190.717 658.777,-164.514"/>
<polygon fill="#ebc72d" stroke="#ebc72d" points="662.218,-165.182 661.268,-154.63 655.431,-163.471 662.218,-165.182"/>
</g>
<!-- bone_tent&#45;&gt;blacksmith -->
<g id="edge13" class="edge"><title>bone_tent&#45;&gt;blacksmith</title>
<path fill="none" stroke="#ebc72d" stroke-dasharray="1,5" d="M623.616,-501.155C618.982,-498.424 614.293,-495.726 609.772,-493.22 580.481,-476.986 546.411,-459.99 521.566,-447.929"/>
<polygon fill="#ebc72d" stroke="#ebc72d" points="523.051,-444.76 512.525,-443.56 520.005,-451.062 523.051,-444.76"/>
</g>
<!-- bone_tent&#45;&gt;archer -->
<g id="edge10" class="edge"><title>bone_tent&#45;&gt;archer</title>
<path fill="none" stroke="#ebc72d" d="M623.634,-499.53C619.076,-497.156 614.4,-494.985 609.772,-493.22 527.426,-461.816 501.248,-474.221 414.772,-457.22 387.301,-451.82 356.485,-445.392 332.446,-440.295"/>
<polygon fill="#ebc72d" stroke="#ebc72d" points="333.097,-436.856 322.588,-438.199 331.641,-443.703 333.097,-436.856"/>
</g>
<!-- bone_tent&#45;&gt;swordman -->
<g id="edge15" class="edge"><title>bone_tent&#45;&gt;swordman</title>
<path fill="none" stroke="#ebc72d" d="M633.772,-429.35C657.333,-359.017 737.504,-421.084 788.772,-367.48 817.095,-337.868 821.213,-288.089 820.666,-257.141"/>
<polygon fill="#ebc72d" stroke="#ebc72d" points="824.16,-256.914 820.309,-247.044 817.164,-257.161 824.16,-256.914"/>
</g>
<!-- bone_tent&#45;&gt;spearman -->
<g id="edge14" class="edge"><title>bone_tent&#45;&gt;spearman</title>
<path fill="none" stroke="#ebc72d" stroke-dasharray="1,5" d="M702.154,-501.021C707.924,-498.086 713.902,-495.372 719.772,-493.22 800.06,-463.794 827.441,-483.627 908.772,-457.22 915.313,-455.097 922.088,-452.378 928.555,-449.504"/>
<polygon fill="#ebc72d" stroke="#ebc72d" points="930.15,-452.622 937.744,-445.235 927.2,-446.274 930.15,-452.622"/>
</g>
<!-- bone_tent&#45;&gt;battleaxe -->
<g id="edge12" class="edge"><title>bone_tent&#45;&gt;battleaxe</title>
<path fill="none" stroke="#ebc72d" d="M645.839,-499.368C635.692,-480.422 626.117,-454.202 633.772,-431.35"/>
<path fill="none" stroke="#ebc72d" d="M633.772,-429.35C640.189,-410.195 680.166,-375.065 708.122,-352.252"/>
<polygon fill="#ebc72d" stroke="#ebc72d" points="710.426,-354.89 716.005,-345.883 706.027,-349.445 710.426,-354.89"/>
</g>
<!-- bone_tent&#45;&gt;axe_thrower -->
<g id="edge11" class="edge"><title>bone_tent&#45;&gt;axe_thrower</title>
<path fill="none" stroke="#ebc72d" d="M675.029,-499.226C679.867,-488.881 685.493,-476.851 690.653,-465.818"/>
<polygon fill="#ebc72d" stroke="#ebc72d" points="693.97,-466.986 695.036,-456.445 687.629,-464.021 693.97,-466.986"/>
</g>
<!-- house&#45;&gt;mead_bar -->
<g id="edge23" class="edge"><title>house&#45;&gt;mead_bar</title>
<path fill="none" stroke="#ebc72d" stroke-dasharray="1,5" d="M679.511,-613.896C695.451,-598.794 721.277,-574.326 741.395,-555.266"/>
<polygon fill="#ebc72d" stroke="#ebc72d" points="743.941,-557.676 748.793,-548.257 739.126,-552.594 743.941,-557.676"/>
</g>
<!-- house&#45;&gt;spearman -->
<g id="edge24" class="edge"><title>house&#45;&gt;spearman</title>
<path fill="none" stroke="#ebc72d" d="M682.902,-613.983C692.037,-607.577 703.538,-600.365 714.772,-595.647 841.242,-542.534 933.478,-637.175 1015.77,-527.434"/>
<path fill="none" stroke="#ebc72d" d="M1015.77,-525.434C1032.92,-502.561 1010.93,-473.374 990.496,-453.619"/>
<polygon fill="#ebc72d" stroke="#ebc72d" points="992.834,-451.013 983.114,-446.796 988.083,-456.154 992.834,-451.013"/>
</g>
<!-- house&#45;&gt;bone_tent -->
<g id="edge21" class="edge"><title>house&#45;&gt;bone_tent</title>
<path fill="none" stroke="#ebc72d" stroke-dasharray="1,5" d="M664.494,-613.896C664.267,-602.49 663.934,-585.74 663.62,-570.013"/>
<polygon fill="#ebc72d" stroke="#ebc72d" points="667.117,-569.82 663.419,-559.892 660.119,-569.96 667.117,-569.82"/>
</g>
<!-- house&#45;&gt;cudgel_lady -->
<g id="edge22" class="edge"><title>house&#45;&gt;cudgel_lady</title>
<path fill="none" stroke="#ebc72d" d="M1015.77,-525.434C1029.76,-506.785 1042.47,-483.938 1051.83,-465.429"/>
<polygon fill="#ebc72d" stroke="#ebc72d" points="1054.97,-466.974 1056.28,-456.46 1048.7,-463.866 1054.97,-466.974"/>
</g>
<!-- iron&#45;&gt;crossbow -->
<g id="edge25" class="edge"><title>iron&#45;&gt;crossbow</title>
<path fill="none" stroke="#ebc72d" stroke-dasharray="1,5" d="M361.218,-311.258C341.545,-294.775 311.771,-269.827 290.313,-251.848"/>
<polygon fill="#ebc72d" stroke="#ebc72d" points="292.448,-249.071 282.535,-245.331 287.952,-254.436 292.448,-249.071"/>
</g>
<!-- holy_valkyrie&#45;&gt;flying_valkyrie -->
<g id="edge20" class="edge"><title>holy_valkyrie&#45;&gt;flying_valkyrie</title>
<path fill="none" stroke="#ebc72d" stroke-dasharray="1,5" d="M162.252,-89.6433C151.459,-78.9729 139.838,-67.4832 129.58,-57.341"/>
<polygon fill="#ebc72d" stroke="#ebc72d" points="131.955,-54.767 122.383,-50.2251 127.033,-59.7448 131.955,-54.767"/>
</g>
<!-- mead&#45;&gt;swordman_berserk -->
<g id="edge27" class="edge"><title>mead&#45;&gt;swordman_berserk</title>
<path fill="none" stroke="#ebc72d" stroke-dasharray="1,5" d="M860.349,-412.207C874.183,-373.475 902.94,-276.74 876.772,-201.74 871.348,-186.194 861.078,-171.477 850.668,-159.385"/>
<polygon fill="#ebc72d" stroke="#ebc72d" points="853.155,-156.915 843.857,-151.835 847.957,-161.604 853.155,-156.915"/>
</g>
<!-- mead&#45;&gt;battleaxe -->
<g id="edge26" class="edge"><title>mead&#45;&gt;battleaxe</title>
<path fill="none" stroke="#ebc72d" stroke-dasharray="1,5" d="M833.218,-412.128C813.428,-395.547 783.416,-370.4 761.931,-352.398"/>
<polygon fill="#ebc72d" stroke="#ebc72d" points="764.066,-349.621 754.153,-345.881 759.57,-354.986 764.066,-349.621"/>
</g>
<!-- root&#45;&gt;swordman_berserk -->
<g id="edge38" class="edge"><title>root&#45;&gt;swordman_berserk</title>
<path fill="none" stroke="#ebc72d" stroke-dasharray="1,5" d="M729.585,-210.388C745.131,-196.156 767.571,-175.613 786.052,-158.695"/>
<polygon fill="#ebc72d" stroke="#ebc72d" points="788.685,-161.029 793.698,-151.695 783.959,-155.866 788.685,-161.029"/>
</g>
<!-- root&#45;&gt;spearman_berserk -->
<g id="edge37" class="edge"><title>root&#45;&gt;spearman_berserk</title>
<path fill="none" stroke="#ebc72d" stroke-dasharray="1,5" d="M736.288,-213.234C744.013,-209.204 752.614,-205.03 760.772,-201.74 812.808,-180.756 830.317,-188.111 881.772,-165.74 889.548,-162.36 897.558,-158.222 905.15,-153.953"/>
<polygon fill="#ebc72d" stroke="#ebc72d" points="906.937,-156.963 913.832,-148.919 903.425,-150.907 906.937,-156.963"/>
</g>
<!-- root&#45;&gt;battleaxe_berserk -->
<g id="edge36" class="edge"><title>root&#45;&gt;battleaxe_berserk</title>
<path fill="none" stroke="#ebc72d" stroke-dasharray="1,5" d="M703.631,-210.388C698.311,-197.56 690.865,-179.605 684.31,-163.798"/>
<polygon fill="#ebc72d" stroke="#ebc72d" points="687.434,-162.195 680.371,-154.298 680.968,-164.876 687.434,-162.195"/>
</g>
<!-- arrow&#45;&gt;crossbow -->
<g id="edge1" class="edge"><title>arrow&#45;&gt;crossbow</title>
<path fill="none" stroke="#ebc72d" stroke-dasharray="1,5" d="M462.549,-311.439C452.165,-304.628 439.698,-297.088 427.772,-291.48 381.604,-269.77 366.164,-274.372 318.772,-255.48 312.79,-253.095 306.534,-250.377 300.475,-247.621"/>
<polygon fill="#ebc72d" stroke="#ebc72d" points="301.727,-244.343 291.183,-243.299 298.774,-250.69 301.727,-244.343"/>
</g>
</g>
</svg>
