<?xml version="1.0" encoding="UTF-8" standalone="no"?>
<!DOCTYPE svg PUBLIC "-//W3C//DTD SVG 1.1//EN"
 "http://www.w3.org/Graphics/SVG/1.1/DTD/svg11.dtd">
<!-- Generated by graphviz version 2.38.0 (20140413.2041)
 -->
<!-- Title: test Pages: 1 -->
<svg width="250pt" height="526pt"
 viewBox="0.00 0.00 249.91 525.71" xmlns="http://www.w3.org/2000/svg" xmlns:xlink="http://www.w3.org/1999/xlink">
<g id="graph0" class="graph" transform="scale(1 1) rotate(0) translate(4 521.706)">
<title>test</title>
<polygon fill="#151515" stroke="none" points="-4,4 -4,-521.706 245.909,-521.706 245.909,4 -4,4"/>
<!-- farm -->
<g id="node1" class="node"><title>farm</title>
<g id="a_node1"><a xlink:href="norsemen_farm_full.html" xlink:title="Farm">
<polygon fill="none" stroke="red" points="73.8655,-402.842 36.9552,-415.279 0.0447922,-402.842 0.0792436,-382.717 73.8311,-382.717 73.8655,-402.842"/>
<text text-anchor="middle" x="36.9552" y="-393.579" font-family="Times,serif" font-size="14.00" fill="#ebc72d">Farm</text>
</a>
</g>
</g>
<!-- blacksmith -->
<g id="node2" class="node"><title>blacksmith</title>
<g id="a_node2"><a xlink:href="norsemen_blacksmith_full.html" xlink:title="Blacksmith">
<polygon fill="none" stroke="red" points="134.388,-213.202 70.9552,-225.64 7.52222,-213.202 7.58142,-193.077 134.329,-193.077 134.388,-213.202"/>
<text text-anchor="middle" x="70.9552" y="-203.94" font-family="Times,serif" font-size="14.00" fill="#ebc72d">Blacksmith</text>
</a>
</g>
</g>
<!-- valhalla -->
<g id="node3" class="node"><title>valhalla</title>
<g id="a_node3"><a xlink:href="norsemen_valhalla_full.html" xlink:title="Valhalla">
<polygon fill="none" stroke="red" points="185.574,-23.5623 135.955,-36 86.3362,-23.5623 86.3825,-3.43769 185.528,-3.43769 185.574,-23.5623"/>
<text text-anchor="middle" x="135.955" y="-14.3" font-family="Times,serif" font-size="14.00" fill="#ebc72d">Valhalla</text>
</a>
</g>
</g>
<!-- blacksmith&#45;&gt;valhalla -->
<g id="edge2" class="edge"><title>blacksmith&#45;&gt;valhalla</title>
<path fill="none" stroke="#ebc72d" stroke-dasharray="1,5" d="M66.6824,-192.768C59.6721,-167.325 48.3553,-112.126 67.9552,-72 75.4996,-56.5544 89.96,-44.3007 103.613,-35.4834"/>
<polygon fill="#ebc72d" stroke="#ebc72d" points="105.635,-38.3509 112.387,-30.1864 102.018,-32.3582 105.635,-38.3509"/>
</g>
<!-- mistletoe_tree -->
<g id="node6" class="node"><title>mistletoe_tree</title>
<g id="a_node6"><a xlink:href="norsemen_mistletoe_tree_full.html" xlink:title="Mistletoe\nTree">
<polygon fill="none" stroke="red" points="195.324,-115.543 135.955,-138.641 76.5867,-115.543 76.6421,-78.1695 195.268,-78.1695 195.324,-115.543"/>
<text text-anchor="middle" x="135.955" y="-109.013" font-family="Times,serif" font-size="14.00" fill="#ebc72d">Mistletoe</text>
<text text-anchor="middle" x="135.955" y="-94.0132" font-family="Times,serif" font-size="14.00" fill="#ebc72d">Tree</text>
</a>
</g>
</g>
<!-- blacksmith&#45;&gt;mistletoe_tree -->
<g id="edge1" class="edge"><title>blacksmith&#45;&gt;mistletoe_tree</title>
<path fill="none" stroke="#ebc72d" stroke-dasharray="1,5" d="M79.9931,-192.676C88.6267,-179.337 101.99,-158.69 113.493,-140.917"/>
<polygon fill="#ebc72d" stroke="#ebc72d" points="116.467,-142.765 118.962,-132.468 110.59,-138.961 116.467,-142.765"/>
</g>
<!-- mead_bar -->
<g id="node4" class="node"><title>mead_bar</title>
<g id="a_node4"><a xlink:href="norsemen_mead_bar_full.html" xlink:title="Mead\nBar">
<polygon fill="none" stroke="red" points="241.862,-217.969 199.955,-241.067 158.048,-217.969 158.087,-180.596 241.823,-180.596 241.862,-217.969"/>
<text text-anchor="middle" x="199.955" y="-211.44" font-family="Times,serif" font-size="14.00" fill="#ebc72d">Mead</text>
<text text-anchor="middle" x="199.955" y="-196.44" font-family="Times,serif" font-size="14.00" fill="#ebc72d">Bar</text>
</a>
</g>
</g>
<!-- mead_bar&#45;&gt;valhalla -->
<g id="edge10" class="edge"><title>mead_bar&#45;&gt;valhalla</title>
<path fill="none" stroke="#ebc72d" stroke-dasharray="1,5" d="M207.594,-180.582C214.373,-152.303 220.839,-106.566 203.955,-72 196.411,-56.5544 181.95,-44.3007 168.297,-35.4834"/>
<polygon fill="#ebc72d" stroke="#ebc72d" points="169.893,-32.3582 159.523,-30.1864 166.275,-38.3509 169.893,-32.3582"/>
</g>
<!-- mead_bar&#45;&gt;mistletoe_tree -->
<g id="edge9" class="edge"><title>mead_bar&#45;&gt;mistletoe_tree</title>
<path fill="none" stroke="#ebc72d" stroke-dasharray="1,5" d="M183.307,-180.516C175.603,-168.428 166.344,-153.898 158.064,-140.906"/>
<polygon fill="#ebc72d" stroke="#ebc72d" points="160.846,-138.758 152.52,-132.206 154.943,-142.52 160.846,-138.758"/>
</g>
<!-- thor_totem -->
<g id="node5" class="node"><title>thor_totem</title>
<g id="a_node5"><a xlink:href="norsemen_thor_totem_full.html" xlink:title="Thor\nTotem">
<polygon fill="none" stroke="red" points="235.103,-494.822 188.955,-517.92 142.807,-494.822 142.85,-457.449 235.06,-457.449 235.103,-494.822"/>
<text text-anchor="middle" x="188.955" y="-488.293" font-family="Times,serif" font-size="14.00" fill="#ebc72d">Thor</text>
<text text-anchor="middle" x="188.955" y="-473.293" font-family="Times,serif" font-size="14.00" fill="#ebc72d">Totem</text>
</a>
</g>
</g>
<!-- mistletoe_tree&#45;&gt;valhalla -->
<g id="edge11" class="edge"><title>mistletoe_tree&#45;&gt;valhalla</title>
<path fill="none" stroke="#ebc72d" stroke-dasharray="1,5" d="M135.955,-77.7183C135.955,-67.744 135.955,-56.388 135.955,-46.3382"/>
<polygon fill="#ebc72d" stroke="#ebc72d" points="139.455,-46.0729 135.955,-36.0729 132.455,-46.0729 139.455,-46.0729"/>
</g>
<!-- bone_tent -->
<g id="node7" class="node"><title>bone_tent</title>
<g id="a_node7"><a xlink:href="norsemen_bone_tent_full.html" xlink:title="Bone\nTent">
<polygon fill="none" stroke="red" points="172.119,-320.396 132.955,-343.494 93.7915,-320.396 93.8281,-283.022 172.082,-283.022 172.119,-320.396"/>
<text text-anchor="middle" x="132.955" y="-313.866" font-family="Times,serif" font-size="14.00" fill="#ebc72d">Bone</text>
<text text-anchor="middle" x="132.955" y="-298.866" font-family="Times,serif" font-size="14.00" fill="#ebc72d">Tent</text>
</a>
</g>
</g>
<!-- bone_tent&#45;&gt;blacksmith -->
<g id="edge3" class="edge"><title>bone_tent&#45;&gt;blacksmith</title>
<path fill="none" stroke="#ebc72d" stroke-dasharray="1,5" d="M116.827,-282.942C107.26,-267.445 95.2154,-247.936 85.8692,-232.797"/>
<polygon fill="#ebc72d" stroke="#ebc72d" points="88.6763,-230.681 80.4449,-224.011 82.72,-234.359 88.6763,-230.681"/>
</g>
<!-- house -->
<g id="node8" class="node"><title>house</title>
<g id="a_node8"><a xlink:href="norsemen_house_full.html" xlink:title="House">
<polygon fill="none" stroke="red" points="173.899,-402.842 132.955,-415.279 92.0111,-402.842 92.0493,-382.717 173.861,-382.717 173.899,-402.842"/>
<text text-anchor="middle" x="132.955" y="-393.579" font-family="Times,serif" font-size="14.00" fill="#ebc72d">House</text>
</a>
</g>
</g>
<!-- house&#45;&gt;blacksmith -->
<g id="edge6" class="edge"><title>house&#45;&gt;blacksmith</title>
<path fill="none" stroke="#ebc72d" stroke-dasharray="1,5" d="M115.738,-382.423C104.953,-372.691 91.8359,-358.697 84.9552,-343.279 69.4817,-308.609 67.9624,-264.077 68.9475,-235.938"/>
<polygon fill="#ebc72d" stroke="#ebc72d" points="72.4574,-235.817 69.4454,-225.66 65.4656,-235.479 72.4574,-235.817"/>
</g>
<!-- house&#45;&gt;mead_bar -->
<g id="edge8" class="edge"><title>house&#45;&gt;mead_bar</title>
<path fill="none" stroke="#ebc72d" stroke-dasharray="1,5" d="M149.987,-382.339C160.694,-372.571 173.794,-358.568 180.955,-343.279 194.496,-314.372 199.033,-278.436 200.3,-250.964"/>
<polygon fill="#ebc72d" stroke="#ebc72d" points="203.801,-250.993 200.638,-240.881 196.805,-250.758 203.801,-250.993"/>
</g>
<!-- house&#45;&gt;bone_tent -->
<g id="edge7" class="edge"><title>house&#45;&gt;bone_tent</title>
<path fill="none" stroke="#ebc72d" stroke-dasharray="1,5" d="M132.955,-382.588C132.955,-374.602 132.955,-364.05 132.955,-353.511"/>
<polygon fill="#ebc72d" stroke="#ebc72d" points="136.455,-353.494 132.955,-343.494 129.455,-353.494 136.455,-353.494"/>
</g>
<!-- castle -->
<g id="node9" class="node"><title>castle</title>
<g id="a_node9"><a xlink:href="norsemen_castle_full.html" xlink:title="Castle">
<polygon fill="none" stroke="red" points="125.293,-490.055 84.9552,-502.493 44.6172,-490.055 44.6548,-469.93 125.256,-469.93 125.293,-490.055"/>
<text text-anchor="middle" x="84.9552" y="-480.793" font-family="Times,serif" font-size="14.00" fill="#ebc72d">Castle</text>
</a>
</g>
</g>
<!-- castle&#45;&gt;farm -->
<g id="edge4" class="edge"><title>castle&#45;&gt;farm</title>
<path fill="none" stroke="#ebc72d" stroke-dasharray="1,5" d="M77.2431,-469.802C69.957,-456.867 58.8788,-437.2 50.182,-421.761"/>
<polygon fill="#ebc72d" stroke="#ebc72d" points="53.0874,-419.787 45.13,-412.792 46.9884,-423.222 53.0874,-419.787"/>
</g>
<!-- castle&#45;&gt;house -->
<g id="edge5" class="edge"><title>castle&#45;&gt;house</title>
<path fill="none" stroke="#ebc72d" stroke-dasharray="1,5" d="M92.6672,-469.802C99.9094,-456.945 110.898,-437.436 119.571,-422.04"/>
<polygon fill="#ebc72d" stroke="#ebc72d" points="122.759,-423.512 124.617,-413.081 116.66,-420.076 122.759,-423.512"/>
</g>
</g>
</svg>
