<?xml version="1.0" encoding="UTF-8" standalone="no"?>
<!DOCTYPE svg PUBLIC "-//W3C//DTD SVG 1.1//EN"
 "http://www.w3.org/Graphics/SVG/1.1/DTD/svg11.dtd">
<!-- Generated by graphviz version 2.38.0 (20140413.2041)
 -->
<!-- Title: test Pages: 1 -->
<svg width="1097pt" height="380pt"
 viewBox="0.00 0.00 1096.74 380.17" xmlns="http://www.w3.org/2000/svg" xmlns:xlink="http://www.w3.org/1999/xlink">
<g id="graph0" class="graph" transform="scale(1 1) rotate(0) translate(4 376.167)">
<title>test</title>
<polygon fill="#151515" stroke="none" points="-4,4 -4,-376.167 1092.74,-376.167 1092.74,4 -4,4"/>
<!-- technician -->
<g id="node1" class="node"><title>technician</title>
<g id="a_node1"><a xlink:href="tech_technician_full.html" xlink:title="Technician">
<ellipse fill="none" stroke="magenta" cx="333.34" cy="-194.953" rx="50.0912" ry="18"/>
<text text-anchor="middle" x="333.34" y="-191.253" font-family="Times,serif" font-size="14.00" fill="#ebc72d">Technician</text>
</a>
</g>
</g>
<!-- aerodrome -->
<g id="node5" class="node"><title>aerodrome</title>
<g id="a_node5"><a xlink:href="tech_aerodrome_full.html" xlink:title="Aerodrome">
<polygon fill="none" stroke="red" points="269.773,-104.432 206.34,-116.87 142.907,-104.432 142.967,-84.3078 269.714,-84.3078 269.773,-104.432"/>
<text text-anchor="middle" x="206.34" y="-95.1701" font-family="Times,serif" font-size="14.00" fill="#ebc72d">Aerodrome</text>
</a>
</g>
</g>
<!-- technician&#45;&gt;aerodrome -->
<g id="edge17" class="edge"><title>technician&#45;&gt;aerodrome</title>
<path fill="none" stroke="#ebc72d" stroke-width="2" d="M312.369,-178.417C290.659,-162.334 256.673,-137.157 233.054,-119.66"/>
<polygon fill="#ebc72d" stroke="#ebc72d" stroke-width="2" points="234.981,-116.732 224.862,-113.591 230.814,-122.357 234.981,-116.732"/>
</g>
<!-- battle_machine -->
<g id="node9" class="node"><title>battle_machine</title>
<g id="a_node9"><a xlink:href="tech_battle_machine_full.html" xlink:title="Battle\nMachine">
<ellipse fill="none" stroke="magenta" cx="333.34" cy="-98.8701" rx="45.9239" ry="26.7407"/>
<text text-anchor="middle" x="333.34" y="-102.67" font-family="Times,serif" font-size="14.00" fill="#ebc72d">Battle</text>
<text text-anchor="middle" x="333.34" y="-87.6701" font-family="Times,serif" font-size="14.00" fill="#ebc72d">Machine</text>
</a>
</g>
</g>
<!-- technician&#45;&gt;battle_machine -->
<g id="edge19" class="edge"><title>technician&#45;&gt;battle_machine</title>
<path fill="none" stroke="#ebc72d" stroke-dasharray="5,2" d="M333.34,-176.697C333.34,-165.368 333.34,-150.123 333.34,-136.2"/>
<polygon fill="#ebc72d" stroke="#ebc72d" points="336.84,-135.898 333.34,-125.898 329.84,-135.898 336.84,-135.898"/>
</g>
<!-- air_ballista -->
<g id="node10" class="node"><title>air_ballista</title>
<g id="a_node10"><a xlink:href="tech_air_ballista_full.html" xlink:title="Air\nBallista">
<ellipse fill="none" stroke="magenta" cx="84.3404" cy="-98.8701" rx="41.0244" ry="26.7407"/>
<text text-anchor="middle" x="84.3404" y="-102.67" font-family="Times,serif" font-size="14.00" fill="#ebc72d">Air</text>
<text text-anchor="middle" x="84.3404" y="-87.6701" font-family="Times,serif" font-size="14.00" fill="#ebc72d">Ballista</text>
</a>
</g>
</g>
<!-- technician&#45;&gt;air_ballista -->
<g id="edge18" class="edge"><title>technician&#45;&gt;air_ballista</title>
<path fill="none" stroke="#ebc72d" stroke-dasharray="5,2" d="M295.679,-182.862C255.194,-170.522 189.25,-149.205 134.34,-125.74 131.096,-124.354 127.773,-122.844 124.458,-121.274"/>
<polygon fill="#ebc72d" stroke="#ebc72d" points="125.726,-117.997 115.206,-116.737 122.644,-124.283 125.726,-117.997"/>
</g>
<!-- catapult -->
<g id="node12" class="node"><title>catapult</title>
<g id="a_node12"><a xlink:href="tech_catapult_full.html" xlink:title="Catapult">
<ellipse fill="none" stroke="magenta" cx="437.34" cy="-98.8701" rx="40.0939" ry="18"/>
<text text-anchor="middle" x="437.34" y="-95.1701" font-family="Times,serif" font-size="14.00" fill="#ebc72d">Catapult</text>
</a>
</g>
</g>
<!-- technician&#45;&gt;catapult -->
<g id="edge20" class="edge"><title>technician&#45;&gt;catapult</title>
<path fill="none" stroke="#ebc72d" stroke-dasharray="5,2" d="M350.983,-177.993C367.995,-162.603 393.887,-139.18 412.885,-121.994"/>
<polygon fill="#ebc72d" stroke="#ebc72d" points="415.236,-124.587 420.303,-115.283 410.539,-119.396 415.236,-124.587"/>
</g>
<!-- farm -->
<g id="node2" class="node"><title>farm</title>
<g id="a_node2"><a xlink:href="tech_farm_full.html" xlink:title="Farm">
<polygon fill="none" stroke="red" points="808.251,-200.516 771.34,-212.953 734.43,-200.516 734.464,-180.391 808.216,-180.391 808.251,-200.516"/>
<text text-anchor="middle" x="771.34" y="-191.253" font-family="Times,serif" font-size="14.00" fill="#ebc72d">Farm</text>
</a>
</g>
</g>
<!-- livestock -->
<g id="node4" class="node"><title>livestock</title>
<g id="a_node4"><a xlink:href="tech_livestock_full.html" xlink:title="Livestock">
<ellipse fill="none" stroke="magenta" cx="819.34" cy="-98.8701" rx="45.4919" ry="18"/>
<text text-anchor="middle" x="819.34" y="-95.1701" font-family="Times,serif" font-size="14.00" fill="#ebc72d">Livestock</text>
</a>
</g>
</g>
<!-- farm&#45;&gt;livestock -->
<g id="edge15" class="edge"><title>farm&#45;&gt;livestock</title>
<path fill="none" stroke="#ebc72d" d="M778.423,-180.071C785.684,-165.839 797.149,-143.367 806.098,-125.827"/>
<polygon fill="#ebc72d" stroke="#ebc72d" points="809.341,-127.172 810.768,-116.673 803.105,-123.99 809.341,-127.172"/>
</g>
<!-- horseman -->
<g id="node14" class="node"><title>horseman</title>
<g id="a_node14"><a xlink:href="tech_horseman_full.html" xlink:title="Horseman">
<ellipse fill="none" stroke="magenta" cx="708.34" cy="-98.8701" rx="47.3916" ry="18"/>
<text text-anchor="middle" x="708.34" y="-95.1701" font-family="Times,serif" font-size="14.00" fill="#ebc72d">Horseman</text>
</a>
</g>
</g>
<!-- farm&#45;&gt;horseman -->
<g id="edge14" class="edge"><title>farm&#45;&gt;horseman</title>
<path fill="none" stroke="#ebc72d" stroke-dasharray="1,5" d="M762.045,-180.071C752.426,-165.707 737.188,-142.95 725.396,-125.341"/>
<polygon fill="#ebc72d" stroke="#ebc72d" points="728.064,-123.035 719.592,-116.673 722.248,-126.93 728.064,-123.035"/>
</g>
<!-- blacksmith -->
<g id="node3" class="node"><title>blacksmith</title>
<g id="a_node3"><a xlink:href="tech_blacksmith_full.html" xlink:title="Blacksmith">
<polygon fill="none" stroke="red" points="716.773,-200.516 653.34,-212.953 589.907,-200.516 589.967,-180.391 716.714,-180.391 716.773,-200.516"/>
<text text-anchor="middle" x="653.34" y="-191.253" font-family="Times,serif" font-size="14.00" fill="#ebc72d">Blacksmith</text>
</a>
</g>
</g>
<!-- blacksmith&#45;&gt;battle_machine -->
<g id="edge8" class="edge"><title>blacksmith&#45;&gt;battle_machine</title>
<path fill="none" stroke="#ebc72d" stroke-dasharray="1,5" d="M626.526,-180.343C612.968,-173.923 596.087,-166.619 580.34,-161.74 497.41,-136.045 470.956,-152.432 388.34,-125.74 384.387,-124.463 380.348,-122.966 376.344,-121.348"/>
<polygon fill="#ebc72d" stroke="#ebc72d" points="377.692,-118.118 367.121,-117.399 374.936,-124.553 377.692,-118.118"/>
</g>
<!-- blacksmith&#45;&gt;catapult -->
<g id="edge9" class="edge"><title>blacksmith&#45;&gt;catapult</title>
<path fill="none" stroke="#ebc72d" stroke-dasharray="1,5" d="M622.46,-180.267C609.465,-174.523 594.177,-167.786 580.34,-161.74 544.486,-146.073 503.495,-128.358 474.619,-115.911"/>
<polygon fill="#ebc72d" stroke="#ebc72d" points="475.884,-112.646 465.315,-111.903 473.114,-119.074 475.884,-112.646"/>
</g>
<!-- airship -->
<g id="node13" class="node"><title>airship</title>
<g id="a_node13"><a xlink:href="tech_airship_full.html" xlink:title="Airship">
<ellipse fill="none" stroke="magenta" cx="206.34" cy="-18" rx="37.0935" ry="18"/>
<text text-anchor="middle" x="206.34" y="-14.3" font-family="Times,serif" font-size="14.00" fill="#ebc72d">Airship</text>
</a>
</g>
</g>
<!-- blacksmith&#45;&gt;airship -->
<g id="edge7" class="edge"><title>blacksmith&#45;&gt;airship</title>
<path fill="none" stroke="#ebc72d" stroke-dasharray="1,5" d="M639.736,-180.149C619.869,-160.52 581.157,-124.227 543.34,-99.8701"/>
<path fill="none" stroke="#ebc72d" stroke-dasharray="1,5" d="M543.34,-97.8701C452.286,-39.2231 322.387,-24.0624 253.484,-20.2252"/>
<polygon fill="#ebc72d" stroke="#ebc72d" points="253.53,-16.7233 243.368,-19.7195 253.181,-23.7145 253.53,-16.7233"/>
</g>
<!-- blacksmith&#45;&gt;horseman -->
<g id="edge11" class="edge"><title>blacksmith&#45;&gt;horseman</title>
<path fill="none" stroke="#ebc72d" stroke-dasharray="1,5" d="M661.456,-180.071C669.853,-165.707 683.156,-142.95 693.45,-125.341"/>
<polygon fill="#ebc72d" stroke="#ebc72d" points="696.492,-127.073 698.517,-116.673 690.449,-123.54 696.492,-127.073"/>
</g>
<!-- guard -->
<g id="node16" class="node"><title>guard</title>
<g id="a_node16"><a xlink:href="tech_guard_full.html" xlink:title="Guard">
<ellipse fill="none" stroke="magenta" cx="962.34" cy="-98.8701" rx="32.4942" ry="18"/>
<text text-anchor="middle" x="962.34" y="-95.1701" font-family="Times,serif" font-size="14.00" fill="#ebc72d">Guard</text>
</a>
</g>
</g>
<!-- blacksmith&#45;&gt;guard -->
<g id="edge10" class="edge"><title>blacksmith&#45;&gt;guard</title>
<path fill="none" stroke="#ebc72d" stroke-dasharray="1,5" d="M680.562,-180.363C693.839,-174.101 710.181,-166.927 725.34,-161.74 789.391,-139.826 807.933,-143.192 873.34,-125.74 890.175,-121.248 908.691,-115.928 924.454,-111.284"/>
<polygon fill="#ebc72d" stroke="#ebc72d" points="925.777,-114.542 934.37,-108.345 923.788,-107.831 925.777,-114.542"/>
</g>
<!-- ornithopter -->
<g id="node19" class="node"><title>ornithopter</title>
<g id="a_node19"><a xlink:href="tech_ornithopter_full.html" xlink:title="Ornithopter">
<ellipse fill="none" stroke="magenta" cx="524.34" cy="-18" rx="51.9908" ry="18"/>
<text text-anchor="middle" x="524.34" y="-14.3" font-family="Times,serif" font-size="14.00" fill="#ebc72d">Ornithopter</text>
</a>
</g>
</g>
<!-- blacksmith&#45;&gt;ornithopter -->
<g id="edge12" class="edge"><title>blacksmith&#45;&gt;ornithopter</title>
<path fill="none" stroke="#ebc72d" stroke-dasharray="1,5" d="M543.34,-97.8701C526.711,-87.1595 522.609,-64.4647 522.294,-46.1577"/>
<polygon fill="#ebc72d" stroke="#ebc72d" points="525.796,-46.0721 522.48,-36.0096 518.798,-45.9437 525.796,-46.0721"/>
</g>
<!-- aerodrome&#45;&gt;airship -->
<g id="edge1" class="edge"><title>aerodrome&#45;&gt;airship</title>
<path fill="none" stroke="#ebc72d" d="M206.34,-84.1319C206.34,-73.719 206.34,-59.0721 206.34,-46.3046"/>
<polygon fill="#ebc72d" stroke="#ebc72d" points="209.84,-46.1561 206.34,-36.1562 202.84,-46.1562 209.84,-46.1561"/>
</g>
<!-- aerodrome&#45;&gt;ornithopter -->
<g id="edge2" class="edge"><title>aerodrome&#45;&gt;ornithopter</title>
<path fill="none" stroke="#ebc72d" d="M241.192,-84.2944C252.891,-80.0209 266.081,-75.5063 278.34,-72 342.984,-53.5114 418.808,-38.0981 469.009,-28.7443"/>
<polygon fill="#ebc72d" stroke="#ebc72d" points="469.809,-32.1558 479.007,-26.8983 468.538,-25.2722 469.809,-32.1558"/>
</g>
<!-- worker -->
<g id="node6" class="node"><title>worker</title>
<g id="a_node6"><a xlink:href="tech_worker_full.html" xlink:title="Worker">
<ellipse fill="none" stroke="magenta" cx="789.34" cy="-354.167" rx="38.1938" ry="18"/>
<text text-anchor="middle" x="789.34" y="-350.467" font-family="Times,serif" font-size="14.00" fill="#ebc72d">Worker</text>
</a>
</g>
</g>
<!-- worker&#45;&gt;farm -->
<g id="edge32" class="edge"><title>worker&#45;&gt;farm</title>
<path fill="none" stroke="#ebc72d" stroke-width="2" d="M712.34,-281.167C692.945,-259.427 721.684,-231.101 745.429,-213.215"/>
<polygon fill="#ebc72d" stroke="#ebc72d" stroke-width="2" points="747.482,-216.049 753.532,-207.352 743.379,-210.378 747.482,-216.049"/>
</g>
<!-- worker&#45;&gt;blacksmith -->
<g id="edge29" class="edge"><title>worker&#45;&gt;blacksmith</title>
<path fill="none" stroke="#ebc72d" stroke-width="2" d="M712.34,-281.167C695.203,-261.958 678.794,-237.606 667.651,-219.859"/>
<polygon fill="#ebc72d" stroke="#ebc72d" stroke-width="2" points="670.561,-217.91 662.328,-211.242 664.606,-221.589 670.561,-217.91"/>
</g>
<!-- defense_tower -->
<g id="node7" class="node"><title>defense_tower</title>
<g id="a_node7"><a xlink:href="tech_defense_tower_full.html" xlink:title="Defense\nTower">
<polygon fill="none" stroke="red" points="571.473,-205.283 518.34,-228.381 465.208,-205.283 465.257,-167.91 571.423,-167.91 571.473,-205.283"/>
<text text-anchor="middle" x="518.34" y="-198.753" font-family="Times,serif" font-size="14.00" fill="#ebc72d">Defense</text>
<text text-anchor="middle" x="518.34" y="-183.753" font-family="Times,serif" font-size="14.00" fill="#ebc72d">Tower</text>
</a>
</g>
</g>
<!-- worker&#45;&gt;defense_tower -->
<g id="edge31" class="edge"><title>worker&#45;&gt;defense_tower</title>
<path fill="none" stroke="#ebc72d" stroke-width="2" d="M770.913,-338.307C754.652,-324.767 730.742,-303.792 712.34,-283.167"/>
<path fill="none" stroke="#ebc72d" stroke-width="2" d="M712.34,-281.167C670.527,-234.301 638.467,-254.266 581.34,-228.167 574.734,-225.148 567.819,-221.806 561.09,-218.45"/>
<polygon fill="#ebc72d" stroke="#ebc72d" stroke-width="2" points="562.579,-215.281 552.076,-213.895 559.422,-221.529 562.579,-215.281"/>
</g>
<!-- technodrome -->
<g id="node15" class="node"><title>technodrome</title>
<g id="a_node15"><a xlink:href="tech_technodrome_full.html" xlink:title="Technodrome">
<polygon fill="none" stroke="red" points="511.161,-287.729 437.34,-300.167 363.52,-287.729 363.589,-267.604 511.092,-267.604 511.161,-287.729"/>
<text text-anchor="middle" x="437.34" y="-278.467" font-family="Times,serif" font-size="14.00" fill="#ebc72d">Technodrome</text>
</a>
</g>
</g>
<!-- worker&#45;&gt;technodrome -->
<g id="edge33" class="edge"><title>worker&#45;&gt;technodrome</title>
<path fill="none" stroke="#ebc72d" stroke-width="2" d="M754.626,-346.263C693.748,-334.157 567.229,-308.997 493.676,-294.37"/>
<polygon fill="#ebc72d" stroke="#ebc72d" stroke-width="2" points="494.152,-290.896 483.661,-292.378 492.786,-297.761 494.152,-290.896"/>
</g>
<!-- barracks -->
<g id="node17" class="node"><title>barracks</title>
<g id="a_node17"><a xlink:href="tech_barracks_full.html" xlink:title="Barracks">
<polygon fill="none" stroke="red" points="919.78,-287.729 867.34,-300.167 814.901,-287.729 814.95,-267.604 919.731,-267.604 919.78,-287.729"/>
<text text-anchor="middle" x="867.34" y="-278.467" font-family="Times,serif" font-size="14.00" fill="#ebc72d">Barracks</text>
</a>
</g>
</g>
<!-- worker&#45;&gt;barracks -->
<g id="edge28" class="edge"><title>worker&#45;&gt;barracks</title>
<path fill="none" stroke="#ebc72d" stroke-width="2" d="M806.265,-337.978C817.512,-327.884 832.411,-314.513 844.678,-303.505"/>
<polygon fill="#ebc72d" stroke="#ebc72d" stroke-width="2" points="847.189,-305.954 852.294,-296.67 842.514,-300.744 847.189,-305.954"/>
</g>
<!-- castle -->
<g id="node18" class="node"><title>castle</title>
<g id="a_node18"><a xlink:href="tech_castle_full.html" xlink:title="Castle">
<polygon fill="none" stroke="red" points="1017.68,-287.729 977.34,-300.167 937.002,-287.729 937.04,-267.604 1017.64,-267.604 1017.68,-287.729"/>
<text text-anchor="middle" x="977.34" y="-278.467" font-family="Times,serif" font-size="14.00" fill="#ebc72d">Castle</text>
</a>
</g>
</g>
<!-- worker&#45;&gt;castle -->
<g id="edge30" class="edge"><title>worker&#45;&gt;castle</title>
<path fill="none" stroke="#ebc72d" stroke-width="2" d="M828.221,-338.69C861.894,-326.152 910.157,-308.182 942.568,-296.114"/>
<polygon fill="#ebc72d" stroke="#ebc72d" stroke-width="2" points="826.866,-335.46 818.715,-342.229 829.308,-342.02 826.866,-335.46"/>
<polygon fill="#ebc72d" stroke="#ebc72d" stroke-width="2" points="943.933,-299.34 952.083,-292.571 941.491,-292.78 943.933,-299.34"/>
</g>
<!-- archer -->
<g id="node8" class="node"><title>archer</title>
<g id="a_node8"><a xlink:href="tech_archer_full.html" xlink:title="Archer">
<ellipse fill="none" stroke="magenta" cx="899.34" cy="-194.953" rx="35.194" ry="18"/>
<text text-anchor="middle" x="899.34" y="-191.253" font-family="Times,serif" font-size="14.00" fill="#ebc72d">Archer</text>
</a>
</g>
</g>
<!-- swordman -->
<g id="node11" class="node"><title>swordman</title>
<g id="a_node11"><a xlink:href="tech_swordman_full.html" xlink:title="Swordman">
<ellipse fill="none" stroke="magenta" cx="1039.34" cy="-194.953" rx="49.2915" ry="18"/>
<text text-anchor="middle" x="1039.34" y="-191.253" font-family="Times,serif" font-size="14.00" fill="#ebc72d">Swordman</text>
</a>
</g>
</g>
<!-- swordman&#45;&gt;guard -->
<g id="edge16" class="edge"><title>swordman&#45;&gt;guard</title>
<path fill="none" stroke="#ebc72d" stroke-dasharray="5,2" d="M1025.93,-177.565C1013.63,-162.544 995.296,-140.138 981.468,-123.241"/>
<polygon fill="#ebc72d" stroke="#ebc72d" points="984.13,-120.968 975.088,-115.446 978.713,-125.401 984.13,-120.968"/>
</g>
<!-- technodrome&#45;&gt;technician -->
<g id="edge27" class="edge"><title>technodrome&#45;&gt;technician</title>
<path fill="none" stroke="#ebc72d" d="M420.631,-267.476C404.353,-254.138 379.338,-233.642 360.253,-218.005"/>
<polygon fill="#ebc72d" stroke="#ebc72d" points="362.433,-215.266 352.48,-211.635 357.997,-220.681 362.433,-215.266"/>
</g>
<!-- technodrome&#45;&gt;defense_tower -->
<g id="edge25" class="edge"><title>technodrome&#45;&gt;defense_tower</title>
<path fill="none" stroke="#ebc72d" stroke-dasharray="1,5" d="M450.354,-267.476C460.844,-256.44 475.992,-240.505 489.328,-226.475"/>
<polygon fill="#ebc72d" stroke="#ebc72d" points="492.156,-228.58 496.509,-218.92 487.083,-223.757 492.156,-228.58"/>
</g>
<!-- technodrome&#45;&gt;battle_machine -->
<g id="edge23" class="edge"><title>technodrome&#45;&gt;battle_machine</title>
<path fill="none" stroke="#ebc72d" stroke-dasharray="1,5" d="M437.86,-267.573C438.383,-250.741 438.911,-221.202 437.34,-195.953"/>
<path fill="none" stroke="#ebc72d" stroke-dasharray="1,5" d="M437.34,-193.953C435.276,-160.768 405.819,-136.215 378.782,-120.528"/>
<polygon fill="#ebc72d" stroke="#ebc72d" points="380.196,-117.311 369.749,-115.548 376.817,-123.441 380.196,-117.311"/>
</g>
<!-- technodrome&#45;&gt;air_ballista -->
<g id="edge21" class="edge"><title>technodrome&#45;&gt;air_ballista</title>
<path fill="none" stroke="#ebc72d" stroke-dasharray="1,5" d="M15.3404,-193.953C1.24749,-168.826 24.113,-142.578 47.2199,-124.211"/>
<polygon fill="#ebc72d" stroke="#ebc72d" points="49.4851,-126.886 55.3429,-118.058 45.2583,-121.306 49.4851,-126.886"/>
</g>
<!-- technodrome&#45;&gt;catapult -->
<g id="edge24" class="edge"><title>technodrome&#45;&gt;catapult</title>
<path fill="none" stroke="#ebc72d" stroke-dasharray="1,5" d="M437.34,-193.953C435.942,-171.467 436.05,-145.9 436.448,-127.099"/>
<polygon fill="#ebc72d" stroke="#ebc72d" points="439.952,-126.971 436.706,-116.886 432.954,-126.794 439.952,-126.971"/>
</g>
<!-- technodrome&#45;&gt;airship -->
<g id="edge22" class="edge"><title>technodrome&#45;&gt;airship</title>
<path fill="none" stroke="#ebc72d" stroke-dasharray="1,5" d="M363.501,-278.947C251.715,-273.662 48.9315,-255.846 15.3404,-195.953"/>
<path fill="none" stroke="#ebc72d" stroke-dasharray="1,5" d="M15.3404,-193.953C-11.4931,-146.109 -1.55002,-113.485 34.3404,-72 65.3056,-36.2081 119.84,-24.2162 159.213,-20.3907"/>
<polygon fill="#ebc72d" stroke="#ebc72d" points="159.701,-23.8624 169.378,-19.5496 159.123,-16.8862 159.701,-23.8624"/>
</g>
<!-- technodrome&#45;&gt;ornithopter -->
<g id="edge26" class="edge"><title>technodrome&#45;&gt;ornithopter</title>
<path fill="none" stroke="#ebc72d" stroke-dasharray="1,5" d="M437.34,-193.953C435.023,-156.697 467.845,-158.164 486.34,-125.74 500.896,-100.222 511.402,-68.1497 517.629,-45.8553"/>
<polygon fill="#ebc72d" stroke="#ebc72d" points="521.045,-46.6296 520.264,-36.0636 514.285,-44.8101 521.045,-46.6296"/>
</g>
<!-- barracks&#45;&gt;archer -->
<g id="edge3" class="edge"><title>barracks&#45;&gt;archer</title>
<path fill="none" stroke="#ebc72d" d="M872.482,-267.476C877.018,-255.396 883.759,-237.446 889.352,-222.551"/>
<polygon fill="#ebc72d" stroke="#ebc72d" points="892.761,-223.429 893,-212.836 886.208,-220.968 892.761,-223.429"/>
</g>
<!-- barracks&#45;&gt;swordman -->
<g id="edge6" class="edge"><title>barracks&#45;&gt;swordman</title>
<path fill="none" stroke="#ebc72d" d="M895.647,-267.595C917.694,-256.978 949.037,-241.783 976.34,-228.167 984.979,-223.859 994.249,-219.16 1002.95,-214.717"/>
<polygon fill="#ebc72d" stroke="#ebc72d" points="1004.81,-217.699 1012.11,-210.026 1001.62,-211.468 1004.81,-217.699"/>
</g>
<!-- barracks&#45;&gt;horseman -->
<g id="edge5" class="edge"><title>barracks&#45;&gt;horseman</title>
<path fill="none" stroke="#ebc72d" d="M864.651,-267.439C859.348,-243.471 845.528,-193.524 817.34,-161.74 806.879,-149.944 773.334,-131.678 746.191,-118.046"/>
<polygon fill="#ebc72d" stroke="#ebc72d" points="747.419,-114.748 736.906,-113.436 744.306,-121.018 747.419,-114.748"/>
</g>
<!-- barracks&#45;&gt;guard -->
<g id="edge4" class="edge"><title>barracks&#45;&gt;guard</title>
<path fill="none" stroke="#ebc72d" d="M897.593,-267.587C913.797,-258.715 932.585,-245.535 943.34,-228.167 962.387,-197.408 965.009,-154.722 964.322,-127.196"/>
<polygon fill="#ebc72d" stroke="#ebc72d" points="967.814,-126.946 963.904,-117.099 960.82,-127.235 967.814,-126.946"/>
</g>
</g>
</svg>
