<?xml version="1.0" encoding="UTF-8" standalone="no"?>
<!DOCTYPE svg PUBLIC "-//W3C//DTD SVG 1.1//EN"
 "http://www.w3.org/Graphics/SVG/1.1/DTD/svg11.dtd">
<!-- Generated by graphviz version 2.38.0 (20140413.2041)
 -->
<!-- Title: test Pages: 1 -->
<svg width="1650pt" height="514pt"
 viewBox="0.00 0.00 1649.96 514.43" xmlns="http://www.w3.org/2000/svg" xmlns:xlink="http://www.w3.org/1999/xlink">
<g id="graph0" class="graph" transform="scale(1 1) rotate(0) translate(4 510.426)">
<title>test</title>
<polygon fill="#151515" stroke="none" points="-4,4 -4,-510.426 1645.96,-510.426 1645.96,4 -4,4"/>
<!-- technician -->
<g id="node1" class="node"><title>technician</title>
<g id="a_node1"><a xlink:href="tech_technician_full.html" xlink:title="Technician">
<ellipse fill="none" stroke="magenta" cx="447.859" cy="-212.426" rx="50.0912" ry="18"/>
<text text-anchor="middle" x="447.859" y="-208.726" font-family="Times,serif" font-size="14.00" fill="#ebc72d">Technician</text>
</a>
</g>
</g>
<!-- aerodrome -->
<g id="node5" class="node"><title>aerodrome</title>
<g id="a_node5"><a xlink:href="tech_aerodrome_full.html" xlink:title="Aerodrome">
<polygon fill="none" stroke="red" points="510.292,-110.776 446.859,-123.213 383.426,-110.776 383.485,-90.6509 510.233,-90.6509 510.292,-110.776"/>
<text text-anchor="middle" x="446.859" y="-101.513" font-family="Times,serif" font-size="14.00" fill="#ebc72d">Aerodrome</text>
</a>
</g>
</g>
<!-- technician&#45;&gt;aerodrome -->
<g id="edge26" class="edge"><title>technician&#45;&gt;aerodrome</title>
<path fill="none" stroke="#ebc72d" stroke-width="2" d="M447.694,-194.053C447.537,-177.582 447.3,-152.585 447.118,-133.463"/>
<polygon fill="#ebc72d" stroke="#ebc72d" stroke-width="2" points="450.616,-133.23 447.021,-123.264 443.616,-133.297 450.616,-133.23"/>
</g>
<!-- battle_machine -->
<g id="node9" class="node"><title>battle_machine</title>
<g id="a_node9"><a xlink:href="tech_battle_machine_full.html" xlink:title="Battle\nMachine">
<ellipse fill="none" stroke="magenta" cx="319.859" cy="-105.213" rx="45.9239" ry="26.7407"/>
<text text-anchor="middle" x="319.859" y="-109.013" font-family="Times,serif" font-size="14.00" fill="#ebc72d">Battle</text>
<text text-anchor="middle" x="319.859" y="-94.0132" font-family="Times,serif" font-size="14.00" fill="#ebc72d">Machine</text>
</a>
</g>
</g>
<!-- technician&#45;&gt;battle_machine -->
<g id="edge28" class="edge"><title>technician&#45;&gt;battle_machine</title>
<path fill="none" stroke="#ebc72d" stroke-dasharray="5,2" d="M428.696,-195.675C408.896,-179.4 377.59,-153.667 353.626,-133.969"/>
<polygon fill="#ebc72d" stroke="#ebc72d" points="355.755,-131.188 345.808,-127.542 351.31,-136.596 355.755,-131.188"/>
</g>
<!-- air_ballista -->
<g id="node10" class="node"><title>air_ballista</title>
<g id="a_node10"><a xlink:href="tech_air_ballista_full.html" xlink:title="Air\nBallista">
<ellipse fill="none" stroke="magenta" cx="667.859" cy="-105.213" rx="41.0244" ry="26.7407"/>
<text text-anchor="middle" x="667.859" y="-109.013" font-family="Times,serif" font-size="14.00" fill="#ebc72d">Air</text>
<text text-anchor="middle" x="667.859" y="-94.0132" font-family="Times,serif" font-size="14.00" fill="#ebc72d">Ballista</text>
</a>
</g>
</g>
<!-- technician&#45;&gt;air_ballista -->
<g id="edge27" class="edge"><title>technician&#45;&gt;air_ballista</title>
<path fill="none" stroke="#ebc72d" stroke-dasharray="5,2" d="M481.531,-198.889C516.392,-185.468 572.064,-162.792 617.859,-138.426 622.359,-136.032 626.982,-133.364 631.514,-130.616"/>
<polygon fill="#ebc72d" stroke="#ebc72d" points="633.428,-133.547 640.06,-125.285 629.723,-127.608 633.428,-133.547"/>
</g>
<!-- catapult -->
<g id="node12" class="node"><title>catapult</title>
<g id="a_node12"><a xlink:href="tech_catapult_full.html" xlink:title="Catapult">
<ellipse fill="none" stroke="magenta" cx="568.859" cy="-105.213" rx="40.0939" ry="18"/>
<text text-anchor="middle" x="568.859" y="-101.513" font-family="Times,serif" font-size="14.00" fill="#ebc72d">Catapult</text>
</a>
</g>
</g>
<!-- technician&#45;&gt;catapult -->
<g id="edge29" class="edge"><title>technician&#45;&gt;catapult</title>
<path fill="none" stroke="#ebc72d" stroke-dasharray="5,2" d="M466.236,-195.447C486.817,-177.551 520.308,-148.43 543.402,-128.349"/>
<polygon fill="#ebc72d" stroke="#ebc72d" points="545.849,-130.859 551.099,-121.657 541.256,-125.577 545.849,-130.859"/>
</g>
<!-- farm -->
<g id="node2" class="node"><title>farm</title>
<g id="a_node2"><a xlink:href="tech_farm_full.html" xlink:title="Farm">
<polygon fill="none" stroke="red" points="273.769,-421.989 236.859,-434.426 199.949,-421.989 199.983,-401.864 273.735,-401.864 273.769,-421.989"/>
<text text-anchor="middle" x="236.859" y="-412.726" font-family="Times,serif" font-size="14.00" fill="#ebc72d">Farm</text>
</a>
</g>
</g>
<!-- livestock -->
<g id="node4" class="node"><title>livestock</title>
<g id="a_node4"><a xlink:href="tech_livestock_full.html" xlink:title="Livestock">
<ellipse fill="none" stroke="magenta" cx="294.859" cy="-324.426" rx="45.4919" ry="18"/>
<text text-anchor="middle" x="294.859" y="-320.726" font-family="Times,serif" font-size="14.00" fill="#ebc72d">Livestock</text>
</a>
</g>
</g>
<!-- farm&#45;&gt;livestock -->
<g id="edge18" class="edge"><title>farm&#45;&gt;livestock</title>
<path fill="none" stroke="#ebc72d" d="M245.668,-401.757C254.385,-388.231 267.933,-367.208 278.606,-350.647"/>
<polygon fill="#ebc72d" stroke="#ebc72d" points="281.715,-352.283 284.19,-341.981 275.831,-348.491 281.715,-352.283"/>
</g>
<!-- stables -->
<g id="node26" class="node"><title>stables</title>
<g id="a_node26"><a xlink:href="tech_stables_full.html" xlink:title="Stables">
<polygon fill="none" stroke="green" points="231.089,-342.426 146.412,-342.426 124.63,-306.426 209.306,-306.426 231.089,-342.426"/>
<text text-anchor="middle" x="177.859" y="-320.726" font-family="Times,serif" font-size="14.00" fill="#ebc72d">Stables</text>
</a>
</g>
</g>
<!-- farm&#45;&gt;stables -->
<g id="edge20" class="edge"><title>farm&#45;&gt;stables</title>
<path fill="none" stroke="#ebc72d" d="M227.898,-401.757C219.14,-388.397 205.587,-367.723 194.793,-351.259"/>
<polygon fill="#ebc72d" stroke="#ebc72d" points="197.539,-349.062 189.129,-342.618 191.685,-352.9 197.539,-349.062"/>
</g>
<!-- speedup_cow_production -->
<g id="node27" class="node"><title>speedup_cow_production</title>
<g id="a_node27"><a xlink:href="tech_speedup_cow_production_full.html" xlink:title="Speedup\nCow Production">
<polygon fill="none" stroke="green" points="217.577,-250.426 44.6309,-250.426 0.140736,-174.426 173.087,-174.426 217.577,-250.426"/>
<text text-anchor="middle" x="108.859" y="-216.226" font-family="Times,serif" font-size="14.00" fill="#ebc72d">Speedup</text>
<text text-anchor="middle" x="108.859" y="-201.226" font-family="Times,serif" font-size="14.00" fill="#ebc72d">Cow Production</text>
</a>
</g>
</g>
<!-- farm&#45;&gt;speedup_cow_production -->
<g id="edge19" class="edge"><title>farm&#45;&gt;speedup_cow_production</title>
<path fill="none" stroke="#ebc72d" d="M199.834,-409.826C171.772,-403.465 134.898,-390.109 115.859,-362.426 95.6872,-333.096 95.1599,-292.304 98.9967,-260.815"/>
<polygon fill="#ebc72d" stroke="#ebc72d" points="102.517,-260.913 100.443,-250.523 95.5853,-259.939 102.517,-260.913"/>
</g>
<!-- blacksmith -->
<g id="node3" class="node"><title>blacksmith</title>
<g id="a_node3"><a xlink:href="tech_blacksmith_full.html" xlink:title="Blacksmith">
<polygon fill="none" stroke="red" points="943.292,-421.989 879.859,-434.426 816.426,-421.989 816.485,-401.864 943.233,-401.864 943.292,-421.989"/>
<text text-anchor="middle" x="879.859" y="-412.726" font-family="Times,serif" font-size="14.00" fill="#ebc72d">Blacksmith</text>
</a>
</g>
</g>
<!-- horseman -->
<g id="node14" class="node"><title>horseman</title>
<g id="a_node14"><a xlink:href="tech_horseman_full.html" xlink:title="Horseman">
<ellipse fill="none" stroke="magenta" cx="830.859" cy="-212.426" rx="47.3916" ry="18"/>
<text text-anchor="middle" x="830.859" y="-208.726" font-family="Times,serif" font-size="14.00" fill="#ebc72d">Horseman</text>
</a>
</g>
</g>
<!-- blacksmith&#45;&gt;horseman -->
<g id="edge12" class="edge"><title>blacksmith&#45;&gt;horseman</title>
<path fill="none" stroke="#ebc72d" stroke-dasharray="1,5" d="M870.128,-401.733C863.308,-391.422 854.596,-376.674 849.859,-362.426 836.231,-321.433 832.284,-271.102 831.196,-240.683"/>
<polygon fill="#ebc72d" stroke="#ebc72d" points="834.688,-240.33 830.912,-230.431 827.69,-240.524 834.688,-240.33"/>
</g>
<!-- technodrome -->
<g id="node15" class="node"><title>technodrome</title>
<g id="a_node15"><a xlink:href="tech_technodrome_full.html" xlink:title="Technodrome">
<polygon fill="none" stroke="red" points="505.68,-329.989 431.859,-342.426 358.038,-329.989 358.107,-309.864 505.611,-309.864 505.68,-329.989"/>
<text text-anchor="middle" x="431.859" y="-320.726" font-family="Times,serif" font-size="14.00" fill="#ebc72d">Technodrome</text>
</a>
</g>
</g>
<!-- blacksmith&#45;&gt;technodrome -->
<g id="edge16" class="edge"><title>blacksmith&#45;&gt;technodrome</title>
<path fill="none" stroke="#ebc72d" stroke-dasharray="1,5" d="M816.423,-411.522C742.721,-405.776 618.038,-392.294 514.859,-362.426 498.077,-357.568 480.282,-349.99 465.491,-342.953"/>
<polygon fill="#ebc72d" stroke="#ebc72d" points="466.769,-339.682 456.247,-338.441 463.698,-345.973 466.769,-339.682"/>
</g>
<!-- guard -->
<g id="node16" class="node"><title>guard</title>
<g id="a_node16"><a xlink:href="tech_guard_full.html" xlink:title="Guard">
<ellipse fill="none" stroke="magenta" cx="1318.86" cy="-212.426" rx="32.4942" ry="18"/>
<text text-anchor="middle" x="1318.86" y="-208.726" font-family="Times,serif" font-size="14.00" fill="#ebc72d">Guard</text>
</a>
</g>
</g>
<!-- blacksmith&#45;&gt;guard -->
<g id="edge11" class="edge"><title>blacksmith&#45;&gt;guard</title>
<path fill="none" stroke="#ebc72d" stroke-dasharray="1,5" d="M943.476,-411.995C999.493,-406.881 1082.01,-394.144 1146.86,-362.426 1210.66,-331.221 1269.67,-270.369 1299.16,-236.895"/>
<polygon fill="#ebc72d" stroke="#ebc72d" points="1302.09,-238.855 1306,-229.009 1296.8,-234.266 1302.09,-238.855"/>
</g>
<!-- blade_weapons -->
<g id="node21" class="node"><title>blade_weapons</title>
<g id="a_node21"><a xlink:href="tech_blade_weapons_full.html" xlink:title="Blade\nWeapons">
<polygon fill="none" stroke="green" points="803.358,-362.426 691.21,-362.426 662.361,-286.426 774.508,-286.426 803.358,-362.426"/>
<text text-anchor="middle" x="732.859" y="-328.226" font-family="Times,serif" font-size="14.00" fill="#ebc72d">Blade</text>
<text text-anchor="middle" x="732.859" y="-313.226" font-family="Times,serif" font-size="14.00" fill="#ebc72d">Weapons</text>
</a>
</g>
</g>
<!-- blacksmith&#45;&gt;blade_weapons -->
<g id="edge10" class="edge"><title>blacksmith&#45;&gt;blade_weapons</title>
<path fill="none" stroke="#ebc72d" d="M857.533,-401.757C842.634,-392.636 822.166,-380.104 802.119,-367.831"/>
<polygon fill="#ebc72d" stroke="#ebc72d" points="803.927,-364.834 793.571,-362.597 800.272,-370.804 803.927,-364.834"/>
</g>
<!-- piercing_weapons -->
<g id="node23" class="node"><title>piercing_weapons</title>
<g id="a_node23"><a xlink:href="tech_piercing_weapons_full.html" xlink:title="Piercing\nWeapons">
<polygon fill="none" stroke="green" points="999.358,-362.426 887.21,-362.426 858.361,-286.426 970.508,-286.426 999.358,-362.426"/>
<text text-anchor="middle" x="928.859" y="-328.226" font-family="Times,serif" font-size="14.00" fill="#ebc72d">Piercing</text>
<text text-anchor="middle" x="928.859" y="-313.226" font-family="Times,serif" font-size="14.00" fill="#ebc72d">Weapons</text>
</a>
</g>
</g>
<!-- blacksmith&#45;&gt;piercing_weapons -->
<g id="edge13" class="edge"><title>blacksmith&#45;&gt;piercing_weapons</title>
<path fill="none" stroke="#ebc72d" d="M887.301,-401.757C891.78,-393.531 897.768,-382.533 903.801,-371.451"/>
<polygon fill="#ebc72d" stroke="#ebc72d" points="906.914,-373.053 908.622,-362.597 900.766,-369.706 906.914,-373.053"/>
</g>
<!-- shield_level_1 -->
<g id="node24" class="node"><title>shield_level_1</title>
<g id="a_node24"><a xlink:href="tech_shield_level_1_full.html" xlink:title="Shield\nLevel 1">
<polygon fill="none" stroke="green" points="1138.12,-362.426 1042.26,-362.426 1017.6,-286.426 1113.46,-286.426 1138.12,-362.426"/>
<text text-anchor="middle" x="1077.86" y="-328.226" font-family="Times,serif" font-size="14.00" fill="#ebc72d">Shield</text>
<text text-anchor="middle" x="1077.86" y="-313.226" font-family="Times,serif" font-size="14.00" fill="#ebc72d">Level 1</text>
</a>
</g>
</g>
<!-- blacksmith&#45;&gt;shield_level_1 -->
<g id="edge14" class="edge"><title>blacksmith&#45;&gt;shield_level_1</title>
<path fill="none" stroke="#ebc72d" d="M915.287,-401.792C941.201,-391.57 977.059,-376.904 1007.86,-362.426 1014.44,-359.331 1021.3,-355.933 1028.03,-352.491"/>
<polygon fill="#ebc72d" stroke="#ebc72d" points="1029.83,-355.502 1037.1,-347.794 1026.61,-349.287 1029.83,-355.502"/>
</g>
<!-- shield_level_2 -->
<g id="node25" class="node"><title>shield_level_2</title>
<g id="a_node25"><a xlink:href="tech_shield_level_2_full.html" xlink:title="Shield\nLevel 2">
<polygon fill="none" stroke="green" points="644.123,-362.426 548.257,-362.426 523.595,-286.426 619.461,-286.426 644.123,-362.426"/>
<text text-anchor="middle" x="583.859" y="-328.226" font-family="Times,serif" font-size="14.00" fill="#ebc72d">Shield</text>
<text text-anchor="middle" x="583.859" y="-313.226" font-family="Times,serif" font-size="14.00" fill="#ebc72d">Level 2</text>
</a>
</g>
</g>
<!-- blacksmith&#45;&gt;shield_level_2 -->
<g id="edge15" class="edge"><title>blacksmith&#45;&gt;shield_level_2</title>
<path fill="none" stroke="#ebc72d" d="M816.231,-405.013C770.229,-396.408 707.074,-382.353 653.859,-362.426 653.409,-362.258 652.957,-362.087 652.505,-361.913"/>
<polygon fill="#ebc72d" stroke="#ebc72d" points="653.532,-358.551 642.953,-357.984 650.869,-365.025 653.532,-358.551"/>
</g>
<!-- airship -->
<g id="node13" class="node"><title>airship</title>
<g id="a_node13"><a xlink:href="tech_airship_full.html" xlink:title="Airship">
<ellipse fill="none" stroke="magenta" cx="292.859" cy="-18" rx="37.0935" ry="18"/>
<text text-anchor="middle" x="292.859" y="-14.3" font-family="Times,serif" font-size="14.00" fill="#ebc72d">Airship</text>
</a>
</g>
</g>
<!-- aerodrome&#45;&gt;airship -->
<g id="edge3" class="edge"><title>aerodrome&#45;&gt;airship</title>
<path fill="none" stroke="#ebc72d" d="M422.116,-90.5222C395.801,-75.9612 354.068,-52.8688 325.173,-36.8803"/>
<polygon fill="#ebc72d" stroke="#ebc72d" points="326.723,-33.7379 316.278,-31.9587 323.334,-39.8628 326.723,-33.7379"/>
</g>
<!-- ornithopter -->
<g id="node19" class="node"><title>ornithopter</title>
<g id="a_node19"><a xlink:href="tech_ornithopter_full.html" xlink:title="Ornithopter">
<ellipse fill="none" stroke="magenta" cx="446.859" cy="-18" rx="51.9908" ry="18"/>
<text text-anchor="middle" x="446.859" y="-14.3" font-family="Times,serif" font-size="14.00" fill="#ebc72d">Ornithopter</text>
</a>
</g>
</g>
<!-- aerodrome&#45;&gt;ornithopter -->
<g id="edge4" class="edge"><title>aerodrome&#45;&gt;ornithopter</title>
<path fill="none" stroke="#ebc72d" d="M446.859,-90.5222C446.859,-78.6349 446.859,-61.0617 446.859,-46.3096"/>
<polygon fill="#ebc72d" stroke="#ebc72d" points="450.359,-46.188 446.859,-36.1881 443.359,-46.1881 450.359,-46.188"/>
</g>
<!-- worker -->
<g id="node6" class="node"><title>worker</title>
<g id="a_node6"><a xlink:href="tech_worker_full.html" xlink:title="Worker">
<ellipse fill="none" stroke="magenta" cx="1041.86" cy="-488.426" rx="38.1938" ry="18"/>
<text text-anchor="middle" x="1041.86" y="-484.726" font-family="Times,serif" font-size="14.00" fill="#ebc72d">Worker</text>
</a>
</g>
</g>
<!-- worker&#45;&gt;farm -->
<g id="edge37" class="edge"><title>worker&#45;&gt;farm</title>
<path fill="none" stroke="#ebc72d" stroke-width="2" d="M1004.38,-484.167C872.526,-472.702 430.147,-434.234 284.095,-421.534"/>
<polygon fill="#ebc72d" stroke="#ebc72d" stroke-width="2" points="284.365,-418.044 274.1,-420.665 283.759,-425.018 284.365,-418.044"/>
</g>
<!-- worker&#45;&gt;blacksmith -->
<g id="edge34" class="edge"><title>worker&#45;&gt;blacksmith</title>
<path fill="none" stroke="#ebc72d" stroke-width="2" d="M1014.38,-475.552C987.334,-463.866 945.884,-445.956 916.145,-433.106"/>
<polygon fill="#ebc72d" stroke="#ebc72d" stroke-width="2" points="917.502,-429.879 906.934,-429.126 914.726,-436.305 917.502,-429.879"/>
</g>
<!-- defense_tower -->
<g id="node7" class="node"><title>defense_tower</title>
<g id="a_node7"><a xlink:href="tech_defense_tower_full.html" xlink:title="Defense\nTower">
<polygon fill="none" stroke="red" points="1044.99,-115.543 991.859,-138.641 938.727,-115.543 938.776,-78.1695 1044.94,-78.1695 1044.99,-115.543"/>
<text text-anchor="middle" x="991.859" y="-109.013" font-family="Times,serif" font-size="14.00" fill="#ebc72d">Defense</text>
<text text-anchor="middle" x="991.859" y="-94.0132" font-family="Times,serif" font-size="14.00" fill="#ebc72d">Tower</text>
</a>
</g>
</g>
<!-- worker&#45;&gt;defense_tower -->
<g id="edge36" class="edge"><title>worker&#45;&gt;defense_tower</title>
<path fill="none" stroke="#ebc72d" stroke-width="2" d="M1060.78,-472.528C1086.07,-451.273 1129.69,-409.561 1146.86,-362.426 1158.42,-330.689 1158.61,-318.096 1146.86,-286.426 1123.01,-222.128 1064.81,-165.368 1026.91,-133.454"/>
<polygon fill="#ebc72d" stroke="#ebc72d" stroke-width="2" points="1029.08,-130.71 1019.14,-127.027 1024.61,-136.101 1029.08,-130.71"/>
</g>
<!-- worker&#45;&gt;technodrome -->
<g id="edge38" class="edge"><title>worker&#45;&gt;technodrome</title>
<path fill="none" stroke="#ebc72d" stroke-width="2" d="M1006.35,-481.474C920.45,-466.545 695.212,-424.232 514.859,-362.426 498.699,-356.888 481.36,-349.416 466.731,-342.636"/>
<polygon fill="#ebc72d" stroke="#ebc72d" stroke-width="2" points="468.086,-339.405 457.548,-338.308 465.101,-345.737 468.086,-339.405"/>
</g>
<!-- barracks -->
<g id="node17" class="node"><title>barracks</title>
<g id="a_node17"><a xlink:href="tech_barracks_full.html" xlink:title="Barracks">
<polygon fill="none" stroke="red" points="1371.3,-421.989 1318.86,-434.426 1266.42,-421.989 1266.47,-401.864 1371.25,-401.864 1371.3,-421.989"/>
<text text-anchor="middle" x="1318.86" y="-412.726" font-family="Times,serif" font-size="14.00" fill="#ebc72d">Barracks</text>
</a>
</g>
</g>
<!-- worker&#45;&gt;barracks -->
<g id="edge33" class="edge"><title>worker&#45;&gt;barracks</title>
<path fill="none" stroke="#ebc72d" stroke-width="2" d="M1074.72,-479.122C1124.24,-466.609 1218.09,-442.891 1273.9,-428.787"/>
<polygon fill="#ebc72d" stroke="#ebc72d" stroke-width="2" points="1275.02,-432.114 1283.86,-426.27 1273.31,-425.327 1275.02,-432.114"/>
</g>
<!-- castle -->
<g id="node18" class="node"><title>castle</title>
<g id="a_node18"><a xlink:href="tech_castle_full.html" xlink:title="Castle">
<polygon fill="none" stroke="red" points="1469.2,-421.989 1428.86,-434.426 1388.52,-421.989 1388.56,-401.864 1469.16,-401.864 1469.2,-421.989"/>
<text text-anchor="middle" x="1428.86" y="-412.726" font-family="Times,serif" font-size="14.00" fill="#ebc72d">Castle</text>
</a>
</g>
</g>
<!-- worker&#45;&gt;castle -->
<g id="edge35" class="edge"><title>worker&#45;&gt;castle</title>
<path fill="none" stroke="#ebc72d" stroke-width="2" d="M1089.12,-482.71C1154.96,-475.532 1277.7,-459.939 1379.86,-434.426 1384.63,-433.235 1389.6,-431.777 1394.46,-430.222"/>
<polygon fill="#ebc72d" stroke="#ebc72d" stroke-width="2" points="1088.62,-479.243 1079.05,-483.79 1089.37,-486.203 1088.62,-479.243"/>
<polygon fill="#ebc72d" stroke="#ebc72d" stroke-width="2" points="1395.83,-433.454 1404.19,-426.946 1393.6,-426.819 1395.83,-433.454"/>
</g>
<!-- archer -->
<g id="node8" class="node"><title>archer</title>
<g id="a_node8"><a xlink:href="tech_archer_full.html" xlink:title="Archer">
<ellipse fill="none" stroke="magenta" cx="1606.86" cy="-324.426" rx="35.194" ry="18"/>
<text text-anchor="middle" x="1606.86" y="-320.726" font-family="Times,serif" font-size="14.00" fill="#ebc72d">Archer</text>
</a>
</g>
</g>
<!-- swordman -->
<g id="node11" class="node"><title>swordman</title>
<g id="a_node11"><a xlink:href="tech_swordman_full.html" xlink:title="Swordman">
<ellipse fill="none" stroke="magenta" cx="1318.86" cy="-324.426" rx="49.2915" ry="18"/>
<text text-anchor="middle" x="1318.86" y="-320.726" font-family="Times,serif" font-size="14.00" fill="#ebc72d">Swordman</text>
</a>
</g>
</g>
<!-- swordman&#45;&gt;guard -->
<g id="edge25" class="edge"><title>swordman&#45;&gt;guard</title>
<path fill="none" stroke="#ebc72d" stroke-dasharray="5,2" d="M1318.86,-306.239C1318.86,-288.641 1318.86,-261.033 1318.86,-240.497"/>
<polygon fill="#ebc72d" stroke="#ebc72d" points="1322.36,-240.493 1318.86,-230.493 1315.36,-240.493 1322.36,-240.493"/>
</g>
<!-- technodrome&#45;&gt;technician -->
<g id="edge32" class="edge"><title>technodrome&#45;&gt;technician</title>
<path fill="none" stroke="#ebc72d" d="M433.885,-309.495C436.4,-292.206 440.745,-262.337 443.923,-240.484"/>
<polygon fill="#ebc72d" stroke="#ebc72d" points="447.401,-240.889 445.377,-230.489 440.474,-239.882 447.401,-240.889"/>
</g>
<!-- advanced_architecture -->
<g id="node22" class="node"><title>advanced_architecture</title>
<g id="a_node22"><a xlink:href="tech_advanced_architecture_full.html" xlink:title="Advanced\nArchitecture">
<polygon fill="none" stroke="green" points="755.034,-250.426 616.358,-250.426 580.684,-174.426 719.36,-174.426 755.034,-250.426"/>
<text text-anchor="middle" x="667.859" y="-216.226" font-family="Times,serif" font-size="14.00" fill="#ebc72d">Advanced</text>
<text text-anchor="middle" x="667.859" y="-201.226" font-family="Times,serif" font-size="14.00" fill="#ebc72d">Architecture</text>
</a>
</g>
</g>
<!-- technodrome&#45;&gt;advanced_architecture -->
<g id="edge30" class="edge"><title>technodrome&#45;&gt;advanced_architecture</title>
<path fill="none" stroke="#ebc72d" d="M461.271,-309.717C496.182,-293.445 555.472,-265.81 601.604,-244.308"/>
<polygon fill="#ebc72d" stroke="#ebc72d" points="603.354,-247.354 610.939,-239.957 600.397,-241.009 603.354,-247.354"/>
</g>
<!-- robotics -->
<g id="node28" class="node"><title>robotics</title>
<g id="a_node28"><a xlink:href="tech_robotics_full.html" xlink:title="Robotics">
<polygon fill="none" stroke="green" points="379.741,-230.426 281.301,-230.426 255.977,-194.426 354.418,-194.426 379.741,-230.426"/>
<text text-anchor="middle" x="317.859" y="-208.726" font-family="Times,serif" font-size="14.00" fill="#ebc72d">Robotics</text>
</a>
</g>
</g>
<!-- technodrome&#45;&gt;robotics -->
<g id="edge31" class="edge"><title>technodrome&#45;&gt;robotics</title>
<path fill="none" stroke="#ebc72d" d="M417.421,-309.495C398.689,-291.42 365.707,-259.596 342.865,-237.555"/>
<polygon fill="#ebc72d" stroke="#ebc72d" points="345.169,-234.915 335.543,-230.489 340.309,-239.952 345.169,-234.915"/>
</g>
<!-- barracks&#45;&gt;archer -->
<g id="edge5" class="edge"><title>barracks&#45;&gt;archer</title>
<path fill="none" stroke="#ebc72d" d="M1366.39,-401.797C1370.93,-400.611 1375.47,-399.467 1379.86,-398.426 1460.51,-379.286 1488.1,-398.236 1562.86,-362.426 1570.58,-358.728 1578.07,-353.353 1584.61,-347.842"/>
<polygon fill="#ebc72d" stroke="#ebc72d" points="1587.24,-350.187 1592.34,-340.902 1582.56,-344.979 1587.24,-350.187"/>
</g>
<!-- barracks&#45;&gt;swordman -->
<g id="edge8" class="edge"><title>barracks&#45;&gt;swordman</title>
<path fill="none" stroke="#ebc72d" d="M1318.86,-401.757C1318.86,-388.768 1318.86,-368.866 1318.86,-352.64"/>
<polygon fill="#ebc72d" stroke="#ebc72d" points="1322.36,-352.618 1318.86,-342.618 1315.36,-352.618 1322.36,-352.618"/>
</g>
<!-- barracks&#45;&gt;horseman -->
<g id="edge7" class="edge"><title>barracks&#45;&gt;horseman</title>
<path fill="none" stroke="#ebc72d" d="M1302.36,-401.643C1266.22,-371.698 1180.62,-302.126 1146.86,-286.426 1060.84,-246.425 951.167,-227.457 886.238,-219.163"/>
<polygon fill="#ebc72d" stroke="#ebc72d" points="886.566,-215.677 876.212,-217.922 885.706,-222.624 886.566,-215.677"/>
</g>
<!-- barracks&#45;&gt;guard -->
<g id="edge6" class="edge"><title>barracks&#45;&gt;guard</title>
<path fill="none" stroke="#ebc72d" d="M1341.39,-401.765C1354.4,-392.478 1369.6,-378.902 1376.86,-362.426 1390.48,-331.519 1387.99,-318.319 1376.86,-286.426 1370.04,-266.879 1355.56,-248.643 1342.77,-235.286"/>
<polygon fill="#ebc72d" stroke="#ebc72d" points="1345.05,-232.617 1335.51,-228.013 1340.1,-237.563 1345.05,-232.617"/>
</g>
<!-- training_field -->
<g id="node20" class="node"><title>training_field</title>
<g id="a_node20"><a xlink:href="tech_training_field_full.html" xlink:title="Training\nField">
<polygon fill="none" stroke="green" points="1553.99,-362.426 1450.38,-362.426 1423.73,-286.426 1527.34,-286.426 1553.99,-362.426"/>
<text text-anchor="middle" x="1488.86" y="-328.226" font-family="Times,serif" font-size="14.00" fill="#ebc72d">Training</text>
<text text-anchor="middle" x="1488.86" y="-313.226" font-family="Times,serif" font-size="14.00" fill="#ebc72d">Field</text>
</a>
</g>
</g>
<!-- barracks&#45;&gt;training_field -->
<g id="edge9" class="edge"><title>barracks&#45;&gt;training_field</title>
<path fill="none" stroke="#ebc72d" d="M1344.68,-401.757C1368.84,-388.967 1405.66,-369.474 1436.04,-353.388"/>
<polygon fill="#ebc72d" stroke="#ebc72d" points="1438.04,-356.289 1445.24,-348.517 1434.77,-350.103 1438.04,-356.289"/>
</g>
<!-- advanced_architecture&#45;&gt;defense_tower -->
<g id="edge2" class="edge"><title>advanced_architecture&#45;&gt;defense_tower</title>
<path fill="none" stroke="#ebc72d" stroke-dasharray="1,5" d="M727.184,-190.577C742.672,-185.226 759.367,-179.539 774.859,-174.426 830.295,-156.133 894.062,-136.222 938.056,-122.661"/>
<polygon fill="#ebc72d" stroke="#ebc72d" points="939.159,-125.984 947.687,-119.697 937.1,-119.294 939.159,-125.984"/>
</g>
<!-- advanced_architecture&#45;&gt;air_ballista -->
<g id="edge1" class="edge"><title>advanced_architecture&#45;&gt;air_ballista</title>
<path fill="none" stroke="#ebc72d" stroke-dasharray="1,5" d="M667.859,-174.332C667.859,-163.86 667.859,-152.488 667.859,-142.089"/>
<polygon fill="#ebc72d" stroke="#ebc72d" points="671.359,-142.084 667.859,-132.084 664.359,-142.084 671.359,-142.084"/>
</g>
<!-- stables&#45;&gt;horseman -->
<g id="edge23" class="edge"><title>stables&#45;&gt;horseman</title>
<path fill="none" stroke="#ebc72d" stroke-dasharray="1,5" d="M200.87,-306.425C212.303,-298.916 226.681,-290.81 240.859,-286.426 463.456,-217.599 540.371,-316.302 763.859,-250.426 776.505,-246.699 789.413,-240.303 800.48,-233.867"/>
<polygon fill="#ebc72d" stroke="#ebc72d" points="802.569,-236.693 809.297,-228.509 798.934,-230.711 802.569,-236.693"/>
</g>
<!-- stables&#45;&gt;speedup_cow_production -->
<g id="edge24" class="edge"><title>stables&#45;&gt;speedup_cow_production</title>
<path fill="none" stroke="#ebc72d" stroke-dasharray="1,5" d="M167.078,-306.239C159.138,-293.581 147.949,-275.744 137.499,-259.085"/>
<polygon fill="#ebc72d" stroke="#ebc72d" points="140.402,-257.126 132.123,-250.514 134.472,-260.845 140.402,-257.126"/>
</g>
<!-- robotics&#45;&gt;battle_machine -->
<g id="edge22" class="edge"><title>robotics&#45;&gt;battle_machine</title>
<path fill="none" stroke="#ebc72d" stroke-dasharray="1,5" d="M318.189,-194.053C318.454,-180.132 318.834,-160.121 319.165,-142.713"/>
<polygon fill="#ebc72d" stroke="#ebc72d" points="322.673,-142.353 319.363,-132.289 315.674,-142.22 322.673,-142.353"/>
</g>
<!-- robotics&#45;&gt;airship -->
<g id="edge21" class="edge"><title>robotics&#45;&gt;airship</title>
<path fill="none" stroke="#ebc72d" stroke-dasharray="1,5" d="M300.563,-194.337C287.945,-180.576 271.873,-160.025 264.859,-138.426 255.741,-110.347 257.755,-100.655 264.859,-72 267.25,-62.3569 271.751,-52.5353 276.457,-44.0093"/>
<polygon fill="#ebc72d" stroke="#ebc72d" points="279.505,-45.7311 281.553,-35.3361 273.469,-42.185 279.505,-45.7311"/>
</g>
</g>
</svg>
