<?xml version="1.0" encoding="UTF-8" standalone="no"?>
<!DOCTYPE svg PUBLIC "-//W3C//DTD SVG 1.1//EN"
 "http://www.w3.org/Graphics/SVG/1.1/DTD/svg11.dtd">
<!-- Generated by graphviz version 2.38.0 (20140413.2041)
 -->
<!-- Title: test Pages: 1 -->
<svg width="391pt" height="290pt"
 viewBox="0.00 0.00 391.17 290.43" xmlns="http://www.w3.org/2000/svg" xmlns:xlink="http://www.w3.org/1999/xlink">
<g id="graph0" class="graph" transform="scale(1 1) rotate(0) translate(4 286.426)">
<title>test</title>
<polygon fill="#151515" stroke="none" points="-4,4 -4,-286.426 387.174,-286.426 387.174,4 -4,4"/>
<!-- farm -->
<g id="node1" class="node"><title>farm</title>
<g id="a_node1"><a xlink:href="tech_farm_full.html" xlink:title="Farm">
<polygon fill="none" stroke="red" points="73.8655,-197.989 36.9552,-210.426 0.0447922,-197.989 0.0792436,-177.864 73.8311,-177.864 73.8655,-197.989"/>
<text text-anchor="middle" x="36.9552" y="-188.726" font-family="Times,serif" font-size="14.00" fill="#ebc72d">Farm</text>
</a>
</g>
</g>
<!-- blacksmith -->
<g id="node2" class="node"><title>blacksmith</title>
<g id="a_node2"><a xlink:href="tech_blacksmith_full.html" xlink:title="Blacksmith">
<polygon fill="none" stroke="red" points="218.388,-197.989 154.955,-210.426 91.5222,-197.989 91.5814,-177.864 218.329,-177.864 218.388,-197.989"/>
<text text-anchor="middle" x="154.955" y="-188.726" font-family="Times,serif" font-size="14.00" fill="#ebc72d">Blacksmith</text>
</a>
</g>
</g>
<!-- defense_tower -->
<g id="node4" class="node"><title>defense_tower</title>
<g id="a_node4"><a xlink:href="tech_defense_tower_full.html" xlink:title="Defense\nTower">
<polygon fill="none" stroke="red" points="134.088,-43.543 80.9552,-66.641 27.8226,-43.543 27.8722,-6.16955 134.038,-6.16955 134.088,-43.543"/>
<text text-anchor="middle" x="80.9552" y="-37.0132" font-family="Times,serif" font-size="14.00" fill="#ebc72d">Defense</text>
<text text-anchor="middle" x="80.9552" y="-22.0132" font-family="Times,serif" font-size="14.00" fill="#ebc72d">Tower</text>
</a>
</g>
</g>
<!-- blacksmith&#45;&gt;defense_tower -->
<g id="edge1" class="edge"><title>blacksmith&#45;&gt;defense_tower</title>
<path fill="none" stroke="#ebc72d" stroke-dasharray="1,5" d="M113.929,-177.698C95.8359,-169.362 76.3523,-156.719 65.9552,-138.426 54.3369,-117.985 58.1809,-91.7759 64.8822,-70.7553"/>
<polygon fill="#ebc72d" stroke="#ebc72d" points="68.2258,-71.797 68.2309,-61.2021 61.6199,-69.4813 68.2258,-71.797"/>
</g>
<!-- technodrome -->
<g id="node5" class="node"><title>technodrome</title>
<g id="a_node5"><a xlink:href="tech_technodrome_full.html" xlink:title="Technodrome">
<polygon fill="none" stroke="red" points="222.776,-125.989 148.955,-138.426 75.1344,-125.989 75.2033,-105.864 222.707,-105.864 222.776,-125.989"/>
<text text-anchor="middle" x="148.955" y="-116.726" font-family="Times,serif" font-size="14.00" fill="#ebc72d">Technodrome</text>
</a>
</g>
</g>
<!-- blacksmith&#45;&gt;technodrome -->
<g id="edge2" class="edge"><title>blacksmith&#45;&gt;technodrome</title>
<path fill="none" stroke="#ebc72d" stroke-dasharray="1,5" d="M153.77,-177.597C153.05,-169.198 152.107,-158.195 151.246,-148.155"/>
<polygon fill="#ebc72d" stroke="#ebc72d" points="154.733,-147.855 150.392,-138.19 147.759,-148.453 154.733,-147.855"/>
</g>
<!-- aerodrome -->
<g id="node3" class="node"><title>aerodrome</title>
<g id="a_node3"><a xlink:href="tech_aerodrome_full.html" xlink:title="Aerodrome">
<polygon fill="none" stroke="red" points="296.388,-38.7755 232.955,-51.2132 169.522,-38.7755 169.581,-18.6509 296.329,-18.6509 296.388,-38.7755"/>
<text text-anchor="middle" x="232.955" y="-29.5132" font-family="Times,serif" font-size="14.00" fill="#ebc72d">Aerodrome</text>
</a>
</g>
</g>
<!-- technodrome&#45;&gt;aerodrome -->
<g id="edge8" class="edge"><title>technodrome&#45;&gt;aerodrome</title>
<path fill="none" stroke="#ebc72d" stroke-dasharray="1,5" d="M162.451,-105.735C175.683,-92.3125 196.061,-71.6398 211.513,-55.9653"/>
<polygon fill="#ebc72d" stroke="#ebc72d" points="214.122,-58.3045 218.649,-48.7258 209.136,-53.3903 214.122,-58.3045"/>
</g>
<!-- technodrome&#45;&gt;defense_tower -->
<g id="edge9" class="edge"><title>technodrome&#45;&gt;defense_tower</title>
<path fill="none" stroke="#ebc72d" stroke-dasharray="1,5" d="M138.03,-105.735C129.635,-95.2162 117.688,-80.2444 106.892,-66.7151"/>
<polygon fill="#ebc72d" stroke="#ebc72d" points="109.333,-64.1636 100.36,-58.5303 103.862,-68.5298 109.333,-64.1636"/>
</g>
<!-- barracks -->
<g id="node6" class="node"><title>barracks</title>
<g id="a_node6"><a xlink:href="tech_barracks_full.html" xlink:title="Barracks">
<polygon fill="none" stroke="red" points="383.395,-197.989 330.955,-210.426 278.516,-197.989 278.565,-177.864 383.346,-177.864 383.395,-197.989"/>
<text text-anchor="middle" x="330.955" y="-188.726" font-family="Times,serif" font-size="14.00" fill="#ebc72d">Barracks</text>
</a>
</g>
</g>
<!-- castle -->
<g id="node7" class="node"><title>castle</title>
<g id="a_node7"><a xlink:href="tech_castle_full.html" xlink:title="Castle">
<polygon fill="none" stroke="red" points="243.293,-269.989 202.955,-282.426 162.617,-269.989 162.655,-249.864 243.256,-249.864 243.293,-269.989"/>
<text text-anchor="middle" x="202.955" y="-260.726" font-family="Times,serif" font-size="14.00" fill="#ebc72d">Castle</text>
</a>
</g>
</g>
<!-- castle&#45;&gt;farm -->
<g id="edge6" class="edge"><title>castle&#45;&gt;farm</title>
<path fill="none" stroke="#ebc72d" stroke-dasharray="1,5" d="M170.555,-249.764C141.224,-237.395 98.2609,-219.278 69.0312,-206.952"/>
<polygon fill="#ebc72d" stroke="#ebc72d" points="70.2588,-203.672 59.6846,-203.011 67.5389,-210.122 70.2588,-203.672"/>
</g>
<!-- castle&#45;&gt;blacksmith -->
<g id="edge5" class="edge"><title>castle&#45;&gt;blacksmith</title>
<path fill="none" stroke="#ebc72d" stroke-dasharray="1,5" d="M193.472,-249.597C187.091,-240.291 178.516,-227.786 171.077,-216.938"/>
<polygon fill="#ebc72d" stroke="#ebc72d" points="173.96,-214.953 165.419,-208.686 168.187,-218.912 173.96,-214.953"/>
</g>
<!-- castle&#45;&gt;aerodrome -->
<g id="edge3" class="edge"><title>castle&#45;&gt;aerodrome</title>
<path fill="none" stroke="#ebc72d" stroke-dasharray="1,5" d="M250.955,-191.426C250.302,-145.23 242.739,-91.884 237.627,-60.7174"/>
<polygon fill="#ebc72d" stroke="#ebc72d" points="241.046,-59.9473 235.936,-50.6665 234.143,-61.1085 241.046,-59.9473"/>
</g>
<!-- castle&#45;&gt;technodrome -->
<g id="edge7" class="edge"><title>castle&#45;&gt;technodrome</title>
<path fill="none" stroke="#ebc72d" stroke-dasharray="1,5" d="M219.896,-249.75C233.841,-236.839 251.276,-216.117 250.955,-193.426"/>
<path fill="none" stroke="#ebc72d" stroke-dasharray="1,5" d="M250.955,-191.426C250.56,-163.502 224.251,-145.885 198.454,-135.309"/>
<polygon fill="#ebc72d" stroke="#ebc72d" points="199.614,-132.006 189.023,-131.726 197.127,-138.549 199.614,-132.006"/>
</g>
<!-- castle&#45;&gt;barracks -->
<g id="edge4" class="edge"><title>castle&#45;&gt;barracks</title>
<path fill="none" stroke="#ebc72d" stroke-dasharray="1,5" d="M227.939,-249.764C248.565,-238.484 277.933,-222.423 300.039,-210.334"/>
<polygon fill="#ebc72d" stroke="#ebc72d" points="301.927,-213.29 309.022,-205.421 298.569,-207.149 301.927,-213.29"/>
</g>
</g>
</svg>
