<?xml version="1.0" encoding="UTF-8" standalone="no"?>
<!DOCTYPE svg PUBLIC "-//W3C//DTD SVG 1.1//EN"
 "http://www.w3.org/Graphics/SVG/1.1/DTD/svg11.dtd">
<!-- Generated by graphviz version 2.38.0 (20140413.2041)
 -->
<!-- Title: test Pages: 1 -->
<svg width="1016pt" height="380pt"
 viewBox="0.00 0.00 1015.55 380.17" xmlns="http://www.w3.org/2000/svg" xmlns:xlink="http://www.w3.org/1999/xlink">
<g id="graph0" class="graph" transform="scale(1 1) rotate(0) translate(4 376.167)">
<title>test</title>
<polygon fill="#151515" stroke="none" points="-4,4 -4,-376.167 1011.55,-376.167 1011.55,4 -4,4"/>
<!-- technician -->
<g id="node1" class="node"><title>technician</title>
<g id="a_node1"><a xlink:href="tech_technician_full.html" xlink:title="Technician">
<ellipse fill="none" stroke="magenta" cx="295.984" cy="-194.953" rx="50.0912" ry="18"/>
<text text-anchor="middle" x="295.984" y="-191.253" font-family="Times,serif" font-size="14.00" fill="#ebc72d">Technician</text>
</a>
</g>
</g>
<!-- aerodrome -->
<g id="node4" class="node"><title>aerodrome</title>
<g id="a_node4"><a xlink:href="tech_aerodrome_full.html" xlink:title="Aerodrome">
<polygon fill="none" stroke="red" points="269.417,-104.432 205.984,-116.87 142.551,-104.432 142.61,-84.3078 269.358,-84.3078 269.417,-104.432"/>
<text text-anchor="middle" x="205.984" y="-95.1701" font-family="Times,serif" font-size="14.00" fill="#ebc72d">Aerodrome</text>
</a>
</g>
</g>
<!-- technician&#45;&gt;aerodrome -->
<g id="edge18" class="edge"><title>technician&#45;&gt;aerodrome</title>
<path fill="none" stroke="#ebc72d" stroke-width="2" d="M280.307,-177.565C265.458,-162.043 243.064,-138.632 226.739,-121.567"/>
<polygon fill="#ebc72d" stroke="#ebc72d" stroke-width="2" points="229.156,-119.03 219.714,-114.223 224.098,-123.869 229.156,-119.03"/>
</g>
<!-- battle_machine -->
<g id="node8" class="node"><title>battle_machine</title>
<g id="a_node8"><a xlink:href="tech_battle_machine_full.html" xlink:title="Battle\nMachine">
<ellipse fill="none" stroke="magenta" cx="332.984" cy="-98.8701" rx="45.9239" ry="26.7407"/>
<text text-anchor="middle" x="332.984" y="-102.67" font-family="Times,serif" font-size="14.00" fill="#ebc72d">Battle</text>
<text text-anchor="middle" x="332.984" y="-87.6701" font-family="Times,serif" font-size="14.00" fill="#ebc72d">Machine</text>
</a>
</g>
</g>
<!-- technician&#45;&gt;battle_machine -->
<g id="edge20" class="edge"><title>technician&#45;&gt;battle_machine</title>
<path fill="none" stroke="#ebc72d" stroke-dasharray="5,2" d="M302.77,-176.697C307.381,-164.973 313.64,-149.056 319.266,-134.751"/>
<polygon fill="#ebc72d" stroke="#ebc72d" points="322.629,-135.763 323.032,-125.175 316.115,-133.201 322.629,-135.763"/>
</g>
<!-- air_ballista -->
<g id="node9" class="node"><title>air_ballista</title>
<g id="a_node9"><a xlink:href="tech_air_ballista_full.html" xlink:title="Air\nBallista">
<ellipse fill="none" stroke="magenta" cx="83.9839" cy="-98.8701" rx="41.0244" ry="26.7407"/>
<text text-anchor="middle" x="83.9839" y="-102.67" font-family="Times,serif" font-size="14.00" fill="#ebc72d">Air</text>
<text text-anchor="middle" x="83.9839" y="-87.6701" font-family="Times,serif" font-size="14.00" fill="#ebc72d">Ballista</text>
</a>
</g>
</g>
<!-- technician&#45;&gt;air_ballista -->
<g id="edge19" class="edge"><title>technician&#45;&gt;air_ballista</title>
<path fill="none" stroke="#ebc72d" stroke-dasharray="5,2" d="M263.38,-181.107C230.428,-167.918 178.201,-146.449 133.984,-125.74 130.835,-124.265 127.595,-122.701 124.351,-121.1"/>
<polygon fill="#ebc72d" stroke="#ebc72d" points="125.776,-117.899 115.269,-116.536 122.633,-124.153 125.776,-117.899"/>
</g>
<!-- catapult -->
<g id="node12" class="node"><title>catapult</title>
<g id="a_node12"><a xlink:href="tech_catapult_full.html" xlink:title="Catapult">
<ellipse fill="none" stroke="magenta" cx="436.984" cy="-98.8701" rx="40.0939" ry="18"/>
<text text-anchor="middle" x="436.984" y="-95.1701" font-family="Times,serif" font-size="14.00" fill="#ebc72d">Catapult</text>
</a>
</g>
</g>
<!-- technician&#45;&gt;catapult -->
<g id="edge21" class="edge"><title>technician&#45;&gt;catapult</title>
<path fill="none" stroke="#ebc72d" stroke-dasharray="5,2" d="M318.638,-178.837C342.558,-162.877 380.39,-137.633 406.822,-119.996"/>
<polygon fill="#ebc72d" stroke="#ebc72d" points="408.937,-122.792 415.312,-114.331 405.051,-116.97 408.937,-122.792"/>
</g>
<!-- farm -->
<g id="node2" class="node"><title>farm</title>
<g id="a_node2"><a xlink:href="tech_farm_full.html" xlink:title="Farm">
<polygon fill="none" stroke="red" points="782.894,-200.516 745.984,-212.953 709.073,-200.516 709.108,-180.391 782.86,-180.391 782.894,-200.516"/>
<text text-anchor="middle" x="745.984" y="-191.253" font-family="Times,serif" font-size="14.00" fill="#ebc72d">Farm</text>
</a>
</g>
</g>
<!-- pig -->
<g id="node10" class="node"><title>pig</title>
<g id="a_node10"><a xlink:href="tech_pig_full.html" xlink:title="Pig">
<ellipse fill="none" stroke="magenta" cx="745.984" cy="-98.8701" rx="27" ry="18"/>
<text text-anchor="middle" x="745.984" y="-95.1701" font-family="Times,serif" font-size="14.00" fill="#ebc72d">Pig</text>
</a>
</g>
</g>
<!-- farm&#45;&gt;pig -->
<g id="edge16" class="edge"><title>farm&#45;&gt;pig</title>
<path fill="none" stroke="#ebc72d" d="M745.984,-180.071C745.984,-166.187 745.984,-144.462 745.984,-127.123"/>
<polygon fill="#ebc72d" stroke="#ebc72d" points="749.484,-127.003 745.984,-117.003 742.484,-127.003 749.484,-127.003"/>
</g>
<!-- horseman -->
<g id="node14" class="node"><title>horseman</title>
<g id="a_node14"><a xlink:href="tech_horseman_full.html" xlink:title="Horseman">
<ellipse fill="none" stroke="magenta" cx="653.984" cy="-98.8701" rx="47.3916" ry="18"/>
<text text-anchor="middle" x="653.984" y="-95.1701" font-family="Times,serif" font-size="14.00" fill="#ebc72d">Horseman</text>
</a>
</g>
</g>
<!-- farm&#45;&gt;horseman -->
<g id="edge15" class="edge"><title>farm&#45;&gt;horseman</title>
<path fill="none" stroke="#ebc72d" stroke-dasharray="1,5" d="M732.409,-180.071C717.801,-165.133 694.318,-141.117 676.851,-123.255"/>
<polygon fill="#ebc72d" stroke="#ebc72d" points="679.27,-120.723 669.776,-116.02 674.265,-125.617 679.27,-120.723"/>
</g>
<!-- cow -->
<g id="node19" class="node"><title>cow</title>
<g id="a_node19"><a xlink:href="tech_cow_full.html" xlink:title="Cow">
<ellipse fill="none" stroke="magenta" cx="817.984" cy="-98.8701" rx="27.0966" ry="18"/>
<text text-anchor="middle" x="817.984" y="-95.1701" font-family="Times,serif" font-size="14.00" fill="#ebc72d">Cow</text>
</a>
</g>
</g>
<!-- farm&#45;&gt;cow -->
<g id="edge14" class="edge"><title>farm&#45;&gt;cow</title>
<path fill="none" stroke="#ebc72d" d="M756.608,-180.071C767.97,-165.224 786.194,-141.41 799.838,-123.582"/>
<polygon fill="#ebc72d" stroke="#ebc72d" points="802.819,-125.445 806.117,-115.376 797.26,-121.191 802.819,-125.445"/>
</g>
<!-- blacksmith -->
<g id="node3" class="node"><title>blacksmith</title>
<g id="a_node3"><a xlink:href="tech_blacksmith_full.html" xlink:title="Blacksmith">
<polygon fill="none" stroke="red" points="653.417,-200.516 589.984,-212.953 526.551,-200.516 526.61,-180.391 653.358,-180.391 653.417,-200.516"/>
<text text-anchor="middle" x="589.984" y="-191.253" font-family="Times,serif" font-size="14.00" fill="#ebc72d">Blacksmith</text>
</a>
</g>
</g>
<!-- blacksmith&#45;&gt;battle_machine -->
<g id="edge8" class="edge"><title>blacksmith&#45;&gt;battle_machine</title>
<path fill="none" stroke="#ebc72d" stroke-dasharray="1,5" d="M561.592,-180.289C548.236,-174.157 531.982,-167.111 516.984,-161.74 460.944,-141.673 443.778,-146.48 387.984,-125.74 384.252,-124.353 380.425,-122.812 376.612,-121.194"/>
<polygon fill="#ebc72d" stroke="#ebc72d" points="377.788,-117.888 367.226,-117.054 374.963,-124.292 377.788,-117.888"/>
</g>
<!-- blacksmith&#45;&gt;catapult -->
<g id="edge9" class="edge"><title>blacksmith&#45;&gt;catapult</title>
<path fill="none" stroke="#ebc72d" stroke-dasharray="1,5" d="M567.736,-180.273C541.598,-164.2 498.051,-137.422 468.459,-119.225"/>
<polygon fill="#ebc72d" stroke="#ebc72d" points="470.11,-116.131 459.758,-113.874 466.443,-122.094 470.11,-116.131"/>
</g>
<!-- airship -->
<g id="node13" class="node"><title>airship</title>
<g id="a_node13"><a xlink:href="tech_airship_full.html" xlink:title="Airship">
<ellipse fill="none" stroke="magenta" cx="427.984" cy="-18" rx="37.0935" ry="18"/>
<text text-anchor="middle" x="427.984" y="-14.3" font-family="Times,serif" font-size="14.00" fill="#ebc72d">Airship</text>
</a>
</g>
</g>
<!-- blacksmith&#45;&gt;airship -->
<g id="edge7" class="edge"><title>blacksmith&#45;&gt;airship</title>
<path fill="none" stroke="#ebc72d" stroke-dasharray="1,5" d="M580.1,-180.161C568.217,-162.555 549.104,-130.673 542.984,-99.8701"/>
</g>
<!-- blacksmith&#45;&gt;horseman -->
<g id="edge11" class="edge"><title>blacksmith&#45;&gt;horseman</title>
<path fill="none" stroke="#ebc72d" stroke-dasharray="1,5" d="M599.427,-180.071C609.198,-165.707 624.679,-142.95 636.657,-125.341"/>
<polygon fill="#ebc72d" stroke="#ebc72d" points="639.823,-126.91 642.553,-116.673 634.035,-122.973 639.823,-126.91"/>
</g>
<!-- guard -->
<g id="node16" class="node"><title>guard</title>
<g id="a_node16"><a xlink:href="tech_guard_full.html" xlink:title="Guard">
<ellipse fill="none" stroke="magenta" cx="937.984" cy="-98.8701" rx="32.4942" ry="18"/>
<text text-anchor="middle" x="937.984" y="-95.1701" font-family="Times,serif" font-size="14.00" fill="#ebc72d">Guard</text>
</a>
</g>
</g>
<!-- blacksmith&#45;&gt;guard -->
<g id="edge10" class="edge"><title>blacksmith&#45;&gt;guard</title>
<path fill="none" stroke="#ebc72d" stroke-dasharray="1,5" d="M634.251,-180.384C654.257,-174.408 678.238,-167.461 699.984,-161.74 767.96,-143.856 786.133,-144.095 853.984,-125.74 869.423,-121.564 886.3,-116.47 900.85,-111.911"/>
<polygon fill="#ebc72d" stroke="#ebc72d" points="902.026,-115.21 910.505,-108.858 899.915,-108.536 902.026,-115.21"/>
</g>
<!-- ornithopter -->
<g id="node20" class="node"><title>ornithopter</title>
<g id="a_node20"><a xlink:href="tech_ornithopter_full.html" xlink:title="Ornithopter">
<ellipse fill="none" stroke="magenta" cx="205.984" cy="-18" rx="51.9908" ry="18"/>
<text text-anchor="middle" x="205.984" y="-14.3" font-family="Times,serif" font-size="14.00" fill="#ebc72d">Ornithopter</text>
</a>
</g>
</g>
<!-- blacksmith&#45;&gt;ornithopter -->
<g id="edge12" class="edge"><title>blacksmith&#45;&gt;ornithopter</title>
<path fill="none" stroke="#ebc72d" stroke-dasharray="1,5" d="M577.375,-180.301C564.88,-166.667 545.3,-145.024 528.984,-125.74 509.226,-102.388 512.197,-87.7669 485.984,-72 449.566,-50.0946 335.924,-33.7208 265.109,-25.3197"/>
<polygon fill="#ebc72d" stroke="#ebc72d" points="265.325,-21.8212 254.986,-24.1384 264.513,-28.774 265.325,-21.8212"/>
</g>
<!-- aerodrome&#45;&gt;airship -->
<g id="edge1" class="edge"><title>aerodrome&#45;&gt;airship</title>
<path fill="none" stroke="#ebc72d" d="M243.712,-84.2718C254.753,-80.3035 266.848,-75.9678 277.984,-72 315.734,-58.5489 358.879,-43.3195 389.176,-32.6487"/>
<polygon fill="#ebc72d" stroke="#ebc72d" points="390.662,-35.8363 398.932,-29.2139 388.337,-29.2336 390.662,-35.8363"/>
</g>
<!-- aerodrome&#45;&gt;ornithopter -->
<g id="edge2" class="edge"><title>aerodrome&#45;&gt;ornithopter</title>
<path fill="none" stroke="#ebc72d" d="M205.984,-84.1319C205.984,-73.719 205.984,-59.0721 205.984,-46.3046"/>
<polygon fill="#ebc72d" stroke="#ebc72d" points="209.484,-46.1561 205.984,-36.1562 202.484,-46.1562 209.484,-46.1561"/>
</g>
<!-- worker -->
<g id="node5" class="node"><title>worker</title>
<g id="a_node5"><a xlink:href="tech_worker_full.html" xlink:title="Worker">
<ellipse fill="none" stroke="magenta" cx="695.984" cy="-354.167" rx="38.1938" ry="18"/>
<text text-anchor="middle" x="695.984" y="-350.467" font-family="Times,serif" font-size="14.00" fill="#ebc72d">Worker</text>
</a>
</g>
</g>
<!-- worker&#45;&gt;farm -->
<g id="edge33" class="edge"><title>worker&#45;&gt;farm</title>
<path fill="none" stroke="#ebc72d" stroke-width="2" d="M633.984,-281.167C622.737,-263.07 678.803,-230.078 715.681,-210.887"/>
<polygon fill="#ebc72d" stroke="#ebc72d" stroke-width="2" points="717.739,-213.766 725.046,-206.094 714.55,-207.534 717.739,-213.766"/>
</g>
<!-- worker&#45;&gt;blacksmith -->
<g id="edge30" class="edge"><title>worker&#45;&gt;blacksmith</title>
<path fill="none" stroke="#ebc72d" stroke-width="2" d="M633.984,-281.167C621.862,-261.662 610.029,-238.438 601.693,-221.165"/>
<polygon fill="#ebc72d" stroke="#ebc72d" stroke-width="2" points="604.672,-219.28 597.213,-211.756 598.352,-222.289 604.672,-219.28"/>
</g>
<!-- defense_tower -->
<g id="node6" class="node"><title>defense_tower</title>
<g id="a_node6"><a xlink:href="tech_defense_tower_full.html" xlink:title="Defense\nTower">
<polygon fill="none" stroke="red" points="508.116,-205.283 454.984,-228.381 401.851,-205.283 401.901,-167.91 508.067,-167.91 508.116,-205.283"/>
<text text-anchor="middle" x="454.984" y="-198.753" font-family="Times,serif" font-size="14.00" fill="#ebc72d">Defense</text>
<text text-anchor="middle" x="454.984" y="-183.753" font-family="Times,serif" font-size="14.00" fill="#ebc72d">Tower</text>
</a>
</g>
</g>
<!-- worker&#45;&gt;defense_tower -->
<g id="edge32" class="edge"><title>worker&#45;&gt;defense_tower</title>
<path fill="none" stroke="#ebc72d" stroke-width="2" d="M679.509,-337.739C665.915,-324.327 646.838,-303.849 633.984,-283.167"/>
<path fill="none" stroke="#ebc72d" stroke-width="2" d="M633.984,-281.167C604.064,-233.025 569.008,-252.853 517.984,-228.167 511.669,-225.111 505.036,-221.816 498.541,-218.54"/>
<polygon fill="#ebc72d" stroke="#ebc72d" stroke-width="2" points="499.679,-215.192 489.178,-213.784 496.509,-221.433 499.679,-215.192"/>
</g>
<!-- technodrome -->
<g id="node15" class="node"><title>technodrome</title>
<g id="a_node15"><a xlink:href="tech_technodrome_full.html" xlink:title="Technodrome">
<polygon fill="none" stroke="red" points="447.805,-287.729 373.984,-300.167 300.163,-287.729 300.232,-267.604 447.736,-267.604 447.805,-287.729"/>
<text text-anchor="middle" x="373.984" y="-278.467" font-family="Times,serif" font-size="14.00" fill="#ebc72d">Technodrome</text>
</a>
</g>
</g>
<!-- worker&#45;&gt;technodrome -->
<g id="edge34" class="edge"><title>worker&#45;&gt;technodrome</title>
<path fill="none" stroke="#ebc72d" stroke-width="2" d="M661.829,-345.742C606.021,-333.609 494.836,-309.439 428.171,-294.946"/>
<polygon fill="#ebc72d" stroke="#ebc72d" stroke-width="2" points="428.785,-291.498 418.269,-292.794 427.298,-298.338 428.785,-291.498"/>
</g>
<!-- barracks -->
<g id="node17" class="node"><title>barracks</title>
<g id="a_node17"><a xlink:href="tech_barracks_full.html" xlink:title="Barracks">
<polygon fill="none" stroke="red" points="810.423,-287.729 757.984,-300.167 705.544,-287.729 705.593,-267.604 810.374,-267.604 810.423,-287.729"/>
<text text-anchor="middle" x="757.984" y="-278.467" font-family="Times,serif" font-size="14.00" fill="#ebc72d">Barracks</text>
</a>
</g>
</g>
<!-- worker&#45;&gt;barracks -->
<g id="edge29" class="edge"><title>worker&#45;&gt;barracks</title>
<path fill="none" stroke="#ebc72d" stroke-width="2" d="M710.053,-337.282C718.48,-327.768 729.315,-315.534 738.551,-305.107"/>
<polygon fill="#ebc72d" stroke="#ebc72d" stroke-width="2" points="741.226,-307.366 745.236,-297.559 735.986,-302.725 741.226,-307.366"/>
</g>
<!-- castle -->
<g id="node18" class="node"><title>castle</title>
<g id="a_node18"><a xlink:href="tech_castle_full.html" xlink:title="Castle">
<polygon fill="none" stroke="red" points="908.322,-287.729 867.984,-300.167 827.646,-287.729 827.684,-267.604 908.284,-267.604 908.322,-287.729"/>
<text text-anchor="middle" x="867.984" y="-278.467" font-family="Times,serif" font-size="14.00" fill="#ebc72d">Castle</text>
</a>
</g>
</g>
<!-- worker&#45;&gt;castle -->
<g id="edge31" class="edge"><title>worker&#45;&gt;castle</title>
<path fill="none" stroke="#ebc72d" stroke-width="2" d="M733.503,-337.897C763.735,-325.593 805.838,-308.458 834.841,-296.655"/>
<polygon fill="#ebc72d" stroke="#ebc72d" stroke-width="2" points="731.944,-334.753 724.001,-341.764 734.583,-341.236 731.944,-334.753"/>
<polygon fill="#ebc72d" stroke="#ebc72d" stroke-width="2" points="836.195,-299.883 844.138,-292.871 833.556,-293.399 836.195,-299.883"/>
</g>
<!-- archer -->
<g id="node7" class="node"><title>archer</title>
<g id="a_node7"><a xlink:href="tech_archer_full.html" xlink:title="Archer">
<ellipse fill="none" stroke="magenta" cx="835.984" cy="-194.953" rx="35.194" ry="18"/>
<text text-anchor="middle" x="835.984" y="-191.253" font-family="Times,serif" font-size="14.00" fill="#ebc72d">Archer</text>
</a>
</g>
</g>
<!-- swordman -->
<g id="node11" class="node"><title>swordman</title>
<g id="a_node11"><a xlink:href="tech_swordman_full.html" xlink:title="Swordman">
<ellipse fill="none" stroke="magenta" cx="937.984" cy="-194.953" rx="49.2915" ry="18"/>
<text text-anchor="middle" x="937.984" y="-191.253" font-family="Times,serif" font-size="14.00" fill="#ebc72d">Swordman</text>
</a>
</g>
</g>
<!-- swordman&#45;&gt;guard -->
<g id="edge17" class="edge"><title>swordman&#45;&gt;guard</title>
<path fill="none" stroke="#ebc72d" stroke-dasharray="5,2" d="M937.984,-176.697C937.984,-162.904 937.984,-143.308 937.984,-127.359"/>
<polygon fill="#ebc72d" stroke="#ebc72d" points="941.484,-127.017 937.984,-117.017 934.484,-127.017 941.484,-127.017"/>
</g>
<!-- technodrome&#45;&gt;technician -->
<g id="edge28" class="edge"><title>technodrome&#45;&gt;technician</title>
<path fill="none" stroke="#ebc72d" d="M361.452,-267.476C349.717,-254.655 331.928,-235.222 317.854,-219.846"/>
<polygon fill="#ebc72d" stroke="#ebc72d" points="320.218,-217.245 310.885,-212.232 315.055,-221.972 320.218,-217.245"/>
</g>
<!-- technodrome&#45;&gt;defense_tower -->
<g id="edge26" class="edge"><title>technodrome&#45;&gt;defense_tower</title>
<path fill="none" stroke="#ebc72d" stroke-dasharray="1,5" d="M386.998,-267.476C397.488,-256.44 412.635,-240.505 425.971,-226.475"/>
<polygon fill="#ebc72d" stroke="#ebc72d" points="428.8,-228.58 433.152,-218.92 423.726,-223.757 428.8,-228.58"/>
</g>
<!-- technodrome&#45;&gt;battle_machine -->
<g id="edge24" class="edge"><title>technodrome&#45;&gt;battle_machine</title>
<path fill="none" stroke="#ebc72d" stroke-dasharray="1,5" d="M371.613,-267.533C369.167,-250.409 366.644,-220.317 373.984,-195.953"/>
<path fill="none" stroke="#ebc72d" stroke-dasharray="1,5" d="M373.984,-193.953C380.432,-172.548 370.711,-149.525 359.121,-131.612"/>
<polygon fill="#ebc72d" stroke="#ebc72d" points="361.911,-129.492 353.344,-123.258 356.153,-133.474 361.911,-129.492"/>
</g>
<!-- technodrome&#45;&gt;air_ballista -->
<g id="edge22" class="edge"><title>technodrome&#45;&gt;air_ballista</title>
<path fill="none" stroke="#ebc72d" stroke-dasharray="1,5" d="M14.9839,-193.953C1.41263,-168.746 23.8583,-142.695 46.688,-124.415"/>
<polygon fill="#ebc72d" stroke="#ebc72d" points="48.8927,-127.135 54.7208,-118.288 44.6472,-121.57 48.8927,-127.135"/>
</g>
<!-- technodrome&#45;&gt;catapult -->
<g id="edge25" class="edge"><title>technodrome&#45;&gt;catapult</title>
<path fill="none" stroke="#ebc72d" stroke-dasharray="1,5" d="M373.984,-193.953C382.048,-167.185 400.595,-141.122 415.49,-123.242"/>
<polygon fill="#ebc72d" stroke="#ebc72d" points="418.167,-125.497 422.025,-115.629 412.856,-120.937 418.167,-125.497"/>
</g>
<!-- technodrome&#45;&gt;airship -->
<g id="edge23" class="edge"><title>technodrome&#45;&gt;airship</title>
<path fill="none" stroke="#ebc72d" stroke-dasharray="1,5" d="M373.984,-193.953C390.795,-138.147 432.249,-148.313 485.984,-125.74 511.633,-114.965 548.405,-127.157 542.984,-99.8701"/>
<path fill="none" stroke="#ebc72d" stroke-dasharray="1,5" d="M542.984,-97.8701C536.066,-63.0519 499.345,-42.2447 469.231,-30.821"/>
<polygon fill="#ebc72d" stroke="#ebc72d" points="470.326,-27.4959 459.732,-27.4358 467.977,-34.0897 470.326,-27.4959"/>
</g>
<!-- technodrome&#45;&gt;ornithopter -->
<g id="edge27" class="edge"><title>technodrome&#45;&gt;ornithopter</title>
<path fill="none" stroke="#ebc72d" stroke-dasharray="1,5" d="M300.199,-276.091C203.188,-267.497 41.858,-245.87 14.9839,-195.953"/>
<path fill="none" stroke="#ebc72d" stroke-dasharray="1,5" d="M14.9839,-193.953C-11.0199,-145.653 -1.90655,-113.485 33.9839,-72 61.2668,-40.4644 106.846,-27.4048 144.232,-22.1282"/>
<polygon fill="#ebc72d" stroke="#ebc72d" points="145.05,-25.5531 154.538,-20.8374 144.18,-18.6074 145.05,-25.5531"/>
</g>
<!-- barracks&#45;&gt;archer -->
<g id="edge3" class="edge"><title>barracks&#45;&gt;archer</title>
<path fill="none" stroke="#ebc72d" d="M770.516,-267.476C782.398,-254.495 800.485,-234.735 814.639,-219.272"/>
<polygon fill="#ebc72d" stroke="#ebc72d" points="817.459,-221.375 821.629,-211.635 812.295,-216.649 817.459,-221.375"/>
</g>
<!-- barracks&#45;&gt;swordman -->
<g id="edge6" class="edge"><title>barracks&#45;&gt;swordman</title>
<path fill="none" stroke="#ebc72d" d="M791.783,-267.521C816.499,-257.294 850.681,-242.626 879.984,-228.167 887.853,-224.283 896.176,-219.858 903.985,-215.558"/>
<polygon fill="#ebc72d" stroke="#ebc72d" points="905.831,-218.536 912.858,-210.607 902.42,-212.423 905.831,-218.536"/>
</g>
<!-- barracks&#45;&gt;horseman -->
<g id="edge5" class="edge"><title>barracks&#45;&gt;horseman</title>
<path fill="none" stroke="#ebc72d" d="M738.75,-267.541C726.222,-257.807 710.339,-243.722 699.984,-228.167 678.916,-196.519 666.174,-154.06 659.605,-126.826"/>
<polygon fill="#ebc72d" stroke="#ebc72d" points="662.962,-125.808 657.311,-116.847 656.14,-127.377 662.962,-125.808"/>
</g>
<!-- barracks&#45;&gt;guard -->
<g id="edge4" class="edge"><title>barracks&#45;&gt;guard</title>
<path fill="none" stroke="#ebc72d" d="M805.518,-267.567C810.058,-266.374 814.602,-265.221 818.984,-264.167 897.032,-245.379 945.19,-290.331 995.984,-228.167 1014.66,-205.305 1006.84,-189.194 995.984,-161.74 989.588,-145.567 976.746,-131.146 964.768,-120.304"/>
<polygon fill="#ebc72d" stroke="#ebc72d" points="966.964,-117.576 957.098,-113.714 962.402,-122.886 966.964,-117.576"/>
</g>
</g>
</svg>
