<?xml version="1.0" encoding="UTF-8" standalone="no"?>
<!DOCTYPE svg PUBLIC "-//W3C//DTD SVG 1.1//EN"
 "http://www.w3.org/Graphics/SVG/1.1/DTD/svg11.dtd">
<!-- Generated by graphviz version 2.38.0 (20140413.2041)
 -->
<!-- Title: test Pages: 1 -->
<svg width="1560pt" height="514pt"
 viewBox="0.00 0.00 1560.39 514.43" xmlns="http://www.w3.org/2000/svg" xmlns:xlink="http://www.w3.org/1999/xlink">
<g id="graph0" class="graph" transform="scale(1 1) rotate(0) translate(4 510.426)">
<title>test</title>
<polygon fill="#151515" stroke="none" points="-4,4 -4,-510.426 1556.39,-510.426 1556.39,4 -4,4"/>
<!-- technician -->
<g id="node1" class="node"><title>technician</title>
<g id="a_node1"><a xlink:href="tech_technician_full.html" xlink:title="Technician">
<ellipse fill="none" stroke="magenta" cx="283.298" cy="-212.426" rx="50.0912" ry="18"/>
<text text-anchor="middle" x="283.298" y="-208.726" font-family="Times,serif" font-size="14.00" fill="#ebc72d">Technician</text>
</a>
</g>
</g>
<!-- aerodrome -->
<g id="node4" class="node"><title>aerodrome</title>
<g id="a_node4"><a xlink:href="tech_aerodrome_full.html" xlink:title="Aerodrome">
<polygon fill="none" stroke="red" points="345.731,-110.776 282.298,-123.213 218.865,-110.776 218.924,-90.6509 345.671,-90.6509 345.731,-110.776"/>
<text text-anchor="middle" x="282.298" y="-101.513" font-family="Times,serif" font-size="14.00" fill="#ebc72d">Aerodrome</text>
</a>
</g>
</g>
<!-- technician&#45;&gt;aerodrome -->
<g id="edge25" class="edge"><title>technician&#45;&gt;aerodrome</title>
<path fill="none" stroke="#ebc72d" stroke-width="2" d="M283.132,-194.053C282.976,-177.582 282.738,-152.585 282.557,-133.463"/>
<polygon fill="#ebc72d" stroke="#ebc72d" stroke-width="2" points="286.055,-133.23 282.46,-123.264 279.055,-133.297 286.055,-133.23"/>
</g>
<!-- battle_machine -->
<g id="node8" class="node"><title>battle_machine</title>
<g id="a_node8"><a xlink:href="tech_battle_machine_full.html" xlink:title="Battle\nMachine">
<ellipse fill="none" stroke="magenta" cx="155.298" cy="-105.213" rx="45.9239" ry="26.7407"/>
<text text-anchor="middle" x="155.298" y="-109.013" font-family="Times,serif" font-size="14.00" fill="#ebc72d">Battle</text>
<text text-anchor="middle" x="155.298" y="-94.0132" font-family="Times,serif" font-size="14.00" fill="#ebc72d">Machine</text>
</a>
</g>
</g>
<!-- technician&#45;&gt;battle_machine -->
<g id="edge27" class="edge"><title>technician&#45;&gt;battle_machine</title>
<path fill="none" stroke="#ebc72d" stroke-dasharray="5,2" d="M264.135,-195.675C244.335,-179.4 213.028,-153.667 189.064,-133.969"/>
<polygon fill="#ebc72d" stroke="#ebc72d" points="191.194,-131.188 181.246,-127.542 186.749,-136.596 191.194,-131.188"/>
</g>
<!-- air_ballista -->
<g id="node9" class="node"><title>air_ballista</title>
<g id="a_node9"><a xlink:href="tech_air_ballista_full.html" xlink:title="Air\nBallista">
<ellipse fill="none" stroke="magenta" cx="503.298" cy="-105.213" rx="41.0244" ry="26.7407"/>
<text text-anchor="middle" x="503.298" y="-109.013" font-family="Times,serif" font-size="14.00" fill="#ebc72d">Air</text>
<text text-anchor="middle" x="503.298" y="-94.0132" font-family="Times,serif" font-size="14.00" fill="#ebc72d">Ballista</text>
</a>
</g>
</g>
<!-- technician&#45;&gt;air_ballista -->
<g id="edge26" class="edge"><title>technician&#45;&gt;air_ballista</title>
<path fill="none" stroke="#ebc72d" stroke-dasharray="5,2" d="M316.97,-198.889C351.831,-185.468 407.503,-162.792 453.298,-138.426 457.797,-136.032 462.421,-133.364 466.952,-130.616"/>
<polygon fill="#ebc72d" stroke="#ebc72d" points="468.867,-133.547 475.499,-125.285 465.162,-127.608 468.867,-133.547"/>
</g>
<!-- catapult -->
<g id="node12" class="node"><title>catapult</title>
<g id="a_node12"><a xlink:href="tech_catapult_full.html" xlink:title="Catapult">
<ellipse fill="none" stroke="magenta" cx="404.298" cy="-105.213" rx="40.0939" ry="18"/>
<text text-anchor="middle" x="404.298" y="-101.513" font-family="Times,serif" font-size="14.00" fill="#ebc72d">Catapult</text>
</a>
</g>
</g>
<!-- technician&#45;&gt;catapult -->
<g id="edge28" class="edge"><title>technician&#45;&gt;catapult</title>
<path fill="none" stroke="#ebc72d" stroke-dasharray="5,2" d="M301.675,-195.447C322.255,-177.551 355.746,-148.43 378.84,-128.349"/>
<polygon fill="#ebc72d" stroke="#ebc72d" points="381.287,-130.859 386.537,-121.657 376.694,-125.577 381.287,-130.859"/>
</g>
<!-- farm -->
<g id="node2" class="node"><title>farm</title>
<g id="a_node2"><a xlink:href="tech_farm_full.html" xlink:title="Farm">
<polygon fill="none" stroke="red" points="268.208,-421.989 231.298,-434.426 194.387,-421.989 194.422,-401.864 268.173,-401.864 268.208,-421.989"/>
<text text-anchor="middle" x="231.298" y="-412.726" font-family="Times,serif" font-size="14.00" fill="#ebc72d">Farm</text>
</a>
</g>
</g>
<!-- pig -->
<g id="node10" class="node"><title>pig</title>
<g id="a_node10"><a xlink:href="tech_pig_full.html" xlink:title="Pig">
<ellipse fill="none" stroke="magenta" cx="99.2976" cy="-324.426" rx="27" ry="18"/>
<text text-anchor="middle" x="99.2976" y="-320.726" font-family="Times,serif" font-size="14.00" fill="#ebc72d">Pig</text>
</a>
</g>
</g>
<!-- farm&#45;&gt;pig -->
<g id="edge19" class="edge"><title>farm&#45;&gt;pig</title>
<path fill="none" stroke="#ebc72d" d="M201.36,-401.76C181.689,-392.109 155.882,-378.132 135.298,-362.426 129.649,-358.116 124.046,-352.927 119.002,-347.817"/>
<polygon fill="#ebc72d" stroke="#ebc72d" points="121.49,-345.353 112.073,-340.498 116.406,-350.166 121.49,-345.353"/>
</g>
<!-- cow -->
<g id="node19" class="node"><title>cow</title>
<g id="a_node19"><a xlink:href="tech_cow_full.html" xlink:title="Cow">
<ellipse fill="none" stroke="magenta" cx="27.2976" cy="-324.426" rx="27.0966" ry="18"/>
<text text-anchor="middle" x="27.2976" y="-320.726" font-family="Times,serif" font-size="14.00" fill="#ebc72d">Cow</text>
</a>
</g>
</g>
<!-- farm&#45;&gt;cow -->
<g id="edge18" class="edge"><title>farm&#45;&gt;cow</title>
<path fill="none" stroke="#ebc72d" d="M194.373,-409.219C158.787,-402.027 104.434,-387.78 63.2976,-362.426 57.1461,-358.635 51.2986,-353.562 46.1737,-348.39"/>
<polygon fill="#ebc72d" stroke="#ebc72d" points="48.5895,-345.848 39.231,-340.881 43.4496,-350.6 48.5895,-345.848"/>
</g>
<!-- stables -->
<g id="node27" class="node"><title>stables</title>
<g id="a_node27"><a xlink:href="tech_stables_full.html" xlink:title="Stables">
<polygon fill="none" stroke="green" points="416.527,-342.426 331.851,-342.426 310.068,-306.426 394.744,-306.426 416.527,-342.426"/>
<text text-anchor="middle" x="363.298" y="-320.726" font-family="Times,serif" font-size="14.00" fill="#ebc72d">Stables</text>
</a>
</g>
</g>
<!-- farm&#45;&gt;stables -->
<g id="edge20" class="edge"><title>farm&#45;&gt;stables</title>
<path fill="none" stroke="#ebc72d" d="M251.346,-401.757C272.12,-387.593 304.952,-365.208 329.7,-348.334"/>
<polygon fill="#ebc72d" stroke="#ebc72d" points="331.793,-351.143 338.083,-342.618 327.849,-345.36 331.793,-351.143"/>
</g>
<!-- blacksmith -->
<g id="node3" class="node"><title>blacksmith</title>
<g id="a_node3"><a xlink:href="tech_blacksmith_full.html" xlink:title="Blacksmith">
<polygon fill="none" stroke="red" points="853.731,-421.989 790.298,-434.426 726.865,-421.989 726.924,-401.864 853.671,-401.864 853.731,-421.989"/>
<text text-anchor="middle" x="790.298" y="-412.726" font-family="Times,serif" font-size="14.00" fill="#ebc72d">Blacksmith</text>
</a>
</g>
</g>
<!-- horseman -->
<g id="node14" class="node"><title>horseman</title>
<g id="a_node14"><a xlink:href="tech_horseman_full.html" xlink:title="Horseman">
<ellipse fill="none" stroke="magenta" cx="741.298" cy="-212.426" rx="47.3916" ry="18"/>
<text text-anchor="middle" x="741.298" y="-208.726" font-family="Times,serif" font-size="14.00" fill="#ebc72d">Horseman</text>
</a>
</g>
</g>
<!-- blacksmith&#45;&gt;horseman -->
<g id="edge12" class="edge"><title>blacksmith&#45;&gt;horseman</title>
<path fill="none" stroke="#ebc72d" stroke-dasharray="1,5" d="M780.566,-401.733C773.746,-391.422 765.034,-376.674 760.298,-362.426 746.67,-321.433 742.723,-271.102 741.635,-240.683"/>
<polygon fill="#ebc72d" stroke="#ebc72d" points="745.126,-240.33 741.35,-230.431 738.129,-240.524 745.126,-240.33"/>
</g>
<!-- technodrome -->
<g id="node15" class="node"><title>technodrome</title>
<g id="a_node15"><a xlink:href="tech_technodrome_full.html" xlink:title="Technodrome">
<polygon fill="none" stroke="red" points="292.118,-329.989 218.298,-342.426 144.477,-329.989 144.546,-309.864 292.049,-309.864 292.118,-329.989"/>
<text text-anchor="middle" x="218.298" y="-320.726" font-family="Times,serif" font-size="14.00" fill="#ebc72d">Technodrome</text>
</a>
</g>
</g>
<!-- blacksmith&#45;&gt;technodrome -->
<g id="edge16" class="edge"><title>blacksmith&#45;&gt;technodrome</title>
<path fill="none" stroke="#ebc72d" stroke-dasharray="1,5" d="M726.512,-410.989C612.873,-402.672 379.927,-383.651 301.298,-362.426 284.305,-357.84 266.36,-350.224 251.52,-343.09"/>
<polygon fill="#ebc72d" stroke="#ebc72d" points="252.772,-339.805 242.257,-338.508 249.669,-346.079 252.772,-339.805"/>
</g>
<!-- guard -->
<g id="node16" class="node"><title>guard</title>
<g id="a_node16"><a xlink:href="tech_guard_full.html" xlink:title="Guard">
<ellipse fill="none" stroke="magenta" cx="1229.3" cy="-212.426" rx="32.4942" ry="18"/>
<text text-anchor="middle" x="1229.3" y="-208.726" font-family="Times,serif" font-size="14.00" fill="#ebc72d">Guard</text>
</a>
</g>
</g>
<!-- blacksmith&#45;&gt;guard -->
<g id="edge11" class="edge"><title>blacksmith&#45;&gt;guard</title>
<path fill="none" stroke="#ebc72d" stroke-dasharray="1,5" d="M853.915,-411.995C909.931,-406.881 992.452,-394.144 1057.3,-362.426 1121.1,-331.221 1180.11,-270.369 1209.6,-236.895"/>
<polygon fill="#ebc72d" stroke="#ebc72d" points="1212.53,-238.855 1216.44,-229.009 1207.24,-234.266 1212.53,-238.855"/>
</g>
<!-- blade_weapons -->
<g id="node22" class="node"><title>blade_weapons</title>
<g id="a_node22"><a xlink:href="tech_blade_weapons_full.html" xlink:title="Blade\nWeapons">
<polygon fill="none" stroke="green" points="713.796,-362.426 601.649,-362.426 572.799,-286.426 684.946,-286.426 713.796,-362.426"/>
<text text-anchor="middle" x="643.298" y="-328.226" font-family="Times,serif" font-size="14.00" fill="#ebc72d">Blade</text>
<text text-anchor="middle" x="643.298" y="-313.226" font-family="Times,serif" font-size="14.00" fill="#ebc72d">Weapons</text>
</a>
</g>
</g>
<!-- blacksmith&#45;&gt;blade_weapons -->
<g id="edge10" class="edge"><title>blacksmith&#45;&gt;blade_weapons</title>
<path fill="none" stroke="#ebc72d" d="M767.971,-401.757C753.072,-392.636 732.604,-380.104 712.558,-367.831"/>
<polygon fill="#ebc72d" stroke="#ebc72d" points="714.366,-364.834 704.01,-362.597 710.711,-370.804 714.366,-364.834"/>
</g>
<!-- piercing_weapons -->
<g id="node24" class="node"><title>piercing_weapons</title>
<g id="a_node24"><a xlink:href="tech_piercing_weapons_full.html" xlink:title="Piercing\nWeapons">
<polygon fill="none" stroke="green" points="909.796,-362.426 797.649,-362.426 768.799,-286.426 880.946,-286.426 909.796,-362.426"/>
<text text-anchor="middle" x="839.298" y="-328.226" font-family="Times,serif" font-size="14.00" fill="#ebc72d">Piercing</text>
<text text-anchor="middle" x="839.298" y="-313.226" font-family="Times,serif" font-size="14.00" fill="#ebc72d">Weapons</text>
</a>
</g>
</g>
<!-- blacksmith&#45;&gt;piercing_weapons -->
<g id="edge13" class="edge"><title>blacksmith&#45;&gt;piercing_weapons</title>
<path fill="none" stroke="#ebc72d" d="M797.74,-401.757C802.218,-393.531 808.206,-382.533 814.24,-371.451"/>
<polygon fill="#ebc72d" stroke="#ebc72d" points="817.352,-373.053 819.06,-362.597 811.204,-369.706 817.352,-373.053"/>
</g>
<!-- shield_level_1 -->
<g id="node25" class="node"><title>shield_level_1</title>
<g id="a_node25"><a xlink:href="tech_shield_level_1_full.html" xlink:title="Shield\nLevel 1">
<polygon fill="none" stroke="green" points="1048.56,-362.426 952.695,-362.426 928.034,-286.426 1023.9,-286.426 1048.56,-362.426"/>
<text text-anchor="middle" x="988.298" y="-328.226" font-family="Times,serif" font-size="14.00" fill="#ebc72d">Shield</text>
<text text-anchor="middle" x="988.298" y="-313.226" font-family="Times,serif" font-size="14.00" fill="#ebc72d">Level 1</text>
</a>
</g>
</g>
<!-- blacksmith&#45;&gt;shield_level_1 -->
<g id="edge14" class="edge"><title>blacksmith&#45;&gt;shield_level_1</title>
<path fill="none" stroke="#ebc72d" d="M825.726,-401.792C851.64,-391.57 887.497,-376.904 918.298,-362.426 924.883,-359.331 931.738,-355.933 938.47,-352.491"/>
<polygon fill="#ebc72d" stroke="#ebc72d" points="940.267,-355.502 947.536,-347.794 937.047,-349.287 940.267,-355.502"/>
</g>
<!-- shield_level_2 -->
<g id="node26" class="node"><title>shield_level_2</title>
<g id="a_node26"><a xlink:href="tech_shield_level_2_full.html" xlink:title="Shield\nLevel 2">
<polygon fill="none" stroke="green" points="554.561,-362.426 458.695,-362.426 434.034,-286.426 529.9,-286.426 554.561,-362.426"/>
<text text-anchor="middle" x="494.298" y="-328.226" font-family="Times,serif" font-size="14.00" fill="#ebc72d">Shield</text>
<text text-anchor="middle" x="494.298" y="-313.226" font-family="Times,serif" font-size="14.00" fill="#ebc72d">Level 2</text>
</a>
</g>
</g>
<!-- blacksmith&#45;&gt;shield_level_2 -->
<g id="edge15" class="edge"><title>blacksmith&#45;&gt;shield_level_2</title>
<path fill="none" stroke="#ebc72d" d="M726.669,-405.013C680.668,-396.408 617.513,-382.353 564.298,-362.426 563.847,-362.258 563.396,-362.087 562.944,-361.913"/>
<polygon fill="#ebc72d" stroke="#ebc72d" points="563.971,-358.551 553.391,-357.984 561.308,-365.025 563.971,-358.551"/>
</g>
<!-- airship -->
<g id="node13" class="node"><title>airship</title>
<g id="a_node13"><a xlink:href="tech_airship_full.html" xlink:title="Airship">
<ellipse fill="none" stroke="magenta" cx="128.298" cy="-18" rx="37.0935" ry="18"/>
<text text-anchor="middle" x="128.298" y="-14.3" font-family="Times,serif" font-size="14.00" fill="#ebc72d">Airship</text>
</a>
</g>
</g>
<!-- aerodrome&#45;&gt;airship -->
<g id="edge3" class="edge"><title>aerodrome&#45;&gt;airship</title>
<path fill="none" stroke="#ebc72d" d="M257.555,-90.5222C231.24,-75.9612 189.506,-52.8688 160.611,-36.8803"/>
<polygon fill="#ebc72d" stroke="#ebc72d" points="162.161,-33.7379 151.717,-31.9587 158.772,-39.8628 162.161,-33.7379"/>
</g>
<!-- ornithopter -->
<g id="node20" class="node"><title>ornithopter</title>
<g id="a_node20"><a xlink:href="tech_ornithopter_full.html" xlink:title="Ornithopter">
<ellipse fill="none" stroke="magenta" cx="282.298" cy="-18" rx="51.9908" ry="18"/>
<text text-anchor="middle" x="282.298" y="-14.3" font-family="Times,serif" font-size="14.00" fill="#ebc72d">Ornithopter</text>
</a>
</g>
</g>
<!-- aerodrome&#45;&gt;ornithopter -->
<g id="edge4" class="edge"><title>aerodrome&#45;&gt;ornithopter</title>
<path fill="none" stroke="#ebc72d" d="M282.298,-90.5222C282.298,-78.6349 282.298,-61.0617 282.298,-46.3096"/>
<polygon fill="#ebc72d" stroke="#ebc72d" points="285.798,-46.188 282.298,-36.1881 278.798,-46.1881 285.798,-46.188"/>
</g>
<!-- worker -->
<g id="node5" class="node"><title>worker</title>
<g id="a_node5"><a xlink:href="tech_worker_full.html" xlink:title="Worker">
<ellipse fill="none" stroke="magenta" cx="952.298" cy="-488.426" rx="38.1938" ry="18"/>
<text text-anchor="middle" x="952.298" y="-484.726" font-family="Times,serif" font-size="14.00" fill="#ebc72d">Worker</text>
</a>
</g>
</g>
<!-- worker&#45;&gt;farm -->
<g id="edge36" class="edge"><title>worker&#45;&gt;farm</title>
<path fill="none" stroke="#ebc72d" stroke-width="2" d="M915.052,-483.81C794.064,-472.064 412.205,-434.99 278.275,-421.987"/>
<polygon fill="#ebc72d" stroke="#ebc72d" stroke-width="2" points="278.612,-418.504 268.321,-421.021 277.936,-425.471 278.612,-418.504"/>
</g>
<!-- worker&#45;&gt;blacksmith -->
<g id="edge33" class="edge"><title>worker&#45;&gt;blacksmith</title>
<path fill="none" stroke="#ebc72d" stroke-width="2" d="M924.816,-475.552C897.773,-463.866 856.323,-445.956 826.584,-433.106"/>
<polygon fill="#ebc72d" stroke="#ebc72d" stroke-width="2" points="827.941,-429.879 817.373,-429.126 825.164,-436.305 827.941,-429.879"/>
</g>
<!-- defense_tower -->
<g id="node6" class="node"><title>defense_tower</title>
<g id="a_node6"><a xlink:href="tech_defense_tower_full.html" xlink:title="Defense\nTower">
<polygon fill="none" stroke="red" points="917.43,-115.543 864.298,-138.641 811.165,-115.543 811.215,-78.1695 917.381,-78.1695 917.43,-115.543"/>
<text text-anchor="middle" x="864.298" y="-109.013" font-family="Times,serif" font-size="14.00" fill="#ebc72d">Defense</text>
<text text-anchor="middle" x="864.298" y="-94.0132" font-family="Times,serif" font-size="14.00" fill="#ebc72d">Tower</text>
</a>
</g>
</g>
<!-- worker&#45;&gt;defense_tower -->
<g id="edge35" class="edge"><title>worker&#45;&gt;defense_tower</title>
<path fill="none" stroke="#ebc72d" stroke-width="2" d="M971.218,-472.528C996.506,-451.273 1040.13,-409.561 1057.3,-362.426 1068.86,-330.689 1070.76,-317.407 1057.3,-286.426 1026.5,-215.522 952.528,-159.833 905.629,-130.081"/>
<polygon fill="#ebc72d" stroke="#ebc72d" stroke-width="2" points="907.256,-126.971 896.917,-124.654 903.555,-132.912 907.256,-126.971"/>
</g>
<!-- worker&#45;&gt;technodrome -->
<g id="edge37" class="edge"><title>worker&#45;&gt;technodrome</title>
<path fill="none" stroke="#ebc72d" stroke-width="2" d="M915.22,-483.334C814.627,-471.589 528.838,-433.942 301.298,-362.426 284.753,-357.227 267.114,-349.671 252.371,-342.74"/>
<polygon fill="#ebc72d" stroke="#ebc72d" stroke-width="2" points="253.67,-339.482 243.141,-338.308 250.64,-345.792 253.67,-339.482"/>
</g>
<!-- barracks -->
<g id="node17" class="node"><title>barracks</title>
<g id="a_node17"><a xlink:href="tech_barracks_full.html" xlink:title="Barracks">
<polygon fill="none" stroke="red" points="1281.74,-421.989 1229.3,-434.426 1176.86,-421.989 1176.91,-401.864 1281.69,-401.864 1281.74,-421.989"/>
<text text-anchor="middle" x="1229.3" y="-412.726" font-family="Times,serif" font-size="14.00" fill="#ebc72d">Barracks</text>
</a>
</g>
</g>
<!-- worker&#45;&gt;barracks -->
<g id="edge32" class="edge"><title>worker&#45;&gt;barracks</title>
<path fill="none" stroke="#ebc72d" stroke-width="2" d="M985.161,-479.122C1034.67,-466.609 1128.53,-442.891 1184.34,-428.787"/>
<polygon fill="#ebc72d" stroke="#ebc72d" stroke-width="2" points="1185.46,-432.114 1194.3,-426.27 1183.75,-425.327 1185.46,-432.114"/>
</g>
<!-- castle -->
<g id="node18" class="node"><title>castle</title>
<g id="a_node18"><a xlink:href="tech_castle_full.html" xlink:title="Castle">
<polygon fill="none" stroke="red" points="1379.64,-421.989 1339.3,-434.426 1298.96,-421.989 1299,-401.864 1379.6,-401.864 1379.64,-421.989"/>
<text text-anchor="middle" x="1339.3" y="-412.726" font-family="Times,serif" font-size="14.00" fill="#ebc72d">Castle</text>
</a>
</g>
</g>
<!-- worker&#45;&gt;castle -->
<g id="edge34" class="edge"><title>worker&#45;&gt;castle</title>
<path fill="none" stroke="#ebc72d" stroke-width="2" d="M999.557,-482.71C1065.4,-475.532 1188.14,-459.939 1290.3,-434.426 1295.07,-433.235 1300.04,-431.777 1304.9,-430.222"/>
<polygon fill="#ebc72d" stroke="#ebc72d" stroke-width="2" points="999.06,-479.243 989.491,-483.79 999.807,-486.203 999.06,-479.243"/>
<polygon fill="#ebc72d" stroke="#ebc72d" stroke-width="2" points="1306.27,-433.454 1314.63,-426.946 1304.04,-426.819 1306.27,-433.454"/>
</g>
<!-- archer -->
<g id="node7" class="node"><title>archer</title>
<g id="a_node7"><a xlink:href="tech_archer_full.html" xlink:title="Archer">
<ellipse fill="none" stroke="magenta" cx="1517.3" cy="-324.426" rx="35.194" ry="18"/>
<text text-anchor="middle" x="1517.3" y="-320.726" font-family="Times,serif" font-size="14.00" fill="#ebc72d">Archer</text>
</a>
</g>
</g>
<!-- swordman -->
<g id="node11" class="node"><title>swordman</title>
<g id="a_node11"><a xlink:href="tech_swordman_full.html" xlink:title="Swordman">
<ellipse fill="none" stroke="magenta" cx="1229.3" cy="-324.426" rx="49.2915" ry="18"/>
<text text-anchor="middle" x="1229.3" y="-320.726" font-family="Times,serif" font-size="14.00" fill="#ebc72d">Swordman</text>
</a>
</g>
</g>
<!-- swordman&#45;&gt;guard -->
<g id="edge24" class="edge"><title>swordman&#45;&gt;guard</title>
<path fill="none" stroke="#ebc72d" stroke-dasharray="5,2" d="M1229.3,-306.239C1229.3,-288.641 1229.3,-261.033 1229.3,-240.497"/>
<polygon fill="#ebc72d" stroke="#ebc72d" points="1232.8,-240.493 1229.3,-230.493 1225.8,-240.493 1232.8,-240.493"/>
</g>
<!-- technodrome&#45;&gt;technician -->
<g id="edge31" class="edge"><title>technodrome&#45;&gt;technician</title>
<path fill="none" stroke="#ebc72d" d="M226.53,-309.495C236.992,-291.79 255.248,-260.894 268.232,-238.922"/>
<polygon fill="#ebc72d" stroke="#ebc72d" points="271.361,-240.506 273.435,-230.116 265.335,-236.945 271.361,-240.506"/>
</g>
<!-- advanced_architecture -->
<g id="node23" class="node"><title>advanced_architecture</title>
<g id="a_node23"><a xlink:href="tech_advanced_architecture_full.html" xlink:title="Advanced\nArchitecture">
<polygon fill="none" stroke="green" points="590.472,-250.426 451.797,-250.426 416.123,-174.426 554.798,-174.426 590.472,-250.426"/>
<text text-anchor="middle" x="503.298" y="-216.226" font-family="Times,serif" font-size="14.00" fill="#ebc72d">Advanced</text>
<text text-anchor="middle" x="503.298" y="-201.226" font-family="Times,serif" font-size="14.00" fill="#ebc72d">Architecture</text>
</a>
</g>
</g>
<!-- technodrome&#45;&gt;advanced_architecture -->
<g id="edge29" class="edge"><title>technodrome&#45;&gt;advanced_architecture</title>
<path fill="none" stroke="#ebc72d" d="M247.654,-309.716C263.435,-302.504 283.299,-293.679 301.298,-286.426 344.979,-268.824 394.726,-250.822 433.921,-237.099"/>
<polygon fill="#ebc72d" stroke="#ebc72d" points="435.359,-240.305 443.648,-233.706 433.054,-233.695 435.359,-240.305"/>
</g>
<!-- robotics -->
<g id="node28" class="node"><title>robotics</title>
<g id="a_node28"><a xlink:href="tech_robotics_full.html" xlink:title="Robotics">
<polygon fill="none" stroke="green" points="215.18,-230.426 116.739,-230.426 91.4154,-194.426 189.856,-194.426 215.18,-230.426"/>
<text text-anchor="middle" x="153.298" y="-208.726" font-family="Times,serif" font-size="14.00" fill="#ebc72d">Robotics</text>
</a>
</g>
</g>
<!-- technodrome&#45;&gt;robotics -->
<g id="edge30" class="edge"><title>technodrome&#45;&gt;robotics</title>
<path fill="none" stroke="#ebc72d" d="M210.065,-309.495C199.663,-291.891 181.555,-261.247 168.586,-239.3"/>
<polygon fill="#ebc72d" stroke="#ebc72d" points="171.481,-237.318 163.38,-230.489 165.454,-240.879 171.481,-237.318"/>
</g>
<!-- barracks&#45;&gt;archer -->
<g id="edge5" class="edge"><title>barracks&#45;&gt;archer</title>
<path fill="none" stroke="#ebc72d" d="M1276.82,-401.797C1281.37,-400.611 1285.91,-399.467 1290.3,-398.426 1370.95,-379.286 1398.54,-398.236 1473.3,-362.426 1481.02,-358.728 1488.51,-353.353 1495.05,-347.842"/>
<polygon fill="#ebc72d" stroke="#ebc72d" points="1497.68,-350.187 1502.78,-340.902 1493,-344.979 1497.68,-350.187"/>
</g>
<!-- barracks&#45;&gt;swordman -->
<g id="edge8" class="edge"><title>barracks&#45;&gt;swordman</title>
<path fill="none" stroke="#ebc72d" d="M1229.3,-401.757C1229.3,-388.768 1229.3,-368.866 1229.3,-352.64"/>
<polygon fill="#ebc72d" stroke="#ebc72d" points="1232.8,-352.618 1229.3,-342.618 1225.8,-352.618 1232.8,-352.618"/>
</g>
<!-- barracks&#45;&gt;horseman -->
<g id="edge7" class="edge"><title>barracks&#45;&gt;horseman</title>
<path fill="none" stroke="#ebc72d" d="M1212.79,-401.643C1176.66,-371.698 1091.06,-302.126 1057.3,-286.426 971.275,-246.425 861.605,-227.457 796.676,-219.163"/>
<polygon fill="#ebc72d" stroke="#ebc72d" points="797.005,-215.677 786.65,-217.922 796.145,-222.624 797.005,-215.677"/>
</g>
<!-- barracks&#45;&gt;guard -->
<g id="edge6" class="edge"><title>barracks&#45;&gt;guard</title>
<path fill="none" stroke="#ebc72d" d="M1251.83,-401.765C1264.84,-392.478 1280.03,-378.902 1287.3,-362.426 1300.92,-331.519 1298.42,-318.319 1287.3,-286.426 1280.48,-266.879 1266,-248.643 1253.21,-235.286"/>
<polygon fill="#ebc72d" stroke="#ebc72d" points="1255.49,-232.617 1245.95,-228.013 1250.54,-237.563 1255.49,-232.617"/>
</g>
<!-- training_field -->
<g id="node21" class="node"><title>training_field</title>
<g id="a_node21"><a xlink:href="tech_training_field_full.html" xlink:title="Training\nField">
<polygon fill="none" stroke="green" points="1464.43,-362.426 1360.82,-362.426 1334.17,-286.426 1437.78,-286.426 1464.43,-362.426"/>
<text text-anchor="middle" x="1399.3" y="-328.226" font-family="Times,serif" font-size="14.00" fill="#ebc72d">Training</text>
<text text-anchor="middle" x="1399.3" y="-313.226" font-family="Times,serif" font-size="14.00" fill="#ebc72d">Field</text>
</a>
</g>
</g>
<!-- barracks&#45;&gt;training_field -->
<g id="edge9" class="edge"><title>barracks&#45;&gt;training_field</title>
<path fill="none" stroke="#ebc72d" d="M1255.12,-401.757C1279.28,-388.967 1316.1,-369.474 1346.48,-353.388"/>
<polygon fill="#ebc72d" stroke="#ebc72d" points="1348.48,-356.289 1355.68,-348.517 1345.21,-350.103 1348.48,-356.289"/>
</g>
<!-- advanced_architecture&#45;&gt;defense_tower -->
<g id="edge2" class="edge"><title>advanced_architecture&#45;&gt;defense_tower</title>
<path fill="none" stroke="#ebc72d" stroke-dasharray="1,5" d="M564.128,-193.697C632.839,-173.672 743.659,-141.373 809.694,-122.127"/>
<polygon fill="#ebc72d" stroke="#ebc72d" points="810.877,-125.428 819.498,-119.27 808.918,-118.708 810.877,-125.428"/>
</g>
<!-- advanced_architecture&#45;&gt;air_ballista -->
<g id="edge1" class="edge"><title>advanced_architecture&#45;&gt;air_ballista</title>
<path fill="none" stroke="#ebc72d" stroke-dasharray="1,5" d="M503.298,-174.332C503.298,-163.86 503.298,-152.488 503.298,-142.089"/>
<polygon fill="#ebc72d" stroke="#ebc72d" points="506.798,-142.084 503.298,-132.084 499.798,-142.084 506.798,-142.084"/>
</g>
<!-- stables&#45;&gt;horseman -->
<g id="edge23" class="edge"><title>stables&#45;&gt;horseman</title>
<path fill="none" stroke="#ebc72d" stroke-dasharray="1,5" d="M387.66,-306.308C398.711,-299.235 412.214,-291.517 425.298,-286.426 498.895,-257.793 522.396,-268.388 599.298,-250.426 631.114,-242.995 666.691,-233.723 694.275,-226.32"/>
<polygon fill="#ebc72d" stroke="#ebc72d" points="695.31,-229.667 704.054,-223.684 693.488,-222.908 695.31,-229.667"/>
</g>
<!-- robotics&#45;&gt;battle_machine -->
<g id="edge22" class="edge"><title>robotics&#45;&gt;battle_machine</title>
<path fill="none" stroke="#ebc72d" stroke-dasharray="1,5" d="M153.628,-194.053C153.892,-180.132 154.273,-160.121 154.604,-142.713"/>
<polygon fill="#ebc72d" stroke="#ebc72d" points="158.111,-142.353 154.802,-132.289 151.112,-142.22 158.111,-142.353"/>
</g>
<!-- robotics&#45;&gt;airship -->
<g id="edge21" class="edge"><title>robotics&#45;&gt;airship</title>
<path fill="none" stroke="#ebc72d" stroke-dasharray="1,5" d="M136.002,-194.337C123.383,-180.576 107.312,-160.025 100.298,-138.426 91.1792,-110.347 93.1935,-100.655 100.298,-72 102.688,-62.3569 107.19,-52.5353 111.896,-44.0093"/>
<polygon fill="#ebc72d" stroke="#ebc72d" points="114.943,-45.7311 116.992,-35.3361 108.908,-42.185 114.943,-45.7311"/>
</g>
</g>
</svg>
