<?xml version="1.0" encoding="UTF-8" standalone="no"?>
<!DOCTYPE svg PUBLIC "-//W3C//DTD SVG 1.1//EN"
 "http://www.w3.org/Graphics/SVG/1.1/DTD/svg11.dtd">
<!-- Generated by graphviz version 2.38.0 (20140413.2041)
 -->
<!-- Title: test Pages: 1 -->
<svg width="360pt" height="393pt"
 viewBox="0.00 0.00 359.53 392.85" xmlns="http://www.w3.org/2000/svg" xmlns:xlink="http://www.w3.org/1999/xlink">
<g id="graph0" class="graph" transform="scale(1 1) rotate(0) translate(4 388.853)">
<title>test</title>
<polygon fill="#151515" stroke="none" points="-4,4 -4,-388.853 355.526,-388.853 355.526,4 -4,4"/>
<!-- farm -->
<g id="node1" class="node"><title>farm</title>
<g id="a_node1"><a xlink:href="persian_farm_full.html" xlink:title="Farm">
<polygon fill="none" stroke="red" points="99.2341,-300.415 62.3237,-312.853 25.4133,-300.415 25.4478,-280.291 99.1996,-280.291 99.2341,-300.415"/>
<text text-anchor="middle" x="62.3237" y="-291.153" font-family="Times,serif" font-size="14.00" fill="#ebc72d">Farm</text>
</a>
</g>
</g>
<!-- snake_basket -->
<g id="node4" class="node"><title>snake_basket</title>
<g id="a_node4"><a xlink:href="persian_snake_basket_full.html" xlink:title="Snake\nBasket">
<polygon fill="none" stroke="red" points="92.4718,-217.969 46.3237,-241.067 0.175633,-217.969 0.218707,-180.596 92.4287,-180.596 92.4718,-217.969"/>
<text text-anchor="middle" x="46.3237" y="-211.44" font-family="Times,serif" font-size="14.00" fill="#ebc72d">Snake</text>
<text text-anchor="middle" x="46.3237" y="-196.44" font-family="Times,serif" font-size="14.00" fill="#ebc72d">Basket</text>
</a>
</g>
</g>
<!-- farm&#45;&gt;snake_basket -->
<g id="edge2" class="edge"><title>farm&#45;&gt;snake_basket</title>
<path fill="none" stroke="#ebc72d" stroke-dasharray="1,5" d="M59.753,-280.162C58.1269,-271.502 55.9342,-259.824 53.7925,-248.417"/>
<polygon fill="#ebc72d" stroke="#ebc72d" points="57.2244,-247.728 51.939,-238.546 50.3446,-249.02 57.2244,-247.728"/>
</g>
<!-- blacksmith -->
<g id="node2" class="node"><title>blacksmith</title>
<g id="a_node2"><a xlink:href="persian_blacksmith_full.html" xlink:title="Blacksmith">
<polygon fill="none" stroke="red" points="237.757,-213.202 174.324,-225.64 110.891,-213.202 110.95,-193.077 237.697,-193.077 237.757,-213.202"/>
<text text-anchor="middle" x="174.324" y="-203.94" font-family="Times,serif" font-size="14.00" fill="#ebc72d">Blacksmith</text>
</a>
</g>
</g>
<!-- elephant_cage -->
<g id="node8" class="node"><title>elephant_cage</title>
<g id="a_node8"><a xlink:href="persian_elephant_cage_full.html" xlink:title="Elephant\nCage">
<polygon fill="none" stroke="red" points="230.948,-115.543 174.324,-138.641 117.699,-115.543 117.752,-78.1695 230.896,-78.1695 230.948,-115.543"/>
<text text-anchor="middle" x="174.324" y="-109.013" font-family="Times,serif" font-size="14.00" fill="#ebc72d">Elephant</text>
<text text-anchor="middle" x="174.324" y="-94.0132" font-family="Times,serif" font-size="14.00" fill="#ebc72d">Cage</text>
</a>
</g>
</g>
<!-- blacksmith&#45;&gt;elephant_cage -->
<g id="edge1" class="edge"><title>blacksmith&#45;&gt;elephant_cage</title>
<path fill="none" stroke="#ebc72d" stroke-dasharray="1,5" d="M174.324,-192.676C174.324,-181.269 174.324,-164.519 174.324,-148.792"/>
<polygon fill="#ebc72d" stroke="#ebc72d" points="177.824,-148.671 174.324,-138.671 170.824,-148.671 177.824,-148.671"/>
</g>
<!-- palace -->
<g id="node3" class="node"><title>palace</title>
<g id="a_node3"><a xlink:href="persian_palace_full.html" xlink:title="Palace">
<polygon fill="none" stroke="red" points="159.876,-372.415 118.324,-384.853 76.7717,-372.415 76.8105,-352.291 159.837,-352.291 159.876,-372.415"/>
<text text-anchor="middle" x="118.324" y="-363.153" font-family="Times,serif" font-size="14.00" fill="#ebc72d">Palace</text>
</a>
</g>
</g>
<!-- palace&#45;&gt;farm -->
<g id="edge6" class="edge"><title>palace&#45;&gt;farm</title>
<path fill="none" stroke="#ebc72d" stroke-dasharray="1,5" d="M107.26,-352.023C99.4365,-342.244 88.7876,-328.933 79.8198,-317.723"/>
<polygon fill="#ebc72d" stroke="#ebc72d" points="82.3445,-315.276 73.3645,-309.654 76.8785,-319.649 82.3445,-315.276"/>
</g>
<!-- house -->
<g id="node9" class="node"><title>house</title>
<g id="a_node9"><a xlink:href="persian_house_full.html" xlink:title="House">
<polygon fill="none" stroke="red" points="215.268,-300.415 174.324,-312.853 133.38,-300.415 133.418,-280.291 215.23,-280.291 215.268,-300.415"/>
<text text-anchor="middle" x="174.324" y="-291.153" font-family="Times,serif" font-size="14.00" fill="#ebc72d">House</text>
</a>
</g>
</g>
<!-- palace&#45;&gt;house -->
<g id="edge7" class="edge"><title>palace&#45;&gt;house</title>
<path fill="none" stroke="#ebc72d" stroke-dasharray="1,5" d="M129.387,-352.023C137.211,-342.244 147.86,-328.933 156.828,-317.723"/>
<polygon fill="#ebc72d" stroke="#ebc72d" points="159.769,-319.649 163.283,-309.654 154.303,-315.276 159.769,-319.649"/>
</g>
<!-- tent -->
<g id="node5" class="node"><title>tent</title>
<g id="a_node5"><a xlink:href="persian_tent_full.html" xlink:title="Tent">
<polygon fill="none" stroke="red" points="336.2,-110.776 303.324,-123.213 270.447,-110.776 270.478,-90.6509 336.17,-90.6509 336.2,-110.776"/>
<text text-anchor="middle" x="303.324" y="-101.513" font-family="Times,serif" font-size="14.00" fill="#ebc72d">Tent</text>
</a>
</g>
</g>
<!-- minaret -->
<g id="node6" class="node"><title>minaret</title>
<g id="a_node6"><a xlink:href="persian_minaret_full.html" xlink:title="Minaret">
<polygon fill="none" stroke="red" points="351.729,-23.5623 303.324,-36 254.918,-23.5623 254.963,-3.43769 351.684,-3.43769 351.729,-23.5623"/>
<text text-anchor="middle" x="303.324" y="-14.3" font-family="Times,serif" font-size="14.00" fill="#ebc72d">Minaret</text>
</a>
</g>
</g>
<!-- tent&#45;&gt;minaret -->
<g id="edge9" class="edge"><title>tent&#45;&gt;minaret</title>
<path fill="none" stroke="#ebc72d" stroke-dasharray="1,5" d="M303.324,-90.5222C303.324,-78.6349 303.324,-61.0617 303.324,-46.3096"/>
<polygon fill="#ebc72d" stroke="#ebc72d" points="306.824,-46.188 303.324,-36.1881 299.824,-46.1881 306.824,-46.188"/>
</g>
<!-- temple -->
<g id="node7" class="node"><title>temple</title>
<g id="a_node7"><a xlink:href="persian_temple_full.html" xlink:title="Temple">
<polygon fill="none" stroke="red" points="350.622,-213.202 303.324,-225.64 256.025,-213.202 256.07,-193.077 350.578,-193.077 350.622,-213.202"/>
<text text-anchor="middle" x="303.324" y="-203.94" font-family="Times,serif" font-size="14.00" fill="#ebc72d">Temple</text>
</a>
</g>
</g>
<!-- temple&#45;&gt;tent -->
<g id="edge8" class="edge"><title>temple&#45;&gt;tent</title>
<path fill="none" stroke="#ebc72d" stroke-dasharray="1,5" d="M303.324,-192.676C303.324,-177.467 303.324,-152.759 303.324,-133.642"/>
<polygon fill="#ebc72d" stroke="#ebc72d" points="306.824,-133.42 303.324,-123.42 299.824,-133.42 306.824,-133.42"/>
</g>
<!-- house&#45;&gt;blacksmith -->
<g id="edge4" class="edge"><title>house&#45;&gt;blacksmith</title>
<path fill="none" stroke="#ebc72d" stroke-dasharray="1,5" d="M174.324,-280.162C174.324,-268.275 174.324,-250.701 174.324,-235.949"/>
<polygon fill="#ebc72d" stroke="#ebc72d" points="177.824,-235.828 174.324,-225.828 170.824,-235.828 177.824,-235.828"/>
</g>
<!-- house&#45;&gt;temple -->
<g id="edge5" class="edge"><title>house&#45;&gt;temple</title>
<path fill="none" stroke="#ebc72d" stroke-dasharray="1,5" d="M195.05,-280.162C217.124,-265.58 252.149,-242.444 276.357,-226.453"/>
<polygon fill="#ebc72d" stroke="#ebc72d" points="278.328,-229.346 284.742,-220.914 274.469,-223.505 278.328,-229.346"/>
</g>
</g>
</svg>
