<?xml version="1.0" encoding="UTF-8" standalone="no"?>
<!DOCTYPE svg PUBLIC "-//W3C//DTD SVG 1.1//EN"
 "http://www.w3.org/Graphics/SVG/1.1/DTD/svg11.dtd">
<!-- Generated by graphviz version 2.38.0 (20140413.2041)
 -->
<!-- Title: test Pages: 1 -->
<svg width="934pt" height="339pt"
 viewBox="0.00 0.00 934.02 338.59" xmlns="http://www.w3.org/2000/svg" xmlns:xlink="http://www.w3.org/1999/xlink">
<g id="graph0" class="graph" transform="scale(1 1) rotate(0) translate(4 334.593)">
<title>test</title>
<polygon fill="#151515" stroke="none" points="-4,4 -4,-334.593 930.022,-334.593 930.022,4 -4,4"/>
<!-- farm -->
<g id="node1" class="node"><title>farm</title>
<g id="a_node1"><a xlink:href="persian_farm_full.html" xlink:title="Farm">
<polygon fill="none" stroke="red" points="175.686,-230.942 138.775,-243.38 101.865,-230.942 101.899,-210.817 175.651,-210.817 175.686,-230.942"/>
<text text-anchor="middle" x="138.775" y="-221.68" font-family="Times,serif" font-size="14.00" fill="#ebc72d">Farm</text>
</a>
</g>
</g>
<!-- snake_basket -->
<g id="node7" class="node"><title>snake_basket</title>
<g id="a_node7"><a xlink:href="persian_snake_basket_full.html" xlink:title="Snake\nBasket">
<polygon fill="none" stroke="red" points="159.923,-43.543 113.775,-66.641 67.6273,-43.543 67.6704,-6.16955 159.88,-6.16955 159.923,-43.543"/>
<text text-anchor="middle" x="113.775" y="-37.0132" font-family="Times,serif" font-size="14.00" fill="#ebc72d">Snake</text>
<text text-anchor="middle" x="113.775" y="-22.0132" font-family="Times,serif" font-size="14.00" fill="#ebc72d">Basket</text>
</a>
</g>
</g>
<!-- farm&#45;&gt;snake_basket -->
<g id="edge4" class="edge"><title>farm&#45;&gt;snake_basket</title>
<path fill="none" stroke="#ebc72d" stroke-dasharray="1,5" d="M118.468,-210.762C96.1225,-195.282 62.4691,-170.332 55.7754,-156.167 45.571,-134.572 47.5333,-124.844 55.7754,-102.426 61.3106,-87.3715 71.8069,-73.3705 82.3655,-62.0198"/>
<polygon fill="#ebc72d" stroke="#ebc72d" points="85.1304,-64.1988 89.6251,-54.6046 80.1284,-59.3018 85.1304,-64.1988"/>
</g>
<!-- sheep -->
<g id="node8" class="node"><title>sheep</title>
<g id="a_node8"><a xlink:href="persian_sheep_full.html" xlink:title="Sheep">
<ellipse fill="none" stroke="magenta" cx="96.7754" cy="-129.296" rx="32.4942" ry="18"/>
<text text-anchor="middle" x="96.7754" y="-125.596" font-family="Times,serif" font-size="14.00" fill="#ebc72d">Sheep</text>
</a>
</g>
</g>
<!-- farm&#45;&gt;sheep -->
<g id="edge3" class="edge"><title>farm&#45;&gt;sheep</title>
<path fill="none" stroke="#ebc72d" d="M132.578,-210.497C126.225,-196.265 116.193,-173.794 108.363,-156.253"/>
<polygon fill="#ebc72d" stroke="#ebc72d" points="111.549,-154.804 104.277,-147.1 105.157,-157.658 111.549,-154.804"/>
</g>
<!-- blacksmith -->
<g id="node2" class="node"><title>blacksmith</title>
<g id="a_node2"><a xlink:href="persian_blacksmith_full.html" xlink:title="Blacksmith">
<polygon fill="none" stroke="red" points="427.208,-230.942 363.775,-243.38 300.342,-230.942 300.402,-210.817 427.149,-210.817 427.208,-230.942"/>
<text text-anchor="middle" x="363.775" y="-221.68" font-family="Times,serif" font-size="14.00" fill="#ebc72d">Blacksmith</text>
</a>
</g>
</g>
<!-- swordman -->
<g id="node9" class="node"><title>swordman</title>
<g id="a_node9"><a xlink:href="persian_swordman_full.html" xlink:title="Swordman">
<ellipse fill="none" stroke="magenta" cx="477.775" cy="-129.296" rx="49.2915" ry="18"/>
<text text-anchor="middle" x="477.775" y="-125.596" font-family="Times,serif" font-size="14.00" fill="#ebc72d">Swordman</text>
</a>
</g>
</g>
<!-- blacksmith&#45;&gt;swordman -->
<g id="edge1" class="edge"><title>blacksmith&#45;&gt;swordman</title>
<path fill="none" stroke="#ebc72d" stroke-dasharray="1,5" d="M380.596,-210.497C399.049,-195.268 428.933,-170.606 450.696,-152.645"/>
<polygon fill="#ebc72d" stroke="#ebc72d" points="453.113,-155.188 458.598,-146.123 448.657,-149.789 453.113,-155.188"/>
</g>
<!-- magician -->
<g id="node3" class="node"><title>magician</title>
<g id="a_node3"><a xlink:href="persian_magician_full.html" xlink:title="Magician">
<ellipse fill="none" stroke="magenta" cx="191.775" cy="-129.296" rx="44.393" ry="18"/>
<text text-anchor="middle" x="191.775" y="-125.596" font-family="Times,serif" font-size="14.00" fill="#ebc72d">Magician</text>
</a>
</g>
</g>
<!-- magician&#45;&gt;snake_basket -->
<g id="edge7" class="edge"><title>magician&#45;&gt;snake_basket</title>
<path fill="none" stroke="#ebc72d" stroke-width="2" d="M178.189,-111.908C167.559,-99.0863 152.467,-80.8826 139.563,-65.3183"/>
<polygon fill="#ebc72d" stroke="#ebc72d" stroke-width="2" points="142.127,-62.9268 133.05,-57.4622 136.738,-67.3945 142.127,-62.9268"/>
</g>
<!-- palace -->
<g id="node4" class="node"><title>palace</title>
<g id="a_node4"><a xlink:href="persian_palace_full.html" xlink:title="Palace">
<polygon fill="none" stroke="red" points="83.3274,-230.942 41.7754,-243.38 0.223408,-230.942 0.262192,-210.817 83.2886,-210.817 83.3274,-230.942"/>
<text text-anchor="middle" x="41.7754" y="-221.68" font-family="Times,serif" font-size="14.00" fill="#ebc72d">Palace</text>
</a>
</g>
</g>
<!-- worker -->
<g id="node5" class="node"><title>worker</title>
<g id="a_node5"><a xlink:href="persian_worker_full.html" xlink:title="Worker">
<ellipse fill="none" stroke="magenta" cx="428.775" cy="-312.593" rx="38.1938" ry="18"/>
<text text-anchor="middle" x="428.775" y="-308.893" font-family="Times,serif" font-size="14.00" fill="#ebc72d">Worker</text>
</a>
</g>
</g>
<!-- worker&#45;&gt;farm -->
<g id="edge17" class="edge"><title>worker&#45;&gt;farm</title>
<path fill="none" stroke="#ebc72d" stroke-width="2" d="M393.316,-305.376C349.131,-297.111 271.657,-280.909 207.775,-258.593 194.284,-253.88 179.883,-247.403 167.746,-241.493"/>
<polygon fill="#ebc72d" stroke="#ebc72d" stroke-width="2" points="169.071,-238.242 158.559,-236.918 165.951,-244.509 169.071,-238.242"/>
</g>
<!-- worker&#45;&gt;blacksmith -->
<g id="edge15" class="edge"><title>worker&#45;&gt;blacksmith</title>
<path fill="none" stroke="#ebc72d" stroke-width="2" d="M416.243,-295.163C406.313,-282.145 392.322,-263.804 381.285,-249.335"/>
<polygon fill="#ebc72d" stroke="#ebc72d" stroke-width="2" points="384.029,-247.161 375.181,-241.332 378.463,-251.406 384.029,-247.161"/>
</g>
<!-- worker&#45;&gt;palace -->
<g id="edge20" class="edge"><title>worker&#45;&gt;palace</title>
<path fill="none" stroke="#ebc72d" stroke-width="2" d="M380.245,-310.071C313.488,-306.623 190.49,-295.362 92.7754,-258.593 83.5619,-255.126 74.2385,-249.862 66.128,-244.588"/>
<polygon fill="#ebc72d" stroke="#ebc72d" stroke-width="2" points="380.308,-313.578 390.464,-310.56 380.643,-306.586 380.308,-313.578"/>
<polygon fill="#ebc72d" stroke="#ebc72d" stroke-width="2" points="68.0979,-241.695 57.8659,-238.946 64.1502,-247.476 68.0979,-241.695"/>
</g>
<!-- tent -->
<g id="node12" class="node"><title>tent</title>
<g id="a_node12"><a xlink:href="persian_tent_full.html" xlink:title="Tent">
<polygon fill="none" stroke="red" points="282.652,-230.942 249.775,-243.38 216.899,-230.942 216.929,-210.817 282.621,-210.817 282.652,-230.942"/>
<text text-anchor="middle" x="249.775" y="-221.68" font-family="Times,serif" font-size="14.00" fill="#ebc72d">Tent</text>
</a>
</g>
</g>
<!-- worker&#45;&gt;tent -->
<g id="edge22" class="edge"><title>worker&#45;&gt;tent</title>
<path fill="none" stroke="#ebc72d" stroke-width="2" d="M397.168,-302.215C368.64,-293.097 326.019,-277.824 291.775,-258.593 284.835,-254.695 277.782,-249.747 271.488,-244.905"/>
<polygon fill="#ebc72d" stroke="#ebc72d" stroke-width="2" points="273.452,-241.994 263.457,-238.478 269.078,-247.459 273.452,-241.994"/>
</g>
<!-- minaret -->
<g id="node13" class="node"><title>minaret</title>
<g id="a_node13"><a xlink:href="persian_minaret_full.html" xlink:title="Minaret">
<polygon fill="none" stroke="red" points="542.181,-230.942 493.775,-243.38 445.37,-230.942 445.415,-210.817 542.136,-210.817 542.181,-230.942"/>
<text text-anchor="middle" x="493.775" y="-221.68" font-family="Times,serif" font-size="14.00" fill="#ebc72d">Minaret</text>
</a>
</g>
</g>
<!-- worker&#45;&gt;minaret -->
<g id="edge19" class="edge"><title>worker&#45;&gt;minaret</title>
<path fill="none" stroke="#ebc72d" stroke-width="2" d="M441.308,-295.163C451.361,-281.983 465.577,-263.347 476.675,-248.797"/>
<polygon fill="#ebc72d" stroke="#ebc72d" stroke-width="2" points="479.513,-250.848 482.795,-240.775 473.947,-246.603 479.513,-250.848"/>
</g>
<!-- temple -->
<g id="node14" class="node"><title>temple</title>
<g id="a_node14"><a xlink:href="persian_temple_full.html" xlink:title="Temple">
<polygon fill="none" stroke="red" points="655.074,-230.942 607.775,-243.38 560.477,-230.942 560.521,-210.817 655.029,-210.817 655.074,-230.942"/>
<text text-anchor="middle" x="607.775" y="-221.68" font-family="Times,serif" font-size="14.00" fill="#ebc72d">Temple</text>
</a>
</g>
</g>
<!-- worker&#45;&gt;temple -->
<g id="edge21" class="edge"><title>worker&#45;&gt;temple</title>
<path fill="none" stroke="#ebc72d" stroke-width="2" d="M457.264,-300.207C482.237,-289.993 519.356,-274.242 550.775,-258.593 560.139,-253.929 570.137,-248.455 579.103,-243.357"/>
<polygon fill="#ebc72d" stroke="#ebc72d" stroke-width="2" points="581.085,-246.254 588.003,-238.229 577.591,-240.189 581.085,-246.254"/>
</g>
<!-- elephant_cage -->
<g id="node16" class="node"><title>elephant_cage</title>
<g id="a_node16"><a xlink:href="persian_elephant_cage_full.html" xlink:title="Elephant\nCage">
<polygon fill="none" stroke="red" points="922.4,-235.71 865.775,-258.808 809.151,-235.71 809.203,-198.336 922.347,-198.336 922.4,-235.71"/>
<text text-anchor="middle" x="865.775" y="-229.18" font-family="Times,serif" font-size="14.00" fill="#ebc72d">Elephant</text>
<text text-anchor="middle" x="865.775" y="-214.18" font-family="Times,serif" font-size="14.00" fill="#ebc72d">Cage</text>
</a>
</g>
</g>
<!-- worker&#45;&gt;elephant_cage -->
<g id="edge16" class="edge"><title>worker&#45;&gt;elephant_cage</title>
<path fill="none" stroke="#ebc72d" stroke-width="2" d="M465.807,-307.564C527.941,-300.397 656.886,-283.779 763.775,-258.593 780.091,-254.749 797.583,-249.61 813.392,-244.568"/>
<polygon fill="#ebc72d" stroke="#ebc72d" stroke-width="2" points="814.56,-247.869 822.992,-241.454 812.4,-241.211 814.56,-247.869"/>
</g>
<!-- house -->
<g id="node18" class="node"><title>house</title>
<g id="a_node18"><a xlink:href="persian_house_full.html" xlink:title="House">
<polygon fill="none" stroke="red" points="754.719,-230.942 713.775,-243.38 672.831,-230.942 672.87,-210.817 754.681,-210.817 754.719,-230.942"/>
<text text-anchor="middle" x="713.775" y="-221.68" font-family="Times,serif" font-size="14.00" fill="#ebc72d">House</text>
</a>
</g>
</g>
<!-- worker&#45;&gt;house -->
<g id="edge18" class="edge"><title>worker&#45;&gt;house</title>
<path fill="none" stroke="#ebc72d" stroke-width="2" d="M465.823,-307.316C513.189,-300.941 597.051,-286.574 663.775,-258.593 672.632,-254.879 681.652,-249.612 689.548,-244.411"/>
<polygon fill="#ebc72d" stroke="#ebc72d" stroke-width="2" points="691.663,-247.205 697.917,-238.653 687.695,-241.438 691.663,-247.205"/>
</g>
<!-- princess -->
<g id="node6" class="node"><title>princess</title>
<g id="a_node6"><a xlink:href="persian_princess_full.html" xlink:title="Princess">
<ellipse fill="none" stroke="magenta" cx="585.775" cy="-129.296" rx="40.0939" ry="18"/>
<text text-anchor="middle" x="585.775" y="-125.596" font-family="Times,serif" font-size="14.00" fill="#ebc72d">Princess</text>
</a>
</g>
</g>
<!-- flying_carpet -->
<g id="node10" class="node"><title>flying_carpet</title>
<g id="a_node10"><a xlink:href="persian_flying_carpet_full.html" xlink:title="Flying\nCarpet">
<ellipse fill="none" stroke="magenta" cx="291.775" cy="-129.296" rx="37.4533" ry="26.7407"/>
<text text-anchor="middle" x="291.775" y="-133.096" font-family="Times,serif" font-size="14.00" fill="#ebc72d">Flying</text>
<text text-anchor="middle" x="291.775" y="-118.096" font-family="Times,serif" font-size="14.00" fill="#ebc72d">Carpet</text>
</a>
</g>
</g>
<!-- stickfighter -->
<g id="node11" class="node"><title>stickfighter</title>
<g id="a_node11"><a xlink:href="persian_stickfighter_full.html" xlink:title="Stickfighter">
<ellipse fill="none" stroke="magenta" cx="695.775" cy="-129.296" rx="51.9908" ry="18"/>
<text text-anchor="middle" x="695.775" y="-125.596" font-family="Times,serif" font-size="14.00" fill="#ebc72d">Stickfighter</text>
</a>
</g>
</g>
<!-- tent&#45;&gt;magician -->
<g id="edge14" class="edge"><title>tent&#45;&gt;magician</title>
<path fill="none" stroke="#ebc72d" d="M241.217,-210.497C232.362,-196.133 218.333,-173.377 207.478,-155.767"/>
<polygon fill="#ebc72d" stroke="#ebc72d" points="210.361,-153.775 202.134,-147.1 204.403,-157.449 210.361,-153.775"/>
</g>
<!-- tent&#45;&gt;flying_carpet -->
<g id="edge12" class="edge"><title>tent&#45;&gt;flying_carpet</title>
<path fill="none" stroke="#ebc72d" d="M255.973,-210.497C261.339,-198.476 269.33,-180.576 276.402,-164.735"/>
<polygon fill="#ebc72d" stroke="#ebc72d" points="279.774,-165.766 280.655,-155.208 273.382,-162.913 279.774,-165.766"/>
</g>
<!-- genie -->
<g id="node15" class="node"><title>genie</title>
<g id="a_node15"><a xlink:href="persian_genie_full.html" xlink:title="Genie">
<ellipse fill="none" stroke="magenta" cx="378.775" cy="-129.296" rx="31.6951" ry="18"/>
<text text-anchor="middle" x="378.775" y="-125.596" font-family="Times,serif" font-size="14.00" fill="#ebc72d">Genie</text>
</a>
</g>
</g>
<!-- tent&#45;&gt;genie -->
<g id="edge13" class="edge"><title>tent&#45;&gt;genie</title>
<path fill="none" stroke="#ebc72d" d="M267.242,-210.759C274.747,-204.965 283.645,-198.173 291.775,-192.167 311.326,-177.725 333.676,-161.843 350.828,-149.787"/>
<polygon fill="#ebc72d" stroke="#ebc72d" points="353.103,-152.466 359.281,-143.859 349.084,-146.735 353.103,-152.466"/>
</g>
<!-- temple&#45;&gt;princess -->
<g id="edge9" class="edge"><title>temple&#45;&gt;princess</title>
<path fill="none" stroke="#ebc72d" d="M604.529,-210.497C601.283,-196.613 596.203,-174.888 592.148,-157.549"/>
<polygon fill="#ebc72d" stroke="#ebc72d" points="595.467,-156.37 589.782,-147.43 588.651,-157.964 595.467,-156.37"/>
</g>
<!-- temple&#45;&gt;swordman -->
<g id="edge11" class="edge"><title>temple&#45;&gt;swordman</title>
<path fill="none" stroke="#ebc72d" d="M588.872,-210.699C567.581,-195.29 532.693,-170.042 507.693,-151.948"/>
<polygon fill="#ebc72d" stroke="#ebc72d" points="509.453,-148.902 499.3,-145.874 505.349,-154.573 509.453,-148.902"/>
</g>
<!-- temple&#45;&gt;stickfighter -->
<g id="edge10" class="edge"><title>temple&#45;&gt;stickfighter</title>
<path fill="none" stroke="#ebc72d" stroke-dasharray="1,5" d="M620.76,-210.497C634.525,-195.781 656.529,-172.256 673.154,-154.482"/>
<polygon fill="#ebc72d" stroke="#ebc72d" points="676.09,-156.466 680.365,-146.772 670.978,-151.684 676.09,-156.466"/>
</g>
<!-- elephant -->
<g id="node19" class="node"><title>elephant</title>
<g id="a_node19"><a xlink:href="persian_elephant_full.html" xlink:title="Elephant">
<ellipse fill="none" stroke="magenta" cx="883.775" cy="-129.296" rx="42.4939" ry="18"/>
<text text-anchor="middle" x="883.775" y="-125.596" font-family="Times,serif" font-size="14.00" fill="#ebc72d">Elephant</text>
</a>
</g>
</g>
<!-- elephant_cage&#45;&gt;elephant -->
<g id="edge2" class="edge"><title>elephant_cage&#45;&gt;elephant</title>
<path fill="none" stroke="#ebc72d" d="M870.789,-198.172C873.211,-185.514 876.116,-170.333 878.563,-157.541"/>
<polygon fill="#ebc72d" stroke="#ebc72d" points="882.049,-157.945 880.491,-147.466 875.174,-156.63 882.049,-157.945"/>
</g>
<!-- fakir -->
<g id="node17" class="node"><title>fakir</title>
<g id="a_node17"><a xlink:href="persian_fakir_full.html" xlink:title="Fakir">
<ellipse fill="none" stroke="magenta" cx="794.775" cy="-129.296" rx="29.4969" ry="18"/>
<text text-anchor="middle" x="794.775" y="-125.596" font-family="Times,serif" font-size="14.00" fill="#ebc72d">Fakir</text>
</a>
</g>
</g>
<!-- house&#45;&gt;stickfighter -->
<g id="edge6" class="edge"><title>house&#45;&gt;stickfighter</title>
<path fill="none" stroke="#ebc72d" d="M711.119,-210.497C708.463,-196.613 704.307,-174.888 700.989,-157.549"/>
<polygon fill="#ebc72d" stroke="#ebc72d" points="704.37,-156.594 699.053,-147.43 697.495,-157.909 704.37,-156.594"/>
</g>
<!-- house&#45;&gt;fakir -->
<g id="edge5" class="edge"><title>house&#45;&gt;fakir</title>
<path fill="none" stroke="#ebc72d" d="M725.727,-210.497C738.702,-195.427 759.632,-171.117 775.051,-153.207"/>
<polygon fill="#ebc72d" stroke="#ebc72d" points="777.827,-155.346 781.699,-145.484 772.523,-150.779 777.827,-155.346"/>
</g>
</g>
</svg>
