<?xml version="1.0" encoding="UTF-8" standalone="no"?>
<!DOCTYPE svg PUBLIC "-//W3C//DTD SVG 1.1//EN"
 "http://www.w3.org/Graphics/SVG/1.1/DTD/svg11.dtd">
<!-- Generated by graphviz version 2.38.0 (20140413.2041)
 -->
<!-- Title: test Pages: 1 -->
<svg width="1138pt" height="604pt"
 viewBox="0.00 0.00 1138.08 604.17" xmlns="http://www.w3.org/2000/svg" xmlns:xlink="http://www.w3.org/1999/xlink">
<g id="graph0" class="graph" transform="scale(1 1) rotate(0) translate(4 600.167)">
<title>test</title>
<polygon fill="#151515" stroke="none" points="-4,4 -4,-600.167 1134.08,-600.167 1134.08,4 -4,4"/>
<!-- farm -->
<g id="node1" class="node"><title>farm</title>
<g id="a_node1"><a xlink:href="persian_farm_full.html" xlink:title="Farm">
<polygon fill="none" stroke="red" points="341.998,-511.729 305.087,-524.167 268.177,-511.729 268.211,-491.604 341.963,-491.604 341.998,-511.729"/>
<text text-anchor="middle" x="305.087" y="-502.467" font-family="Times,serif" font-size="14.00" fill="#ebc72d">Farm</text>
</a>
</g>
</g>
<!-- sheep -->
<g id="node8" class="node"><title>sheep</title>
<g id="a_node8"><a xlink:href="persian_sheep_full.html" xlink:title="Sheep">
<ellipse fill="none" stroke="magenta" cx="227.087" cy="-434.167" rx="32.4942" ry="18"/>
<text text-anchor="middle" x="227.087" y="-430.467" font-family="Times,serif" font-size="14.00" fill="#ebc72d">Sheep</text>
</a>
</g>
</g>
<!-- farm&#45;&gt;sheep -->
<g id="edge10" class="edge"><title>farm&#45;&gt;sheep</title>
<path fill="none" stroke="#ebc72d" d="M289.677,-491.337C278.647,-481.438 263.585,-467.92 251,-456.627"/>
<polygon fill="#ebc72d" stroke="#ebc72d" points="253.323,-454.009 243.543,-449.934 248.647,-459.218 253.323,-454.009"/>
</g>
<!-- corn_and_wicker -->
<g id="node23" class="node"><title>corn_and_wicker</title>
<g id="a_node23"><a xlink:href="persian_corn_and_wicker_full.html" xlink:title="Corn\nAnd Wicker">
<polygon fill="none" stroke="green" points="174.262,-380.167 35.5866,-380.167 -0.0873529,-304.167 138.588,-304.167 174.262,-380.167"/>
<text text-anchor="middle" x="87.0873" y="-345.967" font-family="Times,serif" font-size="14.00" fill="#ebc72d">Corn</text>
<text text-anchor="middle" x="87.0873" y="-330.967" font-family="Times,serif" font-size="14.00" fill="#ebc72d">And Wicker</text>
</a>
</g>
</g>
<!-- farm&#45;&gt;corn_and_wicker -->
<g id="edge9" class="edge"><title>farm&#45;&gt;corn_and_wicker</title>
<path fill="none" stroke="#ebc72d" d="M270.187,-491.491C240.395,-479.479 200.197,-462.373 186.087,-452.167 161.568,-434.431 138.556,-409.79 120.9,-388.424"/>
<polygon fill="#ebc72d" stroke="#ebc72d" points="123.422,-385.977 114.404,-380.416 117.986,-390.387 123.422,-385.977"/>
</g>
<!-- blacksmith -->
<g id="node2" class="node"><title>blacksmith</title>
<g id="a_node2"><a xlink:href="persian_blacksmith_full.html" xlink:title="Blacksmith">
<polygon fill="none" stroke="red" points="556.52,-439.729 493.087,-452.167 429.654,-439.729 429.714,-419.604 556.461,-419.604 556.52,-439.729"/>
<text text-anchor="middle" x="493.087" y="-430.467" font-family="Times,serif" font-size="14.00" fill="#ebc72d">Blacksmith</text>
</a>
</g>
</g>
<!-- swordman -->
<g id="node9" class="node"><title>swordman</title>
<g id="a_node9"><a xlink:href="persian_swordman_full.html" xlink:title="Swordman">
<ellipse fill="none" stroke="magenta" cx="777.087" cy="-342.167" rx="49.2915" ry="18"/>
<text text-anchor="middle" x="777.087" y="-338.467" font-family="Times,serif" font-size="14.00" fill="#ebc72d">Swordman</text>
</a>
</g>
</g>
<!-- blacksmith&#45;&gt;swordman -->
<g id="edge4" class="edge"><title>blacksmith&#45;&gt;swordman</title>
<path fill="none" stroke="#ebc72d" stroke-dasharray="1,5" d="M553.23,-419.588C617.523,-404.994 711.336,-383.436 719.087,-380.167 728.992,-375.989 739.101,-370.176 748.047,-364.394"/>
<polygon fill="#ebc72d" stroke="#ebc72d" points="750.202,-367.163 756.554,-358.683 746.3,-361.351 750.202,-367.163"/>
</g>
<!-- elephant_cage -->
<g id="node16" class="node"><title>elephant_cage</title>
<g id="a_node16"><a xlink:href="persian_elephant_cage_full.html" xlink:title="Elephant\nCage">
<polygon fill="none" stroke="red" points="343.712,-352.496 287.087,-375.594 230.462,-352.496 230.515,-315.123 343.659,-315.123 343.712,-352.496"/>
<text text-anchor="middle" x="287.087" y="-345.967" font-family="Times,serif" font-size="14.00" fill="#ebc72d">Elephant</text>
<text text-anchor="middle" x="287.087" y="-330.967" font-family="Times,serif" font-size="14.00" fill="#ebc72d">Cage</text>
</a>
</g>
</g>
<!-- blacksmith&#45;&gt;elephant_cage -->
<g id="edge1" class="edge"><title>blacksmith&#45;&gt;elephant_cage</title>
<path fill="none" stroke="#ebc72d" stroke-dasharray="1,5" d="M452.298,-419.536C424.01,-409.646 385.708,-395.382 353.087,-380.167 344.957,-376.374 336.467,-371.972 328.388,-367.555"/>
<polygon fill="#ebc72d" stroke="#ebc72d" points="329.922,-364.403 319.483,-362.594 326.515,-370.518 329.922,-364.403"/>
</g>
<!-- nails -->
<g id="node22" class="node"><title>nails</title>
<g id="a_node22"><a xlink:href="persian_nails_full.html" xlink:title="Nails">
<polygon fill="none" stroke="green" points="709.852,-360.167 641.823,-360.167 624.322,-324.167 692.352,-324.167 709.852,-360.167"/>
<text text-anchor="middle" x="667.087" y="-338.467" font-family="Times,serif" font-size="14.00" fill="#ebc72d">Nails</text>
</a>
</g>
</g>
<!-- blacksmith&#45;&gt;nails -->
<g id="edge2" class="edge"><title>blacksmith&#45;&gt;nails</title>
<path fill="none" stroke="#ebc72d" d="M530.436,-419.562C555.362,-409.887 588.5,-395.861 616.087,-380.167 623.174,-376.135 630.457,-371.315 637.221,-366.507"/>
<polygon fill="#ebc72d" stroke="#ebc72d" points="639.452,-369.212 645.458,-360.484 635.32,-363.561 639.452,-369.212"/>
</g>
<!-- weapons -->
<g id="node24" class="node"><title>weapons</title>
<g id="a_node24"><a xlink:href="persian_weapons_full.html" xlink:title="Weapons">
<polygon fill="none" stroke="green" points="491.688,-360.167 388.923,-360.167 362.487,-324.167 465.252,-324.167 491.688,-360.167"/>
<text text-anchor="middle" x="427.087" y="-338.467" font-family="Times,serif" font-size="14.00" fill="#ebc72d">Weapons</text>
</a>
</g>
</g>
<!-- blacksmith&#45;&gt;weapons -->
<g id="edge5" class="edge"><title>blacksmith&#45;&gt;weapons</title>
<path fill="none" stroke="#ebc72d" d="M483.063,-419.497C473.175,-406.014 457.823,-385.08 445.696,-368.542"/>
<polygon fill="#ebc72d" stroke="#ebc72d" points="448.431,-366.352 439.694,-360.358 442.786,-370.492 448.431,-366.352"/>
</g>
<!-- shield -->
<g id="node25" class="node"><title>shield</title>
<g id="a_node25"><a xlink:href="persian_shield_full.html" xlink:title="Shield">
<polygon fill="none" stroke="green" points="606.787,-360.167 529.316,-360.167 509.387,-324.167 586.858,-324.167 606.787,-360.167"/>
<text text-anchor="middle" x="558.087" y="-338.467" font-family="Times,serif" font-size="14.00" fill="#ebc72d">Shield</text>
</a>
</g>
</g>
<!-- blacksmith&#45;&gt;shield -->
<g id="edge3" class="edge"><title>blacksmith&#45;&gt;shield</title>
<path fill="none" stroke="#ebc72d" d="M502.959,-419.497C512.698,-406.014 527.817,-385.08 539.76,-368.542"/>
<polygon fill="#ebc72d" stroke="#ebc72d" points="542.654,-370.514 545.671,-360.358 536.979,-366.416 542.654,-370.514"/>
</g>
<!-- magician -->
<g id="node3" class="node"><title>magician</title>
<g id="a_node3"><a xlink:href="persian_magician_full.html" xlink:title="Magician">
<ellipse fill="none" stroke="magenta" cx="607.087" cy="-129.296" rx="44.393" ry="18"/>
<text text-anchor="middle" x="607.087" y="-125.596" font-family="Times,serif" font-size="14.00" fill="#ebc72d">Magician</text>
</a>
</g>
</g>
<!-- snake_basket -->
<g id="node7" class="node"><title>snake_basket</title>
<g id="a_node7"><a xlink:href="persian_snake_basket_full.html" xlink:title="Snake\nBasket">
<polygon fill="none" stroke="red" points="409.235,-43.543 363.087,-66.641 316.939,-43.543 316.982,-6.16955 409.192,-6.16955 409.235,-43.543"/>
<text text-anchor="middle" x="363.087" y="-37.0132" font-family="Times,serif" font-size="14.00" fill="#ebc72d">Snake</text>
<text text-anchor="middle" x="363.087" y="-22.0132" font-family="Times,serif" font-size="14.00" fill="#ebc72d">Basket</text>
</a>
</g>
</g>
<!-- magician&#45;&gt;snake_basket -->
<g id="edge17" class="edge"><title>magician&#45;&gt;snake_basket</title>
<path fill="none" stroke="#ebc72d" stroke-width="2" d="M576.184,-116.381C533.987,-100.11 458.007,-70.8132 409.1,-51.955"/>
<polygon fill="#ebc72d" stroke="#ebc72d" stroke-width="2" points="410.287,-48.6615 399.697,-48.3294 407.768,-55.1928 410.287,-48.6615"/>
</g>
<!-- palace -->
<g id="node4" class="node"><title>palace</title>
<g id="a_node4"><a xlink:href="persian_palace_full.html" xlink:title="Palace">
<polygon fill="none" stroke="red" points="249.639,-511.729 208.087,-524.167 166.535,-511.729 166.574,-491.604 249.6,-491.604 249.639,-511.729"/>
<text text-anchor="middle" x="208.087" y="-502.467" font-family="Times,serif" font-size="14.00" fill="#ebc72d">Palace</text>
</a>
</g>
</g>
<!-- worker -->
<g id="node5" class="node"><title>worker</title>
<g id="a_node5"><a xlink:href="persian_worker_full.html" xlink:title="Worker">
<ellipse fill="none" stroke="magenta" cx="460.087" cy="-578.167" rx="38.1938" ry="18"/>
<text text-anchor="middle" x="460.087" y="-574.467" font-family="Times,serif" font-size="14.00" fill="#ebc72d">Worker</text>
</a>
</g>
</g>
<!-- worker&#45;&gt;farm -->
<g id="edge31" class="edge"><title>worker&#45;&gt;farm</title>
<path fill="none" stroke="#ebc72d" stroke-width="2" d="M433.442,-565.133C406.497,-552.965 364.869,-534.165 336.373,-521.296"/>
<polygon fill="#ebc72d" stroke="#ebc72d" stroke-width="2" points="337.441,-517.938 326.887,-517.012 334.56,-524.317 337.441,-517.938"/>
</g>
<!-- worker&#45;&gt;blacksmith -->
<g id="edge29" class="edge"><title>worker&#45;&gt;blacksmith</title>
<path fill="none" stroke="#ebc72d" stroke-width="2" d="M538.087,-505.167C545.474,-487.379 532.964,-469.135 519.277,-455.733"/>
<polygon fill="#ebc72d" stroke="#ebc72d" stroke-width="2" points="521.425,-452.955 511.671,-448.819 516.716,-458.135 521.425,-452.955"/>
</g>
<!-- worker&#45;&gt;palace -->
<g id="edge34" class="edge"><title>worker&#45;&gt;palace</title>
<path fill="none" stroke="#ebc72d" stroke-width="2" d="M416.937,-566.638C376.083,-556.469 313.127,-540.28 259.087,-524.167 254.182,-522.704 249.038,-521.088 243.982,-519.451"/>
<polygon fill="#ebc72d" stroke="#ebc72d" stroke-width="2" points="416.28,-570.081 426.829,-569.089 417.964,-563.286 416.28,-570.081"/>
<polygon fill="#ebc72d" stroke="#ebc72d" stroke-width="2" points="245.048,-516.117 234.455,-516.313 242.858,-522.766 245.048,-516.117"/>
</g>
<!-- tent -->
<g id="node12" class="node"><title>tent</title>
<g id="a_node12"><a xlink:href="persian_tent_full.html" xlink:title="Tent">
<polygon fill="none" stroke="red" points="909.964,-347.729 877.087,-360.167 844.211,-347.729 844.241,-327.604 909.933,-327.604 909.964,-347.729"/>
<text text-anchor="middle" x="877.087" y="-338.467" font-family="Times,serif" font-size="14.00" fill="#ebc72d">Tent</text>
</a>
</g>
</g>
<!-- worker&#45;&gt;tent -->
<g id="edge36" class="edge"><title>worker&#45;&gt;tent</title>
<path fill="none" stroke="#ebc72d" stroke-width="2" d="M538.087,-505.167C593.012,-372.903 710.381,-450.584 835.087,-380.167 843.237,-375.565 851.199,-369.188 857.962,-363.024"/>
<polygon fill="#ebc72d" stroke="#ebc72d" stroke-width="2" points="860.489,-365.45 865.288,-356.004 855.646,-360.395 860.489,-365.45"/>
</g>
<!-- minaret -->
<g id="node13" class="node"><title>minaret</title>
<g id="a_node13"><a xlink:href="persian_minaret_full.html" xlink:title="Minaret">
<polygon fill="none" stroke="red" points="533.493,-235.729 485.087,-248.167 436.682,-235.729 436.727,-215.604 533.448,-215.604 533.493,-235.729"/>
<text text-anchor="middle" x="485.087" y="-226.467" font-family="Times,serif" font-size="14.00" fill="#ebc72d">Minaret</text>
</a>
</g>
</g>
<!-- worker&#45;&gt;minaret -->
<g id="edge33" class="edge"><title>worker&#45;&gt;minaret</title>
<path fill="none" stroke="#ebc72d" stroke-width="2" d="M482.671,-563.564C500.905,-551.265 525.526,-531.397 538.087,-507.167"/>
<path fill="none" stroke="#ebc72d" stroke-width="2" d="M538.087,-505.167C591.39,-402.35 375.013,-510.543 287.087,-435.167"/>
<path fill="none" stroke="#ebc72d" stroke-width="2" d="M287.087,-433.167C278.485,-425.792 276.814,-423.395 268.087,-416.167 247.824,-399.382 232.735,-403.76 221.087,-380.167 206.135,-349.879 200.632,-331.046 221.087,-304.167 234.382,-286.696 365.871,-256.444 438.115,-240.942"/>
<polygon fill="#ebc72d" stroke="#ebc72d" stroke-width="2" points="439.273,-244.274 448.323,-238.765 437.813,-237.428 439.273,-244.274"/>
</g>
<!-- temple -->
<g id="node14" class="node"><title>temple</title>
<g id="a_node14"><a xlink:href="persian_temple_full.html" xlink:title="Temple">
<polygon fill="none" stroke="red" points="824.385,-439.729 777.087,-452.167 729.789,-439.729 729.833,-419.604 824.341,-419.604 824.385,-439.729"/>
<text text-anchor="middle" x="777.087" y="-430.467" font-family="Times,serif" font-size="14.00" fill="#ebc72d">Temple</text>
</a>
</g>
</g>
<!-- worker&#45;&gt;temple -->
<g id="edge35" class="edge"><title>worker&#45;&gt;temple</title>
<path fill="none" stroke="#ebc72d" stroke-width="2" d="M538.087,-505.167C552.351,-470.818 655.389,-451.021 721.436,-441.731"/>
<polygon fill="#ebc72d" stroke="#ebc72d" stroke-width="2" points="722.265,-445.151 731.7,-440.33 721.318,-438.215 722.265,-445.151"/>
</g>
<!-- worker&#45;&gt;elephant_cage -->
<g id="edge30" class="edge"><title>worker&#45;&gt;elephant_cage</title>
<path fill="none" stroke="#ebc72d" stroke-width="2" d="M287.087,-433.167C272.774,-420.896 271.953,-400.2 275.085,-381.746"/>
<polygon fill="#ebc72d" stroke="#ebc72d" stroke-width="2" points="278.546,-382.298 277.172,-371.792 271.695,-380.862 278.546,-382.298"/>
</g>
<!-- house -->
<g id="node18" class="node"><title>house</title>
<g id="a_node18"><a xlink:href="persian_house_full.html" xlink:title="House">
<polygon fill="none" stroke="red" points="818.031,-511.729 777.087,-524.167 736.143,-511.729 736.181,-491.604 817.993,-491.604 818.031,-511.729"/>
<text text-anchor="middle" x="777.087" y="-502.467" font-family="Times,serif" font-size="14.00" fill="#ebc72d">House</text>
</a>
</g>
</g>
<!-- worker&#45;&gt;house -->
<g id="edge32" class="edge"><title>worker&#45;&gt;house</title>
<path fill="none" stroke="#ebc72d" stroke-width="2" d="M494.012,-569.675C552.11,-556.846 670.536,-530.695 734.245,-516.627"/>
<polygon fill="#ebc72d" stroke="#ebc72d" stroke-width="2" points="735.347,-519.968 744.357,-514.394 733.837,-513.133 735.347,-519.968"/>
</g>
<!-- princess -->
<g id="node6" class="node"><title>princess</title>
<g id="a_node6"><a xlink:href="persian_princess_full.html" xlink:title="Princess">
<ellipse fill="none" stroke="magenta" cx="968.087" cy="-342.167" rx="40.0939" ry="18"/>
<text text-anchor="middle" x="968.087" y="-338.467" font-family="Times,serif" font-size="14.00" fill="#ebc72d">Princess</text>
</a>
</g>
</g>
<!-- flying_carpet -->
<g id="node10" class="node"><title>flying_carpet</title>
<g id="a_node10"><a xlink:href="persian_flying_carpet_full.html" xlink:title="Flying\nCarpet">
<ellipse fill="none" stroke="magenta" cx="877.087" cy="-129.296" rx="37.4533" ry="26.7407"/>
<text text-anchor="middle" x="877.087" y="-133.096" font-family="Times,serif" font-size="14.00" fill="#ebc72d">Flying</text>
<text text-anchor="middle" x="877.087" y="-118.096" font-family="Times,serif" font-size="14.00" fill="#ebc72d">Carpet</text>
</a>
</g>
</g>
<!-- stickfighter -->
<g id="node11" class="node"><title>stickfighter</title>
<g id="a_node11"><a xlink:href="persian_stickfighter_full.html" xlink:title="Stickfighter">
<ellipse fill="none" stroke="magenta" cx="1078.09" cy="-342.167" rx="51.9908" ry="18"/>
<text text-anchor="middle" x="1078.09" y="-338.467" font-family="Times,serif" font-size="14.00" fill="#ebc72d">Stickfighter</text>
</a>
</g>
</g>
<!-- tent&#45;&gt;magician -->
<g id="edge27" class="edge"><title>tent&#45;&gt;magician</title>
<path fill="none" stroke="#ebc72d" d="M865.215,-327.431C857.463,-319.368 846.658,-309.704 835.087,-304.167 750.066,-263.475 691.607,-335.927 626.087,-268.167 597.842,-238.955 598.507,-188.626 602.288,-157.53"/>
<polygon fill="#ebc72d" stroke="#ebc72d" points="605.786,-157.79 603.713,-147.399 598.854,-156.814 605.786,-157.79"/>
</g>
<!-- tent&#45;&gt;flying_carpet -->
<g id="edge23" class="edge"><title>tent&#45;&gt;flying_carpet</title>
<path fill="none" stroke="#ebc72d" d="M883.282,-327.526C889.459,-313.12 898.523,-289.574 902.087,-268.167 907.634,-234.847 908.533,-225.324 902.087,-192.167 900.269,-182.813 897.038,-173.083 893.491,-164.184"/>
<polygon fill="#ebc72d" stroke="#ebc72d" points="896.688,-162.758 889.568,-154.912 890.241,-165.485 896.688,-162.758"/>
</g>
<!-- tent&#45;&gt;minaret -->
<g id="edge28" class="edge"><title>tent&#45;&gt;minaret</title>
<path fill="none" stroke="#ebc72d" stroke-dasharray="1,5" d="M865.259,-327.338C857.523,-319.24 846.72,-309.571 835.087,-304.167 736.472,-258.349 698.739,-293.895 593.087,-268.167 568.483,-262.175 541.537,-252.948 520.715,-245.207"/>
<polygon fill="#ebc72d" stroke="#ebc72d" points="521.908,-241.917 511.317,-241.66 519.437,-248.466 521.908,-241.917"/>
</g>
<!-- genie -->
<g id="node15" class="node"><title>genie</title>
<g id="a_node15"><a xlink:href="persian_genie_full.html" xlink:title="Genie">
<ellipse fill="none" stroke="magenta" cx="981.087" cy="-230.167" rx="31.6951" ry="18"/>
<text text-anchor="middle" x="981.087" y="-226.467" font-family="Times,serif" font-size="14.00" fill="#ebc72d">Genie</text>
</a>
</g>
</g>
<!-- tent&#45;&gt;genie -->
<g id="edge24" class="edge"><title>tent&#45;&gt;genie</title>
<path fill="none" stroke="#ebc72d" d="M890.259,-327.235C907.763,-308.721 938.904,-275.784 959.775,-253.709"/>
<polygon fill="#ebc72d" stroke="#ebc72d" points="962.363,-256.066 966.69,-246.395 957.276,-251.257 962.363,-256.066"/>
</g>
<!-- magic_level_1 -->
<g id="node20" class="node"><title>magic_level_1</title>
<g id="a_node20"><a xlink:href="persian_magic_level_1_full.html" xlink:title="Magic\nLevel 1">
<polygon fill="none" stroke="green" points="755.351,-268.167 659.485,-268.167 634.824,-192.167 730.69,-192.167 755.351,-268.167"/>
<text text-anchor="middle" x="695.087" y="-233.967" font-family="Times,serif" font-size="14.00" fill="#ebc72d">Magic</text>
<text text-anchor="middle" x="695.087" y="-218.967" font-family="Times,serif" font-size="14.00" fill="#ebc72d">Level 1</text>
</a>
</g>
</g>
<!-- tent&#45;&gt;magic_level_1 -->
<g id="edge25" class="edge"><title>tent&#45;&gt;magic_level_1</title>
<path fill="none" stroke="#ebc72d" d="M863.436,-327.548C855.555,-320.107 845.222,-311.037 835.087,-304.167 805.802,-284.314 795.457,-284.528 764.087,-268.167 763.665,-267.947 763.242,-267.726 762.818,-267.504"/>
<polygon fill="#ebc72d" stroke="#ebc72d" points="764.242,-264.299 753.761,-262.747 760.987,-270.496 764.242,-264.299"/>
</g>
<!-- magic_level_2 -->
<g id="node21" class="node"><title>magic_level_2</title>
<g id="a_node21"><a xlink:href="persian_magic_level_2_full.html" xlink:title="Magic\nLevel 2">
<polygon fill="none" stroke="green" points="893.351,-268.167 797.485,-268.167 772.824,-192.167 868.69,-192.167 893.351,-268.167"/>
<text text-anchor="middle" x="833.087" y="-233.967" font-family="Times,serif" font-size="14.00" fill="#ebc72d">Magic</text>
<text text-anchor="middle" x="833.087" y="-218.967" font-family="Times,serif" font-size="14.00" fill="#ebc72d">Level 2</text>
</a>
</g>
</g>
<!-- tent&#45;&gt;magic_level_2 -->
<g id="edge26" class="edge"><title>tent&#45;&gt;magic_level_2</title>
<path fill="none" stroke="#ebc72d" d="M871.515,-327.235C866.559,-314.845 859.019,-295.996 851.927,-278.265"/>
<polygon fill="#ebc72d" stroke="#ebc72d" points="855.015,-276.563 848.052,-268.578 848.516,-279.162 855.015,-276.563"/>
</g>
<!-- temple&#45;&gt;princess -->
<g id="edge19" class="edge"><title>temple&#45;&gt;princess</title>
<path fill="none" stroke="#ebc72d" d="M823.653,-419.567C852.115,-410.346 888.754,-396.817 919.087,-380.167 927.013,-375.816 935.065,-370.288 942.29,-364.838"/>
<polygon fill="#ebc72d" stroke="#ebc72d" points="944.609,-367.468 950.335,-358.554 940.3,-361.952 944.609,-367.468"/>
</g>
<!-- temple&#45;&gt;swordman -->
<g id="edge21" class="edge"><title>temple&#45;&gt;swordman</title>
<path fill="none" stroke="#ebc72d" d="M777.087,-419.497C777.087,-406.509 777.087,-386.606 777.087,-370.38"/>
<polygon fill="#ebc72d" stroke="#ebc72d" points="780.587,-370.358 777.087,-360.358 773.587,-370.358 780.587,-370.358"/>
</g>
<!-- temple&#45;&gt;stickfighter -->
<g id="edge20" class="edge"><title>temple&#45;&gt;stickfighter</title>
<path fill="none" stroke="#ebc72d" stroke-dasharray="1,5" d="M821.161,-419.568C825.513,-418.362 829.877,-417.206 834.087,-416.167 914.563,-396.298 939.797,-410.121 1017.09,-380.167 1027.68,-376.062 1038.51,-370.151 1048.05,-364.254"/>
<polygon fill="#ebc72d" stroke="#ebc72d" points="1050.23,-367.014 1056.75,-358.664 1046.44,-361.125 1050.23,-367.014"/>
</g>
<!-- temple&#45;&gt;tent -->
<g id="edge22" class="edge"><title>temple&#45;&gt;tent</title>
<path fill="none" stroke="#ebc72d" stroke-dasharray="1,5" d="M792.275,-419.497C809.295,-404.18 836.998,-379.247 856.085,-362.068"/>
<polygon fill="#ebc72d" stroke="#ebc72d" points="858.59,-364.523 863.682,-355.231 853.908,-359.32 858.59,-364.523"/>
</g>
<!-- elephant -->
<g id="node19" class="node"><title>elephant</title>
<g id="a_node19"><a xlink:href="persian_elephant_full.html" xlink:title="Elephant">
<ellipse fill="none" stroke="magenta" cx="255.087" cy="-230.167" rx="42.4939" ry="18"/>
<text text-anchor="middle" x="255.087" y="-226.467" font-family="Times,serif" font-size="14.00" fill="#ebc72d">Elephant</text>
</a>
</g>
</g>
<!-- elephant_cage&#45;&gt;elephant -->
<g id="edge8" class="edge"><title>elephant_cage&#45;&gt;elephant</title>
<path fill="none" stroke="#ebc72d" d="M279.504,-315.098C274.514,-297.946 267.998,-275.547 262.952,-258.203"/>
<polygon fill="#ebc72d" stroke="#ebc72d" points="266.182,-256.773 260.028,-248.149 259.46,-258.728 266.182,-256.773"/>
</g>
<!-- fakir -->
<g id="node17" class="node"><title>fakir</title>
<g id="a_node17"><a xlink:href="persian_fakir_full.html" xlink:title="Fakir">
<ellipse fill="none" stroke="magenta" cx="872.087" cy="-434.167" rx="29.4969" ry="18"/>
<text text-anchor="middle" x="872.087" y="-430.467" font-family="Times,serif" font-size="14.00" fill="#ebc72d">Fakir</text>
</a>
</g>
</g>
<!-- house&#45;&gt;blacksmith -->
<g id="edge11" class="edge"><title>house&#45;&gt;blacksmith</title>
<path fill="none" stroke="#ebc72d" stroke-dasharray="1,5" d="M736.095,-495.063C684.614,-482.374 596.409,-460.633 541.615,-447.127"/>
<polygon fill="#ebc72d" stroke="#ebc72d" points="542.336,-443.701 531.788,-444.706 540.66,-450.497 542.336,-443.701"/>
</g>
<!-- house&#45;&gt;stickfighter -->
<g id="edge13" class="edge"><title>house&#45;&gt;stickfighter</title>
<path fill="none" stroke="#ebc72d" d="M816.979,-491.599C843.878,-481.891 879.841,-467.812 910.087,-452.167 961.113,-425.772 1016.26,-388.04 1048.95,-364.603"/>
<polygon fill="#ebc72d" stroke="#ebc72d" points="1051.1,-367.37 1057.16,-358.68 1047,-361.694 1051.1,-367.37"/>
</g>
<!-- house&#45;&gt;temple -->
<g id="edge14" class="edge"><title>house&#45;&gt;temple</title>
<path fill="none" stroke="#ebc72d" stroke-dasharray="1,5" d="M777.087,-491.337C777.087,-483.085 777.087,-472.319 777.087,-462.423"/>
<polygon fill="#ebc72d" stroke="#ebc72d" points="780.587,-462.186 777.087,-452.186 773.587,-462.186 780.587,-462.186"/>
</g>
<!-- house&#45;&gt;fakir -->
<g id="edge12" class="edge"><title>house&#45;&gt;fakir</title>
<path fill="none" stroke="#ebc72d" d="M795.856,-491.337C810.091,-480.848 829.841,-466.296 845.671,-454.631"/>
<polygon fill="#ebc72d" stroke="#ebc72d" points="848.028,-457.242 854.002,-448.493 843.875,-451.607 848.028,-457.242"/>
</g>
<!-- magic_level_1&#45;&gt;magician -->
<g id="edge15" class="edge"><title>magic_level_1&#45;&gt;magician</title>
<path fill="none" stroke="#ebc72d" stroke-dasharray="1,5" d="M662.069,-192.07C650.766,-179.371 638.431,-165.512 628.314,-154.145"/>
<polygon fill="#ebc72d" stroke="#ebc72d" points="630.648,-151.503 621.385,-146.36 625.419,-156.157 630.648,-151.503"/>
</g>
<!-- magic_level_2&#45;&gt;flying_carpet -->
<g id="edge16" class="edge"><title>magic_level_2&#45;&gt;flying_carpet</title>
<path fill="none" stroke="#ebc72d" stroke-dasharray="1,5" d="M849.596,-192.07C853.644,-182.976 857.956,-173.286 861.935,-164.343"/>
<polygon fill="#ebc72d" stroke="#ebc72d" points="865.227,-165.555 866.095,-154.996 858.832,-162.709 865.227,-165.555"/>
</g>
<!-- corn_and_wicker&#45;&gt;snake_basket -->
<g id="edge7" class="edge"><title>corn_and_wicker&#45;&gt;snake_basket</title>
<path fill="none" stroke="#ebc72d" stroke-dasharray="1,5" d="M114.246,-304.023C137.219,-273.245 171.509,-228.776 204.087,-192.167 246.472,-144.536 299.742,-93.1648 332.596,-62.3571"/>
<polygon fill="#ebc72d" stroke="#ebc72d" points="335.17,-64.7414 340.087,-55.3566 330.391,-59.6267 335.17,-64.7414"/>
</g>
<!-- corn_and_wicker&#45;&gt;elephant -->
<g id="edge6" class="edge"><title>corn_and_wicker&#45;&gt;elephant</title>
<path fill="none" stroke="#ebc72d" stroke-dasharray="1,5" d="M139.783,-306.664C167.599,-288.45 200.761,-266.737 224.365,-251.282"/>
<polygon fill="#ebc72d" stroke="#ebc72d" points="226.463,-254.092 232.912,-245.686 222.629,-248.236 226.463,-254.092"/>
</g>
</g>
</svg>
