<?xml version="1.0" encoding="UTF-8" standalone="no"?>
<!DOCTYPE svg PUBLIC "-//W3C//DTD SVG 1.1//EN"
 "http://www.w3.org/Graphics/SVG/1.1/DTD/svg11.dtd">
<!-- Generated by graphviz version 2.38.0 (20140413.2041)
 -->
<!-- Title: test Pages: 1 -->
<svg width="338pt" height="351pt"
 viewBox="0.00 0.00 337.67 351.28" xmlns="http://www.w3.org/2000/svg" xmlns:xlink="http://www.w3.org/1999/xlink">
<g id="graph0" class="graph" transform="scale(1 1) rotate(0) translate(4 347.279)">
<title>test</title>
<polygon fill="#151515" stroke="none" points="-4,4 -4,-347.279 333.671,-347.279 333.671,4 -4,4"/>
<!-- bing_ying -->
<g id="node1" class="node"><title>bing_ying</title>
<g id="a_node1"><a xlink:href="the_great_ming_bing_ying_full.html" xlink:title="Bing\nYing">
<polygon fill="none" stroke="red" points="110.872,-217.969 72.4574,-241.067 34.0425,-217.969 34.0784,-180.596 110.836,-180.596 110.872,-217.969"/>
<text text-anchor="middle" x="72.4574" y="-211.44" font-family="Times,serif" font-size="14.00" fill="#ebc72d">Bing</text>
<text text-anchor="middle" x="72.4574" y="-196.44" font-family="Times,serif" font-size="14.00" fill="#ebc72d">Ying</text>
</a>
</g>
</g>
<!-- bing_gong_chang -->
<g id="node5" class="node"><title>bing_gong_chang</title>
<g id="a_node5"><a xlink:href="the_great_ming_bing_gong_chang_full.html" xlink:title="Bing\nGong Chang">
<polygon fill="none" stroke="red" points="245.791,-115.543 170.457,-138.641 95.1235,-115.543 95.1938,-78.1695 245.721,-78.1695 245.791,-115.543"/>
<text text-anchor="middle" x="170.457" y="-109.013" font-family="Times,serif" font-size="14.00" fill="#ebc72d">Bing</text>
<text text-anchor="middle" x="170.457" y="-94.0132" font-family="Times,serif" font-size="14.00" fill="#ebc72d">Gong Chang</text>
</a>
</g>
</g>
<!-- bing_ying&#45;&gt;bing_gong_chang -->
<g id="edge2" class="edge"><title>bing_ying&#45;&gt;bing_gong_chang</title>
<path fill="none" stroke="#ebc72d" stroke-dasharray="1,5" d="M97.9499,-180.516C110.391,-167.767 125.482,-152.302 138.669,-138.789"/>
<polygon fill="#ebc72d" stroke="#ebc72d" points="141.29,-141.114 145.769,-131.512 136.28,-136.225 141.29,-141.114"/>
</g>
<!-- ma_fang -->
<g id="node9" class="node"><title>ma_fang</title>
<g id="a_node9"><a xlink:href="the_great_ming_ma_fang_full.html" xlink:title="Ma\nFang">
<polygon fill="none" stroke="red" points="76.8723,-115.543 38.4574,-138.641 0.0425427,-115.543 0.0783985,-78.1695 76.8364,-78.1695 76.8723,-115.543"/>
<text text-anchor="middle" x="38.4574" y="-109.013" font-family="Times,serif" font-size="14.00" fill="#ebc72d">Ma</text>
<text text-anchor="middle" x="38.4574" y="-94.0132" font-family="Times,serif" font-size="14.00" fill="#ebc72d">Fang</text>
</a>
</g>
</g>
<!-- bing_ying&#45;&gt;ma_fang -->
<g id="edge3" class="edge"><title>bing_ying&#45;&gt;ma_fang</title>
<path fill="none" stroke="#ebc72d" stroke-dasharray="1,5" d="M63.6131,-180.516C59.7317,-169.051 55.107,-155.391 50.8879,-142.929"/>
<polygon fill="#ebc72d" stroke="#ebc72d" points="54.1352,-141.606 47.6132,-133.257 47.5048,-143.851 54.1352,-141.606"/>
</g>
<!-- lou_lu -->
<g id="node2" class="node"><title>lou_lu</title>
<g id="a_node2"><a xlink:href="the_great_ming_lou_lu_full.html" xlink:title="Lou\nLu">
<polygon fill="none" stroke="red" points="329.885,-115.543 296.457,-138.641 263.03,-115.543 263.061,-78.1695 329.854,-78.1695 329.885,-115.543"/>
<text text-anchor="middle" x="296.457" y="-109.013" font-family="Times,serif" font-size="14.00" fill="#ebc72d">Lou</text>
<text text-anchor="middle" x="296.457" y="-94.0132" font-family="Times,serif" font-size="14.00" fill="#ebc72d">Lu</text>
</a>
</g>
</g>
<!-- siheyuan -->
<g id="node3" class="node"><title>siheyuan</title>
<g id="a_node3"><a xlink:href="the_great_ming_siheyuan_full.html" xlink:title="Siheyuan">
<polygon fill="none" stroke="red" points="224.11,-23.5623 170.457,-36 116.805,-23.5623 116.855,-3.43769 224.06,-3.43769 224.11,-23.5623"/>
<text text-anchor="middle" x="170.457" y="-14.3" font-family="Times,serif" font-size="14.00" fill="#ebc72d">Siheyuan</text>
</a>
</g>
</g>
<!-- dao_tian -->
<g id="node4" class="node"><title>dao_tian</title>
<g id="a_node4"><a xlink:href="the_great_ming_dao_tian_full.html" xlink:title="Dao\nTian">
<polygon fill="none" stroke="red" points="302.129,-217.969 266.457,-241.067 230.786,-217.969 230.819,-180.596 302.095,-180.596 302.129,-217.969"/>
<text text-anchor="middle" x="266.457" y="-211.44" font-family="Times,serif" font-size="14.00" fill="#ebc72d">Dao</text>
<text text-anchor="middle" x="266.457" y="-196.44" font-family="Times,serif" font-size="14.00" fill="#ebc72d">Tian</text>
</a>
</g>
</g>
<!-- bing_gong_chang&#45;&gt;siheyuan -->
<g id="edge1" class="edge"><title>bing_gong_chang&#45;&gt;siheyuan</title>
<path fill="none" stroke="#ebc72d" stroke-dasharray="1,5" d="M170.457,-77.7183C170.457,-67.744 170.457,-56.388 170.457,-46.3382"/>
<polygon fill="#ebc72d" stroke="#ebc72d" points="173.958,-46.0729 170.457,-36.0729 166.958,-46.0729 173.958,-46.0729"/>
</g>
<!-- wang_lou -->
<g id="node6" class="node"><title>wang_lou</title>
<g id="a_node6"><a xlink:href="the_great_ming_wang_lou_full.html" xlink:title="Wang\nLou">
<polygon fill="none" stroke="red" points="321.362,-320.396 277.457,-343.494 233.553,-320.396 233.594,-283.022 321.321,-283.022 321.362,-320.396"/>
<text text-anchor="middle" x="277.457" y="-313.866" font-family="Times,serif" font-size="14.00" fill="#ebc72d">Wang</text>
<text text-anchor="middle" x="277.457" y="-298.866" font-family="Times,serif" font-size="14.00" fill="#ebc72d">Lou</text>
</a>
</g>
</g>
<!-- cheng_bao -->
<g id="node7" class="node"><title>cheng_bao</title>
<g id="a_node7"><a xlink:href="the_great_ming_cheng_bao_full.html" xlink:title="Cheng\nBao">
<polygon fill="none" stroke="red" points="215.857,-320.396 170.457,-343.494 125.058,-320.396 125.1,-283.022 215.814,-283.022 215.857,-320.396"/>
<text text-anchor="middle" x="170.457" y="-313.866" font-family="Times,serif" font-size="14.00" fill="#ebc72d">Cheng</text>
<text text-anchor="middle" x="170.457" y="-298.866" font-family="Times,serif" font-size="14.00" fill="#ebc72d">Bao</text>
</a>
</g>
</g>
<!-- cheng_bao&#45;&gt;bing_ying -->
<g id="edge4" class="edge"><title>cheng_bao&#45;&gt;bing_ying</title>
<path fill="none" stroke="#ebc72d" stroke-dasharray="1,5" d="M144.965,-282.942C131.056,-268.689 113.836,-251.042 99.6673,-236.523"/>
<polygon fill="#ebc72d" stroke="#ebc72d" points="102.059,-233.963 92.5701,-229.25 97.0492,-238.852 102.059,-233.963"/>
</g>
<!-- cheng_bao&#45;&gt;dao_tian -->
<g id="edge5" class="edge"><title>cheng_bao&#45;&gt;dao_tian</title>
<path fill="none" stroke="#ebc72d" stroke-dasharray="1,5" d="M195.43,-282.942C209.149,-268.59 226.158,-250.797 240.092,-236.221"/>
<polygon fill="#ebc72d" stroke="#ebc72d" points="242.684,-238.575 247.064,-228.927 237.624,-233.738 242.684,-238.575"/>
</g>
<!-- gucha -->
<g id="node8" class="node"><title>gucha</title>
<g id="a_node8"><a xlink:href="the_great_ming_gucha_full.html" xlink:title="Gucha">
<polygon fill="none" stroke="red" points="212.009,-213.202 170.457,-225.64 128.905,-213.202 128.944,-193.077 211.971,-193.077 212.009,-213.202"/>
<text text-anchor="middle" x="170.457" y="-203.94" font-family="Times,serif" font-size="14.00" fill="#ebc72d">Gucha</text>
</a>
</g>
</g>
<!-- cheng_bao&#45;&gt;gucha -->
<g id="edge6" class="edge"><title>cheng_bao&#45;&gt;gucha</title>
<path fill="none" stroke="#ebc72d" stroke-dasharray="1,5" d="M170.457,-282.942C170.457,-268.586 170.457,-250.786 170.457,-236.207"/>
<polygon fill="#ebc72d" stroke="#ebc72d" points="173.958,-235.797 170.457,-225.797 166.958,-235.798 173.958,-235.797"/>
</g>
<!-- gucha&#45;&gt;lou_lu -->
<g id="edge8" class="edge"><title>gucha&#45;&gt;lou_lu</title>
<path fill="none" stroke="#ebc72d" stroke-dasharray="1,5" d="M187.713,-192.886C207.938,-176.766 241.809,-149.77 266.384,-130.183"/>
<polygon fill="#ebc72d" stroke="#ebc72d" points="268.69,-132.821 274.328,-123.851 264.327,-127.347 268.69,-132.821"/>
</g>
<!-- gucha&#45;&gt;bing_gong_chang -->
<g id="edge7" class="edge"><title>gucha&#45;&gt;bing_gong_chang</title>
<path fill="none" stroke="#ebc72d" stroke-dasharray="1,5" d="M170.457,-192.676C170.457,-181.269 170.457,-164.519 170.457,-148.792"/>
<polygon fill="#ebc72d" stroke="#ebc72d" points="173.958,-148.671 170.457,-138.671 166.958,-148.671 173.958,-148.671"/>
</g>
<!-- gucha&#45;&gt;ma_fang -->
<g id="edge9" class="edge"><title>gucha&#45;&gt;ma_fang</title>
<path fill="none" stroke="#ebc72d" stroke-dasharray="1,5" d="M152.38,-192.886C131.355,-176.89 96.2519,-150.184 70.5577,-130.635"/>
<polygon fill="#ebc72d" stroke="#ebc72d" points="72.6536,-127.832 62.5759,-124.563 68.4152,-133.403 72.6536,-127.832"/>
</g>
</g>
</svg>
