<?xml version="1.0" encoding="UTF-8" standalone="no"?>
<!DOCTYPE svg PUBLIC "-//W3C//DTD SVG 1.1//EN"
 "http://www.w3.org/Graphics/SVG/1.1/DTD/svg11.dtd">
<!-- Generated by graphviz version 2.38.0 (20140413.2041)
 -->
<!-- Title: test Pages: 1 -->
<svg width="2267pt" height="772pt"
 viewBox="0.00 0.00 2267.11 772.50" xmlns="http://www.w3.org/2000/svg" xmlns:xlink="http://www.w3.org/1999/xlink">
<g id="graph0" class="graph" transform="scale(1 1) rotate(0) translate(4 768.5)">
<title>test</title>
<polygon fill="#151515" stroke="none" points="-4,4 -4,-768.5 2263.11,-768.5 2263.11,4 -4,4"/>
<!-- folang_zhi -->
<g id="node1" class="node"><title>folang_zhi</title>
<g id="a_node1"><a xlink:href="the_great_ming_folang_zhi_full.html" xlink:title="Folang\nZhi">
<ellipse fill="none" stroke="magenta" cx="636.406" cy="-26.8701" rx="38.3684" ry="26.7407"/>
<text text-anchor="middle" x="636.406" y="-30.6701" font-family="Times,serif" font-size="14.00" fill="#ebc72d">Folang</text>
<text text-anchor="middle" x="636.406" y="-15.6701" font-family="Times,serif" font-size="14.00" fill="#ebc72d">Zhi</text>
</a>
</g>
</g>
<!-- bing_ying -->
<g id="node2" class="node"><title>bing_ying</title>
<g id="a_node2"><a xlink:href="the_great_ming_bing_ying_full.html" xlink:title="Bing\nYing">
<polygon fill="none" stroke="red" points="959.82,-549.45 921.406,-572.548 882.991,-549.45 883.027,-512.076 959.785,-512.076 959.82,-549.45"/>
<text text-anchor="middle" x="921.406" y="-542.92" font-family="Times,serif" font-size="14.00" fill="#ebc72d">Bing</text>
<text text-anchor="middle" x="921.406" y="-527.92" font-family="Times,serif" font-size="14.00" fill="#ebc72d">Ying</text>
</a>
</g>
</g>
<!-- qi_zhi -->
<g id="node4" class="node"><title>qi_zhi</title>
<g id="a_node4"><a xlink:href="the_great_ming_qi_zhi_full.html" xlink:title="Qi\nZhi">
<ellipse fill="none" stroke="magenta" cx="793.406" cy="-431.907" rx="27" ry="26.7407"/>
<text text-anchor="middle" x="793.406" y="-435.707" font-family="Times,serif" font-size="14.00" fill="#ebc72d">Qi</text>
<text text-anchor="middle" x="793.406" y="-420.707" font-family="Times,serif" font-size="14.00" fill="#ebc72d">Zhi</text>
</a>
</g>
</g>
<!-- bing_ying&#45;&gt;qi_zhi -->
<g id="edge16" class="edge"><title>bing_ying&#45;&gt;qi_zhi</title>
<path fill="none" stroke="#ebc72d" d="M883.189,-511.891C866.226,-499.721 846.319,-484.698 829.406,-469.907 825.72,-466.684 821.969,-463.152 818.347,-459.589"/>
<polygon fill="#ebc72d" stroke="#ebc72d" points="820.679,-456.97 811.157,-452.323 815.703,-461.893 820.679,-456.97"/>
</g>
<!-- liang_xian -->
<g id="node6" class="node"><title>liang_xian</title>
<g id="a_node6"><a xlink:href="the_great_ming_liang_xian_full.html" xlink:title="Liang\nXian">
<ellipse fill="none" stroke="magenta" cx="872.406" cy="-431.907" rx="33.8824" ry="26.7407"/>
<text text-anchor="middle" x="872.406" y="-435.707" font-family="Times,serif" font-size="14.00" fill="#ebc72d">Liang</text>
<text text-anchor="middle" x="872.406" y="-420.707" font-family="Times,serif" font-size="14.00" fill="#ebc72d">Xian</text>
</a>
</g>
</g>
<!-- bing_ying&#45;&gt;liang_xian -->
<g id="edge13" class="edge"><title>bing_ying&#45;&gt;liang_xian</title>
<path fill="none" stroke="#ebc72d" d="M909.167,-511.842C902.796,-498.161 894.934,-481.28 888.118,-466.644"/>
<polygon fill="#ebc72d" stroke="#ebc72d" points="891.211,-464.995 883.816,-457.408 884.865,-467.95 891.211,-464.995"/>
</g>
<!-- teng_pai_bing -->
<g id="node7" class="node"><title>teng_pai_bing</title>
<g id="a_node7"><a xlink:href="the_great_ming_teng_pai_bing_full.html" xlink:title="Teng\nPai Bing">
<ellipse fill="none" stroke="magenta" cx="969.406" cy="-431.907" rx="45.011" ry="26.7407"/>
<text text-anchor="middle" x="969.406" y="-435.707" font-family="Times,serif" font-size="14.00" fill="#ebc72d">Teng</text>
<text text-anchor="middle" x="969.406" y="-420.707" font-family="Times,serif" font-size="14.00" fill="#ebc72d">Pai Bing</text>
</a>
</g>
</g>
<!-- bing_ying&#45;&gt;teng_pai_bing -->
<g id="edge20" class="edge"><title>bing_ying&#45;&gt;teng_pai_bing</title>
<path fill="none" stroke="#ebc72d" d="M933.394,-511.842C939.544,-498.361 947.112,-481.772 953.721,-467.287"/>
<polygon fill="#ebc72d" stroke="#ebc72d" points="956.934,-468.676 957.9,-458.126 950.565,-465.771 956.934,-468.676"/>
</g>
<!-- bing_gong_chang -->
<g id="node14" class="node"><title>bing_gong_chang</title>
<g id="a_node14"><a xlink:href="the_great_ming_bing_gong_chang_full.html" xlink:title="Bing\nGong Chang">
<polygon fill="none" stroke="red" points="1369.74,-335.023 1294.41,-358.121 1219.07,-335.023 1219.14,-297.65 1369.67,-297.65 1369.74,-335.023"/>
<text text-anchor="middle" x="1294.41" y="-328.493" font-family="Times,serif" font-size="14.00" fill="#ebc72d">Bing</text>
<text text-anchor="middle" x="1294.41" y="-313.493" font-family="Times,serif" font-size="14.00" fill="#ebc72d">Gong Chang</text>
</a>
</g>
</g>
<!-- bing_ying&#45;&gt;bing_gong_chang -->
<g id="edge8" class="edge"><title>bing_ying&#45;&gt;bing_gong_chang</title>
<path fill="none" stroke="#ebc72d" stroke-dasharray="1,5" d="M959.89,-533.68C1032.59,-524.642 1186.59,-502.19 1228.41,-469.907 1243.04,-458.609 1234.65,-446.285 1247.41,-432.907"/>
<path fill="none" stroke="#ebc72d" stroke-dasharray="1,5" d="M1247.41,-430.907C1252.45,-425.613 1267.07,-392.026 1278.68,-364.203"/>
<polygon fill="#ebc72d" stroke="#ebc72d" points="1282.04,-365.236 1282.64,-354.658 1275.58,-362.554 1282.04,-365.236"/>
</g>
<!-- ji_bing -->
<g id="node19" class="node"><title>ji_bing</title>
<g id="a_node19"><a xlink:href="the_great_ming_ji_bing_full.html" xlink:title="Ji\nBing">
<ellipse fill="none" stroke="magenta" cx="1063.41" cy="-431.907" rx="30.3115" ry="26.7407"/>
<text text-anchor="middle" x="1063.41" y="-435.707" font-family="Times,serif" font-size="14.00" fill="#ebc72d">Ji</text>
<text text-anchor="middle" x="1063.41" y="-420.707" font-family="Times,serif" font-size="14.00" fill="#ebc72d">Bing</text>
</a>
</g>
</g>
<!-- bing_ying&#45;&gt;ji_bing -->
<g id="edge12" class="edge"><title>bing_ying&#45;&gt;ji_bing</title>
<path fill="none" stroke="#ebc72d" d="M960.188,-514.226C979.669,-501.718 1003.34,-485.74 1023.41,-469.907 1027.57,-466.622 1031.83,-463.001 1035.94,-459.35"/>
<polygon fill="#ebc72d" stroke="#ebc72d" points="1038.57,-461.69 1043.6,-452.369 1033.85,-456.515 1038.57,-461.69"/>
</g>
<!-- hua_tang_qiang_shou -->
<g id="node22" class="node"><title>hua_tang_qiang_shou</title>
<g id="a_node22"><a xlink:href="the_great_ming_hua_tang_qiang_shou_full.html" xlink:title="Hua\nTang Qiang Shou">
<ellipse fill="none" stroke="magenta" cx="1121.41" cy="-324.693" rx="79.8063" ry="26.7407"/>
<text text-anchor="middle" x="1121.41" y="-328.493" font-family="Times,serif" font-size="14.00" fill="#ebc72d">Hua</text>
<text text-anchor="middle" x="1121.41" y="-313.493" font-family="Times,serif" font-size="14.00" fill="#ebc72d">Tang Qiang Shou</text>
</a>
</g>
</g>
<!-- bing_ying&#45;&gt;hua_tang_qiang_shou -->
<g id="edge10" class="edge"><title>bing_ying&#45;&gt;hua_tang_qiang_shou</title>
<path fill="none" stroke="#ebc72d" d="M959.942,-534.947C1001.94,-529.294 1067.76,-513.577 1102.41,-469.907 1126.52,-439.513 1128.53,-393.661 1126.29,-361.85"/>
<polygon fill="#ebc72d" stroke="#ebc72d" points="1129.75,-361.298 1125.39,-351.643 1122.78,-361.912 1129.75,-361.298"/>
</g>
<!-- huo_qiang -->
<g id="node24" class="node"><title>huo_qiang</title>
<g id="a_node24"><a xlink:href="the_great_ming_huo_qiang_full.html" xlink:title="Huo\nQiang">
<ellipse fill="none" stroke="magenta" cx="1184.41" cy="-431.907" rx="35.2113" ry="26.7407"/>
<text text-anchor="middle" x="1184.41" y="-435.707" font-family="Times,serif" font-size="14.00" fill="#ebc72d">Huo</text>
<text text-anchor="middle" x="1184.41" y="-420.707" font-family="Times,serif" font-size="14.00" fill="#ebc72d">Qiang</text>
</a>
</g>
</g>
<!-- bing_ying&#45;&gt;huo_qiang -->
<g id="edge11" class="edge"><title>bing_ying&#45;&gt;huo_qiang</title>
<path fill="none" stroke="#ebc72d" d="M960.047,-529.974C1004.13,-519.75 1077.57,-499.843 1135.41,-469.907 1141.51,-466.746 1147.65,-462.829 1153.42,-458.738"/>
<polygon fill="#ebc72d" stroke="#ebc72d" points="1155.62,-461.462 1161.56,-452.687 1151.45,-455.844 1155.62,-461.462"/>
</g>
<!-- ma_fang -->
<g id="node25" class="node"><title>ma_fang</title>
<g id="a_node25"><a xlink:href="the_great_ming_ma_fang_full.html" xlink:title="Ma\nFang">
<polygon fill="none" stroke="red" points="116.82,-335.023 78.4056,-358.121 39.9907,-335.023 40.0266,-297.65 116.785,-297.65 116.82,-335.023"/>
<text text-anchor="middle" x="78.4056" y="-328.493" font-family="Times,serif" font-size="14.00" fill="#ebc72d">Ma</text>
<text text-anchor="middle" x="78.4056" y="-313.493" font-family="Times,serif" font-size="14.00" fill="#ebc72d">Fang</text>
</a>
</g>
</g>
<!-- bing_ying&#45;&gt;ma_fang -->
<g id="edge14" class="edge"><title>bing_ying&#45;&gt;ma_fang</title>
<path fill="none" stroke="#ebc72d" stroke-dasharray="1,5" d="M882.959,-537.1C748.291,-533.149 298.746,-516.681 163.406,-469.907 134.86,-460.041 127.86,-454.165 106.406,-432.907"/>
</g>
<!-- she_shou -->
<g id="node27" class="node"><title>she_shou</title>
<g id="a_node27"><a xlink:href="the_great_ming_she_shou_full.html" xlink:title="She\nShou">
<ellipse fill="none" stroke="magenta" cx="1306.41" cy="-431.907" rx="31.2258" ry="26.7407"/>
<text text-anchor="middle" x="1306.41" y="-435.707" font-family="Times,serif" font-size="14.00" fill="#ebc72d">She</text>
<text text-anchor="middle" x="1306.41" y="-420.707" font-family="Times,serif" font-size="14.00" fill="#ebc72d">Shou</text>
</a>
</g>
</g>
<!-- bing_ying&#45;&gt;she_shou -->
<g id="edge17" class="edge"><title>bing_ying&#45;&gt;she_shou</title>
<path fill="none" stroke="#ebc72d" d="M960.024,-536.444C1025.16,-532.322 1159.7,-518.172 1261.41,-469.907 1267.28,-467.118 1273.05,-463.395 1278.38,-459.384"/>
<polygon fill="#ebc72d" stroke="#ebc72d" points="1280.79,-461.939 1286.37,-452.935 1276.39,-456.492 1280.79,-461.939"/>
</g>
<!-- blade_weapons -->
<g id="node29" class="node"><title>blade_weapons</title>
<g id="a_node29"><a xlink:href="the_great_ming_blade_weapons_full.html" xlink:title="Blade\nWeapons">
<polygon fill="none" stroke="green" points="312.904,-469.907 200.757,-469.907 171.907,-393.907 284.054,-393.907 312.904,-469.907"/>
<text text-anchor="middle" x="242.406" y="-435.707" font-family="Times,serif" font-size="14.00" fill="#ebc72d">Blade</text>
<text text-anchor="middle" x="242.406" y="-420.707" font-family="Times,serif" font-size="14.00" fill="#ebc72d">Weapons</text>
</a>
</g>
</g>
<!-- bing_ying&#45;&gt;blade_weapons -->
<g id="edge9" class="edge"><title>bing_ying&#45;&gt;blade_weapons</title>
<path fill="none" stroke="#ebc72d" d="M882.75,-537.953C786.298,-536.635 527.998,-527.536 322.406,-469.907 322.074,-469.814 321.742,-469.72 321.41,-469.624"/>
<polygon fill="#ebc72d" stroke="#ebc72d" points="322.305,-466.236 311.715,-466.55 320.189,-472.909 322.305,-466.236"/>
</g>
<!-- piercing_weapons -->
<g id="node34" class="node"><title>piercing_weapons</title>
<g id="a_node34"><a xlink:href="the_great_ming_piercing_weapons_full.html" xlink:title="Piercing\nWeapons">
<polygon fill="none" stroke="green" points="471.904,-469.907 359.757,-469.907 330.907,-393.907 443.054,-393.907 471.904,-469.907"/>
<text text-anchor="middle" x="401.406" y="-435.707" font-family="Times,serif" font-size="14.00" fill="#ebc72d">Piercing</text>
<text text-anchor="middle" x="401.406" y="-420.707" font-family="Times,serif" font-size="14.00" fill="#ebc72d">Weapons</text>
</a>
</g>
</g>
<!-- bing_ying&#45;&gt;piercing_weapons -->
<g id="edge15" class="edge"><title>bing_ying&#45;&gt;piercing_weapons</title>
<path fill="none" stroke="#ebc72d" d="M882.942,-535.775C805.464,-530.268 625.697,-513.516 481.406,-469.907 481.076,-469.807 480.746,-469.706 480.416,-469.605"/>
<polygon fill="#ebc72d" stroke="#ebc72d" points="481.36,-466.23 470.766,-466.374 479.138,-472.868 481.36,-466.23"/>
</g>
<!-- shield_level_1 -->
<g id="node36" class="node"><title>shield_level_1</title>
<g id="a_node36"><a xlink:href="the_great_ming_shield_level_1_full.html" xlink:title="Shield\nLevel 1">
<polygon fill="none" stroke="green" points="610.669,-469.907 514.803,-469.907 490.142,-393.907 586.008,-393.907 610.669,-469.907"/>
<text text-anchor="middle" x="550.406" y="-435.707" font-family="Times,serif" font-size="14.00" fill="#ebc72d">Shield</text>
<text text-anchor="middle" x="550.406" y="-420.707" font-family="Times,serif" font-size="14.00" fill="#ebc72d">Level 1</text>
</a>
</g>
</g>
<!-- bing_ying&#45;&gt;shield_level_1 -->
<g id="edge18" class="edge"><title>bing_ying&#45;&gt;shield_level_1</title>
<path fill="none" stroke="#ebc72d" d="M882.785,-532.818C824.407,-524.047 710.807,-504.016 619.406,-469.907 619.199,-469.829 618.992,-469.752 618.784,-469.673"/>
<polygon fill="#ebc72d" stroke="#ebc72d" points="619.978,-466.381 609.397,-465.847 617.336,-472.863 619.978,-466.381"/>
</g>
<!-- shield_level_2 -->
<g id="node37" class="node"><title>shield_level_2</title>
<g id="a_node37"><a xlink:href="the_great_ming_shield_level_2_full.html" xlink:title="Shield\nLevel 2">
<polygon fill="none" stroke="green" points="748.669,-469.907 652.803,-469.907 628.142,-393.907 724.008,-393.907 748.669,-469.907"/>
<text text-anchor="middle" x="688.406" y="-435.707" font-family="Times,serif" font-size="14.00" fill="#ebc72d">Shield</text>
<text text-anchor="middle" x="688.406" y="-420.707" font-family="Times,serif" font-size="14.00" fill="#ebc72d">Level 2</text>
</a>
</g>
</g>
<!-- bing_ying&#45;&gt;shield_level_2 -->
<g id="edge19" class="edge"><title>bing_ying&#45;&gt;shield_level_2</title>
<path fill="none" stroke="#ebc72d" d="M882.831,-523.315C849.298,-510.152 799.61,-489.94 757.406,-469.907 757.095,-469.759 756.783,-469.611 756.471,-469.462"/>
<polygon fill="#ebc72d" stroke="#ebc72d" points="757.827,-466.229 747.306,-464.981 754.752,-472.517 757.827,-466.229"/>
</g>
<!-- lou_lu -->
<g id="node3" class="node"><title>lou_lu</title>
<g id="a_node3"><a xlink:href="the_great_ming_lou_lu_full.html" xlink:title="Lou\nLu">
<polygon fill="none" stroke="red" points="1856.83,-335.023 1823.41,-358.121 1789.98,-335.023 1790.01,-297.65 1856.8,-297.65 1856.83,-335.023"/>
<text text-anchor="middle" x="1823.41" y="-328.493" font-family="Times,serif" font-size="14.00" fill="#ebc72d">Lou</text>
<text text-anchor="middle" x="1823.41" y="-313.493" font-family="Times,serif" font-size="14.00" fill="#ebc72d">Lu</text>
</a>
</g>
</g>
<!-- huo_jian_bing -->
<g id="node5" class="node"><title>huo_jian_bing</title>
<g id="a_node5"><a xlink:href="the_great_ming_huo_jian_bing_full.html" xlink:title="Huo\nJian Bing">
<ellipse fill="none" stroke="magenta" cx="1495.41" cy="-324.693" rx="48.1667" ry="26.7407"/>
<text text-anchor="middle" x="1495.41" y="-328.493" font-family="Times,serif" font-size="14.00" fill="#ebc72d">Huo</text>
<text text-anchor="middle" x="1495.41" y="-313.493" font-family="Times,serif" font-size="14.00" fill="#ebc72d">Jian Bing</text>
</a>
</g>
</g>
<!-- siheyuan -->
<g id="node8" class="node"><title>siheyuan</title>
<g id="a_node8"><a xlink:href="the_great_ming_siheyuan_full.html" xlink:title="Siheyuan">
<polygon fill="none" stroke="red" points="690.058,-234.172 636.406,-246.61 582.753,-234.172 582.803,-214.048 690.008,-214.048 690.058,-234.172"/>
<text text-anchor="middle" x="636.406" y="-224.91" font-family="Times,serif" font-size="14.00" fill="#ebc72d">Siheyuan</text>
</a>
</g>
</g>
<!-- siheyuan&#45;&gt;folang_zhi -->
<g id="edge49" class="edge"><title>siheyuan&#45;&gt;folang_zhi</title>
<path fill="none" stroke="#ebc72d" d="M627.586,-214.03C620.282,-201.92 610.467,-183.425 606.406,-165.74 598.845,-132.819 598.845,-122.661 606.406,-89.7401 608.646,-79.9825 612.639,-69.978 616.995,-60.9355"/>
<polygon fill="#ebc72d" stroke="#ebc72d" points="620.172,-62.4085 621.607,-51.9113 613.939,-59.2226 620.172,-62.4085"/>
</g>
<!-- european_trading -->
<g id="node30" class="node"><title>european_trading</title>
<g id="a_node30"><a xlink:href="the_great_ming_european_trading_full.html" xlink:title="European\nTrading">
<polygon fill="none" stroke="green" points="755.904,-165.74 643.757,-165.74 614.907,-89.7401 727.054,-89.7401 755.904,-165.74"/>
<text text-anchor="middle" x="685.406" y="-131.54" font-family="Times,serif" font-size="14.00" fill="#ebc72d">European</text>
<text text-anchor="middle" x="685.406" y="-116.54" font-family="Times,serif" font-size="14.00" fill="#ebc72d">Trading</text>
</a>
</g>
</g>
<!-- siheyuan&#45;&gt;european_trading -->
<g id="edge48" class="edge"><title>siheyuan&#45;&gt;european_trading</title>
<path fill="none" stroke="#ebc72d" d="M643.219,-213.863C648.267,-203.678 655.459,-189.165 662.479,-175.001"/>
<polygon fill="#ebc72d" stroke="#ebc72d" points="665.738,-176.307 667.042,-165.793 659.466,-173.199 665.738,-176.307"/>
</g>
<!-- qi_she_shou -->
<g id="node9" class="node"><title>qi_she_shou</title>
<g id="a_node9"><a xlink:href="the_great_ming_qi_she_shou_full.html" xlink:title="Qi\nShe Shou">
<ellipse fill="none" stroke="magenta" cx="126.406" cy="-228.61" rx="48.1667" ry="26.7407"/>
<text text-anchor="middle" x="126.406" y="-232.41" font-family="Times,serif" font-size="14.00" fill="#ebc72d">Qi</text>
<text text-anchor="middle" x="126.406" y="-217.41" font-family="Times,serif" font-size="14.00" fill="#ebc72d">She Shou</text>
</a>
</g>
</g>
<!-- zhu -->
<g id="node10" class="node"><title>zhu</title>
<g id="a_node10"><a xlink:href="the_great_ming_zhu_full.html" xlink:title="Zhu">
<ellipse fill="none" stroke="magenta" cx="2117.41" cy="-539.12" rx="27" ry="18"/>
<text text-anchor="middle" x="2117.41" y="-535.42" font-family="Times,serif" font-size="14.00" fill="#ebc72d">Zhu</text>
</a>
</g>
</g>
<!-- sifu_shaolin -->
<g id="node11" class="node"><title>sifu_shaolin</title>
<g id="a_node11"><a xlink:href="the_great_ming_sifu_shaolin_full.html" xlink:title="Sifu\nShaolin">
<ellipse fill="none" stroke="magenta" cx="1868.41" cy="-431.907" rx="41.0244" ry="26.7407"/>
<text text-anchor="middle" x="1868.41" y="-435.707" font-family="Times,serif" font-size="14.00" fill="#ebc72d">Sifu</text>
<text text-anchor="middle" x="1868.41" y="-420.707" font-family="Times,serif" font-size="14.00" fill="#ebc72d">Shaolin</text>
</a>
</g>
</g>
<!-- dao_tian -->
<g id="node12" class="node"><title>dao_tian</title>
<g id="a_node12"><a xlink:href="the_great_ming_dao_tian_full.html" xlink:title="Dao\nTian">
<polygon fill="none" stroke="red" points="2153.08,-651.876 2117.41,-674.974 2081.73,-651.876 2081.77,-614.503 2153.04,-614.503 2153.08,-651.876"/>
<text text-anchor="middle" x="2117.41" y="-645.346" font-family="Times,serif" font-size="14.00" fill="#ebc72d">Dao</text>
<text text-anchor="middle" x="2117.41" y="-630.346" font-family="Times,serif" font-size="14.00" fill="#ebc72d">Tian</text>
</a>
</g>
</g>
<!-- dao_tian&#45;&gt;zhu -->
<g id="edge24" class="edge"><title>dao_tian&#45;&gt;zhu</title>
<path fill="none" stroke="#ebc72d" d="M2117.41,-614.423C2117.41,-600.066 2117.41,-582.266 2117.41,-567.688"/>
<polygon fill="#ebc72d" stroke="#ebc72d" points="2120.91,-567.278 2117.41,-557.278 2113.91,-567.278 2120.91,-567.278"/>
</g>
<!-- ying_che_ -->
<g id="node13" class="node"><title>ying_che_</title>
<g id="a_node13"><a xlink:href="the_great_ming_ying_che__full.html" xlink:title="Ying\nChe ">
<ellipse fill="none" stroke="magenta" cx="1371.41" cy="-127.74" rx="31.2258" ry="26.7407"/>
<text text-anchor="middle" x="1371.41" y="-131.54" font-family="Times,serif" font-size="14.00" fill="#ebc72d">Ying</text>
<text text-anchor="middle" x="1371.41" y="-116.54" font-family="Times,serif" font-size="14.00" fill="#ebc72d">Che </text>
</a>
</g>
</g>
<!-- bing_gong_chang&#45;&gt;siheyuan -->
<g id="edge6" class="edge"><title>bing_gong_chang&#45;&gt;siheyuan</title>
<path fill="none" stroke="#ebc72d" stroke-dasharray="1,5" d="M1231.67,-297.629C1224.58,-295.285 1217.39,-293.166 1210.41,-291.48 1028.89,-247.679 807.583,-234.863 700.524,-231.131"/>
<polygon fill="#ebc72d" stroke="#ebc72d" points="700.326,-227.623 690.215,-230.788 700.093,-234.619 700.326,-227.623"/>
</g>
<!-- da_jiang_jun_chong -->
<g id="node15" class="node"><title>da_jiang_jun_chong</title>
<g id="a_node15"><a xlink:href="the_great_ming_da_jiang_jun_chong_full.html" xlink:title="Da\nJiang Jun Chong">
<ellipse fill="none" stroke="magenta" cx="1172.41" cy="-228.61" rx="75.8212" ry="26.7407"/>
<text text-anchor="middle" x="1172.41" y="-232.41" font-family="Times,serif" font-size="14.00" fill="#ebc72d">Da</text>
<text text-anchor="middle" x="1172.41" y="-217.41" font-family="Times,serif" font-size="14.00" fill="#ebc72d">Jiang Jun Chong</text>
</a>
</g>
</g>
<!-- bing_gong_chang&#45;&gt;da_jiang_jun_chong -->
<g id="edge4" class="edge"><title>bing_gong_chang&#45;&gt;da_jiang_jun_chong</title>
<path fill="none" stroke="#ebc72d" d="M1260.42,-297.486C1245.17,-285.726 1227.1,-271.788 1211.31,-259.612"/>
<polygon fill="#ebc72d" stroke="#ebc72d" points="1213.34,-256.761 1203.29,-253.425 1209.07,-262.304 1213.34,-256.761"/>
</g>
<!-- huo_che -->
<g id="node23" class="node"><title>huo_che</title>
<g id="a_node23"><a xlink:href="the_great_ming_huo_che_full.html" xlink:title="Huo\nChe">
<ellipse fill="none" stroke="magenta" cx="1294.41" cy="-228.61" rx="28.0702" ry="26.7407"/>
<text text-anchor="middle" x="1294.41" y="-232.41" font-family="Times,serif" font-size="14.00" fill="#ebc72d">Huo</text>
<text text-anchor="middle" x="1294.41" y="-217.41" font-family="Times,serif" font-size="14.00" fill="#ebc72d">Che</text>
</a>
</g>
</g>
<!-- bing_gong_chang&#45;&gt;huo_che -->
<g id="edge5" class="edge"><title>bing_gong_chang&#45;&gt;huo_che</title>
<path fill="none" stroke="#ebc72d" d="M1294.41,-297.486C1294.41,-287.699 1294.41,-276.404 1294.41,-265.872"/>
<polygon fill="#ebc72d" stroke="#ebc72d" points="1297.91,-265.677 1294.41,-255.677 1290.91,-265.677 1297.91,-265.677"/>
</g>
<!-- ying_che -->
<g id="node26" class="node"><title>ying_che</title>
<g id="a_node26"><a xlink:href="the_great_ming_ying_che_full.html" xlink:title="Ying\nChe">
<ellipse fill="none" stroke="magenta" cx="1371.41" cy="-228.61" rx="31.2258" ry="26.7407"/>
<text text-anchor="middle" x="1371.41" y="-232.41" font-family="Times,serif" font-size="14.00" fill="#ebc72d">Ying</text>
<text text-anchor="middle" x="1371.41" y="-217.41" font-family="Times,serif" font-size="14.00" fill="#ebc72d">Che</text>
</a>
</g>
</g>
<!-- bing_gong_chang&#45;&gt;ying_che -->
<g id="edge7" class="edge"><title>bing_gong_chang&#45;&gt;ying_che</title>
<path fill="none" stroke="#ebc72d" d="M1315.85,-297.486C1325.71,-285.443 1337.43,-271.118 1347.57,-258.739"/>
<polygon fill="#ebc72d" stroke="#ebc72d" points="1350.33,-260.883 1353.96,-250.928 1344.92,-256.45 1350.33,-260.883"/>
</g>
<!-- wang_lou -->
<g id="node16" class="node"><title>wang_lou</title>
<g id="a_node16"><a xlink:href="the_great_ming_wang_lou_full.html" xlink:title="Wang\nLou">
<polygon fill="none" stroke="red" points="2259.31,-651.876 2215.41,-674.974 2171.5,-651.876 2171.54,-614.503 2259.27,-614.503 2259.31,-651.876"/>
<text text-anchor="middle" x="2215.41" y="-645.346" font-family="Times,serif" font-size="14.00" fill="#ebc72d">Wang</text>
<text text-anchor="middle" x="2215.41" y="-630.346" font-family="Times,serif" font-size="14.00" fill="#ebc72d">Lou</text>
</a>
</g>
</g>
<!-- cheng_bao -->
<g id="node17" class="node"><title>cheng_bao</title>
<g id="a_node17"><a xlink:href="the_great_ming_cheng_bao_full.html" xlink:title="Cheng\nBao">
<polygon fill="none" stroke="red" points="1782.8,-651.876 1737.41,-674.974 1692.01,-651.876 1692.05,-614.503 1782.76,-614.503 1782.8,-651.876"/>
<text text-anchor="middle" x="1737.41" y="-645.346" font-family="Times,serif" font-size="14.00" fill="#ebc72d">Cheng</text>
<text text-anchor="middle" x="1737.41" y="-630.346" font-family="Times,serif" font-size="14.00" fill="#ebc72d">Bao</text>
</a>
</g>
</g>
<!-- nong_min -->
<g id="node18" class="node"><title>nong_min</title>
<g id="a_node18"><a xlink:href="the_great_ming_nong_min_full.html" xlink:title="Nong\nMin">
<ellipse fill="none" stroke="magenta" cx="2053.41" cy="-737.63" rx="33.4697" ry="26.7407"/>
<text text-anchor="middle" x="2053.41" y="-741.43" font-family="Times,serif" font-size="14.00" fill="#ebc72d">Nong</text>
<text text-anchor="middle" x="2053.41" y="-726.43" font-family="Times,serif" font-size="14.00" fill="#ebc72d">Min</text>
</a>
</g>
</g>
<!-- gunpowder -->
<g id="node31" class="node"><title>gunpowder</title>
<g id="a_node31"><a xlink:href="the_great_ming_gunpowder_full.html" xlink:title="Gunpowder">
<polygon fill="none" stroke="green" points="1571.88,-557.12 1450.23,-557.12 1418.93,-521.12 1540.58,-521.12 1571.88,-557.12"/>
<text text-anchor="middle" x="1495.41" y="-535.42" font-family="Times,serif" font-size="14.00" fill="#ebc72d">Gunpowder</text>
</a>
</g>
</g>
<!-- cheng_bao&#45;&gt;gunpowder -->
<g id="edge22" class="edge"><title>cheng_bao&#45;&gt;gunpowder</title>
<path fill="none" stroke="#ebc72d" d="M1691.89,-621.657C1650.39,-604.436 1589.17,-579.032 1546.12,-561.167"/>
<polygon fill="#ebc72d" stroke="#ebc72d" points="1547.26,-557.85 1536.68,-557.25 1544.58,-564.316 1547.26,-557.85"/>
</g>
<!-- nong_min&#45;&gt;bing_ying -->
<g id="edge39" class="edge"><title>nong_min&#45;&gt;bing_ying</title>
<path fill="none" stroke="#ebc72d" stroke-width="2" d="M1031.41,-640.546C992.868,-632.187 961.21,-598.151 941.911,-571.995"/>
<polygon fill="#ebc72d" stroke="#ebc72d" stroke-width="2" points="944.74,-569.934 936.086,-563.822 939.04,-573.997 944.74,-569.934"/>
</g>
<!-- nong_min&#45;&gt;lou_lu -->
<g id="edge43" class="edge"><title>nong_min&#45;&gt;lou_lu</title>
<path fill="none" stroke="#ebc72d" stroke-width="2" d="M2053.41,-640.546C2006.17,-541.269 2102.46,-480.252 2034.41,-393.907 1994.36,-343.096 1915.97,-329.6 1866.83,-326.323"/>
<polygon fill="#ebc72d" stroke="#ebc72d" stroke-width="2" points="1866.99,-322.827 1856.81,-325.77 1866.6,-329.816 1866.99,-322.827"/>
</g>
<!-- nong_min&#45;&gt;siheyuan -->
<g id="edge45" class="edge"><title>nong_min&#45;&gt;siheyuan</title>
<path fill="none" stroke="#ebc72d" stroke-width="2" d="M144.406,-538.12C97.3319,-493.808 122.567,-444.023 163.406,-393.907 265.575,-268.524 469.076,-238.61 572.651,-231.623"/>
<polygon fill="#ebc72d" stroke="#ebc72d" stroke-width="2" points="572.896,-235.115 582.659,-230.999 572.46,-228.128 572.896,-235.115"/>
</g>
<!-- nong_min&#45;&gt;dao_tian -->
<g id="edge41" class="edge"><title>nong_min&#45;&gt;dao_tian</title>
<path fill="none" stroke="#ebc72d" stroke-width="2" d="M2068.9,-713.855C2077.15,-701.72 2087.42,-686.62 2096.39,-673.443"/>
<polygon fill="#ebc72d" stroke="#ebc72d" stroke-width="2" points="2099.33,-675.348 2102.06,-665.112 2093.54,-671.411 2099.33,-675.348"/>
</g>
<!-- nong_min&#45;&gt;bing_gong_chang -->
<g id="edge38" class="edge"><title>nong_min&#45;&gt;bing_gong_chang</title>
<path fill="none" stroke="#ebc72d" stroke-width="2" d="M1031.41,-640.546C918.204,-615.99 1156.87,-561.01 1228.41,-469.907 1239.82,-455.368 1234.65,-446.285 1247.41,-432.907"/>
</g>
<!-- nong_min&#45;&gt;wang_lou -->
<g id="edge46" class="edge"><title>nong_min&#45;&gt;wang_lou</title>
<path fill="none" stroke="#ebc72d" stroke-width="2" d="M2080.41,-721.596C2102.55,-709.203 2134.64,-691.073 2162.41,-674.76 2167.52,-671.754 2172.89,-668.551 2178.16,-665.373"/>
<polygon fill="#ebc72d" stroke="#ebc72d" stroke-width="2" points="2180.15,-668.262 2186.89,-660.09 2176.53,-662.274 2180.15,-668.262"/>
</g>
<!-- nong_min&#45;&gt;cheng_bao -->
<g id="edge40" class="edge"><title>nong_min&#45;&gt;cheng_bao</title>
<path fill="none" stroke="#ebc72d" stroke-width="2" d="M2012.91,-724.573C1955.31,-707.424 1849.81,-676.012 1787.41,-657.433"/>
<polygon fill="#ebc72d" stroke="#ebc72d" stroke-width="2" points="2011.95,-727.938 2022.53,-727.437 2013.95,-721.229 2011.95,-727.938"/>
<polygon fill="#ebc72d" stroke="#ebc72d" stroke-width="2" points="1788.36,-654.065 1777.78,-654.566 1786.36,-660.774 1788.36,-654.065"/>
</g>
<!-- gucha -->
<g id="node21" class="node"><title>gucha</title>
<g id="a_node21"><a xlink:href="the_great_ming_gucha_full.html" xlink:title="Gucha">
<polygon fill="none" stroke="red" points="1842.96,-544.682 1801.41,-557.12 1759.85,-544.682 1759.89,-524.558 1842.92,-524.558 1842.96,-544.682"/>
<text text-anchor="middle" x="1801.41" y="-535.42" font-family="Times,serif" font-size="14.00" fill="#ebc72d">Gucha</text>
</a>
</g>
</g>
<!-- nong_min&#45;&gt;gucha -->
<g id="edge42" class="edge"><title>nong_min&#45;&gt;gucha</title>
<path fill="none" stroke="#ebc72d" stroke-width="2" d="M2059.15,-710.967C2062.23,-691.276 2063.58,-663.933 2053.41,-642.546"/>
<path fill="none" stroke="#ebc72d" stroke-width="2" d="M2053.41,-640.546C2018.52,-567.228 1916.33,-547.115 1853.31,-541.798"/>
<polygon fill="#ebc72d" stroke="#ebc72d" stroke-width="2" points="1853.4,-538.295 1843.17,-541.041 1852.88,-545.276 1853.4,-538.295"/>
</g>
<!-- nong_min&#45;&gt;ma_fang -->
<g id="edge44" class="edge"><title>nong_min&#45;&gt;ma_fang</title>
<path fill="none" stroke="#ebc72d" stroke-width="2" d="M2019.88,-736.469C1890.67,-735.239 1413.26,-725.032 1031.41,-642.546"/>
<path fill="none" stroke="#ebc72d" stroke-width="2" d="M1031.41,-640.546C837.507,-598.661 288.848,-676.087 144.406,-540.12"/>
<path fill="none" stroke="#ebc72d" stroke-width="2" d="M144.406,-538.12C108.204,-504.042 141.722,-467.901 106.406,-432.907"/>
<path fill="none" stroke="#ebc72d" stroke-width="2" d="M106.406,-430.907C89.9052,-414.557 82.7942,-389.659 79.8604,-368.188"/>
<polygon fill="#ebc72d" stroke="#ebc72d" stroke-width="2" points="83.3092,-367.53 78.7329,-357.975 76.3515,-368.298 83.3092,-367.53"/>
</g>
<!-- qi_bing -->
<g id="node20" class="node"><title>qi_bing</title>
<g id="a_node20"><a xlink:href="the_great_ming_qi_bing_full.html" xlink:title="Qi\nBing">
<ellipse fill="none" stroke="magenta" cx="30.4056" cy="-228.61" rx="30.3115" ry="26.7407"/>
<text text-anchor="middle" x="30.4056" y="-232.41" font-family="Times,serif" font-size="14.00" fill="#ebc72d">Qi</text>
<text text-anchor="middle" x="30.4056" y="-217.41" font-family="Times,serif" font-size="14.00" fill="#ebc72d">Bing</text>
</a>
</g>
</g>
<!-- gucha&#45;&gt;sifu_shaolin -->
<g id="edge30" class="edge"><title>gucha&#45;&gt;sifu_shaolin</title>
<path fill="none" stroke="#ebc72d" d="M1810.16,-524.365C1819.62,-509.518 1835.02,-485.341 1847.6,-465.573"/>
<polygon fill="#ebc72d" stroke="#ebc72d" points="1850.56,-467.446 1852.98,-457.131 1844.66,-463.686 1850.56,-467.446"/>
</g>
<!-- cavalry -->
<g id="node28" class="node"><title>cavalry</title>
<g id="a_node28"><a xlink:href="the_great_ming_cavalry_full.html" xlink:title="Cavalry">
<polygon fill="none" stroke="green" points="1467.85,-449.907 1378.06,-449.907 1354.96,-413.907 1444.75,-413.907 1467.85,-449.907"/>
<text text-anchor="middle" x="1411.41" y="-428.207" font-family="Times,serif" font-size="14.00" fill="#ebc72d">Cavalry</text>
</a>
</g>
</g>
<!-- gucha&#45;&gt;cavalry -->
<g id="edge28" class="edge"><title>gucha&#45;&gt;cavalry</title>
<path fill="none" stroke="#ebc72d" d="M1759.67,-529.728C1703.47,-518.081 1600.56,-495.532 1514.41,-469.907 1498.19,-465.084 1480.8,-459.141 1465.01,-453.441"/>
<polygon fill="#ebc72d" stroke="#ebc72d" points="1466,-450.077 1455.41,-449.935 1463.6,-456.653 1466,-450.077"/>
</g>
<!-- advanced_training -->
<g id="node32" class="node"><title>advanced_training</title>
<g id="a_node32"><a xlink:href="the_great_ming_advanced_training_full.html" xlink:title="Advanced\nTraining">
<polygon fill="none" stroke="green" points="1809.12,-469.907 1691.85,-469.907 1661.69,-393.907 1778.96,-393.907 1809.12,-469.907"/>
<text text-anchor="middle" x="1735.41" y="-435.707" font-family="Times,serif" font-size="14.00" fill="#ebc72d">Advanced</text>
<text text-anchor="middle" x="1735.41" y="-420.707" font-family="Times,serif" font-size="14.00" fill="#ebc72d">Training</text>
</a>
</g>
</g>
<!-- gucha&#45;&gt;advanced_training -->
<g id="edge26" class="edge"><title>gucha&#45;&gt;advanced_training</title>
<path fill="none" stroke="#ebc72d" d="M1792.78,-524.365C1785.46,-512.696 1774.52,-495.266 1764.16,-478.742"/>
<polygon fill="#ebc72d" stroke="#ebc72d" points="1767.09,-476.83 1758.81,-470.218 1761.16,-480.55 1767.09,-476.83"/>
</g>
<!-- artillery -->
<g id="node33" class="node"><title>artillery</title>
<g id="a_node33"><a xlink:href="the_great_ming_artillery_full.html" xlink:title="Artillery">
<polygon fill="none" stroke="green" points="1643.48,-449.907 1547.92,-449.907 1523.34,-413.907 1618.89,-413.907 1643.48,-449.907"/>
<text text-anchor="middle" x="1583.41" y="-428.207" font-family="Times,serif" font-size="14.00" fill="#ebc72d">Artillery</text>
</a>
</g>
</g>
<!-- gucha&#45;&gt;artillery -->
<g id="edge27" class="edge"><title>gucha&#45;&gt;artillery</title>
<path fill="none" stroke="#ebc72d" d="M1770.03,-524.444C1739.69,-511.058 1692.54,-489.83 1652.41,-469.907 1642.9,-465.189 1632.78,-459.909 1623.3,-454.847"/>
<polygon fill="#ebc72d" stroke="#ebc72d" points="1624.91,-451.741 1614.45,-450.087 1621.6,-457.906 1624.91,-451.741"/>
</g>
<!-- kung_fu -->
<g id="node35" class="node"><title>kung_fu</title>
<g id="a_node35"><a xlink:href="the_great_ming_kung_fu_full.html" xlink:title="Kung\nFu">
<polygon fill="none" stroke="green" points="2025.36,-469.907 1947.48,-469.907 1927.45,-393.907 2005.33,-393.907 2025.36,-469.907"/>
<text text-anchor="middle" x="1976.41" y="-435.707" font-family="Times,serif" font-size="14.00" fill="#ebc72d">Kung</text>
<text text-anchor="middle" x="1976.41" y="-420.707" font-family="Times,serif" font-size="14.00" fill="#ebc72d">Fu</text>
</a>
</g>
</g>
<!-- gucha&#45;&gt;kung_fu -->
<g id="edge29" class="edge"><title>gucha&#45;&gt;kung_fu</title>
<path fill="none" stroke="#ebc72d" d="M1825.32,-524.548C1849.09,-510.976 1886.49,-489.379 1918.41,-469.907 1923.69,-466.682 1929.22,-463.245 1934.66,-459.815"/>
<polygon fill="#ebc72d" stroke="#ebc72d" points="1936.54,-462.769 1943.12,-454.463 1932.8,-456.855 1936.54,-462.769"/>
</g>
<!-- huo_qiang&#45;&gt;hua_tang_qiang_shou -->
<g id="edge35" class="edge"><title>huo_qiang&#45;&gt;hua_tang_qiang_shou</title>
<path fill="none" stroke="#ebc72d" stroke-dasharray="5,2" d="M1170.11,-407.032C1161.79,-393.145 1151.17,-375.405 1141.97,-360.038"/>
<polygon fill="#ebc72d" stroke="#ebc72d" points="1144.89,-358.093 1136.75,-351.312 1138.88,-361.689 1144.89,-358.093"/>
</g>
<!-- ma_fang&#45;&gt;qi_she_shou -->
<g id="edge37" class="edge"><title>ma_fang&#45;&gt;qi_she_shou</title>
<path fill="none" stroke="#ebc72d" d="M91.7763,-297.486C97.1075,-287.036 103.316,-274.868 108.991,-263.743"/>
<polygon fill="#ebc72d" stroke="#ebc72d" points="112.176,-265.203 113.603,-254.705 105.94,-262.022 112.176,-265.203"/>
</g>
<!-- ma_fang&#45;&gt;qi_bing -->
<g id="edge36" class="edge"><title>ma_fang&#45;&gt;qi_bing</title>
<path fill="none" stroke="#ebc72d" d="M65.0349,-297.486C59.5303,-286.697 53.0908,-274.075 47.2679,-262.661"/>
<polygon fill="#ebc72d" stroke="#ebc72d" points="50.2181,-260.743 42.5558,-253.425 43.9828,-263.924 50.2181,-260.743"/>
</g>
<!-- ying_che&#45;&gt;ying_che_ -->
<g id="edge50" class="edge"><title>ying_che&#45;&gt;ying_che_</title>
<path fill="none" stroke="#ebc72d" stroke-dasharray="5,2" d="M1371.41,-201.633C1371.41,-190.482 1371.41,-177.257 1371.41,-165.154"/>
<polygon fill="#ebc72d" stroke="#ebc72d" points="1374.91,-164.887 1371.41,-154.887 1367.91,-164.887 1374.91,-164.887"/>
</g>
<!-- she_shou&#45;&gt;huo_jian_bing -->
<g id="edge47" class="edge"><title>she_shou&#45;&gt;huo_jian_bing</title>
<path fill="none" stroke="#ebc72d" stroke-dasharray="5,2" d="M1325.7,-410.75C1331.96,-404.87 1339.16,-398.733 1346.41,-393.907 1377.59,-373.12 1416.14,-355.662 1446.22,-343.613"/>
<polygon fill="#ebc72d" stroke="#ebc72d" points="1447.64,-346.814 1455.66,-339.893 1445.07,-340.3 1447.64,-346.814"/>
</g>
<!-- cavalry&#45;&gt;ma_fang -->
<g id="edge21" class="edge"><title>cavalry&#45;&gt;ma_fang</title>
<path fill="none" stroke="#ebc72d" stroke-dasharray="1,5" d="M1387.62,-413.814C1375.81,-406.283 1360.98,-398.187 1346.41,-393.907 1227.91,-359.111 345.348,-332.966 127.103,-326.988"/>
<polygon fill="#ebc72d" stroke="#ebc72d" points="127.013,-323.484 116.921,-326.71 126.822,-330.481 127.013,-323.484"/>
</g>
<!-- european_trading&#45;&gt;folang_zhi -->
<g id="edge25" class="edge"><title>european_trading&#45;&gt;folang_zhi</title>
<path fill="none" stroke="#ebc72d" stroke-dasharray="1,5" d="M667.02,-89.6433C662.465,-80.4523 657.609,-70.6536 653.138,-61.6316"/>
<polygon fill="#ebc72d" stroke="#ebc72d" points="656.223,-59.9749 648.646,-52.5691 649.951,-63.0833 656.223,-59.9749"/>
</g>
<!-- gunpowder&#45;&gt;huo_jian_bing -->
<g id="edge33" class="edge"><title>gunpowder&#45;&gt;huo_jian_bing</title>
<path fill="none" stroke="#ebc72d" stroke-dasharray="1,5" d="M1495.41,-521.095C1495.41,-486.752 1495.41,-408.504 1495.41,-362.118"/>
<polygon fill="#ebc72d" stroke="#ebc72d" points="1498.91,-361.894 1495.41,-351.894 1491.91,-361.894 1498.91,-361.894"/>
</g>
<!-- gunpowder&#45;&gt;huo_qiang -->
<g id="edge34" class="edge"><title>gunpowder&#45;&gt;huo_qiang</title>
<path fill="none" stroke="#ebc72d" stroke-dasharray="1,5" d="M1424.39,-527.41C1370.14,-517.413 1294.54,-499.494 1233.41,-469.907 1227.22,-466.912 1221.04,-463.077 1215.25,-459.016"/>
<polygon fill="#ebc72d" stroke="#ebc72d" points="1217.22,-456.121 1207.11,-452.976 1213.05,-461.744 1217.22,-456.121"/>
</g>
<!-- gunpowder&#45;&gt;cavalry -->
<g id="edge32" class="edge"><title>gunpowder&#45;&gt;cavalry</title>
<path fill="none" stroke="#ebc72d" stroke-dasharray="1,5" d="M1481.53,-520.746C1467.83,-503.586 1446.74,-477.17 1431.27,-457.787"/>
<polygon fill="#ebc72d" stroke="#ebc72d" points="1433.99,-455.588 1425.02,-449.957 1428.52,-459.956 1433.99,-455.588"/>
</g>
<!-- gunpowder&#45;&gt;artillery -->
<g id="edge31" class="edge"><title>gunpowder&#45;&gt;artillery</title>
<path fill="none" stroke="#ebc72d" stroke-dasharray="1,5" d="M1509.94,-520.746C1524.29,-503.586 1546.38,-477.17 1562.6,-457.787"/>
<polygon fill="#ebc72d" stroke="#ebc72d" points="1565.41,-459.873 1569.14,-449.957 1560.04,-455.382 1565.41,-459.873"/>
</g>
<!-- advanced_training&#45;&gt;huo_jian_bing -->
<g id="edge1" class="edge"><title>advanced_training&#45;&gt;huo_jian_bing</title>
<path fill="none" stroke="#ebc72d" stroke-dasharray="1,5" d="M1663.44,-398.777C1659.71,-397.127 1656.02,-395.495 1652.41,-393.907 1615.43,-377.633 1573.45,-359.408 1542.21,-345.893"/>
<polygon fill="#ebc72d" stroke="#ebc72d" points="1543.45,-342.614 1532.88,-341.857 1540.67,-349.039 1543.45,-342.614"/>
</g>
<!-- artillery&#45;&gt;lou_lu -->
<g id="edge3" class="edge"><title>artillery&#45;&gt;lou_lu</title>
<path fill="none" stroke="#ebc72d" stroke-dasharray="1,5" d="M1613.6,-413.764C1625.54,-407.24 1639.47,-399.933 1652.41,-393.907 1696.24,-373.492 1747.98,-353.385 1782.98,-340.35"/>
<polygon fill="#ebc72d" stroke="#ebc72d" points="1784.22,-343.622 1792.38,-336.867 1781.79,-337.057 1784.22,-343.622"/>
</g>
<!-- artillery&#45;&gt;bing_gong_chang -->
<g id="edge2" class="edge"><title>artillery&#45;&gt;bing_gong_chang</title>
<path fill="none" stroke="#ebc72d" stroke-dasharray="1,5" d="M1536.65,-413.885C1486.47,-395.615 1406.67,-366.565 1352.49,-346.841"/>
<polygon fill="#ebc72d" stroke="#ebc72d" points="1353.62,-343.525 1343.02,-343.393 1351.22,-350.103 1353.62,-343.525"/>
</g>
</g>
</svg>
