<?xml version="1.0" encoding="UTF-8" standalone="no"?>
<!DOCTYPE svg PUBLIC "-//W3C//DTD SVG 1.1//EN"
 "http://www.w3.org/Graphics/SVG/1.1/DTD/svg11.dtd">
<!-- Generated by graphviz version 2.38.0 (20140413.2041)
 -->
<!-- Title: test Pages: 1 -->
<svg width="1190pt" height="446pt"
 viewBox="0.00 0.00 1190.27 446.07" xmlns="http://www.w3.org/2000/svg" xmlns:xlink="http://www.w3.org/1999/xlink">
<g id="graph0" class="graph" transform="scale(1 1) rotate(0) translate(4 442.073)">
<title>test</title>
<polygon fill="#151515" stroke="none" points="-4,4 -4,-442.073 1186.27,-442.073 1186.27,4 -4,4"/>
<!-- folang_zhi -->
<g id="node1" class="node"><title>folang_zhi</title>
<g id="a_node1"><a xlink:href="the_great_ming_folang_zhi_full.html" xlink:title="Folang\nZhi">
<ellipse fill="none" stroke="magenta" cx="38.1838" cy="-212.693" rx="38.3684" ry="26.7407"/>
<text text-anchor="middle" x="38.1838" y="-216.493" font-family="Times,serif" font-size="14.00" fill="#ebc72d">Folang</text>
<text text-anchor="middle" x="38.1838" y="-201.493" font-family="Times,serif" font-size="14.00" fill="#ebc72d">Zhi</text>
</a>
</g>
</g>
<!-- bing_ying -->
<g id="node2" class="node"><title>bing_ying</title>
<g id="a_node2"><a xlink:href="the_great_ming_bing_ying_full.html" xlink:title="Bing\nYing">
<polygon fill="none" stroke="red" points="445.599,-325.45 407.184,-348.548 368.769,-325.45 368.805,-288.076 445.563,-288.076 445.599,-325.45"/>
<text text-anchor="middle" x="407.184" y="-318.92" font-family="Times,serif" font-size="14.00" fill="#ebc72d">Bing</text>
<text text-anchor="middle" x="407.184" y="-303.92" font-family="Times,serif" font-size="14.00" fill="#ebc72d">Ying</text>
</a>
</g>
</g>
<!-- qi_zhi -->
<g id="node4" class="node"><title>qi_zhi</title>
<g id="a_node4"><a xlink:href="the_great_ming_qi_zhi_full.html" xlink:title="Qi\nZhi">
<ellipse fill="none" stroke="magenta" cx="328.184" cy="-212.693" rx="27" ry="26.7407"/>
<text text-anchor="middle" x="328.184" y="-216.493" font-family="Times,serif" font-size="14.00" fill="#ebc72d">Qi</text>
<text text-anchor="middle" x="328.184" y="-201.493" font-family="Times,serif" font-size="14.00" fill="#ebc72d">Zhi</text>
</a>
</g>
</g>
<!-- bing_ying&#45;&gt;qi_zhi -->
<g id="edge8" class="edge"><title>bing_ying&#45;&gt;qi_zhi</title>
<path fill="none" stroke="#ebc72d" d="M386.634,-287.996C375.627,-274.005 362.048,-256.743 350.749,-242.379"/>
<polygon fill="#ebc72d" stroke="#ebc72d" points="353.331,-240 344.397,-234.304 347.829,-244.328 353.331,-240"/>
</g>
<!-- liang_xian -->
<g id="node6" class="node"><title>liang_xian</title>
<g id="a_node6"><a xlink:href="the_great_ming_liang_xian_full.html" xlink:title="Liang\nXian">
<ellipse fill="none" stroke="magenta" cx="407.184" cy="-212.693" rx="33.8824" ry="26.7407"/>
<text text-anchor="middle" x="407.184" y="-216.493" font-family="Times,serif" font-size="14.00" fill="#ebc72d">Liang</text>
<text text-anchor="middle" x="407.184" y="-201.493" font-family="Times,serif" font-size="14.00" fill="#ebc72d">Xian</text>
</a>
</g>
</g>
<!-- bing_ying&#45;&gt;liang_xian -->
<g id="edge7" class="edge"><title>bing_ying&#45;&gt;liang_xian</title>
<path fill="none" stroke="#ebc72d" d="M407.184,-287.996C407.184,-276.373 407.184,-262.492 407.184,-249.892"/>
<polygon fill="#ebc72d" stroke="#ebc72d" points="410.684,-249.686 407.184,-239.686 403.684,-249.686 410.684,-249.686"/>
</g>
<!-- teng_pai_bing -->
<g id="node7" class="node"><title>teng_pai_bing</title>
<g id="a_node7"><a xlink:href="the_great_ming_teng_pai_bing_full.html" xlink:title="Teng\nPai Bing">
<ellipse fill="none" stroke="magenta" cx="504.184" cy="-212.693" rx="45.011" ry="26.7407"/>
<text text-anchor="middle" x="504.184" y="-216.493" font-family="Times,serif" font-size="14.00" fill="#ebc72d">Teng</text>
<text text-anchor="middle" x="504.184" y="-201.493" font-family="Times,serif" font-size="14.00" fill="#ebc72d">Pai Bing</text>
</a>
</g>
</g>
<!-- bing_ying&#45;&gt;teng_pai_bing -->
<g id="edge10" class="edge"><title>bing_ying&#45;&gt;teng_pai_bing</title>
<path fill="none" stroke="#ebc72d" d="M432.416,-287.996C445.488,-274.462 461.516,-257.868 475.106,-243.798"/>
<polygon fill="#ebc72d" stroke="#ebc72d" points="477.942,-245.9 482.372,-236.276 472.907,-241.037 477.942,-245.9"/>
</g>
<!-- ji_bing -->
<g id="node19" class="node"><title>ji_bing</title>
<g id="a_node19"><a xlink:href="the_great_ming_ji_bing_full.html" xlink:title="Ji\nBing">
<ellipse fill="none" stroke="magenta" cx="598.184" cy="-212.693" rx="30.3115" ry="26.7407"/>
<text text-anchor="middle" x="598.184" y="-216.493" font-family="Times,serif" font-size="14.00" fill="#ebc72d">Ji</text>
<text text-anchor="middle" x="598.184" y="-201.493" font-family="Times,serif" font-size="14.00" fill="#ebc72d">Bing</text>
</a>
</g>
</g>
<!-- bing_ying&#45;&gt;ji_bing -->
<g id="edge6" class="edge"><title>bing_ying&#45;&gt;ji_bing</title>
<path fill="none" stroke="#ebc72d" d="M445.767,-299.846C477.113,-287.516 521.914,-268.201 558.184,-245.907 561.773,-243.7 565.4,-241.211 568.928,-238.619"/>
<polygon fill="#ebc72d" stroke="#ebc72d" points="571.13,-241.34 576.919,-232.466 566.86,-235.794 571.13,-241.34"/>
</g>
<!-- hua_tang_qiang_shou -->
<g id="node22" class="node"><title>hua_tang_qiang_shou</title>
<g id="a_node22"><a xlink:href="the_great_ming_hua_tang_qiang_shou_full.html" xlink:title="Hua\nTang Qiang Shou">
<ellipse fill="none" stroke="magenta" cx="130.184" cy="-116.61" rx="79.8063" ry="26.7407"/>
<text text-anchor="middle" x="130.184" y="-120.41" font-family="Times,serif" font-size="14.00" fill="#ebc72d">Hua</text>
<text text-anchor="middle" x="130.184" y="-105.41" font-family="Times,serif" font-size="14.00" fill="#ebc72d">Tang Qiang Shou</text>
</a>
</g>
</g>
<!-- bing_ying&#45;&gt;hua_tang_qiang_shou -->
<g id="edge4" class="edge"><title>bing_ying&#45;&gt;hua_tang_qiang_shou</title>
<path fill="none" stroke="#ebc72d" d="M370.991,-287.947C367.108,-285.715 363.132,-283.649 359.184,-281.907 297.646,-254.748 265.907,-286.382 212.184,-245.907 185.018,-225.44 192.506,-208.135 174.184,-179.48 168.211,-170.139 161.413,-160.257 154.976,-151.198"/>
<polygon fill="#ebc72d" stroke="#ebc72d" points="157.63,-148.892 148.955,-142.809 151.943,-152.973 157.63,-148.892"/>
</g>
<!-- huo_qiang -->
<g id="node24" class="node"><title>huo_qiang</title>
<g id="a_node24"><a xlink:href="the_great_ming_huo_qiang_full.html" xlink:title="Huo\nQiang">
<ellipse fill="none" stroke="magenta" cx="130.184" cy="-212.693" rx="35.2113" ry="26.7407"/>
<text text-anchor="middle" x="130.184" y="-216.493" font-family="Times,serif" font-size="14.00" fill="#ebc72d">Huo</text>
<text text-anchor="middle" x="130.184" y="-201.493" font-family="Times,serif" font-size="14.00" fill="#ebc72d">Qiang</text>
</a>
</g>
</g>
<!-- bing_ying&#45;&gt;huo_qiang -->
<g id="edge5" class="edge"><title>bing_ying&#45;&gt;huo_qiang</title>
<path fill="none" stroke="#ebc72d" d="M371.338,-287.924C367.354,-285.667 363.261,-283.603 359.184,-281.907 283.858,-250.57 254.658,-276.885 179.184,-245.907 173.754,-243.678 168.284,-240.819 163.068,-237.727"/>
<polygon fill="#ebc72d" stroke="#ebc72d" points="164.906,-234.749 154.581,-232.373 161.172,-240.669 164.906,-234.749"/>
</g>
<!-- she_shou -->
<g id="node27" class="node"><title>she_shou</title>
<g id="a_node27"><a xlink:href="the_great_ming_she_shou_full.html" xlink:title="She\nShou">
<ellipse fill="none" stroke="magenta" cx="252.184" cy="-212.693" rx="31.2258" ry="26.7407"/>
<text text-anchor="middle" x="252.184" y="-216.493" font-family="Times,serif" font-size="14.00" fill="#ebc72d">She</text>
<text text-anchor="middle" x="252.184" y="-201.493" font-family="Times,serif" font-size="14.00" fill="#ebc72d">Shou</text>
</a>
</g>
</g>
<!-- bing_ying&#45;&gt;she_shou -->
<g id="edge9" class="edge"><title>bing_ying&#45;&gt;she_shou</title>
<path fill="none" stroke="#ebc72d" d="M368.886,-287.937C365.629,-285.857 362.365,-283.822 359.184,-281.907 330.226,-264.467 320.357,-264.588 292.184,-245.907 288.673,-243.578 285.095,-241.012 281.595,-238.375"/>
<polygon fill="#ebc72d" stroke="#ebc72d" points="283.676,-235.56 273.637,-232.173 279.372,-241.081 283.676,-235.56"/>
</g>
<!-- lou_lu -->
<g id="node3" class="node"><title>lou_lu</title>
<g id="a_node3"><a xlink:href="the_great_ming_lou_lu_full.html" xlink:title="Lou\nLu">
<polygon fill="none" stroke="red" points="713.612,-223.023 680.184,-246.121 646.756,-223.023 646.787,-185.65 713.58,-185.65 713.612,-223.023"/>
<text text-anchor="middle" x="680.184" y="-216.493" font-family="Times,serif" font-size="14.00" fill="#ebc72d">Lou</text>
<text text-anchor="middle" x="680.184" y="-201.493" font-family="Times,serif" font-size="14.00" fill="#ebc72d">Lu</text>
</a>
</g>
</g>
<!-- huo_jian_bing -->
<g id="node5" class="node"><title>huo_jian_bing</title>
<g id="a_node5"><a xlink:href="the_great_ming_huo_jian_bing_full.html" xlink:title="Huo\nJian Bing">
<ellipse fill="none" stroke="magenta" cx="276.184" cy="-116.61" rx="48.1667" ry="26.7407"/>
<text text-anchor="middle" x="276.184" y="-120.41" font-family="Times,serif" font-size="14.00" fill="#ebc72d">Huo</text>
<text text-anchor="middle" x="276.184" y="-105.41" font-family="Times,serif" font-size="14.00" fill="#ebc72d">Jian Bing</text>
</a>
</g>
</g>
<!-- siheyuan -->
<g id="node8" class="node"><title>siheyuan</title>
<g id="a_node8"><a xlink:href="the_great_ming_siheyuan_full.html" xlink:title="Siheyuan">
<polygon fill="none" stroke="red" points="166.836,-320.682 113.184,-333.12 59.5312,-320.682 59.5813,-300.558 166.786,-300.558 166.836,-320.682"/>
<text text-anchor="middle" x="113.184" y="-311.42" font-family="Times,serif" font-size="14.00" fill="#ebc72d">Siheyuan</text>
</a>
</g>
</g>
<!-- siheyuan&#45;&gt;folang_zhi -->
<g id="edge30" class="edge"><title>siheyuan&#45;&gt;folang_zhi</title>
<path fill="none" stroke="#ebc72d" d="M102.755,-300.156C92.1445,-285.948 75.3417,-263.449 61.5364,-244.963"/>
<polygon fill="#ebc72d" stroke="#ebc72d" points="64.2253,-242.714 55.4373,-236.796 58.6168,-246.903 64.2253,-242.714"/>
</g>
<!-- qi_she_shou -->
<g id="node9" class="node"><title>qi_she_shou</title>
<g id="a_node9"><a xlink:href="the_great_ming_qi_she_shou_full.html" xlink:title="Qi\nShe Shou">
<ellipse fill="none" stroke="magenta" cx="1134.18" cy="-116.61" rx="48.1667" ry="26.7407"/>
<text text-anchor="middle" x="1134.18" y="-120.41" font-family="Times,serif" font-size="14.00" fill="#ebc72d">Qi</text>
<text text-anchor="middle" x="1134.18" y="-105.41" font-family="Times,serif" font-size="14.00" fill="#ebc72d">She Shou</text>
</a>
</g>
</g>
<!-- zhu -->
<g id="node10" class="node"><title>zhu</title>
<g id="a_node10"><a xlink:href="the_great_ming_zhu_full.html" xlink:title="Zhu">
<ellipse fill="none" stroke="magenta" cx="1121.18" cy="-212.693" rx="27" ry="18"/>
<text text-anchor="middle" x="1121.18" y="-208.993" font-family="Times,serif" font-size="14.00" fill="#ebc72d">Zhu</text>
</a>
</g>
</g>
<!-- sifu_shaolin -->
<g id="node11" class="node"><title>sifu_shaolin</title>
<g id="a_node11"><a xlink:href="the_great_ming_sifu_shaolin_full.html" xlink:title="Sifu\nShaolin">
<ellipse fill="none" stroke="magenta" cx="772.184" cy="-212.693" rx="41.0244" ry="26.7407"/>
<text text-anchor="middle" x="772.184" y="-216.493" font-family="Times,serif" font-size="14.00" fill="#ebc72d">Sifu</text>
<text text-anchor="middle" x="772.184" y="-201.493" font-family="Times,serif" font-size="14.00" fill="#ebc72d">Shaolin</text>
</a>
</g>
</g>
<!-- dao_tian -->
<g id="node12" class="node"><title>dao_tian</title>
<g id="a_node12"><a xlink:href="the_great_ming_dao_tian_full.html" xlink:title="Dao\nTian">
<polygon fill="none" stroke="red" points="1005.86,-325.45 970.184,-348.548 934.512,-325.45 934.546,-288.076 1005.82,-288.076 1005.86,-325.45"/>
<text text-anchor="middle" x="970.184" y="-318.92" font-family="Times,serif" font-size="14.00" fill="#ebc72d">Dao</text>
<text text-anchor="middle" x="970.184" y="-303.92" font-family="Times,serif" font-size="14.00" fill="#ebc72d">Tian</text>
</a>
</g>
</g>
<!-- dao_tian&#45;&gt;zhu -->
<g id="edge12" class="edge"><title>dao_tian&#45;&gt;zhu</title>
<path fill="none" stroke="#ebc72d" d="M1005.72,-287.964C1008.89,-285.857 1012.07,-283.809 1015.18,-281.907 1045.04,-263.676 1056.36,-265.732 1085.18,-245.907 1089.93,-242.639 1094.73,-238.803 1099.2,-234.94"/>
<polygon fill="#ebc72d" stroke="#ebc72d" points="1101.74,-237.366 1106.83,-228.074 1097.06,-232.164 1101.74,-237.366"/>
</g>
<!-- ying_che_ -->
<g id="node13" class="node"><title>ying_che_</title>
<g id="a_node13"><a xlink:href="the_great_ming_ying_che__full.html" xlink:title="Ying\nChe ">
<ellipse fill="none" stroke="magenta" cx="958.184" cy="-26.8701" rx="31.2258" ry="26.7407"/>
<text text-anchor="middle" x="958.184" y="-30.6701" font-family="Times,serif" font-size="14.00" fill="#ebc72d">Ying</text>
<text text-anchor="middle" x="958.184" y="-15.6701" font-family="Times,serif" font-size="14.00" fill="#ebc72d">Che </text>
</a>
</g>
</g>
<!-- bing_gong_chang -->
<g id="node14" class="node"><title>bing_gong_chang</title>
<g id="a_node14"><a xlink:href="the_great_ming_bing_gong_chang_full.html" xlink:title="Bing\nGong Chang">
<polygon fill="none" stroke="red" points="981.518,-223.023 906.184,-246.121 830.85,-223.023 830.92,-185.65 981.447,-185.65 981.518,-223.023"/>
<text text-anchor="middle" x="906.184" y="-216.493" font-family="Times,serif" font-size="14.00" fill="#ebc72d">Bing</text>
<text text-anchor="middle" x="906.184" y="-201.493" font-family="Times,serif" font-size="14.00" fill="#ebc72d">Gong Chang</text>
</a>
</g>
</g>
<!-- da_jiang_jun_chong -->
<g id="node15" class="node"><title>da_jiang_jun_chong</title>
<g id="a_node15"><a xlink:href="the_great_ming_da_jiang_jun_chong_full.html" xlink:title="Da\nJiang Jun Chong">
<ellipse fill="none" stroke="magenta" cx="759.184" cy="-116.61" rx="75.8212" ry="26.7407"/>
<text text-anchor="middle" x="759.184" y="-120.41" font-family="Times,serif" font-size="14.00" fill="#ebc72d">Da</text>
<text text-anchor="middle" x="759.184" y="-105.41" font-family="Times,serif" font-size="14.00" fill="#ebc72d">Jiang Jun Chong</text>
</a>
</g>
</g>
<!-- bing_gong_chang&#45;&gt;da_jiang_jun_chong -->
<g id="edge1" class="edge"><title>bing_gong_chang&#45;&gt;da_jiang_jun_chong</title>
<path fill="none" stroke="#ebc72d" d="M865.236,-185.486C845.995,-173.172 823.025,-158.47 803.39,-145.903"/>
<polygon fill="#ebc72d" stroke="#ebc72d" points="805.224,-142.922 794.915,-140.479 801.451,-148.818 805.224,-142.922"/>
</g>
<!-- huo_che -->
<g id="node23" class="node"><title>huo_che</title>
<g id="a_node23"><a xlink:href="the_great_ming_huo_che_full.html" xlink:title="Huo\nChe">
<ellipse fill="none" stroke="magenta" cx="881.184" cy="-116.61" rx="28.0702" ry="26.7407"/>
<text text-anchor="middle" x="881.184" y="-120.41" font-family="Times,serif" font-size="14.00" fill="#ebc72d">Huo</text>
<text text-anchor="middle" x="881.184" y="-105.41" font-family="Times,serif" font-size="14.00" fill="#ebc72d">Che</text>
</a>
</g>
</g>
<!-- bing_gong_chang&#45;&gt;huo_che -->
<g id="edge2" class="edge"><title>bing_gong_chang&#45;&gt;huo_che</title>
<path fill="none" stroke="#ebc72d" d="M899.22,-185.486C896.548,-175.432 893.454,-163.788 890.591,-153.012"/>
<polygon fill="#ebc72d" stroke="#ebc72d" points="893.889,-151.794 887.938,-143.028 887.123,-153.591 893.889,-151.794"/>
</g>
<!-- ying_che -->
<g id="node26" class="node"><title>ying_che</title>
<g id="a_node26"><a xlink:href="the_great_ming_ying_che_full.html" xlink:title="Ying\nChe">
<ellipse fill="none" stroke="magenta" cx="958.184" cy="-116.61" rx="31.2258" ry="26.7407"/>
<text text-anchor="middle" x="958.184" y="-120.41" font-family="Times,serif" font-size="14.00" fill="#ebc72d">Ying</text>
<text text-anchor="middle" x="958.184" y="-105.41" font-family="Times,serif" font-size="14.00" fill="#ebc72d">Che</text>
</a>
</g>
</g>
<!-- bing_gong_chang&#45;&gt;ying_che -->
<g id="edge3" class="edge"><title>bing_gong_chang&#45;&gt;ying_che</title>
<path fill="none" stroke="#ebc72d" d="M920.669,-185.486C926.739,-174.503 933.859,-161.621 940.255,-150.048"/>
<polygon fill="#ebc72d" stroke="#ebc72d" points="943.422,-151.554 945.196,-141.109 937.295,-148.168 943.422,-151.554"/>
</g>
<!-- wang_lou -->
<g id="node16" class="node"><title>wang_lou</title>
<g id="a_node16"><a xlink:href="the_great_ming_wang_lou_full.html" xlink:title="Wang\nLou">
<polygon fill="none" stroke="red" points="1112.09,-325.45 1068.18,-348.548 1024.28,-325.45 1024.32,-288.076 1112.05,-288.076 1112.09,-325.45"/>
<text text-anchor="middle" x="1068.18" y="-318.92" font-family="Times,serif" font-size="14.00" fill="#ebc72d">Wang</text>
<text text-anchor="middle" x="1068.18" y="-303.92" font-family="Times,serif" font-size="14.00" fill="#ebc72d">Lou</text>
</a>
</g>
</g>
<!-- cheng_bao -->
<g id="node17" class="node"><title>cheng_bao</title>
<g id="a_node17"><a xlink:href="the_great_ming_cheng_bao_full.html" xlink:title="Cheng\nBao">
<polygon fill="none" stroke="red" points="350.583,-325.45 305.184,-348.548 259.784,-325.45 259.827,-288.076 350.541,-288.076 350.583,-325.45"/>
<text text-anchor="middle" x="305.184" y="-318.92" font-family="Times,serif" font-size="14.00" fill="#ebc72d">Cheng</text>
<text text-anchor="middle" x="305.184" y="-303.92" font-family="Times,serif" font-size="14.00" fill="#ebc72d">Bao</text>
</a>
</g>
</g>
<!-- nong_min -->
<g id="node18" class="node"><title>nong_min</title>
<g id="a_node18"><a xlink:href="the_great_ming_nong_min_full.html" xlink:title="Nong\nMin">
<ellipse fill="none" stroke="magenta" cx="737.184" cy="-411.203" rx="33.4697" ry="26.7407"/>
<text text-anchor="middle" x="737.184" y="-415.003" font-family="Times,serif" font-size="14.00" fill="#ebc72d">Nong</text>
<text text-anchor="middle" x="737.184" y="-400.003" font-family="Times,serif" font-size="14.00" fill="#ebc72d">Min</text>
</a>
</g>
</g>
<!-- nong_min&#45;&gt;bing_ying -->
<g id="edge21" class="edge"><title>nong_min&#45;&gt;bing_ying</title>
<path fill="none" stroke="#ebc72d" stroke-width="2" d="M706.138,-401.352C647.873,-384.741 521.87,-348.817 453.526,-329.332"/>
<polygon fill="#ebc72d" stroke="#ebc72d" stroke-width="2" points="454.452,-325.957 443.876,-326.581 452.533,-332.689 454.452,-325.957"/>
</g>
<!-- nong_min&#45;&gt;lou_lu -->
<g id="edge25" class="edge"><title>nong_min&#45;&gt;lou_lu</title>
<path fill="none" stroke="#ebc72d" stroke-width="2" d="M729.849,-384.915C719.946,-350.777 702.235,-289.714 690.857,-250.489"/>
<polygon fill="#ebc72d" stroke="#ebc72d" stroke-width="2" points="694.186,-249.403 688.039,-240.774 687.463,-251.353 694.186,-249.403"/>
</g>
<!-- nong_min&#45;&gt;siheyuan -->
<g id="edge27" class="edge"><title>nong_min&#45;&gt;siheyuan</title>
<path fill="none" stroke="#ebc72d" stroke-width="2" d="M704.298,-407.194C625.623,-399.739 420.492,-378.788 251.184,-348.333 219.622,-342.656 184.423,-334.409 157.474,-327.68"/>
<polygon fill="#ebc72d" stroke="#ebc72d" stroke-width="2" points="158.127,-324.235 147.575,-325.184 156.416,-331.023 158.127,-324.235"/>
</g>
<!-- nong_min&#45;&gt;dao_tian -->
<g id="edge23" class="edge"><title>nong_min&#45;&gt;dao_tian</title>
<path fill="none" stroke="#ebc72d" stroke-width="2" d="M768.534,-402.15C805.729,-392.024 869.128,-372.944 920.184,-348.333 925.983,-345.538 931.923,-342.193 937.591,-338.733"/>
<polygon fill="#ebc72d" stroke="#ebc72d" stroke-width="2" points="939.646,-341.575 946.215,-333.263 935.896,-335.664 939.646,-341.575"/>
</g>
<!-- nong_min&#45;&gt;bing_gong_chang -->
<g id="edge20" class="edge"><title>nong_min&#45;&gt;bing_gong_chang</title>
<path fill="none" stroke="#ebc72d" stroke-width="2" d="M766.909,-399.026C803.078,-384.304 864.47,-355.583 906.184,-316.12"/>
<path fill="none" stroke="#ebc72d" stroke-width="2" d="M906.184,-314.12C922.184,-298.983 922.393,-274.33 918.499,-253.239"/>
<polygon fill="#ebc72d" stroke="#ebc72d" stroke-width="2" points="921.866,-252.25 916.31,-243.229 915.027,-253.746 921.866,-252.25"/>
</g>
<!-- nong_min&#45;&gt;wang_lou -->
<g id="edge28" class="edge"><title>nong_min&#45;&gt;wang_lou</title>
<path fill="none" stroke="#ebc72d" stroke-width="2" d="M770.322,-406.39C823.513,-399.492 930.553,-382.387 1015.18,-348.333 1021.08,-345.959 1027.08,-342.966 1032.82,-339.765"/>
<polygon fill="#ebc72d" stroke="#ebc72d" stroke-width="2" points="1034.72,-342.708 1041.57,-334.625 1031.18,-336.673 1034.72,-342.708"/>
</g>
<!-- nong_min&#45;&gt;cheng_bao -->
<g id="edge22" class="edge"><title>nong_min&#45;&gt;cheng_bao</title>
<path fill="none" stroke="#ebc72d" stroke-width="2" d="M693.904,-408.236C622.441,-403.869 476.143,-390.169 360.184,-348.333 353.82,-346.037 347.358,-343 341.209,-339.708"/>
<polygon fill="#ebc72d" stroke="#ebc72d" stroke-width="2" points="693.706,-411.731 703.892,-408.815 694.111,-404.742 693.706,-411.731"/>
<polygon fill="#ebc72d" stroke="#ebc72d" stroke-width="2" points="342.896,-336.641 332.471,-334.757 339.446,-342.731 342.896,-336.641"/>
</g>
<!-- gucha -->
<g id="node21" class="node"><title>gucha</title>
<g id="a_node21"><a xlink:href="the_great_ming_gucha_full.html" xlink:title="Gucha">
<polygon fill="none" stroke="red" points="813.736,-320.682 772.184,-333.12 730.632,-320.682 730.671,-300.558 813.697,-300.558 813.736,-320.682"/>
<text text-anchor="middle" x="772.184" y="-311.42" font-family="Times,serif" font-size="14.00" fill="#ebc72d">Gucha</text>
</a>
</g>
</g>
<!-- nong_min&#45;&gt;gucha -->
<g id="edge24" class="edge"><title>nong_min&#45;&gt;gucha</title>
<path fill="none" stroke="#ebc72d" stroke-width="2" d="M746.563,-384.991C751.597,-371.458 757.784,-354.828 762.816,-341.3"/>
<polygon fill="#ebc72d" stroke="#ebc72d" stroke-width="2" points="766.195,-342.255 766.402,-331.662 759.635,-339.815 766.195,-342.255"/>
</g>
<!-- ma_fang -->
<g id="node25" class="node"><title>ma_fang</title>
<g id="a_node25"><a xlink:href="the_great_ming_ma_fang_full.html" xlink:title="Ma\nFang">
<polygon fill="none" stroke="red" points="1076.6,-223.023 1038.18,-246.121 999.769,-223.023 999.805,-185.65 1076.56,-185.65 1076.6,-223.023"/>
<text text-anchor="middle" x="1038.18" y="-216.493" font-family="Times,serif" font-size="14.00" fill="#ebc72d">Ma</text>
<text text-anchor="middle" x="1038.18" y="-201.493" font-family="Times,serif" font-size="14.00" fill="#ebc72d">Fang</text>
</a>
</g>
</g>
<!-- nong_min&#45;&gt;ma_fang -->
<g id="edge26" class="edge"><title>nong_min&#45;&gt;ma_fang</title>
<path fill="none" stroke="#ebc72d" stroke-width="2" d="M906.184,-314.12C918.258,-302.697 913.272,-293.5 925.184,-281.907 948.849,-258.874 962.003,-263.124 990.184,-245.907 994.894,-243.029 999.796,-239.901 1004.59,-236.763"/>
<polygon fill="#ebc72d" stroke="#ebc72d" stroke-width="2" points="1006.64,-239.602 1013.04,-231.155 1002.77,-233.77 1006.64,-239.602"/>
</g>
<!-- qi_bing -->
<g id="node20" class="node"><title>qi_bing</title>
<g id="a_node20"><a xlink:href="the_great_ming_qi_bing_full.html" xlink:title="Qi\nBing">
<ellipse fill="none" stroke="magenta" cx="1038.18" cy="-116.61" rx="30.3115" ry="26.7407"/>
<text text-anchor="middle" x="1038.18" y="-120.41" font-family="Times,serif" font-size="14.00" fill="#ebc72d">Qi</text>
<text text-anchor="middle" x="1038.18" y="-105.41" font-family="Times,serif" font-size="14.00" fill="#ebc72d">Bing</text>
</a>
</g>
</g>
<!-- gucha&#45;&gt;lou_lu -->
<g id="edge14" class="edge"><title>gucha&#45;&gt;lou_lu</title>
<path fill="none" stroke="#ebc72d" stroke-dasharray="1,5" d="M759.392,-300.156C745.505,-284.998 722.974,-260.403 705.486,-241.313"/>
<polygon fill="#ebc72d" stroke="#ebc72d" points="707.916,-238.784 698.58,-233.775 702.754,-243.513 707.916,-238.784"/>
</g>
<!-- gucha&#45;&gt;sifu_shaolin -->
<g id="edge16" class="edge"><title>gucha&#45;&gt;sifu_shaolin</title>
<path fill="none" stroke="#ebc72d" d="M772.184,-300.156C772.184,-287.302 772.184,-267.662 772.184,-250.347"/>
<polygon fill="#ebc72d" stroke="#ebc72d" points="775.684,-249.948 772.184,-239.948 768.684,-249.948 775.684,-249.948"/>
</g>
<!-- gucha&#45;&gt;bing_gong_chang -->
<g id="edge13" class="edge"><title>gucha&#45;&gt;bing_gong_chang</title>
<path fill="none" stroke="#ebc72d" stroke-dasharray="1,5" d="M790.535,-300.367C810.112,-285.695 841.712,-262.012 866.937,-243.107"/>
<polygon fill="#ebc72d" stroke="#ebc72d" points="869.317,-245.697 875.221,-236.899 865.119,-240.095 869.317,-245.697"/>
</g>
<!-- gucha&#45;&gt;ma_fang -->
<g id="edge15" class="edge"><title>gucha&#45;&gt;ma_fang</title>
<path fill="none" stroke="#ebc72d" stroke-dasharray="1,5" d="M813.987,-302.591C867.996,-287.428 958.806,-260.954 990.184,-245.907 995.274,-243.466 1000.44,-240.542 1005.41,-237.466"/>
<polygon fill="#ebc72d" stroke="#ebc72d" points="1007.6,-240.218 1014.08,-231.835 1003.79,-234.347 1007.6,-240.218"/>
</g>
<!-- huo_qiang&#45;&gt;hua_tang_qiang_shou -->
<g id="edge17" class="edge"><title>huo_qiang&#45;&gt;hua_tang_qiang_shou</title>
<path fill="none" stroke="#ebc72d" stroke-dasharray="5,2" d="M130.184,-185.736C130.184,-175.864 130.184,-164.43 130.184,-153.782"/>
<polygon fill="#ebc72d" stroke="#ebc72d" points="133.684,-153.483 130.184,-143.483 126.684,-153.483 133.684,-153.483"/>
</g>
<!-- ma_fang&#45;&gt;qi_she_shou -->
<g id="edge19" class="edge"><title>ma_fang&#45;&gt;qi_she_shou</title>
<path fill="none" stroke="#ebc72d" d="M1064.93,-185.486C1076.87,-173.779 1091.02,-159.915 1103.4,-147.778"/>
<polygon fill="#ebc72d" stroke="#ebc72d" points="1106.16,-149.978 1110.85,-140.479 1101.26,-144.979 1106.16,-149.978"/>
</g>
<!-- ma_fang&#45;&gt;qi_bing -->
<g id="edge18" class="edge"><title>ma_fang&#45;&gt;qi_bing</title>
<path fill="none" stroke="#ebc72d" d="M1038.18,-185.486C1038.18,-175.699 1038.18,-164.404 1038.18,-153.872"/>
<polygon fill="#ebc72d" stroke="#ebc72d" points="1041.68,-153.677 1038.18,-143.677 1034.68,-153.677 1041.68,-153.677"/>
</g>
<!-- ying_che&#45;&gt;ying_che_ -->
<g id="edge31" class="edge"><title>ying_che&#45;&gt;ying_che_</title>
<path fill="none" stroke="#ebc72d" stroke-dasharray="5,2" d="M958.184,-89.2852C958.184,-81.3185 958.184,-72.4275 958.184,-63.9391"/>
<polygon fill="#ebc72d" stroke="#ebc72d" points="961.684,-63.874 958.184,-53.874 954.684,-63.8741 961.684,-63.874"/>
</g>
<!-- she_shou&#45;&gt;huo_jian_bing -->
<g id="edge29" class="edge"><title>she_shou&#45;&gt;huo_jian_bing</title>
<path fill="none" stroke="#ebc72d" stroke-dasharray="5,2" d="M258.742,-185.985C261.335,-175.821 264.357,-163.971 267.151,-153.019"/>
<polygon fill="#ebc72d" stroke="#ebc72d" points="270.553,-153.843 269.634,-143.288 263.77,-152.112 270.553,-153.843"/>
</g>
</g>
</svg>
