<?xml version="1.0" encoding="UTF-8" standalone="no"?>
<!DOCTYPE svg PUBLIC "-//W3C//DTD SVG 1.1//EN"
 "http://www.w3.org/Graphics/SVG/1.1/DTD/svg11.dtd">
<!-- Generated by graphviz version 2.38.0 (20140413.2041)
 -->
<!-- Title: test Pages: 1 -->
<svg width="1424pt" height="411pt"
 viewBox="0.00 0.00 1423.83 410.59" xmlns="http://www.w3.org/2000/svg" xmlns:xlink="http://www.w3.org/1999/xlink">
<g id="graph0" class="graph" transform="scale(1 1) rotate(0) translate(4 406.593)">
<title>test</title>
<polygon fill="#151515" stroke="none" points="-4,4 -4,-406.593 1419.83,-406.593 1419.83,4 -4,4"/>
<!-- gladiator -->
<g id="node1" class="node"><title>gladiator</title>
<g id="a_node1"><a xlink:href="romans_gladiator_full.html" xlink:title="Gladiator">
<ellipse fill="none" stroke="magenta" cx="867.549" cy="-122.953" rx="44.393" ry="18"/>
<text text-anchor="middle" x="867.549" y="-119.253" font-family="Times,serif" font-size="14.00" fill="#ebc72d">Gladiator</text>
</a>
</g>
</g>
<!-- cavalry -->
<g id="node2" class="node"><title>cavalry</title>
<g id="a_node2"><a xlink:href="romans_cavalry_full.html" xlink:title="Cavalry">
<ellipse fill="none" stroke="magenta" cx="281.549" cy="-122.953" rx="38.1938" ry="18"/>
<text text-anchor="middle" x="281.549" y="-119.253" font-family="Times,serif" font-size="14.00" fill="#ebc72d">Cavalry</text>
</a>
</g>
</g>
<!-- tribune -->
<g id="node4" class="node"><title>tribune</title>
<g id="a_node4"><a xlink:href="romans_tribune_full.html" xlink:title="Tribune">
<ellipse fill="none" stroke="magenta" cx="281.549" cy="-26.8701" rx="38.1938" ry="18"/>
<text text-anchor="middle" x="281.549" y="-23.1701" font-family="Times,serif" font-size="14.00" fill="#ebc72d">Tribune</text>
</a>
</g>
</g>
<!-- cavalry&#45;&gt;tribune -->
<g id="edge13" class="edge"><title>cavalry&#45;&gt;tribune</title>
<path fill="none" stroke="#ebc72d" stroke-dasharray="5,2" d="M281.549,-104.697C281.549,-90.9043 281.549,-71.3082 281.549,-55.3595"/>
<polygon fill="#ebc72d" stroke="#ebc72d" points="285.049,-55.0169 281.549,-45.017 278.049,-55.017 285.049,-55.0169"/>
</g>
<!-- general -->
<g id="node3" class="node"><title>general</title>
<g id="a_node3"><a xlink:href="romans_general_full.html" xlink:title="General">
<ellipse fill="none" stroke="magenta" cx="729.549" cy="-122.953" rx="38.1938" ry="18"/>
<text text-anchor="middle" x="729.549" y="-119.253" font-family="Times,serif" font-size="14.00" fill="#ebc72d">General</text>
</a>
</g>
</g>
<!-- wartime_mechanic -->
<g id="node5" class="node"><title>wartime_mechanic</title>
<g id="a_node5"><a xlink:href="romans_wartime_mechanic_full.html" xlink:title="Wartime\nMechanic">
<ellipse fill="none" stroke="magenta" cx="585.549" cy="-122.953" rx="50.41" ry="26.7407"/>
<text text-anchor="middle" x="585.549" y="-126.753" font-family="Times,serif" font-size="14.00" fill="#ebc72d">Wartime</text>
<text text-anchor="middle" x="585.549" y="-111.753" font-family="Times,serif" font-size="14.00" fill="#ebc72d">Mechanic</text>
</a>
</g>
</g>
<!-- ballista -->
<g id="node7" class="node"><title>ballista</title>
<g id="a_node7"><a xlink:href="romans_ballista_full.html" xlink:title="Ballista">
<ellipse fill="none" stroke="magenta" cx="393.549" cy="-26.8701" rx="37.8943" ry="18"/>
<text text-anchor="middle" x="393.549" y="-23.1701" font-family="Times,serif" font-size="14.00" fill="#ebc72d">Ballista</text>
</a>
</g>
</g>
<!-- wartime_mechanic&#45;&gt;ballista -->
<g id="edge46" class="edge"><title>wartime_mechanic&#45;&gt;ballista</title>
<path fill="none" stroke="#ebc72d" stroke-dasharray="5,2" d="M549.719,-103.792C540.55,-99.1795 530.696,-94.2527 521.549,-89.7401 490.34,-74.345 454.684,-57.1414 428.944,-44.7907"/>
<polygon fill="#ebc72d" stroke="#ebc72d" points="430.125,-41.4755 419.594,-40.3087 427.099,-47.7877 430.125,-41.4755"/>
</g>
<!-- catapult -->
<g id="node10" class="node"><title>catapult</title>
<g id="a_node10"><a xlink:href="romans_catapult_full.html" xlink:title="Catapult">
<ellipse fill="none" stroke="magenta" cx="507.549" cy="-26.8701" rx="40.0939" ry="18"/>
<text text-anchor="middle" x="507.549" y="-23.1701" font-family="Times,serif" font-size="14.00" fill="#ebc72d">Catapult</text>
</a>
</g>
</g>
<!-- wartime_mechanic&#45;&gt;catapult -->
<g id="edge48" class="edge"><title>wartime_mechanic&#45;&gt;catapult</title>
<path fill="none" stroke="#ebc72d" stroke-dasharray="5,2" d="M565.866,-98.2122C554.095,-84.0145 539.184,-66.0285 527.386,-51.7978"/>
<polygon fill="#ebc72d" stroke="#ebc72d" points="529.923,-49.3745 520.846,-43.91 524.534,-53.8422 529.923,-49.3745"/>
</g>
<!-- battering_ram -->
<g id="node14" class="node"><title>battering_ram</title>
<g id="a_node14"><a xlink:href="romans_battering_ram_full.html" xlink:title="Battering\nRam">
<ellipse fill="none" stroke="magenta" cx="704.549" cy="-26.8701" rx="47.2526" ry="26.7407"/>
<text text-anchor="middle" x="704.549" y="-30.6701" font-family="Times,serif" font-size="14.00" fill="#ebc72d">Battering</text>
<text text-anchor="middle" x="704.549" y="-15.6701" font-family="Times,serif" font-size="14.00" fill="#ebc72d">Ram</text>
</a>
</g>
</g>
<!-- wartime_mechanic&#45;&gt;battering_ram -->
<g id="edge47" class="edge"><title>wartime_mechanic&#45;&gt;battering_ram</title>
<path fill="none" stroke="#ebc72d" stroke-dasharray="5,2" d="M612.85,-100.369C629.63,-87.1018 651.3,-69.969 669.361,-55.6899"/>
<polygon fill="#ebc72d" stroke="#ebc72d" points="671.701,-58.3018 677.375,-49.3542 667.359,-52.8107 671.701,-58.3018"/>
</g>
<!-- archer -->
<g id="node6" class="node"><title>archer</title>
<g id="a_node6"><a xlink:href="romans_archer_full.html" xlink:title="Archer">
<ellipse fill="none" stroke="magenta" cx="1248.55" cy="-122.953" rx="35.194" ry="18"/>
<text text-anchor="middle" x="1248.55" y="-119.253" font-family="Times,serif" font-size="14.00" fill="#ebc72d">Archer</text>
</a>
</g>
</g>
<!-- fire_archer -->
<g id="node11" class="node"><title>fire_archer</title>
<g id="a_node11"><a xlink:href="romans_fire_archer_full.html" xlink:title="Fire\nArcher">
<ellipse fill="none" stroke="magenta" cx="1248.55" cy="-26.8701" rx="38.3684" ry="26.7407"/>
<text text-anchor="middle" x="1248.55" y="-30.6701" font-family="Times,serif" font-size="14.00" fill="#ebc72d">Fire</text>
<text text-anchor="middle" x="1248.55" y="-15.6701" font-family="Times,serif" font-size="14.00" fill="#ebc72d">Archer</text>
</a>
</g>
</g>
<!-- archer&#45;&gt;fire_archer -->
<g id="edge1" class="edge"><title>archer&#45;&gt;fire_archer</title>
<path fill="none" stroke="#ebc72d" stroke-dasharray="5,2" d="M1248.55,-104.697C1248.55,-93.3678 1248.55,-78.123 1248.55,-64.2003"/>
<polygon fill="#ebc72d" stroke="#ebc72d" points="1252.05,-63.8979 1248.55,-53.8979 1245.05,-63.898 1252.05,-63.8979"/>
</g>
<!-- military_camp -->
<g id="node8" class="node"><title>military_camp</title>
<g id="a_node8"><a xlink:href="romans_military_camp_full.html" xlink:title="Military\nCamp">
<polygon fill="none" stroke="red" points="401.929,-235.71 347.549,-258.808 293.168,-235.71 293.219,-198.336 401.878,-198.336 401.929,-235.71"/>
<text text-anchor="middle" x="347.549" y="-229.18" font-family="Times,serif" font-size="14.00" fill="#ebc72d">Military</text>
<text text-anchor="middle" x="347.549" y="-214.18" font-family="Times,serif" font-size="14.00" fill="#ebc72d">Camp</text>
</a>
</g>
</g>
<!-- military_camp&#45;&gt;cavalry -->
<g id="edge22" class="edge"><title>military_camp&#45;&gt;cavalry</title>
<path fill="none" stroke="#ebc72d" d="M330.38,-198.256C320.448,-183.144 308.009,-164.216 298.172,-149.247"/>
<polygon fill="#ebc72d" stroke="#ebc72d" points="300.845,-146.942 292.428,-140.508 294.995,-150.787 300.845,-146.942"/>
</g>
<!-- military_camp&#45;&gt;general -->
<g id="edge24" class="edge"><title>military_camp&#45;&gt;general</title>
<path fill="none" stroke="#ebc72d" d="M395.446,-198.281C400.783,-195.975 406.217,-193.873 411.549,-192.167 511.344,-160.221 543.226,-182.879 644.549,-156.167 660.822,-151.876 678.287,-145.571 693.127,-139.673"/>
<polygon fill="#ebc72d" stroke="#ebc72d" points="694.514,-142.888 702.461,-135.882 691.879,-136.402 694.514,-142.888"/>
</g>
<!-- military_camp&#45;&gt;wartime_mechanic -->
<g id="edge27" class="edge"><title>military_camp&#45;&gt;wartime_mechanic</title>
<path fill="none" stroke="#ebc72d" d="M397.526,-198.333C402.224,-196.155 406.949,-194.064 411.549,-192.167 459.101,-172.548 473.996,-175.785 521.549,-156.167 528.189,-153.427 535.091,-150.284 541.797,-147.059"/>
<polygon fill="#ebc72d" stroke="#ebc72d" points="543.351,-150.195 550.779,-142.641 540.261,-143.914 543.351,-150.195"/>
</g>
<!-- military_camp&#45;&gt;ballista -->
<g id="edge20" class="edge"><title>military_camp&#45;&gt;ballista</title>
<path fill="none" stroke="#ebc72d" stroke-dasharray="1,5" d="M341.991,-198.048C338.847,-177.083 337.331,-147.458 347.549,-123.953"/>
<path fill="none" stroke="#ebc72d" stroke-dasharray="1,5" d="M347.549,-121.953C357.733,-98.5246 370.595,-72.4718 380.128,-53.7332"/>
<polygon fill="#ebc72d" stroke="#ebc72d" points="383.334,-55.1497 384.777,-44.6535 377.104,-51.9591 383.334,-55.1497"/>
</g>
<!-- military_camp&#45;&gt;catapult -->
<g id="edge21" class="edge"><title>military_camp&#45;&gt;catapult</title>
<path fill="none" stroke="#ebc72d" stroke-dasharray="1,5" d="M347.549,-121.953C354.175,-106.71 354.115,-100.771 366.549,-89.7401 374.729,-82.4826 430.059,-59.225 468.922,-43.3868"/>
<polygon fill="#ebc72d" stroke="#ebc72d" points="470.46,-46.5396 478.408,-39.5342 467.826,-40.054 470.46,-46.5396"/>
</g>
<!-- guard_tower -->
<g id="node16" class="node"><title>guard_tower</title>
<g id="a_node16"><a xlink:href="romans_guard_tower_full.html" xlink:title="Guard\nTower">
<polygon fill="none" stroke="red" points="124.948,-133.283 79.5485,-156.381 34.1491,-133.283 34.1915,-95.9097 124.906,-95.9097 124.948,-133.283"/>
<text text-anchor="middle" x="79.5485" y="-126.753" font-family="Times,serif" font-size="14.00" fill="#ebc72d">Guard</text>
<text text-anchor="middle" x="79.5485" y="-111.753" font-family="Times,serif" font-size="14.00" fill="#ebc72d">Tower</text>
</a>
</g>
</g>
<!-- military_camp&#45;&gt;guard_tower -->
<g id="edge25" class="edge"><title>military_camp&#45;&gt;guard_tower</title>
<path fill="none" stroke="#ebc72d" stroke-dasharray="1,5" d="M292.934,-210.466C249.165,-198.473 186.669,-179.435 134.549,-156.167 128.647,-153.532 122.575,-150.423 116.718,-147.192"/>
<polygon fill="#ebc72d" stroke="#ebc72d" points="118.166,-143.989 107.747,-142.068 114.694,-150.067 118.166,-143.989"/>
</g>
<!-- eagle_pillar -->
<g id="node17" class="node"><title>eagle_pillar</title>
<g id="a_node17"><a xlink:href="romans_eagle_pillar_full.html" xlink:title="Eagle\nPillar">
<polygon fill="none" stroke="red" points="225.708,-133.283 184.549,-156.381 143.389,-133.283 143.428,-95.9097 225.669,-95.9097 225.708,-133.283"/>
<text text-anchor="middle" x="184.549" y="-126.753" font-family="Times,serif" font-size="14.00" fill="#ebc72d">Eagle</text>
<text text-anchor="middle" x="184.549" y="-111.753" font-family="Times,serif" font-size="14.00" fill="#ebc72d">Pillar</text>
</a>
</g>
</g>
<!-- military_camp&#45;&gt;eagle_pillar -->
<g id="edge23" class="edge"><title>military_camp&#45;&gt;eagle_pillar</title>
<path fill="none" stroke="#ebc72d" stroke-dasharray="1,5" d="M303.633,-198.276C282.636,-185.692 257.199,-170.296 234.549,-156.167 229.839,-153.229 224.903,-150.105 220.044,-147.002"/>
<polygon fill="#ebc72d" stroke="#ebc72d" points="221.75,-143.939 211.444,-141.485 217.971,-149.831 221.75,-143.939"/>
</g>
<!-- turtle_formation -->
<g id="node21" class="node"><title>turtle_formation</title>
<g id="a_node21"><a xlink:href="romans_turtle_formation_full.html" xlink:title="Turtle\nFormation">
<ellipse fill="none" stroke="magenta" cx="427.549" cy="-122.953" rx="52.1524" ry="26.7407"/>
<text text-anchor="middle" x="427.549" y="-126.753" font-family="Times,serif" font-size="14.00" fill="#ebc72d">Turtle</text>
<text text-anchor="middle" x="427.549" y="-111.753" font-family="Times,serif" font-size="14.00" fill="#ebc72d">Formation</text>
</a>
</g>
</g>
<!-- military_camp&#45;&gt;turtle_formation -->
<g id="edge26" class="edge"><title>military_camp&#45;&gt;turtle_formation</title>
<path fill="none" stroke="#ebc72d" d="M368.359,-198.256C378.557,-185.454 390.936,-169.914 401.732,-156.362"/>
<polygon fill="#ebc72d" stroke="#ebc72d" points="404.722,-158.225 408.215,-148.223 399.247,-153.864 404.722,-158.225"/>
</g>
<!-- gladiator_school -->
<g id="node9" class="node"><title>gladiator_school</title>
<g id="a_node9"><a xlink:href="romans_gladiator_school_full.html" xlink:title="Gladiator\nSchool">
<polygon fill="none" stroke="red" points="930.917,-235.71 871.549,-258.808 812.18,-235.71 812.235,-198.336 930.862,-198.336 930.917,-235.71"/>
<text text-anchor="middle" x="871.549" y="-229.18" font-family="Times,serif" font-size="14.00" fill="#ebc72d">Gladiator</text>
<text text-anchor="middle" x="871.549" y="-214.18" font-family="Times,serif" font-size="14.00" fill="#ebc72d">School</text>
</a>
</g>
</g>
<!-- gladiator_school&#45;&gt;gladiator -->
<g id="edge19" class="edge"><title>gladiator_school&#45;&gt;gladiator</title>
<path fill="none" stroke="#ebc72d" d="M870.508,-198.256C869.936,-183.899 869.227,-166.099 868.647,-151.521"/>
<polygon fill="#ebc72d" stroke="#ebc72d" points="872.127,-150.964 868.232,-141.111 865.133,-151.243 872.127,-150.964"/>
</g>
<!-- axe_man -->
<g id="node15" class="node"><title>axe_man</title>
<g id="a_node15"><a xlink:href="romans_axe_man_full.html" xlink:title="Axe\nMan">
<ellipse fill="none" stroke="magenta" cx="1165.55" cy="-122.953" rx="29.8983" ry="26.7407"/>
<text text-anchor="middle" x="1165.55" y="-126.753" font-family="Times,serif" font-size="14.00" fill="#ebc72d">Axe</text>
<text text-anchor="middle" x="1165.55" y="-111.753" font-family="Times,serif" font-size="14.00" fill="#ebc72d">Man</text>
</a>
</g>
</g>
<!-- gladiator_school&#45;&gt;axe_man -->
<g id="edge18" class="edge"><title>gladiator_school&#45;&gt;axe_man</title>
<path fill="none" stroke="#ebc72d" d="M931.113,-211.541C995.263,-197.171 1092.69,-173.618 1126.55,-156.167 1130.32,-154.22 1134.07,-151.859 1137.65,-149.31"/>
<polygon fill="#ebc72d" stroke="#ebc72d" points="1139.89,-152.002 1145.68,-143.126 1135.62,-146.458 1139.89,-152.002"/>
</g>
<!-- spearman -->
<g id="node12" class="node"><title>spearman</title>
<g id="a_node12"><a xlink:href="romans_spearman_full.html" xlink:title="Spearman">
<ellipse fill="none" stroke="magenta" cx="1347.55" cy="-122.953" rx="46.2923" ry="18"/>
<text text-anchor="middle" x="1347.55" y="-119.253" font-family="Times,serif" font-size="14.00" fill="#ebc72d">Spearman</text>
</a>
</g>
</g>
<!-- blacksmith_shop -->
<g id="node13" class="node"><title>blacksmith_shop</title>
<g id="a_node13"><a xlink:href="romans_blacksmith_shop_full.html" xlink:title="Blacksmith\nShop">
<polygon fill="none" stroke="red" points="794.646,-235.71 725.549,-258.808 656.451,-235.71 656.516,-198.336 794.581,-198.336 794.646,-235.71"/>
<text text-anchor="middle" x="725.549" y="-229.18" font-family="Times,serif" font-size="14.00" fill="#ebc72d">Blacksmith</text>
<text text-anchor="middle" x="725.549" y="-214.18" font-family="Times,serif" font-size="14.00" fill="#ebc72d">Shop</text>
</a>
</g>
</g>
<!-- blacksmith_shop&#45;&gt;gladiator -->
<g id="edge7" class="edge"><title>blacksmith_shop&#45;&gt;gladiator</title>
<path fill="none" stroke="#ebc72d" stroke-dasharray="1,5" d="M762.487,-198.256C785.991,-181.633 816.023,-160.393 837.954,-144.883"/>
<polygon fill="#ebc72d" stroke="#ebc72d" points="840.081,-147.666 846.225,-139.034 836.039,-141.951 840.081,-147.666"/>
</g>
<!-- blacksmith_shop&#45;&gt;cavalry -->
<g id="edge5" class="edge"><title>blacksmith_shop&#45;&gt;cavalry</title>
<path fill="none" stroke="#ebc72d" stroke-dasharray="1,5" d="M656.141,-213.005C547.617,-195.119 348.52,-161.861 333.549,-156.167 325.592,-153.14 317.52,-148.851 310.185,-144.386"/>
<polygon fill="#ebc72d" stroke="#ebc72d" points="311.659,-141.174 301.352,-138.719 307.879,-147.065 311.659,-141.174"/>
</g>
<!-- blacksmith_shop&#45;&gt;general -->
<g id="edge6" class="edge"><title>blacksmith_shop&#45;&gt;general</title>
<path fill="none" stroke="#ebc72d" stroke-dasharray="1,5" d="M726.589,-198.256C727.161,-183.899 727.87,-166.099 728.45,-151.521"/>
<polygon fill="#ebc72d" stroke="#ebc72d" points="731.964,-151.243 728.865,-141.111 724.97,-150.964 731.964,-151.243"/>
</g>
<!-- blacksmith_shop&#45;&gt;tribune -->
<g id="edge10" class="edge"><title>blacksmith_shop&#45;&gt;tribune</title>
<path fill="none" stroke="#ebc72d" stroke-dasharray="1,5" d="M656.067,-213.098C614.868,-203.555 563.628,-186.401 526.549,-156.167 513.666,-145.662 521.525,-132.95 507.549,-123.953"/>
<path fill="none" stroke="#ebc72d" stroke-dasharray="1,5" d="M507.549,-121.953C493.572,-112.956 501.85,-99.7078 488.549,-89.7401 436.446,-50.6968 408.482,-73.8209 346.549,-53.7401 337.202,-50.7096 327.271,-47.0111 318.06,-43.3692"/>
<polygon fill="#ebc72d" stroke="#ebc72d" points="319.358,-40.119 308.775,-39.625 316.74,-46.611 319.358,-40.119"/>
</g>
<!-- blacksmith_shop&#45;&gt;wartime_mechanic -->
<g id="edge12" class="edge"><title>blacksmith_shop&#45;&gt;wartime_mechanic</title>
<path fill="none" stroke="#ebc72d" stroke-dasharray="1,5" d="M689.131,-198.256C668.765,-183.647 643.43,-165.474 622.913,-150.756"/>
<polygon fill="#ebc72d" stroke="#ebc72d" points="624.899,-147.873 614.733,-144.889 620.819,-153.561 624.899,-147.873"/>
</g>
<!-- blacksmith_shop&#45;&gt;catapult -->
<g id="edge4" class="edge"><title>blacksmith_shop&#45;&gt;catapult</title>
<path fill="none" stroke="#ebc72d" stroke-dasharray="1,5" d="M507.549,-121.953C486.467,-108.383 490.666,-77.2631 497.408,-54.5169"/>
<polygon fill="#ebc72d" stroke="#ebc72d" points="500.821,-55.3409 500.603,-44.7483 494.168,-53.1647 500.821,-55.3409"/>
</g>
<!-- blacksmith_shop&#45;&gt;battering_ram -->
<g id="edge3" class="edge"><title>blacksmith_shop&#45;&gt;battering_ram</title>
<path fill="none" stroke="#ebc72d" stroke-dasharray="1,5" d="M751.384,-198.187C761.279,-186.366 771.417,-171.601 776.549,-156.167 785.863,-128.152 788.868,-116.57 776.549,-89.7401 769.779,-74.9966 757.569,-62.4435 745.105,-52.5764"/>
<polygon fill="#ebc72d" stroke="#ebc72d" points="747.041,-49.6543 736.932,-46.484 742.858,-55.2666 747.041,-49.6543"/>
</g>
<!-- blacksmith_shop&#45;&gt;axe_man -->
<g id="edge2" class="edge"><title>blacksmith_shop&#45;&gt;axe_man</title>
<path fill="none" stroke="#ebc72d" stroke-dasharray="1,5" d="M783.72,-198.296C790.32,-195.956 797.021,-193.843 803.549,-192.167 943.455,-156.245 993.545,-212.508 1126.55,-156.167 1130.46,-154.51 1134.29,-152.328 1137.92,-149.881"/>
<polygon fill="#ebc72d" stroke="#ebc72d" points="1140.11,-152.614 1146,-143.806 1135.9,-147.02 1140.11,-152.614"/>
</g>
<!-- guard -->
<g id="node18" class="node"><title>guard</title>
<g id="a_node18"><a xlink:href="romans_guard_full.html" xlink:title="Guard">
<ellipse fill="none" stroke="magenta" cx="1085.55" cy="-122.953" rx="32.4942" ry="18"/>
<text text-anchor="middle" x="1085.55" y="-119.253" font-family="Times,serif" font-size="14.00" fill="#ebc72d">Guard</text>
</a>
</g>
</g>
<!-- blacksmith_shop&#45;&gt;guard -->
<g id="edge8" class="edge"><title>blacksmith_shop&#45;&gt;guard</title>
<path fill="none" stroke="#ebc72d" stroke-dasharray="1,5" d="M784.646,-198.231C790.954,-195.966 797.336,-193.886 803.549,-192.167 907.925,-163.283 945.101,-199.049 1044.55,-156.167 1050.77,-153.485 1056.85,-149.62 1062.35,-145.491"/>
<polygon fill="#ebc72d" stroke="#ebc72d" points="1064.89,-147.941 1070.45,-138.92 1060.48,-142.506 1064.89,-147.941"/>
</g>
<!-- blacksmith_shop&#45;&gt;turtle_formation -->
<g id="edge11" class="edge"><title>blacksmith_shop&#45;&gt;turtle_formation</title>
<path fill="none" stroke="#ebc72d" stroke-dasharray="1,5" d="M656.268,-207.28C609.616,-194.973 547.074,-176.928 493.549,-156.167 486.684,-153.504 479.557,-150.403 472.637,-147.198"/>
<polygon fill="#ebc72d" stroke="#ebc72d" points="473.905,-143.925 463.371,-142.793 470.9,-150.247 473.905,-143.925"/>
</g>
<!-- swordsman -->
<g id="node22" class="node"><title>swordsman</title>
<g id="a_node22"><a xlink:href="romans_swordsman_full.html" xlink:title="Swordsman">
<ellipse fill="none" stroke="magenta" cx="982.549" cy="-122.953" rx="52.7911" ry="18"/>
<text text-anchor="middle" x="982.549" y="-119.253" font-family="Times,serif" font-size="14.00" fill="#ebc72d">Swordsman</text>
</a>
</g>
</g>
<!-- blacksmith_shop&#45;&gt;swordsman -->
<g id="edge9" class="edge"><title>blacksmith_shop&#45;&gt;swordsman</title>
<path fill="none" stroke="#ebc72d" stroke-dasharray="1,5" d="M787.505,-198.182C792.907,-196.084 798.309,-194.05 803.549,-192.167 854.747,-173.763 870.204,-176.793 920.549,-156.167 929.629,-152.446 939.162,-147.86 947.954,-143.328"/>
<polygon fill="#ebc72d" stroke="#ebc72d" points="949.588,-146.423 956.799,-138.662 946.321,-140.232 949.588,-146.423"/>
</g>
<!-- temple -->
<g id="node19" class="node"><title>temple</title>
<g id="a_node19"><a xlink:href="romans_temple_full.html" xlink:title="Temple">
<polygon fill="none" stroke="red" points="514.847,-230.942 467.549,-243.38 420.25,-230.942 420.294,-210.817 514.803,-210.817 514.847,-230.942"/>
<text text-anchor="middle" x="467.549" y="-221.68" font-family="Times,serif" font-size="14.00" fill="#ebc72d">Temple</text>
</a>
</g>
</g>
<!-- temple&#45;&gt;fire_archer -->
<g id="edge36" class="edge"><title>temple&#45;&gt;fire_archer</title>
<path fill="none" stroke="#ebc72d" stroke-dasharray="1,5" d="M514.954,-215.345C553.468,-205.996 607.321,-188.133 644.549,-156.167 670.353,-134.009 654.099,-108.38 682.549,-89.7401 767.308,-34.2053 1079.34,-27.9399 1200.24,-27.6467"/>
<polygon fill="#ebc72d" stroke="#ebc72d" points="1200.32,-31.1467 1210.32,-27.6352 1200.31,-24.1467 1200.32,-31.1467"/>
</g>
<!-- temple&#45;&gt;turtle_formation -->
<g id="edge37" class="edge"><title>temple&#45;&gt;turtle_formation</title>
<path fill="none" stroke="#ebc72d" stroke-dasharray="1,5" d="M461.987,-210.416C456.698,-197.137 448.525,-176.617 441.468,-158.9"/>
<polygon fill="#ebc72d" stroke="#ebc72d" points="444.639,-157.404 437.687,-149.409 438.136,-159.994 444.639,-157.404"/>
</g>
<!-- training_camp -->
<g id="node20" class="node"><title>training_camp</title>
<g id="a_node20"><a xlink:href="romans_training_camp_full.html" xlink:title="Training\nCamp">
<polygon fill="none" stroke="red" points="1140.68,-235.71 1085.55,-258.808 1030.42,-235.71 1030.47,-198.336 1140.63,-198.336 1140.68,-235.71"/>
<text text-anchor="middle" x="1085.55" y="-229.18" font-family="Times,serif" font-size="14.00" fill="#ebc72d">Training</text>
<text text-anchor="middle" x="1085.55" y="-214.18" font-family="Times,serif" font-size="14.00" fill="#ebc72d">Camp</text>
</a>
</g>
</g>
<!-- training_camp&#45;&gt;general -->
<g id="edge41" class="edge"><title>training_camp&#45;&gt;general</title>
<path fill="none" stroke="#ebc72d" stroke-dasharray="1,5" d="M1030.27,-212.438C975.132,-200.068 888.258,-179.325 814.549,-156.167 798.891,-151.247 781.927,-145.008 767.302,-139.334"/>
<polygon fill="#ebc72d" stroke="#ebc72d" points="768.182,-135.92 757.595,-135.519 765.622,-142.434 768.182,-135.92"/>
</g>
<!-- training_camp&#45;&gt;wartime_mechanic -->
<g id="edge45" class="edge"><title>training_camp&#45;&gt;wartime_mechanic</title>
<path fill="none" stroke="#ebc72d" stroke-dasharray="1,5" d="M1030.29,-211.122C1003.07,-204.863 969.693,-197.595 939.549,-192.167 826.037,-171.726 794.851,-182.45 682.549,-156.167 667.1,-152.551 650.609,-147.531 635.69,-142.529"/>
<polygon fill="#ebc72d" stroke="#ebc72d" points="636.734,-139.187 626.139,-139.26 634.466,-145.81 636.734,-139.187"/>
</g>
<!-- training_camp&#45;&gt;archer -->
<g id="edge38" class="edge"><title>training_camp&#45;&gt;archer</title>
<path fill="none" stroke="#ebc72d" d="M1134.05,-198.192C1155.93,-185.97 1181.88,-170.893 1204.55,-156.167 1210.07,-152.578 1215.84,-148.562 1221.32,-144.614"/>
<polygon fill="#ebc72d" stroke="#ebc72d" points="1223.61,-147.276 1229.6,-138.54 1219.47,-141.631 1223.61,-147.276"/>
</g>
<!-- training_camp&#45;&gt;fire_archer -->
<g id="edge40" class="edge"><title>training_camp&#45;&gt;fire_archer</title>
<path fill="none" stroke="#ebc72d" stroke-dasharray="1,5" d="M1140.62,-220.65C1222.51,-213.828 1370.23,-196.183 1402.55,-156.167 1421.1,-133.2 1419.08,-114.2 1402.55,-89.7401 1379.05,-54.9774 1332.45,-39.7437 1296.64,-33.0697"/>
<polygon fill="#ebc72d" stroke="#ebc72d" points="1296.83,-29.5515 1286.38,-31.3329 1295.66,-36.4533 1296.83,-29.5515"/>
</g>
<!-- training_camp&#45;&gt;spearman -->
<g id="edge43" class="edge"><title>training_camp&#45;&gt;spearman</title>
<path fill="none" stroke="#ebc72d" d="M1140.79,-209.635C1183.19,-197.498 1242.72,-178.665 1292.55,-156.167 1300.28,-152.677 1308.31,-148.389 1315.77,-144.095"/>
<polygon fill="#ebc72d" stroke="#ebc72d" points="1318.03,-146.823 1324.84,-138.71 1314.46,-140.802 1318.03,-146.823"/>
</g>
<!-- training_camp&#45;&gt;axe_man -->
<g id="edge39" class="edge"><title>training_camp&#45;&gt;axe_man</title>
<path fill="none" stroke="#ebc72d" stroke-dasharray="1,5" d="M1106.36,-198.256C1117.35,-184.459 1130.87,-167.481 1142.22,-153.239"/>
<polygon fill="#ebc72d" stroke="#ebc72d" points="1145.12,-155.217 1148.61,-145.215 1139.64,-150.856 1145.12,-155.217"/>
</g>
<!-- training_camp&#45;&gt;guard -->
<g id="edge42" class="edge"><title>training_camp&#45;&gt;guard</title>
<path fill="none" stroke="#ebc72d" d="M1085.55,-198.256C1085.55,-183.899 1085.55,-166.099 1085.55,-151.521"/>
<polygon fill="#ebc72d" stroke="#ebc72d" points="1089.05,-151.111 1085.55,-141.111 1082.05,-151.111 1089.05,-151.111"/>
</g>
<!-- training_camp&#45;&gt;swordsman -->
<g id="edge44" class="edge"><title>training_camp&#45;&gt;swordsman</title>
<path fill="none" stroke="#ebc72d" d="M1058.76,-198.256C1042.57,-182.474 1022.11,-162.53 1006.47,-147.28"/>
<polygon fill="#ebc72d" stroke="#ebc72d" points="1008.82,-144.684 999.221,-140.209 1003.94,-149.696 1008.82,-144.684"/>
</g>
<!-- slave -->
<g id="node23" class="node"><title>slave</title>
<g id="a_node23"><a xlink:href="romans_slave_full.html" xlink:title="Slave">
<ellipse fill="none" stroke="magenta" cx="407.549" cy="-312.593" rx="30.5947" ry="18"/>
<text text-anchor="middle" x="407.549" y="-308.893" font-family="Times,serif" font-size="14.00" fill="#ebc72d">Slave</text>
</a>
</g>
</g>
<!-- slave&#45;&gt;military_camp -->
<g id="edge33" class="edge"><title>slave&#45;&gt;military_camp</title>
<path fill="none" stroke="#ebc72d" stroke-width="2" d="M396.263,-295.565C389.147,-285.459 379.692,-272.031 371.006,-259.695"/>
<polygon fill="#ebc72d" stroke="#ebc72d" stroke-width="2" points="373.773,-257.545 365.154,-251.383 368.049,-261.575 373.773,-257.545"/>
</g>
<!-- slave&#45;&gt;gladiator_school -->
<g id="edge31" class="edge"><title>slave&#45;&gt;gladiator_school</title>
<path fill="none" stroke="#ebc72d" stroke-width="2" d="M430.403,-300.489C435.908,-298.207 441.848,-296.057 447.549,-294.593 601.582,-255.044 650.349,-301.255 803.549,-258.593 811.689,-256.326 820.057,-253.148 828.019,-249.664"/>
<polygon fill="#ebc72d" stroke="#ebc72d" stroke-width="2" points="829.516,-252.828 837.139,-245.47 826.592,-246.468 829.516,-252.828"/>
</g>
<!-- slave&#45;&gt;blacksmith_shop -->
<g id="edge28" class="edge"><title>slave&#45;&gt;blacksmith_shop</title>
<path fill="none" stroke="#ebc72d" stroke-width="2" d="M430.995,-300.884C436.371,-298.638 442.107,-296.404 447.549,-294.593 516.608,-271.612 597.638,-252.6 654.339,-240.537"/>
<polygon fill="#ebc72d" stroke="#ebc72d" stroke-width="2" points="655.219,-243.929 664.281,-238.44 653.774,-237.079 655.219,-243.929"/>
</g>
<!-- slave&#45;&gt;guard_tower -->
<g id="edge32" class="edge"><title>slave&#45;&gt;guard_tower</title>
<path fill="none" stroke="#ebc72d" stroke-width="2" d="M378.166,-307.496C340.396,-301.284 273.712,-287.058 223.549,-258.593 175.729,-231.458 131.221,-185.36 104.698,-154.784"/>
<polygon fill="#ebc72d" stroke="#ebc72d" stroke-width="2" points="107.188,-152.31 98.0291,-146.983 101.867,-156.859 107.188,-152.31"/>
</g>
<!-- slave&#45;&gt;eagle_pillar -->
<g id="edge29" class="edge"><title>slave&#45;&gt;eagle_pillar</title>
<path fill="none" stroke="#ebc72d" stroke-width="2" d="M380.191,-304.337C353.713,-296.33 313.45,-281.462 284.549,-258.593 249.475,-230.839 220.488,-187.916 202.911,-158.02"/>
<polygon fill="#ebc72d" stroke="#ebc72d" stroke-width="2" points="205.851,-156.112 197.828,-149.191 199.784,-159.604 205.851,-156.112"/>
</g>
<!-- slave&#45;&gt;temple -->
<g id="edge34" class="edge"><title>slave&#45;&gt;temple</title>
<path fill="none" stroke="#ebc72d" stroke-width="2" d="M418.834,-295.565C427.999,-282.549 441.042,-264.024 451.327,-249.418"/>
<polygon fill="#ebc72d" stroke="#ebc72d" stroke-width="2" points="454.419,-251.107 457.314,-240.915 448.695,-247.076 454.419,-251.107"/>
</g>
<!-- slave&#45;&gt;training_camp -->
<g id="edge35" class="edge"><title>slave&#45;&gt;training_camp</title>
<path fill="none" stroke="#ebc72d" stroke-width="2" d="M430.374,-300.374C435.88,-298.096 441.828,-295.977 447.549,-294.593 660.647,-243.018 722.601,-290.295 939.549,-258.593 968.814,-254.317 1000.95,-247.465 1027.61,-241.178"/>
<polygon fill="#ebc72d" stroke="#ebc72d" stroke-width="2" points="1028.62,-244.534 1037.54,-238.803 1027,-237.726 1028.62,-244.534"/>
</g>
<!-- forum -->
<g id="node24" class="node"><title>forum</title>
<g id="a_node24"><a xlink:href="romans_forum_full.html" xlink:title="Forum">
<polygon fill="none" stroke="red" points="450.206,-390.155 407.549,-402.593 364.891,-390.155 364.931,-370.031 450.166,-370.031 450.206,-390.155"/>
<text text-anchor="middle" x="407.549" y="-380.893" font-family="Times,serif" font-size="14.00" fill="#ebc72d">Forum</text>
</a>
</g>
</g>
<!-- forum&#45;&gt;cavalry -->
<g id="edge14" class="edge"><title>forum&#45;&gt;cavalry</title>
<path fill="none" stroke="#ebc72d" stroke-dasharray="1,5" d="M108.549,-311.593C73.9686,-284.831 195.539,-187.803 253.039,-144.761"/>
<polygon fill="#ebc72d" stroke="#ebc72d" points="255.422,-147.352 261.358,-138.576 251.245,-141.734 255.422,-147.352"/>
</g>
<!-- forum&#45;&gt;tribune -->
<g id="edge17" class="edge"><title>forum&#45;&gt;tribune</title>
<path fill="none" stroke="#ebc72d" stroke-dasharray="1,5" d="M364.753,-379.088C290.992,-370.456 144.364,-349.215 108.549,-313.593"/>
<path fill="none" stroke="#ebc72d" stroke-dasharray="1,5" d="M108.549,-311.593C33.9066,-237.353 -39.5645,-172.464 25.5485,-89.7401 51.0169,-57.3833 167.371,-39.9307 234.114,-32.427"/>
<polygon fill="#ebc72d" stroke="#ebc72d" points="234.817,-35.8711 244.379,-31.3073 234.058,-28.9124 234.817,-35.8711"/>
</g>
<!-- forum&#45;&gt;slave -->
<g id="edge16" class="edge"><title>forum&#45;&gt;slave</title>
<path fill="none" stroke="#ebc72d" d="M407.549,-359.675C407.549,-353.556 407.549,-346.932 407.549,-340.667"/>
<polygon fill="#ebc72d" stroke="#ebc72d" points="404.049,-359.763 407.549,-369.763 411.049,-359.763 404.049,-359.763"/>
<polygon fill="#ebc72d" stroke="#ebc72d" points="411.049,-340.612 407.549,-330.612 404.049,-340.612 411.049,-340.612"/>
</g>
<!-- cow -->
<g id="node25" class="node"><title>cow</title>
<g id="a_node25"><a xlink:href="romans_cow_full.html" xlink:title="Cow">
<ellipse fill="none" stroke="magenta" cx="483.549" cy="-312.593" rx="27.0966" ry="18"/>
<text text-anchor="middle" x="483.549" y="-308.893" font-family="Times,serif" font-size="14.00" fill="#ebc72d">Cow</text>
</a>
</g>
</g>
<!-- forum&#45;&gt;cow -->
<g id="edge15" class="edge"><title>forum&#45;&gt;cow</title>
<path fill="none" stroke="#ebc72d" d="M422.564,-369.763C433.422,-359.762 448.292,-346.066 460.63,-334.702"/>
<polygon fill="#ebc72d" stroke="#ebc72d" points="463.32,-336.983 468.304,-327.634 458.578,-331.834 463.32,-336.983"/>
</g>
</g>
</svg>
