<?xml version="1.0" encoding="UTF-8" standalone="no"?>
<!DOCTYPE svg PUBLIC "-//W3C//DTD SVG 1.1//EN"
 "http://www.w3.org/Graphics/SVG/1.1/DTD/svg11.dtd">
<!-- Generated by graphviz version 2.38.0 (20140413.2041)
 -->
<!-- Title: test Pages: 1 -->
<svg width="2366pt" height="460pt"
 viewBox="0.00 0.00 2365.59 460.17" xmlns="http://www.w3.org/2000/svg" xmlns:xlink="http://www.w3.org/1999/xlink">
<g id="graph0" class="graph" transform="scale(1 1) rotate(0) translate(4 456.167)">
<title>test</title>
<polygon fill="#151515" stroke="none" points="-4,4 -4,-456.167 2361.59,-456.167 2361.59,4 -4,4"/>
<!-- gladiator -->
<g id="node1" class="node"><title>gladiator</title>
<g id="a_node1"><a xlink:href="romans_gladiator_full.html" xlink:title="Gladiator">
<ellipse fill="none" stroke="magenta" cx="1083.08" cy="-127.74" rx="44.393" ry="18"/>
<text text-anchor="middle" x="1083.08" y="-124.04" font-family="Times,serif" font-size="14.00" fill="#ebc72d">Gladiator</text>
</a>
</g>
</g>
<!-- cavalry -->
<g id="node2" class="node"><title>cavalry</title>
<g id="a_node2"><a xlink:href="romans_cavalry_full.html" xlink:title="Cavalry">
<ellipse fill="none" stroke="magenta" cx="645.08" cy="-239.74" rx="38.1938" ry="18"/>
<text text-anchor="middle" x="645.08" y="-236.04" font-family="Times,serif" font-size="14.00" fill="#ebc72d">Cavalry</text>
</a>
</g>
</g>
<!-- tribune -->
<g id="node4" class="node"><title>tribune</title>
<g id="a_node4"><a xlink:href="romans_tribune_full.html" xlink:title="Tribune">
<ellipse fill="none" stroke="magenta" cx="1243.08" cy="-127.74" rx="38.1938" ry="18"/>
<text text-anchor="middle" x="1243.08" y="-124.04" font-family="Times,serif" font-size="14.00" fill="#ebc72d">Tribune</text>
</a>
</g>
</g>
<!-- cavalry&#45;&gt;tribune -->
<g id="edge18" class="edge"><title>cavalry&#45;&gt;tribune</title>
<path fill="none" stroke="#ebc72d" stroke-dasharray="5,2" d="M669.254,-225.717C685.872,-217.398 708.713,-207.184 730.08,-201.74 905.623,-157.01 958.933,-203.624 1136.08,-165.74 1159.87,-160.653 1185.66,-151.839 1205.96,-144.089"/>
<polygon fill="#ebc72d" stroke="#ebc72d" points="1207.4,-147.282 1215.45,-140.391 1204.86,-140.759 1207.4,-147.282"/>
</g>
<!-- general -->
<g id="node3" class="node"><title>general</title>
<g id="a_node3"><a xlink:href="romans_general_full.html" xlink:title="General">
<ellipse fill="none" stroke="magenta" cx="700.08" cy="-127.74" rx="38.1938" ry="18"/>
<text text-anchor="middle" x="700.08" y="-124.04" font-family="Times,serif" font-size="14.00" fill="#ebc72d">General</text>
</a>
</g>
</g>
<!-- wartime_mechanic -->
<g id="node5" class="node"><title>wartime_mechanic</title>
<g id="a_node5"><a xlink:href="romans_wartime_mechanic_full.html" xlink:title="Wartime\nMechanic">
<ellipse fill="none" stroke="magenta" cx="257.08" cy="-239.74" rx="50.41" ry="26.7407"/>
<text text-anchor="middle" x="257.08" y="-243.54" font-family="Times,serif" font-size="14.00" fill="#ebc72d">Wartime</text>
<text text-anchor="middle" x="257.08" y="-228.54" font-family="Times,serif" font-size="14.00" fill="#ebc72d">Mechanic</text>
</a>
</g>
</g>
<!-- ballista -->
<g id="node7" class="node"><title>ballista</title>
<g id="a_node7"><a xlink:href="romans_ballista_full.html" xlink:title="Ballista">
<ellipse fill="none" stroke="magenta" cx="465.08" cy="-127.74" rx="37.8943" ry="18"/>
<text text-anchor="middle" x="465.08" y="-124.04" font-family="Times,serif" font-size="14.00" fill="#ebc72d">Ballista</text>
</a>
</g>
</g>
<!-- wartime_mechanic&#45;&gt;ballista -->
<g id="edge50" class="edge"><title>wartime_mechanic&#45;&gt;ballista</title>
<path fill="none" stroke="#ebc72d" stroke-dasharray="5,2" d="M289.136,-218.97C299.194,-213.105 310.45,-206.881 321.08,-201.74 360.235,-182.804 373.766,-186.328 412.08,-165.74 420.791,-161.059 429.785,-155.216 437.835,-149.566"/>
<polygon fill="#ebc72d" stroke="#ebc72d" points="440.078,-152.264 446.142,-143.575 435.984,-146.586 440.078,-152.264"/>
</g>
<!-- catapult -->
<g id="node10" class="node"><title>catapult</title>
<g id="a_node10"><a xlink:href="romans_catapult_full.html" xlink:title="Catapult">
<ellipse fill="none" stroke="magenta" cx="363.08" cy="-127.74" rx="40.0939" ry="18"/>
<text text-anchor="middle" x="363.08" y="-124.04" font-family="Times,serif" font-size="14.00" fill="#ebc72d">Catapult</text>
</a>
</g>
</g>
<!-- wartime_mechanic&#45;&gt;catapult -->
<g id="edge52" class="edge"><title>wartime_mechanic&#45;&gt;catapult</title>
<path fill="none" stroke="#ebc72d" stroke-dasharray="5,2" d="M279.559,-215.412C297.533,-196.76 322.61,-170.737 340.586,-152.082"/>
<polygon fill="#ebc72d" stroke="#ebc72d" points="343.396,-154.21 347.815,-144.581 338.355,-149.353 343.396,-154.21"/>
</g>
<!-- battering_ram -->
<g id="node15" class="node"><title>battering_ram</title>
<g id="a_node15"><a xlink:href="romans_battering_ram_full.html" xlink:title="Battering\nRam">
<ellipse fill="none" stroke="magenta" cx="257.08" cy="-127.74" rx="47.2526" ry="26.7407"/>
<text text-anchor="middle" x="257.08" y="-131.54" font-family="Times,serif" font-size="14.00" fill="#ebc72d">Battering</text>
<text text-anchor="middle" x="257.08" y="-116.54" font-family="Times,serif" font-size="14.00" fill="#ebc72d">Ram</text>
</a>
</g>
</g>
<!-- wartime_mechanic&#45;&gt;battering_ram -->
<g id="edge51" class="edge"><title>wartime_mechanic&#45;&gt;battering_ram</title>
<path fill="none" stroke="#ebc72d" stroke-dasharray="5,2" d="M257.08,-212.672C257.08,-198.425 257.08,-180.557 257.08,-164.973"/>
<polygon fill="#ebc72d" stroke="#ebc72d" points="260.58,-164.621 257.08,-154.621 253.58,-164.621 260.58,-164.621"/>
</g>
<!-- guard_tower -->
<g id="node17" class="node"><title>guard_tower</title>
<g id="a_node17"><a xlink:href="romans_guard_tower_full.html" xlink:title="Guard\nTower">
<polygon fill="none" stroke="red" points="191.479,-138.07 146.08,-161.168 100.68,-138.07 100.722,-100.696 191.437,-100.696 191.479,-138.07"/>
<text text-anchor="middle" x="146.08" y="-131.54" font-family="Times,serif" font-size="14.00" fill="#ebc72d">Guard</text>
<text text-anchor="middle" x="146.08" y="-116.54" font-family="Times,serif" font-size="14.00" fill="#ebc72d">Tower</text>
</a>
</g>
</g>
<!-- wartime_mechanic&#45;&gt;guard_tower -->
<g id="edge54" class="edge"><title>wartime_mechanic&#45;&gt;guard_tower</title>
<path fill="none" stroke="#ebc72d" stroke-width="2" d="M233.81,-215.681C216.789,-198.813 193.578,-175.811 175.306,-157.703"/>
<polygon fill="#ebc72d" stroke="#ebc72d" stroke-width="2" points="177.377,-154.828 167.81,-150.275 172.449,-159.8 177.377,-154.828"/>
</g>
<!-- eagle_pillar -->
<g id="node18" class="node"><title>eagle_pillar</title>
<g id="a_node18"><a xlink:href="romans_eagle_pillar_full.html" xlink:title="Eagle\nPillar">
<polygon fill="none" stroke="red" points="82.2387,-138.07 41.0795,-161.168 -0.0796605,-138.07 -0.0412433,-100.696 82.2003,-100.696 82.2387,-138.07"/>
<text text-anchor="middle" x="41.0795" y="-131.54" font-family="Times,serif" font-size="14.00" fill="#ebc72d">Eagle</text>
<text text-anchor="middle" x="41.0795" y="-116.54" font-family="Times,serif" font-size="14.00" fill="#ebc72d">Pillar</text>
</a>
</g>
</g>
<!-- wartime_mechanic&#45;&gt;eagle_pillar -->
<g id="edge53" class="edge"><title>wartime_mechanic&#45;&gt;eagle_pillar</title>
<path fill="none" stroke="#ebc72d" stroke-width="2" d="M226.921,-217.945C217.89,-212.24 207.798,-206.36 198.08,-201.74 153.145,-180.379 136.268,-188.606 92.0795,-165.74 85.7479,-162.464 79.3348,-158.458 73.292,-154.306"/>
<polygon fill="#ebc72d" stroke="#ebc72d" stroke-width="2" points="74.9227,-151.168 64.7562,-148.186 70.844,-156.857 74.9227,-151.168"/>
</g>
<!-- archer -->
<g id="node6" class="node"><title>archer</title>
<g id="a_node6"><a xlink:href="romans_archer_full.html" xlink:title="Archer">
<ellipse fill="none" stroke="magenta" cx="2228.08" cy="-127.74" rx="35.194" ry="18"/>
<text text-anchor="middle" x="2228.08" y="-124.04" font-family="Times,serif" font-size="14.00" fill="#ebc72d">Archer</text>
</a>
</g>
</g>
<!-- fire_archer -->
<g id="node11" class="node"><title>fire_archer</title>
<g id="a_node11"><a xlink:href="romans_fire_archer_full.html" xlink:title="Fire\nArcher">
<ellipse fill="none" stroke="magenta" cx="2169.08" cy="-26.8701" rx="38.3684" ry="26.7407"/>
<text text-anchor="middle" x="2169.08" y="-30.6701" font-family="Times,serif" font-size="14.00" fill="#ebc72d">Fire</text>
<text text-anchor="middle" x="2169.08" y="-15.6701" font-family="Times,serif" font-size="14.00" fill="#ebc72d">Archer</text>
</a>
</g>
</g>
<!-- archer&#45;&gt;fire_archer -->
<g id="edge4" class="edge"><title>archer&#45;&gt;fire_archer</title>
<path fill="none" stroke="#ebc72d" stroke-dasharray="5,2" d="M2218.34,-110.414C2210.33,-96.9933 2198.72,-77.5478 2188.79,-60.9012"/>
<polygon fill="#ebc72d" stroke="#ebc72d" points="2191.61,-58.7908 2183.48,-51.9971 2185.6,-62.3779 2191.61,-58.7908"/>
</g>
<!-- military_camp -->
<g id="node8" class="node"><title>military_camp</title>
<g id="a_node8"><a xlink:href="romans_military_camp_full.html" xlink:title="Military\nCamp">
<polygon fill="none" stroke="red" points="492.46,-357.283 438.08,-380.381 383.699,-357.283 383.75,-319.91 492.409,-319.91 492.46,-357.283"/>
<text text-anchor="middle" x="438.08" y="-350.753" font-family="Times,serif" font-size="14.00" fill="#ebc72d">Military</text>
<text text-anchor="middle" x="438.08" y="-335.753" font-family="Times,serif" font-size="14.00" fill="#ebc72d">Camp</text>
</a>
</g>
</g>
<!-- military_camp&#45;&gt;cavalry -->
<g id="edge25" class="edge"><title>military_camp&#45;&gt;cavalry</title>
<path fill="none" stroke="#ebc72d" d="M489.514,-319.81C527.33,-300.589 577.685,-274.995 610.721,-258.204"/>
<polygon fill="#ebc72d" stroke="#ebc72d" points="612.64,-261.154 619.969,-253.503 609.469,-254.914 612.64,-261.154"/>
</g>
<!-- military_camp&#45;&gt;general -->
<g id="edge27" class="edge"><title>military_camp&#45;&gt;general</title>
<path fill="none" stroke="#ebc72d" d="M471.854,-319.835C487.454,-307.442 506.034,-292.207 522.08,-277.74 557.557,-245.752 561.645,-232.634 598.08,-201.74 621.042,-182.27 648.95,-162.539 669.766,-148.508"/>
<polygon fill="#ebc72d" stroke="#ebc72d" points="671.848,-151.326 678.218,-142.86 667.959,-145.506 671.848,-151.326"/>
</g>
<!-- military_camp&#45;&gt;wartime_mechanic -->
<g id="edge29" class="edge"><title>military_camp&#45;&gt;wartime_mechanic</title>
<path fill="none" stroke="#ebc72d" d="M392.872,-319.675C364.15,-302.979 327.225,-281.515 299.133,-265.185"/>
<polygon fill="#ebc72d" stroke="#ebc72d" points="300.748,-262.076 290.344,-260.076 297.23,-268.128 300.748,-262.076"/>
</g>
<!-- turtle_formation -->
<g id="node22" class="node"><title>turtle_formation</title>
<g id="a_node22"><a xlink:href="romans_turtle_formation_full.html" xlink:title="Turtle\nFormation">
<ellipse fill="none" stroke="magenta" cx="576.08" cy="-127.74" rx="52.1524" ry="26.7407"/>
<text text-anchor="middle" x="576.08" y="-131.54" font-family="Times,serif" font-size="14.00" fill="#ebc72d">Turtle</text>
<text text-anchor="middle" x="576.08" y="-116.54" font-family="Times,serif" font-size="14.00" fill="#ebc72d">Formation</text>
</a>
</g>
</g>
<!-- military_camp&#45;&gt;turtle_formation -->
<g id="edge28" class="edge"><title>military_camp&#45;&gt;turtle_formation</title>
<path fill="none" stroke="#ebc72d" d="M391.515,-319.73C376.74,-308.821 362.156,-294.702 354.08,-277.74 339.559,-247.243 333.014,-228.145 354.08,-201.74 398.995,-145.44 445.039,-192.06 512.08,-165.74 520.065,-162.605 528.244,-158.585 535.97,-154.355"/>
<polygon fill="#ebc72d" stroke="#ebc72d" points="537.834,-157.322 544.794,-149.334 534.372,-151.238 537.834,-157.322"/>
</g>
<!-- formations -->
<g id="node29" class="node"><title>formations</title>
<g id="a_node29"><a xlink:href="romans_formations_full.html" xlink:title="Formations">
<polygon fill="none" stroke="green" points="513.145,-257.74 393.733,-257.74 363.014,-221.74 482.426,-221.74 513.145,-257.74"/>
<text text-anchor="middle" x="438.08" y="-236.04" font-family="Times,serif" font-size="14.00" fill="#ebc72d">Formations</text>
</a>
</g>
</g>
<!-- military_camp&#45;&gt;formations -->
<g id="edge26" class="edge"><title>military_camp&#45;&gt;formations</title>
<path fill="none" stroke="#ebc72d" d="M438.08,-319.675C438.08,-303.949 438.08,-283.993 438.08,-268.081"/>
<polygon fill="#ebc72d" stroke="#ebc72d" points="441.58,-267.814 438.08,-257.814 434.58,-267.814 441.58,-267.814"/>
</g>
<!-- advanced_architecture -->
<g id="node30" class="node"><title>advanced_architecture</title>
<g id="a_node30"><a xlink:href="romans_advanced_architecture_full.html" xlink:title="Advanced\nArchitecture">
<polygon fill="none" stroke="green" points="189.254,-277.74 50.5788,-277.74 14.9049,-201.74 153.58,-201.74 189.254,-277.74"/>
<text text-anchor="middle" x="102.08" y="-243.54" font-family="Times,serif" font-size="14.00" fill="#ebc72d">Advanced</text>
<text text-anchor="middle" x="102.08" y="-228.54" font-family="Times,serif" font-size="14.00" fill="#ebc72d">Architecture</text>
</a>
</g>
</g>
<!-- military_camp&#45;&gt;advanced_architecture -->
<g id="edge24" class="edge"><title>military_camp&#45;&gt;advanced_architecture</title>
<path fill="none" stroke="#ebc72d" d="M383.795,-332.036C334.869,-319.135 261.145,-298.807 198.08,-277.74 197.868,-277.669 197.656,-277.598 197.444,-277.527"/>
<polygon fill="#ebc72d" stroke="#ebc72d" points="198.369,-274.145 187.775,-274.212 196.099,-280.766 198.369,-274.145"/>
</g>
<!-- gladiator_school -->
<g id="node9" class="node"><title>gladiator_school</title>
<g id="a_node9"><a xlink:href="romans_gladiator_school_full.html" xlink:title="Gladiator\nSchool">
<polygon fill="none" stroke="red" points="1142.45,-250.07 1083.08,-273.168 1023.71,-250.07 1023.77,-212.696 1142.39,-212.696 1142.45,-250.07"/>
<text text-anchor="middle" x="1083.08" y="-243.54" font-family="Times,serif" font-size="14.00" fill="#ebc72d">Gladiator</text>
<text text-anchor="middle" x="1083.08" y="-228.54" font-family="Times,serif" font-size="14.00" fill="#ebc72d">School</text>
</a>
</g>
</g>
<!-- gladiator_school&#45;&gt;gladiator -->
<g id="edge23" class="edge"><title>gladiator_school&#45;&gt;gladiator</title>
<path fill="none" stroke="#ebc72d" d="M1083.08,-212.672C1083.08,-195.625 1083.08,-173.395 1083.08,-156.096"/>
<polygon fill="#ebc72d" stroke="#ebc72d" points="1086.58,-156.052 1083.08,-146.052 1079.58,-156.052 1086.58,-156.052"/>
</g>
<!-- axe_man -->
<g id="node16" class="node"><title>axe_man</title>
<g id="a_node16"><a xlink:href="romans_axe_man_full.html" xlink:title="Axe\nMan">
<ellipse fill="none" stroke="magenta" cx="1447.08" cy="-127.74" rx="29.8983" ry="26.7407"/>
<text text-anchor="middle" x="1447.08" y="-131.54" font-family="Times,serif" font-size="14.00" fill="#ebc72d">Axe</text>
<text text-anchor="middle" x="1447.08" y="-116.54" font-family="Times,serif" font-size="14.00" fill="#ebc72d">Man</text>
</a>
</g>
</g>
<!-- gladiator_school&#45;&gt;axe_man -->
<g id="edge22" class="edge"><title>gladiator_school&#45;&gt;axe_man</title>
<path fill="none" stroke="#ebc72d" d="M1127.29,-212.581C1135.06,-208.598 1143.19,-204.802 1151.08,-201.74 1163.21,-197.034 1331.4,-156.475 1408.71,-137.927"/>
<polygon fill="#ebc72d" stroke="#ebc72d" points="1409.64,-141.303 1418.55,-135.567 1408.01,-134.496 1409.64,-141.303"/>
</g>
<!-- spearman -->
<g id="node12" class="node"><title>spearman</title>
<g id="a_node12"><a xlink:href="romans_spearman_full.html" xlink:title="Spearman">
<ellipse fill="none" stroke="magenta" cx="1968.08" cy="-239.74" rx="46.2923" ry="18"/>
<text text-anchor="middle" x="1968.08" y="-236.04" font-family="Times,serif" font-size="14.00" fill="#ebc72d">Spearman</text>
</a>
</g>
</g>
<!-- blacksmith_shop -->
<g id="node13" class="node"><title>blacksmith_shop</title>
<g id="a_node13"><a xlink:href="romans_blacksmith_shop_full.html" xlink:title="Blacksmith\nShop">
<polygon fill="none" stroke="red" points="1013.18,-357.283 944.08,-380.381 874.982,-357.283 875.047,-319.91 1013.11,-319.91 1013.18,-357.283"/>
<text text-anchor="middle" x="944.08" y="-350.753" font-family="Times,serif" font-size="14.00" fill="#ebc72d">Blacksmith</text>
<text text-anchor="middle" x="944.08" y="-335.753" font-family="Times,serif" font-size="14.00" fill="#ebc72d">Shop</text>
</a>
</g>
</g>
<!-- blacksmith_shop&#45;&gt;cavalry -->
<g id="edge5" class="edge"><title>blacksmith_shop&#45;&gt;cavalry</title>
<path fill="none" stroke="#ebc72d" stroke-dasharray="1,5" d="M874.967,-333.618C824.13,-322.956 754.228,-304.92 697.08,-277.74 688.115,-273.477 679.056,-267.665 671.067,-261.912"/>
<polygon fill="#ebc72d" stroke="#ebc72d" points="672.973,-258.967 662.872,-255.768 668.773,-264.567 672.973,-258.967"/>
</g>
<!-- blacksmith_shop&#45;&gt;general -->
<g id="edge7" class="edge"><title>blacksmith_shop&#45;&gt;general</title>
<path fill="none" stroke="#ebc72d" stroke-dasharray="1,5" d="M875.026,-341.748C827.524,-335.111 766.634,-318.55 730.08,-277.74 700.026,-244.188 696.713,-189.131 697.842,-156.167"/>
<polygon fill="#ebc72d" stroke="#ebc72d" points="701.352,-156.062 698.363,-145.898 694.361,-155.708 701.352,-156.062"/>
</g>
<!-- blacksmith_shop&#45;&gt;wartime_mechanic -->
<g id="edge14" class="edge"><title>blacksmith_shop&#45;&gt;wartime_mechanic</title>
<path fill="none" stroke="#ebc72d" stroke-dasharray="1,5" d="M874.964,-343.535C763.762,-338.406 538.881,-322.916 354.08,-277.74 337.551,-273.699 320.021,-267.607 304.477,-261.526"/>
<polygon fill="#ebc72d" stroke="#ebc72d" points="305.666,-258.232 295.082,-257.759 303.061,-264.729 305.666,-258.232"/>
</g>
<!-- blacksmith_shop&#45;&gt;gladiator_school -->
<g id="edge8" class="edge"><title>blacksmith_shop&#45;&gt;gladiator_school</title>
<path fill="none" stroke="#ebc72d" stroke-dasharray="1,5" d="M978.797,-319.675C999.383,-304.092 1025.46,-284.357 1046.38,-268.518"/>
<polygon fill="#ebc72d" stroke="#ebc72d" points="1048.56,-271.262 1054.42,-262.436 1044.33,-265.68 1048.56,-271.262"/>
</g>
<!-- blacksmith_shop&#45;&gt;turtle_formation -->
<g id="edge13" class="edge"><title>blacksmith_shop&#45;&gt;turtle_formation</title>
<path fill="none" stroke="#ebc72d" stroke-dasharray="1,5" d="M874.721,-341.559C784.851,-334.358 635.251,-316.742 598.08,-277.74 569.755,-248.021 567.899,-198.709 570.698,-165.017"/>
<polygon fill="#ebc72d" stroke="#ebc72d" points="574.221,-164.972 571.743,-154.671 567.256,-164.269 574.221,-164.972"/>
</g>
<!-- swordsman -->
<g id="node23" class="node"><title>swordsman</title>
<g id="a_node23"><a xlink:href="romans_swordsman_full.html" xlink:title="Swordsman">
<ellipse fill="none" stroke="magenta" cx="1213.08" cy="-239.74" rx="52.7911" ry="18"/>
<text text-anchor="middle" x="1213.08" y="-236.04" font-family="Times,serif" font-size="14.00" fill="#ebc72d">Swordsman</text>
</a>
</g>
</g>
<!-- blacksmith_shop&#45;&gt;swordsman -->
<g id="edge12" class="edge"><title>blacksmith_shop&#45;&gt;swordsman</title>
<path fill="none" stroke="#ebc72d" stroke-dasharray="1,5" d="M1013.58,-327.211C1054.46,-315.17 1106.67,-298.008 1151.08,-277.74 1161.28,-273.086 1171.91,-267.169 1181.44,-261.439"/>
<polygon fill="#ebc72d" stroke="#ebc72d" points="1183.51,-264.276 1190.18,-256.05 1179.84,-258.317 1183.51,-264.276"/>
</g>
<!-- reinforce_armor -->
<g id="node27" class="node"><title>reinforce_armor</title>
<g id="a_node27"><a xlink:href="romans_reinforce_armor_full.html" xlink:title="Reinforce\nArmor">
<polygon fill="none" stroke="green" points="1865.73,-277.74 1750.16,-277.74 1720.43,-201.74 1836,-201.74 1865.73,-277.74"/>
<text text-anchor="middle" x="1793.08" y="-243.54" font-family="Times,serif" font-size="14.00" fill="#ebc72d">Reinforce</text>
<text text-anchor="middle" x="1793.08" y="-228.54" font-family="Times,serif" font-size="14.00" fill="#ebc72d">Armor</text>
</a>
</g>
</g>
<!-- blacksmith_shop&#45;&gt;reinforce_armor -->
<g id="edge9" class="edge"><title>blacksmith_shop&#45;&gt;reinforce_armor</title>
<path fill="none" stroke="#ebc72d" d="M1013.36,-344.207C1143.71,-339.879 1433.86,-325.285 1673.08,-277.74 1692.84,-273.814 1713.96,-267.902 1732.9,-261.949"/>
<polygon fill="#ebc72d" stroke="#ebc72d" points="1734.13,-265.23 1742.58,-258.843 1731.99,-258.565 1734.13,-265.23"/>
</g>
<!-- sharpen_points -->
<g id="node31" class="node"><title>sharpen_points</title>
<g id="a_node31"><a xlink:href="romans_sharpen_points_full.html" xlink:title="Sharpen\nPoints">
<polygon fill="none" stroke="green" points="865.564,-277.74 764.574,-277.74 738.595,-201.74 839.585,-201.74 865.564,-277.74"/>
<text text-anchor="middle" x="802.08" y="-243.54" font-family="Times,serif" font-size="14.00" fill="#ebc72d">Sharpen</text>
<text text-anchor="middle" x="802.08" y="-228.54" font-family="Times,serif" font-size="14.00" fill="#ebc72d">Points</text>
</a>
</g>
</g>
<!-- blacksmith_shop&#45;&gt;sharpen_points -->
<g id="edge10" class="edge"><title>blacksmith_shop&#45;&gt;sharpen_points</title>
<path fill="none" stroke="#ebc72d" d="M908.613,-319.675C894.063,-308.894 876.83,-296.126 860.512,-284.035"/>
<polygon fill="#ebc72d" stroke="#ebc72d" points="862.199,-280.929 852.081,-277.788 858.032,-286.554 862.199,-280.929"/>
</g>
<!-- strengthen_swords -->
<g id="node32" class="node"><title>strengthen_swords</title>
<g id="a_node32"><a xlink:href="romans_strengthen_swords_full.html" xlink:title="Strengthen\nSwords">
<polygon fill="none" stroke="green" points="1663.59,-277.74 1540.29,-277.74 1508.57,-201.74 1631.87,-201.74 1663.59,-277.74"/>
<text text-anchor="middle" x="1586.08" y="-243.54" font-family="Times,serif" font-size="14.00" fill="#ebc72d">Strengthen</text>
<text text-anchor="middle" x="1586.08" y="-228.54" font-family="Times,serif" font-size="14.00" fill="#ebc72d">Swords</text>
</a>
</g>
</g>
<!-- blacksmith_shop&#45;&gt;strengthen_swords -->
<g id="edge11" class="edge"><title>blacksmith_shop&#45;&gt;strengthen_swords</title>
<path fill="none" stroke="#ebc72d" d="M1013.24,-340.299C1112.96,-331.363 1302.56,-311.441 1461.08,-277.74 1481.25,-273.452 1502.89,-267.53 1522.41,-261.68"/>
<polygon fill="#ebc72d" stroke="#ebc72d" points="1523.55,-264.99 1532.1,-258.729 1521.52,-258.293 1523.55,-264.99"/>
</g>
<!-- enlarge_shields -->
<g id="node33" class="node"><title>enlarge_shields</title>
<g id="a_node33"><a xlink:href="romans_enlarge_shields_full.html" xlink:title="Enlarge\nShields">
<polygon fill="none" stroke="green" points="1005.42,-277.74 907.843,-277.74 882.742,-201.74 980.316,-201.74 1005.42,-277.74"/>
<text text-anchor="middle" x="944.08" y="-243.54" font-family="Times,serif" font-size="14.00" fill="#ebc72d">Enlarge</text>
<text text-anchor="middle" x="944.08" y="-228.54" font-family="Times,serif" font-size="14.00" fill="#ebc72d">Shields</text>
</a>
</g>
</g>
<!-- blacksmith_shop&#45;&gt;enlarge_shields -->
<g id="edge6" class="edge"><title>blacksmith_shop&#45;&gt;enlarge_shields</title>
<path fill="none" stroke="#ebc72d" d="M944.08,-319.675C944.08,-310.081 944.08,-298.913 944.08,-288.049"/>
<polygon fill="#ebc72d" stroke="#ebc72d" points="947.58,-287.788 944.08,-277.788 940.58,-287.788 947.58,-287.788"/>
</g>
<!-- colosseum -->
<g id="node14" class="node"><title>colosseum</title>
<g id="a_node14"><a xlink:href="romans_colosseum_full.html" xlink:title="Colosseum">
<polygon fill="none" stroke="red" points="1894.8,-352.516 1833.08,-364.953 1771.36,-352.516 1771.42,-332.391 1894.74,-332.391 1894.8,-352.516"/>
<text text-anchor="middle" x="1833.08" y="-343.253" font-family="Times,serif" font-size="14.00" fill="#ebc72d">Colosseum</text>
</a>
</g>
</g>
<!-- slave -->
<g id="node24" class="node"><title>slave</title>
<g id="a_node24"><a xlink:href="romans_slave_full.html" xlink:title="Slave">
<ellipse fill="none" stroke="magenta" cx="1439.08" cy="-434.167" rx="30.5947" ry="18"/>
<text text-anchor="middle" x="1439.08" y="-430.467" font-family="Times,serif" font-size="14.00" fill="#ebc72d">Slave</text>
</a>
</g>
</g>
<!-- guard -->
<g id="node19" class="node"><title>guard</title>
<g id="a_node19"><a xlink:href="romans_guard_full.html" xlink:title="Guard">
<ellipse fill="none" stroke="magenta" cx="1740.08" cy="-127.74" rx="32.4942" ry="18"/>
<text text-anchor="middle" x="1740.08" y="-124.04" font-family="Times,serif" font-size="14.00" fill="#ebc72d">Guard</text>
</a>
</g>
</g>
<!-- temple -->
<g id="node20" class="node"><title>temple</title>
<g id="a_node20"><a xlink:href="romans_temple_full.html" xlink:title="Temple">
<polygon fill="none" stroke="red" points="1753.38,-352.516 1706.08,-364.953 1658.78,-352.516 1658.83,-332.391 1753.33,-332.391 1753.38,-352.516"/>
<text text-anchor="middle" x="1706.08" y="-343.253" font-family="Times,serif" font-size="14.00" fill="#ebc72d">Temple</text>
</a>
</g>
</g>
<!-- jupiter -->
<g id="node26" class="node"><title>jupiter</title>
<g id="a_node26"><a xlink:href="romans_jupiter_full.html" xlink:title="Jupiter">
<polygon fill="none" stroke="green" points="2357.59,-257.74 2277.24,-257.74 2256.57,-221.74 2336.92,-221.74 2357.59,-257.74"/>
<text text-anchor="middle" x="2307.08" y="-236.04" font-family="Times,serif" font-size="14.00" fill="#ebc72d">Jupiter</text>
</a>
</g>
</g>
<!-- temple&#45;&gt;jupiter -->
<g id="edge40" class="edge"><title>temple&#45;&gt;jupiter</title>
<path fill="none" stroke="#ebc72d" d="M1724.79,-332.354C1735.23,-325.515 1748.79,-317.829 1762.08,-313.74 1966.56,-250.839 2037.46,-340.179 2242.08,-277.74 2253.11,-274.374 2264.31,-268.891 2274.23,-263.164"/>
<polygon fill="#ebc72d" stroke="#ebc72d" points="2276.21,-266.062 2282.95,-257.89 2272.58,-260.073 2276.21,-266.062"/>
</g>
<!-- bless_of_minerva -->
<g id="node28" class="node"><title>bless_of_minerva</title>
<g id="a_node28"><a xlink:href="romans_bless_of_minerva_full.html" xlink:title="Bless\nOf Minerva">
<polygon fill="none" stroke="green" points="1452.03,-277.74 1318.48,-277.74 1284.13,-201.74 1417.68,-201.74 1452.03,-277.74"/>
<text text-anchor="middle" x="1368.08" y="-243.54" font-family="Times,serif" font-size="14.00" fill="#ebc72d">Bless</text>
<text text-anchor="middle" x="1368.08" y="-228.54" font-family="Times,serif" font-size="14.00" fill="#ebc72d">Of Minerva</text>
</a>
</g>
</g>
<!-- temple&#45;&gt;bless_of_minerva -->
<g id="edge39" class="edge"><title>temple&#45;&gt;bless_of_minerva</title>
<path fill="none" stroke="#ebc72d" d="M1685.79,-332.383C1675.46,-325.973 1662.48,-318.666 1650.08,-313.74 1585.96,-288.276 1565.85,-295.12 1499.08,-277.74 1484.96,-274.064 1470.03,-270.008 1455.5,-265.97"/>
<polygon fill="#ebc72d" stroke="#ebc72d" points="1456.09,-262.502 1445.52,-263.183 1454.21,-269.244 1456.09,-262.502"/>
</g>
<!-- sign_of_mars -->
<g id="node34" class="node"><title>sign_of_mars</title>
<g id="a_node34"><a xlink:href="romans_sign_of_mars_full.html" xlink:title="Sign\nOf Mars">
<polygon fill="none" stroke="green" points="2175.21,-165.74 2071.6,-165.74 2044.95,-89.7401 2148.56,-89.7401 2175.21,-165.74"/>
<text text-anchor="middle" x="2110.08" y="-131.54" font-family="Times,serif" font-size="14.00" fill="#ebc72d">Sign</text>
<text text-anchor="middle" x="2110.08" y="-116.54" font-family="Times,serif" font-size="14.00" fill="#ebc72d">Of Mars</text>
</a>
</g>
</g>
<!-- temple&#45;&gt;sign_of_mars -->
<g id="edge41" class="edge"><title>temple&#45;&gt;sign_of_mars</title>
<path fill="none" stroke="#ebc72d" d="M1725.06,-332.257C1735.48,-325.48 1748.92,-317.882 1762.08,-313.74 1849.11,-286.35 2109.46,-345.026 2171.08,-277.74 2193.89,-252.831 2182.6,-233.493 2171.08,-201.74 2167.54,-191.975 2162.05,-182.601 2155.79,-174.017"/>
<polygon fill="#ebc72d" stroke="#ebc72d" points="2158.5,-171.789 2149.6,-166.04 2152.97,-176.084 2158.5,-171.789"/>
</g>
<!-- training_camp -->
<g id="node21" class="node"><title>training_camp</title>
<g id="a_node21"><a xlink:href="romans_training_camp_full.html" xlink:title="Training\nCamp">
<polygon fill="none" stroke="red" points="1641.21,-357.283 1586.08,-380.381 1530.95,-357.283 1531,-319.91 1641.16,-319.91 1641.21,-357.283"/>
<text text-anchor="middle" x="1586.08" y="-350.753" font-family="Times,serif" font-size="14.00" fill="#ebc72d">Training</text>
<text text-anchor="middle" x="1586.08" y="-335.753" font-family="Times,serif" font-size="14.00" fill="#ebc72d">Camp</text>
</a>
</g>
</g>
<!-- training_camp&#45;&gt;general -->
<g id="edge44" class="edge"><title>training_camp&#45;&gt;general</title>
<path fill="none" stroke="#ebc72d" stroke-dasharray="1,5" d="M1545.17,-319.695C1529.4,-308.174 1512.07,-293.647 1499.08,-277.74 1475.19,-248.488 1492.35,-222.915 1461.08,-201.74 1381.5,-147.85 1125.73,-175.096 1030.08,-165.74 928.986,-155.853 810.731,-142.049 746.824,-134.403"/>
<polygon fill="#ebc72d" stroke="#ebc72d" points="747.014,-130.901 736.669,-133.185 746.181,-137.851 747.014,-130.901"/>
</g>
<!-- training_camp&#45;&gt;wartime_mechanic -->
<g id="edge49" class="edge"><title>training_camp&#45;&gt;wartime_mechanic</title>
<path fill="none" stroke="#ebc72d" stroke-dasharray="1,5" d="M1530.84,-342.739C1429.85,-336.876 1208.63,-324.094 1022.08,-313.74 725.217,-297.263 644.922,-339.465 354.08,-277.74 337.143,-274.146 319.258,-268.039 303.522,-261.811"/>
<polygon fill="#ebc72d" stroke="#ebc72d" points="304.611,-258.476 294.03,-257.94 301.967,-264.957 304.611,-258.476"/>
</g>
<!-- training_camp&#45;&gt;archer -->
<g id="edge42" class="edge"><title>training_camp&#45;&gt;archer</title>
<path fill="none" stroke="#ebc72d" d="M1632.77,-319.84C1638.47,-317.439 1644.32,-315.319 1650.08,-313.74 1762,-283.048 2077.8,-346.787 2171.08,-277.74 2209.65,-249.192 2222.12,-191.042 2226.15,-156.432"/>
<polygon fill="#ebc72d" stroke="#ebc72d" points="2229.67,-156.388 2227.19,-146.089 2222.71,-155.691 2229.67,-156.388"/>
</g>
<!-- training_camp&#45;&gt;spearman -->
<g id="edge46" class="edge"><title>training_camp&#45;&gt;spearman</title>
<path fill="none" stroke="#ebc72d" d="M1633.95,-319.775C1639.29,-317.484 1644.74,-315.408 1650.08,-313.74 1760.6,-279.252 1799.15,-316.962 1908.08,-277.74 1919.01,-273.804 1930.09,-267.699 1939.7,-261.575"/>
<polygon fill="#ebc72d" stroke="#ebc72d" points="1941.68,-264.461 1948.06,-256.007 1937.8,-258.633 1941.68,-264.461"/>
</g>
<!-- training_camp&#45;&gt;axe_man -->
<g id="edge43" class="edge"><title>training_camp&#45;&gt;axe_man</title>
<path fill="none" stroke="#ebc72d" stroke-dasharray="1,5" d="M1634.73,-319.732C1649.87,-308.898 1664.76,-294.826 1673.08,-277.74 1687.86,-247.368 1692.96,-229.05 1673.08,-201.74 1630.4,-143.107 1539.69,-130.583 1487.09,-128.486"/>
<polygon fill="#ebc72d" stroke="#ebc72d" points="1486.89,-124.979 1476.79,-128.19 1486.69,-131.976 1486.89,-124.979"/>
</g>
<!-- training_camp&#45;&gt;guard -->
<g id="edge45" class="edge"><title>training_camp&#45;&gt;guard</title>
<path fill="none" stroke="#ebc72d" d="M1633.99,-319.883C1639.32,-317.572 1644.75,-315.461 1650.08,-313.74 1698.26,-298.174 1842.22,-316.27 1875.08,-277.74 1897,-252.038 1892.37,-230.754 1875.08,-201.74 1854.58,-167.355 1811.65,-148.186 1779.67,-138.217"/>
<polygon fill="#ebc72d" stroke="#ebc72d" points="1780.3,-134.753 1769.71,-135.296 1778.32,-141.47 1780.3,-134.753"/>
</g>
<!-- training_camp&#45;&gt;swordsman -->
<g id="edge47" class="edge"><title>training_camp&#45;&gt;swordsman</title>
<path fill="none" stroke="#ebc72d" d="M1530.85,-339.313C1467.42,-330.452 1361.04,-311.772 1275.08,-277.74 1264.37,-273.501 1253.36,-267.539 1243.65,-261.636"/>
<polygon fill="#ebc72d" stroke="#ebc72d" points="1245.47,-258.645 1235.14,-256.284 1241.74,-264.571 1245.47,-258.645"/>
</g>
<!-- training_field -->
<g id="node25" class="node"><title>training_field</title>
<g id="a_node25"><a xlink:href="romans_training_field_full.html" xlink:title="Training\nField">
<polygon fill="none" stroke="green" points="2162.21,-277.74 2058.6,-277.74 2031.95,-201.74 2135.56,-201.74 2162.21,-277.74"/>
<text text-anchor="middle" x="2097.08" y="-243.54" font-family="Times,serif" font-size="14.00" fill="#ebc72d">Training</text>
<text text-anchor="middle" x="2097.08" y="-228.54" font-family="Times,serif" font-size="14.00" fill="#ebc72d">Field</text>
</a>
</g>
</g>
<!-- training_camp&#45;&gt;training_field -->
<g id="edge48" class="edge"><title>training_camp&#45;&gt;training_field</title>
<path fill="none" stroke="#ebc72d" d="M1633.17,-319.844C1638.75,-317.476 1644.46,-315.363 1650.08,-313.74 1810.08,-267.511 1863.01,-323.756 2023.08,-277.74 2030.2,-275.694 2037.45,-272.971 2044.49,-269.927"/>
<polygon fill="#ebc72d" stroke="#ebc72d" points="2046.3,-272.95 2053.94,-265.61 2043.39,-266.584 2046.3,-272.95"/>
</g>
<!-- slave&#45;&gt;military_camp -->
<g id="edge35" class="edge"><title>slave&#45;&gt;military_camp</title>
<path fill="none" stroke="#ebc72d" stroke-width="2" d="M1409.12,-430.616C1271.3,-418.884 696.674,-369.967 502.506,-353.438"/>
<polygon fill="#ebc72d" stroke="#ebc72d" stroke-width="2" points="502.714,-349.943 492.453,-352.582 502.12,-356.918 502.714,-349.943"/>
</g>
<!-- slave&#45;&gt;gladiator_school -->
<g id="edge34" class="edge"><title>slave&#45;&gt;gladiator_school</title>
<path fill="none" stroke="#ebc72d" stroke-width="2" d="M1417.03,-421.298C1368.78,-395.325 1250.24,-331.473 1151.08,-277.74 1143.27,-273.506 1134.95,-268.992 1126.92,-264.623"/>
<polygon fill="#ebc72d" stroke="#ebc72d" stroke-width="2" points="1128.47,-261.48 1118.01,-259.776 1125.12,-267.629 1128.47,-261.48"/>
</g>
<!-- slave&#45;&gt;blacksmith_shop -->
<g id="edge32" class="edge"><title>slave&#45;&gt;blacksmith_shop</title>
<path fill="none" stroke="#ebc72d" stroke-width="2" d="M1409.96,-428.154C1334.3,-415.129 1129.65,-379.898 1018.44,-360.754"/>
<polygon fill="#ebc72d" stroke="#ebc72d" stroke-width="2" points="1018.75,-357.257 1008.3,-359.009 1017.57,-364.155 1018.75,-357.257"/>
</g>
<!-- slave&#45;&gt;colosseum -->
<g id="edge33" class="edge"><title>slave&#45;&gt;colosseum</title>
<path fill="none" stroke="#ebc72d" stroke-width="2" d="M1479.66,-429.958C1541.64,-424.293 1663.12,-410.161 1762.08,-380.167 1775.06,-376.232 1788.76,-370.442 1800.62,-364.852"/>
<polygon fill="#ebc72d" stroke="#ebc72d" stroke-width="2" points="1479.17,-426.488 1469.52,-430.858 1479.79,-433.461 1479.17,-426.488"/>
<polygon fill="#ebc72d" stroke="#ebc72d" stroke-width="2" points="1802.23,-367.964 1809.7,-360.45 1799.17,-361.666 1802.23,-367.964"/>
</g>
<!-- slave&#45;&gt;temple -->
<g id="edge36" class="edge"><title>slave&#45;&gt;temple</title>
<path fill="none" stroke="#ebc72d" stroke-width="2" d="M1468.2,-428.481C1509.65,-421.229 1587.57,-405.427 1650.08,-380.167 1659.88,-376.205 1670.06,-370.794 1679,-365.538"/>
<polygon fill="#ebc72d" stroke="#ebc72d" stroke-width="2" points="1681.08,-368.368 1687.81,-360.183 1677.45,-362.386 1681.08,-368.368"/>
</g>
<!-- slave&#45;&gt;training_camp -->
<g id="edge37" class="edge"><title>slave&#45;&gt;training_camp</title>
<path fill="none" stroke="#ebc72d" stroke-width="2" d="M1460.14,-420.958C1482.13,-408.209 1517.19,-387.885 1544.74,-371.914"/>
<polygon fill="#ebc72d" stroke="#ebc72d" stroke-width="2" points="1546.5,-374.94 1553.4,-366.897 1542.99,-368.884 1546.5,-374.94"/>
</g>
<!-- reinforce_armor&#45;&gt;sign_of_mars -->
<g id="edge30" class="edge"><title>reinforce_armor&#45;&gt;sign_of_mars</title>
<path fill="none" stroke="#ebc72d" stroke-dasharray="1,5" d="M1843.66,-221.189C1901.2,-201.222 1994.88,-168.716 2054.44,-148.048"/>
<polygon fill="#ebc72d" stroke="#ebc72d" points="2055.76,-151.295 2064.06,-144.71 2053.46,-144.682 2055.76,-151.295"/>
</g>
<!-- bless_of_minerva&#45;&gt;tribune -->
<g id="edge16" class="edge"><title>bless_of_minerva&#45;&gt;tribune</title>
<path fill="none" stroke="#ebc72d" stroke-dasharray="1,5" d="M1325.76,-201.499C1306.53,-184.573 1284.44,-165.134 1267.93,-150.608"/>
<polygon fill="#ebc72d" stroke="#ebc72d" points="1270.13,-147.884 1260.31,-143.905 1265.51,-153.139 1270.13,-147.884"/>
</g>
<!-- bless_of_minerva&#45;&gt;ballista -->
<g id="edge15" class="edge"><title>bless_of_minerva&#45;&gt;ballista</title>
<path fill="none" stroke="#ebc72d" stroke-dasharray="1,5" d="M1285.1,-204.185C1281.74,-203.278 1278.39,-202.456 1275.08,-201.74 1109.82,-165.999 674.354,-222.476 515.08,-165.74 505.667,-162.387 496.526,-156.624 488.691,-150.631"/>
<polygon fill="#ebc72d" stroke="#ebc72d" points="490.707,-147.759 480.749,-144.141 486.278,-153.18 490.707,-147.759"/>
</g>
<!-- bless_of_minerva&#45;&gt;turtle_formation -->
<g id="edge17" class="edge"><title>bless_of_minerva&#45;&gt;turtle_formation</title>
<path fill="none" stroke="#ebc72d" stroke-dasharray="1,5" d="M1285.09,-204.23C1281.73,-203.31 1278.39,-202.474 1275.08,-201.74 1004.74,-141.789 921.18,-235.02 653.08,-165.74 641.64,-162.784 629.864,-158.085 619.068,-153.013"/>
<polygon fill="#ebc72d" stroke="#ebc72d" points="620.385,-149.761 609.866,-148.496 617.3,-156.045 620.385,-149.761"/>
</g>
<!-- formations&#45;&gt;general -->
<g id="edge20" class="edge"><title>formations&#45;&gt;general</title>
<path fill="none" stroke="#ebc72d" stroke-dasharray="1,5" d="M477.25,-221.684C492.673,-215.172 510.606,-207.85 527.08,-201.74 575.31,-183.853 590.187,-186.887 637.08,-165.74 648.258,-160.699 659.979,-154.188 670.238,-148.037"/>
<polygon fill="#ebc72d" stroke="#ebc72d" points="672.132,-150.981 678.827,-142.77 668.472,-145.014 672.132,-150.981"/>
</g>
<!-- formations&#45;&gt;turtle_formation -->
<g id="edge21" class="edge"><title>formations&#45;&gt;turtle_formation</title>
<path fill="none" stroke="#ebc72d" stroke-dasharray="1,5" d="M459.642,-221.553C481.257,-204.323 514.91,-177.498 540.489,-157.109"/>
<polygon fill="#ebc72d" stroke="#ebc72d" points="542.847,-159.706 548.485,-150.736 538.483,-154.232 542.847,-159.706"/>
</g>
<!-- advanced_architecture&#45;&gt;battering_ram -->
<g id="edge1" class="edge"><title>advanced_architecture&#45;&gt;battering_ram</title>
<path fill="none" stroke="#ebc72d" stroke-dasharray="1,5" d="M154.123,-201.806C175.574,-186.582 199.952,-169.282 219.601,-155.338"/>
<polygon fill="#ebc72d" stroke="#ebc72d" points="221.858,-158.028 227.988,-149.386 217.807,-152.319 221.858,-158.028"/>
</g>
<!-- advanced_architecture&#45;&gt;guard_tower -->
<g id="edge3" class="edge"><title>advanced_architecture&#45;&gt;guard_tower</title>
<path fill="none" stroke="#ebc72d" stroke-dasharray="1,5" d="M116.976,-201.499C121.65,-189.813 126.804,-176.928 131.46,-165.29"/>
<polygon fill="#ebc72d" stroke="#ebc72d" points="134.767,-166.445 135.231,-155.861 128.268,-163.845 134.767,-166.445"/>
</g>
<!-- advanced_architecture&#45;&gt;eagle_pillar -->
<g id="edge2" class="edge"><title>advanced_architecture&#45;&gt;eagle_pillar</title>
<path fill="none" stroke="#ebc72d" stroke-dasharray="1,5" d="M81.4277,-201.499C74.4318,-188.884 66.6615,-174.872 59.8225,-162.539"/>
<polygon fill="#ebc72d" stroke="#ebc72d" points="62.713,-160.534 54.8024,-153.486 56.5912,-163.929 62.713,-160.534"/>
</g>
<!-- strengthen_swords&#45;&gt;guard -->
<g id="edge38" class="edge"><title>strengthen_swords&#45;&gt;guard</title>
<path fill="none" stroke="#ebc72d" stroke-dasharray="1,5" d="M1633.54,-204.839C1659.44,-186.337 1690.6,-164.081 1712.51,-148.431"/>
<polygon fill="#ebc72d" stroke="#ebc72d" points="1714.61,-151.233 1720.71,-142.572 1710.54,-145.537 1714.61,-151.233"/>
</g>
<!-- sign_of_mars&#45;&gt;fire_archer -->
<g id="edge31" class="edge"><title>sign_of_mars&#45;&gt;fire_archer</title>
<path fill="none" stroke="#ebc72d" stroke-dasharray="1,5" d="M2132.22,-89.6433C2137.92,-80.0928 2144.01,-69.8859 2149.56,-60.5764"/>
<polygon fill="#ebc72d" stroke="#ebc72d" points="2152.58,-62.3572 2154.69,-51.9764 2146.56,-58.7701 2152.58,-62.3572"/>
</g>
</g>
</svg>
