<?xml version="1.0" encoding="UTF-8" standalone="no"?>
<!DOCTYPE svg PUBLIC "-//W3C//DTD SVG 1.1//EN"
 "http://www.w3.org/Graphics/SVG/1.1/DTD/svg11.dtd">
<!-- Generated by graphviz version 2.38.0 (20140413.2041)
 -->
<!-- Title: test Pages: 1 -->
<svg width="1194pt" height="411pt"
 viewBox="0.00 0.00 1194.49 410.59" xmlns="http://www.w3.org/2000/svg" xmlns:xlink="http://www.w3.org/1999/xlink">
<g id="graph0" class="graph" transform="scale(1 1) rotate(0) translate(4 406.593)">
<title>test</title>
<polygon fill="#151515" stroke="none" points="-4,4 -4,-406.593 1190.49,-406.593 1190.49,4 -4,4"/>
<!-- gladiator -->
<g id="node1" class="node"><title>gladiator</title>
<g id="a_node1"><a xlink:href="romans_gladiator_full.html" xlink:title="Gladiator">
<ellipse fill="none" stroke="magenta" cx="526.146" cy="-129.296" rx="44.393" ry="18"/>
<text text-anchor="middle" x="526.146" y="-125.596" font-family="Times,serif" font-size="14.00" fill="#ebc72d">Gladiator</text>
</a>
</g>
</g>
<!-- cavalry -->
<g id="node2" class="node"><title>cavalry</title>
<g id="a_node2"><a xlink:href="romans_cavalry_full.html" xlink:title="Cavalry">
<ellipse fill="none" stroke="magenta" cx="1112.15" cy="-129.296" rx="38.1938" ry="18"/>
<text text-anchor="middle" x="1112.15" y="-125.596" font-family="Times,serif" font-size="14.00" fill="#ebc72d">Cavalry</text>
</a>
</g>
</g>
<!-- tribune -->
<g id="node4" class="node"><title>tribune</title>
<g id="a_node4"><a xlink:href="romans_tribune_full.html" xlink:title="Tribune">
<ellipse fill="none" stroke="magenta" cx="1148.15" cy="-33.2132" rx="38.1938" ry="18"/>
<text text-anchor="middle" x="1148.15" y="-29.5132" font-family="Times,serif" font-size="14.00" fill="#ebc72d">Tribune</text>
</a>
</g>
</g>
<!-- cavalry&#45;&gt;tribune -->
<g id="edge13" class="edge"><title>cavalry&#45;&gt;tribune</title>
<path fill="none" stroke="#ebc72d" stroke-dasharray="5,2" d="M1118.58,-111.476C1123.97,-97.3822 1131.77,-77.0116 1138,-60.7252"/>
<polygon fill="#ebc72d" stroke="#ebc72d" points="1141.34,-61.7955 1141.64,-51.205 1134.8,-59.2938 1141.34,-61.7955"/>
</g>
<!-- general -->
<g id="node3" class="node"><title>general</title>
<g id="a_node3"><a xlink:href="romans_general_full.html" xlink:title="General">
<ellipse fill="none" stroke="magenta" cx="664.146" cy="-129.296" rx="38.1938" ry="18"/>
<text text-anchor="middle" x="664.146" y="-125.596" font-family="Times,serif" font-size="14.00" fill="#ebc72d">General</text>
</a>
</g>
</g>
<!-- wartime_mechanic -->
<g id="node5" class="node"><title>wartime_mechanic</title>
<g id="a_node5"><a xlink:href="romans_wartime_mechanic_full.html" xlink:title="Wartime\nMechanic">
<ellipse fill="none" stroke="magenta" cx="808.146" cy="-129.296" rx="50.41" ry="26.7407"/>
<text text-anchor="middle" x="808.146" y="-133.096" font-family="Times,serif" font-size="14.00" fill="#ebc72d">Wartime</text>
<text text-anchor="middle" x="808.146" y="-118.096" font-family="Times,serif" font-size="14.00" fill="#ebc72d">Mechanic</text>
</a>
</g>
</g>
<!-- ballista -->
<g id="node7" class="node"><title>ballista</title>
<g id="a_node7"><a xlink:href="romans_ballista_full.html" xlink:title="Ballista">
<ellipse fill="none" stroke="magenta" cx="945.146" cy="-33.2132" rx="37.8943" ry="18"/>
<text text-anchor="middle" x="945.146" y="-29.5132" font-family="Times,serif" font-size="14.00" fill="#ebc72d">Ballista</text>
</a>
</g>
</g>
<!-- wartime_mechanic&#45;&gt;ballista -->
<g id="edge41" class="edge"><title>wartime_mechanic&#45;&gt;ballista</title>
<path fill="none" stroke="#ebc72d" stroke-dasharray="5,2" d="M838.211,-107.65C861.399,-91.7254 893.275,-69.8351 916.182,-54.1041"/>
<polygon fill="#ebc72d" stroke="#ebc72d" points="918.223,-56.9481 924.485,-48.4019 914.26,-51.1778 918.223,-56.9481"/>
</g>
<!-- catapult -->
<g id="node10" class="node"><title>catapult</title>
<g id="a_node10"><a xlink:href="romans_catapult_full.html" xlink:title="Catapult">
<ellipse fill="none" stroke="magenta" cx="749.146" cy="-33.2132" rx="40.0939" ry="18"/>
<text text-anchor="middle" x="749.146" y="-29.5132" font-family="Times,serif" font-size="14.00" fill="#ebc72d">Catapult</text>
</a>
</g>
</g>
<!-- wartime_mechanic&#45;&gt;catapult -->
<g id="edge43" class="edge"><title>wartime_mechanic&#45;&gt;catapult</title>
<path fill="none" stroke="#ebc72d" stroke-dasharray="5,2" d="M792.644,-103.577C784.074,-89.911 773.452,-72.9726 764.85,-59.2553"/>
<polygon fill="#ebc72d" stroke="#ebc72d" points="767.809,-57.3855 759.531,-50.773 761.878,-61.1045 767.809,-57.3855"/>
</g>
<!-- battering_ram -->
<g id="node15" class="node"><title>battering_ram</title>
<g id="a_node15"><a xlink:href="romans_battering_ram_full.html" xlink:title="Battering\nRam">
<ellipse fill="none" stroke="magenta" cx="620.146" cy="-33.2132" rx="47.2526" ry="26.7407"/>
<text text-anchor="middle" x="620.146" y="-37.0132" font-family="Times,serif" font-size="14.00" fill="#ebc72d">Battering</text>
<text text-anchor="middle" x="620.146" y="-22.0132" font-family="Times,serif" font-size="14.00" fill="#ebc72d">Ram</text>
</a>
</g>
</g>
<!-- wartime_mechanic&#45;&gt;battering_ram -->
<g id="edge42" class="edge"><title>wartime_mechanic&#45;&gt;battering_ram</title>
<path fill="none" stroke="#ebc72d" stroke-dasharray="5,2" d="M772.342,-110.379C741.472,-94.9302 696.798,-72.573 663.83,-56.0747"/>
<polygon fill="#ebc72d" stroke="#ebc72d" points="665.372,-52.9327 654.863,-51.5873 662.24,-59.1926 665.372,-52.9327"/>
</g>
<!-- guard_tower -->
<g id="node17" class="node"><title>guard_tower</title>
<g id="a_node17"><a xlink:href="romans_guard_tower_full.html" xlink:title="Guard\nTower">
<polygon fill="none" stroke="red" points="1091.55,-43.543 1046.15,-66.641 1000.75,-43.543 1000.79,-6.16955 1091.5,-6.16955 1091.55,-43.543"/>
<text text-anchor="middle" x="1046.15" y="-37.0132" font-family="Times,serif" font-size="14.00" fill="#ebc72d">Guard</text>
<text text-anchor="middle" x="1046.15" y="-22.0132" font-family="Times,serif" font-size="14.00" fill="#ebc72d">Tower</text>
</a>
</g>
</g>
<!-- wartime_mechanic&#45;&gt;guard_tower -->
<g id="edge45" class="edge"><title>wartime_mechanic&#45;&gt;guard_tower</title>
<path fill="none" stroke="#ebc72d" stroke-width="2" d="M846.848,-111.982C855.141,-108.675 863.892,-105.326 872.146,-102.426 924.681,-83.973 941.183,-88.8596 992.146,-66.4264 997.916,-63.8866 1003.83,-60.8533 1009.53,-57.6786"/>
<polygon fill="#ebc72d" stroke="#ebc72d" stroke-width="2" points="1011.36,-60.6634 1018.26,-52.6237 1007.85,-54.6056 1011.36,-60.6634"/>
</g>
<!-- eagle_pillar -->
<g id="node18" class="node"><title>eagle_pillar</title>
<g id="a_node18"><a xlink:href="romans_eagle_pillar_full.html" xlink:title="Eagle\nPillar">
<polygon fill="none" stroke="red" points="889.305,-43.543 848.146,-66.641 806.987,-43.543 807.025,-6.16955 889.267,-6.16955 889.305,-43.543"/>
<text text-anchor="middle" x="848.146" y="-37.0132" font-family="Times,serif" font-size="14.00" fill="#ebc72d">Eagle</text>
<text text-anchor="middle" x="848.146" y="-22.0132" font-family="Times,serif" font-size="14.00" fill="#ebc72d">Pillar</text>
</a>
</g>
</g>
<!-- wartime_mechanic&#45;&gt;eagle_pillar -->
<g id="edge44" class="edge"><title>wartime_mechanic&#45;&gt;eagle_pillar</title>
<path fill="none" stroke="#ebc72d" stroke-width="2" d="M819.076,-102.588C823.37,-92.4885 828.371,-80.725 833.003,-69.8313"/>
<polygon fill="#ebc72d" stroke="#ebc72d" stroke-width="2" points="836.259,-71.118 836.95,-60.5458 829.817,-68.3791 836.259,-71.118"/>
</g>
<!-- archer -->
<g id="node6" class="node"><title>archer</title>
<g id="a_node6"><a xlink:href="romans_archer_full.html" xlink:title="Archer">
<ellipse fill="none" stroke="magenta" cx="145.146" cy="-129.296" rx="35.194" ry="18"/>
<text text-anchor="middle" x="145.146" y="-125.596" font-family="Times,serif" font-size="14.00" fill="#ebc72d">Archer</text>
</a>
</g>
</g>
<!-- fire_archer -->
<g id="node11" class="node"><title>fire_archer</title>
<g id="a_node11"><a xlink:href="romans_fire_archer_full.html" xlink:title="Fire\nArcher">
<ellipse fill="none" stroke="magenta" cx="145.146" cy="-33.2132" rx="38.3684" ry="26.7407"/>
<text text-anchor="middle" x="145.146" y="-37.0132" font-family="Times,serif" font-size="14.00" fill="#ebc72d">Fire</text>
<text text-anchor="middle" x="145.146" y="-22.0132" font-family="Times,serif" font-size="14.00" fill="#ebc72d">Archer</text>
</a>
</g>
</g>
<!-- archer&#45;&gt;fire_archer -->
<g id="edge1" class="edge"><title>archer&#45;&gt;fire_archer</title>
<path fill="none" stroke="#ebc72d" stroke-dasharray="5,2" d="M145.146,-111.04C145.146,-99.7109 145.146,-84.4662 145.146,-70.5434"/>
<polygon fill="#ebc72d" stroke="#ebc72d" points="148.646,-70.2411 145.146,-60.2411 141.646,-70.2411 148.646,-70.2411"/>
</g>
<!-- military_camp -->
<g id="node8" class="node"><title>military_camp</title>
<g id="a_node8"><a xlink:href="romans_military_camp_full.html" xlink:title="Military\nCamp">
<polygon fill="none" stroke="red" points="1015.53,-235.71 961.146,-258.808 906.765,-235.71 906.816,-198.336 1015.48,-198.336 1015.53,-235.71"/>
<text text-anchor="middle" x="961.146" y="-229.18" font-family="Times,serif" font-size="14.00" fill="#ebc72d">Military</text>
<text text-anchor="middle" x="961.146" y="-214.18" font-family="Times,serif" font-size="14.00" fill="#ebc72d">Camp</text>
</a>
</g>
</g>
<!-- military_camp&#45;&gt;cavalry -->
<g id="edge21" class="edge"><title>military_camp&#45;&gt;cavalry</title>
<path fill="none" stroke="#ebc72d" d="M1003.21,-198.172C1028.01,-182.716 1058.86,-163.5 1081.38,-149.463"/>
<polygon fill="#ebc72d" stroke="#ebc72d" points="1083.25,-152.427 1089.88,-144.168 1079.54,-146.485 1083.25,-152.427"/>
</g>
<!-- military_camp&#45;&gt;general -->
<g id="edge23" class="edge"><title>military_camp&#45;&gt;general</title>
<path fill="none" stroke="#ebc72d" d="M907.695,-198.224C902.494,-196.044 897.253,-193.983 892.146,-192.167 830.396,-170.205 812.292,-173.713 749.146,-156.167 734.675,-152.145 718.916,-147.441 704.942,-143.154"/>
<polygon fill="#ebc72d" stroke="#ebc72d" points="705.713,-139.73 695.126,-140.123 703.648,-146.418 705.713,-139.73"/>
</g>
<!-- military_camp&#45;&gt;wartime_mechanic -->
<g id="edge26" class="edge"><title>military_camp&#45;&gt;wartime_mechanic</title>
<path fill="none" stroke="#ebc72d" d="M918.527,-198.172C896.767,-184.792 870.424,-168.593 848.931,-155.376"/>
<polygon fill="#ebc72d" stroke="#ebc72d" points="850.7,-152.355 840.348,-150.098 847.033,-158.318 850.7,-152.355"/>
</g>
<!-- military_camp&#45;&gt;ballista -->
<g id="edge19" class="edge"><title>military_camp&#45;&gt;ballista</title>
<path fill="none" stroke="#ebc72d" stroke-dasharray="1,5" d="M1046.15,-128.296C1043.47,-108.85 1002.85,-75.7626 973.955,-54.4571"/>
<polygon fill="#ebc72d" stroke="#ebc72d" points="975.933,-51.5681 965.787,-48.5167 971.816,-57.2292 975.933,-51.5681"/>
</g>
<!-- military_camp&#45;&gt;catapult -->
<g id="edge20" class="edge"><title>military_camp&#45;&gt;catapult</title>
<path fill="none" stroke="#ebc72d" stroke-dasharray="1,5" d="M1006.53,-198.273C1028.74,-181.73 1049.99,-158.209 1046.15,-130.296"/>
<path fill="none" stroke="#ebc72d" stroke-dasharray="1,5" d="M1046.15,-128.296C1032.42,-28.6802 1003.03,-145.598 798.146,-66.4264 790.834,-63.6009 783.487,-59.5607 776.789,-55.2923"/>
<polygon fill="#ebc72d" stroke="#ebc72d" points="778.363,-52.1313 768.12,-49.4229 774.438,-57.9276 778.363,-52.1313"/>
</g>
<!-- military_camp&#45;&gt;guard_tower -->
<g id="edge24" class="edge"><title>military_camp&#45;&gt;guard_tower</title>
<path fill="none" stroke="#ebc72d" stroke-dasharray="1,5" d="M1046.15,-128.296C1043.81,-111.306 1043.38,-92.426 1043.7,-76.0642"/>
<polygon fill="#ebc72d" stroke="#ebc72d" points="1047.21,-75.8192 1044.01,-65.721 1040.21,-75.6142 1047.21,-75.8192"/>
</g>
<!-- military_camp&#45;&gt;eagle_pillar -->
<g id="edge22" class="edge"><title>military_camp&#45;&gt;eagle_pillar</title>
<path fill="none" stroke="#ebc72d" stroke-dasharray="1,5" d="M1046.15,-128.296C1036.92,-61.3178 926.632,-79.224 898.146,-66.4264 892.775,-64.0137 887.317,-61.0778 882.076,-57.9715"/>
<polygon fill="#ebc72d" stroke="#ebc72d" points="883.855,-54.9563 873.516,-52.6451 880.157,-60.8998 883.855,-54.9563"/>
</g>
<!-- turtle_formation -->
<g id="node22" class="node"><title>turtle_formation</title>
<g id="a_node22"><a xlink:href="romans_turtle_formation_full.html" xlink:title="Turtle\nFormation">
<ellipse fill="none" stroke="magenta" cx="966.146" cy="-129.296" rx="52.1524" ry="26.7407"/>
<text text-anchor="middle" x="966.146" y="-133.096" font-family="Times,serif" font-size="14.00" fill="#ebc72d">Turtle</text>
<text text-anchor="middle" x="966.146" y="-118.096" font-family="Times,serif" font-size="14.00" fill="#ebc72d">Formation</text>
</a>
</g>
</g>
<!-- military_camp&#45;&gt;turtle_formation -->
<g id="edge25" class="edge"><title>military_camp&#45;&gt;turtle_formation</title>
<path fill="none" stroke="#ebc72d" d="M962.539,-198.172C963.059,-188.385 963.659,-177.091 964.219,-166.558"/>
<polygon fill="#ebc72d" stroke="#ebc72d" points="967.725,-166.535 964.761,-156.363 960.735,-166.164 967.725,-166.535"/>
</g>
<!-- gladiator_school -->
<g id="node9" class="node"><title>gladiator_school</title>
<g id="a_node9"><a xlink:href="romans_gladiator_school_full.html" xlink:title="Gladiator\nSchool">
<polygon fill="none" stroke="red" points="585.514,-235.71 526.146,-258.808 466.777,-235.71 466.833,-198.336 585.459,-198.336 585.514,-235.71"/>
<text text-anchor="middle" x="526.146" y="-229.18" font-family="Times,serif" font-size="14.00" fill="#ebc72d">Gladiator</text>
<text text-anchor="middle" x="526.146" y="-214.18" font-family="Times,serif" font-size="14.00" fill="#ebc72d">School</text>
</a>
</g>
</g>
<!-- gladiator_school&#45;&gt;gladiator -->
<g id="edge18" class="edge"><title>gladiator_school&#45;&gt;gladiator</title>
<path fill="none" stroke="#ebc72d" d="M526.146,-198.172C526.146,-185.514 526.146,-170.333 526.146,-157.541"/>
<polygon fill="#ebc72d" stroke="#ebc72d" points="529.646,-157.466 526.146,-147.466 522.646,-157.466 529.646,-157.466"/>
</g>
<!-- axe_man -->
<g id="node16" class="node"><title>axe_man</title>
<g id="a_node16"><a xlink:href="romans_axe_man_full.html" xlink:title="Axe\nMan">
<ellipse fill="none" stroke="magenta" cx="311.146" cy="-129.296" rx="29.8983" ry="26.7407"/>
<text text-anchor="middle" x="311.146" y="-133.096" font-family="Times,serif" font-size="14.00" fill="#ebc72d">Axe</text>
<text text-anchor="middle" x="311.146" y="-118.096" font-family="Times,serif" font-size="14.00" fill="#ebc72d">Man</text>
</a>
</g>
</g>
<!-- gladiator_school&#45;&gt;axe_man -->
<g id="edge17" class="edge"><title>gladiator_school&#45;&gt;axe_man</title>
<path fill="none" stroke="#ebc72d" d="M466.464,-205.234C431.423,-193.056 386.773,-175.889 349.146,-156.167 346.919,-154.999 344.665,-153.728 342.424,-152.395"/>
<polygon fill="#ebc72d" stroke="#ebc72d" points="344.258,-149.414 333.931,-147.044 340.526,-155.336 344.258,-149.414"/>
</g>
<!-- spearman -->
<g id="node12" class="node"><title>spearman</title>
<g id="a_node12"><a xlink:href="romans_spearman_full.html" xlink:title="Spearman">
<ellipse fill="none" stroke="magenta" cx="46.1459" cy="-129.296" rx="46.2923" ry="18"/>
<text text-anchor="middle" x="46.1459" y="-125.596" font-family="Times,serif" font-size="14.00" fill="#ebc72d">Spearman</text>
</a>
</g>
</g>
<!-- blacksmith_shop -->
<g id="node13" class="node"><title>blacksmith_shop</title>
<g id="a_node13"><a xlink:href="romans_blacksmith_shop_full.html" xlink:title="Blacksmith\nShop">
<polygon fill="none" stroke="red" points="751.243,-235.71 682.146,-258.808 613.049,-235.71 613.113,-198.336 751.179,-198.336 751.243,-235.71"/>
<text text-anchor="middle" x="682.146" y="-229.18" font-family="Times,serif" font-size="14.00" fill="#ebc72d">Blacksmith</text>
<text text-anchor="middle" x="682.146" y="-214.18" font-family="Times,serif" font-size="14.00" fill="#ebc72d">Shop</text>
</a>
</g>
</g>
<!-- blacksmith_shop&#45;&gt;gladiator -->
<g id="edge7" class="edge"><title>blacksmith_shop&#45;&gt;gladiator</title>
<path fill="none" stroke="#ebc72d" stroke-dasharray="1,5" d="M638.691,-198.172C613.382,-182.908 581.991,-163.977 558.797,-149.988"/>
<polygon fill="#ebc72d" stroke="#ebc72d" points="560.398,-146.867 550.027,-144.699 556.783,-152.861 560.398,-146.867"/>
</g>
<!-- blacksmith_shop&#45;&gt;cavalry -->
<g id="edge5" class="edge"><title>blacksmith_shop&#45;&gt;cavalry</title>
<path fill="none" stroke="#ebc72d" stroke-dasharray="1,5" d="M751.286,-199.852C760.9,-196.971 770.714,-194.303 780.146,-192.167 902.516,-164.452 940.088,-192.616 1060.15,-156.167 1066.76,-154.159 1073.56,-151.372 1079.97,-148.368"/>
<polygon fill="#ebc72d" stroke="#ebc72d" points="1081.62,-151.457 1089.02,-143.875 1078.5,-145.187 1081.62,-151.457"/>
</g>
<!-- blacksmith_shop&#45;&gt;general -->
<g id="edge6" class="edge"><title>blacksmith_shop&#45;&gt;general</title>
<path fill="none" stroke="#ebc72d" stroke-dasharray="1,5" d="M677.132,-198.172C674.71,-185.514 671.806,-170.333 669.358,-157.541"/>
<polygon fill="#ebc72d" stroke="#ebc72d" points="672.748,-156.63 667.431,-147.466 665.872,-157.945 672.748,-156.63"/>
</g>
<!-- blacksmith_shop&#45;&gt;tribune -->
<g id="edge10" class="edge"><title>blacksmith_shop&#45;&gt;tribune</title>
<path fill="none" stroke="#ebc72d" stroke-dasharray="1,5" d="M751.275,-201.115C799.656,-184.456 857.334,-163.693 867.146,-156.167 890.357,-138.364 880.502,-118.186 905.146,-102.426 979.394,-54.9468 1018.53,-99.6732 1100.15,-66.4264 1107.3,-63.5112 1114.5,-59.4354 1121.06,-55.1608"/>
<polygon fill="#ebc72d" stroke="#ebc72d" points="1123.31,-57.8602 1129.55,-49.2991 1119.33,-52.0992 1123.31,-57.8602"/>
</g>
<!-- blacksmith_shop&#45;&gt;wartime_mechanic -->
<g id="edge12" class="edge"><title>blacksmith_shop&#45;&gt;wartime_mechanic</title>
<path fill="none" stroke="#ebc72d" stroke-dasharray="1,5" d="M717.244,-198.172C734.14,-185.556 754.391,-170.435 771.486,-157.67"/>
<polygon fill="#ebc72d" stroke="#ebc72d" points="773.678,-160.402 779.596,-151.614 769.49,-154.793 773.678,-160.402"/>
</g>
<!-- blacksmith_shop&#45;&gt;catapult -->
<g id="edge4" class="edge"><title>blacksmith_shop&#45;&gt;catapult</title>
<path fill="none" stroke="#ebc72d" stroke-dasharray="1,5" d="M694.061,-198.063C699.562,-185.498 705.999,-170.178 711.146,-156.167 722.988,-123.927 734.41,-86.0609 741.586,-61.1759"/>
<polygon fill="#ebc72d" stroke="#ebc72d" points="745.008,-61.9367 744.39,-51.36 738.277,-60.0139 745.008,-61.9367"/>
</g>
<!-- blacksmith_shop&#45;&gt;battering_ram -->
<g id="edge3" class="edge"><title>blacksmith_shop&#45;&gt;battering_ram</title>
<path fill="none" stroke="#ebc72d" stroke-dasharray="1,5" d="M647.985,-198.148C635.839,-186.727 623.588,-172.265 617.146,-156.167 606.199,-128.81 608.037,-95.1696 611.996,-70.1546"/>
<polygon fill="#ebc72d" stroke="#ebc72d" points="615.496,-70.4624 613.792,-60.0055 608.603,-69.2427 615.496,-70.4624"/>
</g>
<!-- blacksmith_shop&#45;&gt;axe_man -->
<g id="edge2" class="edge"><title>blacksmith_shop&#45;&gt;axe_man</title>
<path fill="none" stroke="#ebc72d" stroke-dasharray="1,5" d="M615.327,-198.315C608.238,-196.033 601.085,-193.926 594.146,-192.167 487.466,-165.108 451.684,-196.151 349.146,-156.167 346.739,-155.228 344.332,-154.113 341.966,-152.881"/>
<polygon fill="#ebc72d" stroke="#ebc72d" points="343.508,-149.728 333.113,-147.678 339.961,-155.762 343.508,-149.728"/>
</g>
<!-- guard -->
<g id="node19" class="node"><title>guard</title>
<g id="a_node19"><a xlink:href="romans_guard_full.html" xlink:title="Guard">
<ellipse fill="none" stroke="magenta" cx="231.146" cy="-129.296" rx="32.4942" ry="18"/>
<text text-anchor="middle" x="231.146" y="-125.596" font-family="Times,serif" font-size="14.00" fill="#ebc72d">Guard</text>
</a>
</g>
</g>
<!-- blacksmith_shop&#45;&gt;guard -->
<g id="edge8" class="edge"><title>blacksmith_shop&#45;&gt;guard</title>
<path fill="none" stroke="#ebc72d" stroke-dasharray="1,5" d="M615.871,-198.221C608.613,-195.926 601.272,-193.844 594.146,-192.167 453.972,-159.18 408.043,-203.797 272.146,-156.167 267.43,-154.514 262.696,-152.236 258.206,-149.712"/>
<polygon fill="#ebc72d" stroke="#ebc72d" points="259.768,-146.564 249.417,-144.307 256.102,-152.527 259.768,-146.564"/>
</g>
<!-- blacksmith_shop&#45;&gt;turtle_formation -->
<g id="edge11" class="edge"><title>blacksmith_shop&#45;&gt;turtle_formation</title>
<path fill="none" stroke="#ebc72d" stroke-dasharray="1,5" d="M751.406,-201.364C761.046,-198.234 770.834,-195.093 780.146,-192.167 833.266,-175.471 847.514,-174.342 900.146,-156.167 905.381,-154.359 910.815,-152.387 916.216,-150.365"/>
<polygon fill="#ebc72d" stroke="#ebc72d" points="917.752,-153.525 925.852,-146.696 915.261,-146.984 917.752,-153.525"/>
</g>
<!-- swordsman -->
<g id="node23" class="node"><title>swordsman</title>
<g id="a_node23"><a xlink:href="romans_swordsman_full.html" xlink:title="Swordsman">
<ellipse fill="none" stroke="magenta" cx="411.146" cy="-129.296" rx="52.7911" ry="18"/>
<text text-anchor="middle" x="411.146" y="-125.596" font-family="Times,serif" font-size="14.00" fill="#ebc72d">Swordsman</text>
</a>
</g>
</g>
<!-- blacksmith_shop&#45;&gt;swordsman -->
<g id="edge9" class="edge"><title>blacksmith_shop&#45;&gt;swordsman</title>
<path fill="none" stroke="#ebc72d" stroke-dasharray="1,5" d="M612.633,-198.485C606.399,-196.298 600.169,-194.163 594.146,-192.167 540.887,-174.515 525.999,-174.996 473.146,-156.167 466.121,-153.664 458.738,-150.798 451.613,-147.906"/>
<polygon fill="#ebc72d" stroke="#ebc72d" points="452.695,-144.565 442.117,-143.977 450.02,-151.034 452.695,-144.565"/>
</g>
<!-- colosseum -->
<g id="node14" class="node"><title>colosseum</title>
<g id="a_node14"><a xlink:href="romans_colosseum_full.html" xlink:title="Colosseum">
<polygon fill="none" stroke="red" points="1068.87,-390.155 1007.15,-402.593 945.426,-390.155 945.484,-370.031 1068.81,-370.031 1068.87,-390.155"/>
<text text-anchor="middle" x="1007.15" y="-380.893" font-family="Times,serif" font-size="14.00" fill="#ebc72d">Colosseum</text>
</a>
</g>
</g>
<!-- colosseum&#45;&gt;cavalry -->
<g id="edge14" class="edge"><title>colosseum&#45;&gt;cavalry</title>
<path fill="none" stroke="#ebc72d" stroke-dasharray="1,5" d="M1044.78,-369.926C1098.7,-347.693 1190.23,-298.774 1178.15,-226.38"/>
<path fill="none" stroke="#ebc72d" stroke-dasharray="1,5" d="M1178.15,-224.38C1179.58,-195.481 1158.21,-169.132 1139.41,-151.717"/>
<polygon fill="#ebc72d" stroke="#ebc72d" points="1141.67,-149.04 1131.85,-145.045 1137.03,-154.287 1141.67,-149.04"/>
</g>
<!-- colosseum&#45;&gt;tribune -->
<g id="edge16" class="edge"><title>colosseum&#45;&gt;tribune</title>
<path fill="none" stroke="#ebc72d" stroke-dasharray="1,5" d="M1178.15,-224.38C1181.06,-165.589 1165.77,-97.6871 1155.94,-61.0345"/>
<polygon fill="#ebc72d" stroke="#ebc72d" points="1159.24,-59.8436 1153.21,-51.1327 1152.49,-61.7032 1159.24,-59.8436"/>
</g>
<!-- slave -->
<g id="node24" class="node"><title>slave</title>
<g id="a_node24"><a xlink:href="romans_slave_full.html" xlink:title="Slave">
<ellipse fill="none" stroke="magenta" cx="759.146" cy="-312.593" rx="30.5947" ry="18"/>
<text text-anchor="middle" x="759.146" y="-308.893" font-family="Times,serif" font-size="14.00" fill="#ebc72d">Slave</text>
</a>
</g>
</g>
<!-- colosseum&#45;&gt;slave -->
<g id="edge15" class="edge"><title>colosseum&#45;&gt;slave</title>
<path fill="none" stroke="#ebc72d" d="M949.373,-367.286C901.954,-353.902 836.249,-335.356 795.78,-323.933"/>
<polygon fill="#ebc72d" stroke="#ebc72d" points="948.46,-370.665 959.035,-370.013 950.362,-363.928 948.46,-370.665"/>
<polygon fill="#ebc72d" stroke="#ebc72d" points="796.636,-320.538 786.061,-321.19 794.734,-327.275 796.636,-320.538"/>
</g>
<!-- temple -->
<g id="node20" class="node"><title>temple</title>
<g id="a_node20"><a xlink:href="romans_temple_full.html" xlink:title="Temple">
<polygon fill="none" stroke="red" points="883.444,-230.942 836.146,-243.38 788.848,-230.942 788.892,-210.817 883.4,-210.817 883.444,-230.942"/>
<text text-anchor="middle" x="836.146" y="-221.68" font-family="Times,serif" font-size="14.00" fill="#ebc72d">Temple</text>
</a>
</g>
</g>
<!-- temple&#45;&gt;turtle_formation -->
<g id="edge33" class="edge"><title>temple&#45;&gt;turtle_formation</title>
<path fill="none" stroke="#ebc72d" stroke-dasharray="1,5" d="M855.049,-210.699C874.199,-196.84 904.347,-175.022 928.408,-157.608"/>
<polygon fill="#ebc72d" stroke="#ebc72d" points="930.588,-160.351 936.637,-151.653 926.484,-154.68 930.588,-160.351"/>
</g>
<!-- training_camp -->
<g id="node21" class="node"><title>training_camp</title>
<g id="a_node21"><a xlink:href="romans_training_camp_full.html" xlink:title="Training\nCamp">
<polygon fill="none" stroke="red" points="408.274,-235.71 353.146,-258.808 298.018,-235.71 298.069,-198.336 408.223,-198.336 408.274,-235.71"/>
<text text-anchor="middle" x="353.146" y="-229.18" font-family="Times,serif" font-size="14.00" fill="#ebc72d">Training</text>
<text text-anchor="middle" x="353.146" y="-214.18" font-family="Times,serif" font-size="14.00" fill="#ebc72d">Camp</text>
</a>
</g>
</g>
<!-- training_camp&#45;&gt;general -->
<g id="edge36" class="edge"><title>training_camp&#45;&gt;general</title>
<path fill="none" stroke="#ebc72d" stroke-dasharray="1,5" d="M408.43,-207.323C424.459,-202.403 441.992,-197.047 458.146,-192.167 511.855,-175.938 525.419,-172.335 579.146,-156.167 593.409,-151.874 609.006,-147.139 622.901,-142.906"/>
<polygon fill="#ebc72d" stroke="#ebc72d" points="624.13,-146.191 632.674,-139.926 622.088,-139.495 624.13,-146.191"/>
</g>
<!-- training_camp&#45;&gt;wartime_mechanic -->
<g id="edge40" class="edge"><title>training_camp&#45;&gt;wartime_mechanic</title>
<path fill="none" stroke="#ebc72d" stroke-dasharray="1,5" d="M408.295,-205.69C424.244,-200.769 441.769,-195.82 458.146,-192.167 568.998,-167.435 599.855,-178.841 711.146,-156.167 725.438,-153.255 740.752,-149.482 754.892,-145.722"/>
<polygon fill="#ebc72d" stroke="#ebc72d" points="756.212,-148.991 764.95,-143 754.383,-142.234 756.212,-148.991"/>
</g>
<!-- training_camp&#45;&gt;archer -->
<g id="edge34" class="edge"><title>training_camp&#45;&gt;archer</title>
<path fill="none" stroke="#ebc72d" d="M298.047,-203.322C266.097,-190.618 225.347,-173.565 190.146,-156.167 185.42,-153.831 180.504,-151.211 175.732,-148.56"/>
<polygon fill="#ebc72d" stroke="#ebc72d" points="177.242,-145.393 166.819,-143.489 173.78,-151.477 177.242,-145.393"/>
</g>
<!-- training_camp&#45;&gt;spearman -->
<g id="edge38" class="edge"><title>training_camp&#45;&gt;spearman</title>
<path fill="none" stroke="#ebc72d" d="M297.715,-212.331C246.069,-200.414 167.304,-180.467 101.146,-156.167 94.9707,-153.898 88.5413,-151.201 82.3477,-148.417"/>
<polygon fill="#ebc72d" stroke="#ebc72d" points="83.4236,-145.058 72.8796,-144.022 80.4762,-151.407 83.4236,-145.058"/>
</g>
<!-- training_camp&#45;&gt;axe_man -->
<g id="edge35" class="edge"><title>training_camp&#45;&gt;axe_man</title>
<path fill="none" stroke="#ebc72d" stroke-dasharray="1,5" d="M341.447,-198.172C336.668,-187.468 331.084,-174.96 326.021,-163.618"/>
<polygon fill="#ebc72d" stroke="#ebc72d" points="329.192,-162.134 321.919,-154.43 322.8,-164.988 329.192,-162.134"/>
</g>
<!-- training_camp&#45;&gt;guard -->
<g id="edge37" class="edge"><title>training_camp&#45;&gt;guard</title>
<path fill="none" stroke="#ebc72d" d="M319.162,-198.172C299.773,-183.22 275.821,-164.749 257.8,-150.852"/>
<polygon fill="#ebc72d" stroke="#ebc72d" points="259.533,-147.768 249.477,-144.433 255.258,-153.311 259.533,-147.768"/>
</g>
<!-- training_camp&#45;&gt;swordsman -->
<g id="edge39" class="edge"><title>training_camp&#45;&gt;swordsman</title>
<path fill="none" stroke="#ebc72d" d="M369.302,-198.172C377.472,-184.919 387.347,-168.901 395.452,-155.755"/>
<polygon fill="#ebc72d" stroke="#ebc72d" points="398.469,-157.53 400.737,-147.181 392.51,-153.857 398.469,-157.53"/>
</g>
<!-- slave&#45;&gt;military_camp -->
<g id="edge30" class="edge"><title>slave&#45;&gt;military_camp</title>
<path fill="none" stroke="#ebc72d" stroke-width="2" d="M784.326,-302.056C811.206,-291.76 854.956,-274.668 892.146,-258.593 899.909,-255.238 908.1,-251.548 916.022,-247.9"/>
<polygon fill="#ebc72d" stroke="#ebc72d" stroke-width="2" points="917.558,-251.045 925.155,-243.66 914.611,-244.696 917.558,-251.045"/>
</g>
<!-- slave&#45;&gt;gladiator_school -->
<g id="edge29" class="edge"><title>slave&#45;&gt;gladiator_school</title>
<path fill="none" stroke="#ebc72d" stroke-width="2" d="M732.916,-303.176C701.948,-293.111 648.985,-275.499 604.146,-258.593 594.79,-255.065 584.878,-251.129 575.372,-247.253"/>
<polygon fill="#ebc72d" stroke="#ebc72d" stroke-width="2" points="576.617,-243.98 566.038,-243.414 573.955,-250.454 576.617,-243.98"/>
</g>
<!-- slave&#45;&gt;blacksmith_shop -->
<g id="edge27" class="edge"><title>slave&#45;&gt;blacksmith_shop</title>
<path fill="none" stroke="#ebc72d" stroke-width="2" d="M745.38,-296.359C736.066,-286.051 723.403,-272.037 711.855,-259.257"/>
<polygon fill="#ebc72d" stroke="#ebc72d" stroke-width="2" points="714.15,-256.577 704.848,-251.504 708.956,-261.27 714.15,-256.577"/>
</g>
<!-- slave&#45;&gt;temple -->
<g id="edge31" class="edge"><title>slave&#45;&gt;temple</title>
<path fill="none" stroke="#ebc72d" stroke-width="2" d="M772.912,-296.359C785.03,-282.948 802.816,-263.265 816.441,-248.187"/>
<polygon fill="#ebc72d" stroke="#ebc72d" stroke-width="2" points="819.412,-250.119 823.52,-240.353 814.218,-245.426 819.412,-250.119"/>
</g>
<!-- slave&#45;&gt;training_camp -->
<g id="edge32" class="edge"><title>slave&#45;&gt;training_camp</title>
<path fill="none" stroke="#ebc72d" stroke-width="2" d="M729.416,-307.601C675.115,-300.035 556.425,-282.226 458.146,-258.593 440.943,-254.456 422.417,-249.086 405.786,-243.921"/>
<polygon fill="#ebc72d" stroke="#ebc72d" stroke-width="2" points="406.827,-240.579 396.238,-240.914 404.724,-247.256 406.827,-240.579"/>
</g>
</g>
</svg>
