<?xml version="1.0" encoding="UTF-8" standalone="no"?>
<!DOCTYPE svg PUBLIC "-//W3C//DTD SVG 1.1//EN"
 "http://www.w3.org/Graphics/SVG/1.1/DTD/svg11.dtd">
<!-- Generated by graphviz version 2.38.0 (20140413.2041)
 -->
<!-- Title: test Pages: 1 -->
<svg width="2707pt" height="361pt"
 viewBox="0.00 0.00 2706.75 360.85" xmlns="http://www.w3.org/2000/svg" xmlns:xlink="http://www.w3.org/1999/xlink">
<g id="graph0" class="graph" transform="scale(1 1) rotate(0) translate(4 356.853)">
<title>test</title>
<polygon fill="#151515" stroke="none" points="-4,4 -4,-356.853 2702.75,-356.853 2702.75,4 -4,4"/>
<!-- gladiator -->
<g id="node1" class="node"><title>gladiator</title>
<g id="a_node1"><a xlink:href="romans_gladiator_full.html" xlink:title="Gladiator">
<ellipse fill="none" stroke="magenta" cx="1716.45" cy="-33.2132" rx="44.393" ry="18"/>
<text text-anchor="middle" x="1716.45" y="-29.5132" font-family="Times,serif" font-size="14.00" fill="#ebc72d">Gladiator</text>
</a>
</g>
</g>
<!-- cavalry -->
<g id="node2" class="node"><title>cavalry</title>
<g id="a_node2"><a xlink:href="romans_cavalry_full.html" xlink:title="Cavalry">
<ellipse fill="none" stroke="magenta" cx="637.45" cy="-140.426" rx="38.1938" ry="18"/>
<text text-anchor="middle" x="637.45" y="-136.726" font-family="Times,serif" font-size="14.00" fill="#ebc72d">Cavalry</text>
</a>
</g>
</g>
<!-- tribune -->
<g id="node4" class="node"><title>tribune</title>
<g id="a_node4"><a xlink:href="romans_tribune_full.html" xlink:title="Tribune">
<ellipse fill="none" stroke="magenta" cx="1019.45" cy="-33.2132" rx="38.1938" ry="18"/>
<text text-anchor="middle" x="1019.45" y="-29.5132" font-family="Times,serif" font-size="14.00" fill="#ebc72d">Tribune</text>
</a>
</g>
</g>
<!-- cavalry&#45;&gt;tribune -->
<g id="edge20" class="edge"><title>cavalry&#45;&gt;tribune</title>
<path fill="none" stroke="#ebc72d" stroke-dasharray="5,2" d="M653.152,-124.005C661.741,-116.406 672.954,-107.753 684.45,-102.426 780.041,-58.135 904.129,-42.4699 971.238,-37.0275"/>
<polygon fill="#ebc72d" stroke="#ebc72d" points="971.804,-40.4945 981.506,-36.239 971.268,-33.515 971.804,-40.4945"/>
</g>
<!-- general -->
<g id="node3" class="node"><title>general</title>
<g id="a_node3"><a xlink:href="romans_general_full.html" xlink:title="General">
<ellipse fill="none" stroke="magenta" cx="446.45" cy="-33.2132" rx="38.1938" ry="18"/>
<text text-anchor="middle" x="446.45" y="-29.5132" font-family="Times,serif" font-size="14.00" fill="#ebc72d">General</text>
</a>
</g>
</g>
<!-- wartime_mechanic -->
<g id="node5" class="node"><title>wartime_mechanic</title>
<g id="a_node5"><a xlink:href="romans_wartime_mechanic_full.html" xlink:title="Wartime\nMechanic">
<ellipse fill="none" stroke="magenta" cx="1229.45" cy="-140.426" rx="50.41" ry="26.7407"/>
<text text-anchor="middle" x="1229.45" y="-144.226" font-family="Times,serif" font-size="14.00" fill="#ebc72d">Wartime</text>
<text text-anchor="middle" x="1229.45" y="-129.226" font-family="Times,serif" font-size="14.00" fill="#ebc72d">Mechanic</text>
</a>
</g>
</g>
<!-- ballista -->
<g id="node7" class="node"><title>ballista</title>
<g id="a_node7"><a xlink:href="romans_ballista_full.html" xlink:title="Ballista">
<ellipse fill="none" stroke="magenta" cx="1353.45" cy="-33.2132" rx="37.8943" ry="18"/>
<text text-anchor="middle" x="1353.45" y="-29.5132" font-family="Times,serif" font-size="14.00" fill="#ebc72d">Ballista</text>
</a>
</g>
</g>
<!-- wartime_mechanic&#45;&gt;ballista -->
<g id="edge54" class="edge"><title>wartime_mechanic&#45;&gt;ballista</title>
<path fill="none" stroke="#ebc72d" stroke-dasharray="5,2" d="M1255.44,-117.37C1276.73,-99.3104 1306.68,-73.8994 1327.85,-55.9319"/>
<polygon fill="#ebc72d" stroke="#ebc72d" points="1330.14,-58.5796 1335.5,-49.441 1325.61,-53.2421 1330.14,-58.5796"/>
</g>
<!-- catapult -->
<g id="node10" class="node"><title>catapult</title>
<g id="a_node10"><a xlink:href="romans_catapult_full.html" xlink:title="Catapult">
<ellipse fill="none" stroke="magenta" cx="1229.45" cy="-33.2132" rx="40.0939" ry="18"/>
<text text-anchor="middle" x="1229.45" y="-29.5132" font-family="Times,serif" font-size="14.00" fill="#ebc72d">Catapult</text>
</a>
</g>
</g>
<!-- wartime_mechanic&#45;&gt;catapult -->
<g id="edge56" class="edge"><title>wartime_mechanic&#45;&gt;catapult</title>
<path fill="none" stroke="#ebc72d" stroke-dasharray="5,2" d="M1229.45,-113.419C1229.45,-97.6958 1229.45,-77.6712 1229.45,-61.6905"/>
<polygon fill="#ebc72d" stroke="#ebc72d" points="1232.95,-61.3755 1229.45,-51.3756 1225.95,-61.3756 1232.95,-61.3755"/>
</g>
<!-- battering_ram -->
<g id="node14" class="node"><title>battering_ram</title>
<g id="a_node14"><a xlink:href="romans_battering_ram_full.html" xlink:title="Battering\nRam">
<ellipse fill="none" stroke="magenta" cx="303.45" cy="-33.2132" rx="47.2526" ry="26.7407"/>
<text text-anchor="middle" x="303.45" y="-37.0132" font-family="Times,serif" font-size="14.00" fill="#ebc72d">Battering</text>
<text text-anchor="middle" x="303.45" y="-22.0132" font-family="Times,serif" font-size="14.00" fill="#ebc72d">Ram</text>
</a>
</g>
</g>
<!-- wartime_mechanic&#45;&gt;battering_ram -->
<g id="edge55" class="edge"><title>wartime_mechanic&#45;&gt;battering_ram</title>
<path fill="none" stroke="#ebc72d" stroke-dasharray="5,2" d="M1192.51,-122.183C1174.75,-114.717 1152.91,-106.718 1132.45,-102.426 813.225,-35.4731 719.969,-126.877 399.45,-66.4264 383.294,-63.3796 366.132,-58.2601 350.853,-52.989"/>
<polygon fill="#ebc72d" stroke="#ebc72d" points="351.71,-49.5787 341.115,-49.5234 349.363,-56.1736 351.71,-49.5787"/>
</g>
<!-- archer -->
<g id="node6" class="node"><title>archer</title>
<g id="a_node6"><a xlink:href="romans_archer_full.html" xlink:title="Archer">
<ellipse fill="none" stroke="magenta" cx="2333.45" cy="-140.426" rx="35.194" ry="18"/>
<text text-anchor="middle" x="2333.45" y="-136.726" font-family="Times,serif" font-size="14.00" fill="#ebc72d">Archer</text>
</a>
</g>
</g>
<!-- fire_archer -->
<g id="node11" class="node"><title>fire_archer</title>
<g id="a_node11"><a xlink:href="romans_fire_archer_full.html" xlink:title="Fire\nArcher">
<ellipse fill="none" stroke="magenta" cx="2333.45" cy="-33.2132" rx="38.3684" ry="26.7407"/>
<text text-anchor="middle" x="2333.45" y="-37.0132" font-family="Times,serif" font-size="14.00" fill="#ebc72d">Fire</text>
<text text-anchor="middle" x="2333.45" y="-22.0132" font-family="Times,serif" font-size="14.00" fill="#ebc72d">Archer</text>
</a>
</g>
</g>
<!-- archer&#45;&gt;fire_archer -->
<g id="edge4" class="edge"><title>archer&#45;&gt;fire_archer</title>
<path fill="none" stroke="#ebc72d" stroke-dasharray="5,2" d="M2333.45,-122.053C2333.45,-108.132 2333.45,-88.1205 2333.45,-70.713"/>
<polygon fill="#ebc72d" stroke="#ebc72d" points="2336.95,-70.2885 2333.45,-60.2885 2329.95,-70.2886 2336.95,-70.2885"/>
</g>
<!-- military_camp -->
<g id="node8" class="node"><title>military_camp</title>
<g id="a_node8"><a xlink:href="romans_military_camp_full.html" xlink:title="Military\nCamp">
<polygon fill="none" stroke="red" points="625.83,-257.969 571.45,-281.067 517.069,-257.969 517.12,-220.596 625.78,-220.596 625.83,-257.969"/>
<text text-anchor="middle" x="571.45" y="-251.44" font-family="Times,serif" font-size="14.00" fill="#ebc72d">Military</text>
<text text-anchor="middle" x="571.45" y="-236.44" font-family="Times,serif" font-size="14.00" fill="#ebc72d">Camp</text>
</a>
</g>
</g>
<!-- military_camp&#45;&gt;cavalry -->
<g id="edge28" class="edge"><title>military_camp&#45;&gt;cavalry</title>
<path fill="none" stroke="#ebc72d" d="M587.934,-220.361C598.211,-203.978 611.368,-183.004 621.536,-166.795"/>
<polygon fill="#ebc72d" stroke="#ebc72d" points="624.784,-168.203 627.133,-157.872 618.854,-164.484 624.784,-168.203"/>
</g>
<!-- military_camp&#45;&gt;general -->
<g id="edge30" class="edge"><title>military_camp&#45;&gt;general</title>
<path fill="none" stroke="#ebc72d" d="M517.209,-237.762C457.393,-226.736 366.877,-205.965 346.45,-178.426 326.326,-151.297 330.67,-132.292 346.45,-102.426 359.421,-77.8758 385.641,-60.4969 407.978,-49.4264"/>
<polygon fill="#ebc72d" stroke="#ebc72d" points="409.699,-52.4846 417.263,-45.0656 406.724,-46.1486 409.699,-52.4846"/>
</g>
<!-- military_camp&#45;&gt;wartime_mechanic -->
<g id="edge32" class="edge"><title>military_camp&#45;&gt;wartime_mechanic</title>
<path fill="none" stroke="#ebc72d" d="M625.657,-241.745C746.931,-230.518 1036.97,-202.065 1132.45,-178.426 1148.97,-174.337 1166.49,-168.232 1182.04,-162.154"/>
<polygon fill="#ebc72d" stroke="#ebc72d" points="1183.45,-165.358 1191.43,-158.392 1180.85,-158.86 1183.45,-165.358"/>
</g>
<!-- turtle_formation -->
<g id="node21" class="node"><title>turtle_formation</title>
<g id="a_node21"><a xlink:href="romans_turtle_formation_full.html" xlink:title="Turtle\nFormation">
<ellipse fill="none" stroke="magenta" cx="684.45" cy="-33.2132" rx="52.1524" ry="26.7407"/>
<text text-anchor="middle" x="684.45" y="-37.0132" font-family="Times,serif" font-size="14.00" fill="#ebc72d">Turtle</text>
<text text-anchor="middle" x="684.45" y="-22.0132" font-family="Times,serif" font-size="14.00" fill="#ebc72d">Formation</text>
</a>
</g>
</g>
<!-- military_camp&#45;&gt;turtle_formation -->
<g id="edge31" class="edge"><title>military_camp&#45;&gt;turtle_formation</title>
<path fill="none" stroke="#ebc72d" d="M568.962,-220.428C567.337,-189.898 568.681,-138.989 590.45,-102.426 601.708,-83.5175 620.452,-68.3332 638.252,-57.1345"/>
<polygon fill="#ebc72d" stroke="#ebc72d" points="640.105,-60.105 646.878,-51.9583 636.503,-54.1027 640.105,-60.105"/>
</g>
<!-- formations -->
<g id="node30" class="node"><title>formations</title>
<g id="a_node30"><a xlink:href="romans_formations_full.html" xlink:title="Formations">
<polygon fill="none" stroke="green" points="505.515,-158.426 386.103,-158.426 355.385,-122.426 474.796,-122.426 505.515,-158.426"/>
<text text-anchor="middle" x="430.45" y="-136.726" font-family="Times,serif" font-size="14.00" fill="#ebc72d">Formations</text>
</a>
</g>
</g>
<!-- military_camp&#45;&gt;formations -->
<g id="edge29" class="edge"><title>military_camp&#45;&gt;formations</title>
<path fill="none" stroke="#ebc72d" d="M536.233,-220.361C513.233,-203.199 483.481,-180.998 461.391,-164.515"/>
<polygon fill="#ebc72d" stroke="#ebc72d" points="463.438,-161.675 453.33,-158.5 459.252,-167.285 463.438,-161.675"/>
</g>
<!-- advanced_architecture -->
<g id="node31" class="node"><title>advanced_architecture</title>
<g id="a_node31"><a xlink:href="romans_advanced_architecture_full.html" xlink:title="Advanced\nArchitecture">
<polygon fill="none" stroke="green" points="261.624,-178.426 122.949,-178.426 87.275,-102.426 225.95,-102.426 261.624,-178.426"/>
<text text-anchor="middle" x="174.45" y="-144.226" font-family="Times,serif" font-size="14.00" fill="#ebc72d">Advanced</text>
<text text-anchor="middle" x="174.45" y="-129.226" font-family="Times,serif" font-size="14.00" fill="#ebc72d">Architecture</text>
</a>
</g>
</g>
<!-- military_camp&#45;&gt;advanced_architecture -->
<g id="edge27" class="edge"><title>military_camp&#45;&gt;advanced_architecture</title>
<path fill="none" stroke="#ebc72d" d="M517.181,-236.25C457.414,-224.319 358.733,-203.173 275.45,-178.426 273.304,-177.789 271.139,-177.13 268.959,-176.453"/>
<polygon fill="#ebc72d" stroke="#ebc72d" points="269.925,-173.088 259.334,-173.381 267.796,-179.756 269.925,-173.088"/>
</g>
<!-- gladiator_school -->
<g id="node9" class="node"><title>gladiator_school</title>
<g id="a_node9"><a xlink:href="romans_gladiator_school_full.html" xlink:title="Gladiator\nSchool">
<polygon fill="none" stroke="red" points="1775.82,-150.756 1716.45,-173.854 1657.08,-150.756 1657.14,-113.383 1775.76,-113.383 1775.82,-150.756"/>
<text text-anchor="middle" x="1716.45" y="-144.226" font-family="Times,serif" font-size="14.00" fill="#ebc72d">Gladiator</text>
<text text-anchor="middle" x="1716.45" y="-129.226" font-family="Times,serif" font-size="14.00" fill="#ebc72d">School</text>
</a>
</g>
</g>
<!-- gladiator_school&#45;&gt;gladiator -->
<g id="edge26" class="edge"><title>gladiator_school&#45;&gt;gladiator</title>
<path fill="none" stroke="#ebc72d" d="M1716.45,-113.148C1716.45,-97.4218 1716.45,-77.4662 1716.45,-61.5546"/>
<polygon fill="#ebc72d" stroke="#ebc72d" points="1719.95,-61.2866 1716.45,-51.2866 1712.95,-61.2867 1719.95,-61.2866"/>
</g>
<!-- axe_man -->
<g id="node15" class="node"><title>axe_man</title>
<g id="a_node15"><a xlink:href="romans_axe_man_full.html" xlink:title="Axe\nMan">
<ellipse fill="none" stroke="magenta" cx="2247.45" cy="-33.2132" rx="29.8983" ry="26.7407"/>
<text text-anchor="middle" x="2247.45" y="-37.0132" font-family="Times,serif" font-size="14.00" fill="#ebc72d">Axe</text>
<text text-anchor="middle" x="2247.45" y="-22.0132" font-family="Times,serif" font-size="14.00" fill="#ebc72d">Man</text>
</a>
</g>
</g>
<!-- gladiator_school&#45;&gt;axe_man -->
<g id="edge25" class="edge"><title>gladiator_school&#45;&gt;axe_man</title>
<path fill="none" stroke="#ebc72d" d="M1758.07,-113.308C1766.53,-109.008 1775.57,-105.092 1784.45,-102.426 1965.59,-48.073 2033.35,-137.899 2208.45,-66.4264 2212.47,-64.7836 2216.4,-62.5718 2220.12,-60.0723"/>
<polygon fill="#ebc72d" stroke="#ebc72d" points="2222.48,-62.6716 2228.35,-53.8507 2218.26,-57.0866 2222.48,-62.6716"/>
</g>
<!-- spearman -->
<g id="node12" class="node"><title>spearman</title>
<g id="a_node12"><a xlink:href="romans_spearman_full.html" xlink:title="Spearman">
<ellipse fill="none" stroke="magenta" cx="2580.45" cy="-140.426" rx="46.2923" ry="18"/>
<text text-anchor="middle" x="2580.45" y="-136.726" font-family="Times,serif" font-size="14.00" fill="#ebc72d">Spearman</text>
</a>
</g>
</g>
<!-- blacksmith_shop -->
<g id="node13" class="node"><title>blacksmith_shop</title>
<g id="a_node13"><a xlink:href="romans_blacksmith_shop_full.html" xlink:title="Blacksmith\nShop">
<polygon fill="none" stroke="red" points="1060.55,-257.969 991.45,-281.067 922.353,-257.969 922.417,-220.596 1060.48,-220.596 1060.55,-257.969"/>
<text text-anchor="middle" x="991.45" y="-251.44" font-family="Times,serif" font-size="14.00" fill="#ebc72d">Blacksmith</text>
<text text-anchor="middle" x="991.45" y="-236.44" font-family="Times,serif" font-size="14.00" fill="#ebc72d">Shop</text>
</a>
</g>
</g>
<!-- blacksmith_shop&#45;&gt;cavalry -->
<g id="edge5" class="edge"><title>blacksmith_shop&#45;&gt;cavalry</title>
<path fill="none" stroke="#ebc72d" stroke-dasharray="1,5" d="M922.125,-240.174C857.953,-232.155 761.163,-214.802 684.45,-178.426 676.357,-174.589 668.382,-169.137 661.364,-163.595"/>
<polygon fill="#ebc72d" stroke="#ebc72d" points="663.539,-160.851 653.616,-157.138 659.058,-166.229 663.539,-160.851"/>
</g>
<!-- blacksmith_shop&#45;&gt;general -->
<g id="edge8" class="edge"><title>blacksmith_shop&#45;&gt;general</title>
<path fill="none" stroke="#ebc72d" stroke-dasharray="1,5" d="M922.158,-239.98C823.192,-229.607 647.059,-207.705 590.45,-178.426 589.98,-178.184 509.903,-97.8761 469.381,-57.2225"/>
<polygon fill="#ebc72d" stroke="#ebc72d" points="471.61,-54.5003 462.071,-49.8885 466.652,-59.442 471.61,-54.5003"/>
</g>
<!-- blacksmith_shop&#45;&gt;wartime_mechanic -->
<g id="edge16" class="edge"><title>blacksmith_shop&#45;&gt;wartime_mechanic</title>
<path fill="none" stroke="#ebc72d" stroke-dasharray="1,5" d="M1060.64,-222.249C1092.97,-210.163 1131.69,-194.69 1165.45,-178.426 1173.1,-174.743 1181.06,-170.494 1188.67,-166.218"/>
<polygon fill="#ebc72d" stroke="#ebc72d" points="1190.47,-169.224 1197.4,-161.216 1186.99,-163.15 1190.47,-169.224"/>
</g>
<!-- blacksmith_shop&#45;&gt;gladiator_school -->
<g id="edge9" class="edge"><title>blacksmith_shop&#45;&gt;gladiator_school</title>
<path fill="none" stroke="#ebc72d" stroke-dasharray="1,5" d="M1060.64,-242.903C1206.3,-234.478 1540.02,-212.073 1648.45,-178.426 1657.79,-175.529 1667.31,-171.292 1676.15,-166.709"/>
<polygon fill="#ebc72d" stroke="#ebc72d" points="1677.98,-169.701 1685.09,-161.85 1674.63,-163.551 1677.98,-169.701"/>
</g>
<!-- guard_tower -->
<g id="node16" class="node"><title>guard_tower</title>
<g id="a_node16"><a xlink:href="romans_guard_tower_full.html" xlink:title="Guard\nTower">
<polygon fill="none" stroke="red" points="90.8491,-43.543 45.4497,-66.641 0.0502778,-43.543 0.0926527,-6.16955 90.8067,-6.16955 90.8491,-43.543"/>
<text text-anchor="middle" x="45.4497" y="-37.0132" font-family="Times,serif" font-size="14.00" fill="#ebc72d">Guard</text>
<text text-anchor="middle" x="45.4497" y="-22.0132" font-family="Times,serif" font-size="14.00" fill="#ebc72d">Tower</text>
</a>
</g>
</g>
<!-- blacksmith_shop&#45;&gt;guard_tower -->
<g id="edge10" class="edge"><title>blacksmith_shop&#45;&gt;guard_tower</title>
<path fill="none" stroke="#ebc72d" stroke-dasharray="1,5" d="M922.387,-239.885C850.508,-232.978 734.652,-222.19 634.45,-214.426 511.005,-204.862 195.97,-217.399 78.4497,-178.426 49.7823,-168.92 37.7603,-166.846 21.4497,-141.426"/>
</g>
<!-- eagle_pillar -->
<g id="node17" class="node"><title>eagle_pillar</title>
<g id="a_node17"><a xlink:href="romans_eagle_pillar_full.html" xlink:title="Eagle\nPillar">
<polygon fill="none" stroke="red" points="215.609,-43.543 174.45,-66.641 133.29,-43.543 133.329,-6.16955 215.57,-6.16955 215.609,-43.543"/>
<text text-anchor="middle" x="174.45" y="-37.0132" font-family="Times,serif" font-size="14.00" fill="#ebc72d">Eagle</text>
<text text-anchor="middle" x="174.45" y="-22.0132" font-family="Times,serif" font-size="14.00" fill="#ebc72d">Pillar</text>
</a>
</g>
</g>
<!-- blacksmith_shop&#45;&gt;eagle_pillar -->
<g id="edge6" class="edge"><title>blacksmith_shop&#45;&gt;eagle_pillar</title>
<path fill="none" stroke="#ebc72d" stroke-dasharray="1,5" d="M922.382,-240.583C761.261,-226.284 372.188,-190.713 346.45,-178.426 303.341,-157.847 306.937,-133.258 270.45,-102.426 251.306,-86.2497 228.483,-69.9243 209.895,-57.3019"/>
<polygon fill="#ebc72d" stroke="#ebc72d" points="211.665,-54.2743 201.413,-51.5987 207.759,-60.0832 211.665,-54.2743"/>
</g>
<!-- blacksmith_shop&#45;&gt;turtle_formation -->
<g id="edge15" class="edge"><title>blacksmith_shop&#45;&gt;turtle_formation</title>
<path fill="none" stroke="#ebc72d" stroke-dasharray="1,5" d="M1060.85,-230.253C1088.03,-220.073 1116.49,-203.884 1132.45,-178.426 1150.39,-149.81 1154.46,-128.046 1132.45,-102.426 1119.92,-87.8405 865.124,-55.7359 745.495,-41.3874"/>
<polygon fill="#ebc72d" stroke="#ebc72d" points="745.733,-37.8911 735.388,-40.1789 744.902,-44.8416 745.733,-37.8911"/>
</g>
<!-- swordsman -->
<g id="node22" class="node"><title>swordsman</title>
<g id="a_node22"><a xlink:href="romans_swordsman_full.html" xlink:title="Swordsman">
<ellipse fill="none" stroke="magenta" cx="1846.45" cy="-140.426" rx="52.7911" ry="18"/>
<text text-anchor="middle" x="1846.45" y="-136.726" font-family="Times,serif" font-size="14.00" fill="#ebc72d">Swordsman</text>
</a>
</g>
</g>
<!-- blacksmith_shop&#45;&gt;swordsman -->
<g id="edge14" class="edge"><title>blacksmith_shop&#45;&gt;swordsman</title>
<path fill="none" stroke="#ebc72d" stroke-dasharray="1,5" d="M1060.63,-244.664C1227.95,-239.25 1650.55,-221.602 1784.45,-178.426 1795.78,-174.774 1807.23,-168.742 1817.16,-162.598"/>
<polygon fill="#ebc72d" stroke="#ebc72d" points="1819.31,-165.369 1825.8,-156.989 1815.5,-159.498 1819.31,-165.369"/>
</g>
<!-- reinforce_armor -->
<g id="node28" class="node"><title>reinforce_armor</title>
<g id="a_node28"><a xlink:href="romans_reinforce_armor_full.html" xlink:title="Reinforce\nArmor">
<polygon fill="none" stroke="green" points="839.095,-178.426 723.532,-178.426 693.804,-102.426 809.367,-102.426 839.095,-178.426"/>
<text text-anchor="middle" x="766.45" y="-144.226" font-family="Times,serif" font-size="14.00" fill="#ebc72d">Reinforce</text>
<text text-anchor="middle" x="766.45" y="-129.226" font-family="Times,serif" font-size="14.00" fill="#ebc72d">Armor</text>
</a>
</g>
</g>
<!-- blacksmith_shop&#45;&gt;reinforce_armor -->
<g id="edge11" class="edge"><title>blacksmith_shop&#45;&gt;reinforce_armor</title>
<path fill="none" stroke="#ebc72d" d="M935.543,-220.497C908.884,-208.031 876.492,-192.884 847.221,-179.196"/>
<polygon fill="#ebc72d" stroke="#ebc72d" points="848.38,-175.874 837.838,-174.809 845.414,-182.215 848.38,-175.874"/>
</g>
<!-- sharpen_points -->
<g id="node32" class="node"><title>sharpen_points</title>
<g id="a_node32"><a xlink:href="romans_sharpen_points_full.html" xlink:title="Sharpen\nPoints">
<polygon fill="none" stroke="green" points="983.934,-178.426 882.944,-178.426 856.965,-102.426 957.955,-102.426 983.934,-178.426"/>
<text text-anchor="middle" x="920.45" y="-144.226" font-family="Times,serif" font-size="14.00" fill="#ebc72d">Sharpen</text>
<text text-anchor="middle" x="920.45" y="-129.226" font-family="Times,serif" font-size="14.00" fill="#ebc72d">Points</text>
</a>
</g>
</g>
<!-- blacksmith_shop&#45;&gt;sharpen_points -->
<g id="edge12" class="edge"><title>blacksmith_shop&#45;&gt;sharpen_points</title>
<path fill="none" stroke="#ebc72d" d="M973.717,-220.361C966.909,-210.273 958.926,-198.444 951.243,-187.058"/>
<polygon fill="#ebc72d" stroke="#ebc72d" points="953.945,-184.806 945.45,-178.474 948.143,-188.721 953.945,-184.806"/>
</g>
<!-- strengthen_swords -->
<g id="node33" class="node"><title>strengthen_swords</title>
<g id="a_node33"><a xlink:href="romans_strengthen_swords_full.html" xlink:title="Strengthen\nSwords">
<polygon fill="none" stroke="green" points="1638.96,-178.426 1515.66,-178.426 1483.94,-102.426 1607.24,-102.426 1638.96,-178.426"/>
<text text-anchor="middle" x="1561.45" y="-144.226" font-family="Times,serif" font-size="14.00" fill="#ebc72d">Strengthen</text>
<text text-anchor="middle" x="1561.45" y="-129.226" font-family="Times,serif" font-size="14.00" fill="#ebc72d">Swords</text>
</a>
</g>
</g>
<!-- blacksmith_shop&#45;&gt;strengthen_swords -->
<g id="edge13" class="edge"><title>blacksmith_shop&#45;&gt;strengthen_swords</title>
<path fill="none" stroke="#ebc72d" d="M1060.6,-242.575C1155.42,-235.721 1330.44,-218.469 1474.45,-178.426 1483.16,-176.005 1492.15,-172.912 1500.89,-169.55"/>
<polygon fill="#ebc72d" stroke="#ebc72d" points="1502.27,-172.769 1510.26,-165.814 1499.68,-166.267 1502.27,-172.769"/>
</g>
<!-- enlarge_shields -->
<g id="node34" class="node"><title>enlarge_shields</title>
<g id="a_node34"><a xlink:href="romans_enlarge_shields_full.html" xlink:title="Enlarge\nShields">
<polygon fill="none" stroke="green" points="1123.79,-178.426 1026.21,-178.426 1001.11,-102.426 1098.69,-102.426 1123.79,-178.426"/>
<text text-anchor="middle" x="1062.45" y="-144.226" font-family="Times,serif" font-size="14.00" fill="#ebc72d">Enlarge</text>
<text text-anchor="middle" x="1062.45" y="-129.226" font-family="Times,serif" font-size="14.00" fill="#ebc72d">Shields</text>
</a>
</g>
</g>
<!-- blacksmith_shop&#45;&gt;enlarge_shields -->
<g id="edge7" class="edge"><title>blacksmith_shop&#45;&gt;enlarge_shields</title>
<path fill="none" stroke="#ebc72d" d="M1009.18,-220.361C1015.99,-210.273 1023.97,-198.444 1031.66,-187.058"/>
<polygon fill="#ebc72d" stroke="#ebc72d" points="1034.76,-188.721 1037.45,-178.474 1028.95,-184.806 1034.76,-188.721"/>
</g>
<!-- guard -->
<g id="node18" class="node"><title>guard</title>
<g id="a_node18"><a xlink:href="romans_guard_full.html" xlink:title="Guard">
<ellipse fill="none" stroke="magenta" cx="2167.45" cy="-33.2132" rx="32.4942" ry="18"/>
<text text-anchor="middle" x="2167.45" y="-29.5132" font-family="Times,serif" font-size="14.00" fill="#ebc72d">Guard</text>
</a>
</g>
</g>
<!-- temple -->
<g id="node19" class="node"><title>temple</title>
<g id="a_node19"><a xlink:href="romans_temple_full.html" xlink:title="Temple">
<polygon fill="none" stroke="red" points="2014.75,-253.202 1967.45,-265.64 1920.15,-253.202 1920.2,-233.077 2014.7,-233.077 2014.75,-253.202"/>
<text text-anchor="middle" x="1967.45" y="-243.94" font-family="Times,serif" font-size="14.00" fill="#ebc72d">Temple</text>
</a>
</g>
</g>
<!-- temple&#45;&gt;fire_archer -->
<g id="edge43" class="edge"><title>temple&#45;&gt;fire_archer</title>
<path fill="none" stroke="#ebc72d" stroke-dasharray="1,5" d="M2015.14,-241.365C2066.29,-233.918 2148.27,-216.683 2208.45,-178.426 2253.75,-149.628 2291.78,-99.5165 2313.6,-66.6055"/>
<polygon fill="#ebc72d" stroke="#ebc72d" points="2316.53,-68.5131 2319.05,-58.2221 2310.66,-64.6961 2316.53,-68.5131"/>
</g>
<!-- jupiter -->
<g id="node27" class="node"><title>jupiter</title>
<g id="a_node27"><a xlink:href="romans_jupiter_full.html" xlink:title="Jupiter">
<polygon fill="none" stroke="green" points="2017.96,-158.426 1937.61,-158.426 1916.94,-122.426 1997.29,-122.426 2017.96,-158.426"/>
<text text-anchor="middle" x="1967.45" y="-136.726" font-family="Times,serif" font-size="14.00" fill="#ebc72d">Jupiter</text>
</a>
</g>
</g>
<!-- temple&#45;&gt;jupiter -->
<g id="edge44" class="edge"><title>temple&#45;&gt;jupiter</title>
<path fill="none" stroke="#ebc72d" d="M1967.45,-232.885C1967.45,-216.663 1967.45,-189.304 1967.45,-168.726"/>
<polygon fill="#ebc72d" stroke="#ebc72d" points="1970.95,-168.679 1967.45,-158.679 1963.95,-168.679 1970.95,-168.679"/>
</g>
<!-- bless_of_minerva -->
<g id="node29" class="node"><title>bless_of_minerva</title>
<g id="a_node29"><a xlink:href="romans_bless_of_minerva_full.html" xlink:title="Bless\nOf Minerva">
<polygon fill="none" stroke="green" points="1465.4,-178.426 1331.85,-178.426 1297.5,-102.426 1431.05,-102.426 1465.4,-178.426"/>
<text text-anchor="middle" x="1381.45" y="-144.226" font-family="Times,serif" font-size="14.00" fill="#ebc72d">Bless</text>
<text text-anchor="middle" x="1381.45" y="-129.226" font-family="Times,serif" font-size="14.00" fill="#ebc72d">Of Minerva</text>
</a>
</g>
</g>
<!-- temple&#45;&gt;bless_of_minerva -->
<g id="edge42" class="edge"><title>temple&#45;&gt;bless_of_minerva</title>
<path fill="none" stroke="#ebc72d" d="M1920.15,-243.897C1831.45,-237.922 1634.65,-220.711 1474.45,-178.426 1474.34,-178.399 1474.24,-178.371 1474.13,-178.343"/>
<polygon fill="#ebc72d" stroke="#ebc72d" points="1474.85,-174.906 1464.27,-175.523 1472.92,-181.636 1474.85,-174.906"/>
</g>
<!-- sign_of_mars -->
<g id="node35" class="node"><title>sign_of_mars</title>
<g id="a_node35"><a xlink:href="romans_sign_of_mars_full.html" xlink:title="Sign\nOf Mars">
<polygon fill="none" stroke="green" points="2166.58,-178.426 2062.97,-178.426 2036.32,-102.426 2139.93,-102.426 2166.58,-178.426"/>
<text text-anchor="middle" x="2101.45" y="-144.226" font-family="Times,serif" font-size="14.00" fill="#ebc72d">Sign</text>
<text text-anchor="middle" x="2101.45" y="-129.226" font-family="Times,serif" font-size="14.00" fill="#ebc72d">Of Mars</text>
</a>
</g>
</g>
<!-- temple&#45;&gt;sign_of_mars -->
<g id="edge45" class="edge"><title>temple&#45;&gt;sign_of_mars</title>
<path fill="none" stroke="#ebc72d" d="M1984.97,-232.885C2002.24,-219.323 2029.43,-197.977 2053.19,-179.317"/>
<polygon fill="#ebc72d" stroke="#ebc72d" points="2055.4,-182.036 2061.1,-173.108 2051.07,-176.53 2055.4,-182.036"/>
</g>
<!-- training_camp -->
<g id="node20" class="node"><title>training_camp</title>
<g id="a_node20"><a xlink:href="romans_training_camp_full.html" xlink:title="Training\nCamp">
<polygon fill="none" stroke="red" points="2287.58,-257.969 2232.45,-281.067 2177.32,-257.969 2177.37,-220.596 2287.53,-220.596 2287.58,-257.969"/>
<text text-anchor="middle" x="2232.45" y="-251.44" font-family="Times,serif" font-size="14.00" fill="#ebc72d">Training</text>
<text text-anchor="middle" x="2232.45" y="-236.44" font-family="Times,serif" font-size="14.00" fill="#ebc72d">Camp</text>
</a>
</g>
</g>
<!-- training_camp&#45;&gt;general -->
<g id="edge48" class="edge"><title>training_camp&#45;&gt;general</title>
<path fill="none" stroke="#ebc72d" stroke-dasharray="1,5" d="M2230.47,-220.156C2227.15,-195.739 2218.25,-160.485 2194.45,-141.426"/>
<path fill="none" stroke="#ebc72d" stroke-dasharray="1,5" d="M2194.45,-139.426C2180.02,-127.872 2191.11,-112.243 2175.45,-102.426 2102.37,-56.6291 709.25,-75.1746 623.45,-66.4264 577.634,-61.7551 525.879,-51.7787 490.223,-44.1579"/>
<polygon fill="#ebc72d" stroke="#ebc72d" points="490.671,-40.6737 480.157,-41.9773 489.189,-47.5151 490.671,-40.6737"/>
</g>
<!-- training_camp&#45;&gt;wartime_mechanic -->
<g id="edge53" class="edge"><title>training_camp&#45;&gt;wartime_mechanic</title>
<path fill="none" stroke="#ebc72d" stroke-dasharray="1,5" d="M2177.21,-236.52C2135.19,-229.214 2075.86,-219.735 2023.45,-214.426 1860.75,-197.949 1444.45,-227.46 1288.45,-178.426 1280.83,-176.03 1273.21,-172.405 1266.1,-168.345"/>
<polygon fill="#ebc72d" stroke="#ebc72d" points="1267.76,-165.26 1257.4,-163.03 1264.11,-171.232 1267.76,-165.26"/>
</g>
<!-- training_camp&#45;&gt;archer -->
<g id="edge46" class="edge"><title>training_camp&#45;&gt;archer</title>
<path fill="none" stroke="#ebc72d" d="M2257.68,-220.361C2274.15,-203.205 2295.45,-181.014 2311.27,-164.533"/>
<polygon fill="#ebc72d" stroke="#ebc72d" points="2314.15,-166.585 2318.55,-156.947 2309.1,-161.738 2314.15,-166.585"/>
</g>
<!-- training_camp&#45;&gt;spearman -->
<g id="edge50" class="edge"><title>training_camp&#45;&gt;spearman</title>
<path fill="none" stroke="#ebc72d" d="M2287.52,-239.905C2347.85,-231.155 2446.55,-212.762 2525.45,-178.426 2534.85,-174.337 2544.36,-168.614 2552.78,-162.89"/>
<polygon fill="#ebc72d" stroke="#ebc72d" points="2554.96,-165.632 2561.1,-156.993 2550.91,-159.921 2554.96,-165.632"/>
</g>
<!-- training_camp&#45;&gt;axe_man -->
<g id="edge47" class="edge"><title>training_camp&#45;&gt;axe_man</title>
<path fill="none" stroke="#ebc72d" stroke-dasharray="1,5" d="M2234.29,-220.592C2236.95,-182.905 2241.88,-113.024 2244.9,-70.3643"/>
<polygon fill="#ebc72d" stroke="#ebc72d" points="2248.41,-70.363 2245.62,-60.1413 2241.42,-69.8699 2248.41,-70.363"/>
</g>
<!-- training_camp&#45;&gt;guard -->
<g id="edge49" class="edge"><title>training_camp&#45;&gt;guard</title>
<path fill="none" stroke="#ebc72d" d="M2194.45,-139.426C2182.38,-129.758 2174.69,-89.2786 2170.72,-61.4448"/>
<polygon fill="#ebc72d" stroke="#ebc72d" points="2174.19,-60.9316 2169.39,-51.487 2167.25,-61.8642 2174.19,-60.9316"/>
</g>
<!-- training_camp&#45;&gt;swordsman -->
<g id="edge51" class="edge"><title>training_camp&#45;&gt;swordsman</title>
<path fill="none" stroke="#ebc72d" d="M2177.34,-240.831C2111.35,-232.583 1998.34,-214.315 1907.45,-178.426 1896.97,-174.29 1886.24,-168.423 1876.76,-162.578"/>
<polygon fill="#ebc72d" stroke="#ebc72d" points="1878.41,-159.478 1868.1,-157.037 1874.64,-165.375 1878.41,-159.478"/>
</g>
<!-- training_field -->
<g id="node26" class="node"><title>training_field</title>
<g id="a_node26"><a xlink:href="romans_training_field_full.html" xlink:title="Training\nField">
<polygon fill="none" stroke="green" points="2516.58,-178.426 2412.97,-178.426 2386.32,-102.426 2489.93,-102.426 2516.58,-178.426"/>
<text text-anchor="middle" x="2451.45" y="-144.226" font-family="Times,serif" font-size="14.00" fill="#ebc72d">Training</text>
<text text-anchor="middle" x="2451.45" y="-129.226" font-family="Times,serif" font-size="14.00" fill="#ebc72d">Field</text>
</a>
</g>
</g>
<!-- training_camp&#45;&gt;training_field -->
<g id="edge52" class="edge"><title>training_camp&#45;&gt;training_field</title>
<path fill="none" stroke="#ebc72d" d="M2287.68,-221.036C2314.8,-208.367 2347.91,-192.755 2377.45,-178.426 2384.36,-175.076 2391.6,-171.512 2398.75,-167.97"/>
<polygon fill="#ebc72d" stroke="#ebc72d" points="2400.31,-171.1 2407.71,-163.513 2397.2,-164.832 2400.31,-171.1"/>
</g>
<!-- slave -->
<g id="node23" class="node"><title>slave</title>
<g id="a_node23"><a xlink:href="romans_slave_full.html" xlink:title="Slave">
<ellipse fill="none" stroke="magenta" cx="1716.45" cy="-334.853" rx="30.5947" ry="18"/>
<text text-anchor="middle" x="1716.45" y="-331.153" font-family="Times,serif" font-size="14.00" fill="#ebc72d">Slave</text>
</a>
</g>
</g>
<!-- slave&#45;&gt;military_camp -->
<g id="edge38" class="edge"><title>slave&#45;&gt;military_camp</title>
<path fill="none" stroke="#ebc72d" stroke-width="2" d="M1686.16,-332.161C1579.97,-326.161 1214.62,-304.97 913.45,-280.853 816.758,-273.11 704.877,-262.202 636.139,-255.277"/>
<polygon fill="#ebc72d" stroke="#ebc72d" stroke-width="2" points="636.203,-251.766 625.902,-254.243 635.5,-258.73 636.203,-251.766"/>
</g>
<!-- slave&#45;&gt;gladiator_school -->
<g id="edge36" class="edge"><title>slave&#45;&gt;gladiator_school</title>
<path fill="none" stroke="#ebc72d" stroke-width="2" d="M1716.45,-316.776C1716.45,-287.183 1716.45,-225.541 1716.45,-183.814"/>
<polygon fill="#ebc72d" stroke="#ebc72d" stroke-width="2" points="1719.95,-183.666 1716.45,-173.666 1712.95,-183.667 1719.95,-183.666"/>
</g>
<!-- slave&#45;&gt;blacksmith_shop -->
<g id="edge33" class="edge"><title>slave&#45;&gt;blacksmith_shop</title>
<path fill="none" stroke="#ebc72d" stroke-width="2" d="M1686.68,-330.354C1582.19,-318.072 1229.93,-276.67 1070.73,-257.958"/>
<polygon fill="#ebc72d" stroke="#ebc72d" stroke-width="2" points="1070.87,-254.451 1060.53,-256.759 1070.05,-261.403 1070.87,-254.451"/>
</g>
<!-- slave&#45;&gt;guard_tower -->
<g id="edge37" class="edge"><title>slave&#45;&gt;guard_tower</title>
<path fill="none" stroke="#ebc72d" stroke-width="2" d="M1685.76,-333.352C1464.72,-329.615 122.807,-304.658 59.4497,-248.64"/>
<path fill="none" stroke="#ebc72d" stroke-width="2" d="M59.4497,-246.64C22.2027,-213.707 48.2994,-183.271 21.4497,-141.426"/>
<path fill="none" stroke="#ebc72d" stroke-width="2" d="M21.4497,-139.426C7.78854,-118.136 15.2138,-90.0362 25.2829,-68.2322"/>
<polygon fill="#ebc72d" stroke="#ebc72d" stroke-width="2" points="28.5506,-69.5213 29.8669,-59.0085 22.2821,-66.4059 28.5506,-69.5213"/>
</g>
<!-- slave&#45;&gt;eagle_pillar -->
<g id="edge34" class="edge"><title>slave&#45;&gt;eagle_pillar</title>
<path fill="none" stroke="#ebc72d" stroke-width="2" d="M59.4497,-246.64C11.017,-203.818 45.1002,-157.809 78.4497,-102.426 91.163,-81.3137 113.188,-64.9599 132.937,-53.5642"/>
<polygon fill="#ebc72d" stroke="#ebc72d" stroke-width="2" points="134.738,-56.568 141.809,-48.678 131.361,-50.4364 134.738,-56.568"/>
</g>
<!-- slave&#45;&gt;temple -->
<g id="edge39" class="edge"><title>slave&#45;&gt;temple</title>
<path fill="none" stroke="#ebc72d" stroke-width="2" d="M1742.37,-325.055C1786.75,-309.985 1877.52,-279.169 1929.21,-261.623"/>
<polygon fill="#ebc72d" stroke="#ebc72d" stroke-width="2" points="1930.65,-264.828 1939,-258.299 1928.4,-258.2 1930.65,-264.828"/>
</g>
<!-- slave&#45;&gt;training_camp -->
<g id="edge40" class="edge"><title>slave&#45;&gt;training_camp</title>
<path fill="none" stroke="#ebc72d" stroke-width="2" d="M1745.67,-329.027C1826.48,-315.681 2054.45,-278.035 2167.38,-259.385"/>
<polygon fill="#ebc72d" stroke="#ebc72d" stroke-width="2" points="2167.99,-262.832 2177.29,-257.749 2166.85,-255.925 2167.99,-262.832"/>
</g>
<!-- forum -->
<g id="node24" class="node"><title>forum</title>
<g id="a_node24"><a xlink:href="romans_forum_full.html" xlink:title="Forum">
<polygon fill="none" stroke="red" points="2571.11,-253.202 2528.45,-265.64 2485.79,-253.202 2485.83,-233.077 2571.07,-233.077 2571.11,-253.202"/>
<text text-anchor="middle" x="2528.45" y="-243.94" font-family="Times,serif" font-size="14.00" fill="#ebc72d">Forum</text>
</a>
</g>
</g>
<!-- slave&#45;&gt;forum -->
<g id="edge35" class="edge"><title>slave&#45;&gt;forum</title>
<path fill="none" stroke="#ebc72d" stroke-width="2" d="M1756.67,-330.83C1851.06,-323.594 2094.09,-304.134 2296.45,-280.853 2359.92,-273.55 2432.87,-263.078 2479.76,-256.077"/>
<polygon fill="#ebc72d" stroke="#ebc72d" stroke-width="2" points="1756.4,-327.341 1746.69,-331.592 1756.93,-334.32 1756.4,-327.341"/>
<polygon fill="#ebc72d" stroke="#ebc72d" stroke-width="2" points="2480.56,-259.495 2489.93,-254.551 2479.52,-252.573 2480.56,-259.495"/>
</g>
<!-- cow -->
<g id="node25" class="node"><title>cow</title>
<g id="a_node25"><a xlink:href="romans_cow_full.html" xlink:title="Cow">
<ellipse fill="none" stroke="magenta" cx="2671.45" cy="-140.426" rx="27.0966" ry="18"/>
<text text-anchor="middle" x="2671.45" y="-136.726" font-family="Times,serif" font-size="14.00" fill="#ebc72d">Cow</text>
</a>
</g>
</g>
<!-- forum&#45;&gt;cow -->
<g id="edge23" class="edge"><title>forum&#45;&gt;cow</title>
<path fill="none" stroke="#ebc72d" d="M2553.34,-232.983C2575.76,-220.18 2609.14,-199.847 2635.45,-178.426 2640.74,-174.119 2646.07,-169.101 2650.94,-164.177"/>
<polygon fill="#ebc72d" stroke="#ebc72d" points="2653.78,-166.277 2658.16,-156.631 2648.72,-161.439 2653.78,-166.277"/>
</g>
<!-- bless_of_minerva&#45;&gt;tribune -->
<g id="edge18" class="edge"><title>bless_of_minerva&#45;&gt;tribune</title>
<path fill="none" stroke="#ebc72d" stroke-dasharray="1,5" d="M1299,-105.977C1295.45,-104.741 1291.92,-103.552 1288.45,-102.426 1210.52,-77.1617 1117.43,-55.3647 1063.71,-43.5753"/>
<polygon fill="#ebc72d" stroke="#ebc72d" points="1064.34,-40.1313 1053.83,-41.4223 1062.85,-46.9708 1064.34,-40.1313"/>
</g>
<!-- bless_of_minerva&#45;&gt;ballista -->
<g id="edge17" class="edge"><title>bless_of_minerva&#45;&gt;ballista</title>
<path fill="none" stroke="#ebc72d" stroke-dasharray="1,5" d="M1371.58,-102.332C1367.96,-88.7432 1363.94,-73.6375 1360.61,-61.1108"/>
<polygon fill="#ebc72d" stroke="#ebc72d" points="1363.95,-60.0483 1357.99,-51.2848 1357.18,-61.8486 1363.95,-60.0483"/>
</g>
<!-- bless_of_minerva&#45;&gt;turtle_formation -->
<g id="edge19" class="edge"><title>bless_of_minerva&#45;&gt;turtle_formation</title>
<path fill="none" stroke="#ebc72d" stroke-dasharray="1,5" d="M1298.66,-105.223C1295.23,-104.21 1291.82,-103.271 1288.45,-102.426 1285.16,-101.603 898.302,-58.1861 745.516,-41.0567"/>
<polygon fill="#ebc72d" stroke="#ebc72d" points="745.69,-37.5544 735.362,-39.9185 744.91,-44.5109 745.69,-37.5544"/>
</g>
<!-- formations&#45;&gt;general -->
<g id="edge21" class="edge"><title>formations&#45;&gt;general</title>
<path fill="none" stroke="#ebc72d" stroke-dasharray="1,5" d="M433.092,-122.053C435.608,-105.506 439.433,-80.3521 442.346,-61.1961"/>
<polygon fill="#ebc72d" stroke="#ebc72d" points="445.813,-61.6763 443.857,-51.2638 438.893,-60.6239 445.813,-61.6763"/>
</g>
<!-- formations&#45;&gt;turtle_formation -->
<g id="edge22" class="edge"><title>formations&#45;&gt;turtle_formation</title>
<path fill="none" stroke="#ebc72d" stroke-dasharray="1,5" d="M471.541,-122.405C516.202,-103.905 587.546,-74.353 635.182,-54.6213"/>
<polygon fill="#ebc72d" stroke="#ebc72d" points="636.773,-57.7504 644.673,-50.6898 634.095,-51.2832 636.773,-57.7504"/>
</g>
<!-- advanced_architecture&#45;&gt;battering_ram -->
<g id="edge1" class="edge"><title>advanced_architecture&#45;&gt;battering_ram</title>
<path fill="none" stroke="#ebc72d" stroke-dasharray="1,5" d="M219.93,-102.332C236.088,-89.1536 253.995,-74.5486 269.071,-62.2528"/>
<polygon fill="#ebc72d" stroke="#ebc72d" points="271.589,-64.7158 277.126,-55.6831 267.164,-59.2913 271.589,-64.7158"/>
</g>
<!-- advanced_architecture&#45;&gt;guard_tower -->
<g id="edge3" class="edge"><title>advanced_architecture&#45;&gt;guard_tower</title>
<path fill="none" stroke="#ebc72d" stroke-dasharray="1,5" d="M128.969,-102.332C112.321,-88.7543 93.8173,-73.6622 78.4659,-61.1415"/>
<polygon fill="#ebc72d" stroke="#ebc72d" points="80.255,-58.0842 70.2935,-54.476 75.8307,-63.5088 80.255,-58.0842"/>
</g>
<!-- advanced_architecture&#45;&gt;eagle_pillar -->
<g id="edge2" class="edge"><title>advanced_architecture&#45;&gt;eagle_pillar</title>
<path fill="none" stroke="#ebc72d" stroke-dasharray="1,5" d="M174.45,-102.332C174.45,-94.0041 174.45,-85.1063 174.45,-76.5816"/>
<polygon fill="#ebc72d" stroke="#ebc72d" points="177.95,-76.4318 174.45,-66.4318 170.95,-76.4319 177.95,-76.4318"/>
</g>
<!-- strengthen_swords&#45;&gt;guard -->
<g id="edge41" class="edge"><title>strengthen_swords&#45;&gt;guard</title>
<path fill="none" stroke="#ebc72d" stroke-dasharray="1,5" d="M1612.61,-114.953C1624.19,-110.185 1636.57,-105.667 1648.45,-102.426 1821.12,-55.3063 2035.3,-40.3146 2124.91,-35.9057"/>
<polygon fill="#ebc72d" stroke="#ebc72d" points="2125.14,-39.399 2134.96,-35.4304 2124.81,-32.4069 2125.14,-39.399"/>
</g>
</g>
</svg>
