<?xml version="1.0" encoding="UTF-8" standalone="no"?>
<!DOCTYPE svg PUBLIC "-//W3C//DTD SVG 1.1//EN"
 "http://www.w3.org/Graphics/SVG/1.1/DTD/svg11.dtd">
<!-- Generated by graphviz version 2.38.0 (20140413.2041)
 -->
<!-- Title: test Pages: 1 -->
<svg width="284pt" height="393pt"
 viewBox="0.00 0.00 284.14 392.85" xmlns="http://www.w3.org/2000/svg" xmlns:xlink="http://www.w3.org/1999/xlink">
<g id="graph0" class="graph" transform="scale(1 1) rotate(0) translate(4 388.853)">
<title>test</title>
<polygon fill="#151515" stroke="none" points="-4,4 -4,-388.853 280.141,-388.853 280.141,4 -4,4"/>
<!-- farm -->
<g id="node1" class="node"><title>farm</title>
<g id="a_node1"><a xlink:href="egypt_farm_full.html" xlink:title="Farm">
<polygon fill="none" stroke="red" points="73.8655,-285.202 36.9552,-297.64 0.0447922,-285.202 0.0792436,-265.077 73.8311,-265.077 73.8655,-285.202"/>
<text text-anchor="middle" x="36.9552" y="-275.94" font-family="Times,serif" font-size="14.00" fill="#ebc72d">Farm</text>
</a>
</g>
</g>
<!-- air_pyramid -->
<g id="node2" class="node"><title>air_pyramid</title>
<g id="a_node2"><a xlink:href="egypt_air_pyramid_full.html" xlink:title="Air\nPyramid">
<polygon fill="none" stroke="red" points="170.083,-43.543 114.955,-66.641 59.827,-43.543 59.8785,-6.16955 170.032,-6.16955 170.083,-43.543"/>
<text text-anchor="middle" x="114.955" y="-37.0132" font-family="Times,serif" font-size="14.00" fill="#ebc72d">Air</text>
<text text-anchor="middle" x="114.955" y="-22.0132" font-family="Times,serif" font-size="14.00" fill="#ebc72d">Pyramid</text>
</a>
</g>
</g>
<!-- desert_camp -->
<g id="node3" class="node"><title>desert_camp</title>
<g id="a_node3"><a xlink:href="egypt_desert_camp_full.html" xlink:title="Desert\nCamp">
<polygon fill="none" stroke="red" points="182.355,-289.969 136.955,-313.067 91.5558,-289.969 91.5981,-252.596 182.312,-252.596 182.355,-289.969"/>
<text text-anchor="middle" x="136.955" y="-283.44" font-family="Times,serif" font-size="14.00" fill="#ebc72d">Desert</text>
<text text-anchor="middle" x="136.955" y="-268.44" font-family="Times,serif" font-size="14.00" fill="#ebc72d">Camp</text>
</a>
</g>
</g>
<!-- temple -->
<g id="node7" class="node"><title>temple</title>
<g id="a_node7"><a xlink:href="egypt_temple_full.html" xlink:title="Temple">
<polygon fill="none" stroke="red" points="183.253,-197.989 135.955,-210.426 88.6569,-197.989 88.7011,-177.864 183.209,-177.864 183.253,-197.989"/>
<text text-anchor="middle" x="135.955" y="-188.726" font-family="Times,serif" font-size="14.00" fill="#ebc72d">Temple</text>
</a>
</g>
</g>
<!-- desert_camp&#45;&gt;temple -->
<g id="edge1" class="edge"><title>desert_camp&#45;&gt;temple</title>
<path fill="none" stroke="#ebc72d" stroke-dasharray="1,5" d="M136.644,-252.145C136.527,-242.17 136.394,-230.814 136.276,-220.765"/>
<polygon fill="#ebc72d" stroke="#ebc72d" points="139.773,-220.458 136.156,-210.499 132.773,-220.54 139.773,-220.458"/>
</g>
<!-- pyramid -->
<g id="node4" class="node"><title>pyramid</title>
<g id="a_node4"><a xlink:href="egypt_pyramid_full.html" xlink:title="Pyramid">
<polygon fill="none" stroke="red" points="187.68,-372.415 136.955,-384.853 86.2299,-372.415 86.2773,-352.291 187.633,-352.291 187.68,-372.415"/>
<text text-anchor="middle" x="136.955" y="-363.153" font-family="Times,serif" font-size="14.00" fill="#ebc72d">Pyramid</text>
</a>
</g>
</g>
<!-- pyramid&#45;&gt;farm -->
<g id="edge5" class="edge"><title>pyramid&#45;&gt;farm</title>
<path fill="none" stroke="#ebc72d" stroke-dasharray="1,5" d="M120.888,-352.162C104.152,-337.9 77.8111,-315.454 59.1059,-299.515"/>
<polygon fill="#ebc72d" stroke="#ebc72d" points="61.2407,-296.736 51.3592,-292.914 56.7006,-302.064 61.2407,-296.736"/>
</g>
<!-- pyramid&#45;&gt;desert_camp -->
<g id="edge4" class="edge"><title>pyramid&#45;&gt;desert_camp</title>
<path fill="none" stroke="#ebc72d" stroke-dasharray="1,5" d="M136.955,-352.162C136.955,-344.176 136.955,-333.623 136.955,-323.084"/>
<polygon fill="#ebc72d" stroke="#ebc72d" points="140.455,-323.068 136.955,-313.068 133.455,-323.068 140.455,-323.068"/>
</g>
<!-- obelisk -->
<g id="node6" class="node"><title>obelisk</title>
<g id="a_node6"><a xlink:href="egypt_obelisk_full.html" xlink:title="Obelisk">
<polygon fill="none" stroke="red" points="220.253,-125.989 172.955,-138.426 125.657,-125.989 125.701,-105.864 220.209,-105.864 220.253,-125.989"/>
<text text-anchor="middle" x="172.955" y="-116.726" font-family="Times,serif" font-size="14.00" fill="#ebc72d">Obelisk</text>
</a>
</g>
</g>
<!-- pyramid&#45;&gt;obelisk -->
<g id="edge6" class="edge"><title>pyramid&#45;&gt;obelisk</title>
<path fill="none" stroke="#ebc72d" stroke-dasharray="1,5" d="M210.955,-278.64C218.097,-230.986 198.59,-176.579 184.951,-145.884"/>
<polygon fill="#ebc72d" stroke="#ebc72d" points="187.959,-144.047 180.598,-136.427 181.6,-146.975 187.959,-144.047"/>
</g>
<!-- pyramid&#45;&gt;temple -->
<g id="edge7" class="edge"><title>pyramid&#45;&gt;temple</title>
<path fill="none" stroke="#ebc72d" stroke-dasharray="1,5" d="M158.032,-352.247C178.216,-337.498 206.279,-311.837 210.955,-280.64"/>
<path fill="none" stroke="#ebc72d" stroke-dasharray="1,5" d="M210.955,-278.64C215.313,-249.561 189.118,-225.434 166.502,-210.363"/>
<polygon fill="#ebc72d" stroke="#ebc72d" points="168.089,-207.226 157.764,-204.849 164.354,-213.146 168.089,-207.226"/>
</g>
<!-- sphinx -->
<g id="node5" class="node"><title>sphinx</title>
<g id="a_node5"><a xlink:href="egypt_sphinx_full.html" xlink:title="Sphinx">
<polygon fill="none" stroke="red" points="276.327,-38.7755 231.955,-51.2132 187.583,-38.7755 187.625,-18.6509 276.286,-18.6509 276.327,-38.7755"/>
<text text-anchor="middle" x="231.955" y="-29.5132" font-family="Times,serif" font-size="14.00" fill="#ebc72d">Sphinx</text>
</a>
</g>
</g>
<!-- obelisk&#45;&gt;air_pyramid -->
<g id="edge2" class="edge"><title>obelisk&#45;&gt;air_pyramid</title>
<path fill="none" stroke="#ebc72d" stroke-dasharray="1,5" d="M163.636,-105.735C156.702,-95.547 146.924,-81.1816 137.949,-67.9955"/>
<polygon fill="#ebc72d" stroke="#ebc72d" points="140.725,-65.8539 132.205,-59.5565 134.938,-69.7927 140.725,-65.8539"/>
</g>
<!-- obelisk&#45;&gt;sphinx -->
<g id="edge3" class="edge"><title>obelisk&#45;&gt;sphinx</title>
<path fill="none" stroke="#ebc72d" stroke-dasharray="1,5" d="M182.435,-105.735C191.475,-92.6786 205.265,-72.762 215.999,-57.2587"/>
<polygon fill="#ebc72d" stroke="#ebc72d" points="219.092,-58.9399 221.907,-48.7258 213.337,-54.9551 219.092,-58.9399"/>
</g>
<!-- temple&#45;&gt;obelisk -->
<g id="edge8" class="edge"><title>temple&#45;&gt;obelisk</title>
<path fill="none" stroke="#ebc72d" stroke-dasharray="1,5" d="M143.265,-177.597C148.087,-168.475 154.533,-156.28 160.186,-145.584"/>
<polygon fill="#ebc72d" stroke="#ebc72d" points="163.311,-147.162 164.89,-136.686 157.122,-143.891 163.311,-147.162"/>
</g>
</g>
</svg>
