<?xml version="1.0" encoding="UTF-8" standalone="no"?>
<!DOCTYPE svg PUBLIC "-//W3C//DTD SVG 1.1//EN"
 "http://www.w3.org/Graphics/SVG/1.1/DTD/svg11.dtd">
<!-- Generated by graphviz version 2.38.0 (20140413.2041)
 -->
<!-- Title: test Pages: 1 -->
<svg width="1449pt" height="308pt"
 viewBox="0.00 0.00 1449.39 308.17" xmlns="http://www.w3.org/2000/svg" xmlns:xlink="http://www.w3.org/1999/xlink">
<g id="graph0" class="graph" transform="scale(1 1) rotate(0) translate(4 304.167)">
<title>test</title>
<polygon fill="#151515" stroke="none" points="-4,4 -4,-304.167 1445.39,-304.167 1445.39,4 -4,4"/>
<!-- farm -->
<g id="node1" class="node"><title>farm</title>
<g id="a_node1"><a xlink:href="egypt_farm_full.html" xlink:title="Farm">
<polygon fill="none" stroke="red" points="525.357,-200.516 488.447,-212.953 451.537,-200.516 451.571,-180.391 525.323,-180.391 525.357,-200.516"/>
<text text-anchor="middle" x="488.447" y="-191.253" font-family="Times,serif" font-size="14.00" fill="#ebc72d">Farm</text>
</a>
</g>
</g>
<!-- ibis -->
<g id="node10" class="node"><title>ibis</title>
<g id="a_node10"><a xlink:href="egypt_ibis_full.html" xlink:title="Ibis">
<ellipse fill="none" stroke="magenta" cx="488.447" cy="-107.74" rx="27" ry="18"/>
<text text-anchor="middle" x="488.447" y="-104.04" font-family="Times,serif" font-size="14.00" fill="#ebc72d">Ibis</text>
</a>
</g>
</g>
<!-- farm&#45;&gt;ibis -->
<g id="edge4" class="edge"><title>farm&#45;&gt;ibis</title>
<path fill="none" stroke="#ebc72d" stroke-dasharray="1,5" d="M488.447,-180.262C488.447,-168.375 488.447,-150.802 488.447,-136.05"/>
<polygon fill="#ebc72d" stroke="#ebc72d" points="491.947,-135.928 488.447,-125.928 484.947,-135.928 491.947,-135.928"/>
</g>
<!-- chicken -->
<g id="node11" class="node"><title>chicken</title>
<g id="a_node11"><a xlink:href="egypt_chicken_full.html" xlink:title="Chicken">
<ellipse fill="none" stroke="magenta" cx="573.447" cy="-107.74" rx="40.0939" ry="18"/>
<text text-anchor="middle" x="573.447" y="-104.04" font-family="Times,serif" font-size="14.00" fill="#ebc72d">Chicken</text>
</a>
</g>
</g>
<!-- farm&#45;&gt;chicken -->
<g id="edge3" class="edge"><title>farm&#45;&gt;chicken</title>
<path fill="none" stroke="#ebc72d" d="M502.104,-180.262C515.17,-167.163 535.124,-147.159 550.61,-131.634"/>
<polygon fill="#ebc72d" stroke="#ebc72d" points="553.22,-133.974 557.804,-124.422 548.264,-129.03 553.22,-133.974"/>
</g>
<!-- spearthrower -->
<g id="node2" class="node"><title>spearthrower</title>
<g id="a_node2"><a xlink:href="egypt_spearthrower_full.html" xlink:title="Spearthrower">
<ellipse fill="none" stroke="magenta" cx="757.447" cy="-107.74" rx="57.6901" ry="18"/>
<text text-anchor="middle" x="757.447" y="-104.04" font-family="Times,serif" font-size="14.00" fill="#ebc72d">Spearthrower</text>
</a>
</g>
</g>
<!-- air_pyramid -->
<g id="node3" class="node"><title>air_pyramid</title>
<g id="a_node3"><a xlink:href="egypt_air_pyramid_full.html" xlink:title="Air\nPyramid">
<polygon fill="none" stroke="red" points="773.575,-205.283 718.447,-228.381 663.319,-205.283 663.37,-167.91 773.524,-167.91 773.575,-205.283"/>
<text text-anchor="middle" x="718.447" y="-198.753" font-family="Times,serif" font-size="14.00" fill="#ebc72d">Air</text>
<text text-anchor="middle" x="718.447" y="-183.753" font-family="Times,serif" font-size="14.00" fill="#ebc72d">Pyramid</text>
</a>
</g>
</g>
<!-- anubis_warrior -->
<g id="node4" class="node"><title>anubis_warrior</title>
<g id="a_node4"><a xlink:href="egypt_anubis_warrior_full.html" xlink:title="Anubis\nWarrior">
<ellipse fill="none" stroke="magenta" cx="975.447" cy="-26.8701" rx="42.3529" ry="26.7407"/>
<text text-anchor="middle" x="975.447" y="-30.6701" font-family="Times,serif" font-size="14.00" fill="#ebc72d">Anubis</text>
<text text-anchor="middle" x="975.447" y="-15.6701" font-family="Times,serif" font-size="14.00" fill="#ebc72d">Warrior</text>
</a>
</g>
</g>
<!-- scarab -->
<g id="node5" class="node"><title>scarab</title>
<g id="a_node5"><a xlink:href="egypt_scarab_full.html" xlink:title="Scarab">
<ellipse fill="none" stroke="magenta" cx="34.4469" cy="-107.74" rx="34.394" ry="18"/>
<text text-anchor="middle" x="34.4469" y="-104.04" font-family="Times,serif" font-size="14.00" fill="#ebc72d">Scarab</text>
</a>
</g>
</g>
<!-- desert_camp -->
<g id="node6" class="node"><title>desert_camp</title>
<g id="a_node6"><a xlink:href="egypt_desert_camp_full.html" xlink:title="Desert\nCamp">
<polygon fill="none" stroke="red" points="882.846,-205.283 837.447,-228.381 792.048,-205.283 792.09,-167.91 882.804,-167.91 882.846,-205.283"/>
<text text-anchor="middle" x="837.447" y="-198.753" font-family="Times,serif" font-size="14.00" fill="#ebc72d">Desert</text>
<text text-anchor="middle" x="837.447" y="-183.753" font-family="Times,serif" font-size="14.00" fill="#ebc72d">Camp</text>
</a>
</g>
</g>
<!-- desert_camp&#45;&gt;spearthrower -->
<g id="edge2" class="edge"><title>desert_camp&#45;&gt;spearthrower</title>
<path fill="none" stroke="#ebc72d" d="M812.573,-167.458C802.165,-156.372 790.154,-143.578 780.006,-132.769"/>
<polygon fill="#ebc72d" stroke="#ebc72d" points="782.391,-130.196 772.995,-125.301 777.288,-134.987 782.391,-130.196"/>
</g>
<!-- spearman -->
<g id="node13" class="node"><title>spearman</title>
<g id="a_node13"><a xlink:href="egypt_spearman_full.html" xlink:title="Spearman">
<ellipse fill="none" stroke="magenta" cx="879.447" cy="-107.74" rx="46.2923" ry="18"/>
<text text-anchor="middle" x="879.447" y="-104.04" font-family="Times,serif" font-size="14.00" fill="#ebc72d">Spearman</text>
</a>
</g>
</g>
<!-- desert_camp&#45;&gt;spearman -->
<g id="edge1" class="edge"><title>desert_camp&#45;&gt;spearman</title>
<path fill="none" stroke="#ebc72d" d="M850.506,-167.458C855.668,-156.985 861.581,-144.988 866.711,-134.579"/>
<polygon fill="#ebc72d" stroke="#ebc72d" points="869.877,-136.073 871.158,-125.556 863.598,-132.979 869.877,-136.073"/>
</g>
<!-- snake -->
<g id="node7" class="node"><title>snake</title>
<g id="a_node7"><a xlink:href="egypt_snake_full.html" xlink:title="Snake">
<ellipse fill="none" stroke="magenta" cx="119.447" cy="-107.74" rx="32.4942" ry="18"/>
<text text-anchor="middle" x="119.447" y="-104.04" font-family="Times,serif" font-size="14.00" fill="#ebc72d">Snake</text>
</a>
</g>
</g>
<!-- pyramid -->
<g id="node8" class="node"><title>pyramid</title>
<g id="a_node8"><a xlink:href="egypt_pyramid_full.html" xlink:title="Pyramid">
<polygon fill="none" stroke="red" points="645.172,-200.516 594.447,-212.953 543.722,-200.516 543.769,-180.391 645.125,-180.391 645.172,-200.516"/>
<text text-anchor="middle" x="594.447" y="-191.253" font-family="Times,serif" font-size="14.00" fill="#ebc72d">Pyramid</text>
</a>
</g>
</g>
<!-- slave -->
<g id="node16" class="node"><title>slave</title>
<g id="a_node16"><a xlink:href="egypt_slave_full.html" xlink:title="Slave">
<ellipse fill="none" stroke="magenta" cx="718.447" cy="-282.167" rx="30.5947" ry="18"/>
<text text-anchor="middle" x="718.447" y="-278.467" font-family="Times,serif" font-size="14.00" fill="#ebc72d">Slave</text>
</a>
</g>
</g>
<!-- mummy -->
<g id="node9" class="node"><title>mummy</title>
<g id="a_node9"><a xlink:href="egypt_mummy_full.html" xlink:title="Mummy">
<ellipse fill="none" stroke="magenta" cx="1078.45" cy="-26.8701" rx="42.4939" ry="18"/>
<text text-anchor="middle" x="1078.45" y="-23.1701" font-family="Times,serif" font-size="14.00" fill="#ebc72d">Mummy</text>
</a>
</g>
</g>
<!-- sphinx -->
<g id="node12" class="node"><title>sphinx</title>
<g id="a_node12"><a xlink:href="egypt_sphinx_full.html" xlink:title="Sphinx">
<polygon fill="none" stroke="red" points="989.819,-200.516 945.447,-212.953 901.075,-200.516 901.117,-180.391 989.777,-180.391 989.819,-200.516"/>
<text text-anchor="middle" x="945.447" y="-191.253" font-family="Times,serif" font-size="14.00" fill="#ebc72d">Sphinx</text>
</a>
</g>
</g>
<!-- obelisk -->
<g id="node14" class="node"><title>obelisk</title>
<g id="a_node14"><a xlink:href="egypt_obelisk_full.html" xlink:title="Obelisk">
<polygon fill="none" stroke="red" points="358.745,-200.516 311.447,-212.953 264.149,-200.516 264.193,-180.391 358.701,-180.391 358.745,-200.516"/>
<text text-anchor="middle" x="311.447" y="-191.253" font-family="Times,serif" font-size="14.00" fill="#ebc72d">Obelisk</text>
</a>
</g>
</g>
<!-- obelisk&#45;&gt;scarab -->
<g id="edge6" class="edge"><title>obelisk&#45;&gt;scarab</title>
<path fill="none" stroke="#ebc72d" d="M263.78,-181.259C216.428,-168.355 141.918,-147.25 78.4469,-125.74 75.7566,-124.828 72.9875,-123.852 70.2104,-122.844"/>
<polygon fill="#ebc72d" stroke="#ebc72d" points="71.4329,-119.565 60.8403,-119.351 68.9875,-126.124 71.4329,-119.565"/>
</g>
<!-- obelisk&#45;&gt;snake -->
<g id="edge7" class="edge"><title>obelisk&#45;&gt;snake</title>
<path fill="none" stroke="#ebc72d" d="M280.599,-180.262C245.911,-164.867 189.735,-139.935 153.707,-123.946"/>
<polygon fill="#ebc72d" stroke="#ebc72d" points="154.675,-120.546 144.115,-119.688 151.835,-126.944 154.675,-120.546"/>
</g>
<!-- obelisk&#45;&gt;ibis -->
<g id="edge5" class="edge"><title>obelisk&#45;&gt;ibis</title>
<path fill="none" stroke="#ebc72d" d="M339.885,-180.262C372.171,-164.719 424.65,-139.454 457.818,-123.486"/>
<polygon fill="#ebc72d" stroke="#ebc72d" points="459.545,-126.539 467.037,-119.047 456.509,-120.232 459.545,-126.539"/>
</g>
<!-- summon_scarab -->
<g id="node19" class="node"><title>summon_scarab</title>
<ellipse fill="none" stroke="black" cx="238.447" cy="-107.74" rx="68.7879" ry="18"/>
<text text-anchor="middle" x="238.447" y="-104.04" font-family="Times,serif" font-size="14.00">summon_scarab</text>
</g>
<!-- obelisk&#45;&gt;summon_scarab -->
<g id="edge9" class="edge"><title>obelisk&#45;&gt;summon_scarab</title>
<path fill="none" stroke="#ebc72d" stroke-dasharray="1,5" d="M299.718,-180.262C288.972,-167.719 272.803,-148.844 259.772,-133.633"/>
<polygon fill="#ebc72d" stroke="#ebc72d" points="262.074,-130.941 252.91,-125.623 256.758,-135.495 262.074,-130.941"/>
</g>
<!-- summon_ibis -->
<g id="node20" class="node"><title>summon_ibis</title>
<ellipse fill="none" stroke="black" cx="384.447" cy="-107.74" rx="59.2899" ry="18"/>
<text text-anchor="middle" x="384.447" y="-104.04" font-family="Times,serif" font-size="14.00">summon_ibis</text>
</g>
<!-- obelisk&#45;&gt;summon_ibis -->
<g id="edge8" class="edge"><title>obelisk&#45;&gt;summon_ibis</title>
<path fill="none" stroke="#ebc72d" stroke-dasharray="1,5" d="M323.176,-180.262C334.09,-167.522 350.599,-148.251 363.731,-132.922"/>
<polygon fill="#ebc72d" stroke="#ebc72d" points="366.395,-135.192 370.243,-125.32 361.079,-130.637 366.395,-135.192"/>
</g>
<!-- temple -->
<g id="node15" class="node"><title>temple</title>
<g id="a_node15"><a xlink:href="egypt_temple_full.html" xlink:title="Temple">
<polygon fill="none" stroke="red" points="1102.75,-200.516 1055.45,-212.953 1008.15,-200.516 1008.19,-180.391 1102.7,-180.391 1102.75,-200.516"/>
<text text-anchor="middle" x="1055.45" y="-191.253" font-family="Times,serif" font-size="14.00" fill="#ebc72d">Temple</text>
</a>
</g>
</g>
<!-- temple&#45;&gt;anubis_warrior -->
<g id="edge20" class="edge"><title>temple&#45;&gt;anubis_warrior</title>
<path fill="none" stroke="#ebc72d" stroke-dasharray="1,5" d="M1039.02,-180.286C1024.93,-167.626 1005.25,-147.513 994.447,-125.74 984.968,-106.641 980.212,-83.2607 977.829,-64.1419"/>
<polygon fill="#ebc72d" stroke="#ebc72d" points="981.288,-63.5789 976.734,-54.013 974.329,-64.3313 981.288,-63.5789"/>
</g>
<!-- priest -->
<g id="node17" class="node"><title>priest</title>
<g id="a_node17"><a xlink:href="egypt_priest_full.html" xlink:title="Priest">
<ellipse fill="none" stroke="magenta" cx="1034.45" cy="-107.74" rx="30.5947" ry="18"/>
<text text-anchor="middle" x="1034.45" y="-104.04" font-family="Times,serif" font-size="14.00" fill="#ebc72d">Priest</text>
</a>
</g>
</g>
<!-- temple&#45;&gt;priest -->
<g id="edge21" class="edge"><title>temple&#45;&gt;priest</title>
<path fill="none" stroke="#ebc72d" d="M1052.07,-180.262C1049.1,-168.183 1044.67,-150.233 1041,-135.338"/>
<polygon fill="#ebc72d" stroke="#ebc72d" points="1044.4,-134.495 1038.61,-125.623 1037.6,-136.17 1044.4,-134.495"/>
</g>
<!-- spear_weapons -->
<g id="node18" class="node"><title>spear_weapons</title>
<ellipse fill="none" stroke="black" cx="1147.45" cy="-107.74" rx="64.189" ry="18"/>
<text text-anchor="middle" x="1147.45" y="-104.04" font-family="Times,serif" font-size="14.00">spear_weapons</text>
</g>
<!-- temple&#45;&gt;spear_weapons -->
<g id="edge22" class="edge"><title>temple&#45;&gt;spear_weapons</title>
<path fill="none" stroke="#ebc72d" stroke-dasharray="1,5" d="M1070.23,-180.262C1084.11,-167.405 1105.17,-147.897 1121.79,-132.501"/>
<polygon fill="#ebc72d" stroke="#ebc72d" points="1124.59,-134.683 1129.55,-125.32 1119.83,-129.548 1124.59,-134.683"/>
</g>
<!-- speedup_priest_production -->
<g id="node21" class="node"><title>speedup_priest_production</title>
<ellipse fill="none" stroke="black" cx="1335.45" cy="-107.74" rx="105.881" ry="18"/>
<text text-anchor="middle" x="1335.45" y="-104.04" font-family="Times,serif" font-size="14.00">speedup_priest_production</text>
</g>
<!-- temple&#45;&gt;speedup_priest_production -->
<g id="edge23" class="edge"><title>temple&#45;&gt;speedup_priest_production</title>
<path fill="none" stroke="#ebc72d" stroke-dasharray="1,5" d="M1100.12,-180.357C1147.84,-165.834 1223.71,-142.746 1276.34,-126.727"/>
<polygon fill="#ebc72d" stroke="#ebc72d" points="1277.67,-129.982 1286.22,-123.722 1275.63,-123.286 1277.67,-129.982"/>
</g>
<!-- slave&#45;&gt;farm -->
<g id="edge15" class="edge"><title>slave&#45;&gt;farm</title>
<path fill="none" stroke="#ebc72d" stroke-width="2" d="M689.65,-275.948C652.506,-268.536 586.49,-253.03 534.447,-228.167 526.653,-224.443 518.745,-219.439 511.734,-214.486"/>
<polygon fill="#ebc72d" stroke="#ebc72d" stroke-width="2" points="513.535,-211.465 503.411,-208.341 509.377,-217.096 513.535,-211.465"/>
</g>
<!-- slave&#45;&gt;air_pyramid -->
<g id="edge13" class="edge"><title>slave&#45;&gt;air_pyramid</title>
<path fill="none" stroke="#ebc72d" stroke-width="2" d="M718.447,-263.922C718.447,-256.502 718.447,-247.468 718.447,-238.442"/>
<polygon fill="#ebc72d" stroke="#ebc72d" stroke-width="2" points="721.947,-238.34 718.447,-228.34 714.947,-238.34 721.947,-238.34"/>
</g>
<!-- slave&#45;&gt;desert_camp -->
<g id="edge14" class="edge"><title>slave&#45;&gt;desert_camp</title>
<path fill="none" stroke="#ebc72d" stroke-width="2" d="M737.041,-267.852C754.469,-255.372 780.972,-236.394 802.373,-221.069"/>
<polygon fill="#ebc72d" stroke="#ebc72d" stroke-width="2" points="804.5,-223.851 810.593,-215.183 800.424,-218.159 804.5,-223.851"/>
</g>
<!-- slave&#45;&gt;pyramid -->
<g id="edge17" class="edge"><title>slave&#45;&gt;pyramid</title>
<path fill="none" stroke="#ebc72d" stroke-width="2" d="M691.094,-262.37C670.329,-248.1 641.927,-228.582 621.289,-214.399"/>
<polygon fill="#ebc72d" stroke="#ebc72d" stroke-width="2" points="689.12,-265.26 699.344,-268.039 693.084,-259.491 689.12,-265.26"/>
<polygon fill="#ebc72d" stroke="#ebc72d" stroke-width="2" points="623.188,-211.457 612.964,-208.678 619.223,-217.226 623.188,-211.457"/>
</g>
<!-- slave&#45;&gt;sphinx -->
<g id="edge18" class="edge"><title>slave&#45;&gt;sphinx</title>
<path fill="none" stroke="#ebc72d" stroke-width="2" d="M746.454,-274.796C781.297,-266.376 842.203,-250.014 891.447,-228.167 900.68,-224.07 910.293,-218.726 918.806,-213.572"/>
<polygon fill="#ebc72d" stroke="#ebc72d" stroke-width="2" points="920.91,-216.385 927.541,-208.122 917.204,-210.446 920.91,-216.385"/>
</g>
<!-- slave&#45;&gt;obelisk -->
<g id="edge16" class="edge"><title>slave&#45;&gt;obelisk</title>
<path fill="none" stroke="#ebc72d" stroke-width="2" d="M689.339,-276.085C638.9,-267.166 532.056,-247.774 442.447,-228.167 412.655,-221.648 379.277,-213.426 353.669,-206.92"/>
<polygon fill="#ebc72d" stroke="#ebc72d" stroke-width="2" points="354.464,-203.511 343.909,-204.428 352.732,-210.294 354.464,-203.511"/>
</g>
<!-- slave&#45;&gt;temple -->
<g id="edge19" class="edge"><title>slave&#45;&gt;temple</title>
<path fill="none" stroke="#ebc72d" stroke-width="2" d="M748.73,-278.699C801.037,-273.727 911.098,-260.124 998.447,-228.167 1008.69,-224.417 1019.27,-218.95 1028.49,-213.58"/>
<polygon fill="#ebc72d" stroke="#ebc72d" stroke-width="2" points="1030.45,-216.484 1037.19,-208.311 1026.83,-210.496 1030.45,-216.484"/>
</g>
<!-- priest&#45;&gt;anubis_warrior -->
<g id="edge10" class="edge"><title>priest&#45;&gt;anubis_warrior</title>
<path fill="none" stroke="#ebc72d" d="M1022.51,-90.7796C1015.87,-81.9003 1007.36,-70.5246 999.403,-59.8941"/>
<polygon fill="#ebc72d" stroke="#ebc72d" points="1001.98,-57.5014 993.191,-51.5905 996.379,-61.6945 1001.98,-57.5014"/>
</g>
<!-- priest&#45;&gt;mummy -->
<g id="edge11" class="edge"><title>priest&#45;&gt;mummy</title>
<path fill="none" stroke="#ebc72d" d="M1043.56,-90.3982C1049.54,-79.6836 1057.48,-65.4571 1064.27,-53.2814"/>
<polygon fill="#ebc72d" stroke="#ebc72d" points="1067.37,-54.9005 1069.19,-44.4624 1061.26,-51.4902 1067.37,-54.9005"/>
</g>
</g>
</svg>
