<?xml version="1.0" encoding="UTF-8" standalone="no"?>
<!DOCTYPE svg PUBLIC "-//W3C//DTD SVG 1.1//EN"
 "http://www.w3.org/Graphics/SVG/1.1/DTD/svg11.dtd">
<!-- Generated by graphviz version 2.38.0 (20140413.2041)
 -->
<!-- Title: test Pages: 1 -->
<svg width="714pt" height="778pt"
 viewBox="0.00 0.00 714.06 778.43" xmlns="http://www.w3.org/2000/svg" xmlns:xlink="http://www.w3.org/1999/xlink">
<g id="graph0" class="graph" transform="scale(1 1) rotate(0) translate(4 774.426)">
<title>test</title>
<polygon fill="#151515" stroke="none" points="-4,4 -4,-774.426 710.064,-774.426 710.064,4 -4,4"/>
<!-- farm -->
<g id="node1" class="node"><title>farm</title>
<g id="a_node1"><a xlink:href="egypt_farm_full.html" xlink:title="Farm">
<polygon fill="none" stroke="red" points="142.91,-670.776 106,-683.213 69.0896,-670.776 69.1241,-650.651 142.876,-650.651 142.91,-670.776"/>
<text text-anchor="middle" x="106" y="-661.513" font-family="Times,serif" font-size="14.00" fill="#ebc72d">Farm</text>
</a>
</g>
</g>
<!-- ibis -->
<g id="node10" class="node"><title>ibis</title>
<g id="a_node10"><a xlink:href="egypt_ibis_full.html" xlink:title="Ibis">
<ellipse fill="none" stroke="magenta" cx="457" cy="-38" rx="27" ry="18"/>
<text text-anchor="middle" x="457" y="-34.3" font-family="Times,serif" font-size="14.00" fill="#ebc72d">Ibis</text>
</a>
</g>
</g>
<!-- farm&#45;&gt;ibis -->
<g id="edge6" class="edge"><title>farm&#45;&gt;ibis</title>
<path fill="none" stroke="#ebc72d" stroke-dasharray="1,5" d="M93.225,-650.468C81.8708,-637.448 65.7544,-616.837 57,-596 37.9522,-550.664 38,-536.175 38,-487 38,-487 38,-487 38,-373 38,-306.242 13.5677,-274.698 57,-224 133.14,-135.123 218.268,-223.675 310,-151"/>
<path fill="none" stroke="#ebc72d" stroke-dasharray="1,5" d="M310,-149C324.416,-137.428 316.219,-125.355 329,-112 355.898,-83.8943 396.007,-63.4204 424.14,-51.4289"/>
<polygon fill="#ebc72d" stroke="#ebc72d" points="425.643,-54.5947 433.55,-47.5425 422.971,-48.1248 425.643,-54.5947"/>
</g>
<!-- chicken -->
<g id="node11" class="node"><title>chicken</title>
<g id="a_node11"><a xlink:href="egypt_chicken_full.html" xlink:title="Chicken">
<ellipse fill="none" stroke="magenta" cx="106" cy="-578" rx="40.0939" ry="18"/>
<text text-anchor="middle" x="106" y="-574.3" font-family="Times,serif" font-size="14.00" fill="#ebc72d">Chicken</text>
</a>
</g>
</g>
<!-- farm&#45;&gt;chicken -->
<g id="edge5" class="edge"><title>farm&#45;&gt;chicken</title>
<path fill="none" stroke="#ebc72d" d="M106,-650.522C106,-638.635 106,-621.062 106,-606.31"/>
<polygon fill="#ebc72d" stroke="#ebc72d" points="109.5,-606.188 106,-596.188 102.5,-606.188 109.5,-606.188"/>
</g>
<!-- spearthrower -->
<g id="node2" class="node"><title>spearthrower</title>
<g id="a_node2"><a xlink:href="egypt_spearthrower_full.html" xlink:title="Spearthrower">
<ellipse fill="none" stroke="magenta" cx="260" cy="-578" rx="57.6901" ry="18"/>
<text text-anchor="middle" x="260" y="-574.3" font-family="Times,serif" font-size="14.00" fill="#ebc72d">Spearthrower</text>
</a>
</g>
</g>
<!-- air_pyramid -->
<g id="node3" class="node"><title>air_pyramid</title>
<g id="a_node3"><a xlink:href="egypt_air_pyramid_full.html" xlink:title="Air\nPyramid">
<polygon fill="none" stroke="red" points="176.128,-272.33 121,-295.428 65.8719,-272.33 65.9233,-234.956 176.077,-234.956 176.128,-272.33"/>
<text text-anchor="middle" x="121" y="-265.8" font-family="Times,serif" font-size="14.00" fill="#ebc72d">Air</text>
<text text-anchor="middle" x="121" y="-250.8" font-family="Times,serif" font-size="14.00" fill="#ebc72d">Pyramid</text>
</a>
</g>
</g>
<!-- anubis_warrior -->
<g id="node4" class="node"><title>anubis_warrior</title>
<g id="a_node4"><a xlink:href="egypt_anubis_warrior_full.html" xlink:title="Anubis\nWarrior">
<ellipse fill="none" stroke="magenta" cx="282" cy="-374" rx="42.3529" ry="26.7407"/>
<text text-anchor="middle" x="282" y="-377.8" font-family="Times,serif" font-size="14.00" fill="#ebc72d">Anubis</text>
<text text-anchor="middle" x="282" y="-362.8" font-family="Times,serif" font-size="14.00" fill="#ebc72d">Warrior</text>
</a>
</g>
</g>
<!-- scarab -->
<g id="node5" class="node"><title>scarab</title>
<g id="a_node5"><a xlink:href="egypt_scarab_full.html" xlink:title="Scarab">
<ellipse fill="none" stroke="magenta" cx="372" cy="-150" rx="34.394" ry="18"/>
<text text-anchor="middle" x="372" y="-146.3" font-family="Times,serif" font-size="14.00" fill="#ebc72d">Scarab</text>
</a>
</g>
</g>
<!-- desert_camp -->
<g id="node6" class="node"><title>desert_camp</title>
<g id="a_node6"><a xlink:href="egypt_desert_camp_full.html" xlink:title="Desert\nCamp">
<polygon fill="none" stroke="red" points="324.399,-675.543 279,-698.641 233.601,-675.543 233.643,-638.17 324.357,-638.17 324.399,-675.543"/>
<text text-anchor="middle" x="279" y="-669.013" font-family="Times,serif" font-size="14.00" fill="#ebc72d">Desert</text>
<text text-anchor="middle" x="279" y="-654.013" font-family="Times,serif" font-size="14.00" fill="#ebc72d">Camp</text>
</a>
</g>
</g>
<!-- desert_camp&#45;&gt;spearthrower -->
<g id="edge3" class="edge"><title>desert_camp&#45;&gt;spearthrower</title>
<path fill="none" stroke="#ebc72d" d="M273.092,-637.718C270.845,-627.638 268.283,-616.146 266.024,-606.018"/>
<polygon fill="#ebc72d" stroke="#ebc72d" points="269.399,-605.072 263.807,-596.073 262.567,-606.595 269.399,-605.072"/>
</g>
<!-- spearman -->
<g id="node13" class="node"><title>spearman</title>
<g id="a_node13"><a xlink:href="egypt_spearman_full.html" xlink:title="Spearman">
<ellipse fill="none" stroke="magenta" cx="382" cy="-578" rx="46.2923" ry="18"/>
<text text-anchor="middle" x="382" y="-574.3" font-family="Times,serif" font-size="14.00" fill="#ebc72d">Spearman</text>
</a>
</g>
</g>
<!-- desert_camp&#45;&gt;spearman -->
<g id="edge2" class="edge"><title>desert_camp&#45;&gt;spearman</title>
<path fill="none" stroke="#ebc72d" d="M310.744,-637.951C324.939,-626.207 341.495,-612.51 355.074,-601.276"/>
<polygon fill="#ebc72d" stroke="#ebc72d" points="357.622,-603.711 363.096,-594.639 353.16,-598.317 357.622,-603.711"/>
</g>
<!-- temple -->
<g id="node15" class="node"><title>temple</title>
<g id="a_node15"><a xlink:href="egypt_temple_full.html" xlink:title="Temple">
<polygon fill="none" stroke="red" points="578.298,-583.562 531,-596 483.702,-583.562 483.746,-563.438 578.254,-563.438 578.298,-583.562"/>
<text text-anchor="middle" x="531" y="-574.3" font-family="Times,serif" font-size="14.00" fill="#ebc72d">Temple</text>
</a>
</g>
</g>
<!-- desert_camp&#45;&gt;temple -->
<g id="edge4" class="edge"><title>desert_camp&#45;&gt;temple</title>
<path fill="none" stroke="#ebc72d" stroke-dasharray="1,5" d="M320.254,-638.037C324.479,-635.834 328.772,-633.775 333,-632 391.049,-607.634 409.231,-612.451 470,-596 476.337,-594.284 483.037,-592.444 489.586,-590.631"/>
<polygon fill="#ebc72d" stroke="#ebc72d" points="490.982,-593.876 499.679,-587.825 489.107,-587.131 490.982,-593.876"/>
</g>
<!-- spear_weapons -->
<g id="node21" class="node"><title>spear_weapons</title>
<g id="a_node21"><a xlink:href="egypt_spear_weapons_full.html" xlink:title="Spear\nWeapons">
<polygon fill="none" stroke="green" points="482.498,-524 370.351,-524 341.502,-448 453.649,-448 482.498,-524"/>
<text text-anchor="middle" x="412" y="-489.8" font-family="Times,serif" font-size="14.00" fill="#ebc72d">Spear</text>
<text text-anchor="middle" x="412" y="-474.8" font-family="Times,serif" font-size="14.00" fill="#ebc72d">Weapons</text>
</a>
</g>
</g>
<!-- desert_camp&#45;&gt;spear_weapons -->
<g id="edge1" class="edge"><title>desert_camp&#45;&gt;spear_weapons</title>
<path fill="none" stroke="#ebc72d" d="M321.002,-638.048C325.001,-635.895 329.041,-633.842 333,-632 377.346,-611.363 408.629,-635.844 437,-596 449.891,-577.897 446.255,-554.19 438.295,-533.51"/>
<polygon fill="#ebc72d" stroke="#ebc72d" points="441.498,-532.097 434.377,-524.252 435.051,-534.826 441.498,-532.097"/>
</g>
<!-- snake -->
<g id="node7" class="node"><title>snake</title>
<g id="a_node7"><a xlink:href="egypt_snake_full.html" xlink:title="Snake">
<ellipse fill="none" stroke="magenta" cx="370" cy="-262" rx="32.4942" ry="18"/>
<text text-anchor="middle" x="370" y="-258.3" font-family="Times,serif" font-size="14.00" fill="#ebc72d">Snake</text>
</a>
</g>
</g>
<!-- pyramid -->
<g id="node8" class="node"><title>pyramid</title>
<g id="a_node8"><a xlink:href="egypt_pyramid_full.html" xlink:title="Pyramid">
<polygon fill="none" stroke="red" points="443.725,-670.776 393,-683.213 342.275,-670.776 342.322,-650.651 443.678,-650.651 443.725,-670.776"/>
<text text-anchor="middle" x="393" y="-661.513" font-family="Times,serif" font-size="14.00" fill="#ebc72d">Pyramid</text>
</a>
</g>
</g>
<!-- slave -->
<g id="node16" class="node"><title>slave</title>
<g id="a_node16"><a xlink:href="egypt_slave_full.html" xlink:title="Slave">
<ellipse fill="none" stroke="magenta" cx="226" cy="-752.426" rx="30.5947" ry="18"/>
<text text-anchor="middle" x="226" y="-748.726" font-family="Times,serif" font-size="14.00" fill="#ebc72d">Slave</text>
</a>
</g>
</g>
<!-- mummy -->
<g id="node9" class="node"><title>mummy</title>
<g id="a_node9"><a xlink:href="egypt_mummy_full.html" xlink:title="Mummy">
<ellipse fill="none" stroke="magenta" cx="385" cy="-374" rx="42.4939" ry="18"/>
<text text-anchor="middle" x="385" y="-370.3" font-family="Times,serif" font-size="14.00" fill="#ebc72d">Mummy</text>
</a>
</g>
</g>
<!-- sphinx -->
<g id="node12" class="node"><title>sphinx</title>
<g id="a_node12"><a xlink:href="egypt_sphinx_full.html" xlink:title="Sphinx">
<polygon fill="none" stroke="red" points="282.372,-267.562 238,-280 193.628,-267.562 193.67,-247.438 282.33,-247.438 282.372,-267.562"/>
<text text-anchor="middle" x="238" y="-258.3" font-family="Times,serif" font-size="14.00" fill="#ebc72d">Sphinx</text>
</a>
</g>
</g>
<!-- obelisk -->
<g id="node14" class="node"><title>obelisk</title>
<g id="a_node14"><a xlink:href="egypt_obelisk_full.html" xlink:title="Obelisk">
<polygon fill="none" stroke="red" points="221.298,-379.562 174,-392 126.702,-379.562 126.746,-359.438 221.254,-359.438 221.298,-379.562"/>
<text text-anchor="middle" x="174" y="-370.3" font-family="Times,serif" font-size="14.00" fill="#ebc72d">Obelisk</text>
</a>
</g>
</g>
<!-- obelisk&#45;&gt;air_pyramid -->
<g id="edge7" class="edge"><title>obelisk&#45;&gt;air_pyramid</title>
<path fill="none" stroke="#ebc72d" stroke-dasharray="1,5" d="M167.288,-359.068C160.089,-344.129 148.366,-319.796 138.518,-299.359"/>
<polygon fill="#ebc72d" stroke="#ebc72d" points="141.643,-297.78 134.149,-290.29 135.337,-300.818 141.643,-297.78"/>
</g>
<!-- obelisk&#45;&gt;scarab -->
<g id="edge9" class="edge"><title>obelisk&#45;&gt;scarab</title>
<path fill="none" stroke="#ebc72d" d="M310,-261C320.068,-245.496 320.083,-240.193 329,-224 337.905,-207.829 348.414,-189.968 356.813,-175.961"/>
<polygon fill="#ebc72d" stroke="#ebc72d" points="359.827,-177.741 361.991,-167.369 353.832,-174.128 359.827,-177.741"/>
</g>
<!-- obelisk&#45;&gt;snake -->
<g id="edge10" class="edge"><title>obelisk&#45;&gt;snake</title>
<path fill="none" stroke="#ebc72d" d="M192.928,-359.301C203.749,-351.835 217.764,-342.766 231,-336 270.465,-315.827 285.611,-322.152 324,-300 331.49,-295.678 339.04,-290.186 345.796,-284.764"/>
<polygon fill="#ebc72d" stroke="#ebc72d" points="348.432,-287.123 353.866,-278.028 343.946,-281.749 348.432,-287.123"/>
</g>
<!-- obelisk&#45;&gt;ibis -->
<g id="edge8" class="edge"><title>obelisk&#45;&gt;ibis</title>
<path fill="none" stroke="#ebc72d" d="M194.733,-359.291C205.494,-352.239 218.891,-343.56 231,-336 257.38,-319.531 269.748,-322.704 291,-300 303.633,-286.504 299.932,-278.504 310,-263"/>
<path fill="none" stroke="#ebc72d" d="M310,-261C336.626,-219.998 271.68,-181.359 310,-151"/>
</g>
<!-- obelisk&#45;&gt;sphinx -->
<g id="edge11" class="edge"><title>obelisk&#45;&gt;sphinx</title>
<path fill="none" stroke="#ebc72d" stroke-dasharray="1,5" d="M182.106,-359.068C192.701,-340.858 211.416,-308.692 224.249,-286.635"/>
<polygon fill="#ebc72d" stroke="#ebc72d" points="227.344,-288.274 229.348,-277.871 221.294,-284.754 227.344,-288.274"/>
</g>
<!-- summon_scarab -->
<g id="node19" class="node"><title>summon_scarab</title>
<g id="a_node19"><a xlink:href="egypt_summon_scarab_full.html" xlink:title="Summon\nScarab">
<polygon fill="none" stroke="green" points="589.425,-300 478.985,-300 450.575,-224 561.015,-224 589.425,-300"/>
<text text-anchor="middle" x="520" y="-265.8" font-family="Times,serif" font-size="14.00" fill="#ebc72d">Summon</text>
<text text-anchor="middle" x="520" y="-250.8" font-family="Times,serif" font-size="14.00" fill="#ebc72d">Scarab</text>
</a>
</g>
</g>
<!-- obelisk&#45;&gt;summon_scarab -->
<g id="edge12" class="edge"><title>obelisk&#45;&gt;summon_scarab</title>
<path fill="none" stroke="#ebc72d" stroke-dasharray="1,5" d="M191.508,-359.136C202.318,-351.233 216.795,-341.782 231,-336 306.564,-305.241 332.207,-321.157 411,-300 427.623,-295.537 445.397,-289.889 461.668,-284.359"/>
<polygon fill="#ebc72d" stroke="#ebc72d" points="463.267,-287.51 471.581,-280.942 460.986,-280.892 463.267,-287.51"/>
</g>
<!-- priest -->
<g id="node17" class="node"><title>priest</title>
<g id="a_node17"><a xlink:href="egypt_priest_full.html" xlink:title="Priest">
<ellipse fill="none" stroke="magenta" cx="531" cy="-486" rx="30.5947" ry="18"/>
<text text-anchor="middle" x="531" y="-482.3" font-family="Times,serif" font-size="14.00" fill="#ebc72d">Priest</text>
</a>
</g>
</g>
<!-- temple&#45;&gt;priest -->
<g id="edge30" class="edge"><title>temple&#45;&gt;priest</title>
<path fill="none" stroke="#ebc72d" d="M531,-563.331C531,-550.342 531,-530.439 531,-514.214"/>
<polygon fill="#ebc72d" stroke="#ebc72d" points="534.5,-514.192 531,-504.192 527.5,-514.192 534.5,-514.192"/>
</g>
<!-- summon_ibis -->
<g id="node18" class="node"><title>summon_ibis</title>
<g id="a_node18"><a xlink:href="egypt_summon_ibis_full.html" xlink:title="Summon\nIbis">
<polygon fill="none" stroke="green" points="618.425,-188 507.985,-188 479.575,-112 590.015,-112 618.425,-188"/>
<text text-anchor="middle" x="549" y="-153.8" font-family="Times,serif" font-size="14.00" fill="#ebc72d">Summon</text>
<text text-anchor="middle" x="549" y="-138.8" font-family="Times,serif" font-size="14.00" fill="#ebc72d">Ibis</text>
</a>
</g>
</g>
<!-- temple&#45;&gt;summon_ibis -->
<g id="edge32" class="edge"><title>temple&#45;&gt;summon_ibis</title>
<path fill="none" stroke="#ebc72d" d="M701,-373C693.379,-324.709 715.359,-309.733 701,-263"/>
<path fill="none" stroke="#ebc72d" d="M701,-261C689.588,-223.858 655.809,-197.446 622.985,-179.829"/>
<polygon fill="#ebc72d" stroke="#ebc72d" points="624.266,-176.552 613.772,-175.092 621.065,-182.777 624.266,-176.552"/>
</g>
<!-- temple&#45;&gt;summon_scarab -->
<g id="edge33" class="edge"><title>temple&#45;&gt;summon_scarab</title>
<path fill="none" stroke="#ebc72d" d="M558.723,-563.323C614.202,-533.861 731.097,-460.133 701,-375"/>
<path fill="none" stroke="#ebc72d" d="M701,-373C692.822,-321.179 637.542,-292.953 590.201,-278.119"/>
<polygon fill="#ebc72d" stroke="#ebc72d" points="591.131,-274.744 580.547,-275.24 589.13,-281.452 591.131,-274.744"/>
</g>
<!-- temple&#45;&gt;spear_weapons -->
<g id="edge31" class="edge"><title>temple&#45;&gt;spear_weapons</title>
<path fill="none" stroke="#ebc72d" stroke-dasharray="1,5" d="M512.926,-563.331C501.188,-554.453 485.18,-542.346 469.372,-530.391"/>
<polygon fill="#ebc72d" stroke="#ebc72d" points="471.235,-527.411 461.148,-524.171 467.013,-532.994 471.235,-527.411"/>
</g>
<!-- power_of_ra -->
<g id="node22" class="node"><title>power_of_ra</title>
<g id="a_node22"><a xlink:href="egypt_power_of_ra_full.html" xlink:title="Power\nOf Ra">
<polygon fill="none" stroke="green" points="677.749,-76 593.837,-76 572.251,-3.55271e-14 656.163,-1.42109e-14 677.749,-76"/>
<text text-anchor="middle" x="625" y="-41.8" font-family="Times,serif" font-size="14.00" fill="#ebc72d">Power</text>
<text text-anchor="middle" x="625" y="-26.8" font-family="Times,serif" font-size="14.00" fill="#ebc72d">Of Ra</text>
</a>
</g>
</g>
<!-- temple&#45;&gt;power_of_ra -->
<g id="edge29" class="edge"><title>temple&#45;&gt;power_of_ra</title>
<path fill="none" stroke="#ebc72d" d="M701,-261C682.217,-199.87 657.892,-130.233 641.885,-85.5091"/>
<polygon fill="#ebc72d" stroke="#ebc72d" points="645.173,-84.3098 638.501,-76.0798 638.584,-86.6743 645.173,-84.3098"/>
</g>
<!-- slave&#45;&gt;farm -->
<g id="edge20" class="edge"><title>slave&#45;&gt;farm</title>
<path fill="none" stroke="#ebc72d" stroke-width="2" d="M207.25,-738.112C186.65,-723.483 153.475,-699.926 130.752,-683.79"/>
<polygon fill="#ebc72d" stroke="#ebc72d" stroke-width="2" points="132.488,-680.73 122.309,-677.794 128.436,-686.438 132.488,-680.73"/>
</g>
<!-- slave&#45;&gt;air_pyramid -->
<g id="edge18" class="edge"><title>slave&#45;&gt;air_pyramid</title>
<path fill="none" stroke="#ebc72d" stroke-width="2" d="M195.941,-748.853C159.827,-744.32 99.213,-731.937 60,-698.426 14.8422,-659.836 0,-638.401 0,-579 0,-579 0,-579 0,-485 0,-408.87 55.5382,-333.998 91.3613,-293.623"/>
<polygon fill="#ebc72d" stroke="#ebc72d" stroke-width="2" points="94.1281,-295.782 98.2408,-286.018 88.9368,-291.086 94.1281,-295.782"/>
</g>
<!-- slave&#45;&gt;desert_camp -->
<g id="edge19" class="edge"><title>slave&#45;&gt;desert_camp</title>
<path fill="none" stroke="#ebc72d" stroke-width="2" d="M235.969,-735.398C242.243,-725.312 250.574,-711.916 258.234,-699.6"/>
<polygon fill="#ebc72d" stroke="#ebc72d" stroke-width="2" points="261.345,-701.226 263.655,-690.885 255.401,-697.528 261.345,-701.226"/>
</g>
<!-- slave&#45;&gt;pyramid -->
<g id="edge22" class="edge"><title>slave&#45;&gt;pyramid</title>
<path fill="none" stroke="#ebc72d" stroke-width="2" d="M258.314,-735.763C279.615,-725.354 308.077,-711.285 333,-698.426 342.614,-693.466 353.02,-687.937 362.425,-682.878"/>
<polygon fill="#ebc72d" stroke="#ebc72d" stroke-width="2" points="256.524,-732.742 249.069,-740.271 259.592,-739.034 256.524,-732.742"/>
<polygon fill="#ebc72d" stroke="#ebc72d" stroke-width="2" points="364.293,-685.847 371.429,-678.015 360.967,-679.688 364.293,-685.847"/>
</g>
<!-- slave&#45;&gt;sphinx -->
<g id="edge23" class="edge"><title>slave&#45;&gt;sphinx</title>
<path fill="none" stroke="#ebc72d" stroke-width="2" d="M222.131,-734.219C215.744,-705.598 202.735,-646.377 193,-596 183.67,-547.718 181.909,-535.535 174,-487"/>
<path fill="none" stroke="#ebc72d" stroke-width="2" d="M174,-485C163.977,-445.356 131.142,-450.722 118,-412 107.145,-380.014 100.666,-364.991 118,-336 135.347,-306.986 156.203,-317.705 185,-300 194.32,-294.269 204.229,-287.537 212.926,-281.397"/>
<polygon fill="#ebc72d" stroke="#ebc72d" stroke-width="2" points="215.055,-284.178 221.153,-275.514 210.983,-278.484 215.055,-284.178"/>
</g>
<!-- slave&#45;&gt;obelisk -->
<g id="edge21" class="edge"><title>slave&#45;&gt;obelisk</title>
<path fill="none" stroke="#ebc72d" stroke-width="2" d="M174,-485C169.433,-456.977 170.171,-424.403 171.592,-402.016"/>
<polygon fill="#ebc72d" stroke="#ebc72d" stroke-width="2" points="175.092,-402.135 172.324,-391.908 168.111,-401.629 175.092,-402.135"/>
</g>
<!-- slave&#45;&gt;temple -->
<g id="edge24" class="edge"><title>slave&#45;&gt;temple</title>
<path fill="none" stroke="#ebc72d" stroke-width="2" d="M256.812,-751.29C303.384,-749.636 392.663,-740.669 453,-698.426 486.787,-674.772 509.625,-631.349 521.46,-603.89"/>
<polygon fill="#ebc72d" stroke="#ebc72d" stroke-width="2" points="524.731,-605.141 525.323,-594.563 518.263,-602.463 524.731,-605.141"/>
</g>
<!-- priest&#45;&gt;anubis_warrior -->
<g id="edge13" class="edge"><title>priest&#45;&gt;anubis_warrior</title>
<path fill="none" stroke="#ebc72d" d="M517.983,-469.631C510.768,-462.046 501.205,-453.39 491,-448 427.698,-414.566 399.311,-441.316 334,-412 327.684,-409.165 321.353,-405.51 315.391,-401.603"/>
<polygon fill="#ebc72d" stroke="#ebc72d" points="317.178,-398.583 306.965,-395.767 313.193,-404.338 317.178,-398.583"/>
</g>
<!-- priest&#45;&gt;mummy -->
<g id="edge14" class="edge"><title>priest&#45;&gt;mummy</title>
<path fill="none" stroke="#ebc72d" d="M515.955,-469.966C508.672,-462.984 499.649,-454.754 491,-448 467.974,-430.018 460.053,-428.583 436,-412 428.621,-406.913 420.741,-401.291 413.436,-395.999"/>
<polygon fill="#ebc72d" stroke="#ebc72d" points="415.333,-393.051 405.19,-389.99 411.21,-398.708 415.333,-393.051"/>
</g>
<!-- priest&#45;&gt;obelisk -->
<g id="edge15" class="edge"><title>priest&#45;&gt;obelisk</title>
<path fill="none" stroke="#ebc72d" stroke-dasharray="1,5" d="M518.169,-469.258C511.005,-461.571 501.432,-452.937 491,-448 385.554,-398.097 340.316,-452.732 231,-412 219.489,-407.711 207.912,-400.79 198.227,-394.087"/>
<polygon fill="#ebc72d" stroke="#ebc72d" points="200.074,-391.103 189.921,-388.075 195.969,-396.774 200.074,-391.103"/>
</g>
<!-- speedup_priest_production -->
<g id="node20" class="node"><title>speedup_priest_production</title>
<g id="a_node20"><a xlink:href="egypt_speedup_priest_production_full.html" xlink:title="Speedup\nPriest Production">
<polygon fill="none" stroke="green" points="673.086,-412 491.601,-412 444.914,-336 626.399,-336 673.086,-412"/>
<text text-anchor="middle" x="559" y="-377.8" font-family="Times,serif" font-size="14.00" fill="#ebc72d">Speedup</text>
<text text-anchor="middle" x="559" y="-362.8" font-family="Times,serif" font-size="14.00" fill="#ebc72d">Priest Production</text>
</a>
</g>
</g>
<!-- priest&#45;&gt;speedup_priest_production -->
<g id="edge16" class="edge"><title>priest&#45;&gt;speedup_priest_production</title>
<path fill="none" stroke="#ebc72d" d="M535.375,-467.812C538.508,-455.503 542.888,-438.295 547.027,-422.036"/>
<polygon fill="#ebc72d" stroke="#ebc72d" points="550.484,-422.642 549.56,-412.088 543.701,-420.915 550.484,-422.642"/>
</g>
<!-- summon_ibis&#45;&gt;ibis -->
<g id="edge25" class="edge"><title>summon_ibis&#45;&gt;ibis</title>
<path fill="none" stroke="#ebc72d" stroke-dasharray="1,5" d="M517.853,-111.759C504.083,-95.2947 488.323,-76.452 476.293,-62.0676"/>
<polygon fill="#ebc72d" stroke="#ebc72d" points="478.784,-59.5905 469.684,-54.1651 473.414,-64.0814 478.784,-59.5905"/>
</g>
<!-- summon_ibis&#45;&gt;power_of_ra -->
<g id="edge26" class="edge"><title>summon_ibis&#45;&gt;power_of_ra</title>
<path fill="none" stroke="#ebc72d" stroke-dasharray="1,5" d="M574.73,-111.759C580.735,-103.068 587.197,-93.7146 593.423,-84.7039"/>
<polygon fill="#ebc72d" stroke="#ebc72d" points="596.492,-86.4195 599.296,-76.2026 590.732,-82.4404 596.492,-86.4195"/>
</g>
<!-- summon_scarab&#45;&gt;scarab -->
<g id="edge27" class="edge"><title>summon_scarab&#45;&gt;scarab</title>
<path fill="none" stroke="#ebc72d" stroke-dasharray="1,5" d="M469.894,-223.759C446.226,-206.168 418.905,-185.862 399.15,-171.179"/>
<polygon fill="#ebc72d" stroke="#ebc72d" points="401.027,-168.213 390.913,-165.057 396.852,-173.832 401.027,-168.213"/>
</g>
<!-- summon_scarab&#45;&gt;summon_ibis -->
<g id="edge28" class="edge"><title>summon_scarab&#45;&gt;summon_ibis</title>
<path fill="none" stroke="#ebc72d" stroke-dasharray="1,5" d="M529.818,-223.759C531.991,-215.516 534.321,-206.677 536.583,-198.1"/>
<polygon fill="#ebc72d" stroke="#ebc72d" points="540.027,-198.765 539.192,-188.203 533.258,-196.98 540.027,-198.765"/>
</g>
</g>
</svg>
