<?xml version="1.0" encoding="UTF-8" standalone="no"?>
<!DOCTYPE svg PUBLIC "-//W3C//DTD SVG 1.1//EN"
 "http://www.w3.org/Graphics/SVG/1.1/DTD/svg11.dtd">
<!-- Generated by graphviz version 2.38.0 (20140413.2041)
 -->
<!-- Title: test Pages: 1 -->
<svg width="1319pt" height="595pt"
 viewBox="0.00 0.00 1319.37 594.59" xmlns="http://www.w3.org/2000/svg" xmlns:xlink="http://www.w3.org/1999/xlink">
<g id="graph0" class="graph" transform="scale(1 1) rotate(0) translate(4 590.593)">
<title>test</title>
<polygon fill="#151515" stroke="none" points="-4,4 -4,-590.593 1315.37,-590.593 1315.37,4 -4,4"/>
<!-- tank -->
<g id="node1" class="node"><title>tank</title>
<g id="a_node1"><a xlink:href="usa_tank_full.html" xlink:title="Tank">
<ellipse fill="none" stroke="magenta" cx="376.941" cy="-105.213" rx="28.6953" ry="18"/>
<text text-anchor="middle" x="376.941" y="-101.513" font-family="Times,serif" font-size="14.00" fill="#ebc72d">Tank</text>
</a>
</g>
</g>
<!-- combat_knifer -->
<g id="node2" class="node"><title>combat_knifer</title>
<g id="a_node2"><a xlink:href="usa_combat_knifer_full.html" xlink:title="Combat\nKnifer">
<ellipse fill="none" stroke="magenta" cx="249.941" cy="-105.213" rx="42.3529" ry="26.7407"/>
<text text-anchor="middle" x="249.941" y="-109.013" font-family="Times,serif" font-size="14.00" fill="#ebc72d">Combat</text>
<text text-anchor="middle" x="249.941" y="-94.0132" font-family="Times,serif" font-size="14.00" fill="#ebc72d">Knifer</text>
</a>
</g>
</g>
<!-- pentagon -->
<g id="node3" class="node"><title>pentagon</title>
<g id="a_node3"><a xlink:href="usa_pentagon_full.html" xlink:title="Pentagon">
<polygon fill="none" stroke="red" points="795.594,-325.202 741.941,-337.64 688.289,-325.202 688.339,-305.077 795.543,-305.077 795.594,-325.202"/>
<text text-anchor="middle" x="741.941" y="-315.94" font-family="Times,serif" font-size="14.00" fill="#ebc72d">Pentagon</text>
</a>
</g>
</g>
<!-- president -->
<g id="node13" class="node"><title>president</title>
<g id="a_node13"><a xlink:href="usa_president_full.html" xlink:title="President">
<ellipse fill="none" stroke="magenta" cx="713.941" cy="-105.213" rx="43.5923" ry="18"/>
<text text-anchor="middle" x="713.941" y="-101.513" font-family="Times,serif" font-size="14.00" fill="#ebc72d">President</text>
</a>
</g>
</g>
<!-- pentagon&#45;&gt;president -->
<g id="edge35" class="edge"><title>pentagon&#45;&gt;president</title>
<path fill="none" stroke="#ebc72d" stroke-dasharray="1,5" d="M740.108,-304.718C736.719,-278.987 729.246,-222.247 722.941,-174.426 721.166,-160.962 719.192,-146.002 717.547,-133.532"/>
<polygon fill="#ebc72d" stroke="#ebc72d" points="720.976,-132.77 716.198,-123.313 714.037,-133.685 720.976,-132.77"/>
</g>
<!-- guard_tower -->
<g id="node19" class="node"><title>guard_tower</title>
<g id="a_node19"><a xlink:href="usa_guard_tower_full.html" xlink:title="Guard\nTower">
<polygon fill="none" stroke="red" points="1035.34,-115.543 989.941,-138.641 944.542,-115.543 944.584,-78.1695 1035.3,-78.1695 1035.34,-115.543"/>
<text text-anchor="middle" x="989.941" y="-109.013" font-family="Times,serif" font-size="14.00" fill="#ebc72d">Guard</text>
<text text-anchor="middle" x="989.941" y="-94.0132" font-family="Times,serif" font-size="14.00" fill="#ebc72d">Tower</text>
</a>
</g>
</g>
<!-- pentagon&#45;&gt;guard_tower -->
<g id="edge31" class="edge"><title>pentagon&#45;&gt;guard_tower</title>
<path fill="none" stroke="#ebc72d" stroke-dasharray="1,5" d="M778.845,-304.955C824.392,-287.825 897.071,-259.613 906.941,-250.426 934.584,-224.696 926.065,-207.135 944.941,-174.426 951.768,-162.597 959.823,-150.019 967.218,-138.927"/>
<polygon fill="#ebc72d" stroke="#ebc72d" points="970.283,-140.642 972.971,-130.394 964.479,-136.729 970.283,-140.642"/>
</g>
<!-- bullets -->
<g id="node22" class="node"><title>bullets</title>
<g id="a_node22"><a xlink:href="usa_bullets_full.html" xlink:title="Bullets">
<polygon fill="none" stroke="green" points="436.265,-230.426 353.03,-230.426 331.618,-194.426 414.853,-194.426 436.265,-230.426"/>
<text text-anchor="middle" x="383.941" y="-208.726" font-family="Times,serif" font-size="14.00" fill="#ebc72d">Bullets</text>
</a>
</g>
</g>
<!-- pentagon&#45;&gt;bullets -->
<g id="edge30" class="edge"><title>pentagon&#45;&gt;bullets</title>
<path fill="none" stroke="#ebc72d" d="M711.951,-305.059C697.606,-298.873 680.078,-291.759 663.941,-286.426 601.712,-265.864 584.357,-266.971 520.941,-250.426 495.91,-243.896 468.365,-236.498 444.579,-230.043"/>
<polygon fill="#ebc72d" stroke="#ebc72d" points="445.202,-226.585 434.634,-227.34 443.366,-233.34 445.202,-226.585"/>
</g>
<!-- missiles -->
<g id="node23" class="node"><title>missiles</title>
<g id="a_node23"><a xlink:href="usa_missiles_full.html" xlink:title="Missiles">
<polygon fill="none" stroke="green" points="1072.11,-230.426 977.988,-230.426 953.776,-194.426 1047.89,-194.426 1072.11,-230.426"/>
<text text-anchor="middle" x="1012.94" y="-208.726" font-family="Times,serif" font-size="14.00" fill="#ebc72d">Missiles</text>
</a>
</g>
</g>
<!-- pentagon&#45;&gt;missiles -->
<g id="edge33" class="edge"><title>pentagon&#45;&gt;missiles</title>
<path fill="none" stroke="#ebc72d" d="M779.972,-305.028C796.263,-299.235 815.515,-292.442 832.941,-286.426 880.37,-270.054 893.665,-269.819 939.941,-250.426 950.786,-245.882 962.248,-240.409 972.795,-235.082"/>
<polygon fill="#ebc72d" stroke="#ebc72d" points="974.49,-238.146 981.789,-230.467 971.294,-231.919 974.49,-238.146"/>
</g>
<!-- nuclear_compression -->
<g id="node24" class="node"><title>nuclear_compression</title>
<g id="a_node24"><a xlink:href="usa_nuclear_compression_full.html" xlink:title="Nuclear\nCompression">
<polygon fill="none" stroke="green" points="713.984,-250.426 567.564,-250.426 529.898,-174.426 676.318,-174.426 713.984,-250.426"/>
<text text-anchor="middle" x="621.941" y="-216.226" font-family="Times,serif" font-size="14.00" fill="#ebc72d">Nuclear</text>
<text text-anchor="middle" x="621.941" y="-201.226" font-family="Times,serif" font-size="14.00" fill="#ebc72d">Compression</text>
</a>
</g>
</g>
<!-- pentagon&#45;&gt;nuclear_compression -->
<g id="edge34" class="edge"><title>pentagon&#45;&gt;nuclear_compression</title>
<path fill="none" stroke="#ebc72d" d="M726.253,-304.885C712.4,-292.739 691.427,-274.35 671.91,-257.238"/>
<polygon fill="#ebc72d" stroke="#ebc72d" points="674.062,-254.47 664.235,-250.509 669.447,-259.733 674.062,-254.47"/>
</g>
<!-- jet_fuel -->
<g id="node25" class="node"><title>jet_fuel</title>
<g id="a_node25"><a xlink:href="usa_jet_fuel_full.html" xlink:title="Jet\nFuel">
<polygon fill="none" stroke="green" points="226.455,-250.426 158.825,-250.426 141.427,-174.426 209.057,-174.426 226.455,-250.426"/>
<text text-anchor="middle" x="183.941" y="-216.226" font-family="Times,serif" font-size="14.00" fill="#ebc72d">Jet</text>
<text text-anchor="middle" x="183.941" y="-201.226" font-family="Times,serif" font-size="14.00" fill="#ebc72d">Fuel</text>
</a>
</g>
</g>
<!-- pentagon&#45;&gt;jet_fuel -->
<g id="edge32" class="edge"><title>pentagon&#45;&gt;jet_fuel</title>
<path fill="none" stroke="#ebc72d" d="M714.839,-305.026C700.146,-298.272 681.455,-290.67 663.941,-286.426 477.984,-241.375 414.302,-317.054 234.941,-250.426 234.842,-250.39 234.742,-250.352 234.643,-250.315"/>
<polygon fill="#ebc72d" stroke="#ebc72d" points="236.066,-247.117 225.512,-246.194 233.187,-253.498 236.066,-247.117"/>
</g>
<!-- fighter_jet -->
<g id="node4" class="node"><title>fighter_jet</title>
<g id="a_node4"><a xlink:href="usa_fighter_jet_full.html" xlink:title="Fighter\nJet">
<ellipse fill="none" stroke="magenta" cx="149.941" cy="-105.213" rx="39.6962" ry="26.7407"/>
<text text-anchor="middle" x="149.941" y="-109.013" font-family="Times,serif" font-size="14.00" fill="#ebc72d">Fighter</text>
<text text-anchor="middle" x="149.941" y="-94.0132" font-family="Times,serif" font-size="14.00" fill="#ebc72d">Jet</text>
</a>
</g>
</g>
<!-- bomber -->
<g id="node18" class="node"><title>bomber</title>
<g id="a_node18"><a xlink:href="usa_bomber_full.html" xlink:title="Bomber">
<ellipse fill="none" stroke="magenta" cx="149.941" cy="-18" rx="39.7935" ry="18"/>
<text text-anchor="middle" x="149.941" y="-14.3" font-family="Times,serif" font-size="14.00" fill="#ebc72d">Bomber</text>
</a>
</g>
</g>
<!-- fighter_jet&#45;&gt;bomber -->
<g id="edge21" class="edge"><title>fighter_jet&#45;&gt;bomber</title>
<path fill="none" stroke="#ebc72d" stroke-dasharray="5,2" d="M149.941,-78.1834C149.941,-68.0121 149.941,-56.3476 149.941,-46.0776"/>
<polygon fill="#ebc72d" stroke="#ebc72d" points="153.441,-46.001 149.941,-36.0011 146.441,-46.0011 153.441,-46.001"/>
</g>
<!-- flag -->
<g id="node5" class="node"><title>flag</title>
<g id="a_node5"><a xlink:href="usa_flag_full.html" xlink:title="Flag">
<polygon fill="none" stroke="red" points="1275.82,-325.202 1242.94,-337.64 1210.06,-325.202 1210.1,-305.077 1275.79,-305.077 1275.82,-325.202"/>
<text text-anchor="middle" x="1242.94" y="-315.94" font-family="Times,serif" font-size="14.00" fill="#ebc72d">Flag</text>
</a>
</g>
</g>
<!-- white_house -->
<g id="node6" class="node"><title>white_house</title>
<g id="a_node6"><a xlink:href="usa_white_house_full.html" xlink:title="White\nHouse">
<polygon fill="none" stroke="red" points="546.592,-329.969 501.941,-353.067 457.29,-329.969 457.331,-292.596 546.551,-292.596 546.592,-329.969"/>
<text text-anchor="middle" x="501.941" y="-323.44" font-family="Times,serif" font-size="14.00" fill="#ebc72d">White</text>
<text text-anchor="middle" x="501.941" y="-308.44" font-family="Times,serif" font-size="14.00" fill="#ebc72d">House</text>
</a>
</g>
</g>
<!-- white_house&#45;&gt;president -->
<g id="edge45" class="edge"><title>white_house&#45;&gt;president</title>
<path fill="none" stroke="#ebc72d" d="M497.812,-292.32C494.406,-260.741 493.833,-207.879 520.941,-174.426 554.88,-132.546 616.358,-116.347 660.825,-110.1"/>
<polygon fill="#ebc72d" stroke="#ebc72d" points="661.41,-113.553 670.886,-108.813 660.522,-106.61 661.41,-113.553"/>
</g>
<!-- uncle_sam -->
<g id="node20" class="node"><title>uncle_sam</title>
<g id="a_node20"><a xlink:href="usa_uncle_sam_full.html" xlink:title="Uncle\nSam">
<ellipse fill="none" stroke="magenta" cx="278.941" cy="-212.426" rx="34.7971" ry="26.7407"/>
<text text-anchor="middle" x="278.941" y="-216.226" font-family="Times,serif" font-size="14.00" fill="#ebc72d">Uncle</text>
<text text-anchor="middle" x="278.941" y="-201.226" font-family="Times,serif" font-size="14.00" fill="#ebc72d">Sam</text>
</a>
</g>
</g>
<!-- white_house&#45;&gt;uncle_sam -->
<g id="edge46" class="edge"><title>white_house&#45;&gt;uncle_sam</title>
<path fill="none" stroke="#ebc72d" d="M457.03,-306.132C419.644,-294.661 365.797,-275.631 322.941,-250.426 317.871,-247.444 312.803,-243.874 308.005,-240.145"/>
<polygon fill="#ebc72d" stroke="#ebc72d" points="310.191,-237.411 300.233,-233.794 305.762,-242.832 310.191,-237.411"/>
</g>
<!-- freedom -->
<g id="node26" class="node"><title>freedom</title>
<g id="a_node26"><a xlink:href="usa_freedom_full.html" xlink:title="Freedom">
<polygon fill="none" stroke="green" points="123.823,-230.426 25.3825,-230.426 0.0588965,-194.426 98.4995,-194.426 123.823,-230.426"/>
<text text-anchor="middle" x="61.941" y="-208.726" font-family="Times,serif" font-size="14.00" fill="#ebc72d">Freedom</text>
</a>
</g>
</g>
<!-- white_house&#45;&gt;freedom -->
<g id="edge44" class="edge"><title>white_house&#45;&gt;freedom</title>
<path fill="none" stroke="#ebc72d" d="M457.255,-314.816C386.562,-307.797 245.32,-289.804 131.941,-250.426 120.693,-246.52 109.042,-241.02 98.5485,-235.454"/>
<polygon fill="#ebc72d" stroke="#ebc72d" points="100.116,-232.321 89.6645,-230.583 96.7503,-238.459 100.116,-232.321"/>
</g>
<!-- liberty_bell -->
<g id="node7" class="node"><title>liberty_bell</title>
<g id="a_node7"><a xlink:href="usa_liberty_bell_full.html" xlink:title="Liberty\nBell">
<polygon fill="none" stroke="red" points="1153.83,-329.969 1104.94,-353.067 1056.05,-329.969 1056.1,-292.596 1153.79,-292.596 1153.83,-329.969"/>
<text text-anchor="middle" x="1104.94" y="-323.44" font-family="Times,serif" font-size="14.00" fill="#ebc72d">Liberty</text>
<text text-anchor="middle" x="1104.94" y="-308.44" font-family="Times,serif" font-size="14.00" fill="#ebc72d">Bell</text>
</a>
</g>
</g>
<!-- free_vote -->
<g id="node21" class="node"><title>free_vote</title>
<g id="a_node21"><a xlink:href="usa_free_vote_full.html" xlink:title="Free\nVote">
<polygon fill="none" stroke="green" points="897.602,-250.426 826.556,-250.426 808.28,-174.426 879.326,-174.426 897.602,-250.426"/>
<text text-anchor="middle" x="852.941" y="-216.226" font-family="Times,serif" font-size="14.00" fill="#ebc72d">Free</text>
<text text-anchor="middle" x="852.941" y="-201.226" font-family="Times,serif" font-size="14.00" fill="#ebc72d">Vote</text>
</a>
</g>
</g>
<!-- liberty_bell&#45;&gt;free_vote -->
<g id="edge26" class="edge"><title>liberty_bell&#45;&gt;free_vote</title>
<path fill="none" stroke="#ebc72d" d="M1056.05,-298.229C1011.78,-279.745 946.875,-252.645 902.421,-234.085"/>
<polygon fill="#ebc72d" stroke="#ebc72d" points="903.559,-230.767 892.982,-230.144 900.862,-237.227 903.559,-230.767"/>
</g>
<!-- patriots -->
<g id="node27" class="node"><title>patriots</title>
<g id="a_node27"><a xlink:href="usa_patriots_full.html" xlink:title="Patriots">
<polygon fill="none" stroke="green" points="1237.98,-230.426 1150.42,-230.426 1127.9,-194.426 1215.46,-194.426 1237.98,-230.426"/>
<text text-anchor="middle" x="1182.94" y="-208.726" font-family="Times,serif" font-size="14.00" fill="#ebc72d">Patriots</text>
</a>
</g>
</g>
<!-- liberty_bell&#45;&gt;patriots -->
<g id="edge27" class="edge"><title>liberty_bell&#45;&gt;patriots</title>
<path fill="none" stroke="#ebc72d" d="M1124.42,-292.361C1136.53,-276.03 1152.02,-255.138 1164.02,-238.95"/>
<polygon fill="#ebc72d" stroke="#ebc72d" points="1167.14,-240.618 1170.28,-230.5 1161.52,-236.449 1167.14,-240.618"/>
</g>
<!-- statue_of_liberty -->
<g id="node8" class="node"><title>statue_of_liberty</title>
<g id="a_node8"><a xlink:href="usa_statue_of_liberty_full.html" xlink:title="Statue\nOf Liberty">
<polygon fill="none" stroke="red" points="971.798,-329.969 906.941,-353.067 842.084,-329.969 842.144,-292.596 971.738,-292.596 971.798,-329.969"/>
<text text-anchor="middle" x="906.941" y="-323.44" font-family="Times,serif" font-size="14.00" fill="#ebc72d">Statue</text>
<text text-anchor="middle" x="906.941" y="-308.44" font-family="Times,serif" font-size="14.00" fill="#ebc72d">Of Liberty</text>
</a>
</g>
</g>
<!-- nurse -->
<g id="node12" class="node"><title>nurse</title>
<g id="a_node12"><a xlink:href="usa_nurse_full.html" xlink:title="Nurse">
<ellipse fill="none" stroke="magenta" cx="806.941" cy="-105.213" rx="31.6951" ry="18"/>
<text text-anchor="middle" x="806.941" y="-101.513" font-family="Times,serif" font-size="14.00" fill="#ebc72d">Nurse</text>
</a>
</g>
</g>
<!-- statue_of_liberty&#45;&gt;nurse -->
<g id="edge37" class="edge"><title>statue_of_liberty&#45;&gt;nurse</title>
<path fill="none" stroke="#ebc72d" d="M842.886,-292.523C825.507,-282.13 808.789,-268.295 798.941,-250.426 778.694,-213.691 788.323,-163.389 797.429,-132.935"/>
<polygon fill="#ebc72d" stroke="#ebc72d" points="800.878,-133.636 800.578,-123.046 794.208,-131.512 800.878,-133.636"/>
</g>
<!-- black_guy -->
<g id="node14" class="node"><title>black_guy</title>
<g id="a_node14"><a xlink:href="usa_black_guy_full.html" xlink:title="Black\nGuy">
<ellipse fill="none" stroke="magenta" cx="938.941" cy="-559.723" rx="33.8824" ry="26.7407"/>
<text text-anchor="middle" x="938.941" y="-563.523" font-family="Times,serif" font-size="14.00" fill="#ebc72d">Black</text>
<text text-anchor="middle" x="938.941" y="-548.523" font-family="Times,serif" font-size="14.00" fill="#ebc72d">Guy</text>
</a>
</g>
</g>
<!-- machine_gun_man -->
<g id="node9" class="node"><title>machine_gun_man</title>
<g id="a_node9"><a xlink:href="usa_machine_gun_man_full.html" xlink:title="Machine\nGun Man">
<ellipse fill="none" stroke="magenta" cx="471.941" cy="-105.213" rx="48.5816" ry="26.7407"/>
<text text-anchor="middle" x="471.941" y="-109.013" font-family="Times,serif" font-size="14.00" fill="#ebc72d">Machine</text>
<text text-anchor="middle" x="471.941" y="-94.0132" font-family="Times,serif" font-size="14.00" fill="#ebc72d">Gun Man</text>
</a>
</g>
</g>
<!-- sniper -->
<g id="node10" class="node"><title>sniper</title>
<g id="a_node10"><a xlink:href="usa_sniper_full.html" xlink:title="Sniper">
<ellipse fill="none" stroke="magenta" cx="562.941" cy="-18" rx="33.5952" ry="18"/>
<text text-anchor="middle" x="562.941" y="-14.3" font-family="Times,serif" font-size="14.00" fill="#ebc72d">Sniper</text>
</a>
</g>
</g>
<!-- bank -->
<g id="node11" class="node"><title>bank</title>
<g id="a_node11"><a xlink:href="usa_bank_full.html" xlink:title="Bank">
<polygon fill="none" stroke="red" points="1007.25,-484.415 970.941,-496.853 934.637,-484.415 934.671,-464.291 1007.21,-464.291 1007.25,-484.415"/>
<text text-anchor="middle" x="970.941" y="-475.153" font-family="Times,serif" font-size="14.00" fill="#ebc72d">Bank</text>
</a>
</g>
</g>
<!-- citizen -->
<g id="node17" class="node"><title>citizen</title>
<g id="a_node17"><a xlink:href="usa_citizen_full.html" xlink:title="Citizen">
<ellipse fill="none" stroke="magenta" cx="970.941" cy="-406.853" rx="36.2938" ry="18"/>
<text text-anchor="middle" x="970.941" y="-403.153" font-family="Times,serif" font-size="14.00" fill="#ebc72d">Citizen</text>
</a>
</g>
</g>
<!-- bank&#45;&gt;citizen -->
<g id="edge1" class="edge"><title>bank&#45;&gt;citizen</title>
<path fill="none" stroke="#ebc72d" d="M970.941,-453.935C970.941,-447.816 970.941,-441.192 970.941,-434.927"/>
<polygon fill="#ebc72d" stroke="#ebc72d" points="967.441,-454.023 970.941,-464.023 974.441,-454.023 967.441,-454.023"/>
<polygon fill="#ebc72d" stroke="#ebc72d" points="974.441,-434.872 970.941,-424.872 967.441,-434.872 974.441,-434.872"/>
</g>
<!-- nurse&#45;&gt;sniper -->
<g id="edge29" class="edge"><title>nurse&#45;&gt;sniper</title>
<path fill="none" stroke="#ebc72d" stroke-dasharray="5,2" d="M791.679,-89.3622C784.634,-83.2146 775.862,-76.4878 766.941,-72 714.696,-45.7183 648.174,-31.5951 605.565,-24.6926"/>
<polygon fill="#ebc72d" stroke="#ebc72d" points="605.954,-21.2111 595.534,-23.1297 604.876,-28.1276 605.954,-21.2111"/>
</g>
<!-- black_guy&#45;&gt;pentagon -->
<g id="edge7" class="edge"><title>black_guy&#45;&gt;pentagon</title>
<path fill="none" stroke="#ebc72d" stroke-width="2" d="M741.941,-405.853C732.71,-387.732 733.392,-364.501 736.004,-346.873"/>
<polygon fill="#ebc72d" stroke="#ebc72d" stroke-width="2" points="739.505,-347.175 737.808,-336.717 732.613,-345.951 739.505,-347.175"/>
</g>
<!-- black_guy&#45;&gt;flag -->
<g id="edge3" class="edge"><title>black_guy&#45;&gt;flag</title>
<path fill="none" stroke="#ebc72d" stroke-width="2" d="M1303.94,-405.853C1295.26,-380.986 1276.89,-356.993 1262.57,-340.838"/>
<polygon fill="#ebc72d" stroke="#ebc72d" stroke-width="2" points="1264.85,-338.152 1255.52,-333.142 1259.69,-342.88 1264.85,-338.152"/>
</g>
<!-- black_guy&#45;&gt;white_house -->
<g id="edge9" class="edge"><title>black_guy&#45;&gt;white_house</title>
<path fill="none" stroke="#ebc72d" stroke-width="2" d="M909.124,-546.223C863.483,-525.265 777.824,-478.29 741.941,-407.853"/>
<path fill="none" stroke="#ebc72d" stroke-width="2" d="M741.941,-405.853C683.936,-352.011 645.82,-381.232 571.941,-352.853 562.672,-349.292 552.895,-345.089 543.682,-340.914"/>
<polygon fill="#ebc72d" stroke="#ebc72d" stroke-width="2" points="544.877,-337.612 534.33,-336.603 541.946,-343.968 544.877,-337.612"/>
</g>
<!-- black_guy&#45;&gt;liberty_bell -->
<g id="edge5" class="edge"><title>black_guy&#45;&gt;liberty_bell</title>
<path fill="none" stroke="#ebc72d" stroke-width="2" d="M973.205,-558.785C1074.03,-557.441 1359.23,-541.922 1303.94,-407.853"/>
<path fill="none" stroke="#ebc72d" stroke-width="2" d="M1303.94,-405.853C1298.66,-390.717 1212.01,-357.902 1154.81,-337.699"/>
<polygon fill="#ebc72d" stroke="#ebc72d" stroke-width="2" points="1155.79,-334.335 1145.2,-334.325 1153.48,-340.94 1155.79,-334.335"/>
</g>
<!-- black_guy&#45;&gt;statue_of_liberty -->
<g id="edge8" class="edge"><title>black_guy&#45;&gt;statue_of_liberty</title>
<path fill="none" stroke="#ebc72d" stroke-width="2" d="M930.891,-523.429C929.092,-514.769 927.312,-505.502 925.941,-496.853 918.682,-451.076 913.388,-398.161 910.259,-362.358"/>
<polygon fill="#ebc72d" stroke="#ebc72d" stroke-width="2" points="927.476,-524.195 932.99,-533.242 934.321,-522.731 927.476,-524.195"/>
<polygon fill="#ebc72d" stroke="#ebc72d" stroke-width="2" points="913.736,-361.943 909.396,-352.278 906.762,-362.541 913.736,-361.943"/>
</g>
<!-- black_guy&#45;&gt;bank -->
<g id="edge2" class="edge"><title>black_guy&#45;&gt;bank</title>
<path fill="none" stroke="#ebc72d" stroke-width="2" d="M949.066,-533.768C952.885,-524.356 957.222,-513.665 961.022,-504.3"/>
<polygon fill="#ebc72d" stroke="#ebc72d" stroke-width="2" points="964.368,-505.363 964.884,-494.78 957.882,-502.731 964.368,-505.363"/>
</g>
<!-- missile_launcher -->
<g id="node15" class="node"><title>missile_launcher</title>
<g id="a_node15"><a xlink:href="usa_missile_launcher_full.html" xlink:title="Missile\nLauncher">
<polygon fill="none" stroke="red" points="1299.31,-115.543 1239.94,-138.641 1180.57,-115.543 1180.63,-78.1695 1299.25,-78.1695 1299.31,-115.543"/>
<text text-anchor="middle" x="1239.94" y="-109.013" font-family="Times,serif" font-size="14.00" fill="#ebc72d">Missile</text>
<text text-anchor="middle" x="1239.94" y="-94.0132" font-family="Times,serif" font-size="14.00" fill="#ebc72d">Launcher</text>
</a>
</g>
</g>
<!-- black_guy&#45;&gt;missile_launcher -->
<g id="edge6" class="edge"><title>black_guy&#45;&gt;missile_launcher</title>
<path fill="none" stroke="#ebc72d" stroke-width="2" d="M1303.94,-318.64C1299.95,-272.049 1304.43,-260.185 1303.94,-213.426"/>
</g>
<!-- black_guy&#45;&gt;guard_tower -->
<g id="edge4" class="edge"><title>black_guy&#45;&gt;guard_tower</title>
<path fill="none" stroke="#ebc72d" stroke-width="2" d="M1303.94,-405.853C1291.46,-370.096 1307.26,-358.367 1303.94,-320.64"/>
<path fill="none" stroke="#ebc72d" stroke-width="2" d="M1303.94,-318.64C1300.92,-284.312 1272.69,-197.327 1246.94,-174.426 1217.29,-148.055 1111.55,-126.339 1045.3,-114.92"/>
<polygon fill="#ebc72d" stroke="#ebc72d" stroke-width="2" points="1045.87,-111.466 1035.42,-113.243 1044.7,-118.367 1045.87,-111.466"/>
</g>
<!-- gunner -->
<g id="node16" class="node"><title>gunner</title>
<g id="a_node16"><a xlink:href="usa_gunner_full.html" xlink:title="Gunner">
<ellipse fill="none" stroke="magenta" cx="617.941" cy="-319.64" rx="37.0935" ry="18"/>
<text text-anchor="middle" x="617.941" y="-315.94" font-family="Times,serif" font-size="14.00" fill="#ebc72d">Gunner</text>
</a>
</g>
</g>
<!-- gunner&#45;&gt;machine_gun_man -->
<g id="edge24" class="edge"><title>gunner&#45;&gt;machine_gun_man</title>
<path fill="none" stroke="#ebc72d" stroke-dasharray="5,2" d="M592.208,-306.415C570.377,-294.827 539.697,-275.475 520.941,-250.426 496.805,-218.193 484.045,-173.277 477.668,-142.173"/>
<polygon fill="#ebc72d" stroke="#ebc72d" points="481.073,-141.349 475.742,-132.193 474.2,-142.675 481.073,-141.349"/>
</g>
<!-- citizen&#45;&gt;pentagon -->
<g id="edge18" class="edge"><title>citizen&#45;&gt;pentagon</title>
<path fill="none" stroke="#ebc72d" stroke-width="2" d="M942.401,-395.233C901.295,-379.937 825.356,-351.679 779.665,-334.677"/>
<polygon fill="#ebc72d" stroke="#ebc72d" stroke-width="2" points="780.714,-331.333 770.121,-331.126 778.273,-337.894 780.714,-331.333"/>
</g>
<!-- citizen&#45;&gt;flag -->
<g id="edge13" class="edge"><title>citizen&#45;&gt;flag</title>
<path fill="none" stroke="#ebc72d" stroke-width="2" d="M1006.14,-401.656C1051.54,-395.336 1132.25,-380.996 1195.94,-352.853 1204.4,-349.117 1212.94,-343.817 1220.38,-338.592"/>
<polygon fill="#ebc72d" stroke="#ebc72d" stroke-width="2" points="1222.56,-341.336 1228.54,-332.591 1218.41,-335.697 1222.56,-341.336"/>
</g>
<!-- citizen&#45;&gt;white_house -->
<g id="edge20" class="edge"><title>citizen&#45;&gt;white_house</title>
<path fill="none" stroke="#ebc72d" stroke-width="2" d="M935.477,-402.514C851.043,-394.343 640.073,-372.568 571.941,-352.853 562.014,-349.98 551.704,-345.908 542.146,-341.622"/>
<polygon fill="#ebc72d" stroke="#ebc72d" stroke-width="2" points="543.423,-338.356 532.881,-337.301 540.464,-344.699 543.423,-338.356"/>
</g>
<!-- citizen&#45;&gt;liberty_bell -->
<g id="edge16" class="edge"><title>citizen&#45;&gt;liberty_bell</title>
<path fill="none" stroke="#ebc72d" stroke-width="2" d="M992.47,-392.162C1012.5,-379.424 1042.8,-360.158 1066.9,-344.829"/>
<polygon fill="#ebc72d" stroke="#ebc72d" stroke-width="2" points="1068.91,-347.699 1075.47,-339.38 1065.16,-341.792 1068.91,-347.699"/>
</g>
<!-- citizen&#45;&gt;statue_of_liberty -->
<g id="edge19" class="edge"><title>citizen&#45;&gt;statue_of_liberty</title>
<path fill="none" stroke="#ebc72d" stroke-width="2" d="M958.903,-389.825C951.43,-379.875 941.54,-366.706 932.394,-354.529"/>
<polygon fill="#ebc72d" stroke="#ebc72d" stroke-width="2" points="935.024,-352.203 926.22,-346.309 929.427,-356.407 935.024,-352.203"/>
</g>
<!-- citizen&#45;&gt;missile_launcher -->
<g id="edge17" class="edge"><title>citizen&#45;&gt;missile_launcher</title>
<path fill="none" stroke="#ebc72d" stroke-width="2" d="M1007.14,-404.001C1048.71,-400.174 1117.06,-388.483 1162.94,-352.853 1189.81,-331.993 1178.08,-311.614 1200.94,-286.426 1238.65,-244.875 1304.53,-269.533 1303.94,-213.426"/>
<path fill="none" stroke="#ebc72d" stroke-width="2" d="M1303.94,-211.426C1303.65,-183.617 1287.13,-156.904 1270.95,-137.354"/>
<polygon fill="#ebc72d" stroke="#ebc72d" stroke-width="2" points="1273.52,-134.968 1264.33,-129.696 1268.22,-139.549 1273.52,-134.968"/>
</g>
<!-- citizen&#45;&gt;gunner -->
<g id="edge15" class="edge"><title>citizen&#45;&gt;gunner</title>
<path fill="none" stroke="#ebc72d" stroke-dasharray="5,2" d="M934.99,-402.894C878.978,-397.498 768.057,-383.647 678.941,-352.853 668.753,-349.333 658.19,-344.306 648.773,-339.267"/>
<polygon fill="#ebc72d" stroke="#ebc72d" points="650.237,-336.077 639.796,-334.28 646.838,-342.196 650.237,-336.077"/>
</g>
<!-- citizen&#45;&gt;guard_tower -->
<g id="edge14" class="edge"><title>citizen&#45;&gt;guard_tower</title>
<path fill="none" stroke="#ebc72d" stroke-width="2" d="M980.095,-389.358C993.522,-365.692 1019.91,-321.131 1046.94,-286.426 1060.47,-269.065 1072.81,-270.877 1080.94,-250.426 1093.42,-219.038 1096.05,-204.636 1080.94,-174.426 1070.69,-153.939 1051.05,-138.012 1032.62,-126.719"/>
<polygon fill="#ebc72d" stroke="#ebc72d" stroke-width="2" points="1034.13,-123.545 1023.72,-121.547 1030.61,-129.598 1034.13,-123.545"/>
</g>
<!-- uncle_sam&#45;&gt;tank -->
<g id="edge43" class="edge"><title>uncle_sam&#45;&gt;tank</title>
<path fill="none" stroke="#ebc72d" d="M298.773,-190.135C315.36,-172.327 338.959,-146.991 355.881,-128.823"/>
<polygon fill="#ebc72d" stroke="#ebc72d" points="358.882,-130.736 363.137,-121.033 353.76,-125.965 358.882,-130.736"/>
</g>
<!-- uncle_sam&#45;&gt;combat_knifer -->
<g id="edge38" class="edge"><title>uncle_sam&#45;&gt;combat_knifer</title>
<path fill="none" stroke="#ebc72d" d="M271.921,-185.957C268.244,-172.616 263.682,-156.067 259.67,-141.509"/>
<polygon fill="#ebc72d" stroke="#ebc72d" points="263.028,-140.523 256.997,-131.813 256.28,-142.383 263.028,-140.523"/>
</g>
<!-- uncle_sam&#45;&gt;fighter_jet -->
<g id="edge39" class="edge"><title>uncle_sam&#45;&gt;fighter_jet</title>
<path fill="none" stroke="#ebc72d" d="M256.323,-191.669C249.791,-186.044 242.622,-179.947 235.941,-174.426 218.802,-160.265 199.424,-144.844 183.406,-132.253"/>
<polygon fill="#ebc72d" stroke="#ebc72d" points="185.395,-129.365 175.367,-125.948 181.076,-134.873 185.395,-129.365"/>
</g>
<!-- uncle_sam&#45;&gt;machine_gun_man -->
<g id="edge41" class="edge"><title>uncle_sam&#45;&gt;machine_gun_man</title>
<path fill="none" stroke="#ebc72d" d="M300.258,-191.102C307.144,-185.214 315.047,-179.117 322.941,-174.426 360.689,-151.999 375.285,-157.275 414.941,-138.426 420.01,-136.017 425.244,-133.339 430.391,-130.585"/>
<polygon fill="#ebc72d" stroke="#ebc72d" points="432.42,-133.464 439.506,-125.588 429.055,-127.326 432.42,-133.464"/>
</g>
<!-- uncle_sam&#45;&gt;sniper -->
<g id="edge42" class="edge"><title>uncle_sam&#45;&gt;sniper</title>
<path fill="none" stroke="#ebc72d" d="M286.766,-186.188C298.369,-150.334 320.726,-87.2917 338.941,-72 366.098,-49.2015 463.238,-32.5434 520.29,-24.4676"/>
<polygon fill="#ebc72d" stroke="#ebc72d" points="521.026,-27.8993 530.451,-23.06 520.065,-20.9655 521.026,-27.8993"/>
</g>
<!-- uncle_sam&#45;&gt;guard_tower -->
<g id="edge40" class="edge"><title>uncle_sam&#45;&gt;guard_tower</title>
<path fill="none" stroke="#ebc72d" stroke-dasharray="1,5" d="M299.05,-189.949C305.999,-183.862 314.242,-177.94 322.941,-174.426 431.373,-130.635 732.241,-155.413 847.941,-138.426 878.103,-133.998 911.359,-126.594 938.101,-120"/>
<polygon fill="#ebc72d" stroke="#ebc72d" points="939.159,-123.343 948.011,-117.52 937.46,-116.552 939.159,-123.343"/>
</g>
<!-- free_vote&#45;&gt;nurse -->
<g id="edge22" class="edge"><title>free_vote&#45;&gt;nurse</title>
<path fill="none" stroke="#ebc72d" stroke-dasharray="1,5" d="M836.723,-174.332C830.682,-160.514 823.955,-145.127 818.425,-132.479"/>
<polygon fill="#ebc72d" stroke="#ebc72d" points="821.495,-130.765 814.282,-123.005 815.081,-133.569 821.495,-130.765"/>
</g>
<!-- free_vote&#45;&gt;president -->
<g id="edge23" class="edge"><title>free_vote&#45;&gt;president</title>
<path fill="none" stroke="#ebc72d" stroke-dasharray="1,5" d="M808.961,-178.136C787.067,-161.564 761.25,-142.023 742.056,-127.494"/>
<polygon fill="#ebc72d" stroke="#ebc72d" points="744.09,-124.644 734.004,-121.4 739.865,-130.226 744.09,-124.644"/>
</g>
<!-- bullets&#45;&gt;tank -->
<g id="edge11" class="edge"><title>bullets&#45;&gt;tank</title>
<path fill="none" stroke="#ebc72d" stroke-dasharray="1,5" d="M382.785,-194.053C381.689,-177.582 380.026,-152.585 378.754,-133.463"/>
<polygon fill="#ebc72d" stroke="#ebc72d" points="382.232,-133.009 378.075,-123.264 375.247,-133.474 382.232,-133.009"/>
</g>
<!-- bullets&#45;&gt;machine_gun_man -->
<g id="edge10" class="edge"><title>bullets&#45;&gt;machine_gun_man</title>
<path fill="none" stroke="#ebc72d" stroke-dasharray="1,5" d="M398.472,-194.053C411.173,-178.868 429.935,-156.436 445.32,-138.042"/>
<polygon fill="#ebc72d" stroke="#ebc72d" points="448.386,-139.831 452.117,-129.915 443.016,-135.34 448.386,-139.831"/>
</g>
<!-- missiles&#45;&gt;missile_launcher -->
<g id="edge28" class="edge"><title>missiles&#45;&gt;missile_launcher</title>
<path fill="none" stroke="#ebc72d" stroke-dasharray="1,5" d="M1048.41,-194.987C1087.21,-177.003 1149.59,-148.089 1192.56,-128.173"/>
<polygon fill="#ebc72d" stroke="#ebc72d" points="1194.09,-131.323 1201.69,-123.942 1191.15,-124.972 1194.09,-131.323"/>
</g>
<!-- jet_fuel&#45;&gt;fighter_jet -->
<g id="edge25" class="edge"><title>jet_fuel&#45;&gt;fighter_jet</title>
<path fill="none" stroke="#ebc72d" stroke-dasharray="1,5" d="M171.954,-174.332C168.506,-163.662 164.755,-152.056 161.343,-141.498"/>
<polygon fill="#ebc72d" stroke="#ebc72d" points="164.602,-140.2 158.197,-131.761 157.942,-142.353 164.602,-140.2"/>
</g>
</g>
</svg>
