<?xml version="1.0" encoding="UTF-8" standalone="no"?>
<!DOCTYPE svg PUBLIC "-//W3C//DTD SVG 1.1//EN"
 "http://www.w3.org/Graphics/SVG/1.1/DTD/svg11.dtd">
<!-- Generated by graphviz version 2.38.0 (20140413.2041)
 -->
<!-- Title: test Pages: 1 -->
<svg width="969pt" height="675pt"
 viewBox="0.00 0.00 969.44 674.76" xmlns="http://www.w3.org/2000/svg" xmlns:xlink="http://www.w3.org/1999/xlink">
<g id="graph0" class="graph" transform="scale(1 1) rotate(0) translate(4 670.76)">
<title>test</title>
<polygon fill="#151515" stroke="none" points="-4,4 -4,-670.76 965.445,-670.76 965.445,4 -4,4"/>
<!-- tank -->
<g id="node1" class="node"><title>tank</title>
<g id="a_node1"><a xlink:href="usa_tank_full.html" xlink:title="Tank">
<ellipse fill="none" stroke="magenta" cx="28.5975" cy="-98.8701" rx="28.6953" ry="18"/>
<text text-anchor="middle" x="28.5975" y="-95.1701" font-family="Times,serif" font-size="14.00" fill="#ebc72d">Tank</text>
</a>
</g>
</g>
<!-- combat_knifer -->
<g id="node2" class="node"><title>combat_knifer</title>
<g id="a_node2"><a xlink:href="usa_combat_knifer_full.html" xlink:title="Combat\nKnifer">
<ellipse fill="none" stroke="magenta" cx="214.597" cy="-98.8701" rx="42.3529" ry="26.7407"/>
<text text-anchor="middle" x="214.597" y="-102.67" font-family="Times,serif" font-size="14.00" fill="#ebc72d">Combat</text>
<text text-anchor="middle" x="214.597" y="-87.6701" font-family="Times,serif" font-size="14.00" fill="#ebc72d">Knifer</text>
</a>
</g>
</g>
<!-- pentagon -->
<g id="node3" class="node"><title>pentagon</title>
<g id="a_node3"><a xlink:href="usa_pentagon_full.html" xlink:title="Pentagon">
<polygon fill="none" stroke="red" points="601.25,-302.942 547.597,-315.38 493.945,-302.942 493.995,-282.817 601.2,-282.817 601.25,-302.942"/>
<text text-anchor="middle" x="547.597" y="-293.68" font-family="Times,serif" font-size="14.00" fill="#ebc72d">Pentagon</text>
</a>
</g>
</g>
<!-- president -->
<g id="node13" class="node"><title>president</title>
<g id="a_node13"><a xlink:href="usa_president_full.html" xlink:title="President">
<ellipse fill="none" stroke="magenta" cx="273.597" cy="-194.953" rx="43.5923" ry="18"/>
<text text-anchor="middle" x="273.597" y="-191.253" font-family="Times,serif" font-size="14.00" fill="#ebc72d">President</text>
</a>
</g>
</g>
<!-- pentagon&#45;&gt;president -->
<g id="edge23" class="edge"><title>pentagon&#45;&gt;president</title>
<path fill="none" stroke="#ebc72d" stroke-dasharray="1,5" d="M523.193,-282.748C511.688,-276.622 497.649,-269.572 484.597,-264.167 428.666,-241.001 361.833,-220.557 318.596,-208.231"/>
<polygon fill="#ebc72d" stroke="#ebc72d" points="319.513,-204.853 308.938,-205.502 317.609,-211.59 319.513,-204.853"/>
</g>
<!-- missile_launcher -->
<g id="node15" class="node"><title>missile_launcher</title>
<g id="a_node15"><a xlink:href="usa_missile_launcher_full.html" xlink:title="Missile\nLauncher">
<polygon fill="none" stroke="red" points="688.966,-205.283 629.597,-228.381 570.229,-205.283 570.284,-167.91 688.91,-167.91 688.966,-205.283"/>
<text text-anchor="middle" x="629.597" y="-198.753" font-family="Times,serif" font-size="14.00" fill="#ebc72d">Missile</text>
<text text-anchor="middle" x="629.597" y="-183.753" font-family="Times,serif" font-size="14.00" fill="#ebc72d">Launcher</text>
</a>
</g>
</g>
<!-- pentagon&#45;&gt;missile_launcher -->
<g id="edge22" class="edge"><title>pentagon&#45;&gt;missile_launcher</title>
<path fill="none" stroke="#ebc72d" stroke-dasharray="1,5" d="M558.999,-282.416C570.295,-268.582 588.009,-246.887 602.867,-228.69"/>
<polygon fill="#ebc72d" stroke="#ebc72d" points="605.846,-230.576 609.459,-220.617 600.423,-226.149 605.846,-230.576"/>
</g>
<!-- fighter_jet -->
<g id="node4" class="node"><title>fighter_jet</title>
<g id="a_node4"><a xlink:href="usa_fighter_jet_full.html" xlink:title="Fighter\nJet">
<ellipse fill="none" stroke="magenta" cx="114.597" cy="-98.8701" rx="39.6962" ry="26.7407"/>
<text text-anchor="middle" x="114.597" y="-102.67" font-family="Times,serif" font-size="14.00" fill="#ebc72d">Fighter</text>
<text text-anchor="middle" x="114.597" y="-87.6701" font-family="Times,serif" font-size="14.00" fill="#ebc72d">Jet</text>
</a>
</g>
</g>
<!-- bomber -->
<g id="node18" class="node"><title>bomber</title>
<g id="a_node18"><a xlink:href="usa_bomber_full.html" xlink:title="Bomber">
<ellipse fill="none" stroke="magenta" cx="114.597" cy="-18" rx="39.7935" ry="18"/>
<text text-anchor="middle" x="114.597" y="-14.3" font-family="Times,serif" font-size="14.00" fill="#ebc72d">Bomber</text>
</a>
</g>
</g>
<!-- fighter_jet&#45;&gt;bomber -->
<g id="edge19" class="edge"><title>fighter_jet&#45;&gt;bomber</title>
<path fill="none" stroke="#ebc72d" stroke-dasharray="5,2" d="M114.597,-71.6075C114.597,-63.5064 114.597,-54.5675 114.597,-46.3924"/>
<polygon fill="#ebc72d" stroke="#ebc72d" points="118.098,-46.22 114.597,-36.22 111.098,-46.2201 118.098,-46.22"/>
</g>
<!-- flag -->
<g id="node5" class="node"><title>flag</title>
<g id="a_node5"><a xlink:href="usa_flag_full.html" xlink:title="Flag">
<polygon fill="none" stroke="red" points="475.474,-302.942 442.597,-315.38 409.721,-302.942 409.751,-282.817 475.443,-282.817 475.474,-302.942"/>
<text text-anchor="middle" x="442.597" y="-293.68" font-family="Times,serif" font-size="14.00" fill="#ebc72d">Flag</text>
</a>
</g>
</g>
<!-- white_house -->
<g id="node6" class="node"><title>white_house</title>
<g id="a_node6"><a xlink:href="usa_white_house_full.html" xlink:title="White\nHouse">
<polygon fill="none" stroke="red" points="391.249,-307.71 346.597,-330.808 301.946,-307.71 301.988,-270.336 391.207,-270.336 391.249,-307.71"/>
<text text-anchor="middle" x="346.597" y="-301.18" font-family="Times,serif" font-size="14.00" fill="#ebc72d">White</text>
<text text-anchor="middle" x="346.597" y="-286.18" font-family="Times,serif" font-size="14.00" fill="#ebc72d">House</text>
</a>
</g>
</g>
<!-- white_house&#45;&gt;president -->
<g id="edge34" class="edge"><title>white_house&#45;&gt;president</title>
<path fill="none" stroke="#ebc72d" d="M327.608,-270.256C316.519,-255.001 302.605,-235.859 291.676,-220.825"/>
<polygon fill="#ebc72d" stroke="#ebc72d" points="294.342,-218.539 285.631,-212.508 288.68,-222.654 294.342,-218.539"/>
</g>
<!-- uncle_sam -->
<g id="node20" class="node"><title>uncle_sam</title>
<g id="a_node20"><a xlink:href="usa_uncle_sam_full.html" xlink:title="Uncle\nSam">
<ellipse fill="none" stroke="magenta" cx="177.597" cy="-194.953" rx="34.7971" ry="26.7407"/>
<text text-anchor="middle" x="177.597" y="-198.753" font-family="Times,serif" font-size="14.00" fill="#ebc72d">Uncle</text>
<text text-anchor="middle" x="177.597" y="-183.753" font-family="Times,serif" font-size="14.00" fill="#ebc72d">Sam</text>
</a>
</g>
</g>
<!-- white_house&#45;&gt;uncle_sam -->
<g id="edge35" class="edge"><title>white_house&#45;&gt;uncle_sam</title>
<path fill="none" stroke="#ebc72d" d="M301.837,-271.9C297.033,-269.285 292.215,-266.668 287.597,-264.167 257.873,-248.067 249.094,-246.351 220.597,-228.167 216.971,-225.852 213.255,-223.326 209.6,-220.739"/>
<polygon fill="#ebc72d" stroke="#ebc72d" points="211.398,-217.719 201.252,-214.666 207.279,-223.38 211.398,-217.719"/>
</g>
<!-- liberty_bell -->
<g id="node7" class="node"><title>liberty_bell</title>
<g id="a_node7"><a xlink:href="usa_liberty_bell_full.html" xlink:title="Liberty\nBell">
<polygon fill="none" stroke="red" points="755.489,-307.71 706.597,-330.808 657.706,-307.71 657.751,-270.336 755.443,-270.336 755.489,-307.71"/>
<text text-anchor="middle" x="706.597" y="-301.18" font-family="Times,serif" font-size="14.00" fill="#ebc72d">Liberty</text>
<text text-anchor="middle" x="706.597" y="-286.18" font-family="Times,serif" font-size="14.00" fill="#ebc72d">Bell</text>
</a>
</g>
</g>
<!-- statue_of_liberty -->
<g id="node8" class="node"><title>statue_of_liberty</title>
<g id="a_node8"><a xlink:href="usa_statue_of_liberty_full.html" xlink:title="Statue\nOf Liberty">
<polygon fill="none" stroke="red" points="605.455,-643.876 540.597,-666.974 475.74,-643.876 475.801,-606.503 605.394,-606.503 605.455,-643.876"/>
<text text-anchor="middle" x="540.597" y="-637.346" font-family="Times,serif" font-size="14.00" fill="#ebc72d">Statue</text>
<text text-anchor="middle" x="540.597" y="-622.346" font-family="Times,serif" font-size="14.00" fill="#ebc72d">Of Liberty</text>
</a>
</g>
</g>
<!-- statue_of_liberty&#45;&gt;tank -->
<g id="edge28" class="edge"><title>statue_of_liberty&#45;&gt;tank</title>
<path fill="none" stroke="#ebc72d" stroke-dasharray="1,5" d="M508.484,-606.428C448.213,-555.046 320.042,-433.966 273.597,-298.38"/>
<path fill="none" stroke="#ebc72d" stroke-dasharray="1,5" d="M273.597,-296.38C237.159,-237.533 184.447,-275.125 133.597,-228.167 121.386,-216.89 125.428,-208.562 114.597,-195.953"/>
<path fill="none" stroke="#ebc72d" stroke-dasharray="1,5" d="M114.597,-193.953C93.023,-168.836 67.2896,-140.939 49.6288,-122.093"/>
<polygon fill="#ebc72d" stroke="#ebc72d" points="51.9891,-119.494 42.5898,-114.605 46.8887,-124.288 51.9891,-119.494"/>
</g>
<!-- statue_of_liberty&#45;&gt;fighter_jet -->
<g id="edge25" class="edge"><title>statue_of_liberty&#45;&gt;fighter_jet</title>
<path fill="none" stroke="#ebc72d" stroke-dasharray="1,5" d="M114.597,-193.953C101.003,-178.126 100.975,-154.67 104.359,-135.138"/>
<polygon fill="#ebc72d" stroke="#ebc72d" points="107.787,-135.845 106.386,-125.344 100.932,-134.427 107.787,-135.845"/>
</g>
<!-- nurse -->
<g id="node12" class="node"><title>nurse</title>
<g id="a_node12"><a xlink:href="usa_nurse_full.html" xlink:title="Nurse">
<ellipse fill="none" stroke="magenta" cx="929.597" cy="-456.593" rx="31.6951" ry="18"/>
<text text-anchor="middle" x="929.597" y="-452.893" font-family="Times,serif" font-size="14.00" fill="#ebc72d">Nurse</text>
</a>
</g>
</g>
<!-- statue_of_liberty&#45;&gt;nurse -->
<g id="edge26" class="edge"><title>statue_of_liberty&#45;&gt;nurse</title>
<path fill="none" stroke="#ebc72d" d="M598.835,-606.354C681.458,-569.194 830.01,-502.383 896.2,-472.614"/>
<polygon fill="#ebc72d" stroke="#ebc72d" points="897.666,-475.792 905.35,-468.498 894.794,-469.408 897.666,-475.792"/>
</g>
<!-- statue_of_liberty&#45;&gt;president -->
<g id="edge27" class="edge"><title>statue_of_liberty&#45;&gt;president</title>
<path fill="none" stroke="#ebc72d" stroke-dasharray="1,5" d="M273.597,-296.38C265.466,-272.642 266.477,-243.856 268.921,-223.199"/>
<polygon fill="#ebc72d" stroke="#ebc72d" points="272.4,-223.59 270.289,-213.207 265.465,-222.64 272.4,-223.59"/>
</g>
<!-- black_guy -->
<g id="node14" class="node"><title>black_guy</title>
<g id="a_node14"><a xlink:href="usa_black_guy_full.html" xlink:title="Black\nGuy">
<ellipse fill="none" stroke="magenta" cx="571.597" cy="-537.463" rx="33.8824" ry="26.7407"/>
<text text-anchor="middle" x="571.597" y="-541.263" font-family="Times,serif" font-size="14.00" fill="#ebc72d">Black</text>
<text text-anchor="middle" x="571.597" y="-526.263" font-family="Times,serif" font-size="14.00" fill="#ebc72d">Guy</text>
</a>
</g>
</g>
<!-- statue_of_liberty&#45;&gt;black_guy -->
<g id="edge24" class="edge"><title>statue_of_liberty&#45;&gt;black_guy</title>
<path fill="none" stroke="#ebc72d" d="M552.46,-596.545C554.982,-588.891 557.64,-580.824 560.146,-573.218"/>
<polygon fill="#ebc72d" stroke="#ebc72d" points="549.038,-595.746 549.233,-606.339 555.686,-597.936 549.038,-595.746"/>
<polygon fill="#ebc72d" stroke="#ebc72d" points="563.524,-574.151 563.329,-563.558 556.875,-571.96 563.524,-574.151"/>
</g>
<!-- machine_gun_man -->
<g id="node9" class="node"><title>machine_gun_man</title>
<g id="a_node9"><a xlink:href="usa_machine_gun_man_full.html" xlink:title="Machine\nGun Man">
<ellipse fill="none" stroke="magenta" cx="383.597" cy="-98.8701" rx="48.5816" ry="26.7407"/>
<text text-anchor="middle" x="383.597" y="-102.67" font-family="Times,serif" font-size="14.00" fill="#ebc72d">Machine</text>
<text text-anchor="middle" x="383.597" y="-87.6701" font-family="Times,serif" font-size="14.00" fill="#ebc72d">Gun Man</text>
</a>
</g>
</g>
<!-- sniper -->
<g id="node10" class="node"><title>sniper</title>
<g id="a_node10"><a xlink:href="usa_sniper_full.html" xlink:title="Sniper">
<ellipse fill="none" stroke="magenta" cx="706.597" cy="-98.8701" rx="33.5952" ry="18"/>
<text text-anchor="middle" x="706.597" y="-95.1701" font-family="Times,serif" font-size="14.00" fill="#ebc72d">Sniper</text>
</a>
</g>
</g>
<!-- bank -->
<g id="node11" class="node"><title>bank</title>
<g id="a_node11"><a xlink:href="usa_bank_full.html" xlink:title="Bank">
<polygon fill="none" stroke="red" points="647.902,-462.155 611.597,-474.593 575.293,-462.155 575.327,-442.031 647.868,-442.031 647.902,-462.155"/>
<text text-anchor="middle" x="611.597" y="-452.893" font-family="Times,serif" font-size="14.00" fill="#ebc72d">Bank</text>
</a>
</g>
</g>
<!-- citizen -->
<g id="node17" class="node"><title>citizen</title>
<g id="a_node17"><a xlink:href="usa_citizen_full.html" xlink:title="Citizen">
<ellipse fill="none" stroke="magenta" cx="611.597" cy="-384.593" rx="36.2938" ry="18"/>
<text text-anchor="middle" x="611.597" y="-380.893" font-family="Times,serif" font-size="14.00" fill="#ebc72d">Citizen</text>
</a>
</g>
</g>
<!-- bank&#45;&gt;citizen -->
<g id="edge1" class="edge"><title>bank&#45;&gt;citizen</title>
<path fill="none" stroke="#ebc72d" d="M611.597,-431.675C611.597,-425.556 611.597,-418.932 611.597,-412.667"/>
<polygon fill="#ebc72d" stroke="#ebc72d" points="608.098,-431.763 611.597,-441.763 615.098,-431.763 608.098,-431.763"/>
<polygon fill="#ebc72d" stroke="#ebc72d" points="615.098,-412.612 611.597,-402.612 608.098,-412.612 615.098,-412.612"/>
</g>
<!-- nurse&#45;&gt;sniper -->
<g id="edge21" class="edge"><title>nurse&#45;&gt;sniper</title>
<path fill="none" stroke="#ebc72d" stroke-dasharray="5,2" d="M930.122,-438.464C930.448,-403.365 927.311,-321.74 894.597,-264.167 856.513,-197.14 780.608,-143.947 737.814,-117.716"/>
<polygon fill="#ebc72d" stroke="#ebc72d" points="739.582,-114.695 729.21,-112.533 735.969,-120.691 739.582,-114.695"/>
</g>
<!-- black_guy&#45;&gt;pentagon -->
<g id="edge7" class="edge"><title>black_guy&#45;&gt;pentagon</title>
<path fill="none" stroke="#ebc72d" stroke-width="2" d="M568.983,-510.531C564.394,-465.008 554.937,-371.19 550.292,-325.11"/>
<polygon fill="#ebc72d" stroke="#ebc72d" stroke-width="2" points="553.758,-324.596 549.273,-314.997 546.793,-325.298 553.758,-324.596"/>
</g>
<!-- black_guy&#45;&gt;flag -->
<g id="edge3" class="edge"><title>black_guy&#45;&gt;flag</title>
<path fill="none" stroke="#ebc72d" stroke-width="2" d="M442.597,-383.593C437.674,-364.434 437.893,-342.043 439.227,-325.022"/>
<polygon fill="#ebc72d" stroke="#ebc72d" stroke-width="2" points="442.746,-324.989 440.221,-314.7 435.778,-324.318 442.746,-324.989"/>
</g>
<!-- black_guy&#45;&gt;white_house -->
<g id="edge9" class="edge"><title>black_guy&#45;&gt;white_house</title>
<path fill="none" stroke="#ebc72d" stroke-width="2" d="M546.663,-519.106C513.636,-494.177 457.781,-444.671 442.597,-385.593"/>
<path fill="none" stroke="#ebc72d" stroke-width="2" d="M442.597,-383.593C428.799,-358.322 404.477,-336.854 383.767,-321.788"/>
<polygon fill="#ebc72d" stroke="#ebc72d" stroke-width="2" points="385.642,-318.827 375.45,-315.932 381.612,-324.551 385.642,-318.827"/>
</g>
<!-- black_guy&#45;&gt;liberty_bell -->
<g id="edge5" class="edge"><title>black_guy&#45;&gt;liberty_bell</title>
<path fill="none" stroke="#ebc72d" stroke-width="2" d="M603.388,-527.941C683.898,-505.457 888.19,-442.354 869.597,-385.593"/>
<path fill="none" stroke="#ebc72d" stroke-width="2" d="M869.597,-383.593C873.393,-331.456 810.789,-355.066 764.597,-330.593 758.92,-327.585 752.963,-324.358 747.118,-321.151"/>
<polygon fill="#ebc72d" stroke="#ebc72d" stroke-width="2" points="748.527,-317.931 738.081,-316.162 745.144,-324.059 748.527,-317.931"/>
</g>
<!-- black_guy&#45;&gt;bank -->
<g id="edge2" class="edge"><title>black_guy&#45;&gt;bank</title>
<path fill="none" stroke="#ebc72d" stroke-width="2" d="M583.816,-512.371C588.779,-502.586 594.499,-491.308 599.454,-481.538"/>
<polygon fill="#ebc72d" stroke="#ebc72d" stroke-width="2" points="602.696,-482.883 604.097,-472.382 596.453,-479.717 602.696,-482.883"/>
</g>
<!-- black_guy&#45;&gt;missile_launcher -->
<g id="edge6" class="edge"><title>black_guy&#45;&gt;missile_launcher</title>
<path fill="none" stroke="#ebc72d" stroke-width="2" d="M869.597,-383.593C873.452,-330.638 904.669,-306.481 872.597,-264.167 851.588,-236.447 763.183,-216.874 699.053,-206.004"/>
<polygon fill="#ebc72d" stroke="#ebc72d" stroke-width="2" points="699.421,-202.518 688.983,-204.335 698.276,-209.423 699.421,-202.518"/>
</g>
<!-- guard_tower -->
<g id="node19" class="node"><title>guard_tower</title>
<g id="a_node19"><a xlink:href="usa_guard_tower_full.html" xlink:title="Guard\nTower">
<polygon fill="none" stroke="red" points="863.997,-307.71 818.597,-330.808 773.198,-307.71 773.24,-270.336 863.954,-270.336 863.997,-307.71"/>
<text text-anchor="middle" x="818.597" y="-301.18" font-family="Times,serif" font-size="14.00" fill="#ebc72d">Guard</text>
<text text-anchor="middle" x="818.597" y="-286.18" font-family="Times,serif" font-size="14.00" fill="#ebc72d">Tower</text>
</a>
</g>
</g>
<!-- black_guy&#45;&gt;guard_tower -->
<g id="edge4" class="edge"><title>black_guy&#45;&gt;guard_tower</title>
<path fill="none" stroke="#ebc72d" stroke-width="2" d="M869.597,-383.593C871.111,-362.8 859.816,-342.637 847.475,-327.149"/>
<polygon fill="#ebc72d" stroke="#ebc72d" stroke-width="2" points="850.124,-324.862 840.988,-319.498 844.785,-329.389 850.124,-324.862"/>
</g>
<!-- gunner -->
<g id="node16" class="node"><title>gunner</title>
<g id="a_node16"><a xlink:href="usa_gunner_full.html" xlink:title="Gunner">
<ellipse fill="none" stroke="magenta" cx="444.597" cy="-194.953" rx="37.0935" ry="18"/>
<text text-anchor="middle" x="444.597" y="-191.253" font-family="Times,serif" font-size="14.00" fill="#ebc72d">Gunner</text>
</a>
</g>
</g>
<!-- gunner&#45;&gt;machine_gun_man -->
<g id="edge20" class="edge"><title>gunner&#45;&gt;machine_gun_man</title>
<path fill="none" stroke="#ebc72d" stroke-dasharray="5,2" d="M433.972,-177.565C426.04,-165.331 414.93,-148.196 405.162,-133.13"/>
<polygon fill="#ebc72d" stroke="#ebc72d" points="407.977,-131.038 399.6,-124.551 402.103,-134.846 407.977,-131.038"/>
</g>
<!-- citizen&#45;&gt;pentagon -->
<g id="edge16" class="edge"><title>citizen&#45;&gt;pentagon</title>
<path fill="none" stroke="#ebc72d" stroke-width="2" d="M599.56,-367.565C589.692,-354.427 575.608,-335.674 564.591,-321.006"/>
<polygon fill="#ebc72d" stroke="#ebc72d" stroke-width="2" points="567.318,-318.809 558.514,-312.915 561.721,-323.013 567.318,-318.809"/>
</g>
<!-- citizen&#45;&gt;flag -->
<g id="edge11" class="edge"><title>citizen&#45;&gt;flag</title>
<path fill="none" stroke="#ebc72d" stroke-width="2" d="M582.344,-373.836C555.929,-364.463 516.439,-349.028 484.597,-330.593 477.708,-326.604 470.673,-321.627 464.378,-316.786"/>
<polygon fill="#ebc72d" stroke="#ebc72d" stroke-width="2" points="466.339,-313.873 456.338,-310.376 461.975,-319.346 466.339,-313.873"/>
</g>
<!-- citizen&#45;&gt;white_house -->
<g id="edge18" class="edge"><title>citizen&#45;&gt;white_house</title>
<path fill="none" stroke="#ebc72d" stroke-width="2" d="M577.374,-378.17C534.812,-370.715 460.46,-355.339 400.597,-330.593 394.705,-328.157 388.691,-325.156 382.917,-321.975"/>
<polygon fill="#ebc72d" stroke="#ebc72d" stroke-width="2" points="384.503,-318.849 374.093,-316.881 381.004,-324.912 384.503,-318.849"/>
</g>
<!-- citizen&#45;&gt;liberty_bell -->
<g id="edge14" class="edge"><title>citizen&#45;&gt;liberty_bell</title>
<path fill="none" stroke="#ebc72d" stroke-width="2" d="M628.582,-368.359C641.398,-356.863 659.354,-340.756 674.809,-326.893"/>
<polygon fill="#ebc72d" stroke="#ebc72d" stroke-width="2" points="677.516,-329.167 682.623,-319.884 672.842,-323.956 677.516,-329.167"/>
</g>
<!-- citizen&#45;&gt;statue_of_liberty -->
<g id="edge17" class="edge"><title>citizen&#45;&gt;statue_of_liberty</title>
<path fill="none" stroke="#ebc72d" stroke-width="2" d="M595.931,-401.171C575.117,-423.215 539.683,-465.837 528.597,-510.593 521.571,-538.962 525.541,-572.002 530.729,-596.531"/>
<polygon fill="#ebc72d" stroke="#ebc72d" stroke-width="2" points="527.363,-597.512 532.999,-606.484 534.188,-595.956 527.363,-597.512"/>
</g>
<!-- citizen&#45;&gt;missile_launcher -->
<g id="edge15" class="edge"><title>citizen&#45;&gt;missile_launcher</title>
<path fill="none" stroke="#ebc72d" stroke-width="2" d="M629.597,-296.38C624.411,-277.305 623.818,-255.427 624.768,-236.971"/>
<polygon fill="#ebc72d" stroke="#ebc72d" stroke-width="2" points="628.271,-237.044 625.458,-226.829 621.287,-236.568 628.271,-237.044"/>
</g>
<!-- citizen&#45;&gt;gunner -->
<g id="edge13" class="edge"><title>citizen&#45;&gt;gunner</title>
<path fill="none" stroke="#ebc72d" stroke-dasharray="5,2" d="M619.833,-366.803C627.219,-349.518 635.985,-321.871 629.597,-298.38"/>
<path fill="none" stroke="#ebc72d" stroke-dasharray="5,2" d="M629.597,-296.38C625.236,-280.34 623.161,-275.05 610.597,-264.167 575.08,-233.397 523.795,-215.207 487.65,-205.453"/>
<polygon fill="#ebc72d" stroke="#ebc72d" points="488.44,-202.043 477.882,-202.923 486.684,-208.819 488.44,-202.043"/>
</g>
<!-- citizen&#45;&gt;guard_tower -->
<g id="edge12" class="edge"><title>citizen&#45;&gt;guard_tower</title>
<path fill="none" stroke="#ebc72d" stroke-width="2" d="M642.511,-374.918C673.94,-365.632 723.694,-349.634 764.597,-330.593 770.113,-328.025 775.787,-325.049 781.288,-321.963"/>
<polygon fill="#ebc72d" stroke="#ebc72d" stroke-width="2" points="783.432,-324.766 790.325,-316.72 779.919,-318.711 783.432,-324.766"/>
</g>
<!-- uncle_sam&#45;&gt;tank -->
<g id="edge33" class="edge"><title>uncle_sam&#45;&gt;tank</title>
<path fill="none" stroke="#ebc72d" d="M151.853,-176.596C144.41,-171.696 136.234,-166.426 128.597,-161.74 101.11,-144.874 92.8404,-142.998 65.5975,-125.74 62.1937,-123.584 58.665,-121.251 55.1987,-118.898"/>
<polygon fill="#ebc72d" stroke="#ebc72d" points="57.0333,-115.911 46.8179,-113.101 53.0511,-121.668 57.0333,-115.911"/>
</g>
<!-- uncle_sam&#45;&gt;combat_knifer -->
<g id="edge29" class="edge"><title>uncle_sam&#45;&gt;combat_knifer</title>
<path fill="none" stroke="#ebc72d" d="M187.513,-168.741C191.619,-158.3 196.45,-146.016 200.886,-134.736"/>
<polygon fill="#ebc72d" stroke="#ebc72d" points="204.252,-135.739 204.655,-125.152 197.738,-133.177 204.252,-135.739"/>
</g>
<!-- uncle_sam&#45;&gt;fighter_jet -->
<g id="edge30" class="edge"><title>uncle_sam&#45;&gt;fighter_jet</title>
<path fill="none" stroke="#ebc72d" d="M162.024,-170.697C154.209,-159.025 144.617,-144.701 136.11,-131.997"/>
<polygon fill="#ebc72d" stroke="#ebc72d" points="138.901,-129.874 130.429,-123.513 133.085,-133.769 138.901,-129.874"/>
</g>
<!-- uncle_sam&#45;&gt;machine_gun_man -->
<g id="edge31" class="edge"><title>uncle_sam&#45;&gt;machine_gun_man</title>
<path fill="none" stroke="#ebc72d" d="M200.9,-174.647C207.075,-170.056 213.896,-165.426 220.597,-161.74 255.929,-142.307 298.629,-126.345 331.461,-115.504"/>
<polygon fill="#ebc72d" stroke="#ebc72d" points="332.883,-118.722 341.314,-112.305 330.722,-112.064 332.883,-118.722"/>
</g>
<!-- uncle_sam&#45;&gt;sniper -->
<g id="edge32" class="edge"><title>uncle_sam&#45;&gt;sniper</title>
<path fill="none" stroke="#ebc72d" d="M199.912,-173.852C206.209,-169.16 213.335,-164.681 220.597,-161.74 261.266,-145.27 552.121,-115.155 663.425,-104.091"/>
<polygon fill="#ebc72d" stroke="#ebc72d" points="664.015,-107.55 673.622,-103.081 663.325,-100.584 664.015,-107.55"/>
</g>
</g>
</svg>
