<?xml version="1.0" encoding="UTF-8" standalone="no"?>
<!DOCTYPE svg PUBLIC "-//W3C//DTD SVG 1.1//EN"
 "http://www.w3.org/Graphics/SVG/1.1/DTD/svg11.dtd">
<!-- Generated by graphviz version 2.38.0 (20140413.2041)
 -->
<!-- Title: test Pages: 1 -->
<svg width="400pt" height="351pt"
 viewBox="0.00 0.00 400.23 351.28" xmlns="http://www.w3.org/2000/svg" xmlns:xlink="http://www.w3.org/1999/xlink">
<g id="graph0" class="graph" transform="scale(1 1) rotate(0) translate(4 347.279)">
<title>test</title>
<polygon fill="#151515" stroke="none" points="-4,4 -4,-347.279 396.231,-347.279 396.231,4 -4,4"/>
<!-- pentagon -->
<g id="node1" class="node"><title>pentagon</title>
<g id="a_node1"><a xlink:href="usa_pentagon_full.html" xlink:title="Pentagon">
<polygon fill="none" stroke="red" points="107.479,-141.202 53.826,-153.64 0.173455,-141.202 0.223533,-121.077 107.428,-121.077 107.479,-141.202"/>
<text text-anchor="middle" x="53.826" y="-131.94" font-family="Times,serif" font-size="14.00" fill="#ebc72d">Pentagon</text>
</a>
</g>
</g>
<!-- missile_launcher -->
<g id="node7" class="node"><title>missile_launcher</title>
<g id="a_node7"><a xlink:href="usa_missile_launcher_full.html" xlink:title="Missile\nLauncher">
<polygon fill="none" stroke="red" points="347.194,-43.543 287.826,-66.641 228.458,-43.543 228.513,-6.16955 347.139,-6.16955 347.194,-43.543"/>
<text text-anchor="middle" x="287.826" y="-37.0132" font-family="Times,serif" font-size="14.00" fill="#ebc72d">Missile</text>
<text text-anchor="middle" x="287.826" y="-22.0132" font-family="Times,serif" font-size="14.00" fill="#ebc72d">Launcher</text>
</a>
</g>
</g>
<!-- pentagon&#45;&gt;missile_launcher -->
<g id="edge5" class="edge"><title>pentagon&#45;&gt;missile_launcher</title>
<path fill="none" stroke="#ebc72d" stroke-dasharray="1,5" d="M79.3095,-120.927C90.6732,-114.99 104.298,-108.113 116.826,-102.426 155.898,-84.6907 201.016,-66.7976 235.094,-53.7896"/>
<polygon fill="#ebc72d" stroke="#ebc72d" points="236.741,-56.908 244.847,-50.0851 234.256,-50.3642 236.741,-56.908"/>
</g>
<!-- guard_tower -->
<g id="node8" class="node"><title>guard_tower</title>
<g id="a_node8"><a xlink:href="usa_guard_tower_full.html" xlink:title="Guard\nTower">
<polygon fill="none" stroke="red" points="99.2254,-43.543 53.826,-66.641 8.4266,-43.543 8.46897,-6.16955 99.183,-6.16955 99.2254,-43.543"/>
<text text-anchor="middle" x="53.826" y="-37.0132" font-family="Times,serif" font-size="14.00" fill="#ebc72d">Guard</text>
<text text-anchor="middle" x="53.826" y="-22.0132" font-family="Times,serif" font-size="14.00" fill="#ebc72d">Tower</text>
</a>
</g>
</g>
<!-- pentagon&#45;&gt;guard_tower -->
<g id="edge4" class="edge"><title>pentagon&#45;&gt;guard_tower</title>
<path fill="none" stroke="#ebc72d" stroke-dasharray="1,5" d="M53.826,-120.676C53.826,-109.269 53.826,-92.5192 53.826,-76.7922"/>
<polygon fill="#ebc72d" stroke="#ebc72d" points="57.3261,-76.6714 53.826,-66.6715 50.3261,-76.6715 57.3261,-76.6714"/>
</g>
<!-- flag -->
<g id="node2" class="node"><title>flag</title>
<g id="a_node2"><a xlink:href="usa_flag_full.html" xlink:title="Flag">
<polygon fill="none" stroke="red" points="147.703,-243.628 114.826,-256.066 81.9493,-243.628 81.98,-223.504 147.672,-223.504 147.703,-243.628"/>
<text text-anchor="middle" x="114.826" y="-234.366" font-family="Times,serif" font-size="14.00" fill="#ebc72d">Flag</text>
</a>
</g>
</g>
<!-- white_house -->
<g id="node3" class="node"><title>white_house</title>
<g id="a_node3"><a xlink:href="usa_white_house_full.html" xlink:title="White\nHouse">
<polygon fill="none" stroke="red" points="255.477,-248.396 210.826,-271.494 166.175,-248.396 166.216,-211.022 255.436,-211.022 255.477,-248.396"/>
<text text-anchor="middle" x="210.826" y="-241.866" font-family="Times,serif" font-size="14.00" fill="#ebc72d">White</text>
<text text-anchor="middle" x="210.826" y="-226.866" font-family="Times,serif" font-size="14.00" fill="#ebc72d">House</text>
</a>
</g>
</g>
<!-- white_house&#45;&gt;pentagon -->
<g id="edge8" class="edge"><title>white_house&#45;&gt;pentagon</title>
<path fill="none" stroke="#ebc72d" stroke-dasharray="1,5" d="M169.986,-210.942C142.312,-193.24 106.454,-170.303 81.9436,-154.625"/>
<polygon fill="#ebc72d" stroke="#ebc72d" points="83.7732,-151.641 73.4632,-149.201 80.0013,-157.538 83.7732,-151.641"/>
</g>
<!-- liberty_bell -->
<g id="node4" class="node"><title>liberty_bell</title>
<g id="a_node4"><a xlink:href="usa_liberty_bell_full.html" xlink:title="Liberty\nBell">
<polygon fill="none" stroke="red" points="223.718,-145.969 174.826,-169.067 125.934,-145.969 125.98,-108.596 223.672,-108.596 223.718,-145.969"/>
<text text-anchor="middle" x="174.826" y="-139.44" font-family="Times,serif" font-size="14.00" fill="#ebc72d">Liberty</text>
<text text-anchor="middle" x="174.826" y="-124.44" font-family="Times,serif" font-size="14.00" fill="#ebc72d">Bell</text>
</a>
</g>
</g>
<!-- white_house&#45;&gt;liberty_bell -->
<g id="edge6" class="edge"><title>white_house&#45;&gt;liberty_bell</title>
<path fill="none" stroke="#ebc72d" stroke-dasharray="1,5" d="M201.461,-210.942C197.417,-199.661 192.611,-186.254 188.202,-173.955"/>
<polygon fill="#ebc72d" stroke="#ebc72d" points="191.443,-172.622 184.774,-164.39 184.854,-174.985 191.443,-172.622"/>
</g>
<!-- statue_of_liberty -->
<g id="node5" class="node"><title>statue_of_liberty</title>
<g id="a_node5"><a xlink:href="usa_statue_of_liberty_full.html" xlink:title="Statue\nOf Liberty">
<polygon fill="none" stroke="red" points="371.683,-145.969 306.826,-169.067 241.969,-145.969 242.029,-108.596 371.623,-108.596 371.683,-145.969"/>
<text text-anchor="middle" x="306.826" y="-139.44" font-family="Times,serif" font-size="14.00" fill="#ebc72d">Statue</text>
<text text-anchor="middle" x="306.826" y="-124.44" font-family="Times,serif" font-size="14.00" fill="#ebc72d">Of Liberty</text>
</a>
</g>
</g>
<!-- white_house&#45;&gt;statue_of_liberty -->
<g id="edge9" class="edge"><title>white_house&#45;&gt;statue_of_liberty</title>
<path fill="none" stroke="#ebc72d" stroke-dasharray="1,5" d="M235.798,-210.942C248.267,-197.899 263.453,-182.013 276.577,-168.283"/>
<polygon fill="#ebc72d" stroke="#ebc72d" points="279.246,-170.556 283.626,-160.909 274.186,-165.719 279.246,-170.556"/>
</g>
<!-- white_house&#45;&gt;missile_launcher -->
<g id="edge7" class="edge"><title>white_house&#45;&gt;missile_launcher</title>
<path fill="none" stroke="#ebc72d" stroke-dasharray="1,5" d="M255.659,-232.784C295.987,-226.289 353.035,-209.948 380.826,-168.853 397.364,-144.397 394.17,-128.762 380.826,-102.426 371.026,-83.0858 352.879,-67.9026 335.198,-56.8199"/>
<polygon fill="#ebc72d" stroke="#ebc72d" points="336.979,-53.8072 326.594,-51.7085 333.404,-59.8252 336.979,-53.8072"/>
</g>
<!-- bank -->
<g id="node6" class="node"><title>bank</title>
<g id="a_node6"><a xlink:href="usa_bank_full.html" xlink:title="Bank">
<polygon fill="none" stroke="red" points="151.13,-330.842 114.826,-343.279 78.5218,-330.842 78.5557,-310.717 151.096,-310.717 151.13,-330.842"/>
<text text-anchor="middle" x="114.826" y="-321.579" font-family="Times,serif" font-size="14.00" fill="#ebc72d">Bank</text>
</a>
</g>
</g>
<!-- bank&#45;&gt;pentagon -->
<g id="edge2" class="edge"><title>bank&#45;&gt;pentagon</title>
<path fill="none" stroke="#ebc72d" stroke-dasharray="1,5" d="M100.352,-310.369C90.9178,-300.407 79.212,-286.169 72.826,-271.279 57.7936,-236.229 54.1675,-191.797 53.5379,-163.783"/>
<polygon fill="#ebc72d" stroke="#ebc72d" points="57.0353,-163.516 53.426,-153.555 50.0357,-163.593 57.0353,-163.516"/>
</g>
<!-- bank&#45;&gt;flag -->
<g id="edge1" class="edge"><title>bank&#45;&gt;flag</title>
<path fill="none" stroke="#ebc72d" stroke-dasharray="1,5" d="M114.826,-310.588C114.826,-298.701 114.826,-281.128 114.826,-266.376"/>
<polygon fill="#ebc72d" stroke="#ebc72d" points="118.326,-266.254 114.826,-256.254 111.326,-266.254 118.326,-266.254"/>
</g>
<!-- bank&#45;&gt;white_house -->
<g id="edge3" class="edge"><title>bank&#45;&gt;white_house</title>
<path fill="none" stroke="#ebc72d" stroke-dasharray="1,5" d="M130.25,-310.588C143.55,-298.783 163.168,-281.369 179.717,-266.68"/>
<polygon fill="#ebc72d" stroke="#ebc72d" points="182.397,-268.98 187.553,-259.724 177.75,-263.745 182.397,-268.98"/>
</g>
</g>
</svg>
