<?xml version="1.0" encoding="UTF-8" standalone="no"?>
<!DOCTYPE svg PUBLIC "-//W3C//DTD SVG 1.1//EN"
 "http://www.w3.org/Graphics/SVG/1.1/DTD/svg11.dtd">
<!-- Generated by graphviz version 2.38.0 (20140413.2041)
 -->
<!-- Title: test Pages: 1 -->
<svg width="1375pt" height="644pt"
 viewBox="0.00 0.00 1374.64 644.17" xmlns="http://www.w3.org/2000/svg" xmlns:xlink="http://www.w3.org/1999/xlink">
<g id="graph0" class="graph" transform="scale(1 1) rotate(0) translate(4 640.167)">
<title>test</title>
<polygon fill="#151515" stroke="none" points="-4,4 -4,-640.167 1370.64,-640.167 1370.64,4 -4,4"/>
<!-- blacksmith -->
<g id="node1" class="node"><title>blacksmith</title>
<g id="a_node1"><a xlink:href="greece_blacksmith_full.html" xlink:title="Blacksmith">
<polygon fill="none" stroke="red" points="519.318,-449.302 455.885,-461.74 392.452,-449.302 392.511,-429.178 519.259,-429.178 519.318,-449.302"/>
<text text-anchor="middle" x="455.885" y="-440.04" font-family="Times,serif" font-size="14.00" fill="#ebc72d">Blacksmith</text>
</a>
</g>
</g>
<!-- palace -->
<g id="node5" class="node"><title>palace</title>
<g id="a_node5"><a xlink:href="greece_palace_full.html" xlink:title="Palace">
<polygon fill="none" stroke="red" points="354.437,-245.302 312.885,-257.74 271.333,-245.302 271.372,-225.178 354.398,-225.178 354.437,-245.302"/>
<text text-anchor="middle" x="312.885" y="-236.04" font-family="Times,serif" font-size="14.00" fill="#ebc72d">Palace</text>
</a>
</g>
</g>
<!-- blacksmith&#45;&gt;palace -->
<g id="edge26" class="edge"><title>blacksmith&#45;&gt;palace</title>
<path fill="none" stroke="#ebc72d" stroke-dasharray="1,5" d="M477.371,-429.117C490.006,-419.76 504.846,-406.093 511.885,-389.74 525.239,-358.714 532.757,-340.298 511.885,-313.74 470.055,-260.515 425.33,-306.152 363.885,-277.74 353.907,-273.126 343.903,-266.432 335.431,-260.003"/>
<polygon fill="#ebc72d" stroke="#ebc72d" points="337.542,-257.21 327.529,-253.749 333.198,-262.699 337.542,-257.21"/>
</g>
<!-- temple -->
<g id="node18" class="node"><title>temple</title>
<g id="a_node18"><a xlink:href="greece_temple_full.html" xlink:title="Temple">
<polygon fill="none" stroke="red" points="503.183,-357.302 455.885,-369.74 408.587,-357.302 408.631,-337.178 503.139,-337.178 503.183,-357.302"/>
<text text-anchor="middle" x="455.885" y="-348.04" font-family="Times,serif" font-size="14.00" fill="#ebc72d">Temple</text>
</a>
</g>
</g>
<!-- blacksmith&#45;&gt;temple -->
<g id="edge28" class="edge"><title>blacksmith&#45;&gt;temple</title>
<path fill="none" stroke="#ebc72d" stroke-dasharray="1,5" d="M455.885,-429.071C455.885,-416.082 455.885,-396.18 455.885,-379.954"/>
<polygon fill="#ebc72d" stroke="#ebc72d" points="459.385,-379.932 455.885,-369.932 452.385,-379.932 459.385,-379.932"/>
</g>
<!-- helmets -->
<g id="node26" class="node"><title>helmets</title>
<g id="a_node26"><a xlink:href="greece_helmets_full.html" xlink:title="Helmets">
<polygon fill="none" stroke="green" points="119.05,-369.74 24.932,-369.74 0.720472,-333.74 94.8381,-333.74 119.05,-369.74"/>
<text text-anchor="middle" x="59.885" y="-348.04" font-family="Times,serif" font-size="14.00" fill="#ebc72d">Helmets</text>
</a>
</g>
</g>
<!-- blacksmith&#45;&gt;helmets -->
<g id="edge25" class="edge"><title>blacksmith&#45;&gt;helmets</title>
<path fill="none" stroke="#ebc72d" d="M392.391,-438.849C325.171,-433.275 216.721,-420.095 127.885,-389.74 116.882,-385.98 105.55,-380.536 95.367,-374.975"/>
<polygon fill="#ebc72d" stroke="#ebc72d" points="96.8068,-371.768 86.3815,-369.88 93.3542,-377.857 96.8068,-371.768"/>
</g>
<!-- advanced_buildings -->
<g id="node27" class="node"><title>advanced_buildings</title>
<g id="a_node27"><a xlink:href="greece_advanced_buildings_full.html" xlink:title="Advanced\nBuildings">
<polygon fill="none" stroke="green" points="796.604,-389.74 679.334,-389.74 649.166,-313.74 766.437,-313.74 796.604,-389.74"/>
<text text-anchor="middle" x="722.885" y="-355.54" font-family="Times,serif" font-size="14.00" fill="#ebc72d">Advanced</text>
<text text-anchor="middle" x="722.885" y="-340.54" font-family="Times,serif" font-size="14.00" fill="#ebc72d">Buildings</text>
</a>
</g>
</g>
<!-- blacksmith&#45;&gt;advanced_buildings -->
<g id="edge24" class="edge"><title>blacksmith&#45;&gt;advanced_buildings</title>
<path fill="none" stroke="#ebc72d" stroke-dasharray="1,5" d="M496.147,-429.169C540.079,-414.36 610.918,-390.482 661.728,-373.355"/>
<polygon fill="#ebc72d" stroke="#ebc72d" points="662.931,-376.643 671.289,-370.132 660.695,-370.01 662.931,-376.643"/>
</g>
<!-- shields -->
<g id="node28" class="node"><title>shields</title>
<g id="a_node28"><a xlink:href="greece_shields_full.html" xlink:title="Shields">
<polygon fill="none" stroke="green" points="243.115,-369.74 158.438,-369.74 136.656,-333.74 221.332,-333.74 243.115,-369.74"/>
<text text-anchor="middle" x="189.885" y="-348.04" font-family="Times,serif" font-size="14.00" fill="#ebc72d">Shields</text>
</a>
</g>
</g>
<!-- blacksmith&#45;&gt;shields -->
<g id="edge27" class="edge"><title>blacksmith&#45;&gt;shields</title>
<path fill="none" stroke="#ebc72d" d="M392.331,-431.089C351.296,-422.395 297.291,-408.73 251.885,-389.74 242.344,-385.75 232.514,-380.489 223.572,-375.191"/>
<polygon fill="#ebc72d" stroke="#ebc72d" points="225.325,-372.16 214.969,-369.926 221.671,-378.131 225.325,-372.16"/>
</g>
<!-- weapons -->
<g id="node33" class="node"><title>weapons</title>
<g id="a_node33"><a xlink:href="greece_weapons_full.html" xlink:title="Weapons">
<polygon fill="none" stroke="green" points="390.485,-369.74 287.721,-369.74 261.285,-333.74 364.049,-333.74 390.485,-369.74"/>
<text text-anchor="middle" x="325.885" y="-348.04" font-family="Times,serif" font-size="14.00" fill="#ebc72d">Weapons</text>
</a>
</g>
</g>
<!-- blacksmith&#45;&gt;weapons -->
<g id="edge29" class="edge"><title>blacksmith&#45;&gt;weapons</title>
<path fill="none" stroke="#ebc72d" d="M436.141,-429.071C415.682,-414.907 383.347,-392.521 358.974,-375.648"/>
<polygon fill="#ebc72d" stroke="#ebc72d" points="360.932,-372.746 350.717,-369.932 356.947,-378.502 360.932,-372.746"/>
</g>
<!-- psiloi -->
<g id="node2" class="node"><title>psiloi</title>
<g id="a_node2"><a xlink:href="greece_psiloi_full.html" xlink:title="Psiloi">
<ellipse fill="none" stroke="magenta" cx="928.885" cy="-127.74" rx="30.5947" ry="18"/>
<text text-anchor="middle" x="928.885" y="-124.04" font-family="Times,serif" font-size="14.00" fill="#ebc72d">Psiloi</text>
</a>
</g>
</g>
<!-- air_box -->
<g id="node3" class="node"><title>air_box</title>
<g id="a_node3"><a xlink:href="greece_air_box_full.html" xlink:title="Air\nBox">
<polygon fill="none" stroke="red" points="495.06,-138.07 460.885,-161.168 426.71,-138.07 426.742,-100.696 495.028,-100.696 495.06,-138.07"/>
<text text-anchor="middle" x="460.885" y="-131.54" font-family="Times,serif" font-size="14.00" fill="#ebc72d">Air</text>
<text text-anchor="middle" x="460.885" y="-116.54" font-family="Times,serif" font-size="14.00" fill="#ebc72d">Box</text>
</a>
</g>
</g>
<!-- cavalry -->
<g id="node4" class="node"><title>cavalry</title>
<g id="a_node4"><a xlink:href="greece_cavalry_full.html" xlink:title="Cavalry">
<ellipse fill="none" stroke="magenta" cx="1305.89" cy="-127.74" rx="38.1938" ry="18"/>
<text text-anchor="middle" x="1305.89" y="-124.04" font-family="Times,serif" font-size="14.00" fill="#ebc72d">Cavalry</text>
</a>
</g>
</g>
<!-- palace&#45;&gt;air_box -->
<g id="edge40" class="edge"><title>palace&#45;&gt;air_box</title>
<path fill="none" stroke="#ebc72d" stroke-dasharray="1,5" d="M331.646,-225.135C356.163,-207.339 397.754,-177.091 412.885,-165.74 418.54,-161.498 424.533,-156.934 430.297,-152.509"/>
<polygon fill="#ebc72d" stroke="#ebc72d" points="432.726,-155.055 438.512,-146.179 428.454,-149.51 432.726,-155.055"/>
</g>
<!-- chariot -->
<g id="node6" class="node"><title>chariot</title>
<g id="a_node6"><a xlink:href="greece_chariot_full.html" xlink:title="Chariot">
<ellipse fill="none" stroke="magenta" cx="335.885" cy="-26.8701" rx="37.0935" ry="18"/>
<text text-anchor="middle" x="335.885" y="-23.1701" font-family="Times,serif" font-size="14.00" fill="#ebc72d">Chariot</text>
</a>
</g>
</g>
<!-- palace&#45;&gt;chariot -->
<g id="edge43" class="edge"><title>palace&#45;&gt;chariot</title>
<path fill="none" stroke="#ebc72d" d="M301.18,-225.05C290.136,-211.159 274.341,-188.515 267.885,-165.74 258.673,-133.243 254.227,-120.633 267.885,-89.7401 275.528,-72.4532 290.651,-57.9204 304.698,-47.2927"/>
<polygon fill="#ebc72d" stroke="#ebc72d" points="307.132,-49.8552 313.229,-41.1905 303.059,-44.1618 307.132,-49.8552"/>
</g>
<!-- artemis -->
<g id="node8" class="node"><title>artemis</title>
<g id="a_node8"><a xlink:href="greece_artemis_full.html" xlink:title="Artemis">
<ellipse fill="none" stroke="magenta" cx="180.885" cy="-127.74" rx="39.7935" ry="18"/>
<text text-anchor="middle" x="180.885" y="-124.04" font-family="Times,serif" font-size="14.00" fill="#ebc72d">Artemis</text>
</a>
</g>
</g>
<!-- palace&#45;&gt;artemis -->
<g id="edge42" class="edge"><title>palace&#45;&gt;artemis</title>
<path fill="none" stroke="#ebc72d" d="M296.434,-225.031C274.012,-206.346 233.609,-172.677 207.017,-150.516"/>
<polygon fill="#ebc72d" stroke="#ebc72d" points="209.165,-147.751 199.242,-144.038 204.684,-153.129 209.165,-147.751"/>
</g>
<!-- dragon -->
<g id="node11" class="node"><title>dragon</title>
<g id="a_node11"><a xlink:href="greece_dragon_full.html" xlink:title="Dragon">
<ellipse fill="none" stroke="magenta" cx="85.885" cy="-127.74" rx="37.0935" ry="18"/>
<text text-anchor="middle" x="85.885" y="-124.04" font-family="Times,serif" font-size="14.00" fill="#ebc72d">Dragon</text>
</a>
</g>
</g>
<!-- palace&#45;&gt;dragon -->
<g id="edge44" class="edge"><title>palace&#45;&gt;dragon</title>
<path fill="none" stroke="#ebc72d" stroke-dasharray="1,5" d="M294.583,-225.161C283.532,-217.456 268.914,-208.111 254.885,-201.74 203.023,-178.188 182.38,-192.097 131.885,-165.74 124.219,-161.739 116.609,-156.356 109.851,-150.936"/>
<polygon fill="#ebc72d" stroke="#ebc72d" points="111.709,-147.924 101.807,-144.154 107.196,-153.276 111.709,-147.924"/>
</g>
<!-- alexander -->
<g id="node13" class="node"><title>alexander</title>
<g id="a_node13"><a xlink:href="greece_alexander_full.html" xlink:title="Alexander">
<ellipse fill="none" stroke="magenta" cx="323.885" cy="-127.74" rx="47.3916" ry="18"/>
<text text-anchor="middle" x="323.885" y="-124.04" font-family="Times,serif" font-size="14.00" fill="#ebc72d">Alexander</text>
</a>
</g>
</g>
<!-- palace&#45;&gt;alexander -->
<g id="edge41" class="edge"><title>palace&#45;&gt;alexander</title>
<path fill="none" stroke="#ebc72d" d="M314.278,-224.809C316.007,-207.519 318.994,-177.651 321.179,-155.797"/>
<polygon fill="#ebc72d" stroke="#ebc72d" points="324.666,-156.102 322.179,-145.803 317.701,-155.405 324.666,-156.102"/>
</g>
<!-- oxybeles -->
<g id="node24" class="node"><title>oxybeles</title>
<g id="a_node24"><a xlink:href="greece_oxybeles_full.html" xlink:title="Oxybeles">
<ellipse fill="none" stroke="magenta" cx="522.885" cy="-26.8701" rx="44.393" ry="18"/>
<text text-anchor="middle" x="522.885" y="-23.1701" font-family="Times,serif" font-size="14.00" fill="#ebc72d">Oxybeles</text>
</a>
</g>
</g>
<!-- palace&#45;&gt;oxybeles -->
<g id="edge46" class="edge"><title>palace&#45;&gt;oxybeles</title>
<path fill="none" stroke="#ebc72d" stroke-dasharray="1,5" d="M327.771,-224.943C342.283,-210.971 364.371,-188.266 379.885,-165.74 401.305,-134.638 392.116,-117.347 417.885,-89.7401 436.121,-70.2038 461.923,-54.8842 483.385,-44.3762"/>
<polygon fill="#ebc72d" stroke="#ebc72d" points="485.042,-47.4645 492.59,-40.0292 482.053,-41.1348 485.042,-47.4645"/>
</g>
<!-- onager -->
<g id="node25" class="node"><title>onager</title>
<g id="a_node25"><a xlink:href="greece_onager_full.html" xlink:title="Onager">
<ellipse fill="none" stroke="magenta" cx="663.885" cy="-127.74" rx="36.2938" ry="18"/>
<text text-anchor="middle" x="663.885" y="-124.04" font-family="Times,serif" font-size="14.00" fill="#ebc72d">Onager</text>
</a>
</g>
</g>
<!-- palace&#45;&gt;onager -->
<g id="edge45" class="edge"><title>palace&#45;&gt;onager</title>
<path fill="none" stroke="#ebc72d" stroke-dasharray="1,5" d="M327.768,-224.916C337.357,-216.82 350.498,-207.152 363.885,-201.74 469.59,-159.003 513.276,-211.093 617.885,-165.74 626.131,-162.165 634.124,-156.698 641.072,-151.055"/>
<polygon fill="#ebc72d" stroke="#ebc72d" points="643.429,-153.643 648.699,-144.452 638.847,-148.351 643.429,-153.643"/>
</g>
<!-- atlas -->
<g id="node7" class="node"><title>atlas</title>
<g id="a_node7"><a xlink:href="greece_atlas_full.html" xlink:title="Atlas">
<ellipse fill="none" stroke="magenta" cx="579.885" cy="-127.74" rx="29.4969" ry="18"/>
<text text-anchor="middle" x="579.885" y="-124.04" font-family="Times,serif" font-size="14.00" fill="#ebc72d">Atlas</text>
</a>
</g>
</g>
<!-- advanced_barracks -->
<g id="node9" class="node"><title>advanced_barracks</title>
<g id="a_node9"><a xlink:href="greece_advanced_barracks_full.html" xlink:title="Advanced\nBarracks">
<polygon fill="none" stroke="red" points="994.998,-250.07 932.885,-273.168 870.772,-250.07 870.83,-212.696 994.94,-212.696 994.998,-250.07"/>
<text text-anchor="middle" x="932.885" y="-243.54" font-family="Times,serif" font-size="14.00" fill="#ebc72d">Advanced</text>
<text text-anchor="middle" x="932.885" y="-228.54" font-family="Times,serif" font-size="14.00" fill="#ebc72d">Barracks</text>
</a>
</g>
</g>
<!-- advanced_barracks&#45;&gt;psiloi -->
<g id="edge8" class="edge"><title>advanced_barracks&#45;&gt;psiloi</title>
<path fill="none" stroke="#ebc72d" d="M931.937,-212.672C931.317,-195.625 930.509,-173.395 929.88,-156.096"/>
<polygon fill="#ebc72d" stroke="#ebc72d" points="933.376,-155.919 929.515,-146.052 926.38,-156.173 933.376,-155.919"/>
</g>
<!-- advanced_barracks&#45;&gt;cavalry -->
<g id="edge4" class="edge"><title>advanced_barracks&#45;&gt;cavalry</title>
<path fill="none" stroke="#ebc72d" d="M981.037,-212.554C990.092,-208.425 999.627,-204.587 1008.89,-201.74 1115.76,-168.875 1154.9,-209.299 1257.89,-165.74 1266.38,-162.146 1274.69,-156.673 1281.94,-151.03"/>
<polygon fill="#ebc72d" stroke="#ebc72d" points="1284.44,-153.502 1289.92,-144.43 1279.98,-148.109 1284.44,-153.502"/>
</g>
<!-- archer -->
<g id="node10" class="node"><title>archer</title>
<g id="a_node10"><a xlink:href="greece_archer_full.html" xlink:title="Archer">
<ellipse fill="none" stroke="magenta" cx="752.885" cy="-127.74" rx="35.194" ry="18"/>
<text text-anchor="middle" x="752.885" y="-124.04" font-family="Times,serif" font-size="14.00" fill="#ebc72d">Archer</text>
</a>
</g>
</g>
<!-- advanced_barracks&#45;&gt;archer -->
<g id="edge2" class="edge"><title>advanced_barracks&#45;&gt;archer</title>
<path fill="none" stroke="#ebc72d" d="M878.104,-212.608C852.687,-199.668 822.501,-183.112 796.885,-165.74 790.297,-161.273 783.544,-155.998 777.368,-150.852"/>
<polygon fill="#ebc72d" stroke="#ebc72d" points="779.244,-147.851 769.372,-144.004 774.69,-153.168 779.244,-147.851"/>
</g>
<!-- battering_ram -->
<g id="node14" class="node"><title>battering_ram</title>
<g id="a_node14"><a xlink:href="greece_battering_ram_full.html" xlink:title="Battering\nRam">
<ellipse fill="none" stroke="magenta" cx="1101.89" cy="-26.8701" rx="47.2526" ry="26.7407"/>
<text text-anchor="middle" x="1101.89" y="-30.6701" font-family="Times,serif" font-size="14.00" fill="#ebc72d">Battering</text>
<text text-anchor="middle" x="1101.89" y="-15.6701" font-family="Times,serif" font-size="14.00" fill="#ebc72d">Ram</text>
</a>
</g>
</g>
<!-- advanced_barracks&#45;&gt;battering_ram -->
<g id="edge3" class="edge"><title>advanced_barracks&#45;&gt;battering_ram</title>
<path fill="none" stroke="#ebc72d" d="M983.45,-212.629C991.839,-208.731 1000.53,-204.95 1008.89,-201.74 1062.85,-181.01 1099.12,-211.932 1133.89,-165.74 1156.78,-135.316 1140.23,-91.2041 1123.6,-61.1253"/>
<polygon fill="#ebc72d" stroke="#ebc72d" points="1126.52,-59.1762 1118.48,-52.2717 1120.46,-62.6805 1126.52,-59.1762"/>
</g>
<!-- peltast -->
<g id="node16" class="node"><title>peltast</title>
<g id="a_node16"><a xlink:href="greece_peltast_full.html" xlink:title="Peltast">
<ellipse fill="none" stroke="magenta" cx="1214.89" cy="-127.74" rx="34.394" ry="18"/>
<text text-anchor="middle" x="1214.89" y="-124.04" font-family="Times,serif" font-size="14.00" fill="#ebc72d">Peltast</text>
</a>
</g>
</g>
<!-- advanced_barracks&#45;&gt;peltast -->
<g id="edge7" class="edge"><title>advanced_barracks&#45;&gt;peltast</title>
<path fill="none" stroke="#ebc72d" d="M982.473,-212.595C991.133,-208.611 1000.16,-204.811 1008.89,-201.74 1076.82,-177.821 1101.73,-196.441 1166.89,-165.74 1175.23,-161.807 1183.49,-156.228 1190.75,-150.591"/>
<polygon fill="#ebc72d" stroke="#ebc72d" points="1193.22,-153.085 1198.74,-144.042 1188.79,-147.669 1193.22,-153.085"/>
</g>
<!-- hoplite -->
<g id="node19" class="node"><title>hoplite</title>
<g id="a_node19"><a xlink:href="greece_hoplite_full.html" xlink:title="Hoplite">
<ellipse fill="none" stroke="magenta" cx="842.885" cy="-127.74" rx="37.0935" ry="18"/>
<text text-anchor="middle" x="842.885" y="-124.04" font-family="Times,serif" font-size="14.00" fill="#ebc72d">Hoplite</text>
</a>
</g>
</g>
<!-- advanced_barracks&#45;&gt;hoplite -->
<g id="edge5" class="edge"><title>advanced_barracks&#45;&gt;hoplite</title>
<path fill="none" stroke="#ebc72d" d="M911.556,-212.672C896.726,-194.545 877.099,-170.557 862.628,-152.87"/>
<polygon fill="#ebc72d" stroke="#ebc72d" points="865.022,-150.269 855.981,-144.746 859.604,-154.702 865.022,-150.269"/>
</g>
<!-- advanced_barracks&#45;&gt;onager -->
<g id="edge6" class="edge"><title>advanced_barracks&#45;&gt;onager</title>
<path fill="none" stroke="#ebc72d" d="M882.846,-212.513C874.316,-208.585 865.445,-204.824 856.885,-201.74 793.197,-178.792 769.442,-195.998 708.885,-165.74 701.251,-161.926 693.761,-156.606 687.149,-151.189"/>
<polygon fill="#ebc72d" stroke="#ebc72d" points="689.147,-148.288 679.299,-144.379 684.56,-153.576 689.147,-148.288"/>
</g>
<!-- advanced_training -->
<g id="node31" class="node"><title>advanced_training</title>
<g id="a_node31"><a xlink:href="greece_advanced_training_full.html" xlink:title="Advanced\nTraining">
<polygon fill="none" stroke="green" points="1124.6,-165.74 1007.33,-165.74 977.166,-89.7401 1094.44,-89.7401 1124.6,-165.74"/>
<text text-anchor="middle" x="1050.89" y="-131.54" font-family="Times,serif" font-size="14.00" fill="#ebc72d">Advanced</text>
<text text-anchor="middle" x="1050.89" y="-116.54" font-family="Times,serif" font-size="14.00" fill="#ebc72d">Training</text>
</a>
</g>
</g>
<!-- advanced_barracks&#45;&gt;advanced_training -->
<g id="edge1" class="edge"><title>advanced_barracks&#45;&gt;advanced_training</title>
<path fill="none" stroke="#ebc72d" d="M960.849,-212.672C973.617,-200.769 989.096,-186.34 1003.59,-172.826"/>
<polygon fill="#ebc72d" stroke="#ebc72d" points="1006.14,-175.24 1011.06,-165.861 1001.36,-170.12 1006.14,-175.24"/>
</g>
<!-- barley_field -->
<g id="node12" class="node"><title>barley_field</title>
<g id="a_node12"><a xlink:href="greece_barley_field_full.html" xlink:title="Barley\nField">
<polygon fill="none" stroke="red" points="1056.03,-541.283 1009.89,-564.381 963.737,-541.283 963.78,-503.91 1055.99,-503.91 1056.03,-541.283"/>
<text text-anchor="middle" x="1009.89" y="-534.753" font-family="Times,serif" font-size="14.00" fill="#ebc72d">Barley</text>
<text text-anchor="middle" x="1009.89" y="-519.753" font-family="Times,serif" font-size="14.00" fill="#ebc72d">Field</text>
</a>
</g>
</g>
<!-- barley_bales -->
<g id="node32" class="node"><title>barley_bales</title>
<g id="a_node32"><a xlink:href="greece_barley_bales_full.html" xlink:title="Barley\nBales">
<polygon fill="none" stroke="green" points="1360.78,-277.74 1273.45,-277.74 1250.99,-201.74 1338.32,-201.74 1360.78,-277.74"/>
<text text-anchor="middle" x="1305.89" y="-243.54" font-family="Times,serif" font-size="14.00" fill="#ebc72d">Barley</text>
<text text-anchor="middle" x="1305.89" y="-228.54" font-family="Times,serif" font-size="14.00" fill="#ebc72d">Bales</text>
</a>
</g>
</g>
<!-- barley_field&#45;&gt;barley_bales -->
<g id="edge16" class="edge"><title>barley_field&#45;&gt;barley_bales</title>
<path fill="none" stroke="#ebc72d" d="M1036.68,-503.777C1088.64,-453.003 1203.42,-340.86 1264.98,-280.709"/>
<polygon fill="#ebc72d" stroke="#ebc72d" points="1267.51,-283.131 1272.21,-273.639 1262.62,-278.125 1267.51,-283.131"/>
</g>
<!-- trojan_horse -->
<g id="node15" class="node"><title>trojan_horse</title>
<g id="a_node15"><a xlink:href="greece_trojan_horse_full.html" xlink:title="Trojan\nHorse">
<polygon fill="none" stroke="red" points="713.033,-250.07 666.885,-273.168 620.737,-250.07 620.78,-212.696 712.99,-212.696 713.033,-250.07"/>
<text text-anchor="middle" x="666.885" y="-243.54" font-family="Times,serif" font-size="14.00" fill="#ebc72d">Trojan</text>
<text text-anchor="middle" x="666.885" y="-228.54" font-family="Times,serif" font-size="14.00" fill="#ebc72d">Horse</text>
</a>
</g>
</g>
<!-- trojan_horse&#45;&gt;psiloi -->
<g id="edge61" class="edge"><title>trojan_horse&#45;&gt;psiloi</title>
<path fill="none" stroke="#ebc72d" d="M701.554,-212.575C708.068,-208.495 715.002,-204.669 721.885,-201.74 791.752,-172.015 821.517,-200.761 888.885,-165.74 895.925,-162.08 902.646,-156.847 908.501,-151.464"/>
<polygon fill="#ebc72d" stroke="#ebc72d" points="911.238,-153.68 915.897,-144.165 906.321,-148.698 911.238,-153.68"/>
</g>
<!-- trojan_horse&#45;&gt;atlas -->
<g id="edge59" class="edge"><title>trojan_horse&#45;&gt;atlas</title>
<path fill="none" stroke="#ebc72d" d="M646.267,-212.672C631.844,-194.436 612.73,-170.268 598.717,-152.551"/>
<polygon fill="#ebc72d" stroke="#ebc72d" points="601.239,-150.098 592.291,-144.426 595.749,-154.44 601.239,-150.098"/>
</g>
<!-- trojan_horse&#45;&gt;archer -->
<g id="edge58" class="edge"><title>trojan_horse&#45;&gt;archer</title>
<path fill="none" stroke="#ebc72d" d="M687.266,-212.672C701.437,-194.545 720.191,-170.557 734.02,-152.87"/>
<polygon fill="#ebc72d" stroke="#ebc72d" points="736.969,-154.78 740.371,-144.746 731.455,-150.468 736.969,-154.78"/>
</g>
<!-- trojan_horse&#45;&gt;hoplite -->
<g id="edge60" class="edge"><title>trojan_horse&#45;&gt;hoplite</title>
<path fill="none" stroke="#ebc72d" d="M704.299,-212.528C710.101,-208.768 716.092,-205.056 721.885,-201.74 753.975,-183.373 765.607,-185.457 796.885,-165.74 803.957,-161.282 811.191,-155.909 817.768,-150.657"/>
<polygon fill="#ebc72d" stroke="#ebc72d" points="820.184,-153.201 825.684,-144.146 815.737,-147.795 820.184,-153.201"/>
</g>
<!-- tower -->
<g id="node17" class="node"><title>tower</title>
<g id="a_node17"><a xlink:href="greece_tower_full.html" xlink:title="Tower">
<polygon fill="none" stroke="red" points="814.437,-245.302 772.885,-257.74 731.333,-245.302 731.372,-225.178 814.398,-225.178 814.437,-245.302"/>
<text text-anchor="middle" x="772.885" y="-236.04" font-family="Times,serif" font-size="14.00" fill="#ebc72d">Tower</text>
</a>
</g>
</g>
<!-- temple&#45;&gt;chariot -->
<g id="edge54" class="edge"><title>temple&#45;&gt;chariot</title>
<path fill="none" stroke="#ebc72d" stroke-dasharray="1,5" d="M439.344,-336.881C428.74,-328.772 414.302,-319.102 399.885,-313.74 239.106,-253.938 105.85,-389.761 20.885,-240.74"/>
<path fill="none" stroke="#ebc72d" stroke-dasharray="1,5" d="M20.885,-238.74C-12.1809,-180.746 -5.41393,-138.778 39.885,-89.7401 73.0577,-53.8296 214.624,-37.4237 289.315,-31.1492"/>
<polygon fill="#ebc72d" stroke="#ebc72d" points="289.708,-34.6288 299.392,-30.33 289.141,-27.6518 289.708,-34.6288"/>
</g>
<!-- temple&#45;&gt;atlas -->
<g id="edge53" class="edge"><title>temple&#45;&gt;atlas</title>
<path fill="none" stroke="#ebc72d" d="M463.859,-337.061C472.365,-322.426 486.196,-298.51 497.885,-277.74 522.19,-234.553 549.871,-183.95 566.055,-154.218"/>
<polygon fill="#ebc72d" stroke="#ebc72d" points="569.184,-155.791 570.887,-145.334 563.034,-152.446 569.184,-155.791"/>
</g>
<!-- temple&#45;&gt;dragon -->
<g id="edge55" class="edge"><title>temple&#45;&gt;dragon</title>
<path fill="none" stroke="#ebc72d" d="M20.885,-238.74C3.13892,-207.615 33.6613,-171.977 58.6079,-149.911"/>
<polygon fill="#ebc72d" stroke="#ebc72d" points="61.0937,-152.392 66.4433,-143.247 56.5584,-147.06 61.0937,-152.392"/>
</g>
<!-- pandora -->
<g id="node30" class="node"><title>pandora</title>
<g id="a_node30"><a xlink:href="greece_pandora_full.html" xlink:title="Pandora">
<polygon fill="none" stroke="green" points="489.144,-257.74 396.467,-257.74 372.626,-221.74 465.303,-221.74 489.144,-257.74"/>
<text text-anchor="middle" x="430.885" y="-236.04" font-family="Times,serif" font-size="14.00" fill="#ebc72d">Pandora</text>
</a>
</g>
</g>
<!-- temple&#45;&gt;pandora -->
<g id="edge57" class="edge"><title>temple&#45;&gt;pandora</title>
<path fill="none" stroke="#ebc72d" d="M452.719,-336.809C448.789,-319.519 442.001,-289.651 437.034,-267.797"/>
<polygon fill="#ebc72d" stroke="#ebc72d" points="440.392,-266.779 434.763,-257.803 433.566,-268.33 440.392,-266.779"/>
</g>
<!-- golden_arrow -->
<g id="node34" class="node"><title>golden_arrow</title>
<g id="a_node34"><a xlink:href="greece_golden_arrow_full.html" xlink:title="Golden\nArrow">
<polygon fill="none" stroke="green" points="246.001,-277.74 153.551,-277.74 129.769,-201.74 222.219,-201.74 246.001,-277.74"/>
<text text-anchor="middle" x="187.885" y="-243.54" font-family="Times,serif" font-size="14.00" fill="#ebc72d">Golden</text>
<text text-anchor="middle" x="187.885" y="-228.54" font-family="Times,serif" font-size="14.00" fill="#ebc72d">Arrow</text>
</a>
</g>
</g>
<!-- temple&#45;&gt;golden_arrow -->
<g id="edge56" class="edge"><title>temple&#45;&gt;golden_arrow</title>
<path fill="none" stroke="#ebc72d" d="M438.596,-337.158C427.945,-329.355 413.72,-319.911 399.885,-313.74 341.996,-287.921 321.221,-300.035 261.885,-277.74 259.019,-276.663 256.118,-275.51 253.207,-274.299"/>
<polygon fill="#ebc72d" stroke="#ebc72d" points="254.473,-271.033 243.907,-270.263 251.687,-277.455 254.473,-271.033"/>
</g>
<!-- slave -->
<g id="node20" class="node"><title>slave</title>
<g id="a_node20"><a xlink:href="greece_slave_full.html" xlink:title="Slave">
<ellipse fill="none" stroke="magenta" cx="833.885" cy="-618.167" rx="30.5947" ry="18"/>
<text text-anchor="middle" x="833.885" y="-614.467" font-family="Times,serif" font-size="14.00" fill="#ebc72d">Slave</text>
</a>
</g>
</g>
<!-- slave&#45;&gt;blacksmith -->
<g id="edge50" class="edge"><title>slave&#45;&gt;blacksmith</title>
<path fill="none" stroke="#ebc72d" stroke-width="2" d="M807.537,-608.925C777.613,-599.292 727.535,-582.338 685.885,-564.167 612.696,-532.234 530.443,-487.178 486.87,-462.542"/>
<polygon fill="#ebc72d" stroke="#ebc72d" stroke-width="2" points="488.346,-459.356 477.922,-457.462 484.89,-465.443 488.346,-459.356"/>
</g>
<!-- slave&#45;&gt;barley_field -->
<g id="edge48" class="edge"><title>slave&#45;&gt;barley_field</title>
<path fill="none" stroke="#ebc72d" stroke-width="2" d="M857.369,-606.435C880.303,-595.889 916.141,-579.231 946.885,-564.167 954.021,-560.67 961.573,-556.884 968.875,-553.177"/>
<polygon fill="#ebc72d" stroke="#ebc72d" stroke-width="2" points="970.624,-556.215 977.942,-548.553 967.443,-549.979 970.624,-556.215"/>
</g>
<!-- slave&#45;&gt;tower -->
<g id="edge52" class="edge"><title>slave&#45;&gt;tower</title>
<path fill="none" stroke="#ebc72d" stroke-width="2" d="M851.386,-602.829C883.293,-574.846 946.451,-509.965 932.885,-444.74"/>
<path fill="none" stroke="#ebc72d" stroke-width="2" d="M932.885,-442.74C930.345,-406.915 895.593,-416.718 871.885,-389.74 836.367,-349.322 803.581,-295.368 786.097,-264.711"/>
<polygon fill="#ebc72d" stroke="#ebc72d" stroke-width="2" points="788.933,-262.615 780.973,-255.623 782.835,-266.053 788.933,-262.615"/>
</g>
<!-- barracks -->
<g id="node22" class="node"><title>barracks</title>
<g id="a_node22"><a xlink:href="greece_barracks_full.html" xlink:title="Barracks">
<polygon fill="none" stroke="red" points="985.324,-357.302 932.885,-369.74 880.446,-357.302 880.495,-337.178 985.276,-337.178 985.324,-357.302"/>
<text text-anchor="middle" x="932.885" y="-348.04" font-family="Times,serif" font-size="14.00" fill="#ebc72d">Barracks</text>
</a>
</g>
</g>
<!-- slave&#45;&gt;barracks -->
<g id="edge49" class="edge"><title>slave&#45;&gt;barracks</title>
<path fill="none" stroke="#ebc72d" stroke-width="2" d="M932.885,-442.74C928.544,-421.866 928.83,-397.675 930.045,-379.633"/>
<polygon fill="#ebc72d" stroke="#ebc72d" stroke-width="2" points="933.544,-379.786 930.863,-369.536 926.567,-379.22 933.544,-379.786"/>
</g>
<!-- castle -->
<g id="node23" class="node"><title>castle</title>
<g id="a_node23"><a xlink:href="greece_castle_full.html" xlink:title="Castle">
<polygon fill="none" stroke="red" points="775.223,-536.516 734.885,-548.953 694.547,-536.516 694.585,-516.391 775.185,-516.391 775.223,-536.516"/>
<text text-anchor="middle" x="734.885" y="-527.253" font-family="Times,serif" font-size="14.00" fill="#ebc72d">Castle</text>
</a>
</g>
</g>
<!-- slave&#45;&gt;castle -->
<g id="edge51" class="edge"><title>slave&#45;&gt;castle</title>
<path fill="none" stroke="#ebc72d" stroke-width="2" d="M809.478,-596.158C793.456,-582.368 772.667,-564.474 757.107,-551.081"/>
<polygon fill="#ebc72d" stroke="#ebc72d" stroke-width="2" points="807.229,-598.84 817.091,-602.711 811.795,-593.535 807.229,-598.84"/>
<polygon fill="#ebc72d" stroke="#ebc72d" stroke-width="2" points="759.362,-548.404 749.499,-544.533 754.795,-553.709 759.362,-548.404"/>
</g>
<!-- engineer -->
<g id="node21" class="node"><title>engineer</title>
<g id="a_node21"><a xlink:href="greece_engineer_full.html" xlink:title="Engineer">
<ellipse fill="none" stroke="magenta" cx="644.885" cy="-443.74" rx="42.4939" ry="18"/>
<text text-anchor="middle" x="644.885" y="-440.04" font-family="Times,serif" font-size="14.00" fill="#ebc72d">Engineer</text>
</a>
</g>
</g>
<!-- engineer&#45;&gt;air_box -->
<g id="edge33" class="edge"><title>engineer&#45;&gt;air_box</title>
<path fill="none" stroke="#ebc72d" stroke-width="2" d="M592.885,-350.74C566.026,-276.541 513.716,-199.447 483.64,-158.501"/>
<polygon fill="#ebc72d" stroke="#ebc72d" stroke-width="2" points="486.345,-156.274 477.576,-150.327 480.723,-160.444 486.345,-156.274"/>
</g>
<!-- engineer&#45;&gt;palace -->
<g id="edge35" class="edge"><title>engineer&#45;&gt;palace</title>
<path fill="none" stroke="#ebc72d" stroke-width="2" d="M633.025,-426.367C621.016,-408.967 602.835,-380.228 592.885,-352.74"/>
<path fill="none" stroke="#ebc72d" stroke-width="2" d="M592.885,-350.74C571.665,-292.119 412.226,-299.256 363.885,-277.74 353.691,-273.203 343.525,-266.408 334.981,-259.874"/>
<polygon fill="#ebc72d" stroke="#ebc72d" stroke-width="2" points="337.034,-257.034 327.038,-253.52 332.661,-262.5 337.034,-257.034"/>
</g>
<!-- engineer&#45;&gt;trojan_horse -->
<g id="edge38" class="edge"><title>engineer&#45;&gt;trojan_horse</title>
<path fill="none" stroke="#ebc72d" stroke-width="2" d="M592.885,-350.74C581.363,-318.908 607.507,-287.343 631.84,-266.246"/>
<polygon fill="#ebc72d" stroke="#ebc72d" stroke-width="2" points="634.172,-268.859 639.627,-259.777 629.698,-263.475 634.172,-268.859"/>
</g>
<!-- engineer&#45;&gt;tower -->
<g id="edge37" class="edge"><title>engineer&#45;&gt;tower</title>
<path fill="none" stroke="#ebc72d" stroke-width="2" d="M592.885,-350.74C583.267,-324.17 700.518,-289.993 721.885,-277.74 731.182,-272.409 740.832,-265.74 749.204,-259.537"/>
<polygon fill="#ebc72d" stroke="#ebc72d" stroke-width="2" points="751.548,-262.152 757.396,-253.317 747.315,-256.576 751.548,-262.152"/>
</g>
<!-- engineer&#45;&gt;temple -->
<g id="edge36" class="edge"><title>engineer&#45;&gt;temple</title>
<path fill="none" stroke="#ebc72d" stroke-width="2" d="M617.806,-429.845C583.606,-413.56 524.825,-385.568 488.281,-368.167"/>
<polygon fill="#ebc72d" stroke="#ebc72d" stroke-width="2" points="489.583,-364.91 479.05,-363.771 486.574,-371.23 489.583,-364.91"/>
</g>
<!-- engineer&#45;&gt;oxybeles -->
<g id="edge34" class="edge"><title>engineer&#45;&gt;oxybeles</title>
<path fill="none" stroke="#ebc72d" stroke-dasharray="5,2" d="M592.885,-350.74C585.977,-330.568 546.183,-186.625 541.885,-165.74 534.059,-127.716 528.573,-83.1125 525.571,-55.167"/>
<polygon fill="#ebc72d" stroke="#ebc72d" points="529.027,-54.556 524.508,-44.9732 522.064,-55.2824 529.027,-54.556"/>
</g>
<!-- engineer&#45;&gt;advanced_buildings -->
<g id="edge32" class="edge"><title>engineer&#45;&gt;advanced_buildings</title>
<path fill="none" stroke="#ebc72d" d="M658.83,-426.65C665.953,-418.431 675.009,-407.982 684.053,-397.546"/>
<polygon fill="#ebc72d" stroke="#ebc72d" points="686.704,-399.831 690.609,-389.982 681.414,-395.247 686.704,-399.831"/>
</g>
<!-- barracks&#45;&gt;psiloi -->
<g id="edge22" class="edge"><title>barracks&#45;&gt;psiloi</title>
<path fill="none" stroke="#ebc72d" d="M985.24,-347.199C1041.07,-341.029 1129.59,-324.112 1189.89,-277.74 1205.05,-266.077 1209.09,-259.667 1211.89,-240.74"/>
<path fill="none" stroke="#ebc72d" d="M1211.89,-238.74C1214.68,-219.813 1205.7,-212.504 1189.89,-201.74 1107.25,-145.502 1057.45,-210.109 967.885,-165.74 960.87,-162.265 954.266,-157.096 948.555,-151.715"/>
<polygon fill="#ebc72d" stroke="#ebc72d" points="950.869,-149.075 941.369,-144.386 945.871,-153.976 950.869,-149.075"/>
</g>
<!-- barracks&#45;&gt;cavalry -->
<g id="edge19" class="edge"><title>barracks&#45;&gt;cavalry</title>
<path fill="none" stroke="#ebc72d" d="M948.73,-337.112C964.161,-323.268 987.607,-300.658 1003.89,-277.74 1025.75,-246.951 1011.51,-224.176 1041.89,-201.74 1120.17,-143.92 1168.66,-204.617 1257.89,-165.74 1266.34,-162.055 1274.64,-156.553 1281.89,-150.911"/>
<polygon fill="#ebc72d" stroke="#ebc72d" points="1284.39,-153.39 1289.87,-144.325 1279.93,-147.991 1284.39,-153.39"/>
</g>
<!-- barracks&#45;&gt;advanced_barracks -->
<g id="edge17" class="edge"><title>barracks&#45;&gt;advanced_barracks</title>
<path fill="none" stroke="#ebc72d" stroke-dasharray="5,2" d="M932.885,-336.809C932.885,-323.283 932.885,-302.06 932.885,-282.998"/>
<polygon fill="#ebc72d" stroke="#ebc72d" points="936.385,-282.987 932.885,-272.987 929.385,-282.987 936.385,-282.987"/>
</g>
<!-- barracks&#45;&gt;archer -->
<g id="edge18" class="edge"><title>barracks&#45;&gt;archer</title>
<path fill="none" stroke="#ebc72d" d="M917.093,-337.074C901.702,-323.201 878.286,-300.57 861.885,-277.74 851.1,-262.727 852.222,-256.695 842.885,-240.74"/>
<path fill="none" stroke="#ebc72d" d="M842.885,-238.74C833.548,-222.785 834.67,-216.754 823.885,-201.74 810.482,-183.083 792.394,-164.559 777.829,-150.839"/>
<polygon fill="#ebc72d" stroke="#ebc72d" points="779.871,-147.96 770.152,-143.741 775.118,-153.1 779.871,-147.96"/>
</g>
<!-- barracks&#45;&gt;peltast -->
<g id="edge21" class="edge"><title>barracks&#45;&gt;peltast</title>
<path fill="none" stroke="#ebc72d" d="M1211.89,-238.74C1216.01,-210.804 1216.37,-178.456 1215.94,-156.104"/>
<polygon fill="#ebc72d" stroke="#ebc72d" points="1219.44,-155.904 1215.68,-145.998 1212.44,-156.085 1219.44,-155.904"/>
</g>
<!-- barracks&#45;&gt;hoplite -->
<g id="edge20" class="edge"><title>barracks&#45;&gt;hoplite</title>
<path fill="none" stroke="#ebc72d" d="M842.885,-238.74C828.163,-213.584 830.995,-179.325 835.683,-155.758"/>
<polygon fill="#ebc72d" stroke="#ebc72d" points="839.154,-156.276 837.911,-145.754 832.321,-154.754 839.154,-156.276"/>
</g>
<!-- training_field -->
<g id="node29" class="node"><title>training_field</title>
<g id="a_node29"><a xlink:href="greece_training_field_full.html" xlink:title="Training\nField">
<polygon fill="none" stroke="green" points="1181.02,-277.74 1077.41,-277.74 1050.75,-201.74 1154.36,-201.74 1181.02,-277.74"/>
<text text-anchor="middle" x="1115.89" y="-243.54" font-family="Times,serif" font-size="14.00" fill="#ebc72d">Training</text>
<text text-anchor="middle" x="1115.89" y="-228.54" font-family="Times,serif" font-size="14.00" fill="#ebc72d">Field</text>
</a>
</g>
</g>
<!-- barracks&#45;&gt;training_field -->
<g id="edge23" class="edge"><title>barracks&#45;&gt;training_field</title>
<path fill="none" stroke="#ebc72d" d="M955.692,-337.031C982.72,-320.784 1028.59,-293.21 1064.34,-271.722"/>
<polygon fill="#ebc72d" stroke="#ebc72d" points="1066.43,-274.553 1073.19,-266.401 1062.82,-268.553 1066.43,-274.553"/>
</g>
<!-- castle&#45;&gt;engineer -->
<g id="edge30" class="edge"><title>castle&#45;&gt;engineer</title>
<path fill="none" stroke="#ebc72d" d="M720.425,-516.262C706.59,-503.163 685.462,-483.159 669.065,-467.634"/>
<polygon fill="#ebc72d" stroke="#ebc72d" points="671.116,-464.756 661.448,-460.422 666.303,-469.839 671.116,-464.756"/>
</g>
<!-- advanced_buildings&#45;&gt;advanced_barracks -->
<g id="edge9" class="edge"><title>advanced_buildings&#45;&gt;advanced_barracks</title>
<path fill="none" stroke="#ebc72d" stroke-dasharray="1,5" d="M771.327,-325.366C806.353,-307.019 853.346,-282.403 887.618,-264.451"/>
<polygon fill="#ebc72d" stroke="#ebc72d" points="889.249,-267.548 896.483,-259.808 886.001,-261.347 889.249,-267.548"/>
</g>
<!-- advanced_buildings&#45;&gt;tower -->
<g id="edge10" class="edge"><title>advanced_buildings&#45;&gt;tower</title>
<path fill="none" stroke="#ebc72d" stroke-dasharray="1,5" d="M739.813,-313.499C747.087,-297.496 755.382,-279.247 761.845,-265.028"/>
<polygon fill="#ebc72d" stroke="#ebc72d" points="765.04,-266.457 765.992,-255.905 758.667,-263.561 765.04,-266.457"/>
</g>
<!-- pandora&#45;&gt;air_box -->
<g id="edge47" class="edge"><title>pandora&#45;&gt;air_box</title>
<path fill="none" stroke="#ebc72d" stroke-dasharray="1,5" d="M435.573,-221.553C439.596,-206.801 445.537,-185.017 450.653,-166.259"/>
<polygon fill="#ebc72d" stroke="#ebc72d" points="454.06,-167.066 453.315,-156.498 447.307,-165.224 454.06,-167.066"/>
</g>
<!-- advanced_training&#45;&gt;chariot -->
<g id="edge12" class="edge"><title>advanced_training&#45;&gt;chariot</title>
<path fill="none" stroke="#ebc72d" stroke-dasharray="1,5" d="M978.029,-92.3368C974.969,-91.3793 971.913,-90.5067 968.885,-89.7401 753.331,-35.172 690.323,-82.8661 469.885,-53.7401 439.195,-49.6851 404.927,-43.0305 378.727,-37.4861"/>
<polygon fill="#ebc72d" stroke="#ebc72d" points="379.26,-34.0207 368.748,-35.3456 377.791,-40.8651 379.26,-34.0207"/>
</g>
<!-- advanced_training&#45;&gt;battering_ram -->
<g id="edge11" class="edge"><title>advanced_training&#45;&gt;battering_ram</title>
<path fill="none" stroke="#ebc72d" stroke-dasharray="1,5" d="M1070.02,-89.6433C1074.72,-80.5337 1079.73,-70.8269 1084.35,-61.8713"/>
<polygon fill="#ebc72d" stroke="#ebc72d" points="1087.52,-63.3589 1088.99,-52.8671 1081.3,-60.1498 1087.52,-63.3589"/>
</g>
<!-- advanced_training&#45;&gt;oxybeles -->
<g id="edge13" class="edge"><title>advanced_training&#45;&gt;oxybeles</title>
<path fill="none" stroke="#ebc72d" stroke-dasharray="1,5" d="M977.96,-92.5897C974.919,-91.5623 971.886,-90.6059 968.885,-89.7401 831.17,-50.0122 661.938,-35.4546 576.979,-30.3916"/>
<polygon fill="#ebc72d" stroke="#ebc72d" points="576.981,-26.886 566.797,-29.8065 576.58,-33.8745 576.981,-26.886"/>
</g>
<!-- barley_bales&#45;&gt;cavalry -->
<g id="edge14" class="edge"><title>barley_bales&#45;&gt;cavalry</title>
<path fill="none" stroke="#ebc72d" stroke-dasharray="1,5" d="M1305.89,-201.499C1305.89,-186.647 1305.89,-169.859 1305.89,-156.154"/>
<polygon fill="#ebc72d" stroke="#ebc72d" points="1309.39,-155.92 1305.89,-145.92 1302.39,-155.92 1309.39,-155.92"/>
</g>
<!-- barley_bales&#45;&gt;chariot -->
<g id="edge15" class="edge"><title>barley_bales&#45;&gt;chariot</title>
<path fill="none" stroke="#ebc72d" stroke-dasharray="1,5" d="M1335.66,-201.625C1358.63,-168.293 1382,-120.068 1352.89,-89.7401 1318.88,-54.3237 518.653,-59.4094 469.885,-53.7401 439.031,-50.1534 404.637,-43.4558 378.419,-37.7742"/>
<polygon fill="#ebc72d" stroke="#ebc72d" points="378.958,-34.3088 368.439,-35.5749 377.451,-41.1449 378.958,-34.3088"/>
</g>
<!-- golden_arrow&#45;&gt;artemis -->
<g id="edge39" class="edge"><title>golden_arrow&#45;&gt;artemis</title>
<path fill="none" stroke="#ebc72d" stroke-dasharray="1,5" d="M185.515,-201.499C184.57,-186.647 183.502,-169.859 182.63,-156.154"/>
<polygon fill="#ebc72d" stroke="#ebc72d" points="186.106,-155.678 181.978,-145.92 179.121,-156.122 186.106,-155.678"/>
</g>
</g>
</svg>
