<?xml version="1.0" encoding="UTF-8" standalone="no"?>
<!DOCTYPE svg PUBLIC "-//W3C//DTD SVG 1.1//EN"
 "http://www.w3.org/Graphics/SVG/1.1/DTD/svg11.dtd">
<!-- Generated by graphviz version 2.38.0 (20140413.2041)
 -->
<!-- Title: test Pages: 1 -->
<svg width="1356pt" height="644pt"
 viewBox="0.00 0.00 1355.87 644.17" xmlns="http://www.w3.org/2000/svg" xmlns:xlink="http://www.w3.org/1999/xlink">
<g id="graph0" class="graph" transform="scale(1 1) rotate(0) translate(4 640.167)">
<title>test</title>
<polygon fill="#151515" stroke="none" points="-4,4 -4,-640.167 1351.87,-640.167 1351.87,4 -4,4"/>
<!-- blacksmith -->
<g id="node1" class="node"><title>blacksmith</title>
<g id="a_node1"><a xlink:href="greece_blacksmith_full.html" xlink:title="Blacksmith">
<polygon fill="none" stroke="red" points="762.354,-536.516 698.921,-548.953 635.488,-536.516 635.548,-516.391 762.295,-516.391 762.354,-536.516"/>
<text text-anchor="middle" x="698.921" y="-527.253" font-family="Times,serif" font-size="14.00" fill="#ebc72d">Blacksmith</text>
</a>
</g>
</g>
<!-- engineer -->
<g id="node21" class="node"><title>engineer</title>
<g id="a_node21"><a xlink:href="greece_engineer_full.html" xlink:title="Engineer">
<ellipse fill="none" stroke="magenta" cx="579.921" cy="-443.74" rx="42.4939" ry="18"/>
<text text-anchor="middle" x="579.921" y="-440.04" font-family="Times,serif" font-size="14.00" fill="#ebc72d">Engineer</text>
</a>
</g>
</g>
<!-- blacksmith&#45;&gt;engineer -->
<g id="edge23" class="edge"><title>blacksmith&#45;&gt;engineer</title>
<path fill="none" stroke="#ebc72d" d="M679.802,-516.262C660.662,-502.556 630.966,-481.292 608.923,-465.508"/>
<polygon fill="#ebc72d" stroke="#ebc72d" points="610.76,-462.518 600.592,-459.542 606.685,-468.21 610.76,-462.518"/>
</g>
<!-- helmets -->
<g id="node26" class="node"><title>helmets</title>
<g id="a_node26"><a xlink:href="greece_helmets_full.html" xlink:title="Helmets">
<polygon fill="none" stroke="green" points="758.086,-461.74 663.968,-461.74 639.757,-425.74 733.874,-425.74 758.086,-461.74"/>
<text text-anchor="middle" x="698.921" y="-440.04" font-family="Times,serif" font-size="14.00" fill="#ebc72d">Helmets</text>
</a>
</g>
</g>
<!-- blacksmith&#45;&gt;helmets -->
<g id="edge24" class="edge"><title>blacksmith&#45;&gt;helmets</title>
<path fill="none" stroke="#ebc72d" d="M698.921,-516.262C698.921,-504.375 698.921,-486.802 698.921,-472.05"/>
<polygon fill="#ebc72d" stroke="#ebc72d" points="702.422,-471.928 698.921,-461.928 695.422,-471.928 702.422,-471.928"/>
</g>
<!-- shields -->
<g id="node28" class="node"><title>shields</title>
<g id="a_node28"><a xlink:href="greece_shields_full.html" xlink:title="Shields">
<polygon fill="none" stroke="green" points="882.151,-461.74 797.475,-461.74 775.692,-425.74 860.368,-425.74 882.151,-461.74"/>
<text text-anchor="middle" x="828.921" y="-440.04" font-family="Times,serif" font-size="14.00" fill="#ebc72d">Shields</text>
</a>
</g>
</g>
<!-- blacksmith&#45;&gt;shields -->
<g id="edge25" class="edge"><title>blacksmith&#45;&gt;shields</title>
<path fill="none" stroke="#ebc72d" d="M719.808,-516.262C739.88,-503.106 770.578,-482.983 794.306,-467.43"/>
<polygon fill="#ebc72d" stroke="#ebc72d" points="796.255,-470.338 802.7,-461.928 792.417,-464.483 796.255,-470.338"/>
</g>
<!-- weapons -->
<g id="node33" class="node"><title>weapons</title>
<g id="a_node33"><a xlink:href="greece_weapons_full.html" xlink:title="Weapons">
<polygon fill="none" stroke="green" points="519.522,-461.74 416.757,-461.74 390.321,-425.74 493.086,-425.74 519.522,-461.74"/>
<text text-anchor="middle" x="454.921" y="-440.04" font-family="Times,serif" font-size="14.00" fill="#ebc72d">Weapons</text>
</a>
</g>
</g>
<!-- blacksmith&#45;&gt;weapons -->
<g id="edge26" class="edge"><title>blacksmith&#45;&gt;weapons</title>
<path fill="none" stroke="#ebc72d" d="M659.989,-516.357C620.504,-502.567 558.912,-481.057 513.527,-465.207"/>
<polygon fill="#ebc72d" stroke="#ebc72d" points="514.408,-461.808 503.813,-461.815 512.1,-468.416 514.408,-461.808"/>
</g>
<!-- psiloi -->
<g id="node2" class="node"><title>psiloi</title>
<g id="a_node2"><a xlink:href="greece_psiloi_full.html" xlink:title="Psiloi">
<ellipse fill="none" stroke="magenta" cx="852.921" cy="-127.74" rx="30.5947" ry="18"/>
<text text-anchor="middle" x="852.921" y="-124.04" font-family="Times,serif" font-size="14.00" fill="#ebc72d">Psiloi</text>
</a>
</g>
</g>
<!-- air_box -->
<g id="node3" class="node"><title>air_box</title>
<g id="a_node3"><a xlink:href="greece_air_box_full.html" xlink:title="Air\nBox">
<polygon fill="none" stroke="red" points="383.096,-138.07 348.921,-161.168 314.747,-138.07 314.779,-100.696 383.064,-100.696 383.096,-138.07"/>
<text text-anchor="middle" x="348.921" y="-131.54" font-family="Times,serif" font-size="14.00" fill="#ebc72d">Air</text>
<text text-anchor="middle" x="348.921" y="-116.54" font-family="Times,serif" font-size="14.00" fill="#ebc72d">Box</text>
</a>
</g>
</g>
<!-- cavalry -->
<g id="node4" class="node"><title>cavalry</title>
<g id="a_node4"><a xlink:href="greece_cavalry_full.html" xlink:title="Cavalry">
<ellipse fill="none" stroke="magenta" cx="1229.92" cy="-127.74" rx="38.1938" ry="18"/>
<text text-anchor="middle" x="1229.92" y="-124.04" font-family="Times,serif" font-size="14.00" fill="#ebc72d">Cavalry</text>
</a>
</g>
</g>
<!-- palace -->
<g id="node5" class="node"><title>palace</title>
<g id="a_node5"><a xlink:href="greece_palace_full.html" xlink:title="Palace">
<polygon fill="none" stroke="red" points="527.473,-245.302 485.921,-257.74 444.369,-245.302 444.408,-225.178 527.435,-225.178 527.473,-245.302"/>
<text text-anchor="middle" x="485.921" y="-236.04" font-family="Times,serif" font-size="14.00" fill="#ebc72d">Palace</text>
</a>
</g>
</g>
<!-- palace&#45;&gt;air_box -->
<g id="edge37" class="edge"><title>palace&#45;&gt;air_box</title>
<path fill="none" stroke="#ebc72d" stroke-dasharray="1,5" d="M468.847,-225.031C446.486,-207.076 406.894,-175.287 379.345,-153.167"/>
<polygon fill="#ebc72d" stroke="#ebc72d" points="381.203,-150.171 371.214,-146.639 376.82,-155.629 381.203,-150.171"/>
</g>
<!-- chariot -->
<g id="node6" class="node"><title>chariot</title>
<g id="a_node6"><a xlink:href="greece_chariot_full.html" xlink:title="Chariot">
<ellipse fill="none" stroke="magenta" cx="459.921" cy="-26.8701" rx="37.0935" ry="18"/>
<text text-anchor="middle" x="459.921" y="-23.1701" font-family="Times,serif" font-size="14.00" fill="#ebc72d">Chariot</text>
</a>
</g>
</g>
<!-- palace&#45;&gt;chariot -->
<g id="edge40" class="edge"><title>palace&#45;&gt;chariot</title>
<path fill="none" stroke="#ebc72d" d="M410.921,-126.74C402.531,-99.3738 420.626,-70.2725 437.149,-50.7836"/>
<polygon fill="#ebc72d" stroke="#ebc72d" points="439.773,-53.099 443.815,-43.3053 434.548,-48.441 439.773,-53.099"/>
</g>
<!-- artemis -->
<g id="node8" class="node"><title>artemis</title>
<g id="a_node8"><a xlink:href="greece_artemis_full.html" xlink:title="Artemis">
<ellipse fill="none" stroke="magenta" cx="256.921" cy="-127.74" rx="39.7935" ry="18"/>
<text text-anchor="middle" x="256.921" y="-124.04" font-family="Times,serif" font-size="14.00" fill="#ebc72d">Artemis</text>
</a>
</g>
</g>
<!-- palace&#45;&gt;artemis -->
<g id="edge39" class="edge"><title>palace&#45;&gt;artemis</title>
<path fill="none" stroke="#ebc72d" d="M453.428,-225.073C436.593,-218.033 415.684,-209.351 396.921,-201.74 356.617,-185.391 343.844,-187.039 305.921,-165.74 298.039,-161.313 290.001,-155.758 282.776,-150.309"/>
<polygon fill="#ebc72d" stroke="#ebc72d" points="284.765,-147.421 274.726,-144.034 280.461,-152.942 284.765,-147.421"/>
</g>
<!-- dragon -->
<g id="node11" class="node"><title>dragon</title>
<g id="a_node11"><a xlink:href="greece_dragon_full.html" xlink:title="Dragon">
<ellipse fill="none" stroke="magenta" cx="161.921" cy="-127.74" rx="37.0935" ry="18"/>
<text text-anchor="middle" x="161.921" y="-124.04" font-family="Times,serif" font-size="14.00" fill="#ebc72d">Dragon</text>
</a>
</g>
</g>
<!-- palace&#45;&gt;dragon -->
<g id="edge41" class="edge"><title>palace&#45;&gt;dragon</title>
<path fill="none" stroke="#ebc72d" stroke-dasharray="1,5" d="M457.21,-225.031C440.037,-217.282 417.599,-207.936 396.921,-201.74 315.009,-177.198 285.547,-201.605 207.921,-165.74 199.763,-161.971 191.797,-156.443 184.848,-150.803"/>
<polygon fill="#ebc72d" stroke="#ebc72d" points="187.071,-148.098 177.208,-144.229 182.505,-153.405 187.071,-148.098"/>
</g>
<!-- alexander -->
<g id="node13" class="node"><title>alexander</title>
<g id="a_node13"><a xlink:href="greece_alexander_full.html" xlink:title="Alexander">
<ellipse fill="none" stroke="magenta" cx="485.921" cy="-127.74" rx="47.3916" ry="18"/>
<text text-anchor="middle" x="485.921" y="-124.04" font-family="Times,serif" font-size="14.00" fill="#ebc72d">Alexander</text>
</a>
</g>
</g>
<!-- palace&#45;&gt;alexander -->
<g id="edge38" class="edge"><title>palace&#45;&gt;alexander</title>
<path fill="none" stroke="#ebc72d" d="M485.921,-224.809C485.921,-207.598 485.921,-177.922 485.921,-156.096"/>
<polygon fill="#ebc72d" stroke="#ebc72d" points="489.422,-155.803 485.921,-145.803 482.422,-155.803 489.422,-155.803"/>
</g>
<!-- oxybeles -->
<g id="node24" class="node"><title>oxybeles</title>
<g id="a_node24"><a xlink:href="greece_oxybeles_full.html" xlink:title="Oxybeles">
<ellipse fill="none" stroke="magenta" cx="360.921" cy="-26.8701" rx="44.393" ry="18"/>
<text text-anchor="middle" x="360.921" y="-23.1701" font-family="Times,serif" font-size="14.00" fill="#ebc72d">Oxybeles</text>
</a>
</g>
</g>
<!-- palace&#45;&gt;oxybeles -->
<g id="edge43" class="edge"><title>palace&#45;&gt;oxybeles</title>
<path fill="none" stroke="#ebc72d" stroke-dasharray="1,5" d="M472.329,-224.954C454.176,-205.466 422.914,-167.854 410.921,-128.74"/>
<path fill="none" stroke="#ebc72d" stroke-dasharray="1,5" d="M410.921,-126.74C402.878,-100.506 388.272,-72.8075 376.916,-53.4236"/>
<polygon fill="#ebc72d" stroke="#ebc72d" points="379.784,-51.401 371.645,-44.6185 373.778,-54.9964 379.784,-51.401"/>
</g>
<!-- onager -->
<g id="node25" class="node"><title>onager</title>
<g id="a_node25"><a xlink:href="greece_onager_full.html" xlink:title="Onager">
<ellipse fill="none" stroke="magenta" cx="587.921" cy="-127.74" rx="36.2938" ry="18"/>
<text text-anchor="middle" x="587.921" y="-124.04" font-family="Times,serif" font-size="14.00" fill="#ebc72d">Onager</text>
</a>
</g>
</g>
<!-- palace&#45;&gt;onager -->
<g id="edge42" class="edge"><title>palace&#45;&gt;onager</title>
<path fill="none" stroke="#ebc72d" stroke-dasharray="1,5" d="M498.84,-224.809C515.837,-206.479 545.944,-174.01 566.406,-151.943"/>
<polygon fill="#ebc72d" stroke="#ebc72d" points="569.233,-154.041 573.466,-144.329 564.1,-149.282 569.233,-154.041"/>
</g>
<!-- atlas -->
<g id="node7" class="node"><title>atlas</title>
<g id="a_node7"><a xlink:href="greece_atlas_full.html" xlink:title="Atlas">
<ellipse fill="none" stroke="magenta" cx="52.9214" cy="-239.74" rx="29.4969" ry="18"/>
<text text-anchor="middle" x="52.9214" y="-236.04" font-family="Times,serif" font-size="14.00" fill="#ebc72d">Atlas</text>
</a>
</g>
</g>
<!-- advanced_barracks -->
<g id="node9" class="node"><title>advanced_barracks</title>
<g id="a_node9"><a xlink:href="greece_advanced_barracks_full.html" xlink:title="Advanced\nBarracks">
<polygon fill="none" stroke="red" points="996.034,-250.07 933.921,-273.168 871.809,-250.07 871.867,-212.696 995.976,-212.696 996.034,-250.07"/>
<text text-anchor="middle" x="933.921" y="-243.54" font-family="Times,serif" font-size="14.00" fill="#ebc72d">Advanced</text>
<text text-anchor="middle" x="933.921" y="-228.54" font-family="Times,serif" font-size="14.00" fill="#ebc72d">Barracks</text>
</a>
</g>
</g>
<!-- advanced_barracks&#45;&gt;psiloi -->
<g id="edge7" class="edge"><title>advanced_barracks&#45;&gt;psiloi</title>
<path fill="none" stroke="#ebc72d" d="M914.726,-212.672C901.297,-194.436 883.501,-170.268 870.455,-152.551"/>
<polygon fill="#ebc72d" stroke="#ebc72d" points="873.219,-150.403 864.472,-144.426 867.583,-154.553 873.219,-150.403"/>
</g>
<!-- advanced_barracks&#45;&gt;cavalry -->
<g id="edge4" class="edge"><title>advanced_barracks&#45;&gt;cavalry</title>
<path fill="none" stroke="#ebc72d" d="M996.207,-216.714C1011.42,-211.58 1027.7,-206.288 1042.92,-201.74 1104.07,-183.471 1124.6,-193.788 1181.92,-165.74 1190.07,-161.751 1198.18,-156.251 1205.35,-150.709"/>
<polygon fill="#ebc72d" stroke="#ebc72d" points="1207.72,-153.293 1213.28,-144.274 1203.31,-147.858 1207.72,-153.293"/>
</g>
<!-- archer -->
<g id="node10" class="node"><title>archer</title>
<g id="a_node10"><a xlink:href="greece_archer_full.html" xlink:title="Archer">
<ellipse fill="none" stroke="magenta" cx="768.921" cy="-127.74" rx="35.194" ry="18"/>
<text text-anchor="middle" x="768.921" y="-124.04" font-family="Times,serif" font-size="14.00" fill="#ebc72d">Archer</text>
</a>
</g>
</g>
<!-- advanced_barracks&#45;&gt;archer -->
<g id="edge2" class="edge"><title>advanced_barracks&#45;&gt;archer</title>
<path fill="none" stroke="#ebc72d" d="M886.871,-212.656C864.014,-199.411 836.466,-182.585 812.921,-165.74 806.448,-161.109 799.738,-155.772 793.566,-150.619"/>
<polygon fill="#ebc72d" stroke="#ebc72d" points="795.438,-147.615 785.558,-143.79 790.896,-152.942 795.438,-147.615"/>
</g>
<!-- battering_ram -->
<g id="node14" class="node"><title>battering_ram</title>
<g id="a_node14"><a xlink:href="greece_battering_ram_full.html" xlink:title="Battering\nRam">
<ellipse fill="none" stroke="magenta" cx="1025.92" cy="-26.8701" rx="47.2526" ry="26.7407"/>
<text text-anchor="middle" x="1025.92" y="-30.6701" font-family="Times,serif" font-size="14.00" fill="#ebc72d">Battering</text>
<text text-anchor="middle" x="1025.92" y="-15.6701" font-family="Times,serif" font-size="14.00" fill="#ebc72d">Ram</text>
</a>
</g>
</g>
<!-- advanced_barracks&#45;&gt;battering_ram -->
<g id="edge3" class="edge"><title>advanced_barracks&#45;&gt;battering_ram</title>
<path fill="none" stroke="#ebc72d" d="M983.517,-212.597C1016.11,-194.905 1053.54,-173.412 1057.92,-165.74 1076.52,-133.21 1061.61,-90.5129 1046.51,-61.3049"/>
<polygon fill="#ebc72d" stroke="#ebc72d" points="1049.48,-59.4495 1041.64,-52.3257 1043.33,-62.7852 1049.48,-59.4495"/>
</g>
<!-- peltast -->
<g id="node16" class="node"><title>peltast</title>
<g id="a_node16"><a xlink:href="greece_peltast_full.html" xlink:title="Peltast">
<ellipse fill="none" stroke="magenta" cx="1138.92" cy="-127.74" rx="34.394" ry="18"/>
<text text-anchor="middle" x="1138.92" y="-124.04" font-family="Times,serif" font-size="14.00" fill="#ebc72d">Peltast</text>
</a>
</g>
</g>
<!-- advanced_barracks&#45;&gt;peltast -->
<g id="edge6" class="edge"><title>advanced_barracks&#45;&gt;peltast</title>
<path fill="none" stroke="#ebc72d" d="M986.96,-212.627C994.643,-208.929 1002.47,-205.208 1009.92,-201.74 1045.64,-185.115 1057.08,-185.909 1090.92,-165.74 1098.72,-161.094 1106.71,-155.379 1113.88,-149.842"/>
<polygon fill="#ebc72d" stroke="#ebc72d" points="1116.21,-152.462 1121.86,-143.499 1111.85,-146.982 1116.21,-152.462"/>
</g>
<!-- hoplite -->
<g id="node19" class="node"><title>hoplite</title>
<g id="a_node19"><a xlink:href="greece_hoplite_full.html" xlink:title="Hoplite">
<ellipse fill="none" stroke="magenta" cx="678.921" cy="-127.74" rx="37.0935" ry="18"/>
<text text-anchor="middle" x="678.921" y="-124.04" font-family="Times,serif" font-size="14.00" fill="#ebc72d">Hoplite</text>
</a>
</g>
</g>
<!-- advanced_barracks&#45;&gt;hoplite -->
<g id="edge5" class="edge"><title>advanced_barracks&#45;&gt;hoplite</title>
<path fill="none" stroke="#ebc72d" d="M883.4,-212.511C875.006,-208.628 866.303,-204.883 857.921,-201.74 800.581,-180.242 779.496,-193.521 724.921,-165.74 717.215,-161.817 709.591,-156.461 702.833,-151.042"/>
<polygon fill="#ebc72d" stroke="#ebc72d" points="704.692,-148.03 694.795,-144.248 700.173,-153.376 704.692,-148.03"/>
</g>
<!-- advanced_training -->
<g id="node31" class="node"><title>advanced_training</title>
<g id="a_node31"><a xlink:href="greece_advanced_training_full.html" xlink:title="Advanced\nTraining">
<polygon fill="none" stroke="green" points="1048.64,-165.74 931.37,-165.74 901.202,-89.7401 1018.47,-89.7401 1048.64,-165.74"/>
<text text-anchor="middle" x="974.921" y="-131.54" font-family="Times,serif" font-size="14.00" fill="#ebc72d">Advanced</text>
<text text-anchor="middle" x="974.921" y="-116.54" font-family="Times,serif" font-size="14.00" fill="#ebc72d">Training</text>
</a>
</g>
</g>
<!-- advanced_barracks&#45;&gt;advanced_training -->
<g id="edge1" class="edge"><title>advanced_barracks&#45;&gt;advanced_training</title>
<path fill="none" stroke="#ebc72d" d="M943.638,-212.672C947.789,-201.534 952.766,-188.183 957.515,-175.44"/>
<polygon fill="#ebc72d" stroke="#ebc72d" points="960.872,-176.454 961.085,-165.861 954.313,-174.009 960.872,-176.454"/>
</g>
<!-- barley_field -->
<g id="node12" class="node"><title>barley_field</title>
<g id="a_node12"><a xlink:href="greece_barley_field_full.html" xlink:title="Barley\nField">
<polygon fill="none" stroke="red" points="1042.07,-541.283 995.921,-564.381 949.773,-541.283 949.816,-503.91 1042.03,-503.91 1042.07,-541.283"/>
<text text-anchor="middle" x="995.921" y="-534.753" font-family="Times,serif" font-size="14.00" fill="#ebc72d">Barley</text>
<text text-anchor="middle" x="995.921" y="-519.753" font-family="Times,serif" font-size="14.00" fill="#ebc72d">Field</text>
</a>
</g>
</g>
<!-- barley_bales -->
<g id="node32" class="node"><title>barley_bales</title>
<g id="a_node32"><a xlink:href="greece_barley_bales_full.html" xlink:title="Barley\nBales">
<polygon fill="none" stroke="green" points="1347.82,-277.74 1260.49,-277.74 1238.03,-201.74 1325.35,-201.74 1347.82,-277.74"/>
<text text-anchor="middle" x="1292.92" y="-243.54" font-family="Times,serif" font-size="14.00" fill="#ebc72d">Barley</text>
<text text-anchor="middle" x="1292.92" y="-228.54" font-family="Times,serif" font-size="14.00" fill="#ebc72d">Bales</text>
</a>
</g>
</g>
<!-- barley_field&#45;&gt;barley_bales -->
<g id="edge15" class="edge"><title>barley_field&#45;&gt;barley_bales</title>
<path fill="none" stroke="#ebc72d" d="M1022.8,-503.777C1074.94,-453.003 1190.11,-340.86 1251.88,-280.709"/>
<polygon fill="#ebc72d" stroke="#ebc72d" points="1254.41,-283.123 1259.14,-273.639 1249.53,-278.108 1254.41,-283.123"/>
</g>
<!-- trojan_horse -->
<g id="node15" class="node"><title>trojan_horse</title>
<g id="a_node15"><a xlink:href="greece_trojan_horse_full.html" xlink:title="Trojan\nHorse">
<polygon fill="none" stroke="red" points="816.069,-250.07 769.921,-273.168 723.773,-250.07 723.816,-212.696 816.026,-212.696 816.069,-250.07"/>
<text text-anchor="middle" x="769.921" y="-243.54" font-family="Times,serif" font-size="14.00" fill="#ebc72d">Trojan</text>
<text text-anchor="middle" x="769.921" y="-228.54" font-family="Times,serif" font-size="14.00" fill="#ebc72d">Horse</text>
</a>
</g>
</g>
<!-- trojan_horse&#45;&gt;psiloi -->
<g id="edge57" class="edge"><title>trojan_horse&#45;&gt;psiloi</title>
<path fill="none" stroke="#ebc72d" d="M789.591,-212.672C803.351,-194.436 821.587,-170.268 834.955,-152.551"/>
<polygon fill="#ebc72d" stroke="#ebc72d" points="837.857,-154.516 841.086,-144.426 832.269,-150.3 837.857,-154.516"/>
</g>
<!-- trojan_horse&#45;&gt;archer -->
<g id="edge55" class="edge"><title>trojan_horse&#45;&gt;archer</title>
<path fill="none" stroke="#ebc72d" d="M769.684,-212.672C769.529,-195.625 769.327,-173.395 769.17,-156.096"/>
<polygon fill="#ebc72d" stroke="#ebc72d" points="772.67,-156.02 769.079,-146.052 765.67,-156.084 772.67,-156.02"/>
</g>
<!-- trojan_horse&#45;&gt;hoplite -->
<g id="edge56" class="edge"><title>trojan_horse&#45;&gt;hoplite</title>
<path fill="none" stroke="#ebc72d" d="M748.356,-212.672C733.36,-194.545 713.516,-170.557 698.883,-152.87"/>
<polygon fill="#ebc72d" stroke="#ebc72d" points="701.234,-150.22 692.163,-144.746 695.84,-154.682 701.234,-150.22"/>
</g>
<!-- tower -->
<g id="node17" class="node"><title>tower</title>
<g id="a_node17"><a xlink:href="greece_tower_full.html" xlink:title="Tower">
<polygon fill="none" stroke="red" points="667.473,-245.302 625.921,-257.74 584.369,-245.302 584.408,-225.178 667.435,-225.178 667.473,-245.302"/>
<text text-anchor="middle" x="625.921" y="-236.04" font-family="Times,serif" font-size="14.00" fill="#ebc72d">Tower</text>
</a>
</g>
</g>
<!-- temple -->
<g id="node18" class="node"><title>temple</title>
<g id="a_node18"><a xlink:href="greece_temple_full.html" xlink:title="Temple">
<polygon fill="none" stroke="red" points="243.22,-357.302 195.921,-369.74 148.623,-357.302 148.667,-337.178 243.175,-337.178 243.22,-357.302"/>
<text text-anchor="middle" x="195.921" y="-348.04" font-family="Times,serif" font-size="14.00" fill="#ebc72d">Temple</text>
</a>
</g>
</g>
<!-- temple&#45;&gt;chariot -->
<g id="edge51" class="edge"><title>temple&#45;&gt;chariot</title>
<path fill="none" stroke="#ebc72d" stroke-dasharray="1,5" d="M178.584,-337.044C156.522,-318.211 120.056,-281.934 109.921,-240.74"/>
<path fill="none" stroke="#ebc72d" stroke-dasharray="1,5" d="M109.921,-238.74C94.0885,-174.383 70.9683,-138.44 115.921,-89.7401 161.165,-40.7256 350.526,-74.4862 413.921,-53.7401 419.364,-51.9591 424.891,-49.5057 430.136,-46.8144"/>
<polygon fill="#ebc72d" stroke="#ebc72d" points="432.137,-49.7079 439.196,-41.8071 428.751,-43.5814 432.137,-49.7079"/>
</g>
<!-- temple&#45;&gt;atlas -->
<g id="edge50" class="edge"><title>temple&#45;&gt;atlas</title>
<path fill="none" stroke="#ebc72d" d="M176.03,-336.927C155.597,-322.574 123.035,-299.246 95.9214,-277.74 89.6618,-272.775 83.0513,-267.241 76.9409,-261.998"/>
<polygon fill="#ebc72d" stroke="#ebc72d" points="78.8459,-259.017 68.9984,-255.108 74.2589,-264.305 78.8459,-259.017"/>
</g>
<!-- temple&#45;&gt;dragon -->
<g id="edge52" class="edge"><title>temple&#45;&gt;dragon</title>
<path fill="none" stroke="#ebc72d" d="M109.921,-238.74C102.136,-207.092 122.623,-173.636 140.132,-152.047"/>
<polygon fill="#ebc72d" stroke="#ebc72d" points="142.833,-154.273 146.631,-144.382 137.494,-149.746 142.833,-154.273"/>
</g>
<!-- pandora -->
<g id="node30" class="node"><title>pandora</title>
<g id="a_node30"><a xlink:href="greece_pandora_full.html" xlink:title="Pandora">
<polygon fill="none" stroke="green" points="388.18,-257.74 295.503,-257.74 271.663,-221.74 364.339,-221.74 388.18,-257.74"/>
<text text-anchor="middle" x="329.921" y="-236.04" font-family="Times,serif" font-size="14.00" fill="#ebc72d">Pandora</text>
</a>
</g>
</g>
<!-- temple&#45;&gt;pandora -->
<g id="edge54" class="edge"><title>temple&#45;&gt;pandora</title>
<path fill="none" stroke="#ebc72d" d="M212.622,-337.031C234.748,-318.868 274.121,-286.546 301.1,-264.4"/>
<polygon fill="#ebc72d" stroke="#ebc72d" points="303.533,-266.931 309.041,-257.88 299.091,-261.52 303.533,-266.931"/>
</g>
<!-- golden_arrow -->
<g id="node34" class="node"><title>golden_arrow</title>
<g id="a_node34"><a xlink:href="greece_golden_arrow_full.html" xlink:title="Golden\nArrow">
<polygon fill="none" stroke="green" points="254.038,-277.74 161.588,-277.74 137.805,-201.74 230.255,-201.74 254.038,-277.74"/>
<text text-anchor="middle" x="195.921" y="-243.54" font-family="Times,serif" font-size="14.00" fill="#ebc72d">Golden</text>
<text text-anchor="middle" x="195.921" y="-228.54" font-family="Times,serif" font-size="14.00" fill="#ebc72d">Arrow</text>
</a>
</g>
</g>
<!-- temple&#45;&gt;golden_arrow -->
<g id="edge53" class="edge"><title>temple&#45;&gt;golden_arrow</title>
<path fill="none" stroke="#ebc72d" d="M195.921,-336.809C195.921,-324.534 195.921,-305.918 195.921,-288.331"/>
<polygon fill="#ebc72d" stroke="#ebc72d" points="199.422,-288.151 195.921,-278.151 192.422,-288.151 199.422,-288.151"/>
</g>
<!-- slave -->
<g id="node20" class="node"><title>slave</title>
<g id="a_node20"><a xlink:href="greece_slave_full.html" xlink:title="Slave">
<ellipse fill="none" stroke="magenta" cx="958.921" cy="-618.167" rx="30.5947" ry="18"/>
<text text-anchor="middle" x="958.921" y="-614.467" font-family="Times,serif" font-size="14.00" fill="#ebc72d">Slave</text>
</a>
</g>
</g>
<!-- slave&#45;&gt;blacksmith -->
<g id="edge47" class="edge"><title>slave&#45;&gt;blacksmith</title>
<path fill="none" stroke="#ebc72d" stroke-width="2" d="M932.56,-608.527C887.47,-593.749 795.177,-563.501 741.062,-545.765"/>
<polygon fill="#ebc72d" stroke="#ebc72d" stroke-width="2" points="742.015,-542.394 731.422,-542.605 739.835,-549.046 742.015,-542.394"/>
</g>
<!-- slave&#45;&gt;barley_field -->
<g id="edge45" class="edge"><title>slave&#45;&gt;barley_field</title>
<path fill="none" stroke="#ebc72d" stroke-width="2" d="M966.231,-600.331C970.246,-591.085 975.387,-579.246 980.259,-568.025"/>
<polygon fill="#ebc72d" stroke="#ebc72d" stroke-width="2" points="983.485,-569.383 984.257,-558.817 977.064,-566.595 983.485,-569.383"/>
</g>
<!-- slave&#45;&gt;tower -->
<g id="edge49" class="edge"><title>slave&#45;&gt;tower</title>
<path fill="none" stroke="#ebc72d" stroke-width="2" d="M952.338,-600.2C948.55,-589.905 943.956,-576.43 940.921,-564.167 928.011,-511.994 947.592,-491.959 921.921,-444.74"/>
<path fill="none" stroke="#ebc72d" stroke-width="2" d="M921.921,-442.74C913.196,-429.672 905.727,-431.004 890.921,-425.74 807.471,-396.068 764.923,-443.999 694.921,-389.74 655.683,-359.326 637.899,-301.337 630.538,-267.366"/>
<polygon fill="#ebc72d" stroke="#ebc72d" stroke-width="2" points="633.905,-266.359 628.5,-257.246 627.043,-267.74 633.905,-266.359"/>
</g>
<!-- barracks -->
<g id="node22" class="node"><title>barracks</title>
<g id="a_node22"><a xlink:href="greece_barracks_full.html" xlink:title="Barracks">
<polygon fill="none" stroke="red" points="974.361,-357.302 921.921,-369.74 869.482,-357.302 869.531,-337.178 974.312,-337.178 974.361,-357.302"/>
<text text-anchor="middle" x="921.921" y="-348.04" font-family="Times,serif" font-size="14.00" fill="#ebc72d">Barracks</text>
</a>
</g>
</g>
<!-- slave&#45;&gt;barracks -->
<g id="edge46" class="edge"><title>slave&#45;&gt;barracks</title>
<path fill="none" stroke="#ebc72d" stroke-width="2" d="M921.921,-442.74C911.329,-423.256 912.482,-397.712 915.613,-378.817"/>
<polygon fill="#ebc72d" stroke="#ebc72d" stroke-width="2" points="919.083,-379.304 917.551,-368.82 912.211,-377.971 919.083,-379.304"/>
</g>
<!-- castle -->
<g id="node23" class="node"><title>castle</title>
<g id="a_node23"><a xlink:href="greece_castle_full.html" xlink:title="Castle">
<polygon fill="none" stroke="red" points="1140.26,-536.516 1099.92,-548.953 1059.58,-536.516 1059.62,-516.391 1140.22,-516.391 1140.26,-536.516"/>
<text text-anchor="middle" x="1099.92" y="-527.253" font-family="Times,serif" font-size="14.00" fill="#ebc72d">Castle</text>
</a>
</g>
</g>
<!-- slave&#45;&gt;castle -->
<g id="edge48" class="edge"><title>slave&#45;&gt;castle</title>
<path fill="none" stroke="#ebc72d" stroke-width="2" d="M989.251,-600.289C1007.32,-590.089 1030.61,-576.68 1050.92,-564.167 1058.36,-559.586 1066.31,-554.459 1073.6,-549.665"/>
<polygon fill="#ebc72d" stroke="#ebc72d" stroke-width="2" points="987.325,-597.356 980.324,-605.308 990.756,-603.458 987.325,-597.356"/>
<polygon fill="#ebc72d" stroke="#ebc72d" stroke-width="2" points="1075.99,-552.28 1082.39,-543.837 1072.12,-546.445 1075.99,-552.28"/>
</g>
<!-- engineer&#45;&gt;air_box -->
<g id="edge29" class="edge"><title>engineer&#45;&gt;air_box</title>
<path fill="none" stroke="#ebc72d" stroke-width="2" d="M575.605,-425.767C570.945,-407.632 563.207,-378.072 555.921,-352.74"/>
<path fill="none" stroke="#ebc72d" stroke-width="2" d="M555.921,-350.74C538.561,-290.38 477.54,-323.875 434.921,-277.74 409.296,-250 415.773,-234.463 396.921,-201.74 388.739,-187.538 378.912,-172.318 370.287,-159.47"/>
<polygon fill="#ebc72d" stroke="#ebc72d" stroke-width="2" points="373.05,-157.31 364.542,-150.997 367.256,-161.238 373.05,-157.31"/>
</g>
<!-- engineer&#45;&gt;palace -->
<g id="edge32" class="edge"><title>engineer&#45;&gt;palace</title>
<path fill="none" stroke="#ebc72d" stroke-width="2" d="M555.921,-350.74C546.168,-316.697 522.193,-283.181 505.021,-262.263"/>
<polygon fill="#ebc72d" stroke="#ebc72d" stroke-width="2" points="507.486,-259.757 498.366,-254.365 502.134,-264.267 507.486,-259.757"/>
</g>
<!-- engineer&#45;&gt;trojan_horse -->
<g id="edge35" class="edge"><title>engineer&#45;&gt;trojan_horse</title>
<path fill="none" stroke="#ebc72d" stroke-width="2" d="M593.729,-426.524C614.968,-401.747 657.164,-353.188 694.921,-313.74 709.339,-298.677 725.9,-282.451 739.787,-269.13"/>
<polygon fill="#ebc72d" stroke="#ebc72d" stroke-width="2" points="742.381,-271.492 747.196,-262.055 737.547,-266.43 742.381,-271.492"/>
</g>
<!-- engineer&#45;&gt;tower -->
<g id="edge34" class="edge"><title>engineer&#45;&gt;tower</title>
<path fill="none" stroke="#ebc72d" stroke-width="2" d="M555.921,-350.74C545.727,-315.158 577.114,-280.153 601.123,-259.505"/>
<polygon fill="#ebc72d" stroke="#ebc72d" stroke-width="2" points="603.43,-262.139 608.912,-253.073 598.972,-256.742 603.43,-262.139"/>
</g>
<!-- engineer&#45;&gt;temple -->
<g id="edge33" class="edge"><title>engineer&#45;&gt;temple</title>
<path fill="none" stroke="#ebc72d" stroke-width="2" d="M548.523,-431.695C542.078,-429.591 535.31,-427.5 528.921,-425.74 428.72,-398.14 309.297,-374.056 244.172,-361.651"/>
<polygon fill="#ebc72d" stroke="#ebc72d" stroke-width="2" points="244.674,-358.184 234.197,-359.761 243.371,-365.061 244.674,-358.184"/>
</g>
<!-- engineer&#45;&gt;oxybeles -->
<g id="edge31" class="edge"><title>engineer&#45;&gt;oxybeles</title>
<path fill="none" stroke="#ebc72d" stroke-dasharray="5,2" d="M549.219,-431.246C542.601,-429.125 535.589,-427.141 528.921,-425.74 359.001,-390.053 299.059,-459.179 139.921,-389.74 71.5527,-359.908 45.3445,-345.848 14.9214,-277.74 -21.5059,-196.191 12.8961,-141.166 85.9214,-89.7401 151.786,-43.3574 246.654,-31.0431 305.991,-28.1619"/>
<polygon fill="#ebc72d" stroke="#ebc72d" points="306.433,-31.6469 316.281,-27.7397 306.146,-24.6527 306.433,-31.6469"/>
</g>
<!-- engineer&#45;&gt;onager -->
<g id="edge30" class="edge"><title>engineer&#45;&gt;onager</title>
<path fill="none" stroke="#ebc72d" stroke-dasharray="5,2" d="M555.921,-350.74C536.155,-281.748 561.435,-197.031 577.146,-154.991"/>
<polygon fill="#ebc72d" stroke="#ebc72d" points="580.476,-156.084 580.807,-145.495 573.944,-153.567 580.476,-156.084"/>
</g>
<!-- advanced_buildings -->
<g id="node27" class="node"><title>advanced_buildings</title>
<g id="a_node27"><a xlink:href="greece_advanced_buildings_full.html" xlink:title="Advanced\nBuildings">
<polygon fill="none" stroke="green" points="851.641,-389.74 734.37,-389.74 704.202,-313.74 821.473,-313.74 851.641,-389.74"/>
<text text-anchor="middle" x="777.921" y="-355.54" font-family="Times,serif" font-size="14.00" fill="#ebc72d">Advanced</text>
<text text-anchor="middle" x="777.921" y="-340.54" font-family="Times,serif" font-size="14.00" fill="#ebc72d">Buildings</text>
</a>
</g>
</g>
<!-- engineer&#45;&gt;advanced_buildings -->
<g id="edge28" class="edge"><title>engineer&#45;&gt;advanced_buildings</title>
<path fill="none" stroke="#ebc72d" d="M607.87,-430.036C636.663,-416.948 682.405,-396.157 719.198,-379.433"/>
<polygon fill="#ebc72d" stroke="#ebc72d" points="720.689,-382.6 728.344,-375.275 717.792,-376.227 720.689,-382.6"/>
</g>
<!-- barracks&#45;&gt;psiloi -->
<g id="edge21" class="edge"><title>barracks&#45;&gt;psiloi</title>
<path fill="none" stroke="#ebc72d" d="M843.921,-238.74C831.269,-212.374 836.902,-178.348 843.515,-155.167"/>
<polygon fill="#ebc72d" stroke="#ebc72d" points="846.941,-155.933 846.559,-145.345 840.255,-153.86 846.941,-155.933"/>
</g>
<!-- barracks&#45;&gt;cavalry -->
<g id="edge18" class="edge"><title>barracks&#45;&gt;cavalry</title>
<path fill="none" stroke="#ebc72d" d="M974.349,-342.865C1043.72,-331.411 1160.78,-308.158 1190.92,-277.74 1223.05,-245.319 1229.67,-189.885 1230.52,-156.544"/>
<polygon fill="#ebc72d" stroke="#ebc72d" points="1234.02,-156.18 1230.61,-146.149 1227.02,-156.117 1234.02,-156.18"/>
</g>
<!-- barracks&#45;&gt;advanced_barracks -->
<g id="edge16" class="edge"><title>barracks&#45;&gt;advanced_barracks</title>
<path fill="none" stroke="#ebc72d" stroke-dasharray="5,2" d="M923.441,-336.809C924.938,-323.087 927.299,-301.443 929.402,-282.17"/>
<polygon fill="#ebc72d" stroke="#ebc72d" points="932.899,-282.389 930.504,-272.069 925.94,-281.63 932.899,-282.389"/>
</g>
<!-- barracks&#45;&gt;archer -->
<g id="edge17" class="edge"><title>barracks&#45;&gt;archer</title>
<path fill="none" stroke="#ebc72d" d="M909.49,-337.126C896.88,-322.932 877.235,-299.727 862.921,-277.74 852.836,-262.248 851.919,-257.406 843.921,-240.74"/>
<path fill="none" stroke="#ebc72d" d="M843.921,-238.74C835.923,-222.074 834.809,-217.359 824.921,-201.74 814.096,-184.64 800.268,-166.585 789.062,-152.709"/>
<polygon fill="#ebc72d" stroke="#ebc72d" points="791.515,-150.179 782.474,-144.655 786.097,-154.611 791.515,-150.179"/>
</g>
<!-- barracks&#45;&gt;peltast -->
<g id="edge20" class="edge"><title>barracks&#45;&gt;peltast</title>
<path fill="none" stroke="#ebc72d" d="M941.309,-337.139C959.481,-323.655 986.532,-301.605 1004.92,-277.74 1027.97,-247.826 1018.82,-230.814 1042.92,-201.74 1061.2,-179.695 1087.34,-160.37 1107.74,-147.15"/>
<polygon fill="#ebc72d" stroke="#ebc72d" points="1109.79,-149.996 1116.37,-141.694 1106.04,-144.079 1109.79,-149.996"/>
</g>
<!-- barracks&#45;&gt;hoplite -->
<g id="edge19" class="edge"><title>barracks&#45;&gt;hoplite</title>
<path fill="none" stroke="#ebc72d" d="M902.944,-337.16C891.291,-329.359 875.793,-319.914 860.921,-313.74 799.197,-288.116 762.068,-325.108 714.921,-277.74 682.874,-245.542 677.559,-190.034 677.575,-156.618"/>
<polygon fill="#ebc72d" stroke="#ebc72d" points="681.081,-156.257 677.753,-146.198 674.082,-156.137 681.081,-156.257"/>
</g>
<!-- training_field -->
<g id="node29" class="node"><title>training_field</title>
<g id="a_node29"><a xlink:href="greece_training_field_full.html" xlink:title="Training\nField">
<polygon fill="none" stroke="green" points="1182.05,-277.74 1078.44,-277.74 1051.79,-201.74 1155.4,-201.74 1182.05,-277.74"/>
<text text-anchor="middle" x="1116.92" y="-243.54" font-family="Times,serif" font-size="14.00" fill="#ebc72d">Training</text>
<text text-anchor="middle" x="1116.92" y="-228.54" font-family="Times,serif" font-size="14.00" fill="#ebc72d">Field</text>
</a>
</g>
</g>
<!-- barracks&#45;&gt;training_field -->
<g id="edge22" class="edge"><title>barracks&#45;&gt;training_field</title>
<path fill="none" stroke="#ebc72d" d="M946.224,-337.031C975.714,-320.396 1026.26,-291.884 1064.71,-270.191"/>
<polygon fill="#ebc72d" stroke="#ebc72d" points="1066.72,-273.076 1073.71,-265.114 1063.28,-266.979 1066.72,-273.076"/>
</g>
<!-- advanced_buildings&#45;&gt;advanced_barracks -->
<g id="edge8" class="edge"><title>advanced_buildings&#45;&gt;advanced_barracks</title>
<path fill="none" stroke="#ebc72d" stroke-dasharray="1,5" d="M823.462,-318.628C846.169,-302.617 873.342,-283.456 895.055,-268.146"/>
<polygon fill="#ebc72d" stroke="#ebc72d" points="897.234,-270.892 903.39,-262.269 893.2,-265.171 897.234,-270.892"/>
</g>
<!-- advanced_buildings&#45;&gt;tower -->
<g id="edge9" class="edge"><title>advanced_buildings&#45;&gt;tower</title>
<path fill="none" stroke="#ebc72d" stroke-dasharray="1,5" d="M726.461,-313.499C700.989,-295.066 671.398,-273.651 650.945,-258.849"/>
<polygon fill="#ebc72d" stroke="#ebc72d" points="652.931,-255.966 642.778,-252.939 648.827,-261.637 652.931,-255.966"/>
</g>
<!-- pandora&#45;&gt;air_box -->
<g id="edge44" class="edge"><title>pandora&#45;&gt;air_box</title>
<path fill="none" stroke="#ebc72d" stroke-dasharray="1,5" d="M332.89,-221.553C335.374,-207.175 339.011,-186.117 342.193,-167.691"/>
<polygon fill="#ebc72d" stroke="#ebc72d" points="345.651,-168.235 343.905,-157.785 338.753,-167.044 345.651,-168.235"/>
</g>
<!-- advanced_training&#45;&gt;chariot -->
<g id="edge11" class="edge"><title>advanced_training&#45;&gt;chariot</title>
<path fill="none" stroke="#ebc72d" stroke-dasharray="1,5" d="M901.992,-92.6054C898.952,-91.5736 895.921,-90.612 892.921,-89.7401 756.142,-49.9792 587.334,-35.2687 506.869,-30.2456"/>
<polygon fill="#ebc72d" stroke="#ebc72d" points="506.768,-26.7333 496.576,-29.6262 506.347,-33.7207 506.768,-26.7333"/>
</g>
<!-- advanced_training&#45;&gt;battering_ram -->
<g id="edge10" class="edge"><title>advanced_training&#45;&gt;battering_ram</title>
<path fill="none" stroke="#ebc72d" stroke-dasharray="1,5" d="M994.057,-89.6433C998.756,-80.5337 1003.76,-70.8269 1008.38,-61.8713"/>
<polygon fill="#ebc72d" stroke="#ebc72d" points="1011.55,-63.3589 1013.03,-52.8671 1005.33,-60.1498 1011.55,-63.3589"/>
</g>
<!-- advanced_training&#45;&gt;oxybeles -->
<g id="edge12" class="edge"><title>advanced_training&#45;&gt;oxybeles</title>
<path fill="none" stroke="#ebc72d" stroke-dasharray="1,5" d="M902.062,-92.3483C899.003,-91.3877 895.948,-90.5112 892.921,-89.7401 686.04,-37.0375 619.983,-109.563 413.921,-53.7401 407.281,-51.9413 400.476,-49.3048 394.05,-46.3941"/>
<polygon fill="#ebc72d" stroke="#ebc72d" points="395.494,-43.205 384.968,-41.9992 392.445,-49.5059 395.494,-43.205"/>
</g>
<!-- barley_bales&#45;&gt;cavalry -->
<g id="edge13" class="edge"><title>barley_bales&#45;&gt;cavalry</title>
<path fill="none" stroke="#ebc72d" stroke-dasharray="1,5" d="M1271.59,-201.499C1262.72,-186.003 1252.64,-168.4 1244.61,-154.39"/>
<polygon fill="#ebc72d" stroke="#ebc72d" points="1247.43,-152.273 1239.43,-145.335 1241.36,-155.752 1247.43,-152.273"/>
</g>
<!-- barley_bales&#45;&gt;chariot -->
<g id="edge14" class="edge"><title>barley_bales&#45;&gt;chariot</title>
<path fill="none" stroke="#ebc72d" stroke-dasharray="1,5" d="M1300.8,-201.552C1305.63,-167.451 1306.16,-118.075 1276.92,-89.7401 1249.09,-62.7725 676.534,-36.8811 506.889,-29.7781"/>
<polygon fill="#ebc72d" stroke="#ebc72d" points="506.909,-26.276 496.772,-29.3568 506.617,-33.2699 506.909,-26.276"/>
</g>
<!-- golden_arrow&#45;&gt;artemis -->
<g id="edge36" class="edge"><title>golden_arrow&#45;&gt;artemis</title>
<path fill="none" stroke="#ebc72d" stroke-dasharray="1,5" d="M216.573,-201.499C225.167,-186.003 234.928,-168.4 242.698,-154.39"/>
<polygon fill="#ebc72d" stroke="#ebc72d" points="245.93,-155.778 247.719,-145.335 239.808,-152.383 245.93,-155.778"/>
</g>
</g>
</svg>
