<?xml version="1.0" encoding="UTF-8" standalone="no"?>
<!DOCTYPE svg PUBLIC "-//W3C//DTD SVG 1.1//EN"
 "http://www.w3.org/Graphics/SVG/1.1/DTD/svg11.dtd">
<!-- Generated by graphviz version 2.38.0 (20140413.2041)
 -->
<!-- Title: test Pages: 1 -->
<svg width="617pt" height="351pt"
 viewBox="0.00 0.00 616.99 351.28" xmlns="http://www.w3.org/2000/svg" xmlns:xlink="http://www.w3.org/1999/xlink">
<g id="graph0" class="graph" transform="scale(1 1) rotate(0) translate(4 347.279)">
<title>test</title>
<polygon fill="#151515" stroke="none" points="-4,4 -4,-347.279 612.995,-347.279 612.995,4 -4,4"/>
<!-- blacksmith -->
<g id="node1" class="node"><title>blacksmith</title>
<g id="a_node1"><a xlink:href="greece_blacksmith_full.html" xlink:title="Blacksmith">
<polygon fill="none" stroke="red" points="196.208,-213.202 132.775,-225.64 69.3425,-213.202 69.4017,-193.077 196.149,-193.077 196.208,-213.202"/>
<text text-anchor="middle" x="132.775" y="-203.94" font-family="Times,serif" font-size="14.00" fill="#ebc72d">Blacksmith</text>
</a>
</g>
</g>
<!-- palace -->
<g id="node3" class="node"><title>palace</title>
<g id="a_node3"><a xlink:href="greece_palace_full.html" xlink:title="Palace">
<polygon fill="none" stroke="red" points="83.3274,-125.989 41.7754,-138.426 0.223408,-125.989 0.262192,-105.864 83.2886,-105.864 83.3274,-125.989"/>
<text text-anchor="middle" x="41.7754" y="-116.726" font-family="Times,serif" font-size="14.00" fill="#ebc72d">Palace</text>
</a>
</g>
</g>
<!-- blacksmith&#45;&gt;palace -->
<g id="edge1" class="edge"><title>blacksmith&#45;&gt;palace</title>
<path fill="none" stroke="#ebc72d" stroke-dasharray="1,5" d="M118.155,-192.949C103.388,-179.121 80.4066,-157.601 63.507,-141.776"/>
<polygon fill="#ebc72d" stroke="#ebc72d" points="65.4538,-138.804 55.7621,-134.524 60.6691,-143.914 65.4538,-138.804"/>
</g>
<!-- tower -->
<g id="node7" class="node"><title>tower</title>
<g id="a_node7"><a xlink:href="greece_tower_full.html" xlink:title="Tower">
<polygon fill="none" stroke="red" points="185.327,-125.989 143.775,-138.426 102.223,-125.989 102.262,-105.864 185.289,-105.864 185.327,-125.989"/>
<text text-anchor="middle" x="143.775" y="-116.726" font-family="Times,serif" font-size="14.00" fill="#ebc72d">Tower</text>
</a>
</g>
</g>
<!-- blacksmith&#45;&gt;tower -->
<g id="edge3" class="edge"><title>blacksmith&#45;&gt;tower</title>
<path fill="none" stroke="#ebc72d" stroke-dasharray="1,5" d="M134.543,-192.949C136.097,-180.91 138.404,-163.039 140.323,-148.174"/>
<polygon fill="#ebc72d" stroke="#ebc72d" points="143.826,-148.372 141.635,-138.006 136.884,-147.476 143.826,-148.372"/>
</g>
<!-- temple -->
<g id="node8" class="node"><title>temple</title>
<g id="a_node8"><a xlink:href="greece_temple_full.html" xlink:title="Temple">
<polygon fill="none" stroke="red" points="298.074,-125.989 250.775,-138.426 203.477,-125.989 203.521,-105.864 298.029,-105.864 298.074,-125.989"/>
<text text-anchor="middle" x="250.775" y="-116.726" font-family="Times,serif" font-size="14.00" fill="#ebc72d">Temple</text>
</a>
</g>
</g>
<!-- blacksmith&#45;&gt;temple -->
<g id="edge2" class="edge"><title>blacksmith&#45;&gt;temple</title>
<path fill="none" stroke="#ebc72d" stroke-dasharray="1,5" d="M151.734,-192.949C171.634,-178.578 203.04,-155.898 225.141,-139.938"/>
<polygon fill="#ebc72d" stroke="#ebc72d" points="227.344,-142.665 233.402,-133.973 223.246,-136.99 227.344,-142.665"/>
</g>
<!-- air_box -->
<g id="node2" class="node"><title>air_box</title>
<g id="a_node2"><a xlink:href="greece_air_box_full.html" xlink:title="Air\nBox">
<polygon fill="none" stroke="red" points="179.95,-43.543 145.775,-66.641 111.601,-43.543 111.633,-6.16955 179.918,-6.16955 179.95,-43.543"/>
<text text-anchor="middle" x="145.775" y="-37.0132" font-family="Times,serif" font-size="14.00" fill="#ebc72d">Air</text>
<text text-anchor="middle" x="145.775" y="-22.0132" font-family="Times,serif" font-size="14.00" fill="#ebc72d">Box</text>
</a>
</g>
</g>
<!-- palace&#45;&gt;air_box -->
<g id="edge10" class="edge"><title>palace&#45;&gt;air_box</title>
<path fill="none" stroke="#ebc72d" stroke-dasharray="1,5" d="M58.4848,-105.735C73.9901,-93.0311 97.4216,-73.8323 116.105,-58.5237"/>
<polygon fill="#ebc72d" stroke="#ebc72d" points="118.53,-61.0619 124.047,-52.0167 114.093,-55.6473 118.53,-61.0619"/>
</g>
<!-- advanced_barracks -->
<g id="node4" class="node"><title>advanced_barracks</title>
<g id="a_node4"><a xlink:href="greece_advanced_barracks_full.html" xlink:title="Advanced\nBarracks">
<polygon fill="none" stroke="red" points="338.888,-217.969 276.775,-241.067 214.663,-217.969 214.721,-180.596 338.83,-180.596 338.888,-217.969"/>
<text text-anchor="middle" x="276.775" y="-211.44" font-family="Times,serif" font-size="14.00" fill="#ebc72d">Advanced</text>
<text text-anchor="middle" x="276.775" y="-196.44" font-family="Times,serif" font-size="14.00" fill="#ebc72d">Barracks</text>
</a>
</g>
</g>
<!-- barley_field -->
<g id="node5" class="node"><title>barley_field</title>
<g id="a_node5"><a xlink:href="greece_barley_field_full.html" xlink:title="Barley\nField">
<polygon fill="none" stroke="red" points="448.923,-217.969 402.775,-241.067 356.627,-217.969 356.67,-180.596 448.88,-180.596 448.923,-217.969"/>
<text text-anchor="middle" x="402.775" y="-211.44" font-family="Times,serif" font-size="14.00" fill="#ebc72d">Barley</text>
<text text-anchor="middle" x="402.775" y="-196.44" font-family="Times,serif" font-size="14.00" fill="#ebc72d">Field</text>
</a>
</g>
</g>
<!-- trojan_horse -->
<g id="node6" class="node"><title>trojan_horse</title>
<g id="a_node6"><a xlink:href="greece_trojan_horse_full.html" xlink:title="Trojan\nHorse">
<polygon fill="none" stroke="red" points="489.923,-320.396 443.775,-343.494 397.627,-320.396 397.67,-283.022 489.88,-283.022 489.923,-320.396"/>
<text text-anchor="middle" x="443.775" y="-313.866" font-family="Times,serif" font-size="14.00" fill="#ebc72d">Trojan</text>
<text text-anchor="middle" x="443.775" y="-298.866" font-family="Times,serif" font-size="14.00" fill="#ebc72d">Horse</text>
</a>
</g>
</g>
<!-- temple&#45;&gt;air_box -->
<g id="edge11" class="edge"><title>temple&#45;&gt;air_box</title>
<path fill="none" stroke="#ebc72d" stroke-dasharray="1,5" d="M233.905,-105.735C218.251,-93.0311 194.594,-73.8323 175.731,-58.5237"/>
<polygon fill="#ebc72d" stroke="#ebc72d" points="177.683,-55.6006 167.713,-52.0167 173.272,-61.0359 177.683,-55.6006"/>
</g>
<!-- barracks -->
<g id="node9" class="node"><title>barracks</title>
<g id="a_node9"><a xlink:href="greece_barracks_full.html" xlink:title="Barracks">
<polygon fill="none" stroke="red" points="609.215,-213.202 556.775,-225.64 504.336,-213.202 504.385,-193.077 609.166,-193.077 609.215,-213.202"/>
<text text-anchor="middle" x="556.775" y="-203.94" font-family="Times,serif" font-size="14.00" fill="#ebc72d">Barracks</text>
</a>
</g>
</g>
<!-- castle -->
<g id="node10" class="node"><title>castle</title>
<g id="a_node10"><a xlink:href="greece_castle_full.html" xlink:title="Castle">
<polygon fill="none" stroke="red" points="380.113,-315.628 339.775,-328.066 299.437,-315.628 299.475,-295.504 380.076,-295.504 380.113,-315.628"/>
<text text-anchor="middle" x="339.775" y="-306.366" font-family="Times,serif" font-size="14.00" fill="#ebc72d">Castle</text>
</a>
</g>
</g>
<!-- castle&#45;&gt;blacksmith -->
<g id="edge7" class="edge"><title>castle&#45;&gt;blacksmith</title>
<path fill="none" stroke="#ebc72d" stroke-dasharray="1,5" d="M311.427,-295.313C273.806,-277.061 207.444,-244.865 167.053,-225.27"/>
<polygon fill="#ebc72d" stroke="#ebc72d" points="168.392,-222.029 157.868,-220.813 165.337,-228.327 168.392,-222.029"/>
</g>
<!-- castle&#45;&gt;palace -->
<g id="edge8" class="edge"><title>castle&#45;&gt;palace</title>
<path fill="none" stroke="#ebc72d" stroke-dasharray="1,5" d="M299.557,-304.683C230.283,-296.284 92.7859,-275.603 60.7754,-240.853 37.7721,-215.881 36.2496,-174.801 38.2482,-147.929"/>
<polygon fill="#ebc72d" stroke="#ebc72d" points="41.7575,-147.999 39.2279,-137.711 34.7894,-147.331 41.7575,-147.999"/>
</g>
<!-- castle&#45;&gt;advanced_barracks -->
<g id="edge4" class="edge"><title>castle&#45;&gt;advanced_barracks</title>
<path fill="none" stroke="#ebc72d" stroke-dasharray="1,5" d="M331.016,-295.102C322.781,-281.976 310.108,-261.774 299.082,-244.197"/>
<polygon fill="#ebc72d" stroke="#ebc72d" points="301.777,-241.908 293.498,-235.297 295.847,-245.628 301.777,-241.908"/>
</g>
<!-- castle&#45;&gt;barley_field -->
<g id="edge5" class="edge"><title>castle&#45;&gt;barley_field</title>
<path fill="none" stroke="#ebc72d" stroke-dasharray="1,5" d="M348.535,-295.102C357.078,-281.485 370.397,-260.253 381.699,-242.237"/>
<polygon fill="#ebc72d" stroke="#ebc72d" points="384.706,-244.029 387.056,-233.698 378.776,-240.309 384.706,-244.029"/>
</g>
<!-- castle&#45;&gt;temple -->
<g id="edge9" class="edge"><title>castle&#45;&gt;temple</title>
<path fill="none" stroke="#ebc72d" stroke-dasharray="1,5" d="M359.514,-295.438C368.337,-289.517 378.944,-282.629 388.775,-276.853 418.598,-259.33 439.845,-270.432 457.775,-240.853 473.079,-215.606 475.878,-197.748 457.775,-174.426 439.306,-150.632 360.973,-135.699 306.157,-127.959"/>
<polygon fill="#ebc72d" stroke="#ebc72d" points="306.597,-124.487 296.215,-126.597 305.647,-131.422 306.597,-124.487"/>
</g>
<!-- castle&#45;&gt;barracks -->
<g id="edge6" class="edge"><title>castle&#45;&gt;barracks</title>
<path fill="none" stroke="#ebc72d" stroke-dasharray="1,5" d="M358.218,-295.409C367.143,-289.206 378.196,-282.1 388.775,-276.853 431.843,-255.492 446.434,-259.427 490.775,-240.853 502.145,-236.09 514.34,-230.331 525.116,-225.006"/>
<polygon fill="#ebc72d" stroke="#ebc72d" points="526.789,-228.082 534.164,-220.475 523.655,-221.823 526.789,-228.082"/>
</g>
</g>
</svg>
