<?xml version="1.0" encoding="UTF-8" standalone="no"?>
<!DOCTYPE svg PUBLIC "-//W3C//DTD SVG 1.1//EN"
 "http://www.w3.org/Graphics/SVG/1.1/DTD/svg11.dtd">
<!-- Generated by graphviz version 2.38.0 (20140413.2041)
 -->
<!-- Title: test Pages: 1 -->
<svg width="1478pt" height="423pt"
 viewBox="0.00 0.00 1478.43 423.28" xmlns="http://www.w3.org/2000/svg" xmlns:xlink="http://www.w3.org/1999/xlink">
<g id="graph0" class="graph" transform="scale(1 1) rotate(0) translate(4 419.279)">
<title>test</title>
<polygon fill="#151515" stroke="none" points="-4,4 -4,-419.279 1474.43,-419.279 1474.43,4 -4,4"/>
<!-- blacksmith -->
<g id="node1" class="node"><title>blacksmith</title>
<g id="a_node1"><a xlink:href="greece_blacksmith_full.html" xlink:title="Blacksmith">
<polygon fill="none" stroke="red" points="757.78,-141.202 694.347,-153.64 630.914,-141.202 630.973,-121.077 757.72,-121.077 757.78,-141.202"/>
<text text-anchor="middle" x="694.347" y="-131.94" font-family="Times,serif" font-size="14.00" fill="#ebc72d">Blacksmith</text>
</a>
</g>
</g>
<!-- chariot -->
<g id="node5" class="node"><title>chariot</title>
<g id="a_node5"><a xlink:href="greece_chariot_full.html" xlink:title="Chariot">
<ellipse fill="none" stroke="magenta" cx="1149.35" cy="-33.2132" rx="37.0935" ry="18"/>
<text text-anchor="middle" x="1149.35" y="-29.5132" font-family="Times,serif" font-size="14.00" fill="#ebc72d">Chariot</text>
</a>
</g>
</g>
<!-- blacksmith&#45;&gt;chariot -->
<g id="edge20" class="edge"><title>blacksmith&#45;&gt;chariot</title>
<path fill="none" stroke="#ebc72d" stroke-dasharray="1,5" d="M757.948,-124.215C871.879,-105.516 1099.35,-68.0588 1103.35,-66.4264 1110.3,-63.5856 1117.23,-59.5393 1123.52,-55.2699"/>
<polygon fill="#ebc72d" stroke="#ebc72d" points="1125.59,-58.0921 1131.65,-49.4017 1121.49,-52.4159 1125.59,-58.0921"/>
</g>
<!-- atlas -->
<g id="node6" class="node"><title>atlas</title>
<g id="a_node6"><a xlink:href="greece_atlas_full.html" xlink:title="Atlas">
<ellipse fill="none" stroke="magenta" cx="1065.35" cy="-33.2132" rx="29.4969" ry="18"/>
<text text-anchor="middle" x="1065.35" y="-29.5132" font-family="Times,serif" font-size="14.00" fill="#ebc72d">Atlas</text>
</a>
</g>
</g>
<!-- blacksmith&#45;&gt;atlas -->
<g id="edge17" class="edge"><title>blacksmith&#45;&gt;atlas</title>
<path fill="none" stroke="#ebc72d" stroke-dasharray="1,5" d="M757.905,-123.379C847.675,-107.207 1003.4,-78.0719 1027.35,-66.4264 1032.93,-63.7127 1038.36,-59.9897 1043.3,-56.0363"/>
<polygon fill="#ebc72d" stroke="#ebc72d" points="1045.81,-58.4969 1051.07,-49.3031 1041.22,-53.2066 1045.81,-58.4969"/>
</g>
<!-- calvary -->
<g id="node9" class="node"><title>calvary</title>
<g id="a_node9"><a xlink:href="greece_calvary_full.html" xlink:title="Calvary">
<ellipse fill="none" stroke="magenta" cx="38.3466" cy="-33.2132" rx="38.1938" ry="18"/>
<text text-anchor="middle" x="38.3466" y="-29.5132" font-family="Times,serif" font-size="14.00" fill="#ebc72d">Calvary</text>
</a>
</g>
</g>
<!-- blacksmith&#45;&gt;calvary -->
<g id="edge19" class="edge"><title>blacksmith&#45;&gt;calvary</title>
<path fill="none" stroke="#ebc72d" stroke-dasharray="1,5" d="M630.934,-122.329C594.825,-115.668 548.68,-107.74 507.347,-102.426 320.646,-78.4267 262.62,-129.729 85.3466,-66.4264 78.0451,-63.8191 70.809,-59.789 64.2827,-55.4516"/>
<polygon fill="#ebc72d" stroke="#ebc72d" points="66.0551,-52.4164 55.8837,-49.4512 61.986,-58.1122 66.0551,-52.4164"/>
</g>
<!-- alexander -->
<g id="node13" class="node"><title>alexander</title>
<g id="a_node13"><a xlink:href="greece_alexander_full.html" xlink:title="Alexander">
<ellipse fill="none" stroke="magenta" cx="873.347" cy="-33.2132" rx="47.3916" ry="18"/>
<text text-anchor="middle" x="873.347" y="-29.5132" font-family="Times,serif" font-size="14.00" fill="#ebc72d">Alexander</text>
</a>
</g>
</g>
<!-- blacksmith&#45;&gt;alexander -->
<g id="edge16" class="edge"><title>blacksmith&#45;&gt;alexander</title>
<path fill="none" stroke="#ebc72d" stroke-dasharray="1,5" d="M719.133,-120.824C743.796,-107.068 782.713,-85.3331 816.347,-66.4264 823.662,-62.3143 831.499,-57.8948 838.947,-53.6872"/>
<polygon fill="#ebc72d" stroke="#ebc72d" points="841.123,-56.4777 848.107,-48.5101 837.679,-50.3838 841.123,-56.4777"/>
</g>
<!-- battering_ram -->
<g id="node14" class="node"><title>battering_ram</title>
<g id="a_node14"><a xlink:href="greece_battering_ram_full.html" xlink:title="Battering\nRam">
<ellipse fill="none" stroke="magenta" cx="397.347" cy="-33.2132" rx="47.2526" ry="26.7407"/>
<text text-anchor="middle" x="397.347" y="-37.0132" font-family="Times,serif" font-size="14.00" fill="#ebc72d">Battering</text>
<text text-anchor="middle" x="397.347" y="-22.0132" font-family="Times,serif" font-size="14.00" fill="#ebc72d">Ram</text>
</a>
</g>
</g>
<!-- blacksmith&#45;&gt;battering_ram -->
<g id="edge18" class="edge"><title>blacksmith&#45;&gt;battering_ram</title>
<path fill="none" stroke="#ebc72d" stroke-dasharray="1,5" d="M630.736,-121.161C581.288,-109.613 511.548,-90.9594 453.347,-66.4264 447.984,-64.1658 442.494,-61.4981 437.149,-58.6812"/>
<polygon fill="#ebc72d" stroke="#ebc72d" points="438.79,-55.5891 428.339,-53.8453 435.421,-61.7254 438.79,-55.5891"/>
</g>
<!-- hoplite -->
<g id="node19" class="node"><title>hoplite</title>
<g id="a_node19"><a xlink:href="greece_hoplite_full.html" xlink:title="Hoplite">
<ellipse fill="none" stroke="magenta" cx="499.347" cy="-33.2132" rx="37.0935" ry="18"/>
<text text-anchor="middle" x="499.347" y="-29.5132" font-family="Times,serif" font-size="14.00" fill="#ebc72d">Hoplite</text>
</a>
</g>
</g>
<!-- blacksmith&#45;&gt;hoplite -->
<g id="edge21" class="edge"><title>blacksmith&#45;&gt;hoplite</title>
<path fill="none" stroke="#ebc72d" stroke-dasharray="1,5" d="M660.04,-121.028C629.263,-108.331 583.242,-88.1302 545.347,-66.4264 539.208,-62.9105 532.853,-58.7996 526.898,-54.7136"/>
<polygon fill="#ebc72d" stroke="#ebc72d" points="528.722,-51.7169 518.532,-48.817 524.689,-57.4387 528.722,-51.7169"/>
</g>
<!-- onager -->
<g id="node25" class="node"><title>onager</title>
<g id="a_node25"><a xlink:href="greece_onager_full.html" xlink:title="Onager">
<ellipse fill="none" stroke="magenta" cx="771.347" cy="-33.2132" rx="36.2938" ry="18"/>
<text text-anchor="middle" x="771.347" y="-29.5132" font-family="Times,serif" font-size="14.00" fill="#ebc72d">Onager</text>
</a>
</g>
</g>
<!-- blacksmith&#45;&gt;onager -->
<g id="edge22" class="edge"><title>blacksmith&#45;&gt;onager</title>
<path fill="none" stroke="#ebc72d" stroke-dasharray="1,5" d="M705.053,-120.676C717.364,-104.62 737.793,-77.9752 752.725,-58.5005"/>
<polygon fill="#ebc72d" stroke="#ebc72d" points="755.641,-60.4488 758.948,-50.3833 750.086,-56.1895 755.641,-60.4488"/>
</g>
<!-- advanced_buildings -->
<g id="node26" class="node"><title>advanced_buildings</title>
<ellipse fill="none" stroke="black" cx="635.347" cy="-33.2132" rx="81.4863" ry="18"/>
<text text-anchor="middle" x="635.347" y="-29.5132" font-family="Times,serif" font-size="14.00">advanced_buildings</text>
</g>
<!-- blacksmith&#45;&gt;advanced_buildings -->
<g id="edge15" class="edge"><title>blacksmith&#45;&gt;advanced_buildings</title>
<path fill="none" stroke="#ebc72d" stroke-dasharray="1,5" d="M686.143,-120.676C676.959,-105.043 661.877,-79.3723 650.528,-60.0549"/>
<polygon fill="#ebc72d" stroke="#ebc72d" points="653.539,-58.2693 645.456,-51.42 647.503,-61.8151 653.539,-58.2693"/>
</g>
<!-- psiloi -->
<g id="node2" class="node"><title>psiloi</title>
<g id="a_node2"><a xlink:href="greece_psiloi_full.html" xlink:title="Psiloi">
<ellipse fill="none" stroke="magenta" cx="125.347" cy="-33.2132" rx="30.5947" ry="18"/>
<text text-anchor="middle" x="125.347" y="-29.5132" font-family="Times,serif" font-size="14.00" fill="#ebc72d">Psiloi</text>
</a>
</g>
</g>
<!-- air_box -->
<g id="node3" class="node"><title>air_box</title>
<g id="a_node3"><a xlink:href="greece_air_box_full.html" xlink:title="Air\nBox">
<polygon fill="none" stroke="red" points="1470.52,-43.543 1436.35,-66.641 1402.17,-43.543 1402.2,-6.16955 1470.49,-6.16955 1470.52,-43.543"/>
<text text-anchor="middle" x="1436.35" y="-37.0132" font-family="Times,serif" font-size="14.00" fill="#ebc72d">Air</text>
<text text-anchor="middle" x="1436.35" y="-22.0132" font-family="Times,serif" font-size="14.00" fill="#ebc72d">Box</text>
</a>
</g>
</g>
<!-- palace -->
<g id="node4" class="node"><title>palace</title>
<g id="a_node4"><a xlink:href="greece_palace_full.html" xlink:title="Palace">
<polygon fill="none" stroke="red" points="1084.9,-141.202 1043.35,-153.64 1001.79,-141.202 1001.83,-121.077 1084.86,-121.077 1084.9,-141.202"/>
<text text-anchor="middle" x="1043.35" y="-131.94" font-family="Times,serif" font-size="14.00" fill="#ebc72d">Palace</text>
</a>
</g>
</g>
<!-- palace&#45;&gt;chariot -->
<g id="edge34" class="edge"><title>palace&#45;&gt;chariot</title>
<path fill="none" stroke="#ebc72d" d="M1058.09,-120.676C1075.54,-104.14 1104.84,-76.3755 1125.53,-56.7766"/>
<polygon fill="#ebc72d" stroke="#ebc72d" points="1128.14,-59.1238 1132.99,-49.7053 1123.33,-54.0422 1128.14,-59.1238"/>
</g>
<!-- artemis -->
<g id="node7" class="node"><title>artemis</title>
<g id="a_node7"><a xlink:href="greece_artemis_full.html" xlink:title="Artemis">
<ellipse fill="none" stroke="magenta" cx="978.347" cy="-33.2132" rx="39.7935" ry="18"/>
<text text-anchor="middle" x="978.347" y="-29.5132" font-family="Times,serif" font-size="14.00" fill="#ebc72d">Artemis</text>
</a>
</g>
</g>
<!-- palace&#45;&gt;artemis -->
<g id="edge33" class="edge"><title>palace&#45;&gt;artemis</title>
<path fill="none" stroke="#ebc72d" d="M1034.31,-120.676C1024.07,-104.857 1007.18,-78.7597 994.628,-59.3677"/>
<polygon fill="#ebc72d" stroke="#ebc72d" points="997.406,-57.2195 989.035,-50.7263 991.53,-61.0231 997.406,-57.2195"/>
</g>
<!-- dragon -->
<g id="node11" class="node"><title>dragon</title>
<g id="a_node11"><a xlink:href="greece_dragon_full.html" xlink:title="Dragon">
<ellipse fill="none" stroke="magenta" cx="1241.35" cy="-33.2132" rx="37.0935" ry="18"/>
<text text-anchor="middle" x="1241.35" y="-29.5132" font-family="Times,serif" font-size="14.00" fill="#ebc72d">Dragon</text>
</a>
</g>
</g>
<!-- palace&#45;&gt;dragon -->
<g id="edge35" class="edge"><title>palace&#45;&gt;dragon</title>
<path fill="none" stroke="#ebc72d" stroke-dasharray="1,5" d="M1062.62,-121.044C1071.93,-114.854 1083.42,-107.742 1094.35,-102.426 1137.2,-81.5748 1153,-88.2912 1195.35,-66.4264 1201.75,-63.1204 1208.29,-59.0385 1214.35,-54.9041"/>
<polygon fill="#ebc72d" stroke="#ebc72d" points="1216.69,-57.5342 1222.83,-48.8936 1212.64,-51.8249 1216.69,-57.5342"/>
</g>
<!-- palace&#45;&gt;alexander -->
<g id="edge32" class="edge"><title>palace&#45;&gt;alexander</title>
<path fill="none" stroke="#ebc72d" d="M1022.14,-120.949C1013.02,-115.144 1002.22,-108.361 992.347,-102.426 964.707,-85.8115 957.324,-82.4665 929.347,-66.4264 922.231,-62.3471 914.612,-57.9698 907.357,-53.7977"/>
<polygon fill="#ebc72d" stroke="#ebc72d" points="908.84,-50.6134 898.427,-48.6607 905.35,-56.681 908.84,-50.6134"/>
</g>
<!-- oxybeles -->
<g id="node24" class="node"><title>oxybeles</title>
<g id="a_node24"><a xlink:href="greece_oxybeles_full.html" xlink:title="Oxybeles">
<ellipse fill="none" stroke="magenta" cx="1340.35" cy="-33.2132" rx="44.393" ry="18"/>
<text text-anchor="middle" x="1340.35" y="-29.5132" font-family="Times,serif" font-size="14.00" fill="#ebc72d">Oxybeles</text>
</a>
</g>
</g>
<!-- palace&#45;&gt;oxybeles -->
<g id="edge37" class="edge"><title>palace&#45;&gt;oxybeles</title>
<path fill="none" stroke="#ebc72d" stroke-dasharray="1,5" d="M1061.33,-120.911C1070.71,-114.381 1082.65,-107.016 1094.35,-102.426 1175.58,-70.5573 1205.85,-97.5949 1287.35,-66.4264 1295.27,-63.3975 1303.33,-59.1838 1310.7,-54.8009"/>
<polygon fill="#ebc72d" stroke="#ebc72d" points="1312.97,-57.5054 1319.6,-49.2351 1309.26,-51.5707 1312.97,-57.5054"/>
</g>
<!-- palace&#45;&gt;onager -->
<g id="edge36" class="edge"><title>palace&#45;&gt;onager</title>
<path fill="none" stroke="#ebc72d" stroke-dasharray="1,5" d="M1025.33,-121.002C1015.94,-114.496 1004,-107.124 992.347,-102.426 918.697,-72.7431 890.27,-97.8528 817.347,-66.4264 810.452,-63.4553 803.544,-59.3572 797.253,-55.0789"/>
<polygon fill="#ebc72d" stroke="#ebc72d" points="799.278,-52.2242 789.118,-49.222 795.189,-57.9051 799.278,-52.2242"/>
</g>
<!-- advanced_barracks -->
<g id="node8" class="node"><title>advanced_barracks</title>
<g id="a_node8"><a xlink:href="greece_advanced_barracks_full.html" xlink:title="Advanced\nBarracks">
<polygon fill="none" stroke="red" points="409.459,-145.969 347.347,-169.067 285.234,-145.969 285.292,-108.596 409.401,-108.596 409.459,-145.969"/>
<text text-anchor="middle" x="347.347" y="-139.44" font-family="Times,serif" font-size="14.00" fill="#ebc72d">Advanced</text>
<text text-anchor="middle" x="347.347" y="-124.44" font-family="Times,serif" font-size="14.00" fill="#ebc72d">Barracks</text>
</a>
</g>
</g>
<!-- advanced_barracks&#45;&gt;psiloi -->
<g id="edge7" class="edge"><title>advanced_barracks&#45;&gt;psiloi</title>
<path fill="none" stroke="#ebc72d" d="M284.909,-116.718C248.722,-105.01 203.013,-87.907 165.347,-66.4264 159.889,-63.3137 154.404,-59.4738 149.322,-55.5429"/>
<polygon fill="#ebc72d" stroke="#ebc72d" points="151.19,-52.5503 141.224,-48.9538 146.772,-57.98 151.19,-52.5503"/>
</g>
<!-- advanced_barracks&#45;&gt;calvary -->
<g id="edge3" class="edge"><title>advanced_barracks&#45;&gt;calvary</title>
<path fill="none" stroke="#ebc72d" d="M285.238,-121.075C219.57,-106.272 120.683,-82.5374 85.3466,-66.4264 78.5396,-63.3229 71.6528,-59.2419 65.3273,-55.0317"/>
<polygon fill="#ebc72d" stroke="#ebc72d" points="67.3118,-52.1486 57.1098,-49.2901 63.3026,-57.8867 67.3118,-52.1486"/>
</g>
<!-- archer -->
<g id="node10" class="node"><title>archer</title>
<g id="a_node10"><a xlink:href="greece_archer_full.html" xlink:title="Archer">
<ellipse fill="none" stroke="magenta" cx="209.347" cy="-33.2132" rx="35.194" ry="18"/>
<text text-anchor="middle" x="209.347" y="-29.5132" font-family="Times,serif" font-size="14.00" fill="#ebc72d">Archer</text>
</a>
</g>
</g>
<!-- advanced_barracks&#45;&gt;archer -->
<g id="edge1" class="edge"><title>advanced_barracks&#45;&gt;archer</title>
<path fill="none" stroke="#ebc72d" d="M311.449,-108.516C288.286,-91.6598 258.601,-70.0571 237.216,-54.4948"/>
<polygon fill="#ebc72d" stroke="#ebc72d" points="239.034,-51.4887 228.889,-48.4345 234.915,-57.1487 239.034,-51.4887"/>
</g>
<!-- advanced_barracks&#45;&gt;battering_ram -->
<g id="edge2" class="edge"><title>advanced_barracks&#45;&gt;battering_ram</title>
<path fill="none" stroke="#ebc72d" d="M360.353,-108.516C366.453,-96.2633 373.802,-81.5026 380.337,-68.377"/>
<polygon fill="#ebc72d" stroke="#ebc72d" points="383.598,-69.6796 384.922,-59.1678 377.332,-66.5597 383.598,-69.6796"/>
</g>
<!-- peltast -->
<g id="node16" class="node"><title>peltast</title>
<g id="a_node16"><a xlink:href="greece_peltast_full.html" xlink:title="Peltast">
<ellipse fill="none" stroke="magenta" cx="297.347" cy="-33.2132" rx="34.394" ry="18"/>
<text text-anchor="middle" x="297.347" y="-29.5132" font-family="Times,serif" font-size="14.00" fill="#ebc72d">Peltast</text>
</a>
</g>
</g>
<!-- advanced_barracks&#45;&gt;peltast -->
<g id="edge6" class="edge"><title>advanced_barracks&#45;&gt;peltast</title>
<path fill="none" stroke="#ebc72d" d="M334.34,-108.516C326.887,-93.5463 317.57,-74.8332 310.151,-59.9318"/>
<polygon fill="#ebc72d" stroke="#ebc72d" points="313.179,-58.1595 305.589,-50.7676 306.912,-61.2794 313.179,-58.1595"/>
</g>
<!-- advanced_barracks&#45;&gt;hoplite -->
<g id="edge4" class="edge"><title>advanced_barracks&#45;&gt;hoplite</title>
<path fill="none" stroke="#ebc72d" d="M388.869,-108.448C408.532,-95.9111 432.272,-80.5786 453.347,-66.4264 459.111,-62.5555 465.228,-58.3452 471.056,-54.2839"/>
<polygon fill="#ebc72d" stroke="#ebc72d" points="473.132,-57.103 479.312,-48.4973 469.114,-51.3707 473.132,-57.103"/>
</g>
<!-- advanced_barracks&#45;&gt;onager -->
<g id="edge5" class="edge"><title>advanced_barracks&#45;&gt;onager</title>
<path fill="none" stroke="#ebc72d" d="M409.528,-118.19C431.49,-112.719 456.424,-106.89 479.347,-102.426 587.807,-81.3046 622.654,-107.219 725.347,-66.4264 732.448,-63.6055 739.513,-59.4925 745.898,-55.143"/>
<polygon fill="#ebc72d" stroke="#ebc72d" points="748.092,-57.8753 754.123,-49.1644 743.976,-52.2131 748.092,-57.8753"/>
</g>
<!-- barley_field -->
<g id="node12" class="node"><title>barley_field</title>
<g id="a_node12"><a xlink:href="greece_barley_field_full.html" xlink:title="Barley\nField">
<polygon fill="none" stroke="red" points="438.495,-320.396 392.347,-343.494 346.199,-320.396 346.242,-283.022 438.452,-283.022 438.495,-320.396"/>
<text text-anchor="middle" x="392.347" y="-313.866" font-family="Times,serif" font-size="14.00" fill="#ebc72d">Barley</text>
<text text-anchor="middle" x="392.347" y="-298.866" font-family="Times,serif" font-size="14.00" fill="#ebc72d">Field</text>
</a>
</g>
</g>
<!-- barley_field&#45;&gt;calvary -->
<g id="edge8" class="edge"><title>barley_field&#45;&gt;calvary</title>
<path fill="none" stroke="#ebc72d" stroke-dasharray="1,5" d="M346.228,-285.905C297.939,-260.554 221.102,-217.049 162.347,-168.853 120.753,-134.735 79.9451,-86.8624 57.0723,-58.3467"/>
<polygon fill="#ebc72d" stroke="#ebc72d" points="59.8,-56.1535 50.8396,-50.4999 54.3187,-60.5072 59.8,-56.1535"/>
</g>
<!-- trojan_horse -->
<g id="node15" class="node"><title>trojan_horse</title>
<g id="a_node15"><a xlink:href="greece_trojan_horse_full.html" xlink:title="Trojan\nHorse">
<polygon fill="none" stroke="red" points="1308.49,-145.969 1262.35,-169.067 1216.2,-145.969 1216.24,-108.596 1308.45,-108.596 1308.49,-145.969"/>
<text text-anchor="middle" x="1262.35" y="-139.44" font-family="Times,serif" font-size="14.00" fill="#ebc72d">Trojan</text>
<text text-anchor="middle" x="1262.35" y="-124.44" font-family="Times,serif" font-size="14.00" fill="#ebc72d">Horse</text>
</a>
</g>
</g>
<!-- tower -->
<g id="node17" class="node"><title>tower</title>
<g id="a_node17"><a xlink:href="greece_tower_full.html" xlink:title="Tower">
<polygon fill="none" stroke="red" points="982.899,-141.202 941.347,-153.64 899.795,-141.202 899.833,-121.077 982.86,-121.077 982.899,-141.202"/>
<text text-anchor="middle" x="941.347" y="-131.94" font-family="Times,serif" font-size="14.00" fill="#ebc72d">Tower</text>
</a>
</g>
</g>
<!-- temple -->
<g id="node18" class="node"><title>temple</title>
<g id="a_node18"><a xlink:href="greece_temple_full.html" xlink:title="Temple">
<polygon fill="none" stroke="red" points="1197.64,-141.202 1150.35,-153.64 1103.05,-141.202 1103.09,-121.077 1197.6,-121.077 1197.64,-141.202"/>
<text text-anchor="middle" x="1150.35" y="-131.94" font-family="Times,serif" font-size="14.00" fill="#ebc72d">Temple</text>
</a>
</g>
</g>
<!-- temple&#45;&gt;air_box -->
<g id="edge43" class="edge"><title>temple&#45;&gt;air_box</title>
<path fill="none" stroke="#ebc72d" stroke-dasharray="1,5" d="M1170.68,-121.015C1181.22,-114.512 1194.55,-107.139 1207.35,-102.426 1286.36,-73.3336 1316.36,-100.535 1393.35,-66.4264 1398.02,-64.3542 1402.67,-61.6913 1407.09,-58.7861"/>
<polygon fill="#ebc72d" stroke="#ebc72d" points="1409.11,-61.6387 1415.24,-52.9919 1405.06,-55.9335 1409.11,-61.6387"/>
</g>
<!-- temple&#45;&gt;chariot -->
<g id="edge45" class="edge"><title>temple&#45;&gt;chariot</title>
<path fill="none" stroke="#ebc72d" stroke-dasharray="1,5" d="M1150.21,-120.676C1150.06,-105.467 1149.81,-80.7588 1149.62,-61.642"/>
<polygon fill="#ebc72d" stroke="#ebc72d" points="1153.12,-61.3847 1149.52,-51.42 1146.12,-61.4544 1153.12,-61.3847"/>
</g>
<!-- temple&#45;&gt;atlas -->
<g id="edge44" class="edge"><title>temple&#45;&gt;atlas</title>
<path fill="none" stroke="#ebc72d" d="M1138.53,-120.676C1124.72,-104.359 1101.65,-77.1074 1085.11,-57.5578"/>
<polygon fill="#ebc72d" stroke="#ebc72d" points="1087.59,-55.0772 1078.46,-49.7053 1082.25,-59.5995 1087.59,-55.0772"/>
</g>
<!-- temple&#45;&gt;dragon -->
<g id="edge46" class="edge"><title>temple&#45;&gt;dragon</title>
<path fill="none" stroke="#ebc72d" d="M1163,-120.676C1177.77,-104.381 1202.41,-77.1805 1220.12,-57.6366"/>
<polygon fill="#ebc72d" stroke="#ebc72d" points="1222.88,-59.8035 1227,-50.043 1217.69,-55.1031 1222.88,-59.8035"/>
</g>
<!-- slave -->
<g id="node20" class="node"><title>slave</title>
<g id="a_node20"><a xlink:href="greece_slave_full.html" xlink:title="Slave">
<ellipse fill="none" stroke="magenta" cx="811.347" cy="-397.279" rx="30.5947" ry="18"/>
<text text-anchor="middle" x="811.347" y="-393.579" font-family="Times,serif" font-size="14.00" fill="#ebc72d">Slave</text>
</a>
</g>
</g>
<!-- slave&#45;&gt;blacksmith -->
<g id="edge40" class="edge"><title>slave&#45;&gt;blacksmith</title>
<path fill="none" stroke="#ebc72d" stroke-width="2" d="M694.347,-309.066C649.597,-276.724 669.33,-201.48 683.858,-161.942"/>
<polygon fill="#ebc72d" stroke="#ebc72d" stroke-width="2" points="687.174,-163.071 687.487,-152.481 680.638,-160.564 687.174,-163.071"/>
</g>
<!-- slave&#45;&gt;barley_field -->
<g id="edge38" class="edge"><title>slave&#45;&gt;barley_field</title>
<path fill="none" stroke="#ebc72d" stroke-width="2" d="M782.876,-390.489C714.348,-376.552 539.197,-340.932 448.568,-322.5"/>
<polygon fill="#ebc72d" stroke="#ebc72d" stroke-width="2" points="449.239,-319.065 438.742,-320.502 447.844,-325.924 449.239,-319.065"/>
</g>
<!-- slave&#45;&gt;tower -->
<g id="edge42" class="edge"><title>slave&#45;&gt;tower</title>
<path fill="none" stroke="#ebc72d" stroke-width="2" d="M840.136,-390.525C865.65,-383.806 901.669,-370.017 920.347,-343.279 958.529,-288.619 952.51,-205.117 946.222,-162.953"/>
<polygon fill="#ebc72d" stroke="#ebc72d" stroke-width="2" points="949.653,-162.241 944.603,-152.927 942.742,-163.358 949.653,-162.241"/>
</g>
<!-- barracks -->
<g id="node22" class="node"><title>barracks</title>
<g id="a_node22"><a xlink:href="greece_barracks_full.html" xlink:title="Barracks">
<polygon fill="none" stroke="red" points="497.786,-228.415 445.347,-240.853 392.907,-228.415 392.956,-208.291 497.737,-208.291 497.786,-228.415"/>
<text text-anchor="middle" x="445.347" y="-219.153" font-family="Times,serif" font-size="14.00" fill="#ebc72d">Barracks</text>
</a>
</g>
</g>
<!-- slave&#45;&gt;barracks -->
<g id="edge39" class="edge"><title>slave&#45;&gt;barracks</title>
<path fill="none" stroke="#ebc72d" stroke-width="2" d="M792.735,-382.659C769.677,-365.801 729.174,-336.236 694.347,-311.066"/>
<path fill="none" stroke="#ebc72d" stroke-width="2" d="M694.347,-309.066C634.857,-266.071 551.976,-243.481 498.488,-232.618"/>
<polygon fill="#ebc72d" stroke="#ebc72d" stroke-width="2" points="499.014,-229.154 488.527,-230.661 497.665,-236.023 499.014,-229.154"/>
</g>
<!-- castle -->
<g id="node23" class="node"><title>castle</title>
<g id="a_node23"><a xlink:href="greece_castle_full.html" xlink:title="Castle">
<polygon fill="none" stroke="red" points="911.685,-315.628 871.347,-328.066 831.009,-315.628 831.046,-295.504 911.647,-295.504 911.685,-315.628"/>
<text text-anchor="middle" x="871.347" y="-306.366" font-family="Times,serif" font-size="14.00" fill="#ebc72d">Castle</text>
</a>
</g>
</g>
<!-- slave&#45;&gt;castle -->
<g id="edge41" class="edge"><title>slave&#45;&gt;castle</title>
<path fill="none" stroke="#ebc72d" stroke-width="2" d="M828.56,-371.832C837.072,-359.743 847.273,-345.255 855.58,-333.459"/>
<polygon fill="#ebc72d" stroke="#ebc72d" stroke-width="2" points="825.528,-370.06 822.632,-380.251 831.251,-374.09 825.528,-370.06"/>
<polygon fill="#ebc72d" stroke="#ebc72d" stroke-width="2" points="858.607,-335.238 861.503,-325.046 852.884,-331.208 858.607,-335.238"/>
</g>
<!-- engineer -->
<g id="node21" class="node"><title>engineer</title>
<g id="a_node21"><a xlink:href="greece_engineer_full.html" xlink:title="Engineer">
<ellipse fill="none" stroke="magenta" cx="1096.35" cy="-222.853" rx="42.4939" ry="18"/>
<text text-anchor="middle" x="1096.35" y="-219.153" font-family="Times,serif" font-size="14.00" fill="#ebc72d">Engineer</text>
</a>
</g>
</g>
<!-- engineer&#45;&gt;air_box -->
<g id="edge26" class="edge"><title>engineer&#45;&gt;air_box</title>
<path fill="none" stroke="#ebc72d" stroke-width="2" d="M1388.35,-134.64C1403.03,-114.93 1414.97,-90.0157 1423.27,-69.9338"/>
<polygon fill="#ebc72d" stroke="#ebc72d" stroke-width="2" points="1426.58,-71.0919 1427.05,-60.5076 1420.08,-68.4878 1426.58,-71.0919"/>
</g>
<!-- engineer&#45;&gt;palace -->
<g id="edge28" class="edge"><title>engineer&#45;&gt;palace</title>
<path fill="none" stroke="#ebc72d" stroke-width="2" d="M1085.88,-205.017C1077.86,-192.126 1066.7,-174.193 1057.83,-159.926"/>
<polygon fill="#ebc72d" stroke="#ebc72d" stroke-width="2" points="1060.64,-157.813 1052.38,-151.17 1054.69,-161.51 1060.64,-157.813"/>
</g>
<!-- engineer&#45;&gt;trojan_horse -->
<g id="edge31" class="edge"><title>engineer&#45;&gt;trojan_horse</title>
<path fill="none" stroke="#ebc72d" stroke-width="2" d="M1124.2,-209.119C1146.61,-198.712 1178.79,-183.395 1206.35,-168.853 1212.01,-165.865 1217.93,-162.607 1223.72,-159.349"/>
<polygon fill="#ebc72d" stroke="#ebc72d" stroke-width="2" points="1225.68,-162.258 1232.64,-154.267 1222.22,-156.176 1225.68,-162.258"/>
</g>
<!-- engineer&#45;&gt;tower -->
<g id="edge30" class="edge"><title>engineer&#45;&gt;tower</title>
<path fill="none" stroke="#ebc72d" stroke-width="2" d="M1069.05,-208.798C1047.86,-198.458 1017.89,-183.385 992.347,-168.853 984.146,-164.187 975.401,-158.815 967.51,-153.812"/>
<polygon fill="#ebc72d" stroke="#ebc72d" stroke-width="2" points="969.346,-150.832 959.039,-148.379 965.567,-156.724 969.346,-150.832"/>
</g>
<!-- engineer&#45;&gt;temple -->
<g id="edge29" class="edge"><title>engineer&#45;&gt;temple</title>
<path fill="none" stroke="#ebc72d" stroke-width="2" d="M1107.02,-205.017C1115.13,-192.206 1126.41,-174.414 1135.42,-160.191"/>
<polygon fill="#ebc72d" stroke="#ebc72d" stroke-width="2" points="1138.57,-161.768 1140.96,-151.448 1132.65,-158.021 1138.57,-161.768"/>
</g>
<!-- engineer&#45;&gt;oxybeles -->
<g id="edge27" class="edge"><title>engineer&#45;&gt;oxybeles</title>
<path fill="none" stroke="#ebc72d" stroke-dasharray="5,2" d="M1135.73,-216.249C1208.18,-205.043 1357.98,-177.401 1388.35,-136.64"/>
<path fill="none" stroke="#ebc72d" stroke-dasharray="5,2" d="M1388.35,-134.64C1406.34,-110.487 1384.63,-78.5186 1364.89,-57.2043"/>
<polygon fill="#ebc72d" stroke="#ebc72d" points="1367.26,-54.6164 1357.79,-49.8679 1362.23,-59.4863 1367.26,-54.6164"/>
</g>
<!-- barracks&#45;&gt;psiloi -->
<g id="edge14" class="edge"><title>barracks&#45;&gt;psiloi</title>
<path fill="none" stroke="#ebc72d" d="M176.347,-134.64C153.789,-115.358 140.054,-83.645 132.608,-61.0156"/>
<polygon fill="#ebc72d" stroke="#ebc72d" points="135.914,-59.858 129.62,-51.3348 129.225,-61.9223 135.914,-59.858"/>
</g>
<!-- barracks&#45;&gt;advanced_barracks -->
<g id="edge9" class="edge"><title>barracks&#45;&gt;advanced_barracks</title>
<path fill="none" stroke="#ebc72d" stroke-dasharray="5,2" d="M429.601,-208.162C416.675,-196.922 397.903,-180.599 381.554,-166.384"/>
<polygon fill="#ebc72d" stroke="#ebc72d" points="383.603,-163.527 373.76,-159.607 379.01,-168.809 383.603,-163.527"/>
</g>
<!-- barracks&#45;&gt;calvary -->
<g id="edge11" class="edge"><title>barracks&#45;&gt;calvary</title>
<path fill="none" stroke="#ebc72d" d="M392.964,-217.391C334.06,-209.863 238.534,-189.797 176.347,-136.64"/>
<path fill="none" stroke="#ebc72d" d="M176.347,-134.64C157.036,-118.133 101.683,-78.6843 67.2329,-54.432"/>
<polygon fill="#ebc72d" stroke="#ebc72d" points="69.1534,-51.5038 58.9595,-48.6167 65.128,-57.2307 69.1534,-51.5038"/>
</g>
<!-- barracks&#45;&gt;archer -->
<g id="edge10" class="edge"><title>barracks&#45;&gt;archer</title>
<path fill="none" stroke="#ebc72d" d="M176.347,-134.64C153.983,-115.523 172.569,-80.9663 189.588,-57.8041"/>
<polygon fill="#ebc72d" stroke="#ebc72d" points="192.393,-59.8984 195.709,-49.8358 186.842,-55.6343 192.393,-59.8984"/>
</g>
<!-- barracks&#45;&gt;peltast -->
<g id="edge13" class="edge"><title>barracks&#45;&gt;peltast</title>
<path fill="none" stroke="#ebc72d" d="M460.248,-208.035C475.582,-192.14 496.786,-164.615 493.347,-136.64"/>
<path fill="none" stroke="#ebc72d" d="M493.347,-134.64C484.311,-61.1466 405.35,-103.661 341.347,-66.4264 335.547,-63.0523 329.586,-59.0774 323.997,-55.0929"/>
<polygon fill="#ebc72d" stroke="#ebc72d" points="325.727,-52.02 315.599,-48.9088 321.576,-57.6567 325.727,-52.02"/>
</g>
<!-- barracks&#45;&gt;hoplite -->
<g id="edge12" class="edge"><title>barracks&#45;&gt;hoplite</title>
<path fill="none" stroke="#ebc72d" d="M493.347,-134.64C490.311,-109.953 492.51,-81.655 495.058,-61.403"/>
<polygon fill="#ebc72d" stroke="#ebc72d" points="498.548,-61.7135 496.438,-51.331 491.613,-60.7634 498.548,-61.7135"/>
</g>
<!-- castle&#45;&gt;alexander -->
<g id="edge23" class="edge"><title>castle&#45;&gt;alexander</title>
<path fill="none" stroke="#ebc72d" stroke-dasharray="1,5" d="M871.446,-295.436C871.758,-252.493 872.726,-119.433 873.148,-61.5611"/>
<polygon fill="#ebc72d" stroke="#ebc72d" points="876.649,-61.3782 873.222,-51.3529 869.649,-61.3271 876.649,-61.3782"/>
</g>
<!-- castle&#45;&gt;engineer -->
<g id="edge24" class="edge"><title>castle&#45;&gt;engineer</title>
<path fill="none" stroke="#ebc72d" d="M907.497,-295.375C948.179,-279.968 1014.08,-255.009 1056.3,-239.021"/>
<polygon fill="#ebc72d" stroke="#ebc72d" points="1057.6,-242.272 1065.71,-235.457 1055.12,-235.725 1057.6,-242.272"/>
</g>
</g>
</svg>
