<?xml version="1.0" encoding="UTF-8" standalone="no"?>
<!DOCTYPE svg PUBLIC "-//W3C//DTD SVG 1.1//EN"
 "http://www.w3.org/Graphics/SVG/1.1/DTD/svg11.dtd">
<!-- Generated by graphviz version 2.38.0 (20140413.2041)
 -->
<!-- Title: test Pages: 1 -->
<svg width="1438pt" height="644pt"
 viewBox="0.00 0.00 1437.51 644.17" xmlns="http://www.w3.org/2000/svg" xmlns:xlink="http://www.w3.org/1999/xlink">
<g id="graph0" class="graph" transform="scale(1 1) rotate(0) translate(4 640.167)">
<title>test</title>
<polygon fill="#151515" stroke="none" points="-4,4 -4,-640.167 1433.51,-640.167 1433.51,4 -4,4"/>
<!-- blacksmith -->
<g id="node1" class="node"><title>blacksmith</title>
<g id="a_node1"><a xlink:href="greece_blacksmith_full.html" xlink:title="Blacksmith">
<polygon fill="none" stroke="red" points="704.898,-449.302 641.465,-461.74 578.032,-449.302 578.091,-429.178 704.838,-429.178 704.898,-449.302"/>
<text text-anchor="middle" x="641.465" y="-440.04" font-family="Times,serif" font-size="14.00" fill="#ebc72d">Blacksmith</text>
</a>
</g>
</g>
<!-- palace -->
<g id="node4" class="node"><title>palace</title>
<g id="a_node4"><a xlink:href="greece_palace_full.html" xlink:title="Palace">
<polygon fill="none" stroke="red" points="627.017,-245.302 585.465,-257.74 543.913,-245.302 543.951,-225.178 626.978,-225.178 627.017,-245.302"/>
<text text-anchor="middle" x="585.465" y="-236.04" font-family="Times,serif" font-size="14.00" fill="#ebc72d">Palace</text>
</a>
</g>
</g>
<!-- blacksmith&#45;&gt;palace -->
<g id="edge26" class="edge"><title>blacksmith&#45;&gt;palace</title>
<path fill="none" stroke="#ebc72d" stroke-dasharray="1,5" d="M634.317,-429.115C629.042,-418.597 622.018,-403.554 617.465,-389.74 603.671,-347.89 594.281,-297.429 589.403,-267.275"/>
<polygon fill="#ebc72d" stroke="#ebc72d" points="592.82,-266.473 587.81,-257.137 585.905,-267.559 592.82,-266.473"/>
</g>
<!-- temple -->
<g id="node18" class="node"><title>temple</title>
<g id="a_node18"><a xlink:href="greece_temple_full.html" xlink:title="Temple">
<polygon fill="none" stroke="red" points="366.763,-357.302 319.465,-369.74 272.166,-357.302 272.211,-337.178 366.719,-337.178 366.763,-357.302"/>
<text text-anchor="middle" x="319.465" y="-348.04" font-family="Times,serif" font-size="14.00" fill="#ebc72d">Temple</text>
</a>
</g>
</g>
<!-- blacksmith&#45;&gt;temple -->
<g id="edge28" class="edge"><title>blacksmith&#45;&gt;temple</title>
<path fill="none" stroke="#ebc72d" stroke-dasharray="1,5" d="M577.895,-430.571C531.787,-421.115 468.177,-406.766 413.465,-389.74 393.118,-383.408 370.911,-374.752 353.193,-367.405"/>
<polygon fill="#ebc72d" stroke="#ebc72d" points="354.426,-364.127 343.851,-363.48 351.715,-370.58 354.426,-364.127"/>
</g>
<!-- helmets -->
<g id="node26" class="node"><title>helmets</title>
<g id="a_node26"><a xlink:href="greece_helmets_full.html" xlink:title="Helmets">
<polygon fill="none" stroke="green" points="744.629,-369.74 650.512,-369.74 626.3,-333.74 720.418,-333.74 744.629,-369.74"/>
<text text-anchor="middle" x="685.465" y="-348.04" font-family="Times,serif" font-size="14.00" fill="#ebc72d">Helmets</text>
</a>
</g>
</g>
<!-- blacksmith&#45;&gt;helmets -->
<g id="edge25" class="edge"><title>blacksmith&#45;&gt;helmets</title>
<path fill="none" stroke="#ebc72d" d="M648.147,-429.071C654.618,-415.835 664.599,-395.419 672.611,-379.031"/>
<polygon fill="#ebc72d" stroke="#ebc72d" points="675.812,-380.453 677.06,-369.932 669.523,-377.378 675.812,-380.453"/>
</g>
<!-- advanced_buildings -->
<g id="node27" class="node"><title>advanced_buildings</title>
<g id="a_node27"><a xlink:href="greece_advanced_buildings_full.html" xlink:title="Advanced\nBuildings">
<polygon fill="none" stroke="green" points="570.184,-389.74 452.913,-389.74 422.746,-313.74 540.016,-313.74 570.184,-389.74"/>
<text text-anchor="middle" x="496.465" y="-355.54" font-family="Times,serif" font-size="14.00" fill="#ebc72d">Advanced</text>
<text text-anchor="middle" x="496.465" y="-340.54" font-family="Times,serif" font-size="14.00" fill="#ebc72d">Buildings</text>
</a>
</g>
</g>
<!-- blacksmith&#45;&gt;advanced_buildings -->
<g id="edge24" class="edge"><title>blacksmith&#45;&gt;advanced_buildings</title>
<path fill="none" stroke="#ebc72d" stroke-dasharray="1,5" d="M619.442,-429.071C604.812,-419.99 584.736,-407.529 565.047,-395.309"/>
<polygon fill="#ebc72d" stroke="#ebc72d" points="566.693,-392.211 556.351,-389.911 563.001,-398.158 566.693,-392.211"/>
</g>
<!-- shields -->
<g id="node28" class="node"><title>shields</title>
<g id="a_node28"><a xlink:href="greece_shields_full.html" xlink:title="Shields">
<polygon fill="none" stroke="green" points="868.694,-369.74 784.018,-369.74 762.235,-333.74 846.911,-333.74 868.694,-369.74"/>
<text text-anchor="middle" x="815.465" y="-348.04" font-family="Times,serif" font-size="14.00" fill="#ebc72d">Shields</text>
</a>
</g>
</g>
<!-- blacksmith&#45;&gt;shields -->
<g id="edge27" class="edge"><title>blacksmith&#45;&gt;shields</title>
<path fill="none" stroke="#ebc72d" d="M672.28,-429.123C695.001,-418.851 726.513,-404.117 753.465,-389.74 761.912,-385.234 770.837,-380.124 779.203,-375.171"/>
<polygon fill="#ebc72d" stroke="#ebc72d" points="781.233,-378.035 788.013,-369.893 777.636,-372.03 781.233,-378.035"/>
</g>
<!-- weapons -->
<g id="node33" class="node"><title>weapons</title>
<g id="a_node33"><a xlink:href="greece_weapons_full.html" xlink:title="Weapons">
<polygon fill="none" stroke="green" points="1016.06,-369.74 913.3,-369.74 886.864,-333.74 989.629,-333.74 1016.06,-369.74"/>
<text text-anchor="middle" x="951.465" y="-348.04" font-family="Times,serif" font-size="14.00" fill="#ebc72d">Weapons</text>
</a>
</g>
</g>
<!-- blacksmith&#45;&gt;weapons -->
<g id="edge29" class="edge"><title>blacksmith&#45;&gt;weapons</title>
<path fill="none" stroke="#ebc72d" d="M704.998,-432.792C753.186,-424.219 820.602,-410.001 877.465,-389.74 889.198,-385.559 901.474,-379.965 912.578,-374.395"/>
<polygon fill="#ebc72d" stroke="#ebc72d" points="914.303,-377.443 921.592,-369.754 911.099,-371.22 914.303,-377.443"/>
</g>
<!-- psiloi -->
<g id="node2" class="node"><title>psiloi</title>
<g id="a_node2"><a xlink:href="greece_psiloi_full.html" xlink:title="Psiloi">
<ellipse fill="none" stroke="magenta" cx="1131.46" cy="-127.74" rx="30.5947" ry="18"/>
<text text-anchor="middle" x="1131.46" y="-124.04" font-family="Times,serif" font-size="14.00" fill="#ebc72d">Psiloi</text>
</a>
</g>
</g>
<!-- air_box -->
<g id="node3" class="node"><title>air_box</title>
<g id="a_node3"><a xlink:href="greece_air_box_full.html" xlink:title="Air\nBox">
<polygon fill="none" stroke="red" points="253.639,-138.07 219.465,-161.168 185.29,-138.07 185.322,-100.696 253.607,-100.696 253.639,-138.07"/>
<text text-anchor="middle" x="219.465" y="-131.54" font-family="Times,serif" font-size="14.00" fill="#ebc72d">Air</text>
<text text-anchor="middle" x="219.465" y="-116.54" font-family="Times,serif" font-size="14.00" fill="#ebc72d">Box</text>
</a>
</g>
</g>
<!-- palace&#45;&gt;air_box -->
<g id="edge40" class="edge"><title>palace&#45;&gt;air_box</title>
<path fill="none" stroke="#ebc72d" stroke-dasharray="1,5" d="M570.526,-225.053C560.915,-217.008 547.771,-207.346 534.465,-201.74 447.197,-164.977 416.114,-189.561 324.465,-165.74 302.541,-160.042 278.684,-151.806 259.259,-144.551"/>
<polygon fill="#ebc72d" stroke="#ebc72d" points="260.415,-141.246 249.824,-140.974 257.934,-147.792 260.415,-141.246"/>
</g>
<!-- chariot -->
<g id="node5" class="node"><title>chariot</title>
<g id="a_node5"><a xlink:href="greece_chariot_full.html" xlink:title="Chariot">
<ellipse fill="none" stroke="magenta" cx="683.465" cy="-26.8701" rx="37.0935" ry="18"/>
<text text-anchor="middle" x="683.465" y="-23.1701" font-family="Times,serif" font-size="14.00" fill="#ebc72d">Chariot</text>
</a>
</g>
</g>
<!-- palace&#45;&gt;chariot -->
<g id="edge43" class="edge"><title>palace&#45;&gt;chariot</title>
<path fill="none" stroke="#ebc72d" d="M610.096,-225.031C638.772,-207.056 682.389,-172.591 683.465,-128.74"/>
<path fill="none" stroke="#ebc72d" d="M683.465,-126.74C684.058,-102.561 683.998,-75.0456 683.824,-55.1918"/>
<polygon fill="#ebc72d" stroke="#ebc72d" points="687.323,-54.9834 683.72,-45.0201 680.323,-55.0556 687.323,-54.9834"/>
</g>
<!-- artemis -->
<g id="node7" class="node"><title>artemis</title>
<g id="a_node7"><a xlink:href="greece_artemis_full.html" xlink:title="Artemis">
<ellipse fill="none" stroke="magenta" cx="465.465" cy="-127.74" rx="39.7935" ry="18"/>
<text text-anchor="middle" x="465.465" y="-124.04" font-family="Times,serif" font-size="14.00" fill="#ebc72d">Artemis</text>
</a>
</g>
</g>
<!-- palace&#45;&gt;artemis -->
<g id="edge42" class="edge"><title>palace&#45;&gt;artemis</title>
<path fill="none" stroke="#ebc72d" d="M570.267,-224.809C550.095,-206.318 514.227,-173.439 490.146,-151.365"/>
<polygon fill="#ebc72d" stroke="#ebc72d" points="492.207,-148.506 482.471,-144.329 487.477,-153.666 492.207,-148.506"/>
</g>
<!-- dragon -->
<g id="node11" class="node"><title>dragon</title>
<g id="a_node11"><a xlink:href="greece_dragon_full.html" xlink:title="Dragon">
<ellipse fill="none" stroke="magenta" cx="370.465" cy="-127.74" rx="37.0935" ry="18"/>
<text text-anchor="middle" x="370.465" y="-124.04" font-family="Times,serif" font-size="14.00" fill="#ebc72d">Dragon</text>
</a>
</g>
</g>
<!-- palace&#45;&gt;dragon -->
<g id="edge44" class="edge"><title>palace&#45;&gt;dragon</title>
<path fill="none" stroke="#ebc72d" stroke-dasharray="1,5" d="M569.366,-224.92C559.749,-217.23 546.999,-207.98 534.465,-201.74 485.379,-177.306 464.927,-191.388 416.465,-165.74 408.821,-161.695 401.22,-156.297 394.462,-150.878"/>
<polygon fill="#ebc72d" stroke="#ebc72d" points="396.318,-147.865 386.414,-144.101 391.809,-153.22 396.318,-147.865"/>
</g>
<!-- alexander -->
<g id="node13" class="node"><title>alexander</title>
<g id="a_node13"><a xlink:href="greece_alexander_full.html" xlink:title="Alexander">
<ellipse fill="none" stroke="magenta" cx="608.465" cy="-127.74" rx="47.3916" ry="18"/>
<text text-anchor="middle" x="608.465" y="-124.04" font-family="Times,serif" font-size="14.00" fill="#ebc72d">Alexander</text>
</a>
</g>
</g>
<!-- palace&#45;&gt;alexander -->
<g id="edge41" class="edge"><title>palace&#45;&gt;alexander</title>
<path fill="none" stroke="#ebc72d" d="M588.378,-224.809C591.993,-207.519 598.238,-177.651 602.807,-155.797"/>
<polygon fill="#ebc72d" stroke="#ebc72d" points="606.276,-156.308 604.897,-145.803 599.424,-154.875 606.276,-156.308"/>
</g>
<!-- oxybeles -->
<g id="node24" class="node"><title>oxybeles</title>
<g id="a_node24"><a xlink:href="greece_oxybeles_full.html" xlink:title="Oxybeles">
<ellipse fill="none" stroke="magenta" cx="533.465" cy="-26.8701" rx="44.393" ry="18"/>
<text text-anchor="middle" x="533.465" y="-23.1701" font-family="Times,serif" font-size="14.00" fill="#ebc72d">Oxybeles</text>
</a>
</g>
</g>
<!-- palace&#45;&gt;oxybeles -->
<g id="edge46" class="edge"><title>palace&#45;&gt;oxybeles</title>
<path fill="none" stroke="#ebc72d" stroke-dasharray="1,5" d="M577.767,-224.931C570.122,-210.582 558.669,-187.256 552.465,-165.74 541.708,-128.439 536.969,-83.651 534.932,-55.4678"/>
<polygon fill="#ebc72d" stroke="#ebc72d" points="538.404,-54.9273 534.255,-45.1785 531.419,-55.3866 538.404,-54.9273"/>
</g>
<!-- onager -->
<g id="node25" class="node"><title>onager</title>
<g id="a_node25"><a xlink:href="greece_onager_full.html" xlink:title="Onager">
<ellipse fill="none" stroke="magenta" cx="747.465" cy="-127.74" rx="36.2938" ry="18"/>
<text text-anchor="middle" x="747.465" y="-124.04" font-family="Times,serif" font-size="14.00" fill="#ebc72d">Onager</text>
</a>
</g>
</g>
<!-- palace&#45;&gt;onager -->
<g id="edge45" class="edge"><title>palace&#45;&gt;onager</title>
<path fill="none" stroke="#ebc72d" stroke-dasharray="1,5" d="M607.188,-225.12C629.939,-210.731 666.589,-187.198 697.465,-165.74 704.858,-160.602 712.739,-154.886 720.006,-149.514"/>
<polygon fill="#ebc72d" stroke="#ebc72d" points="722.259,-152.2 728.188,-143.42 718.078,-146.586 722.259,-152.2"/>
</g>
<!-- atlas -->
<g id="node6" class="node"><title>atlas</title>
<g id="a_node6"><a xlink:href="greece_atlas_full.html" xlink:title="Atlas">
<ellipse fill="none" stroke="magenta" cx="362.465" cy="-239.74" rx="29.4969" ry="18"/>
<text text-anchor="middle" x="362.465" y="-236.04" font-family="Times,serif" font-size="14.00" fill="#ebc72d">Atlas</text>
</a>
</g>
</g>
<!-- advanced_barracks -->
<g id="node8" class="node"><title>advanced_barracks</title>
<g id="a_node8"><a xlink:href="greece_advanced_barracks_full.html" xlink:title="Advanced\nBarracks">
<polygon fill="none" stroke="red" points="1160.58,-250.07 1098.46,-273.168 1036.35,-250.07 1036.41,-212.696 1160.52,-212.696 1160.58,-250.07"/>
<text text-anchor="middle" x="1098.46" y="-243.54" font-family="Times,serif" font-size="14.00" fill="#ebc72d">Advanced</text>
<text text-anchor="middle" x="1098.46" y="-228.54" font-family="Times,serif" font-size="14.00" fill="#ebc72d">Barracks</text>
</a>
</g>
</g>
<!-- advanced_barracks&#45;&gt;psiloi -->
<g id="edge8" class="edge"><title>advanced_barracks&#45;&gt;psiloi</title>
<path fill="none" stroke="#ebc72d" d="M1106.29,-212.672C1111.43,-195.52 1118.15,-173.121 1123.35,-155.776"/>
<polygon fill="#ebc72d" stroke="#ebc72d" points="1126.85,-156.306 1126.37,-145.722 1120.14,-154.295 1126.85,-156.306"/>
</g>
<!-- calvary -->
<g id="node9" class="node"><title>calvary</title>
<g id="a_node9"><a xlink:href="greece_calvary_full.html" xlink:title="Calvary">
<ellipse fill="none" stroke="magenta" cx="840.465" cy="-127.74" rx="38.1938" ry="18"/>
<text text-anchor="middle" x="840.465" y="-124.04" font-family="Times,serif" font-size="14.00" fill="#ebc72d">Calvary</text>
</a>
</g>
</g>
<!-- advanced_barracks&#45;&gt;calvary -->
<g id="edge4" class="edge"><title>advanced_barracks&#45;&gt;calvary</title>
<path fill="none" stroke="#ebc72d" d="M1036.32,-216.71C1022.24,-211.755 1007.35,-206.543 993.465,-201.74 946.445,-185.472 931.196,-189.469 887.465,-165.74 879.892,-161.631 872.29,-156.299 865.475,-150.968"/>
<polygon fill="#ebc72d" stroke="#ebc72d" points="867.282,-147.925 857.323,-144.309 862.853,-153.346 867.282,-147.925"/>
</g>
<!-- archer -->
<g id="node10" class="node"><title>archer</title>
<g id="a_node10"><a xlink:href="greece_archer_full.html" xlink:title="Archer">
<ellipse fill="none" stroke="magenta" cx="1215.46" cy="-127.74" rx="35.194" ry="18"/>
<text text-anchor="middle" x="1215.46" y="-124.04" font-family="Times,serif" font-size="14.00" fill="#ebc72d">Archer</text>
</a>
</g>
</g>
<!-- advanced_barracks&#45;&gt;archer -->
<g id="edge2" class="edge"><title>advanced_barracks&#45;&gt;archer</title>
<path fill="none" stroke="#ebc72d" d="M1126.19,-212.672C1146.27,-193.798 1173.1,-168.57 1192.09,-150.716"/>
<polygon fill="#ebc72d" stroke="#ebc72d" points="1194.57,-153.192 1199.45,-143.792 1189.77,-148.092 1194.57,-153.192"/>
</g>
<!-- battering_ram -->
<g id="node14" class="node"><title>battering_ram</title>
<g id="a_node14"><a xlink:href="greece_battering_ram_full.html" xlink:title="Battering\nRam">
<ellipse fill="none" stroke="magenta" cx="1021.46" cy="-26.8701" rx="47.2526" ry="26.7407"/>
<text text-anchor="middle" x="1021.46" y="-30.6701" font-family="Times,serif" font-size="14.00" fill="#ebc72d">Battering</text>
<text text-anchor="middle" x="1021.46" y="-15.6701" font-family="Times,serif" font-size="14.00" fill="#ebc72d">Ram</text>
</a>
</g>
</g>
<!-- advanced_barracks&#45;&gt;battering_ram -->
<g id="edge3" class="edge"><title>advanced_barracks&#45;&gt;battering_ram</title>
<path fill="none" stroke="#ebc72d" d="M1092.15,-212.669C1084.49,-182.528 1070.48,-131.683 1053.46,-89.7401 1049.69,-80.4248 1044.99,-70.6358 1040.37,-61.6628"/>
<polygon fill="#ebc72d" stroke="#ebc72d" points="1043.38,-59.8733 1035.62,-52.6615 1037.19,-63.1393 1043.38,-59.8733"/>
</g>
<!-- peltast -->
<g id="node16" class="node"><title>peltast</title>
<g id="a_node16"><a xlink:href="greece_peltast_full.html" xlink:title="Peltast">
<ellipse fill="none" stroke="magenta" cx="1303.46" cy="-127.74" rx="34.394" ry="18"/>
<text text-anchor="middle" x="1303.46" y="-124.04" font-family="Times,serif" font-size="14.00" fill="#ebc72d">Peltast</text>
</a>
</g>
</g>
<!-- advanced_barracks&#45;&gt;peltast -->
<g id="edge7" class="edge"><title>advanced_barracks&#45;&gt;peltast</title>
<path fill="none" stroke="#ebc72d" d="M1160.9,-215.13C1191.61,-202.359 1228.57,-185.215 1259.46,-165.74 1266.47,-161.324 1273.56,-155.884 1279.93,-150.548"/>
<polygon fill="#ebc72d" stroke="#ebc72d" points="1282.31,-153.121 1287.58,-143.929 1277.73,-147.83 1282.31,-153.121"/>
</g>
<!-- hoplite -->
<g id="node19" class="node"><title>hoplite</title>
<g id="a_node19"><a xlink:href="greece_hoplite_full.html" xlink:title="Hoplite">
<ellipse fill="none" stroke="magenta" cx="1392.46" cy="-127.74" rx="37.0935" ry="18"/>
<text text-anchor="middle" x="1392.46" y="-124.04" font-family="Times,serif" font-size="14.00" fill="#ebc72d">Hoplite</text>
</a>
</g>
</g>
<!-- advanced_barracks&#45;&gt;hoplite -->
<g id="edge5" class="edge"><title>advanced_barracks&#45;&gt;hoplite</title>
<path fill="none" stroke="#ebc72d" d="M1160.76,-215.214C1174.11,-210.497 1188.19,-205.761 1201.46,-201.74 1265.01,-182.491 1286.98,-195.241 1346.46,-165.74 1354.21,-161.898 1361.85,-156.569 1368.61,-151.151"/>
<polygon fill="#ebc72d" stroke="#ebc72d" points="1371.27,-153.481 1376.64,-144.346 1366.75,-148.14 1371.27,-153.481"/>
</g>
<!-- advanced_barracks&#45;&gt;onager -->
<g id="edge6" class="edge"><title>advanced_barracks&#45;&gt;onager</title>
<path fill="none" stroke="#ebc72d" d="M1036.14,-231.995C972.507,-223.272 872.161,-204.354 793.465,-165.74 785.701,-161.931 778.058,-156.613 771.3,-151.195"/>
<polygon fill="#ebc72d" stroke="#ebc72d" points="773.16,-148.184 763.27,-144.385 768.633,-153.523 773.16,-148.184"/>
</g>
<!-- advanced_training -->
<g id="node31" class="node"><title>advanced_training</title>
<g id="a_node31"><a xlink:href="greece_advanced_training_full.html" xlink:title="Advanced\nTraining">
<polygon fill="none" stroke="green" points="1044.18,-165.74 926.913,-165.74 896.746,-89.7401 1014.02,-89.7401 1044.18,-165.74"/>
<text text-anchor="middle" x="970.465" y="-131.54" font-family="Times,serif" font-size="14.00" fill="#ebc72d">Advanced</text>
<text text-anchor="middle" x="970.465" y="-116.54" font-family="Times,serif" font-size="14.00" fill="#ebc72d">Training</text>
</a>
</g>
</g>
<!-- advanced_barracks&#45;&gt;advanced_training -->
<g id="edge1" class="edge"><title>advanced_barracks&#45;&gt;advanced_training</title>
<path fill="none" stroke="#ebc72d" d="M1068.13,-212.672C1054.15,-200.66 1037.18,-186.075 1021.33,-172.455"/>
<polygon fill="#ebc72d" stroke="#ebc72d" points="1023.53,-169.725 1013.66,-165.861 1018.96,-175.033 1023.53,-169.725"/>
</g>
<!-- barley_field -->
<g id="node12" class="node"><title>barley_field</title>
<g id="a_node12"><a xlink:href="greece_barley_field_full.html" xlink:title="Barley\nField">
<polygon fill="none" stroke="red" points="907.613,-541.283 861.465,-564.381 815.317,-541.283 815.36,-503.91 907.57,-503.91 907.613,-541.283"/>
<text text-anchor="middle" x="861.465" y="-534.753" font-family="Times,serif" font-size="14.00" fill="#ebc72d">Barley</text>
<text text-anchor="middle" x="861.465" y="-519.753" font-family="Times,serif" font-size="14.00" fill="#ebc72d">Field</text>
</a>
</g>
</g>
<!-- barley_bales -->
<g id="node32" class="node"><title>barley_bales</title>
<g id="a_node32"><a xlink:href="greece_barley_bales_full.html" xlink:title="Barley\nBales">
<polygon fill="none" stroke="green" points="825.361,-277.74 738.033,-277.74 715.569,-201.74 802.896,-201.74 825.361,-277.74"/>
<text text-anchor="middle" x="770.465" y="-243.54" font-family="Times,serif" font-size="14.00" fill="#ebc72d">Barley</text>
<text text-anchor="middle" x="770.465" y="-228.54" font-family="Times,serif" font-size="14.00" fill="#ebc72d">Bales</text>
</a>
</g>
</g>
<!-- barley_field&#45;&gt;barley_bales -->
<g id="edge16" class="edge"><title>barley_field&#45;&gt;barley_bales</title>
<path fill="none" stroke="#ebc72d" d="M906.792,-503.864C971.55,-463.268 1077.3,-382.491 1025.46,-313.74 1019.38,-305.663 901.482,-274.275 828.153,-255.387"/>
<polygon fill="#ebc72d" stroke="#ebc72d" points="828.675,-251.907 818.118,-252.808 826.932,-258.687 828.675,-251.907"/>
</g>
<!-- trojan_horse -->
<g id="node15" class="node"><title>trojan_horse</title>
<g id="a_node15"><a xlink:href="greece_trojan_horse_full.html" xlink:title="Trojan\nHorse">
<polygon fill="none" stroke="red" points="253.613,-362.07 207.465,-385.168 161.317,-362.07 161.36,-324.696 253.57,-324.696 253.613,-362.07"/>
<text text-anchor="middle" x="207.465" y="-355.54" font-family="Times,serif" font-size="14.00" fill="#ebc72d">Trojan</text>
<text text-anchor="middle" x="207.465" y="-340.54" font-family="Times,serif" font-size="14.00" fill="#ebc72d">Horse</text>
</a>
</g>
</g>
<!-- tower -->
<g id="node17" class="node"><title>tower</title>
<g id="a_node17"><a xlink:href="greece_tower_full.html" xlink:title="Tower">
<polygon fill="none" stroke="red" points="105.017,-245.302 63.4646,-257.74 21.9126,-245.302 21.9514,-225.178 104.978,-225.178 105.017,-245.302"/>
<text text-anchor="middle" x="63.4646" y="-236.04" font-family="Times,serif" font-size="14.00" fill="#ebc72d">Tower</text>
</a>
</g>
</g>
<!-- temple&#45;&gt;chariot -->
<g id="edge54" class="edge"><title>temple&#45;&gt;chariot</title>
<path fill="none" stroke="#ebc72d" stroke-dasharray="1,5" d="M315.855,-336.892C310.851,-316.082 302.714,-275.476 305.465,-240.74"/>
<path fill="none" stroke="#ebc72d" stroke-dasharray="1,5" d="M305.465,-238.74C310.735,-172.19 277.489,-137.174 324.465,-89.7401 365.818,-47.9826 528.85,-65.3347 586.465,-53.7401 605.176,-49.9746 625.628,-44.6969 642.908,-39.8896"/>
<polygon fill="#ebc72d" stroke="#ebc72d" points="644.008,-43.2161 652.679,-37.1286 642.104,-36.4799 644.008,-43.2161"/>
</g>
<!-- temple&#45;&gt;atlas -->
<g id="edge53" class="edge"><title>temple&#45;&gt;atlas</title>
<path fill="none" stroke="#ebc72d" d="M324.911,-336.809C331.77,-319.262 343.694,-288.759 352.267,-266.826"/>
<polygon fill="#ebc72d" stroke="#ebc72d" points="355.559,-268.018 355.94,-257.43 349.04,-265.469 355.559,-268.018"/>
</g>
<!-- temple&#45;&gt;dragon -->
<g id="edge55" class="edge"><title>temple&#45;&gt;dragon</title>
<path fill="none" stroke="#ebc72d" d="M305.465,-238.74C308.124,-205.163 330.496,-172.718 348.261,-151.875"/>
<polygon fill="#ebc72d" stroke="#ebc72d" points="351.034,-154.023 355.035,-144.213 345.79,-149.387 351.034,-154.023"/>
</g>
<!-- pandora -->
<g id="node30" class="node"><title>pandora</title>
<g id="a_node30"><a xlink:href="greece_pandora_full.html" xlink:title="Pandora">
<polygon fill="none" stroke="green" points="277.724,-257.74 185.047,-257.74 161.206,-221.74 253.883,-221.74 277.724,-257.74"/>
<text text-anchor="middle" x="219.465" y="-236.04" font-family="Times,serif" font-size="14.00" fill="#ebc72d">Pandora</text>
</a>
</g>
</g>
<!-- temple&#45;&gt;pandora -->
<g id="edge57" class="edge"><title>temple&#45;&gt;pandora</title>
<path fill="none" stroke="#ebc72d" d="M306.8,-336.809C290.511,-318.891 261.939,-287.462 241.925,-265.446"/>
<polygon fill="#ebc72d" stroke="#ebc72d" points="244.293,-262.848 234.976,-257.803 239.113,-267.557 244.293,-262.848"/>
</g>
<!-- golden_arrow -->
<g id="node34" class="node"><title>golden_arrow</title>
<g id="a_node34"><a xlink:href="greece_golden_arrow_full.html" xlink:title="Golden\nArrow">
<polygon fill="none" stroke="green" points="525.581,-277.74 433.131,-277.74 409.348,-201.74 501.798,-201.74 525.581,-277.74"/>
<text text-anchor="middle" x="467.465" y="-243.54" font-family="Times,serif" font-size="14.00" fill="#ebc72d">Golden</text>
<text text-anchor="middle" x="467.465" y="-228.54" font-family="Times,serif" font-size="14.00" fill="#ebc72d">Arrow</text>
</a>
</g>
</g>
<!-- temple&#45;&gt;golden_arrow -->
<g id="edge56" class="edge"><title>temple&#45;&gt;golden_arrow</title>
<path fill="none" stroke="#ebc72d" d="M337.91,-337.031C358.786,-321.515 393.562,-295.668 421.831,-274.657"/>
<polygon fill="#ebc72d" stroke="#ebc72d" points="424.054,-277.365 429.992,-268.591 419.879,-271.747 424.054,-277.365"/>
</g>
<!-- slave -->
<g id="node20" class="node"><title>slave</title>
<g id="a_node20"><a xlink:href="greece_slave_full.html" xlink:title="Slave">
<ellipse fill="none" stroke="magenta" cx="641.465" cy="-618.167" rx="30.5947" ry="18"/>
<text text-anchor="middle" x="641.465" y="-614.467" font-family="Times,serif" font-size="14.00" fill="#ebc72d">Slave</text>
</a>
</g>
</g>
<!-- slave&#45;&gt;blacksmith -->
<g id="edge50" class="edge"><title>slave&#45;&gt;blacksmith</title>
<path fill="none" stroke="#ebc72d" stroke-width="2" d="M641.465,-600.003C641.465,-570.051 641.465,-508.009 641.465,-472.081"/>
<polygon fill="#ebc72d" stroke="#ebc72d" stroke-width="2" points="644.965,-471.834 641.465,-461.834 637.965,-471.834 644.965,-471.834"/>
</g>
<!-- slave&#45;&gt;barley_field -->
<g id="edge48" class="edge"><title>slave&#45;&gt;barley_field</title>
<path fill="none" stroke="#ebc72d" stroke-width="2" d="M666.274,-607.557C702.363,-593.578 769.976,-567.39 815.367,-549.809"/>
<polygon fill="#ebc72d" stroke="#ebc72d" stroke-width="2" points="816.635,-553.071 824.696,-546.195 814.107,-546.543 816.635,-553.071"/>
</g>
<!-- slave&#45;&gt;tower -->
<g id="edge52" class="edge"><title>slave&#45;&gt;tower</title>
<path fill="none" stroke="#ebc72d" stroke-width="2" d="M611.865,-613.413C522.688,-600.48 254.446,-549.402 119.465,-389.74 89.0088,-353.716 74.2699,-299.483 67.8293,-267.344"/>
<polygon fill="#ebc72d" stroke="#ebc72d" stroke-width="2" points="71.238,-266.531 65.9524,-257.349 64.3582,-267.823 71.238,-266.531"/>
</g>
<!-- barracks -->
<g id="node22" class="node"><title>barracks</title>
<g id="a_node22"><a xlink:href="greece_barracks_full.html" xlink:title="Barracks">
<polygon fill="none" stroke="red" points="1176.9,-357.302 1124.46,-369.74 1072.03,-357.302 1072.07,-337.178 1176.86,-337.178 1176.9,-357.302"/>
<text text-anchor="middle" x="1124.46" y="-348.04" font-family="Times,serif" font-size="14.00" fill="#ebc72d">Barracks</text>
</a>
</g>
</g>
<!-- slave&#45;&gt;barracks -->
<g id="edge49" class="edge"><title>slave&#45;&gt;barracks</title>
<path fill="none" stroke="#ebc72d" stroke-width="2" d="M672.312,-617.074C725.354,-615.689 835.897,-607.345 916.465,-564.167 1004.36,-517.063 1078.3,-420.235 1109.1,-375.868"/>
<polygon fill="#ebc72d" stroke="#ebc72d" stroke-width="2" points="1112.09,-377.708 1114.85,-367.479 1106.31,-373.754 1112.09,-377.708"/>
</g>
<!-- castle -->
<g id="node23" class="node"><title>castle</title>
<g id="a_node23"><a xlink:href="greece_castle_full.html" xlink:title="Castle">
<polygon fill="none" stroke="red" points="508.803,-536.516 468.465,-548.953 428.127,-536.516 428.164,-516.391 508.765,-516.391 508.803,-536.516"/>
<text text-anchor="middle" x="468.465" y="-527.253" font-family="Times,serif" font-size="14.00" fill="#ebc72d">Castle</text>
</a>
</g>
</g>
<!-- slave&#45;&gt;castle -->
<g id="edge51" class="edge"><title>slave&#45;&gt;castle</title>
<path fill="none" stroke="#ebc72d" stroke-width="2" d="M609.575,-601.459C577.952,-585.882 529.851,-562.19 498.786,-546.889"/>
<polygon fill="#ebc72d" stroke="#ebc72d" stroke-width="2" points="608.331,-604.747 618.848,-606.026 611.424,-598.468 608.331,-604.747"/>
<polygon fill="#ebc72d" stroke="#ebc72d" stroke-width="2" points="500.247,-543.706 489.729,-542.427 497.154,-549.986 500.247,-543.706"/>
</g>
<!-- engineer -->
<g id="node21" class="node"><title>engineer</title>
<g id="a_node21"><a xlink:href="greece_engineer_full.html" xlink:title="Engineer">
<ellipse fill="none" stroke="magenta" cx="319.465" cy="-443.74" rx="42.4939" ry="18"/>
<text text-anchor="middle" x="319.465" y="-440.04" font-family="Times,serif" font-size="14.00" fill="#ebc72d">Engineer</text>
</a>
</g>
</g>
<!-- engineer&#45;&gt;air_box -->
<g id="edge33" class="edge"><title>engineer&#45;&gt;air_box</title>
<path fill="none" stroke="#ebc72d" stroke-width="2" d="M278.636,-438.523C236.348,-432.702 169.565,-419.34 119.465,-389.74 60.1933,-354.722 38.0821,-341.639 12.4646,-277.74 -0.104552,-246.388 -7.04797,-229.312 12.4646,-201.74 49.2518,-149.759 126.22,-134.536 175.233,-130.231"/>
<polygon fill="#ebc72d" stroke="#ebc72d" stroke-width="2" points="175.538,-133.718 185.243,-129.468 175.006,-126.738 175.538,-133.718"/>
</g>
<!-- engineer&#45;&gt;palace -->
<g id="edge35" class="edge"><title>engineer&#45;&gt;palace</title>
<path fill="none" stroke="#ebc72d" stroke-width="2" d="M338.742,-427.47C350.377,-417.579 364.937,-403.931 375.465,-389.74 397.965,-359.41 384.536,-338.016 413.465,-313.74 456.444,-277.674 484.15,-302.569 534.465,-277.74 544.323,-272.875 554.301,-266.128 562.786,-259.725"/>
<polygon fill="#ebc72d" stroke="#ebc72d" stroke-width="2" points="564.995,-262.441 570.712,-253.521 560.68,-256.929 564.995,-262.441"/>
</g>
<!-- engineer&#45;&gt;trojan_horse -->
<g id="edge38" class="edge"><title>engineer&#45;&gt;trojan_horse</title>
<path fill="none" stroke="#ebc72d" stroke-width="2" d="M300.465,-427.473C284.01,-414.249 259.838,-394.826 240.262,-379.095"/>
<polygon fill="#ebc72d" stroke="#ebc72d" stroke-width="2" points="242.452,-376.365 232.465,-372.829 238.067,-381.822 242.452,-376.365"/>
</g>
<!-- engineer&#45;&gt;tower -->
<g id="edge37" class="edge"><title>engineer&#45;&gt;tower</title>
<path fill="none" stroke="#ebc72d" stroke-width="2" d="M278.806,-438.715C242.095,-433.189 188.469,-420.181 152.465,-389.74 138.348,-377.805 145.475,-366.793 133.465,-352.74"/>
<path fill="none" stroke="#ebc72d" stroke-width="2" d="M133.465,-350.74C110.069,-323.365 88.7196,-287.536 75.9072,-264.33"/>
<polygon fill="#ebc72d" stroke="#ebc72d" stroke-width="2" points="78.9652,-262.627 71.1146,-255.512 72.815,-265.97 78.9652,-262.627"/>
</g>
<!-- engineer&#45;&gt;temple -->
<g id="edge36" class="edge"><title>engineer&#45;&gt;temple</title>
<path fill="none" stroke="#ebc72d" stroke-width="2" d="M319.465,-425.387C319.465,-412.563 319.465,-394.848 319.465,-380.122"/>
<polygon fill="#ebc72d" stroke="#ebc72d" stroke-width="2" points="322.965,-380.04 319.465,-370.04 315.965,-380.04 322.965,-380.04"/>
</g>
<!-- engineer&#45;&gt;oxybeles -->
<g id="edge34" class="edge"><title>engineer&#45;&gt;oxybeles</title>
<path fill="none" stroke="#ebc72d" stroke-dasharray="5,2" d="M133.465,-350.74C95.2748,-306.054 134.087,-130.476 176.465,-89.7401 218.941,-48.9088 390.42,-34.7051 479.356,-30.0231"/>
<polygon fill="#ebc72d" stroke="#ebc72d" points="479.707,-33.5099 489.518,-29.5107 479.355,-26.5188 479.707,-33.5099"/>
</g>
<!-- engineer&#45;&gt;advanced_buildings -->
<g id="edge32" class="edge"><title>engineer&#45;&gt;advanced_buildings</title>
<path fill="none" stroke="#ebc72d" d="M345.582,-429.46C370.001,-417.044 407.312,-398.072 438.721,-382.101"/>
<polygon fill="#ebc72d" stroke="#ebc72d" points="440.504,-385.121 447.832,-377.469 437.331,-378.881 440.504,-385.121"/>
</g>
<!-- barracks&#45;&gt;psiloi -->
<g id="edge22" class="edge"><title>barracks&#45;&gt;psiloi</title>
<path fill="none" stroke="#ebc72d" d="M1138.42,-336.909C1157.81,-317.074 1193.04,-278.735 1215.46,-240.74"/>
<path fill="none" stroke="#ebc72d" d="M1215.46,-238.74C1226.01,-220.865 1184.07,-177.021 1155.68,-150.398"/>
<polygon fill="#ebc72d" stroke="#ebc72d" points="1157.81,-147.597 1148.09,-143.382 1153.06,-152.739 1157.81,-147.597"/>
</g>
<!-- barracks&#45;&gt;advanced_barracks -->
<g id="edge17" class="edge"><title>barracks&#45;&gt;advanced_barracks</title>
<path fill="none" stroke="#ebc72d" stroke-dasharray="5,2" d="M1121.17,-336.809C1117.84,-322.729 1112.54,-300.307 1107.9,-280.664"/>
<polygon fill="#ebc72d" stroke="#ebc72d" points="1111.25,-279.632 1105.55,-270.705 1104.44,-281.242 1111.25,-279.632"/>
</g>
<!-- barracks&#45;&gt;calvary -->
<g id="edge19" class="edge"><title>barracks&#45;&gt;calvary</title>
<path fill="none" stroke="#ebc72d" d="M1106.12,-337.166C1086.52,-322.619 1054.63,-298.775 1027.46,-277.74 969.736,-233.032 903.053,-179.417 866.976,-150.243"/>
<polygon fill="#ebc72d" stroke="#ebc72d" points="868.885,-147.285 858.91,-143.715 864.481,-152.727 868.885,-147.285"/>
</g>
<!-- barracks&#45;&gt;archer -->
<g id="edge18" class="edge"><title>barracks&#45;&gt;archer</title>
<path fill="none" stroke="#ebc72d" d="M1215.46,-238.74C1230.28,-213.638 1227.43,-179.368 1222.71,-155.785"/>
<polygon fill="#ebc72d" stroke="#ebc72d" points="1226.07,-154.766 1220.47,-145.772 1219.24,-156.296 1226.07,-154.766"/>
</g>
<!-- barracks&#45;&gt;peltast -->
<g id="edge21" class="edge"><title>barracks&#45;&gt;peltast</title>
<path fill="none" stroke="#ebc72d" d="M1215.46,-238.74C1224.86,-222.82 1223.79,-216.83 1234.46,-201.74 1247.64,-183.123 1265.36,-164.476 1279.54,-150.688"/>
<polygon fill="#ebc72d" stroke="#ebc72d" points="1282.19,-152.997 1287.01,-143.559 1277.36,-147.934 1282.19,-152.997"/>
</g>
<!-- barracks&#45;&gt;hoplite -->
<g id="edge20" class="edge"><title>barracks&#45;&gt;hoplite</title>
<path fill="none" stroke="#ebc72d" d="M1215.46,-238.74C1224.86,-222.82 1220.37,-213.701 1234.46,-201.74 1274.33,-167.909 1300.43,-190.54 1346.46,-165.74 1354.08,-161.638 1361.67,-156.221 1368.43,-150.801"/>
<polygon fill="#ebc72d" stroke="#ebc72d" points="1371.08,-153.147 1376.48,-144.033 1366.57,-147.788 1371.08,-153.147"/>
</g>
<!-- training_field -->
<g id="node29" class="node"><title>training_field</title>
<g id="a_node29"><a xlink:href="greece_training_field_full.html" xlink:title="Training\nField">
<polygon fill="none" stroke="green" points="1373.6,-277.74 1269.99,-277.74 1243.33,-201.74 1346.94,-201.74 1373.6,-277.74"/>
<text text-anchor="middle" x="1308.46" y="-243.54" font-family="Times,serif" font-size="14.00" fill="#ebc72d">Training</text>
<text text-anchor="middle" x="1308.46" y="-228.54" font-family="Times,serif" font-size="14.00" fill="#ebc72d">Field</text>
</a>
</g>
</g>
<!-- barracks&#45;&gt;training_field -->
<g id="edge23" class="edge"><title>barracks&#45;&gt;training_field</title>
<path fill="none" stroke="#ebc72d" d="M1147.4,-337.031C1174.66,-320.731 1221,-293.03 1256.99,-271.512"/>
<polygon fill="#ebc72d" stroke="#ebc72d" points="1259.11,-274.321 1265.9,-266.185 1255.52,-268.312 1259.11,-274.321"/>
</g>
<!-- castle&#45;&gt;engineer -->
<g id="edge30" class="edge"><title>castle&#45;&gt;engineer</title>
<path fill="none" stroke="#ebc72d" d="M444.525,-516.262C419.692,-502.06 380.668,-479.742 352.819,-463.815"/>
<polygon fill="#ebc72d" stroke="#ebc72d" points="354.258,-460.606 343.84,-458.68 350.783,-466.683 354.258,-460.606"/>
</g>
<!-- advanced_buildings&#45;&gt;advanced_barracks -->
<g id="edge9" class="edge"><title>advanced_buildings&#45;&gt;advanced_barracks</title>
<path fill="none" stroke="#ebc72d" stroke-dasharray="1,5" d="M547.833,-333.216C569.181,-326.41 594.331,-319.003 617.465,-313.74 656.517,-304.856 901.732,-269.065 1026.19,-251.114"/>
<polygon fill="#ebc72d" stroke="#ebc72d" points="1026.99,-254.534 1036.39,-249.643 1025.99,-247.606 1026.99,-254.534"/>
</g>
<!-- advanced_buildings&#45;&gt;tower -->
<g id="edge10" class="edge"><title>advanced_buildings&#45;&gt;tower</title>
<path fill="none" stroke="#ebc72d" stroke-dasharray="1,5" d="M428.437,-328.157C411.273,-322.952 392.796,-317.769 375.465,-313.74 277.678,-291.008 249.031,-305.197 152.465,-277.74 132.686,-272.116 111.389,-263.366 94.5881,-255.787"/>
<polygon fill="#ebc72d" stroke="#ebc72d" points="95.8083,-252.496 85.2611,-251.492 92.8805,-258.854 95.8083,-252.496"/>
</g>
<!-- pandora&#45;&gt;air_box -->
<g id="edge47" class="edge"><title>pandora&#45;&gt;air_box</title>
<path fill="none" stroke="#ebc72d" stroke-dasharray="1,5" d="M219.465,-221.553C219.465,-208.117 219.465,-188.845 219.465,-171.342"/>
<polygon fill="#ebc72d" stroke="#ebc72d" points="222.965,-171.297 219.465,-161.297 215.965,-171.297 222.965,-171.297"/>
</g>
<!-- advanced_training&#45;&gt;chariot -->
<g id="edge12" class="edge"><title>advanced_training&#45;&gt;chariot</title>
<path fill="none" stroke="#ebc72d" stroke-dasharray="1,5" d="M898.258,-93.9141C894.624,-92.463 891.012,-91.063 887.465,-89.7401 832.203,-69.1344 766.69,-50.2077 725.104,-38.8545"/>
<polygon fill="#ebc72d" stroke="#ebc72d" points="725.892,-35.4418 715.324,-36.204 724.06,-42.1981 725.892,-35.4418"/>
</g>
<!-- advanced_training&#45;&gt;battering_ram -->
<g id="edge11" class="edge"><title>advanced_training&#45;&gt;battering_ram</title>
<path fill="none" stroke="#ebc72d" stroke-dasharray="1,5" d="M989.6,-89.6433C994.299,-80.5337 999.306,-70.8269 1003.93,-61.8713"/>
<polygon fill="#ebc72d" stroke="#ebc72d" points="1007.1,-63.3589 1008.57,-52.8671 1000.88,-60.1498 1007.1,-63.3589"/>
</g>
<!-- advanced_training&#45;&gt;oxybeles -->
<g id="edge13" class="edge"><title>advanced_training&#45;&gt;oxybeles</title>
<path fill="none" stroke="#ebc72d" stroke-dasharray="1,5" d="M898.018,-93.0847C894.48,-91.8717 890.951,-90.747 887.465,-89.7401 779.616,-58.59 747.629,-75.3166 637.465,-53.7401 618.207,-49.9684 597.165,-44.9135 579.078,-40.2728"/>
<polygon fill="#ebc72d" stroke="#ebc72d" points="579.922,-36.8761 569.363,-37.7481 578.161,-43.651 579.922,-36.8761"/>
</g>
<!-- barley_bales&#45;&gt;chariot -->
<g id="edge15" class="edge"><title>barley_bales&#45;&gt;chariot</title>
<path fill="none" stroke="#ebc72d" stroke-dasharray="1,5" d="M720.498,-201.609C700.724,-182.426 682.769,-157.097 683.465,-128.74"/>
</g>
<!-- barley_bales&#45;&gt;calvary -->
<g id="edge14" class="edge"><title>barley_bales&#45;&gt;calvary</title>
<path fill="none" stroke="#ebc72d" stroke-dasharray="1,5" d="M794.163,-201.499C804.12,-185.854 815.442,-168.061 824.399,-153.987"/>
<polygon fill="#ebc72d" stroke="#ebc72d" points="827.488,-155.65 829.904,-145.335 821.583,-151.892 827.488,-155.65"/>
</g>
<!-- golden_arrow&#45;&gt;artemis -->
<g id="edge39" class="edge"><title>golden_arrow&#45;&gt;artemis</title>
<path fill="none" stroke="#ebc72d" stroke-dasharray="1,5" d="M466.788,-201.499C466.517,-186.647 466.212,-169.859 465.963,-156.154"/>
<polygon fill="#ebc72d" stroke="#ebc72d" points="469.458,-155.855 465.777,-145.92 462.459,-155.982 469.458,-155.855"/>
</g>
</g>
</svg>
