<?xml version="1.0" encoding="UTF-8" standalone="no"?>
<!DOCTYPE svg PUBLIC "-//W3C//DTD SVG 1.1//EN"
 "http://www.w3.org/Graphics/SVG/1.1/DTD/svg11.dtd">
<!-- Generated by graphviz version 2.38.0 (20140413.2041)
 -->
<!-- Title: test Pages: 1 -->
<svg width="1298pt" height="423pt"
 viewBox="0.00 0.00 1297.59 423.28" xmlns="http://www.w3.org/2000/svg" xmlns:xlink="http://www.w3.org/1999/xlink">
<g id="graph0" class="graph" transform="scale(1 1) rotate(0) translate(4 419.279)">
<title>test</title>
<polygon fill="#151515" stroke="none" points="-4,4 -4,-419.279 1293.59,-419.279 1293.59,4 -4,4"/>
<!-- blacksmith -->
<g id="node1" class="node"><title>blacksmith</title>
<g id="a_node1"><a xlink:href="greece_blacksmith_full.html" xlink:title="Blacksmith">
<polygon fill="none" stroke="red" points="751.68,-330.842 688.247,-343.279 624.814,-330.842 624.874,-310.717 751.621,-310.717 751.68,-330.842"/>
<text text-anchor="middle" x="688.247" y="-321.579" font-family="Times,serif" font-size="14.00" fill="#ebc72d">Blacksmith</text>
</a>
</g>
</g>
<!-- cavalry -->
<g id="node4" class="node"><title>cavalry</title>
<g id="a_node4"><a xlink:href="greece_cavalry_full.html" xlink:title="Cavalry">
<ellipse fill="none" stroke="magenta" cx="1251.25" cy="-33.2132" rx="38.1938" ry="18"/>
<text text-anchor="middle" x="1251.25" y="-29.5132" font-family="Times,serif" font-size="14.00" fill="#ebc72d">Cavalry</text>
</a>
</g>
</g>
<!-- blacksmith&#45;&gt;cavalry -->
<g id="edge17" class="edge"><title>blacksmith&#45;&gt;cavalry</title>
<path fill="none" stroke="#ebc72d" stroke-dasharray="1,5" d="M751.787,-311.778C760.982,-310.153 770.344,-308.598 779.247,-307.279 924.319,-285.799 975.249,-335.183 1107.25,-271.279 1121.63,-264.315 1197.84,-180.981 1208.25,-168.853 1219.88,-155.306 1227.57,-153.87 1232.25,-136.64"/>
<path fill="none" stroke="#ebc72d" stroke-dasharray="1,5" d="M1232.25,-134.64C1239.83,-110.376 1244.87,-81.8206 1247.85,-61.3742"/>
<polygon fill="#ebc72d" stroke="#ebc72d" points="1251.35,-61.5931 1249.25,-51.2079 1244.42,-60.6341 1251.35,-61.5931"/>
</g>
<!-- chariot -->
<g id="node6" class="node"><title>chariot</title>
<g id="a_node6"><a xlink:href="greece_chariot_full.html" xlink:title="Chariot">
<ellipse fill="none" stroke="magenta" cx="199.247" cy="-33.2132" rx="37.0935" ry="18"/>
<text text-anchor="middle" x="199.247" y="-29.5132" font-family="Times,serif" font-size="14.00" fill="#ebc72d">Chariot</text>
</a>
</g>
</g>
<!-- blacksmith&#45;&gt;chariot -->
<g id="edge18" class="edge"><title>blacksmith&#45;&gt;chariot</title>
<path fill="none" stroke="#ebc72d" stroke-dasharray="1,5" d="M174.247,-237.066C122.568,-194.256 160.89,-103.988 184.44,-59.7466"/>
<polygon fill="#ebc72d" stroke="#ebc72d" points="187.612,-61.2407 189.344,-50.7884 181.472,-57.8795 187.612,-61.2407"/>
</g>
<!-- atlas -->
<g id="node7" class="node"><title>atlas</title>
<g id="a_node7"><a xlink:href="greece_atlas_full.html" xlink:title="Atlas">
<ellipse fill="none" stroke="magenta" cx="29.2474" cy="-33.2132" rx="29.4969" ry="18"/>
<text text-anchor="middle" x="29.2474" y="-29.5132" font-family="Times,serif" font-size="14.00" fill="#ebc72d">Atlas</text>
</a>
</g>
</g>
<!-- blacksmith&#45;&gt;atlas -->
<g id="edge15" class="edge"><title>blacksmith&#45;&gt;atlas</title>
<path fill="none" stroke="#ebc72d" stroke-dasharray="1,5" d="M624.636,-321.127C503.096,-313.937 243.757,-292.608 174.247,-239.066"/>
<path fill="none" stroke="#ebc72d" stroke-dasharray="1,5" d="M174.247,-237.066C110.137,-187.683 62.3382,-102.254 41.2144,-59.7551"/>
<polygon fill="#ebc72d" stroke="#ebc72d" points="44.2991,-58.0953 36.7686,-50.6425 38.0079,-61.1647 44.2991,-58.0953"/>
</g>
<!-- alexander -->
<g id="node13" class="node"><title>alexander</title>
<g id="a_node13"><a xlink:href="greece_alexander_full.html" xlink:title="Alexander">
<ellipse fill="none" stroke="magenta" cx="688.247" cy="-33.2132" rx="47.3916" ry="18"/>
<text text-anchor="middle" x="688.247" y="-29.5132" font-family="Times,serif" font-size="14.00" fill="#ebc72d">Alexander</text>
</a>
</g>
</g>
<!-- blacksmith&#45;&gt;alexander -->
<g id="edge14" class="edge"><title>blacksmith&#45;&gt;alexander</title>
<path fill="none" stroke="#ebc72d" stroke-dasharray="1,5" d="M688.247,-134.64C694.476,-110.452 693.734,-81.8876 691.872,-61.4185"/>
<polygon fill="#ebc72d" stroke="#ebc72d" points="695.328,-60.8146 690.793,-51.239 688.366,-61.5521 695.328,-60.8146"/>
</g>
<!-- battering_ram -->
<g id="node14" class="node"><title>battering_ram</title>
<g id="a_node14"><a xlink:href="greece_battering_ram_full.html" xlink:title="Battering\nRam">
<ellipse fill="none" stroke="magenta" cx="801.247" cy="-33.2132" rx="47.2526" ry="26.7407"/>
<text text-anchor="middle" x="801.247" y="-37.0132" font-family="Times,serif" font-size="14.00" fill="#ebc72d">Battering</text>
<text text-anchor="middle" x="801.247" y="-22.0132" font-family="Times,serif" font-size="14.00" fill="#ebc72d">Ram</text>
</a>
</g>
</g>
<!-- blacksmith&#45;&gt;battering_ram -->
<g id="edge16" class="edge"><title>blacksmith&#45;&gt;battering_ram</title>
<path fill="none" stroke="#ebc72d" stroke-dasharray="1,5" d="M688.247,-134.64C693.017,-118.717 696.064,-114.724 707.247,-102.426 722.52,-85.6324 742.538,-70.4174 760.175,-58.6404"/>
<polygon fill="#ebc72d" stroke="#ebc72d" points="762.143,-61.5354 768.61,-53.1433 758.321,-55.6707 762.143,-61.5354"/>
</g>
<!-- hoplite -->
<g id="node19" class="node"><title>hoplite</title>
<g id="a_node19"><a xlink:href="greece_hoplite_full.html" xlink:title="Hoplite">
<ellipse fill="none" stroke="magenta" cx="903.247" cy="-33.2132" rx="37.0935" ry="18"/>
<text text-anchor="middle" x="903.247" y="-29.5132" font-family="Times,serif" font-size="14.00" fill="#ebc72d">Hoplite</text>
</a>
</g>
</g>
<!-- blacksmith&#45;&gt;hoplite -->
<g id="edge20" class="edge"><title>blacksmith&#45;&gt;hoplite</title>
<path fill="none" stroke="#ebc72d" stroke-dasharray="1,5" d="M688.247,-134.64C711.488,-57.0466 783.395,-99.6934 857.247,-66.4264 864.092,-63.3432 870.981,-59.2004 877.268,-54.9143"/>
<polygon fill="#ebc72d" stroke="#ebc72d" points="879.328,-57.744 885.408,-49.0671 875.244,-52.0588 879.328,-57.744"/>
</g>
<!-- engineer -->
<g id="node21" class="node"><title>engineer</title>
<g id="a_node21"><a xlink:href="greece_engineer_full.html" xlink:title="Engineer">
<ellipse fill="none" stroke="magenta" cx="539.247" cy="-238.066" rx="42.4939" ry="18"/>
<text text-anchor="middle" x="539.247" y="-234.366" font-family="Times,serif" font-size="14.00" fill="#ebc72d">Engineer</text>
</a>
</g>
</g>
<!-- blacksmith&#45;&gt;engineer -->
<g id="edge19" class="edge"><title>blacksmith&#45;&gt;engineer</title>
<path fill="none" stroke="#ebc72d" d="M664.308,-310.588C639.475,-296.386 600.45,-274.068 572.602,-258.141"/>
<polygon fill="#ebc72d" stroke="#ebc72d" points="574.041,-254.932 563.622,-253.006 570.566,-261.009 574.041,-254.932"/>
</g>
<!-- onager -->
<g id="node25" class="node"><title>onager</title>
<g id="a_node25"><a xlink:href="greece_onager_full.html" xlink:title="Onager">
<ellipse fill="none" stroke="magenta" cx="586.247" cy="-33.2132" rx="36.2938" ry="18"/>
<text text-anchor="middle" x="586.247" y="-29.5132" font-family="Times,serif" font-size="14.00" fill="#ebc72d">Onager</text>
</a>
</g>
</g>
<!-- blacksmith&#45;&gt;onager -->
<g id="edge21" class="edge"><title>blacksmith&#45;&gt;onager</title>
<path fill="none" stroke="#ebc72d" stroke-dasharray="1,5" d="M685.915,-310.328C681.139,-278.77 672,-199.734 688.247,-136.64"/>
<path fill="none" stroke="#ebc72d" stroke-dasharray="1,5" d="M688.247,-134.64C694.302,-114.425 647.437,-76.8361 615.199,-53.8197"/>
<polygon fill="#ebc72d" stroke="#ebc72d" points="617.148,-50.9115 606.955,-48.0212 613.121,-56.6371 617.148,-50.9115"/>
</g>
<!-- psiloi -->
<g id="node2" class="node"><title>psiloi</title>
<g id="a_node2"><a xlink:href="greece_psiloi_full.html" xlink:title="Psiloi">
<ellipse fill="none" stroke="magenta" cx="1077.25" cy="-33.2132" rx="30.5947" ry="18"/>
<text text-anchor="middle" x="1077.25" y="-29.5132" font-family="Times,serif" font-size="14.00" fill="#ebc72d">Psiloi</text>
</a>
</g>
</g>
<!-- air_box -->
<g id="node3" class="node"><title>air_box</title>
<g id="a_node3"><a xlink:href="greece_air_box_full.html" xlink:title="Air\nBox">
<polygon fill="none" stroke="red" points="144.422,-43.543 110.247,-66.641 76.0727,-43.543 76.1046,-6.16955 144.39,-6.16955 144.422,-43.543"/>
<text text-anchor="middle" x="110.247" y="-37.0132" font-family="Times,serif" font-size="14.00" fill="#ebc72d">Air</text>
<text text-anchor="middle" x="110.247" y="-22.0132" font-family="Times,serif" font-size="14.00" fill="#ebc72d">Box</text>
</a>
</g>
</g>
<!-- palace -->
<g id="node5" class="node"><title>palace</title>
<g id="a_node5"><a xlink:href="greece_palace_full.html" xlink:title="Palace">
<polygon fill="none" stroke="red" points="533.799,-141.202 492.247,-153.64 450.695,-141.202 450.734,-121.077 533.761,-121.077 533.799,-141.202"/>
<text text-anchor="middle" x="492.247" y="-131.94" font-family="Times,serif" font-size="14.00" fill="#ebc72d">Palace</text>
</a>
</g>
</g>
<!-- palace&#45;&gt;chariot -->
<g id="edge33" class="edge"><title>palace&#45;&gt;chariot</title>
<path fill="none" stroke="#ebc72d" d="M450.515,-127.628C400.138,-118.159 313.666,-98.6521 245.247,-66.4264 238.729,-63.3561 232.14,-59.3737 226.065,-55.2618"/>
<polygon fill="#ebc72d" stroke="#ebc72d" points="227.776,-52.1838 217.6,-49.2358 223.717,-57.8865 227.776,-52.1838"/>
</g>
<!-- artemis -->
<g id="node8" class="node"><title>artemis</title>
<g id="a_node8"><a xlink:href="greece_artemis_full.html" xlink:title="Artemis">
<ellipse fill="none" stroke="magenta" cx="492.247" cy="-33.2132" rx="39.7935" ry="18"/>
<text text-anchor="middle" x="492.247" y="-29.5132" font-family="Times,serif" font-size="14.00" fill="#ebc72d">Artemis</text>
</a>
</g>
</g>
<!-- palace&#45;&gt;artemis -->
<g id="edge32" class="edge"><title>palace&#45;&gt;artemis</title>
<path fill="none" stroke="#ebc72d" d="M492.247,-120.676C492.247,-105.467 492.247,-80.7588 492.247,-61.642"/>
<polygon fill="#ebc72d" stroke="#ebc72d" points="495.748,-61.42 492.247,-51.42 488.748,-61.4201 495.748,-61.42"/>
</g>
<!-- dragon -->
<g id="node11" class="node"><title>dragon</title>
<g id="a_node11"><a xlink:href="greece_dragon_full.html" xlink:title="Dragon">
<ellipse fill="none" stroke="magenta" cx="291.247" cy="-33.2132" rx="37.0935" ry="18"/>
<text text-anchor="middle" x="291.247" y="-29.5132" font-family="Times,serif" font-size="14.00" fill="#ebc72d">Dragon</text>
</a>
</g>
</g>
<!-- palace&#45;&gt;dragon -->
<g id="edge34" class="edge"><title>palace&#45;&gt;dragon</title>
<path fill="none" stroke="#ebc72d" stroke-dasharray="1,5" d="M455.885,-120.991C423.843,-108.418 376.317,-88.4216 337.247,-66.4264 331.083,-62.9558 324.717,-58.8646 318.759,-54.7834"/>
<polygon fill="#ebc72d" stroke="#ebc72d" points="320.584,-51.7871 310.394,-48.8847 316.55,-57.5079 320.584,-51.7871"/>
</g>
<!-- palace&#45;&gt;alexander -->
<g id="edge31" class="edge"><title>palace&#45;&gt;alexander</title>
<path fill="none" stroke="#ebc72d" d="M521.245,-121.014C549.536,-107.579 593.679,-86.2388 631.247,-66.4264 638.908,-62.3867 647.057,-57.8983 654.725,-53.5862"/>
<polygon fill="#ebc72d" stroke="#ebc72d" points="656.475,-56.6179 663.449,-48.6425 653.023,-50.5279 656.475,-56.6179"/>
</g>
<!-- oxybeles -->
<g id="node24" class="node"><title>oxybeles</title>
<g id="a_node24"><a xlink:href="greece_oxybeles_full.html" xlink:title="Oxybeles">
<ellipse fill="none" stroke="magenta" cx="390.247" cy="-33.2132" rx="44.393" ry="18"/>
<text text-anchor="middle" x="390.247" y="-29.5132" font-family="Times,serif" font-size="14.00" fill="#ebc72d">Oxybeles</text>
</a>
</g>
</g>
<!-- palace&#45;&gt;oxybeles -->
<g id="edge36" class="edge"><title>palace&#45;&gt;oxybeles</title>
<path fill="none" stroke="#ebc72d" stroke-dasharray="1,5" d="M478.065,-120.676C461.367,-104.236 433.396,-76.6961 413.51,-57.1172"/>
<polygon fill="#ebc72d" stroke="#ebc72d" points="415.907,-54.5649 406.325,-50.043 410.995,-59.553 415.907,-54.5649"/>
</g>
<!-- palace&#45;&gt;onager -->
<g id="edge35" class="edge"><title>palace&#45;&gt;onager</title>
<path fill="none" stroke="#ebc72d" stroke-dasharray="1,5" d="M505.318,-120.676C520.638,-104.308 546.256,-76.9385 564.566,-57.3765"/>
<polygon fill="#ebc72d" stroke="#ebc72d" points="567.152,-59.7356 571.431,-50.043 562.042,-54.952 567.152,-59.7356"/>
</g>
<!-- advanced_barracks -->
<g id="node9" class="node"><title>advanced_barracks</title>
<g id="a_node9"><a xlink:href="greece_advanced_barracks_full.html" xlink:title="Advanced\nBarracks">
<polygon fill="none" stroke="red" points="1166.36,-145.969 1104.25,-169.067 1042.13,-145.969 1042.19,-108.596 1166.3,-108.596 1166.36,-145.969"/>
<text text-anchor="middle" x="1104.25" y="-139.44" font-family="Times,serif" font-size="14.00" fill="#ebc72d">Advanced</text>
<text text-anchor="middle" x="1104.25" y="-124.44" font-family="Times,serif" font-size="14.00" fill="#ebc72d">Barracks</text>
</a>
</g>
</g>
<!-- advanced_barracks&#45;&gt;psiloi -->
<g id="edge6" class="edge"><title>advanced_barracks&#45;&gt;psiloi</title>
<path fill="none" stroke="#ebc72d" d="M1097.22,-108.516C1093.3,-93.925 1088.42,-75.7775 1084.47,-61.0698"/>
<polygon fill="#ebc72d" stroke="#ebc72d" points="1087.76,-59.8167 1081.78,-51.0683 1081,-61.6342 1087.76,-59.8167"/>
</g>
<!-- advanced_barracks&#45;&gt;cavalry -->
<g id="edge3" class="edge"><title>advanced_barracks&#45;&gt;cavalry</title>
<path fill="none" stroke="#ebc72d" d="M1142.49,-108.516C1167.38,-91.5099 1199.34,-69.6727 1222.17,-54.0812"/>
<polygon fill="#ebc72d" stroke="#ebc72d" points="1224.15,-56.9656 1230.43,-48.4345 1220.2,-51.1856 1224.15,-56.9656"/>
</g>
<!-- archer -->
<g id="node10" class="node"><title>archer</title>
<g id="a_node10"><a xlink:href="greece_archer_full.html" xlink:title="Archer">
<ellipse fill="none" stroke="magenta" cx="993.247" cy="-33.2132" rx="35.194" ry="18"/>
<text text-anchor="middle" x="993.247" y="-29.5132" font-family="Times,serif" font-size="14.00" fill="#ebc72d">Archer</text>
</a>
</g>
</g>
<!-- advanced_barracks&#45;&gt;archer -->
<g id="edge1" class="edge"><title>advanced_barracks&#45;&gt;archer</title>
<path fill="none" stroke="#ebc72d" d="M1075.37,-108.516C1057.49,-92.334 1034.77,-71.7777 1017.76,-56.3906"/>
<polygon fill="#ebc72d" stroke="#ebc72d" points="1019.68,-53.4076 1009.92,-49.2939 1014.98,-58.5984 1019.68,-53.4076"/>
</g>
<!-- advanced_barracks&#45;&gt;battering_ram -->
<g id="edge2" class="edge"><title>advanced_barracks&#45;&gt;battering_ram</title>
<path fill="none" stroke="#ebc72d" d="M1042.09,-115.896C1026.8,-111.388 1010.46,-106.656 995.247,-102.426 934.179,-85.4419 915.907,-90.4428 857.247,-66.4264 851.795,-64.1941 846.222,-61.5214 840.808,-58.6833"/>
<polygon fill="#ebc72d" stroke="#ebc72d" points="842.347,-55.5356 831.895,-53.799 838.983,-61.6742 842.347,-55.5356"/>
</g>
<!-- peltast -->
<g id="node16" class="node"><title>peltast</title>
<g id="a_node16"><a xlink:href="greece_peltast_full.html" xlink:title="Peltast">
<ellipse fill="none" stroke="magenta" cx="1160.25" cy="-33.2132" rx="34.394" ry="18"/>
<text text-anchor="middle" x="1160.25" y="-29.5132" font-family="Times,serif" font-size="14.00" fill="#ebc72d">Peltast</text>
</a>
</g>
</g>
<!-- advanced_barracks&#45;&gt;peltast -->
<g id="edge5" class="edge"><title>advanced_barracks&#45;&gt;peltast</title>
<path fill="none" stroke="#ebc72d" d="M1118.81,-108.516C1127.24,-93.4037 1137.8,-74.4764 1146.14,-59.5071"/>
<polygon fill="#ebc72d" stroke="#ebc72d" points="1149.2,-61.2061 1151.02,-50.7676 1143.09,-57.7969 1149.2,-61.2061"/>
</g>
<!-- advanced_barracks&#45;&gt;hoplite -->
<g id="edge4" class="edge"><title>advanced_barracks&#45;&gt;hoplite</title>
<path fill="none" stroke="#ebc72d" d="M1042.17,-110.606C1013.28,-98.5971 978.838,-83.0851 949.247,-66.4264 943.083,-62.9558 936.717,-58.8646 930.759,-54.7834"/>
<polygon fill="#ebc72d" stroke="#ebc72d" points="932.584,-51.7871 922.394,-48.8847 928.55,-57.5079 932.584,-51.7871"/>
</g>
<!-- barley_field -->
<g id="node12" class="node"><title>barley_field</title>
<g id="a_node12"><a xlink:href="greece_barley_field_full.html" xlink:title="Barley\nField">
<polygon fill="none" stroke="red" points="1278.4,-248.396 1232.25,-271.494 1186.1,-248.396 1186.14,-211.022 1278.35,-211.022 1278.4,-248.396"/>
<text text-anchor="middle" x="1232.25" y="-241.866" font-family="Times,serif" font-size="14.00" fill="#ebc72d">Barley</text>
<text text-anchor="middle" x="1232.25" y="-226.866" font-family="Times,serif" font-size="14.00" fill="#ebc72d">Field</text>
</a>
</g>
</g>
<!-- barley_field&#45;&gt;cavalry -->
<g id="edge7" class="edge"><title>barley_field&#45;&gt;cavalry</title>
<path fill="none" stroke="#ebc72d" stroke-dasharray="1,5" d="M1228.55,-210.982C1226.52,-190.416 1225.58,-161.206 1232.25,-136.64"/>
</g>
<!-- trojan_horse -->
<g id="node15" class="node"><title>trojan_horse</title>
<g id="a_node15"><a xlink:href="greece_trojan_horse_full.html" xlink:title="Trojan\nHorse">
<polygon fill="none" stroke="red" points="986.395,-145.969 940.247,-169.067 894.099,-145.969 894.142,-108.596 986.352,-108.596 986.395,-145.969"/>
<text text-anchor="middle" x="940.247" y="-139.44" font-family="Times,serif" font-size="14.00" fill="#ebc72d">Trojan</text>
<text text-anchor="middle" x="940.247" y="-124.44" font-family="Times,serif" font-size="14.00" fill="#ebc72d">Horse</text>
</a>
</g>
</g>
<!-- trojan_horse&#45;&gt;psiloi -->
<g id="edge48" class="edge"><title>trojan_horse&#45;&gt;psiloi</title>
<path fill="none" stroke="#ebc72d" d="M978.898,-108.316C996.839,-95.8801 1018.33,-80.6684 1037.25,-66.4264 1042.18,-62.7155 1047.36,-58.6575 1052.31,-54.711"/>
<polygon fill="#ebc72d" stroke="#ebc72d" points="1054.72,-57.2576 1060.31,-48.2558 1050.33,-51.8084 1054.72,-57.2576"/>
</g>
<!-- trojan_horse&#45;&gt;archer -->
<g id="edge46" class="edge"><title>trojan_horse&#45;&gt;archer</title>
<path fill="none" stroke="#ebc72d" d="M954.034,-108.516C961.934,-93.5463 971.81,-74.8332 979.674,-59.9318"/>
<polygon fill="#ebc72d" stroke="#ebc72d" points="982.939,-61.2451 984.511,-50.7676 976.748,-57.9779 982.939,-61.2451"/>
</g>
<!-- trojan_horse&#45;&gt;hoplite -->
<g id="edge47" class="edge"><title>trojan_horse&#45;&gt;hoplite</title>
<path fill="none" stroke="#ebc72d" d="M930.623,-108.516C925.195,-93.7833 918.431,-75.4248 912.985,-60.6424"/>
<polygon fill="#ebc72d" stroke="#ebc72d" points="916.199,-59.2417 909.457,-51.0683 909.63,-61.6618 916.199,-59.2417"/>
</g>
<!-- tower -->
<g id="node17" class="node"><title>tower</title>
<g id="a_node17"><a xlink:href="greece_tower_full.html" xlink:title="Tower">
<polygon fill="none" stroke="red" points="799.799,-141.202 758.247,-153.64 716.695,-141.202 716.734,-121.077 799.761,-121.077 799.799,-141.202"/>
<text text-anchor="middle" x="758.247" y="-131.94" font-family="Times,serif" font-size="14.00" fill="#ebc72d">Tower</text>
</a>
</g>
</g>
<!-- temple -->
<g id="node18" class="node"><title>temple</title>
<g id="a_node18"><a xlink:href="greece_temple_full.html" xlink:title="Temple">
<polygon fill="none" stroke="red" points="296.546,-141.202 249.247,-153.64 201.949,-141.202 201.993,-121.077 296.501,-121.077 296.546,-141.202"/>
<text text-anchor="middle" x="249.247" y="-131.94" font-family="Times,serif" font-size="14.00" fill="#ebc72d">Temple</text>
</a>
</g>
</g>
<!-- temple&#45;&gt;air_box -->
<g id="edge42" class="edge"><title>temple&#45;&gt;air_box</title>
<path fill="none" stroke="#ebc72d" stroke-dasharray="1,5" d="M229.655,-120.934C210.181,-107.261 179.508,-85.5882 153.247,-66.4264 149.31,-63.5537 145.189,-60.5116 141.123,-57.4891"/>
<polygon fill="#ebc72d" stroke="#ebc72d" points="143.037,-54.5507 132.93,-51.3729 138.85,-60.1599 143.037,-54.5507"/>
</g>
<!-- temple&#45;&gt;chariot -->
<g id="edge44" class="edge"><title>temple&#45;&gt;chariot</title>
<path fill="none" stroke="#ebc72d" stroke-dasharray="1,5" d="M242.295,-120.676C234.536,-105.092 221.812,-79.534 212.204,-60.2377"/>
<polygon fill="#ebc72d" stroke="#ebc72d" points="215.231,-58.4638 207.641,-51.0719 208.965,-61.5837 215.231,-58.4638"/>
</g>
<!-- temple&#45;&gt;atlas -->
<g id="edge43" class="edge"><title>temple&#45;&gt;atlas</title>
<path fill="none" stroke="#ebc72d" d="M201.625,-121.73C163.684,-110.304 110.023,-91.5401 67.2474,-66.4264 61.9916,-63.3408 56.75,-59.513 51.9129,-55.5855"/>
<polygon fill="#ebc72d" stroke="#ebc72d" points="54.094,-52.8451 44.2234,-48.995 49.5386,-58.1601 54.094,-52.8451"/>
</g>
<!-- temple&#45;&gt;dragon -->
<g id="edge45" class="edge"><title>temple&#45;&gt;dragon</title>
<path fill="none" stroke="#ebc72d" d="M255.087,-120.676C261.575,-105.163 272.196,-79.7672 280.253,-60.5024"/>
<polygon fill="#ebc72d" stroke="#ebc72d" points="283.567,-61.648 284.197,-51.0719 277.109,-58.9471 283.567,-61.648"/>
</g>
<!-- slave -->
<g id="node20" class="node"><title>slave</title>
<g id="a_node20"><a xlink:href="greece_slave_full.html" xlink:title="Slave">
<ellipse fill="none" stroke="magenta" cx="828.247" cy="-397.279" rx="30.5947" ry="18"/>
<text text-anchor="middle" x="828.247" y="-393.579" font-family="Times,serif" font-size="14.00" fill="#ebc72d">Slave</text>
</a>
</g>
</g>
<!-- slave&#45;&gt;blacksmith -->
<g id="edge39" class="edge"><title>slave&#45;&gt;blacksmith</title>
<path fill="none" stroke="#ebc72d" stroke-width="2" d="M805.754,-385.033C783.174,-373.743 748.108,-356.21 722.154,-343.233"/>
<polygon fill="#ebc72d" stroke="#ebc72d" stroke-width="2" points="723.554,-340.02 713.045,-338.678 720.424,-346.281 723.554,-340.02"/>
</g>
<!-- slave&#45;&gt;barley_field -->
<g id="edge37" class="edge"><title>slave&#45;&gt;barley_field</title>
<path fill="none" stroke="#ebc72d" stroke-width="2" d="M966.247,-324.279C1046.13,-273.729 1084.19,-305.665 1172.25,-271.279 1179.29,-268.53 1186.56,-265.144 1193.5,-261.612"/>
<polygon fill="#ebc72d" stroke="#ebc72d" stroke-width="2" points="1195.5,-264.514 1202.71,-256.75 1192.23,-258.323 1195.5,-264.514"/>
</g>
<!-- slave&#45;&gt;tower -->
<g id="edge41" class="edge"><title>slave&#45;&gt;tower</title>
<path fill="none" stroke="#ebc72d" stroke-width="2" d="M852.437,-385.706C880.596,-373.017 928.109,-350.412 966.247,-326.279"/>
<path fill="none" stroke="#ebc72d" stroke-width="2" d="M966.247,-324.279C1049.8,-271.41 869.461,-184.172 791.679,-150.497"/>
<polygon fill="#ebc72d" stroke="#ebc72d" stroke-width="2" points="792.861,-147.196 782.29,-146.478 790.105,-153.631 792.861,-147.196"/>
</g>
<!-- barracks -->
<g id="node22" class="node"><title>barracks</title>
<g id="a_node22"><a xlink:href="greece_barracks_full.html" xlink:title="Barracks">
<polygon fill="none" stroke="red" points="1098.69,-243.628 1046.25,-256.066 993.808,-243.628 993.857,-223.504 1098.64,-223.504 1098.69,-243.628"/>
<text text-anchor="middle" x="1046.25" y="-234.366" font-family="Times,serif" font-size="14.00" fill="#ebc72d">Barracks</text>
</a>
</g>
</g>
<!-- slave&#45;&gt;barracks -->
<g id="edge38" class="edge"><title>slave&#45;&gt;barracks</title>
<path fill="none" stroke="#ebc72d" stroke-width="2" d="M966.247,-324.279C992.121,-307.907 1015.29,-281.231 1029.95,-262.085"/>
<polygon fill="#ebc72d" stroke="#ebc72d" stroke-width="2" points="1032.89,-263.991 1036.07,-253.883 1027.28,-259.807 1032.89,-263.991"/>
</g>
<!-- castle -->
<g id="node23" class="node"><title>castle</title>
<g id="a_node23"><a xlink:href="greece_castle_full.html" xlink:title="Castle">
<polygon fill="none" stroke="red" points="868.585,-330.842 828.247,-343.279 787.909,-330.842 787.947,-310.717 868.548,-310.717 868.585,-330.842"/>
<text text-anchor="middle" x="828.247" y="-321.579" font-family="Times,serif" font-size="14.00" fill="#ebc72d">Castle</text>
</a>
</g>
</g>
<!-- slave&#45;&gt;castle -->
<g id="edge40" class="edge"><title>slave&#45;&gt;castle</title>
<path fill="none" stroke="#ebc72d" stroke-width="2" d="M828.247,-368.944C828.247,-363.966 828.247,-358.77 828.247,-353.786"/>
<polygon fill="#ebc72d" stroke="#ebc72d" stroke-width="2" points="824.748,-368.976 828.247,-378.976 831.748,-368.976 824.748,-368.976"/>
<polygon fill="#ebc72d" stroke="#ebc72d" stroke-width="2" points="831.748,-353.384 828.247,-343.384 824.748,-353.384 831.748,-353.384"/>
</g>
<!-- engineer&#45;&gt;air_box -->
<g id="edge24" class="edge"><title>engineer&#45;&gt;air_box</title>
<path fill="none" stroke="#ebc72d" stroke-width="2" d="M498.338,-233.121C417.826,-224.703 242.358,-202.923 193.247,-168.853 158.739,-144.914 135.838,-101.52 122.993,-70.4634"/>
<polygon fill="#ebc72d" stroke="#ebc72d" stroke-width="2" points="126.12,-68.8541 119.173,-60.8539 119.614,-71.4395 126.12,-68.8541"/>
</g>
<!-- engineer&#45;&gt;palace -->
<g id="edge27" class="edge"><title>engineer&#45;&gt;palace</title>
<path fill="none" stroke="#ebc72d" stroke-width="2" d="M531.274,-220.03C523.682,-203.807 512.176,-179.221 503.622,-160.943"/>
<polygon fill="#ebc72d" stroke="#ebc72d" stroke-width="2" points="506.744,-159.359 499.335,-151.785 500.404,-162.326 506.744,-159.359"/>
</g>
<!-- engineer&#45;&gt;trojan_horse -->
<g id="edge30" class="edge"><title>engineer&#45;&gt;trojan_horse</title>
<path fill="none" stroke="#ebc72d" stroke-width="2" d="M574.833,-228.154C645.563,-210.44 804.143,-170.726 887.208,-149.923"/>
<polygon fill="#ebc72d" stroke="#ebc72d" stroke-width="2" points="888.102,-153.307 896.952,-147.482 886.402,-146.517 888.102,-153.307"/>
</g>
<!-- engineer&#45;&gt;tower -->
<g id="edge29" class="edge"><title>engineer&#45;&gt;tower</title>
<path fill="none" stroke="#ebc72d" stroke-width="2" d="M569.798,-225.608C602.938,-212.874 657.149,-191.151 702.247,-168.853 711.724,-164.167 721.814,-158.565 730.781,-153.356"/>
<polygon fill="#ebc72d" stroke="#ebc72d" stroke-width="2" points="732.812,-156.222 739.646,-148.126 729.255,-150.193 732.812,-156.222"/>
</g>
<!-- engineer&#45;&gt;temple -->
<g id="edge28" class="edge"><title>engineer&#45;&gt;temple</title>
<path fill="none" stroke="#ebc72d" stroke-width="2" d="M507.383,-226.031C453.416,-207.343 344.298,-169.556 286.741,-149.624"/>
<polygon fill="#ebc72d" stroke="#ebc72d" stroke-width="2" points="287.885,-146.316 277.291,-146.351 285.595,-152.931 287.885,-146.316"/>
</g>
<!-- engineer&#45;&gt;oxybeles -->
<g id="edge26" class="edge"><title>engineer&#45;&gt;oxybeles</title>
<path fill="none" stroke="#ebc72d" stroke-dasharray="5,2" d="M512.154,-224.042C490.325,-212.32 460.244,-193.208 441.247,-168.853 416.055,-136.554 402.217,-90.4345 395.52,-61.4239"/>
<polygon fill="#ebc72d" stroke="#ebc72d" points="398.921,-60.5904 393.368,-51.5671 392.082,-62.0836 398.921,-60.5904"/>
</g>
<!-- engineer&#45;&gt;onager -->
<g id="edge25" class="edge"><title>engineer&#45;&gt;onager</title>
<path fill="none" stroke="#ebc72d" stroke-dasharray="5,2" d="M543.174,-220.12C551.33,-184.919 570.163,-103.635 580.003,-61.1637"/>
<polygon fill="#ebc72d" stroke="#ebc72d" points="583.452,-61.7858 582.299,-51.2539 576.632,-60.2058 583.452,-61.7858"/>
</g>
<!-- barracks&#45;&gt;psiloi -->
<g id="edge13" class="edge"><title>barracks&#45;&gt;psiloi</title>
<path fill="none" stroke="#ebc72d" d="M1090.54,-223.455C1128.19,-208.978 1178.56,-181.812 1194.25,-136.64"/>
<path fill="none" stroke="#ebc72d" d="M1194.25,-134.64C1206.68,-98.8368 1122.86,-70.4078 1117.25,-66.4264 1112.21,-62.8584 1106.98,-58.8661 1102.02,-54.9394"/>
<polygon fill="#ebc72d" stroke="#ebc72d" points="1104,-52.0377 1094.02,-48.4795 1099.6,-57.4844 1104,-52.0377"/>
</g>
<!-- barracks&#45;&gt;cavalry -->
<g id="edge10" class="edge"><title>barracks&#45;&gt;cavalry</title>
<path fill="none" stroke="#ebc72d" d="M1194.25,-134.64C1203.83,-107.049 1220.97,-78.3371 1233.95,-58.7156"/>
<polygon fill="#ebc72d" stroke="#ebc72d" points="1236.89,-60.6222 1239.59,-50.3767 1231.09,-56.7033 1236.89,-60.6222"/>
</g>
<!-- barracks&#45;&gt;advanced_barracks -->
<g id="edge8" class="edge"><title>barracks&#45;&gt;advanced_barracks</title>
<path fill="none" stroke="#ebc72d" stroke-dasharray="5,2" d="M1054.31,-223.102C1061.84,-210.068 1073.4,-190.056 1083.5,-172.566"/>
<polygon fill="#ebc72d" stroke="#ebc72d" points="1086.65,-174.111 1088.62,-163.701 1080.59,-170.61 1086.65,-174.111"/>
</g>
<!-- barracks&#45;&gt;archer -->
<g id="edge9" class="edge"><title>barracks&#45;&gt;archer</title>
<path fill="none" stroke="#ebc72d" d="M1042.69,-223.441C1034.03,-190.287 1011.72,-104.917 1000.27,-61.0747"/>
<polygon fill="#ebc72d" stroke="#ebc72d" points="1003.58,-59.92 997.667,-51.1296 996.809,-61.6896 1003.58,-59.92"/>
</g>
<!-- barracks&#45;&gt;peltast -->
<g id="edge12" class="edge"><title>barracks&#45;&gt;peltast</title>
<path fill="none" stroke="#ebc72d" d="M1194.25,-134.64C1203.2,-108.855 1190.37,-79.2451 1178,-58.8936"/>
<polygon fill="#ebc72d" stroke="#ebc72d" points="1180.78,-56.7507 1172.42,-50.2414 1174.89,-60.543 1180.78,-56.7507"/>
</g>
<!-- barracks&#45;&gt;hoplite -->
<g id="edge11" class="edge"><title>barracks&#45;&gt;hoplite</title>
<path fill="none" stroke="#ebc72d" d="M1019.85,-223.494C1007.88,-217.518 993.472,-210.571 980.247,-204.853 938.804,-186.932 910.902,-206.009 885.247,-168.853 862.856,-136.423 877.368,-88.9602 890.145,-59.9095"/>
<polygon fill="#ebc72d" stroke="#ebc72d" points="893.332,-61.3569 894.356,-50.8117 886.979,-58.4166 893.332,-61.3569"/>
</g>
<!-- castle&#45;&gt;alexander -->
<g id="edge22" class="edge"><title>castle&#45;&gt;alexander</title>
<path fill="none" stroke="#ebc72d" stroke-dasharray="1,5" d="M831.135,-310.671C838.181,-273.737 852.663,-169.875 809.247,-102.426 791.583,-74.9843 773.676,-82.455 745.247,-66.4264 737.937,-62.3049 730.103,-57.8814 722.655,-53.6729"/>
<polygon fill="#ebc72d" stroke="#ebc72d" points="723.923,-50.3695 713.495,-48.4961 720.479,-56.4635 723.923,-50.3695"/>
</g>
</g>
</svg>
