<?xml version="1.0" encoding="UTF-8" standalone="no"?>
<!DOCTYPE svg PUBLIC "-//W3C//DTD SVG 1.1//EN"
 "http://www.w3.org/Graphics/SVG/1.1/DTD/svg11.dtd">
<!-- Generated by graphviz version 2.38.0 (20140413.2041)
 -->
<!-- Title: test Pages: 1 -->
<svg width="1563pt" height="644pt"
 viewBox="0.00 0.00 1562.75 644.17" xmlns="http://www.w3.org/2000/svg" xmlns:xlink="http://www.w3.org/1999/xlink">
<g id="graph0" class="graph" transform="scale(1 1) rotate(0) translate(4 640.167)">
<title>test</title>
<polygon fill="#151515" stroke="none" points="-4,4 -4,-640.167 1558.75,-640.167 1558.75,4 -4,4"/>
<!-- blacksmith -->
<g id="node1" class="node"><title>blacksmith</title>
<g id="a_node1"><a xlink:href="greece_blacksmith_full.html" xlink:title="Blacksmith">
<polygon fill="none" stroke="red" points="519.233,-449.302 455.8,-461.74 392.367,-449.302 392.426,-429.178 519.174,-429.178 519.233,-449.302"/>
<text text-anchor="middle" x="455.8" y="-440.04" font-family="Times,serif" font-size="14.00" fill="#ebc72d">Blacksmith</text>
</a>
</g>
</g>
<!-- palace -->
<g id="node5" class="node"><title>palace</title>
<g id="a_node5"><a xlink:href="greece_palace_full.html" xlink:title="Palace">
<polygon fill="none" stroke="red" points="572.352,-245.302 530.8,-257.74 489.248,-245.302 489.287,-225.178 572.313,-225.178 572.352,-245.302"/>
<text text-anchor="middle" x="530.8" y="-236.04" font-family="Times,serif" font-size="14.00" fill="#ebc72d">Palace</text>
</a>
</g>
</g>
<!-- blacksmith&#45;&gt;palace -->
<g id="edge26" class="edge"><title>blacksmith&#45;&gt;palace</title>
<path fill="none" stroke="#ebc72d" stroke-dasharray="1,5" d="M476.299,-428.999C488.716,-419.505 503.678,-405.734 511.8,-389.74 531.656,-350.638 533.624,-298.609 532.637,-267.512"/>
<polygon fill="#ebc72d" stroke="#ebc72d" points="536.13,-267.276 532.189,-257.441 529.137,-267.587 536.13,-267.276"/>
</g>
<!-- temple -->
<g id="node18" class="node"><title>temple</title>
<g id="a_node18"><a xlink:href="greece_temple_full.html" xlink:title="Temple">
<polygon fill="none" stroke="red" points="503.098,-357.302 455.8,-369.74 408.502,-357.302 408.546,-337.178 503.054,-337.178 503.098,-357.302"/>
<text text-anchor="middle" x="455.8" y="-348.04" font-family="Times,serif" font-size="14.00" fill="#ebc72d">Temple</text>
</a>
</g>
</g>
<!-- blacksmith&#45;&gt;temple -->
<g id="edge28" class="edge"><title>blacksmith&#45;&gt;temple</title>
<path fill="none" stroke="#ebc72d" stroke-dasharray="1,5" d="M455.8,-429.071C455.8,-416.082 455.8,-396.18 455.8,-379.954"/>
<polygon fill="#ebc72d" stroke="#ebc72d" points="459.3,-379.932 455.8,-369.932 452.3,-379.932 459.3,-379.932"/>
</g>
<!-- helmets -->
<g id="node26" class="node"><title>helmets</title>
<g id="a_node26"><a xlink:href="greece_helmets_full.html" xlink:title="Helmets">
<polygon fill="none" stroke="green" points="265.964,-369.74 171.847,-369.74 147.635,-333.74 241.753,-333.74 265.964,-369.74"/>
<text text-anchor="middle" x="206.8" y="-348.04" font-family="Times,serif" font-size="14.00" fill="#ebc72d">Helmets</text>
</a>
</g>
</g>
<!-- blacksmith&#45;&gt;helmets -->
<g id="edge25" class="edge"><title>blacksmith&#45;&gt;helmets</title>
<path fill="none" stroke="#ebc72d" d="M397.659,-429.092C361.623,-419.811 314.749,-406.236 274.8,-389.74 264.433,-385.459 253.598,-380.038 243.703,-374.674"/>
<polygon fill="#ebc72d" stroke="#ebc72d" points="245.362,-371.592 234.92,-369.798 241.965,-377.712 245.362,-371.592"/>
</g>
<!-- advanced_buildings -->
<g id="node27" class="node"><title>advanced_buildings</title>
<g id="a_node27"><a xlink:href="greece_advanced_buildings_full.html" xlink:title="Advanced\nBuildings">
<polygon fill="none" stroke="green" points="976.519,-389.74 859.248,-389.74 829.081,-313.74 946.351,-313.74 976.519,-389.74"/>
<text text-anchor="middle" x="902.8" y="-355.54" font-family="Times,serif" font-size="14.00" fill="#ebc72d">Advanced</text>
<text text-anchor="middle" x="902.8" y="-340.54" font-family="Times,serif" font-size="14.00" fill="#ebc72d">Buildings</text>
</a>
</g>
</g>
<!-- blacksmith&#45;&gt;advanced_buildings -->
<g id="edge24" class="edge"><title>blacksmith&#45;&gt;advanced_buildings</title>
<path fill="none" stroke="#ebc72d" stroke-dasharray="1,5" d="M519.383,-438.209C591.931,-431.927 713.615,-417.994 814.8,-389.74 824.377,-387.066 834.3,-383.613 843.879,-379.892"/>
<polygon fill="#ebc72d" stroke="#ebc72d" points="845.342,-383.077 853.318,-376.102 842.734,-376.581 845.342,-383.077"/>
</g>
<!-- shields -->
<g id="node28" class="node"><title>shields</title>
<g id="a_node28"><a xlink:href="greece_shields_full.html" xlink:title="Shields">
<polygon fill="none" stroke="green" points="390.029,-369.74 305.353,-369.74 283.57,-333.74 368.247,-333.74 390.029,-369.74"/>
<text text-anchor="middle" x="336.8" y="-348.04" font-family="Times,serif" font-size="14.00" fill="#ebc72d">Shields</text>
</a>
</g>
</g>
<!-- blacksmith&#45;&gt;shields -->
<g id="edge27" class="edge"><title>blacksmith&#45;&gt;shields</title>
<path fill="none" stroke="#ebc72d" d="M437.726,-429.071C419.162,-415.031 389.916,-392.912 367.675,-376.091"/>
<polygon fill="#ebc72d" stroke="#ebc72d" points="369.618,-373.172 359.531,-369.932 365.396,-378.755 369.618,-373.172"/>
</g>
<!-- weapons -->
<g id="node33" class="node"><title>weapons</title>
<g id="a_node33"><a xlink:href="greece_weapons_full.html" xlink:title="Weapons">
<polygon fill="none" stroke="green" points="129.4,-369.74 26.6355,-369.74 0.199519,-333.74 102.964,-333.74 129.4,-369.74"/>
<text text-anchor="middle" x="64.7999" y="-348.04" font-family="Times,serif" font-size="14.00" fill="#ebc72d">Weapons</text>
</a>
</g>
</g>
<!-- blacksmith&#45;&gt;weapons -->
<g id="edge29" class="edge"><title>blacksmith&#45;&gt;weapons</title>
<path fill="none" stroke="#ebc72d" d="M392.226,-437.718C327.261,-431.295 224.092,-417.5 138.8,-389.74 126.742,-385.816 114.2,-380.198 102.942,-374.521"/>
<polygon fill="#ebc72d" stroke="#ebc72d" points="104.313,-371.289 93.8265,-369.775 101.08,-377.498 104.313,-371.289"/>
</g>
<!-- psiloi -->
<g id="node2" class="node"><title>psiloi</title>
<g id="a_node2"><a xlink:href="greece_psiloi_full.html" xlink:title="Psiloi">
<ellipse fill="none" stroke="magenta" cx="988.8" cy="-127.74" rx="30.5947" ry="18"/>
<text text-anchor="middle" x="988.8" y="-124.04" font-family="Times,serif" font-size="14.00" fill="#ebc72d">Psiloi</text>
</a>
</g>
</g>
<!-- air_box -->
<g id="node3" class="node"><title>air_box</title>
<g id="a_node3"><a xlink:href="greece_air_box_full.html" xlink:title="Air\nBox">
<polygon fill="none" stroke="red" points="696.975,-138.07 662.8,-161.168 628.625,-138.07 628.657,-100.696 696.943,-100.696 696.975,-138.07"/>
<text text-anchor="middle" x="662.8" y="-131.54" font-family="Times,serif" font-size="14.00" fill="#ebc72d">Air</text>
<text text-anchor="middle" x="662.8" y="-116.54" font-family="Times,serif" font-size="14.00" fill="#ebc72d">Box</text>
</a>
</g>
</g>
<!-- cavalry -->
<g id="node4" class="node"><title>cavalry</title>
<g id="a_node4"><a xlink:href="greece_cavalry_full.html" xlink:title="Cavalry">
<ellipse fill="none" stroke="magenta" cx="1458.8" cy="-127.74" rx="38.1938" ry="18"/>
<text text-anchor="middle" x="1458.8" y="-124.04" font-family="Times,serif" font-size="14.00" fill="#ebc72d">Cavalry</text>
</a>
</g>
</g>
<!-- palace&#45;&gt;air_box -->
<g id="edge40" class="edge"><title>palace&#45;&gt;air_box</title>
<path fill="none" stroke="#ebc72d" stroke-dasharray="1,5" d="M547.251,-225.031C568.671,-207.181 606.5,-175.656 633.023,-153.554"/>
<polygon fill="#ebc72d" stroke="#ebc72d" points="635.419,-156.114 640.86,-147.023 630.937,-150.736 635.419,-156.114"/>
</g>
<!-- chariot -->
<g id="node6" class="node"><title>chariot</title>
<g id="a_node6"><a xlink:href="greece_chariot_full.html" xlink:title="Chariot">
<ellipse fill="none" stroke="magenta" cx="1032.8" cy="-26.8701" rx="37.0935" ry="18"/>
<text text-anchor="middle" x="1032.8" y="-23.1701" font-family="Times,serif" font-size="14.00" fill="#ebc72d">Chariot</text>
</a>
</g>
</g>
<!-- palace&#45;&gt;chariot -->
<g id="edge43" class="edge"><title>palace&#45;&gt;chariot</title>
<path fill="none" stroke="#ebc72d" d="M541.199,-225.147C551.972,-210.78 568.993,-187.264 581.8,-165.74 601.11,-133.286 589.188,-111.856 619.8,-89.7401 664.94,-57.1274 812.735,-62.0532 867.8,-53.7401 908.417,-47.6081 954.61,-40.3404 987.768,-35.0719"/>
<polygon fill="#ebc72d" stroke="#ebc72d" points="988.727,-38.4635 998.053,-33.4355 987.627,-31.5504 988.727,-38.4635"/>
</g>
<!-- artemis -->
<g id="node8" class="node"><title>artemis</title>
<g id="a_node8"><a xlink:href="greece_artemis_full.html" xlink:title="Artemis">
<ellipse fill="none" stroke="magenta" cx="290.8" cy="-127.74" rx="39.7935" ry="18"/>
<text text-anchor="middle" x="290.8" y="-124.04" font-family="Times,serif" font-size="14.00" fill="#ebc72d">Artemis</text>
</a>
</g>
</g>
<!-- palace&#45;&gt;artemis -->
<g id="edge42" class="edge"><title>palace&#45;&gt;artemis</title>
<path fill="none" stroke="#ebc72d" d="M489.072,-226.55C449.344,-214.086 388.552,-192.749 339.8,-165.74 331.892,-161.359 323.845,-155.82 316.62,-150.37"/>
<polygon fill="#ebc72d" stroke="#ebc72d" points="318.61,-147.484 308.573,-144.09 314.303,-153.002 318.61,-147.484"/>
</g>
<!-- dragon -->
<g id="node11" class="node"><title>dragon</title>
<g id="a_node11"><a xlink:href="greece_dragon_full.html" xlink:title="Dragon">
<ellipse fill="none" stroke="magenta" cx="385.8" cy="-127.74" rx="37.0935" ry="18"/>
<text text-anchor="middle" x="385.8" y="-124.04" font-family="Times,serif" font-size="14.00" fill="#ebc72d">Dragon</text>
</a>
</g>
</g>
<!-- palace&#45;&gt;dragon -->
<g id="edge44" class="edge"><title>palace&#45;&gt;dragon</title>
<path fill="none" stroke="#ebc72d" stroke-dasharray="1,5" d="M512.729,-225.031C487.716,-206.056 442.333,-171.627 413.155,-149.492"/>
<polygon fill="#ebc72d" stroke="#ebc72d" points="415.105,-146.579 405.023,-143.323 410.875,-152.156 415.105,-146.579"/>
</g>
<!-- alexander -->
<g id="node13" class="node"><title>alexander</title>
<g id="a_node13"><a xlink:href="greece_alexander_full.html" xlink:title="Alexander">
<ellipse fill="none" stroke="magenta" cx="525.8" cy="-127.74" rx="47.3916" ry="18"/>
<text text-anchor="middle" x="525.8" y="-124.04" font-family="Times,serif" font-size="14.00" fill="#ebc72d">Alexander</text>
</a>
</g>
</g>
<!-- palace&#45;&gt;alexander -->
<g id="edge41" class="edge"><title>palace&#45;&gt;alexander</title>
<path fill="none" stroke="#ebc72d" d="M530.167,-224.809C529.381,-207.519 528.023,-177.651 527.03,-155.797"/>
<polygon fill="#ebc72d" stroke="#ebc72d" points="530.526,-155.634 526.575,-145.803 523.533,-155.952 530.526,-155.634"/>
</g>
<!-- oxybeles -->
<g id="node24" class="node"><title>oxybeles</title>
<g id="a_node24"><a xlink:href="greece_oxybeles_full.html" xlink:title="Oxybeles">
<ellipse fill="none" stroke="magenta" cx="814.8" cy="-26.8701" rx="44.393" ry="18"/>
<text text-anchor="middle" x="814.8" y="-23.1701" font-family="Times,serif" font-size="14.00" fill="#ebc72d">Oxybeles</text>
</a>
</g>
</g>
<!-- palace&#45;&gt;oxybeles -->
<g id="edge46" class="edge"><title>palace&#45;&gt;oxybeles</title>
<path fill="none" stroke="#ebc72d" stroke-dasharray="1,5" d="M514.171,-225.113C499.317,-211.77 478.587,-189.96 469.8,-165.74 458.28,-133.988 448.126,-115.647 469.8,-89.7401 506.279,-46.1366 673.302,-33.224 760.869,-29.4296"/>
<polygon fill="#ebc72d" stroke="#ebc72d" points="761.035,-32.9259 770.884,-29.0205 760.749,-25.9317 761.035,-32.9259"/>
</g>
<!-- onager -->
<g id="node25" class="node"><title>onager</title>
<g id="a_node25"><a xlink:href="greece_onager_full.html" xlink:title="Onager">
<ellipse fill="none" stroke="magenta" cx="750.8" cy="-127.74" rx="36.2938" ry="18"/>
<text text-anchor="middle" x="750.8" y="-124.04" font-family="Times,serif" font-size="14.00" fill="#ebc72d">Onager</text>
</a>
</g>
</g>
<!-- palace&#45;&gt;onager -->
<g id="edge45" class="edge"><title>palace&#45;&gt;onager</title>
<path fill="none" stroke="#ebc72d" stroke-dasharray="1,5" d="M550.111,-225.116C561.548,-217.492 576.548,-208.242 590.8,-201.74 639.526,-179.512 658.691,-191.217 705.8,-165.74 713.306,-161.681 720.753,-156.278 727.364,-150.858"/>
<polygon fill="#ebc72d" stroke="#ebc72d" points="729.937,-153.261 735.232,-144.084 725.37,-147.956 729.937,-153.261"/>
</g>
<!-- atlas -->
<g id="node7" class="node"><title>atlas</title>
<g id="a_node7"><a xlink:href="greece_atlas_full.html" xlink:title="Atlas">
<ellipse fill="none" stroke="magenta" cx="165.8" cy="-239.74" rx="29.4969" ry="18"/>
<text text-anchor="middle" x="165.8" y="-236.04" font-family="Times,serif" font-size="14.00" fill="#ebc72d">Atlas</text>
</a>
</g>
</g>
<!-- advanced_barracks -->
<g id="node9" class="node"><title>advanced_barracks</title>
<g id="a_node9"><a xlink:href="greece_advanced_barracks_full.html" xlink:title="Advanced\nBarracks">
<polygon fill="none" stroke="red" points="1240.91,-250.07 1178.8,-273.168 1116.69,-250.07 1116.75,-212.696 1240.85,-212.696 1240.91,-250.07"/>
<text text-anchor="middle" x="1178.8" y="-243.54" font-family="Times,serif" font-size="14.00" fill="#ebc72d">Advanced</text>
<text text-anchor="middle" x="1178.8" y="-228.54" font-family="Times,serif" font-size="14.00" fill="#ebc72d">Barracks</text>
</a>
</g>
</g>
<!-- advanced_barracks&#45;&gt;psiloi -->
<g id="edge8" class="edge"><title>advanced_barracks&#45;&gt;psiloi</title>
<path fill="none" stroke="#ebc72d" d="M1125.07,-212.592C1082.03,-191.645 1028.8,-165.74 1028.8,-165.74 1022.46,-161.409 1016.13,-156.108 1010.43,-150.885"/>
<polygon fill="#ebc72d" stroke="#ebc72d" points="1012.76,-148.275 1003.11,-143.912 1007.93,-153.344 1012.76,-148.275"/>
</g>
<!-- advanced_barracks&#45;&gt;cavalry -->
<g id="edge4" class="edge"><title>advanced_barracks&#45;&gt;cavalry</title>
<path fill="none" stroke="#ebc72d" d="M1224.61,-212.672C1232.83,-208.631 1241.44,-204.792 1249.8,-201.74 1318.67,-176.585 1344.41,-196.861 1410.8,-165.74 1419.02,-161.888 1427.15,-156.432 1434.31,-150.89"/>
<polygon fill="#ebc72d" stroke="#ebc72d" points="1436.69,-153.466 1442.23,-144.435 1432.27,-148.04 1436.69,-153.466"/>
</g>
<!-- archer -->
<g id="node10" class="node"><title>archer</title>
<g id="a_node10"><a xlink:href="greece_archer_full.html" xlink:title="Archer">
<ellipse fill="none" stroke="magenta" cx="904.8" cy="-127.74" rx="35.194" ry="18"/>
<text text-anchor="middle" x="904.8" y="-124.04" font-family="Times,serif" font-size="14.00" fill="#ebc72d">Archer</text>
</a>
</g>
</g>
<!-- advanced_barracks&#45;&gt;archer -->
<g id="edge2" class="edge"><title>advanced_barracks&#45;&gt;archer</title>
<path fill="none" stroke="#ebc72d" d="M1129.2,-212.637C1120.54,-208.648 1111.51,-204.835 1102.8,-201.74 1036.57,-178.21 1011.64,-197.223 948.8,-165.74 941.271,-161.968 933.925,-156.663 927.459,-151.246"/>
<polygon fill="#ebc72d" stroke="#ebc72d" points="929.592,-148.459 919.793,-144.43 924.941,-153.69 929.592,-148.459"/>
</g>
<!-- battering_ram -->
<g id="node14" class="node"><title>battering_ram</title>
<g id="a_node14"><a xlink:href="greece_battering_ram_full.html" xlink:title="Battering\nRam">
<ellipse fill="none" stroke="magenta" cx="1254.8" cy="-26.8701" rx="47.2526" ry="26.7407"/>
<text text-anchor="middle" x="1254.8" y="-30.6701" font-family="Times,serif" font-size="14.00" fill="#ebc72d">Battering</text>
<text text-anchor="middle" x="1254.8" y="-15.6701" font-family="Times,serif" font-size="14.00" fill="#ebc72d">Ram</text>
</a>
</g>
</g>
<!-- advanced_barracks&#45;&gt;battering_ram -->
<g id="edge3" class="edge"><title>advanced_barracks&#45;&gt;battering_ram</title>
<path fill="none" stroke="#ebc72d" d="M1226.52,-212.537C1252.16,-197.354 1279.9,-178.732 1286.8,-165.74 1304.32,-132.744 1289.74,-90.3092 1275.01,-61.2866"/>
<polygon fill="#ebc72d" stroke="#ebc72d" points="1278.05,-59.548 1270.27,-52.3639 1271.87,-62.8361 1278.05,-59.548"/>
</g>
<!-- peltast -->
<g id="node16" class="node"><title>peltast</title>
<g id="a_node16"><a xlink:href="greece_peltast_full.html" xlink:title="Peltast">
<ellipse fill="none" stroke="magenta" cx="1367.8" cy="-127.74" rx="34.394" ry="18"/>
<text text-anchor="middle" x="1367.8" y="-124.04" font-family="Times,serif" font-size="14.00" fill="#ebc72d">Peltast</text>
</a>
</g>
</g>
<!-- advanced_barracks&#45;&gt;peltast -->
<g id="edge7" class="edge"><title>advanced_barracks&#45;&gt;peltast</title>
<path fill="none" stroke="#ebc72d" d="M1228.82,-212.63C1235.86,-208.967 1243.01,-205.255 1249.8,-201.74 1280.87,-185.656 1290.27,-184.497 1319.8,-165.74 1327.33,-160.956 1335.14,-155.28 1342.22,-149.83"/>
<polygon fill="#ebc72d" stroke="#ebc72d" points="1344.44,-152.537 1350.13,-143.601 1340.11,-147.038 1344.44,-152.537"/>
</g>
<!-- hoplite -->
<g id="node19" class="node"><title>hoplite</title>
<g id="a_node19"><a xlink:href="greece_hoplite_full.html" xlink:title="Hoplite">
<ellipse fill="none" stroke="magenta" cx="1074.8" cy="-127.74" rx="37.0935" ry="18"/>
<text text-anchor="middle" x="1074.8" y="-124.04" font-family="Times,serif" font-size="14.00" fill="#ebc72d">Hoplite</text>
</a>
</g>
</g>
<!-- advanced_barracks&#45;&gt;hoplite -->
<g id="edge5" class="edge"><title>advanced_barracks&#45;&gt;hoplite</title>
<path fill="none" stroke="#ebc72d" d="M1154.15,-212.672C1136.76,-194.27 1113.65,-169.828 1096.86,-152.069"/>
<polygon fill="#ebc72d" stroke="#ebc72d" points="1099.04,-149.288 1089.63,-144.426 1093.96,-154.097 1099.04,-149.288"/>
</g>
<!-- advanced_barracks&#45;&gt;onager -->
<g id="edge6" class="edge"><title>advanced_barracks&#45;&gt;onager</title>
<path fill="none" stroke="#ebc72d" d="M1130.64,-212.586C1121.58,-208.453 1112.05,-204.606 1102.8,-201.74 998.929,-169.567 966.523,-191.173 860.8,-165.74 836.109,-159.8 809.067,-150.741 787.974,-143.073"/>
<polygon fill="#ebc72d" stroke="#ebc72d" points="789.026,-139.731 778.433,-139.553 786.603,-146.298 789.026,-139.731"/>
</g>
<!-- advanced_training -->
<g id="node31" class="node"><title>advanced_training</title>
<g id="a_node31"><a xlink:href="greece_advanced_training_full.html" xlink:title="Advanced\nTraining">
<polygon fill="none" stroke="green" points="1277.52,-165.74 1160.25,-165.74 1130.08,-89.7401 1247.35,-89.7401 1277.52,-165.74"/>
<text text-anchor="middle" x="1203.8" y="-131.54" font-family="Times,serif" font-size="14.00" fill="#ebc72d">Advanced</text>
<text text-anchor="middle" x="1203.8" y="-116.54" font-family="Times,serif" font-size="14.00" fill="#ebc72d">Training</text>
</a>
</g>
</g>
<!-- advanced_barracks&#45;&gt;advanced_training -->
<g id="edge1" class="edge"><title>advanced_barracks&#45;&gt;advanced_training</title>
<path fill="none" stroke="#ebc72d" d="M1184.72,-212.672C1187.23,-201.643 1190.23,-188.444 1193.1,-175.815"/>
<polygon fill="#ebc72d" stroke="#ebc72d" points="1196.56,-176.388 1195.36,-165.861 1189.73,-174.837 1196.56,-176.388"/>
</g>
<!-- barley_field -->
<g id="node12" class="node"><title>barley_field</title>
<g id="a_node12"><a xlink:href="greece_barley_field_full.html" xlink:title="Barley\nField">
<polygon fill="none" stroke="red" points="1393.95,-541.283 1347.8,-564.381 1301.65,-541.283 1301.69,-503.91 1393.9,-503.91 1393.95,-541.283"/>
<text text-anchor="middle" x="1347.8" y="-534.753" font-family="Times,serif" font-size="14.00" fill="#ebc72d">Barley</text>
<text text-anchor="middle" x="1347.8" y="-519.753" font-family="Times,serif" font-size="14.00" fill="#ebc72d">Field</text>
</a>
</g>
</g>
<!-- barley_bales -->
<g id="node32" class="node"><title>barley_bales</title>
<g id="a_node32"><a xlink:href="greece_barley_bales_full.html" xlink:title="Barley\nBales">
<polygon fill="none" stroke="green" points="1554.7,-277.74 1467.37,-277.74 1444.9,-201.74 1532.23,-201.74 1554.7,-277.74"/>
<text text-anchor="middle" x="1499.8" y="-243.54" font-family="Times,serif" font-size="14.00" fill="#ebc72d">Barley</text>
<text text-anchor="middle" x="1499.8" y="-228.54" font-family="Times,serif" font-size="14.00" fill="#ebc72d">Bales</text>
</a>
</g>
</g>
<!-- barley_field&#45;&gt;barley_bales -->
<g id="edge16" class="edge"><title>barley_field&#45;&gt;barley_bales</title>
<path fill="none" stroke="#ebc72d" d="M1361.56,-503.777C1387.35,-454.71 1443.26,-348.328 1475.52,-286.945"/>
<polygon fill="#ebc72d" stroke="#ebc72d" points="1478.74,-288.342 1480.29,-277.862 1472.54,-285.086 1478.74,-288.342"/>
</g>
<!-- trojan_horse -->
<g id="node15" class="node"><title>trojan_horse</title>
<g id="a_node15"><a xlink:href="greece_trojan_horse_full.html" xlink:title="Trojan\nHorse">
<polygon fill="none" stroke="red" points="1060.95,-250.07 1014.8,-273.168 968.652,-250.07 968.695,-212.696 1060.9,-212.696 1060.95,-250.07"/>
<text text-anchor="middle" x="1014.8" y="-243.54" font-family="Times,serif" font-size="14.00" fill="#ebc72d">Trojan</text>
<text text-anchor="middle" x="1014.8" y="-228.54" font-family="Times,serif" font-size="14.00" fill="#ebc72d">Horse</text>
</a>
</g>
</g>
<!-- trojan_horse&#45;&gt;psiloi -->
<g id="edge60" class="edge"><title>trojan_horse&#45;&gt;psiloi</title>
<path fill="none" stroke="#ebc72d" d="M1008.64,-212.672C1004.58,-195.52 999.29,-173.121 995.19,-155.776"/>
<polygon fill="#ebc72d" stroke="#ebc72d" points="998.52,-154.649 992.814,-145.722 991.708,-156.259 998.52,-154.649"/>
</g>
<!-- trojan_horse&#45;&gt;archer -->
<g id="edge58" class="edge"><title>trojan_horse&#45;&gt;archer</title>
<path fill="none" stroke="#ebc72d" d="M988.731,-212.672C970.053,-193.993 945.151,-169.091 927.332,-151.272"/>
<polygon fill="#ebc72d" stroke="#ebc72d" points="929.713,-148.704 920.167,-144.107 924.763,-153.653 929.713,-148.704"/>
</g>
<!-- trojan_horse&#45;&gt;hoplite -->
<g id="edge59" class="edge"><title>trojan_horse&#45;&gt;hoplite</title>
<path fill="none" stroke="#ebc72d" d="M1029.02,-212.672C1038.61,-195.089 1051.21,-171.992 1060.76,-154.479"/>
<polygon fill="#ebc72d" stroke="#ebc72d" points="1064,-155.849 1065.72,-145.394 1057.85,-152.497 1064,-155.849"/>
</g>
<!-- tower -->
<g id="node17" class="node"><title>tower</title>
<g id="a_node17"><a xlink:href="greece_tower_full.html" xlink:title="Tower">
<polygon fill="none" stroke="red" points="912.352,-245.302 870.8,-257.74 829.248,-245.302 829.287,-225.178 912.313,-225.178 912.352,-245.302"/>
<text text-anchor="middle" x="870.8" y="-236.04" font-family="Times,serif" font-size="14.00" fill="#ebc72d">Tower</text>
</a>
</g>
</g>
<!-- temple&#45;&gt;chariot -->
<g id="edge54" class="edge"><title>temple&#45;&gt;chariot</title>
<path fill="none" stroke="#ebc72d" stroke-dasharray="1,5" d="M438.177,-337.146C427.328,-329.339 412.848,-319.894 398.8,-313.74 339.557,-287.789 300.996,-325.877 257.8,-277.74 201.793,-215.328 184.231,-150.715 241.8,-89.7401 289.629,-39.0812 798.524,-61.1449 867.8,-53.7401 908.905,-49.3465 955.402,-41.8229 988.535,-36.0183"/>
<polygon fill="#ebc72d" stroke="#ebc72d" points="989.564,-39.3907 998.8,-34.2002 988.343,-32.498 989.564,-39.3907"/>
</g>
<!-- temple&#45;&gt;atlas -->
<g id="edge53" class="edge"><title>temple&#45;&gt;atlas</title>
<path fill="none" stroke="#ebc72d" d="M438.313,-336.824C427.511,-328.903 413.034,-319.45 398.8,-313.74 319.032,-281.74 286.232,-315.039 208.8,-277.74 201.064,-274.014 193.61,-268.534 187.143,-262.927"/>
<polygon fill="#ebc72d" stroke="#ebc72d" points="189.247,-260.106 179.532,-255.88 184.491,-265.242 189.247,-260.106"/>
</g>
<!-- temple&#45;&gt;dragon -->
<g id="edge55" class="edge"><title>temple&#45;&gt;dragon</title>
<path fill="none" stroke="#ebc72d" d="M451.421,-336.853C439.988,-300.595 409.091,-202.606 394.135,-155.174"/>
<polygon fill="#ebc72d" stroke="#ebc72d" points="397.459,-154.079 391.114,-145.594 390.783,-156.184 397.459,-154.079"/>
</g>
<!-- pandora -->
<g id="node30" class="node"><title>pandora</title>
<g id="a_node30"><a xlink:href="greece_pandora_full.html" xlink:title="Pandora">
<polygon fill="none" stroke="green" points="716.059,-257.74 623.382,-257.74 599.541,-221.74 692.218,-221.74 716.059,-257.74"/>
<text text-anchor="middle" x="657.8" y="-236.04" font-family="Times,serif" font-size="14.00" fill="#ebc72d">Pandora</text>
</a>
</g>
</g>
<!-- temple&#45;&gt;pandora -->
<g id="edge57" class="edge"><title>temple&#45;&gt;pandora</title>
<path fill="none" stroke="#ebc72d" d="M480.975,-337.031C515.192,-318.398 576.771,-284.865 617.469,-262.702"/>
<polygon fill="#ebc72d" stroke="#ebc72d" points="619.216,-265.737 626.324,-257.88 615.868,-259.589 619.216,-265.737"/>
</g>
<!-- golden_arrow -->
<g id="node34" class="node"><title>golden_arrow</title>
<g id="a_node34"><a xlink:href="greece_golden_arrow_full.html" xlink:title="Golden\nArrow">
<polygon fill="none" stroke="green" points="382.916,-277.74 290.466,-277.74 266.683,-201.74 359.134,-201.74 382.916,-277.74"/>
<text text-anchor="middle" x="324.8" y="-243.54" font-family="Times,serif" font-size="14.00" fill="#ebc72d">Golden</text>
<text text-anchor="middle" x="324.8" y="-228.54" font-family="Times,serif" font-size="14.00" fill="#ebc72d">Arrow</text>
</a>
</g>
</g>
<!-- temple&#45;&gt;golden_arrow -->
<g id="edge56" class="edge"><title>temple&#45;&gt;golden_arrow</title>
<path fill="none" stroke="#ebc72d" d="M439.473,-337.031C423.767,-323.842 399.17,-303.189 376.778,-284.386"/>
<polygon fill="#ebc72d" stroke="#ebc72d" points="378.877,-281.578 368.968,-277.828 374.375,-286.939 378.877,-281.578"/>
</g>
<!-- slave -->
<g id="node20" class="node"><title>slave</title>
<g id="a_node20"><a xlink:href="greece_slave_full.html" xlink:title="Slave">
<ellipse fill="none" stroke="magenta" cx="1050.8" cy="-618.167" rx="30.5947" ry="18"/>
<text text-anchor="middle" x="1050.8" y="-614.467" font-family="Times,serif" font-size="14.00" fill="#ebc72d">Slave</text>
</a>
</g>
</g>
<!-- slave&#45;&gt;blacksmith -->
<g id="edge50" class="edge"><title>slave&#45;&gt;blacksmith</title>
<path fill="none" stroke="#ebc72d" stroke-width="2" d="M1024.08,-609.423C930.696,-582.361 618.256,-491.819 500.879,-457.804"/>
<polygon fill="#ebc72d" stroke="#ebc72d" stroke-width="2" points="501.703,-454.398 491.124,-454.977 499.754,-461.122 501.703,-454.398"/>
</g>
<!-- slave&#45;&gt;barley_field -->
<g id="edge48" class="edge"><title>slave&#45;&gt;barley_field</title>
<path fill="none" stroke="#ebc72d" stroke-width="2" d="M1077.68,-609.454C1127.08,-595.279 1233.07,-564.871 1296.6,-546.642"/>
<polygon fill="#ebc72d" stroke="#ebc72d" stroke-width="2" points="1297.77,-549.948 1306.42,-543.825 1295.84,-543.219 1297.77,-549.948"/>
</g>
<!-- slave&#45;&gt;tower -->
<g id="edge52" class="edge"><title>slave&#45;&gt;tower</title>
<path fill="none" stroke="#ebc72d" stroke-width="2" d="M1064.93,-601.895C1090.54,-572.314 1140.41,-504.822 1122.8,-444.74"/>
<path fill="none" stroke="#ebc72d" stroke-width="2" d="M1122.8,-442.74C1115.47,-407.581 1088.07,-414.231 1061.8,-389.74 1026.86,-357.166 1023.76,-342.736 985.8,-313.74 960.171,-294.165 949.971,-295.11 922.8,-277.74 913.793,-271.982 904.188,-265.309 895.717,-259.228"/>
<polygon fill="#ebc72d" stroke="#ebc72d" stroke-width="2" points="897.519,-256.211 887.371,-253.168 893.407,-261.876 897.519,-256.211"/>
</g>
<!-- barracks -->
<g id="node22" class="node"><title>barracks</title>
<g id="a_node22"><a xlink:href="greece_barracks_full.html" xlink:title="Barracks">
<polygon fill="none" stroke="red" points="1175.24,-357.302 1122.8,-369.74 1070.36,-357.302 1070.41,-337.178 1175.19,-337.178 1175.24,-357.302"/>
<text text-anchor="middle" x="1122.8" y="-348.04" font-family="Times,serif" font-size="14.00" fill="#ebc72d">Barracks</text>
</a>
</g>
</g>
<!-- slave&#45;&gt;barracks -->
<g id="edge49" class="edge"><title>slave&#45;&gt;barracks</title>
<path fill="none" stroke="#ebc72d" stroke-width="2" d="M1122.8,-442.74C1116.77,-422.155 1117.2,-397.766 1118.91,-379.572"/>
<polygon fill="#ebc72d" stroke="#ebc72d" stroke-width="2" points="1122.41,-379.722 1120.05,-369.393 1115.46,-378.94 1122.41,-379.722"/>
</g>
<!-- castle -->
<g id="node23" class="node"><title>castle</title>
<g id="a_node23"><a xlink:href="greece_castle_full.html" xlink:title="Castle">
<polygon fill="none" stroke="red" points="1019.14,-536.516 978.8,-548.953 938.462,-536.516 938.5,-516.391 1019.1,-516.391 1019.14,-536.516"/>
<text text-anchor="middle" x="978.8" y="-527.253" font-family="Times,serif" font-size="14.00" fill="#ebc72d">Castle</text>
</a>
</g>
</g>
<!-- slave&#45;&gt;castle -->
<g id="edge51" class="edge"><title>slave&#45;&gt;castle</title>
<path fill="none" stroke="#ebc72d" stroke-width="2" d="M1031.12,-593.877C1020.47,-581.268 1007.4,-565.797 996.982,-553.473"/>
<polygon fill="#ebc72d" stroke="#ebc72d" stroke-width="2" points="1028.47,-596.158 1037.59,-601.537 1033.81,-591.64 1028.47,-596.158"/>
<polygon fill="#ebc72d" stroke="#ebc72d" stroke-width="2" points="999.388,-550.897 990.261,-545.517 994.041,-555.415 999.388,-550.897"/>
</g>
<!-- engineer -->
<g id="node21" class="node"><title>engineer</title>
<g id="a_node21"><a xlink:href="greece_engineer_full.html" xlink:title="Engineer">
<ellipse fill="none" stroke="magenta" cx="902.8" cy="-443.74" rx="42.4939" ry="18"/>
<text text-anchor="middle" x="902.8" y="-440.04" font-family="Times,serif" font-size="14.00" fill="#ebc72d">Engineer</text>
</a>
</g>
</g>
<!-- engineer&#45;&gt;air_box -->
<g id="edge33" class="edge"><title>engineer&#45;&gt;air_box</title>
<path fill="none" stroke="#ebc72d" stroke-width="2" d="M800.8,-350.74C769.797,-312.939 813.027,-288.075 800.8,-240.74"/>
<path fill="none" stroke="#ebc72d" stroke-width="2" d="M800.8,-238.74C787.482,-187.184 747.108,-199.341 705.8,-165.74 701.199,-161.998 696.383,-157.969 691.709,-153.995"/>
<polygon fill="#ebc72d" stroke="#ebc72d" stroke-width="2" points="693.908,-151.27 684.037,-147.42 689.352,-156.585 693.908,-151.27"/>
</g>
<!-- engineer&#45;&gt;palace -->
<g id="edge35" class="edge"><title>engineer&#45;&gt;palace</title>
<path fill="none" stroke="#ebc72d" stroke-width="2" d="M875.114,-429.851C857.569,-420.614 835.337,-406.809 819.8,-389.74 807.356,-376.07 812.523,-367.034 800.8,-352.74"/>
<path fill="none" stroke="#ebc72d" stroke-width="2" d="M800.8,-350.74C738.139,-274.338 680.049,-320.147 590.8,-277.74 579.173,-272.216 566.971,-264.984 556.629,-258.381"/>
<polygon fill="#ebc72d" stroke="#ebc72d" stroke-width="2" points="558.368,-255.337 548.082,-252.8 554.541,-261.198 558.368,-255.337"/>
</g>
<!-- engineer&#45;&gt;trojan_horse -->
<g id="edge38" class="edge"><title>engineer&#45;&gt;trojan_horse</title>
<path fill="none" stroke="#ebc72d" stroke-width="2" d="M933.012,-430.813C951.107,-422.112 973.01,-408.541 985.8,-389.74 1007.17,-358.32 1013.67,-315.021 1015.27,-283.195"/>
<polygon fill="#ebc72d" stroke="#ebc72d" stroke-width="2" points="1018.78,-282.994 1015.64,-272.875 1011.78,-282.744 1018.78,-282.994"/>
</g>
<!-- engineer&#45;&gt;tower -->
<g id="edge37" class="edge"><title>engineer&#45;&gt;tower</title>
<path fill="none" stroke="#ebc72d" stroke-width="2" d="M800.8,-350.74C776.107,-320.632 816.205,-281.319 845.171,-258.766"/>
<polygon fill="#ebc72d" stroke="#ebc72d" stroke-width="2" points="847.471,-261.416 853.35,-252.603 843.258,-255.826 847.471,-261.416"/>
</g>
<!-- engineer&#45;&gt;temple -->
<g id="edge36" class="edge"><title>engineer&#45;&gt;temple</title>
<path fill="none" stroke="#ebc72d" stroke-width="2" d="M865.458,-435.222C784.237,-418.868 591.679,-380.098 502.553,-362.153"/>
<polygon fill="#ebc72d" stroke="#ebc72d" stroke-width="2" points="503.215,-358.717 492.721,-360.174 501.834,-365.579 503.215,-358.717"/>
</g>
<!-- engineer&#45;&gt;oxybeles -->
<g id="edge34" class="edge"><title>engineer&#45;&gt;oxybeles</title>
<path fill="none" stroke="#ebc72d" stroke-dasharray="5,2" d="M800.8,-238.74C792.034,-204.806 804.149,-104.077 810.861,-55.1496"/>
<polygon fill="#ebc72d" stroke="#ebc72d" points="814.363,-55.3767 812.28,-44.9887 807.43,-54.4086 814.363,-55.3767"/>
</g>
<!-- engineer&#45;&gt;advanced_buildings -->
<g id="edge32" class="edge"><title>engineer&#45;&gt;advanced_buildings</title>
<path fill="none" stroke="#ebc72d" d="M902.8,-425.387C902.8,-418.039 902.8,-409.085 902.8,-400.007"/>
<polygon fill="#ebc72d" stroke="#ebc72d" points="906.3,-399.785 902.8,-389.785 899.3,-399.785 906.3,-399.785"/>
</g>
<!-- barracks&#45;&gt;psiloi -->
<g id="edge22" class="edge"><title>barracks&#45;&gt;psiloi</title>
<path fill="none" stroke="#ebc72d" d="M1119.33,-336.939C1113.84,-315.848 1102.39,-274.487 1088.8,-240.74"/>
<path fill="none" stroke="#ebc72d" d="M1088.8,-238.74C1081.9,-221.592 1081.17,-216.317 1069.8,-201.74 1054.89,-182.618 1046.81,-181.975 1028.8,-165.74 1023.42,-160.889 1017.68,-155.629 1012.27,-150.639"/>
<polygon fill="#ebc72d" stroke="#ebc72d" points="1014.39,-147.829 1004.67,-143.599 1009.63,-152.963 1014.39,-147.829"/>
</g>
<!-- barracks&#45;&gt;cavalry -->
<g id="edge19" class="edge"><title>barracks&#45;&gt;cavalry</title>
<path fill="none" stroke="#ebc72d" d="M1416.8,-238.74C1426.14,-224.726 1440.85,-183.185 1450.16,-155.355"/>
<polygon fill="#ebc72d" stroke="#ebc72d" points="1453.5,-156.393 1453.32,-145.799 1446.85,-154.193 1453.5,-156.393"/>
</g>
<!-- barracks&#45;&gt;advanced_barracks -->
<g id="edge17" class="edge"><title>barracks&#45;&gt;advanced_barracks</title>
<path fill="none" stroke="#ebc72d" stroke-dasharray="5,2" d="M1129.89,-336.809C1137.5,-321.869 1149.89,-297.536 1160.29,-277.099"/>
<polygon fill="#ebc72d" stroke="#ebc72d" points="1163.49,-278.53 1164.91,-268.03 1157.25,-275.354 1163.49,-278.53"/>
</g>
<!-- barracks&#45;&gt;archer -->
<g id="edge18" class="edge"><title>barracks&#45;&gt;archer</title>
<path fill="none" stroke="#ebc72d" d="M1083.42,-337.126C1041.08,-321.805 977.427,-296.598 959.8,-277.74 942.847,-259.603 922.531,-193.26 911.971,-155.501"/>
<polygon fill="#ebc72d" stroke="#ebc72d" points="915.293,-154.384 909.262,-145.673 908.545,-156.244 915.293,-154.384"/>
</g>
<!-- barracks&#45;&gt;peltast -->
<g id="edge21" class="edge"><title>barracks&#45;&gt;peltast</title>
<path fill="none" stroke="#ebc72d" d="M1175.03,-349.243C1234.93,-344.961 1333.16,-329.788 1397.8,-277.74 1412.2,-266.146 1406.55,-256.124 1416.8,-240.74"/>
<path fill="none" stroke="#ebc72d" d="M1416.8,-238.74C1435.47,-210.727 1411.27,-174.437 1390.74,-151.363"/>
<polygon fill="#ebc72d" stroke="#ebc72d" points="1393.08,-148.736 1383.71,-143.788 1387.95,-153.499 1393.08,-148.736"/>
</g>
<!-- barracks&#45;&gt;hoplite -->
<g id="edge20" class="edge"><title>barracks&#45;&gt;hoplite</title>
<path fill="none" stroke="#ebc72d" d="M1088.8,-238.74C1078,-211.915 1075.05,-178.698 1074.46,-155.826"/>
<polygon fill="#ebc72d" stroke="#ebc72d" points="1077.96,-155.759 1074.34,-145.804 1070.96,-155.847 1077.96,-155.759"/>
</g>
<!-- training_field -->
<g id="node29" class="node"><title>training_field</title>
<g id="a_node29"><a xlink:href="greece_training_field_full.html" xlink:title="Training\nField">
<polygon fill="none" stroke="green" points="1388.93,-277.74 1285.32,-277.74 1258.67,-201.74 1362.28,-201.74 1388.93,-277.74"/>
<text text-anchor="middle" x="1323.8" y="-243.54" font-family="Times,serif" font-size="14.00" fill="#ebc72d">Training</text>
<text text-anchor="middle" x="1323.8" y="-228.54" font-family="Times,serif" font-size="14.00" fill="#ebc72d">Field</text>
</a>
</g>
</g>
<!-- barracks&#45;&gt;training_field -->
<g id="edge23" class="edge"><title>barracks&#45;&gt;training_field</title>
<path fill="none" stroke="#ebc72d" d="M1147.85,-337.031C1178.67,-320.165 1231.8,-291.091 1271.63,-269.292"/>
<polygon fill="#ebc72d" stroke="#ebc72d" points="1273.33,-272.35 1280.42,-264.479 1269.97,-266.209 1273.33,-272.35"/>
</g>
<!-- castle&#45;&gt;engineer -->
<g id="edge30" class="edge"><title>castle&#45;&gt;engineer</title>
<path fill="none" stroke="#ebc72d" d="M966.589,-516.262C955.084,-503.362 937.606,-483.766 923.853,-468.345"/>
<polygon fill="#ebc72d" stroke="#ebc72d" points="926.32,-465.853 917.052,-460.72 921.096,-470.512 926.32,-465.853"/>
</g>
<!-- advanced_buildings&#45;&gt;advanced_barracks -->
<g id="edge9" class="edge"><title>advanced_buildings&#45;&gt;advanced_barracks</title>
<path fill="none" stroke="#ebc72d" stroke-dasharray="1,5" d="M954.331,-333.571C995.06,-319.609 1053.13,-298.831 1102.8,-277.74 1112.63,-273.568 1123.01,-268.779 1132.83,-264.06"/>
<polygon fill="#ebc72d" stroke="#ebc72d" points="1134.58,-267.101 1142.04,-259.581 1131.52,-260.806 1134.58,-267.101"/>
</g>
<!-- advanced_buildings&#45;&gt;tower -->
<g id="edge10" class="edge"><title>advanced_buildings&#45;&gt;tower</title>
<path fill="none" stroke="#ebc72d" stroke-dasharray="1,5" d="M891.966,-313.499C887.458,-298.003 882.337,-280.4 878.262,-266.39"/>
<polygon fill="#ebc72d" stroke="#ebc72d" points="881.53,-265.095 875.376,-256.471 874.809,-267.051 881.53,-265.095"/>
</g>
<!-- pandora&#45;&gt;air_box -->
<g id="edge47" class="edge"><title>pandora&#45;&gt;air_box</title>
<path fill="none" stroke="#ebc72d" stroke-dasharray="1,5" d="M658.581,-221.553C659.201,-207.915 660.094,-188.264 660.899,-170.553"/>
<polygon fill="#ebc72d" stroke="#ebc72d" points="664.403,-170.558 661.36,-160.409 657.41,-170.24 664.403,-170.558"/>
</g>
<!-- advanced_training&#45;&gt;chariot -->
<g id="edge12" class="edge"><title>advanced_training&#45;&gt;chariot</title>
<path fill="none" stroke="#ebc72d" stroke-dasharray="1,5" d="M1139.64,-89.6433C1114.05,-74.8466 1085.73,-58.4745 1064.68,-46.3048"/>
<polygon fill="#ebc72d" stroke="#ebc72d" points="1066.26,-43.1724 1055.85,-41.1969 1062.75,-49.2324 1066.26,-43.1724"/>
</g>
<!-- advanced_training&#45;&gt;battering_ram -->
<g id="edge11" class="edge"><title>advanced_training&#45;&gt;battering_ram</title>
<path fill="none" stroke="#ebc72d" stroke-dasharray="1,5" d="M1222.94,-89.6433C1227.63,-80.5337 1232.64,-70.8269 1237.26,-61.8713"/>
<polygon fill="#ebc72d" stroke="#ebc72d" points="1240.43,-63.3589 1241.91,-52.8671 1234.21,-60.1498 1240.43,-63.3589"/>
</g>
<!-- advanced_training&#45;&gt;oxybeles -->
<g id="edge13" class="edge"><title>advanced_training&#45;&gt;oxybeles</title>
<path fill="none" stroke="#ebc72d" stroke-dasharray="1,5" d="M1131.28,-93.3284C1127.76,-92.0501 1124.26,-90.8451 1120.8,-89.7401 1033.44,-61.8131 927.879,-43.7738 866.342,-34.7522"/>
<polygon fill="#ebc72d" stroke="#ebc72d" points="866.514,-31.2408 856.116,-33.2768 865.514,-38.169 866.514,-31.2408"/>
</g>
<!-- barley_bales&#45;&gt;cavalry -->
<g id="edge14" class="edge"><title>barley_bales&#45;&gt;cavalry</title>
<path fill="none" stroke="#ebc72d" stroke-dasharray="1,5" d="M1485.92,-201.499C1480.24,-186.252 1473.79,-168.966 1468.61,-155.069"/>
<polygon fill="#ebc72d" stroke="#ebc72d" points="1471.87,-153.774 1465.09,-145.626 1465.31,-156.219 1471.87,-153.774"/>
</g>
<!-- barley_bales&#45;&gt;chariot -->
<g id="edge15" class="edge"><title>barley_bales&#45;&gt;chariot</title>
<path fill="none" stroke="#ebc72d" stroke-dasharray="1,5" d="M1514.32,-201.463C1524.65,-168.02 1532.47,-119.722 1505.8,-89.7401 1460.14,-38.4186 1266.86,-63.0304 1198.8,-53.7401 1157.55,-48.1094 1110.69,-40.7154 1077.31,-35.2747"/>
<polygon fill="#ebc72d" stroke="#ebc72d" points="1077.83,-31.8143 1067.4,-33.6531 1076.7,-38.7224 1077.83,-31.8143"/>
</g>
<!-- golden_arrow&#45;&gt;artemis -->
<g id="edge39" class="edge"><title>golden_arrow&#45;&gt;artemis</title>
<path fill="none" stroke="#ebc72d" stroke-dasharray="1,5" d="M313.289,-201.499C308.622,-186.4 303.337,-169.301 299.063,-155.474"/>
<polygon fill="#ebc72d" stroke="#ebc72d" points="302.316,-154.147 296.019,-145.626 295.629,-156.214 302.316,-154.147"/>
</g>
</g>
</svg>
