<?xml version="1.0" encoding="UTF-8" standalone="no"?>
<!DOCTYPE svg PUBLIC "-//W3C//DTD SVG 1.1//EN"
 "http://www.w3.org/Graphics/SVG/1.1/DTD/svg11.dtd">
<!-- Generated by graphviz version 2.38.0 (20140413.2041)
 -->
<!-- Title: test Pages: 1 -->
<svg width="1479pt" height="423pt"
 viewBox="0.00 0.00 1478.54 423.28" xmlns="http://www.w3.org/2000/svg" xmlns:xlink="http://www.w3.org/1999/xlink">
<g id="graph0" class="graph" transform="scale(1 1) rotate(0) translate(4 419.279)">
<title>test</title>
<polygon fill="#151515" stroke="none" points="-4,4 -4,-419.279 1474.54,-419.279 1474.54,4 -4,4"/>
<!-- blacksmith -->
<g id="node1" class="node"><title>blacksmith</title>
<g id="a_node1"><a xlink:href="greece_blacksmith_full.html" xlink:title="Blacksmith">
<polygon fill="none" stroke="red" points="764.78,-141.202 701.347,-153.64 637.914,-141.202 637.973,-121.077 764.72,-121.077 764.78,-141.202"/>
<text text-anchor="middle" x="701.347" y="-131.94" font-family="Times,serif" font-size="14.00" fill="#ebc72d">Blacksmith</text>
</a>
</g>
</g>
<!-- cavalry -->
<g id="node4" class="node"><title>cavalry</title>
<g id="a_node4"><a xlink:href="greece_cavalry_full.html" xlink:title="Cavalry">
<ellipse fill="none" stroke="magenta" cx="38.3466" cy="-33.2132" rx="38.1938" ry="18"/>
<text text-anchor="middle" x="38.3466" y="-29.5132" font-family="Times,serif" font-size="14.00" fill="#ebc72d">Cavalry</text>
</a>
</g>
</g>
<!-- blacksmith&#45;&gt;cavalry -->
<g id="edge19" class="edge"><title>blacksmith&#45;&gt;cavalry</title>
<path fill="none" stroke="#ebc72d" stroke-dasharray="1,5" d="M676.441,-121.048C662.676,-114.211 645.028,-106.525 628.347,-102.426 393.901,-44.8177 314.842,-144.359 86.3466,-66.4264 78.902,-63.8873 71.5167,-59.8836 64.8523,-55.55"/>
<polygon fill="#ebc72d" stroke="#ebc72d" points="66.4723,-52.4117 56.2733,-49.5427 62.4572,-58.1457 66.4723,-52.4117"/>
</g>
<!-- chariot -->
<g id="node6" class="node"><title>chariot</title>
<g id="a_node6"><a xlink:href="greece_chariot_full.html" xlink:title="Chariot">
<ellipse fill="none" stroke="magenta" cx="938.347" cy="-33.2132" rx="37.0935" ry="18"/>
<text text-anchor="middle" x="938.347" y="-29.5132" font-family="Times,serif" font-size="14.00" fill="#ebc72d">Chariot</text>
</a>
</g>
</g>
<!-- blacksmith&#45;&gt;chariot -->
<g id="edge20" class="edge"><title>blacksmith&#45;&gt;chariot</title>
<path fill="none" stroke="#ebc72d" stroke-dasharray="1,5" d="M750.73,-120.995C790.211,-109.153 846.363,-90.1889 892.347,-66.4264 898.748,-63.1184 905.287,-59.0356 911.351,-54.9011"/>
<polygon fill="#ebc72d" stroke="#ebc72d" points="913.693,-57.5313 919.824,-48.8907 909.642,-51.8219 913.693,-57.5313"/>
</g>
<!-- atlas -->
<g id="node7" class="node"><title>atlas</title>
<g id="a_node7"><a xlink:href="greece_atlas_full.html" xlink:title="Atlas">
<ellipse fill="none" stroke="magenta" cx="583.347" cy="-33.2132" rx="29.4969" ry="18"/>
<text text-anchor="middle" x="583.347" y="-29.5132" font-family="Times,serif" font-size="14.00" fill="#ebc72d">Atlas</text>
</a>
</g>
</g>
<!-- blacksmith&#45;&gt;atlas -->
<g id="edge17" class="edge"><title>blacksmith&#45;&gt;atlas</title>
<path fill="none" stroke="#ebc72d" stroke-dasharray="1,5" d="M684.939,-120.676C664.886,-103.609 630.776,-74.5794 607.669,-54.913"/>
<polygon fill="#ebc72d" stroke="#ebc72d" points="609.879,-52.1981 599.995,-48.3822 605.342,-57.5289 609.879,-52.1981"/>
</g>
<!-- alexander -->
<g id="node13" class="node"><title>alexander</title>
<g id="a_node13"><a xlink:href="greece_alexander_full.html" xlink:title="Alexander">
<ellipse fill="none" stroke="magenta" cx="1316.35" cy="-33.2132" rx="47.3916" ry="18"/>
<text text-anchor="middle" x="1316.35" y="-29.5132" font-family="Times,serif" font-size="14.00" fill="#ebc72d">Alexander</text>
</a>
</g>
</g>
<!-- blacksmith&#45;&gt;alexander -->
<g id="edge16" class="edge"><title>blacksmith&#45;&gt;alexander</title>
<path fill="none" stroke="#ebc72d" stroke-dasharray="1,5" d="M765.155,-123.365C804.361,-116.686 855.662,-108.391 901.347,-102.426 1060.35,-81.6676 1107.68,-115.494 1260.35,-66.4264 1269.19,-63.5838 1278.17,-59.2084 1286.28,-54.5898"/>
<polygon fill="#ebc72d" stroke="#ebc72d" points="1288.24,-57.4945 1295.01,-49.3404 1284.63,-51.4962 1288.24,-57.4945"/>
</g>
<!-- battering_ram -->
<g id="node14" class="node"><title>battering_ram</title>
<g id="a_node14"><a xlink:href="greece_battering_ram_full.html" xlink:title="Battering\nRam">
<ellipse fill="none" stroke="magenta" cx="397.347" cy="-33.2132" rx="47.2526" ry="26.7407"/>
<text text-anchor="middle" x="397.347" y="-37.0132" font-family="Times,serif" font-size="14.00" fill="#ebc72d">Battering</text>
<text text-anchor="middle" x="397.347" y="-22.0132" font-family="Times,serif" font-size="14.00" fill="#ebc72d">Ram</text>
</a>
</g>
</g>
<!-- blacksmith&#45;&gt;battering_ram -->
<g id="edge18" class="edge"><title>blacksmith&#45;&gt;battering_ram</title>
<path fill="none" stroke="#ebc72d" stroke-dasharray="1,5" d="M674.152,-120.986C660.644,-114.634 643.917,-107.401 628.347,-102.426 552.707,-78.261 527.594,-94.5811 453.347,-66.4264 447.77,-64.3119 442.095,-61.6861 436.601,-58.8525"/>
<polygon fill="#ebc72d" stroke="#ebc72d" points="438.035,-55.6481 427.578,-53.9415 434.688,-61.7963 438.035,-55.6481"/>
</g>
<!-- hoplite -->
<g id="node19" class="node"><title>hoplite</title>
<g id="a_node19"><a xlink:href="greece_hoplite_full.html" xlink:title="Hoplite">
<ellipse fill="none" stroke="magenta" cx="499.347" cy="-33.2132" rx="37.0935" ry="18"/>
<text text-anchor="middle" x="499.347" y="-29.5132" font-family="Times,serif" font-size="14.00" fill="#ebc72d">Hoplite</text>
</a>
</g>
</g>
<!-- blacksmith&#45;&gt;hoplite -->
<g id="edge21" class="edge"><title>blacksmith&#45;&gt;hoplite</title>
<path fill="none" stroke="#ebc72d" stroke-dasharray="1,5" d="M670.463,-120.96C657.468,-115.217 642.18,-108.479 628.347,-102.426 591.509,-86.3098 580.437,-86.0586 545.347,-66.4264 539.173,-62.9723 532.803,-58.8882 526.844,-54.8088"/>
<polygon fill="#ebc72d" stroke="#ebc72d" points="528.669,-51.8126 518.479,-48.9092 524.634,-57.533 528.669,-51.8126"/>
</g>
<!-- onager -->
<g id="node25" class="node"><title>onager</title>
<g id="a_node25"><a xlink:href="greece_onager_full.html" xlink:title="Onager">
<ellipse fill="none" stroke="magenta" cx="847.347" cy="-33.2132" rx="36.2938" ry="18"/>
<text text-anchor="middle" x="847.347" y="-29.5132" font-family="Times,serif" font-size="14.00" fill="#ebc72d">Onager</text>
</a>
</g>
</g>
<!-- blacksmith&#45;&gt;onager -->
<g id="edge22" class="edge"><title>blacksmith&#45;&gt;onager</title>
<path fill="none" stroke="#ebc72d" stroke-dasharray="1,5" d="M721.698,-120.864C741.94,-107.138 773.859,-85.4253 801.347,-66.4264 807.059,-62.4785 813.153,-58.234 818.974,-54.1636"/>
<polygon fill="#ebc72d" stroke="#ebc72d" points="821.049,-56.9833 827.232,-48.3793 817.033,-51.2499 821.049,-56.9833"/>
</g>
<!-- advanced_buildings -->
<g id="node26" class="node"><title>advanced_buildings</title>
<ellipse fill="none" stroke="black" cx="711.347" cy="-33.2132" rx="81.4863" ry="18"/>
<text text-anchor="middle" x="711.347" y="-29.5132" font-family="Times,serif" font-size="14.00">advanced_buildings</text>
</g>
<!-- blacksmith&#45;&gt;advanced_buildings -->
<g id="edge15" class="edge"><title>blacksmith&#45;&gt;advanced_buildings</title>
<path fill="none" stroke="#ebc72d" stroke-dasharray="1,5" d="M702.737,-120.676C704.259,-105.396 706.735,-80.5287 708.642,-61.3756"/>
<polygon fill="#ebc72d" stroke="#ebc72d" points="712.125,-61.7177 709.633,-51.42 705.16,-61.024 712.125,-61.7177"/>
</g>
<!-- psiloi -->
<g id="node2" class="node"><title>psiloi</title>
<g id="a_node2"><a xlink:href="greece_psiloi_full.html" xlink:title="Psiloi">
<ellipse fill="none" stroke="magenta" cx="301.347" cy="-33.2132" rx="30.5947" ry="18"/>
<text text-anchor="middle" x="301.347" y="-29.5132" font-family="Times,serif" font-size="14.00" fill="#ebc72d">Psiloi</text>
</a>
</g>
</g>
<!-- air_box -->
<g id="node3" class="node"><title>air_box</title>
<g id="a_node3"><a xlink:href="greece_air_box_full.html" xlink:title="Air\nBox">
<polygon fill="none" stroke="red" points="1061.52,-43.543 1027.35,-66.641 993.172,-43.543 993.204,-6.16955 1061.49,-6.16955 1061.52,-43.543"/>
<text text-anchor="middle" x="1027.35" y="-37.0132" font-family="Times,serif" font-size="14.00" fill="#ebc72d">Air</text>
<text text-anchor="middle" x="1027.35" y="-22.0132" font-family="Times,serif" font-size="14.00" fill="#ebc72d">Box</text>
</a>
</g>
</g>
<!-- palace -->
<g id="node5" class="node"><title>palace</title>
<g id="a_node5"><a xlink:href="greece_palace_full.html" xlink:title="Palace">
<polygon fill="none" stroke="red" points="1152.9,-141.202 1111.35,-153.64 1069.79,-141.202 1069.83,-121.077 1152.86,-121.077 1152.9,-141.202"/>
<text text-anchor="middle" x="1111.35" y="-131.94" font-family="Times,serif" font-size="14.00" fill="#ebc72d">Palace</text>
</a>
</g>
</g>
<!-- palace&#45;&gt;chariot -->
<g id="edge34" class="edge"><title>palace&#45;&gt;chariot</title>
<path fill="none" stroke="#ebc72d" d="M1083.57,-120.917C1057.48,-107.749 1017.59,-86.8973 984.347,-66.4264 978.434,-62.7859 972.251,-58.6778 966.406,-54.644"/>
<polygon fill="#ebc72d" stroke="#ebc72d" points="968.349,-51.7322 958.154,-48.8505 964.327,-57.4612 968.349,-51.7322"/>
</g>
<!-- artemis -->
<g id="node8" class="node"><title>artemis</title>
<g id="a_node8"><a xlink:href="greece_artemis_full.html" xlink:title="Artemis">
<ellipse fill="none" stroke="magenta" cx="1211.35" cy="-33.2132" rx="39.7935" ry="18"/>
<text text-anchor="middle" x="1211.35" y="-29.5132" font-family="Times,serif" font-size="14.00" fill="#ebc72d">Artemis</text>
</a>
</g>
</g>
<!-- palace&#45;&gt;artemis -->
<g id="edge33" class="edge"><title>palace&#45;&gt;artemis</title>
<path fill="none" stroke="#ebc72d" d="M1125.25,-120.676C1141.55,-104.308 1168.8,-76.9385 1188.28,-57.3765"/>
<polygon fill="#ebc72d" stroke="#ebc72d" points="1191.01,-59.5987 1195.58,-50.043 1186.05,-54.6595 1191.01,-59.5987"/>
</g>
<!-- dragon -->
<g id="node11" class="node"><title>dragon</title>
<g id="a_node11"><a xlink:href="greece_dragon_full.html" xlink:title="Dragon">
<ellipse fill="none" stroke="magenta" cx="1116.35" cy="-33.2132" rx="37.0935" ry="18"/>
<text text-anchor="middle" x="1116.35" y="-29.5132" font-family="Times,serif" font-size="14.00" fill="#ebc72d">Dragon</text>
</a>
</g>
</g>
<!-- palace&#45;&gt;dragon -->
<g id="edge35" class="edge"><title>palace&#45;&gt;dragon</title>
<path fill="none" stroke="#ebc72d" stroke-dasharray="1,5" d="M1112.04,-120.676C1112.8,-105.467 1114.03,-80.7588 1114.98,-61.642"/>
<polygon fill="#ebc72d" stroke="#ebc72d" points="1118.49,-61.5818 1115.49,-51.42 1111.5,-61.2336 1118.49,-61.5818"/>
</g>
<!-- palace&#45;&gt;alexander -->
<g id="edge32" class="edge"><title>palace&#45;&gt;alexander</title>
<path fill="none" stroke="#ebc72d" d="M1133.27,-120.989C1143.44,-114.929 1155.81,-107.938 1167.35,-102.426 1207.34,-83.3208 1220.35,-85.5321 1260.35,-66.4264 1267.96,-62.789 1275.94,-58.5073 1283.4,-54.2743"/>
<polygon fill="#ebc72d" stroke="#ebc72d" points="1285.62,-57.032 1292.52,-48.9905 1282.12,-50.975 1285.62,-57.032"/>
</g>
<!-- oxybeles -->
<g id="node24" class="node"><title>oxybeles</title>
<g id="a_node24"><a xlink:href="greece_oxybeles_full.html" xlink:title="Oxybeles">
<ellipse fill="none" stroke="magenta" cx="1426.35" cy="-33.2132" rx="44.393" ry="18"/>
<text text-anchor="middle" x="1426.35" y="-29.5132" font-family="Times,serif" font-size="14.00" fill="#ebc72d">Oxybeles</text>
</a>
</g>
</g>
<!-- palace&#45;&gt;oxybeles -->
<g id="edge37" class="edge"><title>palace&#45;&gt;oxybeles</title>
<path fill="none" stroke="#ebc72d" stroke-dasharray="1,5" d="M1153.21,-127.481C1205.77,-117.647 1298.05,-97.5551 1372.35,-66.4264 1380.2,-63.1341 1388.29,-58.8552 1395.73,-54.4972"/>
<polygon fill="#ebc72d" stroke="#ebc72d" points="1398.04,-57.194 1404.76,-49.0031 1394.39,-51.2155 1398.04,-57.194"/>
</g>
<!-- palace&#45;&gt;onager -->
<g id="edge36" class="edge"><title>palace&#45;&gt;onager</title>
<path fill="none" stroke="#ebc72d" stroke-dasharray="1,5" d="M1070.9,-121.059C1053.26,-115.21 1032.32,-108.365 1013.35,-102.426 959.801,-85.6644 942.74,-91.0953 892.347,-66.4264 885.969,-63.3044 879.523,-59.3002 873.58,-55.1833"/>
<polygon fill="#ebc72d" stroke="#ebc72d" points="875.445,-52.212 865.299,-49.1608 871.328,-57.8731 875.445,-52.212"/>
</g>
<!-- advanced_barracks -->
<g id="node9" class="node"><title>advanced_barracks</title>
<g id="a_node9"><a xlink:href="greece_advanced_barracks_full.html" xlink:title="Advanced\nBarracks">
<polygon fill="none" stroke="red" points="369.459,-145.969 307.347,-169.067 245.234,-145.969 245.292,-108.596 369.401,-108.596 369.459,-145.969"/>
<text text-anchor="middle" x="307.347" y="-139.44" font-family="Times,serif" font-size="14.00" fill="#ebc72d">Advanced</text>
<text text-anchor="middle" x="307.347" y="-124.44" font-family="Times,serif" font-size="14.00" fill="#ebc72d">Barracks</text>
</a>
</g>
</g>
<!-- advanced_barracks&#45;&gt;psiloi -->
<g id="edge7" class="edge"><title>advanced_barracks&#45;&gt;psiloi</title>
<path fill="none" stroke="#ebc72d" d="M305.786,-108.516C304.928,-94.1592 303.865,-76.3593 302.994,-61.7809"/>
<polygon fill="#ebc72d" stroke="#ebc72d" points="306.462,-61.1445 302.372,-51.371 299.474,-61.562 306.462,-61.1445"/>
</g>
<!-- advanced_barracks&#45;&gt;cavalry -->
<g id="edge3" class="edge"><title>advanced_barracks&#45;&gt;cavalry</title>
<path fill="none" stroke="#ebc72d" d="M248.364,-108.577C242.658,-106.377 236.92,-104.287 231.347,-102.426 168.361,-81.4048 147.052,-93.3331 86.3466,-66.4264 79.2817,-63.2951 72.1243,-59.1331 65.5692,-54.8438"/>
<polygon fill="#ebc72d" stroke="#ebc72d" points="67.2923,-51.7812 57.0689,-49.0006 63.327,-57.5497 67.2923,-51.7812"/>
</g>
<!-- archer -->
<g id="node10" class="node"><title>archer</title>
<g id="a_node10"><a xlink:href="greece_archer_full.html" xlink:title="Archer">
<ellipse fill="none" stroke="magenta" cx="217.347" cy="-33.2132" rx="35.194" ry="18"/>
<text text-anchor="middle" x="217.347" y="-29.5132" font-family="Times,serif" font-size="14.00" fill="#ebc72d">Archer</text>
</a>
</g>
</g>
<!-- advanced_barracks&#45;&gt;archer -->
<g id="edge1" class="edge"><title>advanced_barracks&#45;&gt;archer</title>
<path fill="none" stroke="#ebc72d" d="M283.935,-108.516C269.742,-92.6791 251.795,-72.6524 238.11,-57.3819"/>
<polygon fill="#ebc72d" stroke="#ebc72d" points="240.665,-54.9885 231.384,-49.8773 235.452,-59.6603 240.665,-54.9885"/>
</g>
<!-- advanced_barracks&#45;&gt;battering_ram -->
<g id="edge2" class="edge"><title>advanced_barracks&#45;&gt;battering_ram</title>
<path fill="none" stroke="#ebc72d" d="M330.758,-108.516C342.711,-95.1781 357.328,-78.8684 369.818,-64.931"/>
<polygon fill="#ebc72d" stroke="#ebc72d" points="372.441,-67.249 376.508,-57.466 367.228,-62.5772 372.441,-67.249"/>
</g>
<!-- peltast -->
<g id="node16" class="node"><title>peltast</title>
<g id="a_node16"><a xlink:href="greece_peltast_full.html" xlink:title="Peltast">
<ellipse fill="none" stroke="magenta" cx="129.347" cy="-33.2132" rx="34.394" ry="18"/>
<text text-anchor="middle" x="129.347" y="-29.5132" font-family="Times,serif" font-size="14.00" fill="#ebc72d">Peltast</text>
</a>
</g>
</g>
<!-- advanced_barracks&#45;&gt;peltast -->
<g id="edge6" class="edge"><title>advanced_barracks&#45;&gt;peltast</title>
<path fill="none" stroke="#ebc72d" d="M251.161,-108.55C226.755,-96.5809 198.139,-81.6752 173.347,-66.4264 167.631,-62.9112 161.708,-58.8732 156.13,-54.8715"/>
<polygon fill="#ebc72d" stroke="#ebc72d" points="157.858,-51.7978 147.728,-48.6931 153.711,-57.4372 157.858,-51.7978"/>
</g>
<!-- advanced_barracks&#45;&gt;hoplite -->
<g id="edge4" class="edge"><title>advanced_barracks&#45;&gt;hoplite</title>
<path fill="none" stroke="#ebc72d" d="M369.284,-108.572C395.718,-96.7184 426.58,-81.8946 453.347,-66.4264 459.472,-62.8867 465.821,-58.7656 471.774,-54.677"/>
<polygon fill="#ebc72d" stroke="#ebc72d" points="473.982,-57.4025 480.141,-48.7815 469.95,-51.6802 473.982,-57.4025"/>
</g>
<!-- advanced_barracks&#45;&gt;onager -->
<g id="edge5" class="edge"><title>advanced_barracks&#45;&gt;onager</title>
<path fill="none" stroke="#ebc72d" d="M369.66,-113.965C384.799,-109.571 401.039,-105.375 416.347,-102.426 585.102,-69.9198 640.031,-125.691 801.347,-66.4264 808.519,-63.7914 815.611,-59.7504 822,-55.4115"/>
<polygon fill="#ebc72d" stroke="#ebc72d" points="824.204,-58.1363 830.218,-49.4139 820.077,-52.4821 824.204,-58.1363"/>
</g>
<!-- barley_field -->
<g id="node12" class="node"><title>barley_field</title>
<g id="a_node12"><a xlink:href="greece_barley_field_full.html" xlink:title="Barley\nField">
<polygon fill="none" stroke="red" points="198.495,-248.396 152.347,-271.494 106.199,-248.396 106.242,-211.022 198.452,-211.022 198.495,-248.396"/>
<text text-anchor="middle" x="152.347" y="-241.866" font-family="Times,serif" font-size="14.00" fill="#ebc72d">Barley</text>
<text text-anchor="middle" x="152.347" y="-226.866" font-family="Times,serif" font-size="14.00" fill="#ebc72d">Field</text>
</a>
</g>
</g>
<!-- barley_field&#45;&gt;cavalry -->
<g id="edge8" class="edge"><title>barley_field&#45;&gt;cavalry</title>
<path fill="none" stroke="#ebc72d" stroke-dasharray="1,5" d="M137.676,-210.962C115.723,-171.898 74.5778,-98.6834 52.7695,-59.8775"/>
<polygon fill="#ebc72d" stroke="#ebc72d" points="55.6155,-57.7976 47.6651,-50.7947 49.5132,-61.2271 55.6155,-57.7976"/>
</g>
<!-- trojan_horse -->
<g id="node15" class="node"><title>trojan_horse</title>
<g id="a_node15"><a xlink:href="greece_trojan_horse_full.html" xlink:title="Trojan\nHorse">
<polygon fill="none" stroke="red" points="619.495,-145.969 573.347,-169.067 527.199,-145.969 527.242,-108.596 619.452,-108.596 619.495,-145.969"/>
<text text-anchor="middle" x="573.347" y="-139.44" font-family="Times,serif" font-size="14.00" fill="#ebc72d">Trojan</text>
<text text-anchor="middle" x="573.347" y="-124.44" font-family="Times,serif" font-size="14.00" fill="#ebc72d">Horse</text>
</a>
</g>
</g>
<!-- trojan_horse&#45;&gt;psiloi -->
<g id="edge50" class="edge"><title>trojan_horse&#45;&gt;psiloi</title>
<path fill="none" stroke="#ebc72d" d="M532.019,-108.532C527.504,-106.258 522.894,-104.166 518.347,-102.426 443.365,-73.7532 414.001,-100.57 341.347,-66.4264 335.415,-63.6391 329.593,-59.7969 324.305,-55.7353"/>
<polygon fill="#ebc72d" stroke="#ebc72d" points="326.438,-52.9579 316.498,-49.2924 321.983,-58.3569 326.438,-52.9579"/>
</g>
<!-- trojan_horse&#45;&gt;atlas -->
<g id="edge48" class="edge"><title>trojan_horse&#45;&gt;atlas</title>
<path fill="none" stroke="#ebc72d" d="M575.948,-108.516C577.391,-94.0185 579.185,-76.01 580.644,-61.3531"/>
<polygon fill="#ebc72d" stroke="#ebc72d" points="584.13,-61.6687 581.638,-51.371 577.164,-60.975 584.13,-61.6687"/>
</g>
<!-- trojan_horse&#45;&gt;archer -->
<g id="edge47" class="edge"><title>trojan_horse&#45;&gt;archer</title>
<path fill="none" stroke="#ebc72d" d="M532.742,-108.547C528.011,-106.208 523.155,-104.098 518.347,-102.426 409.402,-64.5611 368.217,-109.803 261.347,-66.4264 254.628,-63.6993 247.99,-59.7204 241.988,-55.483"/>
<polygon fill="#ebc72d" stroke="#ebc72d" points="243.793,-52.4599 233.711,-49.2052 239.563,-58.0371 243.793,-52.4599"/>
</g>
<!-- trojan_horse&#45;&gt;hoplite -->
<g id="edge49" class="edge"><title>trojan_horse&#45;&gt;hoplite</title>
<path fill="none" stroke="#ebc72d" d="M554.097,-108.516C542.785,-93.164 528.572,-73.8749 517.462,-58.7977"/>
<polygon fill="#ebc72d" stroke="#ebc72d" points="520.074,-56.4431 511.325,-50.4688 514.439,-60.5956 520.074,-56.4431"/>
</g>
<!-- tower -->
<g id="node17" class="node"><title>tower</title>
<g id="a_node17"><a xlink:href="greece_tower_full.html" xlink:title="Tower">
<polygon fill="none" stroke="red" points="508.899,-141.202 467.347,-153.64 425.795,-141.202 425.833,-121.077 508.86,-121.077 508.899,-141.202"/>
<text text-anchor="middle" x="467.347" y="-131.94" font-family="Times,serif" font-size="14.00" fill="#ebc72d">Tower</text>
</a>
</g>
</g>
<!-- temple -->
<g id="node18" class="node"><title>temple</title>
<g id="a_node18"><a xlink:href="greece_temple_full.html" xlink:title="Temple">
<polygon fill="none" stroke="red" points="1004.64,-141.202 957.347,-153.64 910.048,-141.202 910.093,-121.077 1004.6,-121.077 1004.64,-141.202"/>
<text text-anchor="middle" x="957.347" y="-131.94" font-family="Times,serif" font-size="14.00" fill="#ebc72d">Temple</text>
</a>
</g>
</g>
<!-- temple&#45;&gt;air_box -->
<g id="edge43" class="edge"><title>temple&#45;&gt;air_box</title>
<path fill="none" stroke="#ebc72d" stroke-dasharray="1,5" d="M967.08,-120.676C977.114,-106.281 993.08,-83.3748 1006.06,-64.7552"/>
<polygon fill="#ebc72d" stroke="#ebc72d" points="1008.93,-66.753 1011.78,-56.5479 1003.19,-62.7502 1008.93,-66.753"/>
</g>
<!-- temple&#45;&gt;chariot -->
<g id="edge45" class="edge"><title>temple&#45;&gt;chariot</title>
<path fill="none" stroke="#ebc72d" stroke-dasharray="1,5" d="M954.705,-120.676C951.814,-105.396 947.109,-80.5287 943.486,-61.3756"/>
<polygon fill="#ebc72d" stroke="#ebc72d" points="946.9,-60.5951 941.602,-51.42 940.022,-61.8964 946.9,-60.5951"/>
</g>
<!-- temple&#45;&gt;atlas -->
<g id="edge44" class="edge"><title>temple&#45;&gt;atlas</title>
<path fill="none" stroke="#ebc72d" d="M910.004,-126.379C823.658,-111.116 647.085,-78.9146 621.347,-66.4264 615.764,-63.7176 610.325,-59.9968 605.389,-56.044"/>
<polygon fill="#ebc72d" stroke="#ebc72d" points="607.468,-53.2142 597.618,-49.3104 602.883,-58.5043 607.468,-53.2142"/>
</g>
<!-- temple&#45;&gt;dragon -->
<g id="edge46" class="edge"><title>temple&#45;&gt;dragon</title>
<path fill="none" stroke="#ebc72d" d="M981.007,-120.987C1004.07,-107.532 1040,-86.1778 1070.35,-66.4264 1076.17,-62.6386 1082.31,-58.4652 1088.14,-54.4138"/>
<polygon fill="#ebc72d" stroke="#ebc72d" points="1090.22,-57.2322 1096.4,-48.6247 1086.2,-51.5012 1090.22,-57.2322"/>
</g>
<!-- slave -->
<g id="node20" class="node"><title>slave</title>
<g id="a_node20"><a xlink:href="greece_slave_full.html" xlink:title="Slave">
<ellipse fill="none" stroke="magenta" cx="471.347" cy="-325.279" rx="30.5947" ry="18"/>
<text text-anchor="middle" x="471.347" y="-321.579" font-family="Times,serif" font-size="14.00" fill="#ebc72d">Slave</text>
</a>
</g>
</g>
<!-- slave&#45;&gt;blacksmith -->
<g id="edge40" class="edge"><title>slave&#45;&gt;blacksmith</title>
<path fill="none" stroke="#ebc72d" stroke-width="2" d="M589.347,-237.066C606.437,-201.024 643.001,-172.241 669.719,-154.885"/>
<polygon fill="#ebc72d" stroke="#ebc72d" stroke-width="2" points="671.763,-157.734 678.36,-149.444 668.033,-151.811 671.763,-157.734"/>
</g>
<!-- slave&#45;&gt;barley_field -->
<g id="edge38" class="edge"><title>slave&#45;&gt;barley_field</title>
<path fill="none" stroke="#ebc72d" stroke-width="2" d="M444.149,-317.014C391.086,-302.84 272.959,-271.285 204.382,-252.966"/>
<polygon fill="#ebc72d" stroke="#ebc72d" stroke-width="2" points="205.202,-249.563 194.638,-250.363 203.396,-256.325 205.202,-249.563"/>
</g>
<!-- slave&#45;&gt;tower -->
<g id="edge42" class="edge"><title>slave&#45;&gt;tower</title>
<path fill="none" stroke="#ebc72d" stroke-width="2" d="M496.373,-314.923C525.216,-302.576 570.996,-277.767 589.347,-239.066"/>
<path fill="none" stroke="#ebc72d" stroke-width="2" d="M589.347,-237.066C594.692,-225.793 530.835,-179.829 493.427,-154.171"/>
<polygon fill="#ebc72d" stroke="#ebc72d" stroke-width="2" points="495.224,-151.16 484.99,-148.42 491.282,-156.944 495.224,-151.16"/>
</g>
<!-- barracks -->
<g id="node22" class="node"><title>barracks</title>
<g id="a_node22"><a xlink:href="greece_barracks_full.html" xlink:title="Barracks">
<polygon fill="none" stroke="red" points="406.786,-243.628 354.347,-256.066 301.907,-243.628 301.956,-223.504 406.737,-223.504 406.786,-243.628"/>
<text text-anchor="middle" x="354.347" y="-234.366" font-family="Times,serif" font-size="14.00" fill="#ebc72d">Barracks</text>
</a>
</g>
</g>
<!-- slave&#45;&gt;barracks -->
<g id="edge39" class="edge"><title>slave&#45;&gt;barracks</title>
<path fill="none" stroke="#ebc72d" stroke-width="2" d="M452.808,-310.777C433.239,-296.525 402.245,-273.951 380.263,-257.941"/>
<polygon fill="#ebc72d" stroke="#ebc72d" stroke-width="2" points="382.177,-255.006 372.033,-251.947 378.056,-260.664 382.177,-255.006"/>
</g>
<!-- castle -->
<g id="node23" class="node"><title>castle</title>
<g id="a_node23"><a xlink:href="greece_castle_full.html" xlink:title="Castle">
<polygon fill="none" stroke="red" points="922.685,-402.842 882.347,-415.279 842.009,-402.842 842.046,-382.717 922.647,-382.717 922.685,-402.842"/>
<text text-anchor="middle" x="882.347" y="-393.579" font-family="Times,serif" font-size="14.00" fill="#ebc72d">Castle</text>
</a>
</g>
</g>
<!-- engineer -->
<g id="node21" class="node"><title>engineer</title>
<g id="a_node21"><a xlink:href="greece_engineer_full.html" xlink:title="Engineer">
<ellipse fill="none" stroke="magenta" cx="1032.35" cy="-238.066" rx="42.4939" ry="18"/>
<text text-anchor="middle" x="1032.35" y="-234.366" font-family="Times,serif" font-size="14.00" fill="#ebc72d">Engineer</text>
</a>
</g>
</g>
<!-- engineer&#45;&gt;air_box -->
<g id="edge26" class="edge"><title>engineer&#45;&gt;air_box</title>
<path fill="none" stroke="#ebc72d" stroke-width="2" d="M1031.92,-219.771C1031.14,-188.282 1029.48,-120.763 1028.39,-76.4428"/>
<polygon fill="#ebc72d" stroke="#ebc72d" stroke-width="2" points="1031.88,-76.1721 1028.14,-66.2614 1024.88,-76.3446 1031.88,-76.1721"/>
</g>
<!-- engineer&#45;&gt;palace -->
<g id="edge28" class="edge"><title>engineer&#45;&gt;palace</title>
<path fill="none" stroke="#ebc72d" stroke-width="2" d="M1045.39,-220.483C1058.69,-203.574 1079.4,-177.248 1094.06,-158.613"/>
<polygon fill="#ebc72d" stroke="#ebc72d" stroke-width="2" points="1096.89,-160.677 1100.32,-150.653 1091.39,-156.349 1096.89,-160.677"/>
</g>
<!-- engineer&#45;&gt;trojan_horse -->
<g id="edge31" class="edge"><title>engineer&#45;&gt;trojan_horse</title>
<path fill="none" stroke="#ebc72d" stroke-width="2" d="M990.512,-234.851C915.918,-229.847 755.9,-214.31 629.347,-168.853 622.893,-166.535 616.327,-163.486 610.072,-160.189"/>
<polygon fill="#ebc72d" stroke="#ebc72d" stroke-width="2" points="611.617,-157.043 601.178,-155.235 608.211,-163.159 611.617,-157.043"/>
</g>
<!-- engineer&#45;&gt;tower -->
<g id="edge30" class="edge"><title>engineer&#45;&gt;tower</title>
<path fill="none" stroke="#ebc72d" stroke-width="2" d="M989.936,-237.495C900.122,-237.115 685.286,-229.346 518.347,-168.853 508.947,-165.447 499.465,-160.101 491.27,-154.736"/>
<polygon fill="#ebc72d" stroke="#ebc72d" stroke-width="2" points="493.166,-151.793 482.947,-148.998 489.193,-157.556 493.166,-151.793"/>
</g>
<!-- engineer&#45;&gt;temple -->
<g id="edge29" class="edge"><title>engineer&#45;&gt;temple</title>
<path fill="none" stroke="#ebc72d" stroke-width="2" d="M1019.96,-220.483C1007.46,-203.746 988.074,-177.784 974.184,-159.185"/>
<polygon fill="#ebc72d" stroke="#ebc72d" stroke-width="2" points="976.835,-156.886 968.047,-150.968 971.227,-161.075 976.835,-156.886"/>
</g>
<!-- engineer&#45;&gt;oxybeles -->
<g id="edge27" class="edge"><title>engineer&#45;&gt;oxybeles</title>
<path fill="none" stroke="#ebc72d" stroke-dasharray="5,2" d="M1059.58,-224.23C1117.71,-196.649 1257.97,-129.135 1372.35,-66.4264 1379.55,-62.4781 1387.18,-58.0683 1394.37,-53.8092"/>
<polygon fill="#ebc72d" stroke="#ebc72d" points="1396.39,-56.6801 1403.17,-48.5411 1392.79,-50.6737 1396.39,-56.6801"/>
</g>
<!-- barracks&#45;&gt;psiloi -->
<g id="edge14" class="edge"><title>barracks&#45;&gt;psiloi</title>
<path fill="none" stroke="#ebc72d" d="M217.347,-134.64C205.151,-119.386 247.178,-79.3587 276.128,-54.6908"/>
<polygon fill="#ebc72d" stroke="#ebc72d" points="278.482,-57.2842 283.891,-48.1738 273.981,-51.9231 278.482,-57.2842"/>
</g>
<!-- barracks&#45;&gt;cavalry -->
<g id="edge11" class="edge"><title>barracks&#45;&gt;cavalry</title>
<path fill="none" stroke="#ebc72d" d="M321.038,-223.458C295.573,-211.813 260.798,-193.091 236.347,-168.853 224.542,-157.151 227.726,-149.622 217.347,-136.64"/>
<path fill="none" stroke="#ebc72d" d="M217.347,-134.64C176.355,-83.3691 142.798,-99.9262 86.3466,-66.4264 79.9383,-62.6235 73.2094,-58.3168 66.885,-54.1183"/>
<polygon fill="#ebc72d" stroke="#ebc72d" points="68.8275,-51.2068 58.5796,-48.5178 64.9139,-57.0106 68.8275,-51.2068"/>
</g>
<!-- barracks&#45;&gt;advanced_barracks -->
<g id="edge9" class="edge"><title>barracks&#45;&gt;advanced_barracks</title>
<path fill="none" stroke="#ebc72d" stroke-dasharray="5,2" d="M347.811,-223.102C341.852,-210.369 332.777,-190.978 324.73,-173.784"/>
<polygon fill="#ebc72d" stroke="#ebc72d" points="327.801,-172.088 320.392,-164.514 321.461,-175.055 327.801,-172.088"/>
</g>
<!-- barracks&#45;&gt;archer -->
<g id="edge10" class="edge"><title>barracks&#45;&gt;archer</title>
<path fill="none" stroke="#ebc72d" d="M217.347,-134.64C200.992,-114.184 203.83,-83.158 208.968,-61.0086"/>
<polygon fill="#ebc72d" stroke="#ebc72d" points="212.382,-61.7897 211.516,-51.2303 205.608,-60.0251 212.382,-61.7897"/>
</g>
<!-- barracks&#45;&gt;peltast -->
<g id="edge13" class="edge"><title>barracks&#45;&gt;peltast</title>
<path fill="none" stroke="#ebc72d" d="M217.347,-134.64C195.493,-107.306 168.813,-77.2875 150.597,-57.2553"/>
<polygon fill="#ebc72d" stroke="#ebc72d" points="153.149,-54.8599 143.822,-49.8354 147.98,-59.58 153.149,-54.8599"/>
</g>
<!-- barracks&#45;&gt;hoplite -->
<g id="edge12" class="edge"><title>barracks&#45;&gt;hoplite</title>
<path fill="none" stroke="#ebc72d" d="M358.374,-223.363C366.379,-197.72 386.162,-141.544 416.347,-102.426 424.709,-91.5894 450.767,-70.7555 471.48,-54.9506"/>
<polygon fill="#ebc72d" stroke="#ebc72d" points="473.817,-57.5708 479.676,-48.7436 469.591,-51.9903 473.817,-57.5708"/>
</g>
<!-- castle&#45;&gt;alexander -->
<g id="edge23" class="edge"><title>castle&#45;&gt;alexander</title>
<path fill="none" stroke="#ebc72d" stroke-dasharray="1,5" d="M1181.35,-324.279C1214.44,-222.28 1274.4,-109.158 1301.88,-59.6974"/>
<polygon fill="#ebc72d" stroke="#ebc72d" points="1304.95,-61.384 1306.77,-50.9476 1298.84,-57.9675 1304.95,-61.384"/>
</g>
<!-- castle&#45;&gt;slave -->
<g id="edge25" class="edge"><title>castle&#45;&gt;slave</title>
<path fill="none" stroke="#ebc72d" d="M831.909,-387.689C748.822,-373.538 584.941,-345.626 510.177,-332.893"/>
<polygon fill="#ebc72d" stroke="#ebc72d" points="831.368,-391.147 841.814,-389.376 832.543,-384.246 831.368,-391.147"/>
<polygon fill="#ebc72d" stroke="#ebc72d" points="510.682,-329.428 500.236,-331.2 509.507,-336.329 510.682,-329.428"/>
</g>
<!-- castle&#45;&gt;engineer -->
<g id="edge24" class="edge"><title>castle&#45;&gt;engineer</title>
<path fill="none" stroke="#ebc72d" d="M922.753,-394.655C1000.64,-390.419 1165.32,-375.658 1181.35,-326.279"/>
<path fill="none" stroke="#ebc72d" d="M1181.35,-324.279C1196.45,-277.741 1130.89,-255.846 1081.92,-246.128"/>
<polygon fill="#ebc72d" stroke="#ebc72d" points="1082.54,-242.683 1072.07,-244.288 1081.26,-249.564 1082.54,-242.683"/>
</g>
</g>
</svg>
