<?xml version="1.0" encoding="UTF-8" standalone="no"?>
<!DOCTYPE svg PUBLIC "-//W3C//DTD SVG 1.1//EN"
 "http://www.w3.org/Graphics/SVG/1.1/DTD/svg11.dtd">
<!-- Generated by graphviz version 2.38.0 (20140413.2041)
 -->
<!-- Title: test Pages: 1 -->
<svg width="523pt" height="382pt"
 viewBox="0.00 0.00 522.75 381.71" xmlns="http://www.w3.org/2000/svg" xmlns:xlink="http://www.w3.org/1999/xlink">
<g id="graph0" class="graph" transform="scale(1 1) rotate(0) translate(4 377.706)">
<title>test</title>
<polygon fill="#151515" stroke="none" points="-4,4 -4,-377.706 518.753,-377.706 518.753,4 -4,4"/>
<!-- farm -->
<g id="node1" class="node"><title>farm</title>
<g id="a_node1"><a xlink:href="natulka_farm_full.html" xlink:title="Farm">
<polygon fill="none" stroke="red" points="119.242,-141.202 82.3314,-153.64 45.4211,-141.202 45.4555,-121.077 119.207,-121.077 119.242,-141.202"/>
<text text-anchor="middle" x="82.3314" y="-131.94" font-family="Times,serif" font-size="14.00" fill="#ebc72d">Farm</text>
</a>
</g>
</g>
<!-- wolf_hut -->
<g id="node3" class="node"><title>wolf_hut</title>
<g id="a_node3"><a xlink:href="natulka_wolf_hut_full.html" xlink:title="Wolf\nHut">
<polygon fill="none" stroke="red" points="78.495,-43.543 39.3314,-66.641 0.167839,-43.543 0.204393,-6.16955 78.4585,-6.16955 78.495,-43.543"/>
<text text-anchor="middle" x="39.3314" y="-37.0132" font-family="Times,serif" font-size="14.00" fill="#ebc72d">Wolf</text>
<text text-anchor="middle" x="39.3314" y="-22.0132" font-family="Times,serif" font-size="14.00" fill="#ebc72d">Hut</text>
</a>
</g>
</g>
<!-- farm&#45;&gt;wolf_hut -->
<g id="edge5" class="edge"><title>farm&#45;&gt;wolf_hut</title>
<path fill="none" stroke="#ebc72d" stroke-dasharray="1,5" d="M76.3525,-120.676C70.7449,-107.579 62.121,-87.4381 54.607,-69.8893"/>
<polygon fill="#ebc72d" stroke="#ebc72d" points="57.7267,-68.283 50.573,-60.4679 51.2917,-71.0383 57.7267,-68.283"/>
</g>
<!-- golem_hole -->
<g id="node5" class="node"><title>golem_hole</title>
<g id="a_node5"><a xlink:href="natulka_golem_hole_full.html" xlink:title="Golem\nHole">
<polygon fill="none" stroke="red" points="219.728,-43.543 172.331,-66.641 124.935,-43.543 124.979,-6.16955 219.683,-6.16955 219.728,-43.543"/>
<text text-anchor="middle" x="172.331" y="-37.0132" font-family="Times,serif" font-size="14.00" fill="#ebc72d">Golem</text>
<text text-anchor="middle" x="172.331" y="-22.0132" font-family="Times,serif" font-size="14.00" fill="#ebc72d">Hole</text>
</a>
</g>
</g>
<!-- farm&#45;&gt;golem_hole -->
<g id="edge4" class="edge"><title>farm&#45;&gt;golem_hole</title>
<path fill="none" stroke="#ebc72d" stroke-dasharray="1,5" d="M94.8456,-120.676C107.778,-106.245 128.375,-83.2622 145.083,-64.6181"/>
<polygon fill="#ebc72d" stroke="#ebc72d" points="147.905,-66.7139 151.972,-56.9309 142.692,-62.0422 147.905,-66.7139"/>
</g>
<!-- dragon_tower -->
<g id="node9" class="node"><title>dragon_tower</title>
<g id="a_node9"><a xlink:href="natulka_dragon_tower_full.html" xlink:title="Dragon\nTower">
<polygon fill="none" stroke="red" points="336.972,-43.543 287.331,-66.641 237.691,-43.543 237.737,-6.16955 336.925,-6.16955 336.972,-43.543"/>
<text text-anchor="middle" x="287.331" y="-37.0132" font-family="Times,serif" font-size="14.00" fill="#ebc72d">Dragon</text>
<text text-anchor="middle" x="287.331" y="-22.0132" font-family="Times,serif" font-size="14.00" fill="#ebc72d">Tower</text>
</a>
</g>
</g>
<!-- farm&#45;&gt;dragon_tower -->
<g id="edge3" class="edge"><title>farm&#45;&gt;dragon_tower</title>
<path fill="none" stroke="#ebc72d" stroke-dasharray="1,5" d="M99.5477,-120.945C107.905,-114.733 118.291,-107.631 128.331,-102.426 170.269,-80.6874 185.251,-85.8022 228.331,-66.4264 234.553,-63.6283 241.009,-60.4285 247.269,-57.1564"/>
<polygon fill="#ebc72d" stroke="#ebc72d" points="249.085,-60.1543 256.249,-52.3489 245.781,-53.983 249.085,-60.1543"/>
</g>
<!-- town_center -->
<g id="node2" class="node"><title>town_center</title>
<g id="a_node2"><a xlink:href="natulka_town_center_full.html" xlink:title="Town\nCenter">
<polygon fill="none" stroke="red" points="243.48,-350.822 197.331,-373.92 151.183,-350.822 151.226,-313.449 243.436,-313.449 243.48,-350.822"/>
<text text-anchor="middle" x="197.331" y="-344.293" font-family="Times,serif" font-size="14.00" fill="#ebc72d">Town</text>
<text text-anchor="middle" x="197.331" y="-329.293" font-family="Times,serif" font-size="14.00" fill="#ebc72d">Center</text>
</a>
</g>
</g>
<!-- town_center&#45;&gt;wolf_hut -->
<g id="edge16" class="edge"><title>town_center&#45;&gt;wolf_hut</title>
<path fill="none" stroke="#ebc72d" stroke-dasharray="1,5" d="M151.08,-332.858C114.417,-324.938 65.3333,-307.826 40.3314,-271.279 -0.650032,-211.374 14.3557,-121.505 27.6603,-71.3819"/>
<polygon fill="#ebc72d" stroke="#ebc72d" points="31.0703,-72.1827 30.367,-61.6112 24.3243,-70.3138 31.0703,-72.1827"/>
</g>
<!-- tower_academy -->
<g id="node4" class="node"><title>tower_academy</title>
<g id="a_node4"><a xlink:href="natulka_tower_academy_full.html" xlink:title="Tower\nAcademy">
<polygon fill="none" stroke="red" points="169.448,-248.396 109.331,-271.494 49.2144,-248.396 49.2705,-211.022 169.392,-211.022 169.448,-248.396"/>
<text text-anchor="middle" x="109.331" y="-241.866" font-family="Times,serif" font-size="14.00" fill="#ebc72d">Tower</text>
<text text-anchor="middle" x="109.331" y="-226.866" font-family="Times,serif" font-size="14.00" fill="#ebc72d">Academy</text>
</a>
</g>
</g>
<!-- town_center&#45;&gt;tower_academy -->
<g id="edge15" class="edge"><title>town_center&#45;&gt;tower_academy</title>
<path fill="none" stroke="#ebc72d" stroke-dasharray="1,5" d="M174.44,-313.369C163.116,-300.446 149.348,-284.733 137.394,-271.092"/>
<polygon fill="#ebc72d" stroke="#ebc72d" points="139.821,-268.55 130.598,-263.336 134.556,-273.163 139.821,-268.55"/>
</g>
<!-- stone_sanctuary -->
<g id="node6" class="node"><title>stone_sanctuary</title>
<g id="a_node6"><a xlink:href="natulka_stone_sanctuary_full.html" xlink:title="Stone\nSanctuary">
<polygon fill="none" stroke="red" points="474.444,-145.969 412.331,-169.067 350.219,-145.969 350.277,-108.596 474.386,-108.596 474.444,-145.969"/>
<text text-anchor="middle" x="412.331" y="-139.44" font-family="Times,serif" font-size="14.00" fill="#ebc72d">Stone</text>
<text text-anchor="middle" x="412.331" y="-124.44" font-family="Times,serif" font-size="14.00" fill="#ebc72d">Sanctuary</text>
</a>
</g>
</g>
<!-- town_center&#45;&gt;stone_sanctuary -->
<g id="edge14" class="edge"><title>town_center&#45;&gt;stone_sanctuary</title>
<path fill="none" stroke="#ebc72d" stroke-dasharray="1,5" d="M243.74,-332.515C323.693,-319.275 480.937,-287.437 502.331,-239.066"/>
<path fill="none" stroke="#ebc72d" stroke-dasharray="1,5" d="M502.331,-237.066C515.72,-206.796 486.873,-179.331 458.356,-160.805"/>
<polygon fill="#ebc72d" stroke="#ebc72d" points="459.907,-157.648 449.564,-155.349 456.216,-163.596 459.907,-157.648"/>
</g>
<!-- metal_wreaker -->
<g id="node8" class="node"><title>metal_wreaker</title>
<g id="a_node8"><a xlink:href="natulka_metal_wreaker_full.html" xlink:title="Metal\nWreaker">
<polygon fill="none" stroke="red" points="342.208,-248.396 286.331,-271.494 230.455,-248.396 230.507,-211.022 342.155,-211.022 342.208,-248.396"/>
<text text-anchor="middle" x="286.331" y="-241.866" font-family="Times,serif" font-size="14.00" fill="#ebc72d">Metal</text>
<text text-anchor="middle" x="286.331" y="-226.866" font-family="Times,serif" font-size="14.00" fill="#ebc72d">Wreaker</text>
</a>
</g>
</g>
<!-- town_center&#45;&gt;metal_wreaker -->
<g id="edge13" class="edge"><title>town_center&#45;&gt;metal_wreaker</title>
<path fill="none" stroke="#ebc72d" stroke-dasharray="1,5" d="M220.483,-313.369C232.021,-300.349 246.07,-284.497 258.222,-270.784"/>
<polygon fill="#ebc72d" stroke="#ebc72d" points="261.112,-272.801 265.125,-262.995 255.873,-268.158 261.112,-272.801"/>
</g>
<!-- army_tent -->
<g id="node10" class="node"><title>army_tent</title>
<g id="a_node10"><a xlink:href="natulka_army_tent_full.html" xlink:title="Army\nTent">
<polygon fill="none" stroke="red" points="222.987,-145.969 180.331,-169.067 137.676,-145.969 137.715,-108.596 222.947,-108.596 222.987,-145.969"/>
<text text-anchor="middle" x="180.331" y="-139.44" font-family="Times,serif" font-size="14.00" fill="#ebc72d">Army</text>
<text text-anchor="middle" x="180.331" y="-124.44" font-family="Times,serif" font-size="14.00" fill="#ebc72d">Tent</text>
</a>
</g>
</g>
<!-- town_center&#45;&gt;army_tent -->
<g id="edge11" class="edge"><title>town_center&#45;&gt;army_tent</title>
<path fill="none" stroke="#ebc72d" stroke-dasharray="1,5" d="M195.144,-313.388C192.273,-279.132 187.201,-218.614 183.803,-178.068"/>
<polygon fill="#ebc72d" stroke="#ebc72d" points="187.28,-177.636 182.957,-167.964 180.304,-178.221 187.28,-177.636"/>
</g>
<!-- fire_menhir -->
<g id="node11" class="node"><title>fire_menhir</title>
<g id="a_node11"><a xlink:href="natulka_fire_menhir_full.html" xlink:title="Fire\nMenhir">
<polygon fill="none" stroke="red" points="468.972,-43.543 419.331,-66.641 369.691,-43.543 369.737,-6.16955 468.925,-6.16955 468.972,-43.543"/>
<text text-anchor="middle" x="419.331" y="-37.0132" font-family="Times,serif" font-size="14.00" fill="#ebc72d">Fire</text>
<text text-anchor="middle" x="419.331" y="-22.0132" font-family="Times,serif" font-size="14.00" fill="#ebc72d">Menhir</text>
</a>
</g>
</g>
<!-- town_center&#45;&gt;fire_menhir -->
<g id="edge12" class="edge"><title>town_center&#45;&gt;fire_menhir</title>
<path fill="none" stroke="#ebc72d" stroke-dasharray="1,5" d="M502.331,-237.066C526.776,-181.798 509.447,-156.925 483.331,-102.426 476.078,-87.2901 464.249,-73.2567 452.722,-61.903"/>
<polygon fill="#ebc72d" stroke="#ebc72d" points="454.916,-59.1617 445.241,-54.8444 450.112,-64.253 454.916,-59.1617"/>
</g>
<!-- stone_sanctuary&#45;&gt;golem_hole -->
<g id="edge10" class="edge"><title>stone_sanctuary&#45;&gt;golem_hole</title>
<path fill="none" stroke="#ebc72d" stroke-dasharray="1,5" d="M355.586,-108.56C350.457,-106.413 345.319,-104.337 340.331,-102.426 291.506,-83.7216 276.147,-87.5796 228.331,-66.4264 222.475,-63.8357 216.446,-60.7984 210.612,-57.6424"/>
<polygon fill="#ebc72d" stroke="#ebc72d" points="212.093,-54.4608 201.657,-52.6326 208.675,-60.5697 212.093,-54.4608"/>
</g>
<!-- stone_sanctuary&#45;&gt;dragon_tower -->
<g id="edge8" class="edge"><title>stone_sanctuary&#45;&gt;dragon_tower</title>
<path fill="none" stroke="#ebc72d" stroke-dasharray="1,5" d="M379.815,-108.516C361.749,-94.0012 339.302,-75.9671 321.047,-61.3008"/>
<polygon fill="#ebc72d" stroke="#ebc72d" points="322.973,-58.3586 312.985,-54.8239 318.589,-63.8156 322.973,-58.3586"/>
</g>
<!-- stone_sanctuary&#45;&gt;fire_menhir -->
<g id="edge9" class="edge"><title>stone_sanctuary&#45;&gt;fire_menhir</title>
<path fill="none" stroke="#ebc72d" stroke-dasharray="1,5" d="M414.152,-108.516C414.84,-98.6506 415.641,-87.1594 416.405,-76.2049"/>
<polygon fill="#ebc72d" stroke="#ebc72d" points="419.916,-76.1563 417.12,-65.9371 412.933,-75.6695 419.916,-76.1563"/>
</g>
<!-- sentry_tower -->
<g id="node7" class="node"><title>sentry_tower</title>
<g id="a_node7"><a xlink:href="natulka_sentry_tower_full.html" xlink:title="Sentry\nTower">
<polygon fill="none" stroke="red" points="331.731,-145.969 286.331,-169.067 240.932,-145.969 240.974,-108.596 331.688,-108.596 331.731,-145.969"/>
<text text-anchor="middle" x="286.331" y="-139.44" font-family="Times,serif" font-size="14.00" fill="#ebc72d">Sentry</text>
<text text-anchor="middle" x="286.331" y="-124.44" font-family="Times,serif" font-size="14.00" fill="#ebc72d">Tower</text>
</a>
</g>
</g>
<!-- metal_wreaker&#45;&gt;stone_sanctuary -->
<g id="edge7" class="edge"><title>metal_wreaker&#45;&gt;stone_sanctuary</title>
<path fill="none" stroke="#ebc72d" stroke-dasharray="1,5" d="M319.108,-210.942C336.686,-196.932 358.379,-179.642 376.414,-165.267"/>
<polygon fill="#ebc72d" stroke="#ebc72d" points="378.777,-167.859 384.416,-158.89 374.414,-162.385 378.777,-167.859"/>
</g>
<!-- metal_wreaker&#45;&gt;sentry_tower -->
<g id="edge6" class="edge"><title>metal_wreaker&#45;&gt;sentry_tower</title>
<path fill="none" stroke="#ebc72d" stroke-dasharray="1,5" d="M286.331,-210.942C286.331,-201.253 286.331,-189.996 286.331,-179.219"/>
<polygon fill="#ebc72d" stroke="#ebc72d" points="289.832,-179.1 286.331,-169.1 282.832,-179.1 289.832,-179.1"/>
</g>
<!-- army_tent&#45;&gt;golem_hole -->
<g id="edge2" class="edge"><title>army_tent&#45;&gt;golem_hole</title>
<path fill="none" stroke="#ebc72d" stroke-dasharray="1,5" d="M178.25,-108.516C177.449,-98.4599 176.514,-86.7146 175.626,-75.5702"/>
<polygon fill="#ebc72d" stroke="#ebc72d" points="179.112,-75.2608 174.829,-65.5703 172.135,-75.8167 179.112,-75.2608"/>
</g>
<!-- army_tent&#45;&gt;dragon_tower -->
<g id="edge1" class="edge"><title>army_tent&#45;&gt;dragon_tower</title>
<path fill="none" stroke="#ebc72d" stroke-dasharray="1,5" d="M208.165,-108.516C222.929,-94.6587 241.111,-77.5936 256.326,-63.3138"/>
<polygon fill="#ebc72d" stroke="#ebc72d" points="259.082,-65.5276 263.978,-56.132 254.291,-60.4235 259.082,-65.5276"/>
</g>
</g>
</svg>
