<?xml version="1.0" encoding="UTF-8" standalone="no"?>
<!DOCTYPE svg PUBLIC "-//W3C//DTD SVG 1.1//EN"
 "http://www.w3.org/Graphics/SVG/1.1/DTD/svg11.dtd">
<!-- Generated by graphviz version 2.38.0 (20140413.2041)
 -->
<!-- Title: test Pages: 1 -->
<svg width="2782pt" height="428pt"
 viewBox="0.00 0.00 2782.04 428.33" xmlns="http://www.w3.org/2000/svg" xmlns:xlink="http://www.w3.org/1999/xlink">
<g id="graph0" class="graph" transform="scale(1 1) rotate(0) translate(4 424.333)">
<title>test</title>
<polygon fill="#151515" stroke="none" points="-4,4 -4,-424.333 2778.04,-424.333 2778.04,4 -4,4"/>
<!-- farm -->
<g id="node1" class="node"><title>farm</title>
<g id="a_node1"><a xlink:href="natulka_farm_full.html" xlink:title="Farm">
<polygon fill="none" stroke="red" points="1607.01,-218.256 1570.1,-230.693 1533.19,-218.256 1533.22,-198.131 1606.97,-198.131 1607.01,-218.256"/>
<text text-anchor="middle" x="1570.1" y="-208.993" font-family="Times,serif" font-size="14.00" fill="#ebc72d">Farm</text>
</a>
</g>
</g>
<!-- hunter -->
<g id="node8" class="node"><title>hunter</title>
<g id="a_node8"><a xlink:href="natulka_hunter_full.html" xlink:title="Hunter">
<ellipse fill="none" stroke="magenta" cx="656.097" cy="-116.61" rx="35.194" ry="18"/>
<text text-anchor="middle" x="656.097" y="-112.91" font-family="Times,serif" font-size="14.00" fill="#ebc72d">Hunter</text>
</a>
</g>
</g>
<!-- farm&#45;&gt;hunter -->
<g id="edge15" class="edge"><title>farm&#45;&gt;hunter</title>
<path fill="none" stroke="#ebc72d" stroke-dasharray="1,5" d="M1555.15,-197.942C1546.69,-191.058 1535.54,-183.379 1524.1,-179.48 1358.59,-123.095 910.255,-174.041 738.097,-143.48 723.076,-140.814 706.98,-136.154 693.062,-131.516"/>
<polygon fill="#ebc72d" stroke="#ebc72d" points="693.953,-128.121 683.358,-128.173 691.672,-134.74 693.953,-128.121"/>
</g>
<!-- banner_bearer -->
<g id="node10" class="node"><title>banner_bearer</title>
<g id="a_node10"><a xlink:href="natulka_banner_bearer_full.html" xlink:title="Banner\nBearer">
<ellipse fill="none" stroke="magenta" cx="563.097" cy="-116.61" rx="39.6962" ry="26.7407"/>
<text text-anchor="middle" x="563.097" y="-120.41" font-family="Times,serif" font-size="14.00" fill="#ebc72d">Banner</text>
<text text-anchor="middle" x="563.097" y="-105.41" font-family="Times,serif" font-size="14.00" fill="#ebc72d">Bearer</text>
</a>
</g>
</g>
<!-- farm&#45;&gt;banner_bearer -->
<g id="edge13" class="edge"><title>farm&#45;&gt;banner_bearer</title>
<path fill="none" stroke="#ebc72d" stroke-dasharray="1,5" d="M1555.16,-197.913C1546.7,-191.021 1535.55,-183.343 1524.1,-179.48 1331.9,-114.681 807.968,-196.134 612.097,-143.48 608.445,-142.498 604.759,-141.208 601.135,-139.727"/>
<polygon fill="#ebc72d" stroke="#ebc72d" points="602.307,-136.415 591.757,-135.443 599.399,-142.782 602.307,-136.415"/>
</g>
<!-- hunting_wolf -->
<g id="node19" class="node"><title>hunting_wolf</title>
<g id="a_node19"><a xlink:href="natulka_hunting_wolf_full.html" xlink:title="Hunting\nWolf">
<ellipse fill="none" stroke="magenta" cx="1659.1" cy="-116.61" rx="43.2674" ry="26.7407"/>
<text text-anchor="middle" x="1659.1" y="-120.41" font-family="Times,serif" font-size="14.00" fill="#ebc72d">Hunting</text>
<text text-anchor="middle" x="1659.1" y="-105.41" font-family="Times,serif" font-size="14.00" fill="#ebc72d">Wolf</text>
</a>
</g>
</g>
<!-- farm&#45;&gt;hunting_wolf -->
<g id="edge16" class="edge"><title>farm&#45;&gt;hunting_wolf</title>
<path fill="none" stroke="#ebc72d" stroke-dasharray="1,5" d="M1583.23,-197.811C1595.64,-184.691 1614.68,-164.568 1630.57,-147.761"/>
<polygon fill="#ebc72d" stroke="#ebc72d" points="1633.29,-149.98 1637.62,-140.31 1628.21,-145.17 1633.29,-149.98"/>
</g>
<!-- cow -->
<g id="node24" class="node"><title>cow</title>
<g id="a_node24"><a xlink:href="natulka_cow_full.html" xlink:title="Cow">
<ellipse fill="none" stroke="magenta" cx="1571.1" cy="-116.61" rx="27.0966" ry="18"/>
<text text-anchor="middle" x="1571.1" y="-112.91" font-family="Times,serif" font-size="14.00" fill="#ebc72d">Cow</text>
</a>
</g>
</g>
<!-- farm&#45;&gt;cow -->
<g id="edge14" class="edge"><title>farm&#45;&gt;cow</title>
<path fill="none" stroke="#ebc72d" d="M1570.24,-197.811C1570.39,-183.927 1570.62,-162.202 1570.81,-144.863"/>
<polygon fill="#ebc72d" stroke="#ebc72d" points="1574.31,-144.78 1570.91,-134.743 1567.31,-144.706 1574.31,-144.78"/>
</g>
<!-- town_center -->
<g id="node2" class="node"><title>town_center</title>
<g id="a_node2"><a xlink:href="natulka_town_center_full.html" xlink:title="Town\nCenter">
<polygon fill="none" stroke="red" points="1225.24,-397.45 1179.1,-420.548 1132.95,-397.45 1132.99,-360.076 1225.2,-360.076 1225.24,-397.45"/>
<text text-anchor="middle" x="1179.1" y="-390.92" font-family="Times,serif" font-size="14.00" fill="#ebc72d">Town</text>
<text text-anchor="middle" x="1179.1" y="-375.92" font-family="Times,serif" font-size="14.00" fill="#ebc72d">Center</text>
</a>
</g>
</g>
<!-- worker -->
<g id="node4" class="node"><title>worker</title>
<g id="a_node4"><a xlink:href="natulka_worker_full.html" xlink:title="Worker">
<ellipse fill="none" stroke="magenta" cx="1664.1" cy="-299.907" rx="38.1938" ry="18"/>
<text text-anchor="middle" x="1664.1" y="-296.207" font-family="Times,serif" font-size="14.00" fill="#ebc72d">Worker</text>
</a>
</g>
</g>
<!-- town_center&#45;&gt;worker -->
<g id="edge40" class="edge"><title>town_center&#45;&gt;worker</title>
<path fill="none" stroke="#ebc72d" d="M1235.63,-376.188C1332.87,-359.103 1529.9,-324.484 1618.79,-308.867"/>
<polygon fill="#ebc72d" stroke="#ebc72d" points="1234.84,-372.772 1225.6,-377.949 1236.06,-379.666 1234.84,-372.772"/>
<polygon fill="#ebc72d" stroke="#ebc72d" points="1619.58,-312.281 1628.83,-307.103 1618.37,-305.387 1619.58,-312.281"/>
</g>
<!-- town_center&#45;&gt;banner_bearer -->
<g id="edge39" class="edge"><title>town_center&#45;&gt;banner_bearer</title>
<path fill="none" stroke="#ebc72d" stroke-dasharray="1,5" d="M1132.91,-367.991C1035.44,-329.385 802.105,-235.073 612.097,-143.48 608.969,-141.973 605.749,-140.376 602.526,-138.745"/>
<polygon fill="#ebc72d" stroke="#ebc72d" points="603.997,-135.566 593.503,-134.105 600.795,-141.791 603.997,-135.566"/>
</g>
<!-- sorcerer -->
<g id="node3" class="node"><title>sorcerer</title>
<g id="a_node3"><a xlink:href="natulka_sorcerer_full.html" xlink:title="Sorcerer">
<ellipse fill="none" stroke="magenta" cx="2584.1" cy="-116.61" rx="40.0939" ry="18"/>
<text text-anchor="middle" x="2584.1" y="-112.91" font-family="Times,serif" font-size="14.00" fill="#ebc72d">Sorcerer</text>
</a>
</g>
</g>
<!-- zombie -->
<g id="node11" class="node"><title>zombie</title>
<g id="a_node11"><a xlink:href="natulka_zombie_full.html" xlink:title="Zombie">
<ellipse fill="none" stroke="magenta" cx="2584.1" cy="-26.8701" rx="38.1938" ry="18"/>
<text text-anchor="middle" x="2584.1" y="-23.1701" font-family="Times,serif" font-size="14.00" fill="#ebc72d">Zombie</text>
</a>
</g>
</g>
<!-- sorcerer&#45;&gt;zombie -->
<g id="edge32" class="edge"><title>sorcerer&#45;&gt;zombie</title>
<path fill="none" stroke="#ebc72d" d="M2584.1,-98.2755C2584.1,-85.9384 2584.1,-69.1165 2584.1,-55.0094"/>
<polygon fill="#ebc72d" stroke="#ebc72d" points="2587.6,-54.8701 2584.1,-44.8701 2580.6,-54.8702 2587.6,-54.8701"/>
</g>
<!-- dragon -->
<g id="node13" class="node"><title>dragon</title>
<g id="a_node13"><a xlink:href="natulka_dragon_full.html" xlink:title="Dragon">
<ellipse fill="none" stroke="magenta" cx="2199.1" cy="-26.8701" rx="37.0935" ry="18"/>
<text text-anchor="middle" x="2199.1" y="-23.1701" font-family="Times,serif" font-size="14.00" fill="#ebc72d">Dragon</text>
</a>
</g>
</g>
<!-- sorcerer&#45;&gt;dragon -->
<g id="edge29" class="edge"><title>sorcerer&#45;&gt;dragon</title>
<path fill="none" stroke="#ebc72d" stroke-dasharray="1,5" d="M2560.82,-101.758C2552.61,-97.363 2543.16,-92.8443 2534.1,-89.7401 2434.25,-55.5346 2310.82,-38.9531 2245.21,-32.0461"/>
<polygon fill="#ebc72d" stroke="#ebc72d" points="2245.49,-28.5568 2235.18,-31.0194 2244.78,-35.5203 2245.49,-28.5568"/>
</g>
<!-- healing_potions -->
<g id="node30" class="node"><title>healing_potions</title>
<ellipse fill="none" stroke="black" cx="2707.1" cy="-26.8701" rx="66.8882" ry="18"/>
<text text-anchor="middle" x="2707.1" y="-23.1701" font-family="Times,serif" font-size="14.00">healing_potions</text>
</g>
<!-- sorcerer&#45;&gt;healing_potions -->
<g id="edge30" class="edge"><title>sorcerer&#45;&gt;healing_potions</title>
<path fill="none" stroke="#ebc72d" stroke-dasharray="1,5" d="M2604.68,-100.924C2624.21,-86.9954 2653.81,-65.8828 2676.17,-49.9303"/>
<polygon fill="#ebc72d" stroke="#ebc72d" points="2678.24,-52.7514 2684.35,-44.0948 2674.18,-47.0527 2678.24,-52.7514"/>
</g>
<!-- mana_potions -->
<g id="node31" class="node"><title>mana_potions</title>
<ellipse fill="none" stroke="black" cx="2467.1" cy="-26.8701" rx="60.3893" ry="18"/>
<text text-anchor="middle" x="2467.1" y="-23.1701" font-family="Times,serif" font-size="14.00">mana_potions</text>
</g>
<!-- sorcerer&#45;&gt;mana_potions -->
<g id="edge31" class="edge"><title>sorcerer&#45;&gt;mana_potions</title>
<path fill="none" stroke="#ebc72d" stroke-dasharray="1,5" d="M2564.25,-100.726C2545.72,-86.828 2517.81,-65.9043 2496.66,-50.0405"/>
<polygon fill="#ebc72d" stroke="#ebc72d" points="2498.73,-47.2183 2488.63,-44.0188 2494.53,-52.8186 2498.73,-47.2183"/>
</g>
<!-- worker&#45;&gt;farm -->
<g id="edge44" class="edge"><title>worker&#45;&gt;farm</title>
<path fill="none" stroke="#ebc72d" stroke-width="2" d="M1647.29,-283.672C1631.77,-269.602 1608.63,-248.627 1591.74,-233.31"/>
<polygon fill="#ebc72d" stroke="#ebc72d" stroke-width="2" points="1593.76,-230.423 1584,-226.3 1589.06,-235.609 1593.76,-230.423"/>
</g>
<!-- wolf_hut -->
<g id="node5" class="node"><title>wolf_hut</title>
<g id="a_node5"><a xlink:href="natulka_wolf_hut_full.html" xlink:title="Wolf\nHut">
<polygon fill="none" stroke="red" points="1703.26,-223.023 1664.1,-246.121 1624.93,-223.023 1624.97,-185.65 1703.22,-185.65 1703.26,-223.023"/>
<text text-anchor="middle" x="1664.1" y="-216.493" font-family="Times,serif" font-size="14.00" fill="#ebc72d">Wolf</text>
<text text-anchor="middle" x="1664.1" y="-201.493" font-family="Times,serif" font-size="14.00" fill="#ebc72d">Hut</text>
</a>
</g>
</g>
<!-- worker&#45;&gt;wolf_hut -->
<g id="edge52" class="edge"><title>worker&#45;&gt;wolf_hut</title>
<path fill="none" stroke="#ebc72d" stroke-width="2" d="M1664.1,-281.663C1664.1,-274.242 1664.1,-265.209 1664.1,-256.182"/>
<polygon fill="#ebc72d" stroke="#ebc72d" stroke-width="2" points="1667.6,-256.08 1664.1,-246.08 1660.6,-256.08 1667.6,-256.08"/>
</g>
<!-- tower_academy -->
<g id="node6" class="node"><title>tower_academy</title>
<g id="a_node6"><a xlink:href="natulka_tower_academy_full.html" xlink:title="Tower\nAcademy">
<polygon fill="none" stroke="red" points="1515.21,-223.023 1455.1,-246.121 1394.98,-223.023 1395.04,-185.65 1515.16,-185.65 1515.21,-223.023"/>
<text text-anchor="middle" x="1455.1" y="-216.493" font-family="Times,serif" font-size="14.00" fill="#ebc72d">Tower</text>
<text text-anchor="middle" x="1455.1" y="-201.493" font-family="Times,serif" font-size="14.00" fill="#ebc72d">Academy</text>
</a>
</g>
</g>
<!-- worker&#45;&gt;tower_academy -->
<g id="edge50" class="edge"><title>worker&#45;&gt;tower_academy</title>
<path fill="none" stroke="#ebc72d" stroke-width="2" d="M1634.34,-288.376C1605.83,-278.111 1561.69,-261.771 1524.1,-245.907 1516.82,-242.835 1509.18,-239.441 1501.74,-236.044"/>
<polygon fill="#ebc72d" stroke="#ebc72d" stroke-width="2" points="1503.02,-232.778 1492.47,-231.763 1500.08,-239.133 1503.02,-232.778"/>
</g>
<!-- golem_hole -->
<g id="node9" class="node"><title>golem_hole</title>
<g id="a_node9"><a xlink:href="natulka_golem_hole_full.html" xlink:title="Golem\nHole">
<polygon fill="none" stroke="red" points="2159.49,-223.023 2112.1,-246.121 2064.7,-223.023 2064.74,-185.65 2159.45,-185.65 2159.49,-223.023"/>
<text text-anchor="middle" x="2112.1" y="-216.493" font-family="Times,serif" font-size="14.00" fill="#ebc72d">Golem</text>
<text text-anchor="middle" x="2112.1" y="-201.493" font-family="Times,serif" font-size="14.00" fill="#ebc72d">Hole</text>
</a>
</g>
</g>
<!-- worker&#45;&gt;golem_hole -->
<g id="edge46" class="edge"><title>worker&#45;&gt;golem_hole</title>
<path fill="none" stroke="#ebc72d" stroke-width="2" d="M1702.5,-298.582C1774.01,-296.926 1931.6,-288.298 2056.1,-245.907 2062.52,-243.721 2069.03,-240.77 2075.23,-237.538"/>
<polygon fill="#ebc72d" stroke="#ebc72d" stroke-width="2" points="2076.99,-240.562 2084.05,-232.657 2073.6,-234.438 2076.99,-240.562"/>
</g>
<!-- stone_sanctuary -->
<g id="node15" class="node"><title>stone_sanctuary</title>
<g id="a_node15"><a xlink:href="natulka_stone_sanctuary_full.html" xlink:title="Stone\nSanctuary">
<polygon fill="none" stroke="red" points="2385.21,-223.023 2323.1,-246.121 2260.98,-223.023 2261.04,-185.65 2385.15,-185.65 2385.21,-223.023"/>
<text text-anchor="middle" x="2323.1" y="-216.493" font-family="Times,serif" font-size="14.00" fill="#ebc72d">Stone</text>
<text text-anchor="middle" x="2323.1" y="-201.493" font-family="Times,serif" font-size="14.00" fill="#ebc72d">Sanctuary</text>
</a>
</g>
</g>
<!-- worker&#45;&gt;stone_sanctuary -->
<g id="edge49" class="edge"><title>worker&#45;&gt;stone_sanctuary</title>
<path fill="none" stroke="#ebc72d" stroke-width="2" d="M1701.88,-296.234C1785.99,-290 1994.89,-272.943 2168.1,-245.907 2198.21,-241.207 2231.31,-234.535 2259.17,-228.481"/>
<polygon fill="#ebc72d" stroke="#ebc72d" stroke-width="2" points="2260.16,-231.846 2269.18,-226.283 2258.66,-225.009 2260.16,-231.846"/>
</g>
<!-- sentry_tower -->
<g id="node16" class="node"><title>sentry_tower</title>
<g id="a_node16"><a xlink:href="natulka_sentry_tower_full.html" xlink:title="Sentry\nTower">
<polygon fill="none" stroke="red" points="1929.5,-223.023 1884.1,-246.121 1838.7,-223.023 1838.74,-185.65 1929.45,-185.65 1929.5,-223.023"/>
<text text-anchor="middle" x="1884.1" y="-216.493" font-family="Times,serif" font-size="14.00" fill="#ebc72d">Sentry</text>
<text text-anchor="middle" x="1884.1" y="-201.493" font-family="Times,serif" font-size="14.00" fill="#ebc72d">Tower</text>
</a>
</g>
</g>
<!-- worker&#45;&gt;sentry_tower -->
<g id="edge48" class="edge"><title>worker&#45;&gt;sentry_tower</title>
<path fill="none" stroke="#ebc72d" stroke-width="2" d="M1697.37,-290.696C1731.48,-281.724 1785.69,-265.921 1830.1,-245.907 1835.84,-243.316 1841.75,-240.255 1847.44,-237.068"/>
<polygon fill="#ebc72d" stroke="#ebc72d" stroke-width="2" points="1849.28,-240.05 1856.17,-232.004 1845.76,-233.996 1849.28,-240.05"/>
</g>
<!-- metal_wreaker -->
<g id="node17" class="node"><title>metal_wreaker</title>
<g id="a_node17"><a xlink:href="natulka_metal_wreaker_full.html" xlink:title="Metal\nWreaker">
<polygon fill="none" stroke="red" points="966.973,-223.023 911.097,-246.121 855.221,-223.023 855.273,-185.65 966.921,-185.65 966.973,-223.023"/>
<text text-anchor="middle" x="911.097" y="-216.493" font-family="Times,serif" font-size="14.00" fill="#ebc72d">Metal</text>
<text text-anchor="middle" x="911.097" y="-201.493" font-family="Times,serif" font-size="14.00" fill="#ebc72d">Wreaker</text>
</a>
</g>
</g>
<!-- worker&#45;&gt;metal_wreaker -->
<g id="edge47" class="edge"><title>worker&#45;&gt;metal_wreaker</title>
<path fill="none" stroke="#ebc72d" stroke-width="2" d="M1627.27,-294.739C1507.99,-281.241 1131.1,-238.59 977.364,-221.193"/>
<polygon fill="#ebc72d" stroke="#ebc72d" stroke-width="2" points="977.456,-217.681 967.126,-220.034 976.669,-224.636 977.456,-217.681"/>
</g>
<!-- dragon_tower -->
<g id="node18" class="node"><title>dragon_tower</title>
<g id="a_node18"><a xlink:href="natulka_dragon_tower_full.html" xlink:title="Dragon\nTower">
<polygon fill="none" stroke="red" points="1820.74,-223.023 1771.1,-246.121 1721.46,-223.023 1721.5,-185.65 1820.69,-185.65 1820.74,-223.023"/>
<text text-anchor="middle" x="1771.1" y="-216.493" font-family="Times,serif" font-size="14.00" fill="#ebc72d">Dragon</text>
<text text-anchor="middle" x="1771.1" y="-201.493" font-family="Times,serif" font-size="14.00" fill="#ebc72d">Tower</text>
</a>
</g>
</g>
<!-- worker&#45;&gt;dragon_tower -->
<g id="edge43" class="edge"><title>worker&#45;&gt;dragon_tower</title>
<path fill="none" stroke="#ebc72d" stroke-width="2" d="M1682.73,-284.064C1697.69,-272.155 1719.08,-255.12 1737.07,-240.794"/>
<polygon fill="#ebc72d" stroke="#ebc72d" stroke-width="2" points="1739.42,-243.398 1745.06,-234.43 1735.06,-237.922 1739.42,-243.398"/>
</g>
<!-- army_tent -->
<g id="node21" class="node"><title>army_tent</title>
<g id="a_node21"><a xlink:href="natulka_army_tent_full.html" xlink:title="Army\nTent">
<polygon fill="none" stroke="red" points="437.753,-223.023 395.097,-246.121 352.441,-223.023 352.481,-185.65 437.713,-185.65 437.753,-223.023"/>
<text text-anchor="middle" x="395.097" y="-216.493" font-family="Times,serif" font-size="14.00" fill="#ebc72d">Army</text>
<text text-anchor="middle" x="395.097" y="-201.493" font-family="Times,serif" font-size="14.00" fill="#ebc72d">Tent</text>
</a>
</g>
</g>
<!-- worker&#45;&gt;army_tent -->
<g id="edge42" class="edge"><title>worker&#45;&gt;army_tent</title>
<path fill="none" stroke="#ebc72d" stroke-width="2" d="M1626.17,-296.539C1509.69,-289.247 1146.75,-266.383 846.097,-245.907 702.125,-236.101 532.361,-223.767 448.088,-217.592"/>
<polygon fill="#ebc72d" stroke="#ebc72d" stroke-width="2" points="448.227,-214.093 437.998,-216.852 447.715,-221.074 448.227,-214.093"/>
</g>
<!-- fire_menhir -->
<g id="node25" class="node"><title>fire_menhir</title>
<g id="a_node25"><a xlink:href="natulka_fire_menhir_full.html" xlink:title="Fire\nMenhir">
<polygon fill="none" stroke="red" points="2046.74,-223.023 1997.1,-246.121 1947.46,-223.023 1947.5,-185.65 2046.69,-185.65 2046.74,-223.023"/>
<text text-anchor="middle" x="1997.1" y="-216.493" font-family="Times,serif" font-size="14.00" fill="#ebc72d">Fire</text>
<text text-anchor="middle" x="1997.1" y="-201.493" font-family="Times,serif" font-size="14.00" fill="#ebc72d">Menhir</text>
</a>
</g>
</g>
<!-- worker&#45;&gt;fire_menhir -->
<g id="edge45" class="edge"><title>worker&#45;&gt;fire_menhir</title>
<path fill="none" stroke="#ebc72d" stroke-width="2" d="M1701.4,-295.376C1755.05,-289.483 1856.49,-275.271 1938.1,-245.907 1944.74,-243.517 1951.53,-240.459 1958.04,-237.182"/>
<polygon fill="#ebc72d" stroke="#ebc72d" stroke-width="2" points="1960.11,-240.046 1967.31,-232.276 1956.84,-233.858 1960.11,-240.046"/>
</g>
<!-- wolf_hut&#45;&gt;hunting_wolf -->
<g id="edge41" class="edge"><title>wolf_hut&#45;&gt;hunting_wolf</title>
<path fill="none" stroke="#ebc72d" d="M1662.7,-185.486C1662.18,-175.699 1661.58,-164.404 1661.02,-153.872"/>
<polygon fill="#ebc72d" stroke="#ebc72d" points="1664.51,-153.477 1660.48,-143.677 1657.52,-153.849 1664.51,-153.477"/>
</g>
<!-- axeman -->
<g id="node7" class="node"><title>axeman</title>
<g id="a_node7"><a xlink:href="natulka_axeman_full.html" xlink:title="Axeman">
<ellipse fill="none" stroke="magenta" cx="464.097" cy="-116.61" rx="40.8928" ry="18"/>
<text text-anchor="middle" x="464.097" y="-112.91" font-family="Times,serif" font-size="14.00" fill="#ebc72d">Axeman</text>
</a>
</g>
</g>
<!-- armored_axeman -->
<g id="node23" class="node"><title>armored_axeman</title>
<g id="a_node23"><a xlink:href="natulka_armored_axeman_full.html" xlink:title="Armored\nAxeman">
<ellipse fill="none" stroke="magenta" cx="464.097" cy="-26.8701" rx="46.8387" ry="26.7407"/>
<text text-anchor="middle" x="464.097" y="-30.6701" font-family="Times,serif" font-size="14.00" fill="#ebc72d">Armored</text>
<text text-anchor="middle" x="464.097" y="-15.6701" font-family="Times,serif" font-size="14.00" fill="#ebc72d">Axeman</text>
</a>
</g>
</g>
<!-- axeman&#45;&gt;armored_axeman -->
<g id="edge9" class="edge"><title>axeman&#45;&gt;armored_axeman</title>
<path fill="none" stroke="#ebc72d" stroke-dasharray="5,2" d="M464.097,-98.2755C464.097,-88.4643 464.097,-75.8168 464.097,-63.9541"/>
<polygon fill="#ebc72d" stroke="#ebc72d" points="467.597,-63.8222 464.097,-53.8222 460.597,-63.8222 467.597,-63.8222"/>
</g>
<!-- stone_golem -->
<g id="node20" class="node"><title>stone_golem</title>
<g id="a_node20"><a xlink:href="natulka_stone_golem_full.html" xlink:title="Stone\nGolem">
<ellipse fill="none" stroke="magenta" cx="2112.1" cy="-116.61" rx="38.3684" ry="26.7407"/>
<text text-anchor="middle" x="2112.1" y="-120.41" font-family="Times,serif" font-size="14.00" fill="#ebc72d">Stone</text>
<text text-anchor="middle" x="2112.1" y="-105.41" font-family="Times,serif" font-size="14.00" fill="#ebc72d">Golem</text>
</a>
</g>
</g>
<!-- golem_hole&#45;&gt;stone_golem -->
<g id="edge17" class="edge"><title>golem_hole&#45;&gt;stone_golem</title>
<path fill="none" stroke="#ebc72d" d="M2112.1,-185.486C2112.1,-175.699 2112.1,-164.404 2112.1,-153.872"/>
<polygon fill="#ebc72d" stroke="#ebc72d" points="2115.6,-153.677 2112.1,-143.677 2108.6,-153.677 2115.6,-153.677"/>
</g>
<!-- armored_knight -->
<g id="node12" class="node"><title>armored_knight</title>
<g id="a_node12"><a xlink:href="natulka_armored_knight_full.html" xlink:title="Armored\nKnight">
<ellipse fill="none" stroke="magenta" cx="314.097" cy="-26.8701" rx="46.8387" ry="26.7407"/>
<text text-anchor="middle" x="314.097" y="-30.6701" font-family="Times,serif" font-size="14.00" fill="#ebc72d">Armored</text>
<text text-anchor="middle" x="314.097" y="-15.6701" font-family="Times,serif" font-size="14.00" fill="#ebc72d">Knight</text>
</a>
</g>
</g>
<!-- lancer -->
<g id="node14" class="node"><title>lancer</title>
<g id="a_node14"><a xlink:href="natulka_lancer_full.html" xlink:title="Lancer">
<ellipse fill="none" stroke="magenta" cx="35.0969" cy="-116.61" rx="35.194" ry="18"/>
<text text-anchor="middle" x="35.0969" y="-112.91" font-family="Times,serif" font-size="14.00" fill="#ebc72d">Lancer</text>
</a>
</g>
</g>
<!-- stone_sanctuary&#45;&gt;sorcerer -->
<g id="edge36" class="edge"><title>stone_sanctuary&#45;&gt;sorcerer</title>
<path fill="none" stroke="#ebc72d" d="M2385.47,-194.473C2427.99,-182.02 2485.24,-163.854 2534.1,-143.48 2539.64,-141.167 2545.41,-138.472 2550.97,-135.712"/>
<polygon fill="#ebc72d" stroke="#ebc72d" points="2552.76,-138.732 2560.07,-131.063 2549.57,-132.5 2552.76,-138.732"/>
</g>
<!-- stone_sanctuary&#45;&gt;stone_golem -->
<g id="edge37" class="edge"><title>stone_sanctuary&#45;&gt;stone_golem</title>
<path fill="none" stroke="#ebc72d" stroke-dasharray="1,5" d="M2260.87,-187.671C2229.92,-175.256 2192.16,-159.398 2159.1,-143.48 2156.16,-142.066 2153.15,-140.555 2150.13,-139"/>
<polygon fill="#ebc72d" stroke="#ebc72d" points="2151.65,-135.842 2141.17,-134.256 2148.37,-142.028 2151.65,-135.842"/>
</g>
<!-- magical_time_jump -->
<g id="node26" class="node"><title>magical_time_jump</title>
<ellipse fill="none" stroke="black" cx="2251.1" cy="-116.61" rx="82.5854" ry="18"/>
<text text-anchor="middle" x="2251.1" y="-112.91" font-family="Times,serif" font-size="14.00">magical_time_jump</text>
</g>
<!-- stone_sanctuary&#45;&gt;magical_time_jump -->
<g id="edge33" class="edge"><title>stone_sanctuary&#45;&gt;magical_time_jump</title>
<path fill="none" stroke="#ebc72d" stroke-dasharray="1,5" d="M2303.04,-185.486C2292.8,-172.105 2280.4,-155.907 2270.29,-142.69"/>
<polygon fill="#ebc72d" stroke="#ebc72d" points="2272.88,-140.309 2264.02,-134.495 2267.32,-144.563 2272.88,-140.309"/>
</g>
<!-- medicine -->
<g id="node28" class="node"><title>medicine</title>
<ellipse fill="none" stroke="black" cx="2395.1" cy="-116.61" rx="43.5923" ry="18"/>
<text text-anchor="middle" x="2395.1" y="-112.91" font-family="Times,serif" font-size="14.00">medicine</text>
</g>
<!-- stone_sanctuary&#45;&gt;medicine -->
<g id="edge34" class="edge"><title>stone_sanctuary&#45;&gt;medicine</title>
<path fill="none" stroke="#ebc72d" stroke-dasharray="1,5" d="M2343.15,-185.486C2353.53,-171.927 2366.12,-155.474 2376.31,-142.163"/>
<polygon fill="#ebc72d" stroke="#ebc72d" points="2379.31,-144 2382.61,-133.931 2373.75,-139.745 2379.31,-144"/>
</g>
<!-- poison -->
<g id="node29" class="node"><title>poison</title>
<ellipse fill="none" stroke="black" cx="2491.1" cy="-116.61" rx="34.394" ry="18"/>
<text text-anchor="middle" x="2491.1" y="-112.91" font-family="Times,serif" font-size="14.00">poison</text>
</g>
<!-- stone_sanctuary&#45;&gt;poison -->
<g id="edge35" class="edge"><title>stone_sanctuary&#45;&gt;poison</title>
<path fill="none" stroke="#ebc72d" stroke-dasharray="1,5" d="M2372.04,-185.602C2395.22,-173.087 2423.22,-157.744 2448.1,-143.48 2452.12,-141.175 2456.32,-138.712 2460.46,-136.254"/>
<polygon fill="#ebc72d" stroke="#ebc72d" points="2462.54,-139.089 2469.33,-130.95 2458.95,-133.082 2462.54,-139.089"/>
</g>
<!-- metal_wreaker&#45;&gt;axeman -->
<g id="edge21" class="edge"><title>metal_wreaker&#45;&gt;axeman</title>
<path fill="none" stroke="#ebc72d" stroke-dasharray="1,5" d="M855.198,-207.527C777.125,-200.496 631.778,-182.977 514.097,-143.48 508.28,-141.528 502.309,-138.977 496.609,-136.239"/>
<polygon fill="#ebc72d" stroke="#ebc72d" points="497.848,-132.943 487.348,-131.527 494.673,-139.181 497.848,-132.943"/>
</g>
<!-- metal_wreaker&#45;&gt;banner_bearer -->
<g id="edge22" class="edge"><title>metal_wreaker&#45;&gt;banner_bearer</title>
<path fill="none" stroke="#ebc72d" stroke-dasharray="1,5" d="M855.005,-203.403C793.957,-193.351 694.095,-173.88 612.097,-143.48 608.647,-142.201 605.134,-140.727 601.654,-139.144"/>
<polygon fill="#ebc72d" stroke="#ebc72d" points="603.111,-135.961 592.584,-134.761 600.065,-142.263 603.111,-135.961"/>
</g>
<!-- metal_wreaker&#45;&gt;armored_knight -->
<g id="edge20" class="edge"><title>metal_wreaker&#45;&gt;armored_knight</title>
<path fill="none" stroke="#ebc72d" stroke-dasharray="1,5" d="M855.064,-198.534C818.96,-188.017 772.51,-170.49 738.097,-143.48 715.086,-125.419 725.202,-104.755 700.097,-89.7401 587.875,-22.6245 536.363,-79.1562 408.097,-53.7401 393.801,-50.9074 378.488,-47.0537 364.46,-43.1863"/>
<polygon fill="#ebc72d" stroke="#ebc72d" points="365.079,-39.7246 354.505,-40.3822 363.181,-46.4624 365.079,-39.7246"/>
</g>
<!-- swordsman -->
<g id="node22" class="node"><title>swordsman</title>
<g id="a_node22"><a xlink:href="natulka_swordsman_full.html" xlink:title="Swordsman">
<ellipse fill="none" stroke="magenta" cx="314.097" cy="-116.61" rx="52.7911" ry="18"/>
<text text-anchor="middle" x="314.097" y="-112.91" font-family="Times,serif" font-size="14.00" fill="#ebc72d">Swordsman</text>
</a>
</g>
</g>
<!-- metal_wreaker&#45;&gt;swordsman -->
<g id="edge28" class="edge"><title>metal_wreaker&#45;&gt;swordsman</title>
<path fill="none" stroke="#ebc72d" stroke-dasharray="1,5" d="M855.216,-206.176C762.864,-196.577 572.814,-174.791 414.097,-143.48 397.342,-140.175 379.214,-135.749 363.053,-131.493"/>
<polygon fill="#ebc72d" stroke="#ebc72d" points="363.839,-128.08 353.275,-128.877 362.03,-134.842 363.839,-128.08"/>
</g>
<!-- metal_wreaker&#45;&gt;armored_axeman -->
<g id="edge19" class="edge"><title>metal_wreaker&#45;&gt;armored_axeman</title>
<path fill="none" stroke="#ebc72d" stroke-dasharray="1,5" d="M915.155,-185.591C917.857,-157.815 917.158,-114.527 892.097,-89.7401 840.761,-38.9654 624.951,-29.5625 520.802,-28.0257"/>
<polygon fill="#ebc72d" stroke="#ebc72d" points="520.824,-24.5258 510.779,-27.8971 520.734,-31.5252 520.824,-24.5258"/>
</g>
<!-- optimize_swords -->
<g id="node32" class="node"><title>optimize_swords</title>
<ellipse fill="none" stroke="black" cx="1010.1" cy="-116.61" rx="71.4873" ry="18"/>
<text text-anchor="middle" x="1010.1" y="-112.91" font-family="Times,serif" font-size="14.00">optimize_swords</text>
</g>
<!-- metal_wreaker&#45;&gt;optimize_swords -->
<g id="edge27" class="edge"><title>metal_wreaker&#45;&gt;optimize_swords</title>
<path fill="none" stroke="#ebc72d" stroke-dasharray="1,5" d="M938.674,-185.486C953.253,-171.631 971.011,-154.755 985.173,-141.297"/>
<polygon fill="#ebc72d" stroke="#ebc72d" points="987.79,-143.638 992.627,-134.212 982.967,-138.564 987.79,-143.638"/>
</g>
<!-- optimize_spears -->
<g id="node33" class="node"><title>optimize_spears</title>
<ellipse fill="none" stroke="black" cx="1168.1" cy="-116.61" rx="68.4888" ry="18"/>
<text text-anchor="middle" x="1168.1" y="-112.91" font-family="Times,serif" font-size="14.00">optimize_spears</text>
</g>
<!-- metal_wreaker&#45;&gt;optimize_spears -->
<g id="edge26" class="edge"><title>metal_wreaker&#45;&gt;optimize_spears</title>
<path fill="none" stroke="#ebc72d" stroke-dasharray="1,5" d="M967.179,-191.163C1013.04,-174.374 1077.17,-150.895 1120.55,-135.017"/>
<polygon fill="#ebc72d" stroke="#ebc72d" points="1121.83,-138.275 1130.02,-131.551 1119.42,-131.702 1121.83,-138.275"/>
</g>
<!-- optimize_axes -->
<g id="node34" class="node"><title>optimize_axes</title>
<ellipse fill="none" stroke="black" cx="1316.1" cy="-116.61" rx="61.99" ry="18"/>
<text text-anchor="middle" x="1316.1" y="-112.91" font-family="Times,serif" font-size="14.00">optimize_axes</text>
</g>
<!-- metal_wreaker&#45;&gt;optimize_axes -->
<g id="edge24" class="edge"><title>metal_wreaker&#45;&gt;optimize_axes</title>
<path fill="none" stroke="#ebc72d" stroke-dasharray="1,5" d="M966.958,-202.888C1033.78,-191.759 1148.71,-170.723 1245.1,-143.48 1253.72,-141.043 1262.79,-138.066 1271.47,-135.009"/>
<polygon fill="#ebc72d" stroke="#ebc72d" points="1272.83,-138.239 1281.04,-131.549 1270.45,-131.656 1272.83,-138.239"/>
</g>
<!-- optimize_bows -->
<g id="node35" class="node"><title>optimize_bows</title>
<ellipse fill="none" stroke="black" cx="1461.1" cy="-116.61" rx="64.9885" ry="18"/>
<text text-anchor="middle" x="1461.1" y="-112.91" font-family="Times,serif" font-size="14.00">optimize_bows</text>
</g>
<!-- metal_wreaker&#45;&gt;optimize_bows -->
<g id="edge25" class="edge"><title>metal_wreaker&#45;&gt;optimize_bows</title>
<path fill="none" stroke="#ebc72d" stroke-dasharray="1,5" d="M967.096,-207.215C1056.76,-199.254 1237.66,-179.942 1387.1,-143.48 1396.52,-141.182 1406.43,-138.159 1415.82,-134.992"/>
<polygon fill="#ebc72d" stroke="#ebc72d" points="1417.09,-138.257 1425.39,-131.665 1414.79,-131.645 1417.09,-138.257"/>
</g>
<!-- optimize_armor -->
<g id="node36" class="node"><title>optimize_armor</title>
<ellipse fill="none" stroke="black" cx="815.097" cy="-116.61" rx="67.6881" ry="18"/>
<text text-anchor="middle" x="815.097" y="-112.91" font-family="Times,serif" font-size="14.00">optimize_armor</text>
</g>
<!-- metal_wreaker&#45;&gt;optimize_armor -->
<g id="edge23" class="edge"><title>metal_wreaker&#45;&gt;optimize_armor</title>
<path fill="none" stroke="#ebc72d" stroke-dasharray="1,5" d="M884.356,-185.486C870.219,-171.631 852.999,-154.755 839.266,-141.297"/>
<polygon fill="#ebc72d" stroke="#ebc72d" points="841.629,-138.712 832.037,-134.212 836.729,-143.711 841.629,-138.712"/>
</g>
<!-- dragon_tower&#45;&gt;dragon -->
<g id="edge10" class="edge"><title>dragon_tower&#45;&gt;dragon</title>
<path fill="none" stroke="#ebc72d" d="M1815.51,-185.534C1820.34,-183.27 1825.26,-181.194 1830.1,-179.48 1914,-149.777 1952.07,-191.363 2027.1,-143.48 2051.76,-127.743 2042.61,-108.449 2065.1,-89.7401 2092.76,-66.7243 2130.4,-50.3409 2158.75,-40.2397"/>
<polygon fill="#ebc72d" stroke="#ebc72d" points="2160.04,-43.4962 2168.35,-36.9282 2157.76,-36.8783 2160.04,-43.4962"/>
</g>
<!-- poisoned_spears -->
<g id="node37" class="node"><title>poisoned_spears</title>
<ellipse fill="none" stroke="black" cx="1789.1" cy="-116.61" rx="68.7879" ry="18"/>
<text text-anchor="middle" x="1789.1" y="-112.91" font-family="Times,serif" font-size="14.00">poisoned_spears</text>
</g>
<!-- dragon_tower&#45;&gt;poisoned_spears -->
<g id="edge12" class="edge"><title>dragon_tower&#45;&gt;poisoned_spears</title>
<path fill="none" stroke="#ebc72d" stroke-dasharray="1,5" d="M1776.11,-185.486C1778.53,-172.828 1781.44,-157.647 1783.88,-144.855"/>
<polygon fill="#ebc72d" stroke="#ebc72d" points="1787.37,-145.259 1785.81,-134.779 1780.5,-143.943 1787.37,-145.259"/>
</g>
<!-- optimize_shields -->
<g id="node38" class="node"><title>optimize_shields</title>
<ellipse fill="none" stroke="black" cx="1947.1" cy="-116.61" rx="70.6878" ry="18"/>
<text text-anchor="middle" x="1947.1" y="-112.91" font-family="Times,serif" font-size="14.00">optimize_shields</text>
</g>
<!-- dragon_tower&#45;&gt;optimize_shields -->
<g id="edge11" class="edge"><title>dragon_tower&#45;&gt;optimize_shields</title>
<path fill="none" stroke="#ebc72d" stroke-dasharray="1,5" d="M1818.73,-185.618C1822.57,-183.535 1826.4,-181.469 1830.1,-179.48 1856.25,-165.428 1885.8,-149.801 1908.67,-137.768"/>
<polygon fill="#ebc72d" stroke="#ebc72d" points="1910.49,-140.765 1917.71,-133.012 1907.23,-134.569 1910.49,-140.765"/>
</g>
<!-- wolf_training -->
<g id="node27" class="node"><title>wolf_training</title>
<ellipse fill="none" stroke="black" cx="1659.1" cy="-26.8701" rx="58.4896" ry="18"/>
<text text-anchor="middle" x="1659.1" y="-23.1701" font-family="Times,serif" font-size="14.00">wolf_training</text>
</g>
<!-- hunting_wolf&#45;&gt;wolf_training -->
<g id="edge18" class="edge"><title>hunting_wolf&#45;&gt;wolf_training</title>
<path fill="none" stroke="#ebc72d" stroke-dasharray="1,5" d="M1659.1,-89.2852C1659.1,-78.5336 1659.1,-66.0986 1659.1,-55.2416"/>
<polygon fill="#ebc72d" stroke="#ebc72d" points="1662.6,-55.0314 1659.1,-45.0314 1655.6,-55.0314 1662.6,-55.0314"/>
</g>
<!-- army_tent&#45;&gt;axeman -->
<g id="edge3" class="edge"><title>army_tent&#45;&gt;axeman</title>
<path fill="none" stroke="#ebc72d" d="M414.317,-185.486C424.261,-171.927 436.328,-155.474 446.09,-142.163"/>
<polygon fill="#ebc72d" stroke="#ebc72d" points="449.036,-144.065 452.127,-133.931 443.391,-139.925 449.036,-144.065"/>
</g>
<!-- army_tent&#45;&gt;hunter -->
<g id="edge5" class="edge"><title>army_tent&#45;&gt;hunter</title>
<path fill="none" stroke="#ebc72d" d="M437.735,-201.362C482.263,-189.87 553.63,-169.452 612.097,-143.48 616.834,-141.376 621.704,-138.882 626.399,-136.287"/>
<polygon fill="#ebc72d" stroke="#ebc72d" points="628.218,-139.278 635.129,-131.248 624.719,-133.216 628.218,-139.278"/>
</g>
<!-- army_tent&#45;&gt;banner_bearer -->
<g id="edge4" class="edge"><title>army_tent&#45;&gt;banner_bearer</title>
<path fill="none" stroke="#ebc72d" d="M437.925,-187.709C464.535,-172.806 498.47,-153.803 524.291,-139.342"/>
<polygon fill="#ebc72d" stroke="#ebc72d" points="526.046,-142.371 533.06,-134.431 522.625,-136.264 526.046,-142.371"/>
</g>
<!-- army_tent&#45;&gt;armored_knight -->
<g id="edge2" class="edge"><title>army_tent&#45;&gt;armored_knight</title>
<path fill="none" stroke="#ebc72d" stroke-dasharray="1,5" d="M352.157,-203.985C318.52,-195.446 273.893,-178.026 252.097,-143.48 239.352,-123.28 242.945,-111.802 252.097,-89.7401 257.583,-76.5161 267.419,-64.6507 277.664,-54.9332"/>
<polygon fill="#ebc72d" stroke="#ebc72d" points="280.019,-57.5231 285.14,-48.2483 275.353,-52.305 280.019,-57.5231"/>
</g>
<!-- army_tent&#45;&gt;lancer -->
<g id="edge6" class="edge"><title>army_tent&#45;&gt;lancer</title>
<path fill="none" stroke="#ebc72d" d="M352.374,-206.693C290.658,-198.531 173.699,-179.517 80.0969,-143.48 74.9459,-141.497 69.6837,-138.982 64.6585,-136.303"/>
<polygon fill="#ebc72d" stroke="#ebc72d" points="66.3729,-133.252 55.944,-131.383 62.9316,-139.347 66.3729,-133.252"/>
</g>
<!-- army_tent&#45;&gt;swordsman -->
<g id="edge7" class="edge"><title>army_tent&#45;&gt;swordsman</title>
<path fill="none" stroke="#ebc72d" d="M372.534,-185.486C360.827,-171.888 346.614,-155.379 335.136,-142.048"/>
<polygon fill="#ebc72d" stroke="#ebc72d" points="337.567,-139.507 328.39,-134.212 332.262,-144.074 337.567,-139.507"/>
</g>
<!-- army_tent&#45;&gt;armored_axeman -->
<g id="edge1" class="edge"><title>army_tent&#45;&gt;armored_axeman</title>
<path fill="none" stroke="#ebc72d" stroke-dasharray="1,5" d="M395.288,-185.37C396.358,-159.893 400.381,-120.693 414.097,-89.7401 419.124,-78.3962 426.781,-67.3942 434.602,-57.8914"/>
<polygon fill="#ebc72d" stroke="#ebc72d" points="437.279,-60.1466 441.157,-50.287 431.977,-55.5763 437.279,-60.1466"/>
</g>
<!-- training_field -->
<g id="node39" class="node"><title>training_field</title>
<ellipse fill="none" stroke="black" cx="147.097" cy="-116.61" rx="58.4896" ry="18"/>
<text text-anchor="middle" x="147.097" y="-112.91" font-family="Times,serif" font-size="14.00">training_field</text>
</g>
<!-- army_tent&#45;&gt;training_field -->
<g id="edge8" class="edge"><title>army_tent&#45;&gt;training_field</title>
<path fill="none" stroke="#ebc72d" stroke-dasharray="1,5" d="M352.464,-195.52C307.693,-178.535 237.585,-151.939 191.985,-134.639"/>
<polygon fill="#ebc72d" stroke="#ebc72d" points="192.954,-131.264 182.363,-130.989 190.471,-137.808 192.954,-131.264"/>
</g>
<!-- swordsman&#45;&gt;armored_knight -->
<g id="edge38" class="edge"><title>swordsman&#45;&gt;armored_knight</title>
<path fill="none" stroke="#ebc72d" stroke-dasharray="5,2" d="M314.097,-98.2755C314.097,-88.4643 314.097,-75.8168 314.097,-63.9541"/>
<polygon fill="#ebc72d" stroke="#ebc72d" points="317.597,-63.8222 314.097,-53.8222 310.597,-63.8222 317.597,-63.8222"/>
</g>
</g>
</svg>
