<?xml version="1.0" encoding="UTF-8" standalone="no"?>
<!DOCTYPE svg PUBLIC "-//W3C//DTD SVG 1.1//EN"
 "http://www.w3.org/Graphics/SVG/1.1/DTD/svg11.dtd">
<!-- Generated by graphviz version 2.38.0 (20140413.2041)
 -->
<!-- Title: test Pages: 1 -->
<svg width="983pt" height="308pt"
 viewBox="0.00 0.00 982.95 308.17" xmlns="http://www.w3.org/2000/svg" xmlns:xlink="http://www.w3.org/1999/xlink">
<g id="graph0" class="graph" transform="scale(1 1) rotate(0) translate(4 304.167)">
<title>test</title>
<polygon fill="#151515" stroke="none" points="-4,4 -4,-304.167 978.946,-304.167 978.946,4 -4,4"/>
<!-- bull -->
<g id="node1" class="node"><title>bull</title>
<g id="a_node1"><a xlink:href="indian_bull_full.html" xlink:title="Bull">
<ellipse fill="none" stroke="magenta" cx="27" cy="-98.8701" rx="27" ry="18"/>
<text text-anchor="middle" x="27" y="-95.1701" font-family="Times,serif" font-size="14.00" fill="#ebc72d">Bull</text>
</a>
</g>
</g>
<!-- fire_golem -->
<g id="node2" class="node"><title>fire_golem</title>
<g id="a_node2"><a xlink:href="indian_fire_golem_full.html" xlink:title="Fire\nGolem">
<ellipse fill="none" stroke="magenta" cx="320" cy="-98.8701" rx="38.3684" ry="26.7407"/>
<text text-anchor="middle" x="320" y="-102.67" font-family="Times,serif" font-size="14.00" fill="#ebc72d">Fire</text>
<text text-anchor="middle" x="320" y="-87.6701" font-family="Times,serif" font-size="14.00" fill="#ebc72d">Golem</text>
</a>
</g>
</g>
<!-- horse_farm -->
<g id="node3" class="node"><title>horse_farm</title>
<g id="a_node3"><a xlink:href="indian_horse_farm_full.html" xlink:title="Horse\nFarm">
<polygon fill="none" stroke="red" points="161.656,-205.283 119,-228.381 76.3442,-205.283 76.384,-167.91 161.616,-167.91 161.656,-205.283"/>
<text text-anchor="middle" x="119" y="-198.753" font-family="Times,serif" font-size="14.00" fill="#ebc72d">Horse</text>
<text text-anchor="middle" x="119" y="-183.753" font-family="Times,serif" font-size="14.00" fill="#ebc72d">Farm</text>
</a>
</g>
</g>
<!-- horse_farm&#45;&gt;bull -->
<g id="edge7" class="edge"><title>horse_farm&#45;&gt;bull</title>
<path fill="none" stroke="#ebc72d" d="M93.3729,-167.746C79.1072,-153.157 61.5656,-135.218 48.0993,-121.447"/>
<polygon fill="#ebc72d" stroke="#ebc72d" points="50.5779,-118.976 41.0839,-114.273 45.573,-123.87 50.5779,-118.976"/>
</g>
<!-- horseman -->
<g id="node15" class="node"><title>horseman</title>
<g id="a_node15"><a xlink:href="indian_horseman_full.html" xlink:title="Horseman">
<ellipse fill="none" stroke="magenta" cx="119" cy="-98.8701" rx="47.3916" ry="18"/>
<text text-anchor="middle" x="119" y="-95.1701" font-family="Times,serif" font-size="14.00" fill="#ebc72d">Horseman</text>
</a>
</g>
</g>
<!-- horse_farm&#45;&gt;horseman -->
<g id="edge8" class="edge"><title>horse_farm&#45;&gt;horseman</title>
<path fill="none" stroke="#ebc72d" d="M119,-167.746C119,-155.087 119,-139.907 119,-127.115"/>
<polygon fill="#ebc72d" stroke="#ebc72d" points="122.5,-127.039 119,-117.039 115.5,-127.039 122.5,-127.039"/>
</g>
<!-- worker -->
<g id="node4" class="node"><title>worker</title>
<g id="a_node4"><a xlink:href="indian_worker_full.html" xlink:title="Worker">
<ellipse fill="none" stroke="magenta" cx="556" cy="-282.167" rx="38.1938" ry="18"/>
<text text-anchor="middle" x="556" y="-278.467" font-family="Times,serif" font-size="14.00" fill="#ebc72d">Worker</text>
</a>
</g>
</g>
<!-- worker&#45;&gt;horse_farm -->
<g id="edge29" class="edge"><title>worker&#45;&gt;horse_farm</title>
<path fill="none" stroke="#ebc72d" stroke-width="2" d="M520.531,-275.142C465.646,-265.722 356.874,-246.662 265,-228.167 233.725,-221.87 198.827,-214.195 170.995,-207.916"/>
<polygon fill="#ebc72d" stroke="#ebc72d" stroke-width="2" points="171.606,-204.465 161.08,-205.67 170.06,-211.293 171.606,-204.465"/>
</g>
<!-- reed -->
<g id="node5" class="node"><title>reed</title>
<g id="a_node5"><a xlink:href="indian_reed_full.html" xlink:title="Reed">
<polygon fill="none" stroke="red" points="448.197,-200.516 413,-212.953 377.803,-200.516 377.835,-180.391 448.165,-180.391 448.197,-200.516"/>
<text text-anchor="middle" x="413" y="-191.253" font-family="Times,serif" font-size="14.00" fill="#ebc72d">Reed</text>
</a>
</g>
</g>
<!-- worker&#45;&gt;reed -->
<g id="edge31" class="edge"><title>worker&#45;&gt;reed</title>
<path fill="none" stroke="#ebc72d" stroke-width="2" d="M530.216,-268.617C509.902,-258.434 481.089,-243.328 457,-228.167 450.169,-223.868 443.009,-218.859 436.495,-214.091"/>
<polygon fill="#ebc72d" stroke="#ebc72d" stroke-width="2" points="438.213,-211.006 428.106,-207.827 434.025,-216.615 438.213,-211.006"/>
</g>
<!-- totem -->
<g id="node7" class="node"><title>totem</title>
<g id="a_node7"><a xlink:href="indian_totem_full.html" xlink:title="Totem">
<polygon fill="none" stroke="red" points="359.658,-200.516 317,-212.953 274.342,-200.516 274.382,-180.391 359.618,-180.391 359.658,-200.516"/>
<text text-anchor="middle" x="317" y="-191.253" font-family="Times,serif" font-size="14.00" fill="#ebc72d">Totem</text>
</a>
</g>
</g>
<!-- worker&#45;&gt;totem -->
<g id="edge34" class="edge"><title>worker&#45;&gt;totem</title>
<path fill="none" stroke="#ebc72d" stroke-width="2" d="M521.223,-274.354C482.901,-266.158 419.943,-250.636 369,-228.167 360.009,-224.201 350.724,-218.894 342.532,-213.732"/>
<polygon fill="#ebc72d" stroke="#ebc72d" stroke-width="2" points="344.427,-210.789 334.138,-208.26 340.604,-216.653 344.427,-210.789"/>
</g>
<!-- tent -->
<g id="node12" class="node"><title>tent</title>
<g id="a_node12"><a xlink:href="indian_tent_full.html" xlink:title="Tent">
<polygon fill="none" stroke="red" points="748.877,-200.516 716,-212.953 683.123,-200.516 683.154,-180.391 748.846,-180.391 748.877,-200.516"/>
<text text-anchor="middle" x="716" y="-191.253" font-family="Times,serif" font-size="14.00" fill="#ebc72d">Tent</text>
</a>
</g>
</g>
<!-- worker&#45;&gt;tent -->
<g id="edge33" class="edge"><title>worker&#45;&gt;tent</title>
<path fill="none" stroke="#ebc72d" stroke-width="2" d="M585.062,-270.313C609.535,-260.663 645.076,-245.434 674,-228.167 680.835,-224.086 687.853,-219.079 694.148,-214.239"/>
<polygon fill="#ebc72d" stroke="#ebc72d" stroke-width="2" points="696.544,-216.805 702.199,-207.846 692.191,-211.324 696.544,-216.805"/>
</g>
<!-- round_tent -->
<g id="node14" class="node"><title>round_tent</title>
<g id="a_node14"><a xlink:href="indian_round_tent_full.html" xlink:title="Round\nTent">
<polygon fill="none" stroke="red" points="859.148,-205.283 813,-228.381 766.852,-205.283 766.895,-167.91 859.105,-167.91 859.148,-205.283"/>
<text text-anchor="middle" x="813" y="-198.753" font-family="Times,serif" font-size="14.00" fill="#ebc72d">Round</text>
<text text-anchor="middle" x="813" y="-183.753" font-family="Times,serif" font-size="14.00" fill="#ebc72d">Tent</text>
</a>
</g>
</g>
<!-- worker&#45;&gt;round_tent -->
<g id="edge32" class="edge"><title>worker&#45;&gt;round_tent</title>
<path fill="none" stroke="#ebc72d" stroke-width="2" d="M591.253,-274.957C632.326,-267.037 701.738,-251.505 758,-228.167 763.97,-225.69 770.079,-222.667 775.952,-219.475"/>
<polygon fill="#ebc72d" stroke="#ebc72d" stroke-width="2" points="777.966,-222.357 784.934,-214.376 774.51,-216.269 777.966,-222.357"/>
</g>
<!-- main_teepee -->
<g id="node16" class="node"><title>main_teepee</title>
<g id="a_node16"><a xlink:href="indian_main_teepee_full.html" xlink:title="Main\nTeepee">
<polygon fill="none" stroke="red" points="974.892,-205.283 926,-228.381 877.108,-205.283 877.154,-167.91 974.846,-167.91 974.892,-205.283"/>
<text text-anchor="middle" x="926" y="-198.753" font-family="Times,serif" font-size="14.00" fill="#ebc72d">Main</text>
<text text-anchor="middle" x="926" y="-183.753" font-family="Times,serif" font-size="14.00" fill="#ebc72d">Teepee</text>
</a>
</g>
</g>
<!-- worker&#45;&gt;main_teepee -->
<g id="edge30" class="edge"><title>worker&#45;&gt;main_teepee</title>
<path fill="none" stroke="#ebc72d" stroke-width="2" d="M604.338,-278.036C666.764,-272.857 778.074,-259.736 868,-228.167 874.572,-225.859 881.275,-222.845 887.681,-219.586"/>
<polygon fill="#ebc72d" stroke="#ebc72d" stroke-width="2" points="603.7,-274.576 594.008,-278.857 604.254,-281.554 603.7,-274.576"/>
<polygon fill="#ebc72d" stroke="#ebc72d" stroke-width="2" points="889.647,-222.503 896.803,-214.69 886.337,-216.335 889.647,-222.503"/>
</g>
<!-- big_tent -->
<g id="node19" class="node"><title>big_tent</title>
<g id="a_node19"><a xlink:href="indian_big_tent_full.html" xlink:title="Big\nTent">
<polygon fill="none" stroke="red" points="537.671,-205.283 502,-228.381 466.329,-205.283 466.362,-167.91 537.638,-167.91 537.671,-205.283"/>
<text text-anchor="middle" x="502" y="-198.753" font-family="Times,serif" font-size="14.00" fill="#ebc72d">Big</text>
<text text-anchor="middle" x="502" y="-183.753" font-family="Times,serif" font-size="14.00" fill="#ebc72d">Tent</text>
</a>
</g>
</g>
<!-- worker&#45;&gt;big_tent -->
<g id="edge27" class="edge"><title>worker&#45;&gt;big_tent</title>
<path fill="none" stroke="#ebc72d" stroke-width="2" d="M545.588,-264.737C538.915,-254.205 530.034,-240.191 522.03,-227.561"/>
<polygon fill="#ebc72d" stroke="#ebc72d" stroke-width="2" points="524.976,-225.671 516.667,-219.098 519.063,-229.418 524.976,-225.671"/>
</g>
<!-- campfire -->
<g id="node21" class="node"><title>campfire</title>
<g id="a_node21"><a xlink:href="indian_campfire_full.html" xlink:title="Campfire">
<polygon fill="none" stroke="red" points="664.759,-200.516 610,-212.953 555.241,-200.516 555.292,-180.391 664.708,-180.391 664.759,-200.516"/>
<text text-anchor="middle" x="610" y="-191.253" font-family="Times,serif" font-size="14.00" fill="#ebc72d">Campfire</text>
</a>
</g>
</g>
<!-- worker&#45;&gt;campfire -->
<g id="edge28" class="edge"><title>worker&#45;&gt;campfire</title>
<path fill="none" stroke="#ebc72d" stroke-width="2" d="M566.412,-264.737C574.507,-251.962 585.851,-234.061 594.937,-219.724"/>
<polygon fill="#ebc72d" stroke="#ebc72d" stroke-width="2" points="598.128,-221.226 600.524,-210.906 592.215,-217.479 598.128,-221.226"/>
</g>
<!-- reed&#45;&gt;fire_golem -->
<g id="edge12" class="edge"><title>reed&#45;&gt;fire_golem</title>
<path fill="none" stroke="#ebc72d" stroke-dasharray="1,5" d="M399.278,-180.071C386.045,-166.685 365.608,-146.009 348.798,-129.004"/>
<polygon fill="#ebc72d" stroke="#ebc72d" points="350.888,-126.139 341.369,-121.488 345.91,-131.06 350.888,-126.139"/>
</g>
<!-- archer -->
<g id="node6" class="node"><title>archer</title>
<g id="a_node6"><a xlink:href="indian_archer_full.html" xlink:title="Archer">
<ellipse fill="none" stroke="magenta" cx="411" cy="-98.8701" rx="35.194" ry="18"/>
<text text-anchor="middle" x="411" y="-95.1701" font-family="Times,serif" font-size="14.00" fill="#ebc72d">Archer</text>
</a>
</g>
</g>
<!-- reed&#45;&gt;archer -->
<g id="edge10" class="edge"><title>reed&#45;&gt;archer</title>
<path fill="none" stroke="#ebc72d" stroke-dasharray="1,5" d="M412.705,-180.071C412.41,-166.187 411.948,-144.462 411.579,-127.123"/>
<polygon fill="#ebc72d" stroke="#ebc72d" points="415.076,-126.927 411.364,-117.003 408.078,-127.075 415.076,-126.927"/>
</g>
<!-- fire_archer -->
<g id="node9" class="node"><title>fire_archer</title>
<g id="a_node9"><a xlink:href="indian_fire_archer_full.html" xlink:title="Fire\nArcher">
<ellipse fill="none" stroke="magenta" cx="624" cy="-98.8701" rx="38.3684" ry="26.7407"/>
<text text-anchor="middle" x="624" y="-102.67" font-family="Times,serif" font-size="14.00" fill="#ebc72d">Fire</text>
<text text-anchor="middle" x="624" y="-87.6701" font-family="Times,serif" font-size="14.00" fill="#ebc72d">Archer</text>
</a>
</g>
</g>
<!-- reed&#45;&gt;fire_archer -->
<g id="edge11" class="edge"><title>reed&#45;&gt;fire_archer</title>
<path fill="none" stroke="#ebc72d" stroke-dasharray="1,5" d="M428.854,-180.302C436.869,-173.95 446.998,-166.717 457,-161.74 506.851,-136.935 525.656,-147.286 577,-125.74 580.049,-124.461 583.156,-123.039 586.247,-121.538"/>
<polygon fill="#ebc72d" stroke="#ebc72d" points="588.081,-124.531 595.394,-116.865 584.896,-118.298 588.081,-124.531"/>
</g>
<!-- totem&#45;&gt;fire_golem -->
<g id="edge25" class="edge"><title>totem&#45;&gt;fire_golem</title>
<path fill="none" stroke="#ebc72d" stroke-dasharray="1,5" d="M317.443,-180.071C317.811,-168.525 318.352,-151.558 318.842,-136.199"/>
<polygon fill="#ebc72d" stroke="#ebc72d" points="322.349,-136.016 319.17,-125.91 315.353,-135.793 322.349,-136.016"/>
</g>
<!-- shaman -->
<g id="node13" class="node"><title>shaman</title>
<g id="a_node13"><a xlink:href="indian_shaman_full.html" xlink:title="Shaman">
<ellipse fill="none" stroke="magenta" cx="224" cy="-98.8701" rx="39.7935" ry="18"/>
<text text-anchor="middle" x="224" y="-95.1701" font-family="Times,serif" font-size="14.00" fill="#ebc72d">Shaman</text>
</a>
</g>
</g>
<!-- totem&#45;&gt;shaman -->
<g id="edge26" class="edge"><title>totem&#45;&gt;shaman</title>
<path fill="none" stroke="#ebc72d" d="M303.278,-180.071C288.423,-165.043 264.488,-140.829 246.799,-122.934"/>
<polygon fill="#ebc72d" stroke="#ebc72d" points="249.164,-120.348 239.645,-115.697 244.186,-125.269 249.164,-120.348"/>
</g>
<!-- beehive -->
<g id="node8" class="node"><title>beehive</title>
<g id="a_node8"><a xlink:href="indian_beehive_full.html" xlink:title="Beehive">
<polygon fill="none" stroke="red" points="212.011,-23.5623 163,-36 113.989,-23.5623 114.034,-3.43769 211.966,-3.43769 212.011,-23.5623"/>
<text text-anchor="middle" x="163" y="-14.3" font-family="Times,serif" font-size="14.00" fill="#ebc72d">Beehive</text>
</a>
</g>
</g>
<!-- stickfighter -->
<g id="node10" class="node"><title>stickfighter</title>
<g id="a_node10"><a xlink:href="indian_stickfighter_full.html" xlink:title="Stickfighter">
<ellipse fill="none" stroke="magenta" cx="516" cy="-98.8701" rx="51.9908" ry="18"/>
<text text-anchor="middle" x="516" y="-95.1701" font-family="Times,serif" font-size="14.00" fill="#ebc72d">Stickfighter</text>
</a>
</g>
</g>
<!-- spearman -->
<g id="node11" class="node"><title>spearman</title>
<g id="a_node11"><a xlink:href="indian_spearman_full.html" xlink:title="Spearman">
<ellipse fill="none" stroke="magenta" cx="924" cy="-98.8701" rx="46.2923" ry="18"/>
<text text-anchor="middle" x="924" y="-95.1701" font-family="Times,serif" font-size="14.00" fill="#ebc72d">Spearman</text>
</a>
</g>
</g>
<!-- tent&#45;&gt;archer -->
<g id="edge19" class="edge"><title>tent&#45;&gt;archer</title>
<path fill="none" stroke="#ebc72d" stroke-dasharray="1,5" d="M701.981,-180.376C694.309,-173.719 684.288,-166.195 674,-161.74 583.481,-122.548 547.753,-159.306 455,-125.74 450.024,-123.939 444.975,-121.571 440.158,-118.998"/>
<polygon fill="#ebc72d" stroke="#ebc72d" points="441.676,-115.834 431.261,-113.892 438.192,-121.905 441.676,-115.834"/>
</g>
<!-- tent&#45;&gt;fire_archer -->
<g id="edge22" class="edge"><title>tent&#45;&gt;fire_archer</title>
<path fill="none" stroke="#ebc72d" stroke-dasharray="1,5" d="M702.425,-180.071C689.335,-166.685 669.117,-146.009 652.488,-129.004"/>
<polygon fill="#ebc72d" stroke="#ebc72d" points="654.633,-126.191 645.139,-121.488 649.628,-131.085 654.633,-126.191"/>
</g>
<!-- tent&#45;&gt;stickfighter -->
<g id="edge24" class="edge"><title>tent&#45;&gt;stickfighter</title>
<path fill="none" stroke="#ebc72d" d="M700.427,-180.214C692.828,-173.993 683.33,-166.896 674,-161.74 633.752,-139.499 619.734,-142.722 577,-125.74 570.464,-123.143 563.57,-120.311 556.863,-117.504"/>
<polygon fill="#ebc72d" stroke="#ebc72d" points="557.807,-114.103 547.233,-113.44 555.085,-120.552 557.807,-114.103"/>
</g>
<!-- tent&#45;&gt;spearman -->
<g id="edge23" class="edge"><title>tent&#45;&gt;spearman</title>
<path fill="none" stroke="#ebc72d" stroke-dasharray="1,5" d="M731.088,-180.361C738.728,-174.024 748.402,-166.785 758,-161.74 803.907,-137.609 820.772,-144.815 869,-125.74 875.053,-123.346 881.383,-120.604 887.504,-117.82"/>
<polygon fill="#ebc72d" stroke="#ebc72d" points="889.292,-120.848 896.882,-113.455 886.339,-114.501 889.292,-120.848"/>
</g>
<!-- axe_indian -->
<g id="node18" class="node"><title>axe_indian</title>
<g id="a_node18"><a xlink:href="indian_axe_indian_full.html" xlink:title="Axe\nIndian">
<ellipse fill="none" stroke="magenta" cx="824" cy="-98.8701" rx="36.125" ry="26.7407"/>
<text text-anchor="middle" x="824" y="-102.67" font-family="Times,serif" font-size="14.00" fill="#ebc72d">Axe</text>
<text text-anchor="middle" x="824" y="-87.6701" font-family="Times,serif" font-size="14.00" fill="#ebc72d">Indian</text>
</a>
</g>
</g>
<!-- tent&#45;&gt;axe_indian -->
<g id="edge20" class="edge"><title>tent&#45;&gt;axe_indian</title>
<path fill="none" stroke="#ebc72d" stroke-dasharray="1,5" d="M731.936,-180.071C748.097,-165.992 773.514,-143.85 793.551,-126.396"/>
<polygon fill="#ebc72d" stroke="#ebc72d" points="795.97,-128.93 801.211,-119.722 791.372,-123.652 795.97,-128.93"/>
</g>
<!-- axe_thrower -->
<g id="node20" class="node"><title>axe_thrower</title>
<g id="a_node20"><a xlink:href="indian_axe_thrower_full.html" xlink:title="Axe\nThrower">
<ellipse fill="none" stroke="magenta" cx="725" cy="-98.8701" rx="44.5955" ry="26.7407"/>
<text text-anchor="middle" x="725" y="-102.67" font-family="Times,serif" font-size="14.00" fill="#ebc72d">Axe</text>
<text text-anchor="middle" x="725" y="-87.6701" font-family="Times,serif" font-size="14.00" fill="#ebc72d">Thrower</text>
</a>
</g>
</g>
<!-- tent&#45;&gt;axe_thrower -->
<g id="edge21" class="edge"><title>tent&#45;&gt;axe_thrower</title>
<path fill="none" stroke="#ebc72d" stroke-dasharray="1,5" d="M717.328,-180.071C718.432,-168.525 720.056,-151.558 721.525,-136.199"/>
<polygon fill="#ebc72d" stroke="#ebc72d" points="725.041,-136.198 722.509,-125.91 718.073,-135.531 725.041,-136.198"/>
</g>
<!-- shaman&#45;&gt;beehive -->
<g id="edge17" class="edge"><title>shaman&#45;&gt;beehive</title>
<path fill="none" stroke="#ebc72d" stroke-width="2" d="M211.361,-81.5281C202.458,-70.0168 190.42,-54.4521 180.581,-41.7318"/>
<polygon fill="#ebc72d" stroke="#ebc72d" stroke-width="2" points="183.074,-39.2335 174.187,-33.4645 177.537,-43.516 183.074,-39.2335"/>
</g>
<!-- thunderbird -->
<g id="node17" class="node"><title>thunderbird</title>
<g id="a_node17"><a xlink:href="indian_thunderbird_full.html" xlink:title="Thunderbird">
<ellipse fill="none" stroke="magenta" cx="285" cy="-18" rx="54.6905" ry="18"/>
<text text-anchor="middle" x="285" y="-14.3" font-family="Times,serif" font-size="14.00" fill="#ebc72d">Thunderbird</text>
</a>
</g>
</g>
<!-- shaman&#45;&gt;thunderbird -->
<g id="edge18" class="edge"><title>shaman&#45;&gt;thunderbird</title>
<path fill="none" stroke="#ebc72d" d="M236.639,-81.5281C245.089,-70.6034 256.362,-56.0278 265.898,-43.6975"/>
<polygon fill="#ebc72d" stroke="#ebc72d" points="268.818,-45.6438 272.167,-35.5923 263.281,-41.3613 268.818,-45.6438"/>
</g>
<!-- round_tent&#45;&gt;fire_archer -->
<g id="edge15" class="edge"><title>round_tent&#45;&gt;fire_archer</title>
<path fill="none" stroke="#ebc72d" d="M769.772,-167.894C765.829,-165.743 761.865,-163.66 758,-161.74 720.524,-143.122 708.721,-143.857 671,-125.74 668.061,-124.329 665.048,-122.82 662.035,-121.266"/>
<polygon fill="#ebc72d" stroke="#ebc72d" points="663.548,-118.107 653.072,-116.525 660.275,-124.295 663.548,-118.107"/>
</g>
<!-- round_tent&#45;&gt;spearman -->
<g id="edge16" class="edge"><title>round_tent&#45;&gt;spearman</title>
<path fill="none" stroke="#ebc72d" d="M843.92,-167.746C860.745,-153.485 881.346,-136.023 897.44,-122.382"/>
<polygon fill="#ebc72d" stroke="#ebc72d" points="900.036,-124.77 905.402,-115.634 895.51,-119.43 900.036,-124.77"/>
</g>
<!-- round_tent&#45;&gt;axe_indian -->
<g id="edge13" class="edge"><title>round_tent&#45;&gt;axe_indian</title>
<path fill="none" stroke="#ebc72d" d="M816.064,-167.746C817.208,-157.959 818.529,-146.664 819.76,-136.132"/>
<polygon fill="#ebc72d" stroke="#ebc72d" points="823.267,-136.276 820.952,-125.937 816.315,-135.463 823.267,-136.276"/>
</g>
<!-- round_tent&#45;&gt;axe_thrower -->
<g id="edge14" class="edge"><title>round_tent&#45;&gt;axe_thrower</title>
<path fill="none" stroke="#ebc72d" d="M788.487,-167.746C777.64,-156.149 764.814,-142.436 753.539,-130.382"/>
<polygon fill="#ebc72d" stroke="#ebc72d" points="755.777,-127.651 746.39,-122.739 750.665,-132.433 755.777,-127.651"/>
</g>
<!-- big_tent&#45;&gt;archer -->
<g id="edge1" class="edge"><title>big_tent&#45;&gt;archer</title>
<path fill="none" stroke="#ebc72d" d="M476.651,-167.746C463.023,-153.656 446.372,-136.441 433.25,-122.874"/>
<polygon fill="#ebc72d" stroke="#ebc72d" points="435.449,-120.113 425.981,-115.358 430.417,-124.979 435.449,-120.113"/>
</g>
<!-- big_tent&#45;&gt;stickfighter -->
<g id="edge2" class="edge"><title>big_tent&#45;&gt;stickfighter</title>
<path fill="none" stroke="#ebc72d" d="M505.9,-167.746C507.783,-155.087 510.042,-139.907 511.946,-127.115"/>
<polygon fill="#ebc72d" stroke="#ebc72d" points="515.435,-127.445 513.445,-117.039 508.511,-126.415 515.435,-127.445"/>
</g>
<!-- campfire&#45;&gt;fire_golem -->
<g id="edge6" class="edge"><title>campfire&#45;&gt;fire_golem</title>
<path fill="none" stroke="#ebc72d" d="M587.045,-180.28C575.389,-173.845 560.806,-166.547 547,-161.74 469.952,-134.915 443.63,-153.737 367,-125.74 363.752,-124.553 360.458,-123.167 357.199,-121.664"/>
<polygon fill="#ebc72d" stroke="#ebc72d" points="358.689,-118.496 348.176,-117.186 355.577,-124.766 358.689,-118.496"/>
</g>
<!-- campfire&#45;&gt;fire_archer -->
<g id="edge5" class="edge"><title>campfire&#45;&gt;fire_archer</title>
<path fill="none" stroke="#ebc72d" stroke-dasharray="1,5" d="M612.066,-180.071C613.784,-168.525 616.309,-151.558 618.594,-136.199"/>
<polygon fill="#ebc72d" stroke="#ebc72d" points="622.115,-136.316 620.125,-125.91 615.191,-135.286 622.115,-136.316"/>
</g>
<!-- campfire&#45;&gt;axe_indian -->
<g id="edge3" class="edge"><title>campfire&#45;&gt;axe_indian</title>
<path fill="none" stroke="#ebc72d" stroke-dasharray="1,5" d="M635.164,-180.292C646.808,-174.23 660.929,-167.24 674,-161.74 719.472,-142.606 734.076,-146.127 779,-125.74 781.954,-124.399 784.967,-122.924 787.965,-121.379"/>
<polygon fill="#ebc72d" stroke="#ebc72d" points="789.693,-124.424 796.833,-116.597 786.37,-118.262 789.693,-124.424"/>
</g>
<!-- campfire&#45;&gt;axe_thrower -->
<g id="edge4" class="edge"><title>campfire&#45;&gt;axe_thrower</title>
<path fill="none" stroke="#ebc72d" stroke-dasharray="1,5" d="M626.969,-180.071C643.811,-166.292 670.092,-144.791 691.204,-127.519"/>
<polygon fill="#ebc72d" stroke="#ebc72d" points="693.489,-130.172 699.012,-121.131 689.056,-124.754 693.489,-130.172"/>
</g>
</g>
</svg>
