<?xml version="1.0" encoding="UTF-8" standalone="no"?>
<!DOCTYPE svg PUBLIC "-//W3C//DTD SVG 1.1//EN"
 "http://www.w3.org/Graphics/SVG/1.1/DTD/svg11.dtd">
<!-- Generated by graphviz version 2.38.0 (20140413.2041)
 -->
<!-- Title: test Pages: 1 -->
<svg width="1202pt" height="635pt"
 viewBox="0.00 0.00 1202.04 634.59" xmlns="http://www.w3.org/2000/svg" xmlns:xlink="http://www.w3.org/1999/xlink">
<g id="graph0" class="graph" transform="scale(1 1) rotate(0) translate(4 630.593)">
<title>test</title>
<polygon fill="#151515" stroke="none" points="-4,4 -4,-630.593 1198.04,-630.593 1198.04,4 -4,4"/>
<!-- bull -->
<g id="node1" class="node"><title>bull</title>
<g id="a_node1"><a xlink:href="indian_bull_full.html" xlink:title="Bull">
<ellipse fill="none" stroke="magenta" cx="68.4739" cy="-199.74" rx="27" ry="18"/>
<text text-anchor="middle" x="68.4739" y="-196.04" font-family="Times,serif" font-size="14.00" fill="#ebc72d">Bull</text>
</a>
</g>
</g>
<!-- fire_golem -->
<g id="node2" class="node"><title>fire_golem</title>
<g id="a_node2"><a xlink:href="indian_fire_golem_full.html" xlink:title="Fire\nGolem">
<ellipse fill="none" stroke="magenta" cx="901.474" cy="-98.8701" rx="38.3684" ry="26.7407"/>
<text text-anchor="middle" x="901.474" y="-102.67" font-family="Times,serif" font-size="14.00" fill="#ebc72d">Fire</text>
<text text-anchor="middle" x="901.474" y="-87.6701" font-family="Times,serif" font-size="14.00" fill="#ebc72d">Golem</text>
</a>
</g>
</g>
<!-- horse_farm -->
<g id="node3" class="node"><title>horse_farm</title>
<g id="a_node3"><a xlink:href="indian_horse_farm_full.html" xlink:title="Horse\nFarm">
<polygon fill="none" stroke="red" points="244.13,-322.07 201.474,-345.168 158.818,-322.07 158.858,-284.696 244.09,-284.696 244.13,-322.07"/>
<text text-anchor="middle" x="201.474" y="-315.54" font-family="Times,serif" font-size="14.00" fill="#ebc72d">Horse</text>
<text text-anchor="middle" x="201.474" y="-300.54" font-family="Times,serif" font-size="14.00" fill="#ebc72d">Farm</text>
</a>
</g>
</g>
<!-- horse_farm&#45;&gt;bull -->
<g id="edge9" class="edge"><title>horse_farm&#45;&gt;bull</title>
<path fill="none" stroke="#ebc72d" d="M167.414,-284.547C149.887,-270.86 128.305,-253.68 109.474,-237.74 103.537,-232.715 97.2457,-227.159 91.4206,-221.913"/>
<polygon fill="#ebc72d" stroke="#ebc72d" points="93.5992,-219.164 83.8434,-215.031 88.8929,-224.345 93.5992,-219.164"/>
</g>
<!-- horseman -->
<g id="node15" class="node"><title>horseman</title>
<g id="a_node15"><a xlink:href="indian_horseman_full.html" xlink:title="Horseman">
<ellipse fill="none" stroke="magenta" cx="204.474" cy="-98.8701" rx="47.3916" ry="18"/>
<text text-anchor="middle" x="204.474" y="-95.1701" font-family="Times,serif" font-size="14.00" fill="#ebc72d">Horseman</text>
</a>
</g>
</g>
<!-- horse_farm&#45;&gt;horseman -->
<g id="edge10" class="edge"><title>horse_farm&#45;&gt;horseman</title>
<path fill="none" stroke="#ebc72d" d="M172.87,-284.442C161.044,-271.646 148.667,-255.254 142.474,-237.74 131.214,-205.894 129.531,-192.94 142.474,-161.74 149.07,-145.84 161.956,-131.903 174.279,-121.304"/>
<polygon fill="#ebc72d" stroke="#ebc72d" points="176.681,-123.861 182.224,-114.832 172.26,-118.434 176.681,-123.861"/>
</g>
<!-- stables -->
<g id="node26" class="node"><title>stables</title>
<g id="a_node26"><a xlink:href="indian_stables_full.html" xlink:title="Stables">
<polygon fill="none" stroke="green" points="257.703,-217.74 173.027,-217.74 151.244,-181.74 235.921,-181.74 257.703,-217.74"/>
<text text-anchor="middle" x="204.474" y="-196.04" font-family="Times,serif" font-size="14.00" fill="#ebc72d">Stables</text>
</a>
</g>
</g>
<!-- horse_farm&#45;&gt;stables -->
<g id="edge11" class="edge"><title>horse_farm&#45;&gt;stables</title>
<path fill="none" stroke="#ebc72d" d="M202.185,-284.672C202.65,-267.625 203.256,-245.395 203.728,-228.096"/>
<polygon fill="#ebc72d" stroke="#ebc72d" points="207.228,-228.144 204.002,-218.052 200.23,-227.953 207.228,-228.144"/>
</g>
<!-- worker -->
<g id="node4" class="node"><title>worker</title>
<g id="a_node4"><a xlink:href="indian_worker_full.html" xlink:title="Worker">
<ellipse fill="none" stroke="magenta" cx="905.474" cy="-608.593" rx="38.1938" ry="18"/>
<text text-anchor="middle" x="905.474" y="-604.893" font-family="Times,serif" font-size="14.00" fill="#ebc72d">Worker</text>
</a>
</g>
</g>
<!-- worker&#45;&gt;horse_farm -->
<g id="edge39" class="edge"><title>worker&#45;&gt;horse_farm</title>
<path fill="none" stroke="#ebc72d" stroke-width="2" d="M867.166,-606.666C805.18,-603.195 682.21,-587.874 606.474,-522.38"/>
<path fill="none" stroke="#ebc72d" stroke-width="2" d="M606.474,-520.38C541.448,-464.147 502.684,-489.968 425.474,-452.167 347.273,-413.88 332.108,-396.209 258.474,-349.74 251.599,-345.401 244.295,-340.718 237.292,-336.189"/>
<polygon fill="#ebc72d" stroke="#ebc72d" stroke-width="2" points="238.931,-333.08 228.636,-330.573 235.121,-338.952 238.931,-333.08"/>
</g>
<!-- reed -->
<g id="node5" class="node"><title>reed</title>
<g id="a_node5"><a xlink:href="indian_reed_full.html" xlink:title="Reed">
<polygon fill="none" stroke="red" points="504.671,-424.516 469.474,-436.953 434.276,-424.516 434.309,-404.391 504.639,-404.391 504.671,-424.516"/>
<text text-anchor="middle" x="469.474" y="-415.253" font-family="Times,serif" font-size="14.00" fill="#ebc72d">Reed</text>
</a>
</g>
</g>
<!-- worker&#45;&gt;reed -->
<g id="edge41" class="edge"><title>worker&#45;&gt;reed</title>
<path fill="none" stroke="#ebc72d" stroke-width="2" d="M606.474,-520.38C596.212,-511.534 530.087,-463.639 493.589,-437.315"/>
<polygon fill="#ebc72d" stroke="#ebc72d" stroke-width="2" points="495.585,-434.439 485.426,-431.431 491.492,-440.117 495.585,-434.439"/>
</g>
<!-- totem -->
<g id="node7" class="node"><title>totem</title>
<g id="a_node7"><a xlink:href="indian_totem_full.html" xlink:title="Totem">
<polygon fill="none" stroke="red" points="1054.13,-205.302 1011.47,-217.74 968.816,-205.302 968.856,-185.178 1054.09,-185.178 1054.13,-205.302"/>
<text text-anchor="middle" x="1011.47" y="-196.04" font-family="Times,serif" font-size="14.00" fill="#ebc72d">Totem</text>
</a>
</g>
</g>
<!-- worker&#45;&gt;totem -->
<g id="edge44" class="edge"><title>worker&#45;&gt;totem</title>
<path fill="none" stroke="#ebc72d" stroke-width="2" d="M913.637,-590.906C932.911,-550.608 981.148,-444.311 1001.47,-349.74 1010.45,-307.976 1012.01,-258.25 1011.99,-228.111"/>
<polygon fill="#ebc72d" stroke="#ebc72d" stroke-width="2" points="1015.49,-227.92 1011.92,-217.945 1008.49,-227.969 1015.49,-227.92"/>
</g>
<!-- tent -->
<g id="node12" class="node"><title>tent</title>
<g id="a_node12"><a xlink:href="indian_tent_full.html" xlink:title="Tent">
<polygon fill="none" stroke="red" points="823.351,-526.942 790.474,-539.38 757.597,-526.942 757.628,-506.817 823.32,-506.817 823.351,-526.942"/>
<text text-anchor="middle" x="790.474" y="-517.68" font-family="Times,serif" font-size="14.00" fill="#ebc72d">Tent</text>
</a>
</g>
</g>
<!-- worker&#45;&gt;tent -->
<g id="edge43" class="edge"><title>worker&#45;&gt;tent</title>
<path fill="none" stroke="#ebc72d" stroke-width="2" d="M885.705,-592.944C865.837,-578.223 835.209,-555.528 814.079,-539.87"/>
<polygon fill="#ebc72d" stroke="#ebc72d" stroke-width="2" points="816.057,-536.98 805.939,-533.839 811.889,-542.605 816.057,-536.98"/>
</g>
<!-- round_tent -->
<g id="node14" class="node"><title>round_tent</title>
<g id="a_node14"><a xlink:href="indian_round_tent_full.html" xlink:title="Round\nTent">
<polygon fill="none" stroke="red" points="615.622,-429.283 569.474,-452.381 523.326,-429.283 523.369,-391.91 615.579,-391.91 615.622,-429.283"/>
<text text-anchor="middle" x="569.474" y="-422.753" font-family="Times,serif" font-size="14.00" fill="#ebc72d">Round</text>
<text text-anchor="middle" x="569.474" y="-407.753" font-family="Times,serif" font-size="14.00" fill="#ebc72d">Tent</text>
</a>
</g>
</g>
<!-- worker&#45;&gt;round_tent -->
<g id="edge42" class="edge"><title>worker&#45;&gt;round_tent</title>
<path fill="none" stroke="#ebc72d" stroke-width="2" d="M606.474,-520.38C589.057,-505.367 579.833,-481.402 574.951,-460.647"/>
<polygon fill="#ebc72d" stroke="#ebc72d" stroke-width="2" points="578.358,-459.842 572.886,-450.77 571.506,-461.274 578.358,-459.842"/>
</g>
<!-- main_teepee -->
<g id="node16" class="node"><title>main_teepee</title>
<g id="a_node16"><a xlink:href="indian_main_teepee_full.html" xlink:title="Main\nTeepee">
<polygon fill="none" stroke="red" points="1146.37,-531.71 1097.47,-554.808 1048.58,-531.71 1048.63,-494.336 1146.32,-494.336 1146.37,-531.71"/>
<text text-anchor="middle" x="1097.47" y="-525.18" font-family="Times,serif" font-size="14.00" fill="#ebc72d">Main</text>
<text text-anchor="middle" x="1097.47" y="-510.18" font-family="Times,serif" font-size="14.00" fill="#ebc72d">Teepee</text>
</a>
</g>
</g>
<!-- worker&#45;&gt;main_teepee -->
<g id="edge40" class="edge"><title>worker&#45;&gt;main_teepee</title>
<path fill="none" stroke="#ebc72d" stroke-width="2" d="M943.649,-592.871C969.515,-582.662 1004.34,-568.458 1034.47,-554.593 1041.38,-551.416 1048.63,-547.893 1055.65,-544.376"/>
<polygon fill="#ebc72d" stroke="#ebc72d" stroke-width="2" points="942.233,-589.667 934.203,-596.579 944.791,-596.183 942.233,-589.667"/>
<polygon fill="#ebc72d" stroke="#ebc72d" stroke-width="2" points="1057.69,-547.263 1065.03,-539.619 1054.53,-541.021 1057.69,-547.263"/>
</g>
<!-- big_tent -->
<g id="node19" class="node"><title>big_tent</title>
<g id="a_node19"><a xlink:href="indian_big_tent_full.html" xlink:title="Big\nTent">
<polygon fill="none" stroke="red" points="743.145,-429.283 707.474,-452.381 671.803,-429.283 671.836,-391.91 743.112,-391.91 743.145,-429.283"/>
<text text-anchor="middle" x="707.474" y="-422.753" font-family="Times,serif" font-size="14.00" fill="#ebc72d">Big</text>
<text text-anchor="middle" x="707.474" y="-407.753" font-family="Times,serif" font-size="14.00" fill="#ebc72d">Tent</text>
</a>
</g>
</g>
<!-- worker&#45;&gt;big_tent -->
<g id="edge37" class="edge"><title>worker&#45;&gt;big_tent</title>
<path fill="none" stroke="#ebc72d" stroke-width="2" d="M606.474,-520.38C590.761,-506.836 639.029,-467.908 674.161,-442.687"/>
<polygon fill="#ebc72d" stroke="#ebc72d" stroke-width="2" points="676.625,-445.23 682.763,-436.593 672.579,-439.518 676.625,-445.23"/>
</g>
<!-- campfire -->
<g id="node21" class="node"><title>campfire</title>
<g id="a_node21"><a xlink:href="indian_campfire_full.html" xlink:title="Campfire">
<polygon fill="none" stroke="red" points="870.233,-317.302 815.474,-329.74 760.715,-317.302 760.766,-297.178 870.182,-297.178 870.233,-317.302"/>
<text text-anchor="middle" x="815.474" y="-308.04" font-family="Times,serif" font-size="14.00" fill="#ebc72d">Campfire</text>
</a>
</g>
</g>
<!-- worker&#45;&gt;campfire -->
<g id="edge38" class="edge"><title>worker&#45;&gt;campfire</title>
<path fill="none" stroke="#ebc72d" stroke-width="2" d="M606.474,-520.38C594.201,-509.801 651.079,-397.258 662.474,-385.74 691.04,-356.866 709.875,-367.354 746.474,-349.74 759.231,-343.6 773.029,-336.332 784.91,-329.87"/>
<polygon fill="#ebc72d" stroke="#ebc72d" stroke-width="2" points="786.888,-332.776 793.97,-324.897 783.52,-326.64 786.888,-332.776"/>
</g>
<!-- reed&#45;&gt;fire_golem -->
<g id="edge20" class="edge"><title>reed&#45;&gt;fire_golem</title>
<path fill="none" stroke="#ebc72d" stroke-dasharray="1,5" d="M451.078,-404.2C442.164,-397.976 431.106,-390.88 420.474,-385.74 354.44,-353.819 297.026,-381.853 272.474,-312.74"/>
<path fill="none" stroke="#ebc72d" stroke-dasharray="1,5" d="M272.474,-310.74C261.137,-278.828 278.879,-183.917 304.474,-161.74 348.496,-123.596 770.416,-137.456 827.474,-125.74 838.082,-123.562 849.245,-120.239 859.592,-116.692"/>
<polygon fill="#ebc72d" stroke="#ebc72d" points="860.979,-119.914 869.219,-113.254 858.624,-113.321 860.979,-119.914"/>
</g>
<!-- archer -->
<g id="node6" class="node"><title>archer</title>
<g id="a_node6"><a xlink:href="indian_archer_full.html" xlink:title="Archer">
<ellipse fill="none" stroke="magenta" cx="669.474" cy="-311.74" rx="35.194" ry="18"/>
<text text-anchor="middle" x="669.474" y="-308.04" font-family="Times,serif" font-size="14.00" fill="#ebc72d">Archer</text>
</a>
</g>
</g>
<!-- reed&#45;&gt;archer -->
<g id="edge16" class="edge"><title>reed&#45;&gt;archer</title>
<path fill="none" stroke="#ebc72d" stroke-dasharray="1,5" d="M486.931,-404.332C495.071,-398.278 505.028,-391.284 514.474,-385.74 535.935,-373.145 595.557,-345.829 634.287,-328.416"/>
<polygon fill="#ebc72d" stroke="#ebc72d" points="635.956,-331.504 643.648,-324.218 633.092,-325.117 635.956,-331.504"/>
</g>
<!-- beehive -->
<g id="node8" class="node"><title>beehive</title>
<g id="a_node8"><a xlink:href="indian_beehive_full.html" xlink:title="Beehive">
<polygon fill="none" stroke="red" points="497.485,-23.5623 448.474,-36 399.462,-23.5623 399.508,-3.43769 497.44,-3.43769 497.485,-23.5623"/>
<text text-anchor="middle" x="448.474" y="-14.3" font-family="Times,serif" font-size="14.00" fill="#ebc72d">Beehive</text>
</a>
</g>
</g>
<!-- reed&#45;&gt;beehive -->
<g id="edge17" class="edge"><title>reed&#45;&gt;beehive</title>
<path fill="none" stroke="#ebc72d" stroke-dasharray="1,5" d="M434.147,-417.856C340.579,-416.79 89.9092,-408.403 37.4739,-349.74 -18.2291,-287.421 -4.34667,-236.778 32.4739,-161.74 61.1879,-103.223 88.868,-98.3796 148.474,-72 227.16,-37.176 326.999,-25.2087 389.324,-21.1113"/>
<polygon fill="#ebc72d" stroke="#ebc72d" points="389.606,-24.6007 399.374,-20.4976 389.179,-17.6137 389.606,-24.6007"/>
</g>
<!-- fire_archer -->
<g id="node9" class="node"><title>fire_archer</title>
<g id="a_node9"><a xlink:href="indian_fire_archer_full.html" xlink:title="Fire\nArcher">
<ellipse fill="none" stroke="magenta" cx="351.474" cy="-199.74" rx="38.3684" ry="26.7407"/>
<text text-anchor="middle" x="351.474" y="-203.54" font-family="Times,serif" font-size="14.00" fill="#ebc72d">Fire</text>
<text text-anchor="middle" x="351.474" y="-188.54" font-family="Times,serif" font-size="14.00" fill="#ebc72d">Archer</text>
</a>
</g>
</g>
<!-- reed&#45;&gt;fire_archer -->
<g id="edge19" class="edge"><title>reed&#45;&gt;fire_archer</title>
<path fill="none" stroke="#ebc72d" stroke-dasharray="1,5" d="M272.474,-310.74C260.669,-277.51 289.813,-245.46 315.977,-224.613"/>
<polygon fill="#ebc72d" stroke="#ebc72d" points="318.135,-227.369 323.952,-218.514 313.882,-221.809 318.135,-227.369"/>
</g>
<!-- bull_food -->
<g id="node24" class="node"><title>bull_food</title>
<g id="a_node24"><a xlink:href="indian_bull_food_full.html" xlink:title="Bull\nFood">
<polygon fill="none" stroke="green" points="138.209,-349.74 65.455,-349.74 46.7394,-273.74 119.493,-273.74 138.209,-349.74"/>
<text text-anchor="middle" x="92.4739" y="-315.54" font-family="Times,serif" font-size="14.00" fill="#ebc72d">Bull</text>
<text text-anchor="middle" x="92.4739" y="-300.54" font-family="Times,serif" font-size="14.00" fill="#ebc72d">Food</text>
</a>
</g>
</g>
<!-- reed&#45;&gt;bull_food -->
<g id="edge18" class="edge"><title>reed&#45;&gt;bull_food</title>
<path fill="none" stroke="#ebc72d" d="M434.135,-414.674C373.79,-408.155 247.866,-390.517 149.474,-349.74 148.278,-349.245 147.081,-348.724 145.883,-348.18"/>
<polygon fill="#ebc72d" stroke="#ebc72d" points="147.257,-344.955 136.746,-343.628 144.136,-351.22 147.257,-344.955"/>
</g>
<!-- totem&#45;&gt;fire_golem -->
<g id="edge34" class="edge"><title>totem&#45;&gt;fire_golem</title>
<path fill="none" stroke="#ebc72d" stroke-dasharray="1,5" d="M996.179,-184.993C979.742,-170.219 953.176,-146.34 932.357,-127.628"/>
<polygon fill="#ebc72d" stroke="#ebc72d" points="934.47,-124.821 924.693,-120.74 929.791,-130.028 934.47,-124.821"/>
</g>
<!-- shaman -->
<g id="node13" class="node"><title>shaman</title>
<g id="a_node13"><a xlink:href="indian_shaman_full.html" xlink:title="Shaman">
<ellipse fill="none" stroke="magenta" cx="997.474" cy="-98.8701" rx="39.7935" ry="18"/>
<text text-anchor="middle" x="997.474" y="-95.1701" font-family="Times,serif" font-size="14.00" fill="#ebc72d">Shaman</text>
</a>
</g>
</g>
<!-- totem&#45;&gt;shaman -->
<g id="edge36" class="edge"><title>totem&#45;&gt;shaman</title>
<path fill="none" stroke="#ebc72d" d="M1009.53,-184.993C1007.42,-170.109 1004,-145.984 1001.35,-127.21"/>
<polygon fill="#ebc72d" stroke="#ebc72d" points="1004.79,-126.566 999.922,-117.156 997.858,-127.547 1004.79,-126.566"/>
</g>
<!-- petroleum -->
<g id="node27" class="node"><title>petroleum</title>
<g id="a_node27"><a xlink:href="indian_petroleum_full.html" xlink:title="Petroleum">
<polygon fill="none" stroke="green" points="1194.1,-116.87 1083.34,-116.87 1054.84,-80.8701 1165.61,-80.8701 1194.1,-116.87"/>
<text text-anchor="middle" x="1124.47" y="-95.1701" font-family="Times,serif" font-size="14.00" fill="#ebc72d">Petroleum</text>
</a>
</g>
</g>
<!-- totem&#45;&gt;petroleum -->
<g id="edge35" class="edge"><title>totem&#45;&gt;petroleum</title>
<path fill="none" stroke="#ebc72d" d="M1027.19,-184.993C1045.23,-169.209 1075.14,-143.032 1097.05,-123.867"/>
<polygon fill="#ebc72d" stroke="#ebc72d" points="1099.5,-126.374 1104.72,-117.156 1094.89,-121.106 1099.5,-126.374"/>
</g>
<!-- stickfighter -->
<g id="node10" class="node"><title>stickfighter</title>
<g id="a_node10"><a xlink:href="indian_stickfighter_full.html" xlink:title="Stickfighter">
<ellipse fill="none" stroke="magenta" cx="940.474" cy="-311.74" rx="51.9908" ry="18"/>
<text text-anchor="middle" x="940.474" y="-308.04" font-family="Times,serif" font-size="14.00" fill="#ebc72d">Stickfighter</text>
</a>
</g>
</g>
<!-- spearman -->
<g id="node11" class="node"><title>spearman</title>
<g id="a_node11"><a xlink:href="indian_spearman_full.html" xlink:title="Spearman">
<ellipse fill="none" stroke="magenta" cx="532.474" cy="-311.74" rx="46.2923" ry="18"/>
<text text-anchor="middle" x="532.474" y="-308.04" font-family="Times,serif" font-size="14.00" fill="#ebc72d">Spearman</text>
</a>
</g>
</g>
<!-- tent&#45;&gt;stickfighter -->
<g id="edge33" class="edge"><title>tent&#45;&gt;stickfighter</title>
<path fill="none" stroke="#ebc72d" d="M800.316,-506.756C825.124,-472.415 890.506,-381.909 922.426,-337.723"/>
<polygon fill="#ebc72d" stroke="#ebc72d" points="925.323,-339.69 928.342,-329.534 919.649,-335.591 925.323,-339.69"/>
</g>
<!-- tent&#45;&gt;round_tent -->
<g id="edge32" class="edge"><title>tent&#45;&gt;round_tent</title>
<path fill="none" stroke="#ebc72d" stroke-dasharray="1,5" d="M760.208,-506.626C722.102,-489.31 656.375,-459.443 612.911,-439.692"/>
<polygon fill="#ebc72d" stroke="#ebc72d" points="614.275,-436.467 603.723,-435.517 611.379,-442.84 614.275,-436.467"/>
</g>
<!-- tent&#45;&gt;big_tent -->
<g id="edge31" class="edge"><title>tent&#45;&gt;big_tent</title>
<path fill="none" stroke="#ebc72d" stroke-dasharray="1,5" d="M778.933,-506.416C766.695,-491.608 747.014,-467.795 731.402,-448.905"/>
<polygon fill="#ebc72d" stroke="#ebc72d" points="734.062,-446.63 724.994,-441.151 728.666,-451.089 734.062,-446.63"/>
</g>
<!-- shaman&#45;&gt;beehive -->
<g id="edge28" class="edge"><title>shaman&#45;&gt;beehive</title>
<path fill="none" stroke="#ebc72d" stroke-width="2" d="M975.315,-83.8812C967.166,-79.3638 957.676,-74.8032 948.474,-72 794.544,-25.1105 603.041,-18.268 507.891,-18.1114"/>
<polygon fill="#ebc72d" stroke="#ebc72d" stroke-width="2" points="507.6,-14.6116 497.604,-18.1202 507.607,-21.6116 507.6,-14.6116"/>
</g>
<!-- thunderbird -->
<g id="node17" class="node"><title>thunderbird</title>
<g id="a_node17"><a xlink:href="indian_thunderbird_full.html" xlink:title="Thunderbird">
<ellipse fill="none" stroke="magenta" cx="997.474" cy="-18" rx="54.6905" ry="18"/>
<text text-anchor="middle" x="997.474" y="-14.3" font-family="Times,serif" font-size="14.00" fill="#ebc72d">Thunderbird</text>
</a>
</g>
</g>
<!-- shaman&#45;&gt;thunderbird -->
<g id="edge29" class="edge"><title>shaman&#45;&gt;thunderbird</title>
<path fill="none" stroke="#ebc72d" d="M997.474,-80.7564C997.474,-70.7312 997.474,-57.8362 997.474,-46.4246"/>
<polygon fill="#ebc72d" stroke="#ebc72d" points="1000.97,-46.0802 997.474,-36.0802 993.974,-46.0803 1000.97,-46.0802"/>
</g>
<!-- round_tent&#45;&gt;horse_farm -->
<g id="edge25" class="edge"><title>round_tent&#45;&gt;horse_farm</title>
<path fill="none" stroke="#ebc72d" stroke-dasharray="1,5" d="M528.098,-391.873C523.287,-389.532 518.353,-387.417 513.474,-385.74 405.235,-348.529 365.674,-389.847 258.474,-349.74 250.294,-346.68 242.078,-342.295 234.531,-337.608"/>
<polygon fill="#ebc72d" stroke="#ebc72d" points="236.303,-334.585 226.021,-332.028 232.465,-340.439 236.303,-334.585"/>
</g>
<!-- round_tent&#45;&gt;fire_archer -->
<g id="edge24" class="edge"><title>round_tent&#45;&gt;fire_archer</title>
<path fill="none" stroke="#ebc72d" d="M527.379,-391.822C522.785,-389.553 518.097,-387.468 513.474,-385.74 435.417,-356.572 382.438,-414.071 329.474,-349.74 302.851,-317.403 318.159,-267.195 333.348,-234.142"/>
<polygon fill="#ebc72d" stroke="#ebc72d" points="336.618,-235.418 337.802,-224.889 330.311,-232.382 336.618,-235.418"/>
</g>
<!-- round_tent&#45;&gt;spearman -->
<g id="edge26" class="edge"><title>round_tent&#45;&gt;spearman</title>
<path fill="none" stroke="#ebc72d" d="M560.233,-391.675C554.649,-375.798 547.549,-355.609 541.928,-339.624"/>
<polygon fill="#ebc72d" stroke="#ebc72d" points="545.097,-338.086 538.478,-329.814 538.494,-340.408 545.097,-338.086"/>
</g>
<!-- axe_indian -->
<g id="node18" class="node"><title>axe_indian</title>
<g id="a_node18"><a xlink:href="indian_axe_indian_full.html" xlink:title="Axe\nIndian">
<ellipse fill="none" stroke="magenta" cx="620.474" cy="-98.8701" rx="36.125" ry="26.7407"/>
<text text-anchor="middle" x="620.474" y="-102.67" font-family="Times,serif" font-size="14.00" fill="#ebc72d">Axe</text>
<text text-anchor="middle" x="620.474" y="-87.6701" font-family="Times,serif" font-size="14.00" fill="#ebc72d">Indian</text>
</a>
</g>
</g>
<!-- round_tent&#45;&gt;axe_indian -->
<g id="edge21" class="edge"><title>round_tent&#45;&gt;axe_indian</title>
<path fill="none" stroke="#ebc72d" d="M577.18,-391.896C580.704,-379.256 584.702,-363.8 587.474,-349.74 602.337,-274.348 612.338,-184.807 617.153,-136.008"/>
<polygon fill="#ebc72d" stroke="#ebc72d" points="620.647,-136.237 618.129,-125.946 613.679,-135.561 620.647,-136.237"/>
</g>
<!-- axe_thrower -->
<g id="node20" class="node"><title>axe_thrower</title>
<g id="a_node20"><a xlink:href="indian_axe_thrower_full.html" xlink:title="Axe\nThrower">
<ellipse fill="none" stroke="magenta" cx="773.474" cy="-98.8701" rx="44.5955" ry="26.7407"/>
<text text-anchor="middle" x="773.474" y="-102.67" font-family="Times,serif" font-size="14.00" fill="#ebc72d">Axe</text>
<text text-anchor="middle" x="773.474" y="-87.6701" font-family="Times,serif" font-size="14.00" fill="#ebc72d">Thrower</text>
</a>
</g>
</g>
<!-- round_tent&#45;&gt;axe_thrower -->
<g id="edge22" class="edge"><title>round_tent&#45;&gt;axe_thrower</title>
<path fill="none" stroke="#ebc72d" d="M611.87,-391.823C615.751,-389.687 619.658,-387.627 623.474,-385.74 662.093,-366.646 689.321,-385.414 713.474,-349.74 732.411,-321.77 728.873,-303.803 713.474,-273.74 700.99,-249.368 675.958,-262.112 663.474,-237.74 648.075,-207.677 646.421,-190.897 663.474,-161.74 676.638,-139.233 701.332,-124.282 723.993,-114.725"/>
<polygon fill="#ebc72d" stroke="#ebc72d" points="725.526,-117.883 733.54,-110.953 722.954,-111.372 725.526,-117.883"/>
</g>
<!-- round_tent&#45;&gt;campfire -->
<g id="edge23" class="edge"><title>round_tent&#45;&gt;campfire</title>
<path fill="none" stroke="#ebc72d" stroke-dasharray="1,5" d="M615.885,-391.907C620.422,-389.704 625.001,-387.608 629.474,-385.74 679.678,-364.774 696.265,-370.694 746.474,-349.74 759.869,-344.15 774.094,-336.786 786.127,-330.1"/>
<polygon fill="#ebc72d" stroke="#ebc72d" points="787.873,-333.134 794.851,-325.161 784.424,-327.042 787.873,-333.134"/>
</g>
<!-- training_field -->
<g id="node22" class="node"><title>training_field</title>
<g id="a_node22"><a xlink:href="indian_training_field_full.html" xlink:title="Training\nField">
<polygon fill="none" stroke="green" points="468.605,-349.74 364.996,-349.74 338.343,-273.74 441.952,-273.74 468.605,-349.74"/>
<text text-anchor="middle" x="403.474" y="-315.54" font-family="Times,serif" font-size="14.00" fill="#ebc72d">Training</text>
<text text-anchor="middle" x="403.474" y="-300.54" font-family="Times,serif" font-size="14.00" fill="#ebc72d">Field</text>
</a>
</g>
</g>
<!-- round_tent&#45;&gt;training_field -->
<g id="edge27" class="edge"><title>round_tent&#45;&gt;training_field</title>
<path fill="none" stroke="#ebc72d" d="M528.013,-391.675C510.614,-380.647 489.932,-367.539 470.471,-355.204"/>
<polygon fill="#ebc72d" stroke="#ebc72d" points="472.246,-352.185 461.926,-349.788 468.499,-358.098 472.246,-352.185"/>
</g>
<!-- big_tent&#45;&gt;archer -->
<g id="edge1" class="edge"><title>big_tent&#45;&gt;archer</title>
<path fill="none" stroke="#ebc72d" d="M697.983,-391.675C692.212,-375.698 684.865,-355.355 679.075,-339.323"/>
<polygon fill="#ebc72d" stroke="#ebc72d" points="682.216,-337.715 675.527,-329.499 675.632,-340.093 682.216,-337.715"/>
</g>
<!-- big_tent&#45;&gt;stickfighter -->
<g id="edge2" class="edge"><title>big_tent&#45;&gt;stickfighter</title>
<path fill="none" stroke="#ebc72d" d="M743.144,-405.789C778.465,-393.286 833.738,-372.479 879.474,-349.74 889.308,-344.851 899.647,-338.91 908.962,-333.233"/>
<polygon fill="#ebc72d" stroke="#ebc72d" points="910.88,-336.162 917.529,-327.913 907.187,-330.215 910.88,-336.162"/>
</g>
<!-- campfire&#45;&gt;fire_golem -->
<g id="edge6" class="edge"><title>campfire&#45;&gt;fire_golem</title>
<path fill="none" stroke="#ebc72d" d="M840.584,-297.111C869.051,-281.071 912.665,-254.503 921.474,-237.74 938.507,-205.328 928.401,-163.037 917.297,-133.885"/>
<polygon fill="#ebc72d" stroke="#ebc72d" points="920.514,-132.504 913.531,-124.536 914.021,-135.12 920.514,-132.504"/>
</g>
<!-- campfire&#45;&gt;totem -->
<g id="edge8" class="edge"><title>campfire&#45;&gt;totem</title>
<path fill="none" stroke="#ebc72d" stroke-dasharray="1,5" d="M838.045,-297.126C850.195,-289.941 865.515,-281.112 879.474,-273.74 912.17,-256.475 922.234,-255.843 954.474,-237.74 964.949,-231.858 976.109,-224.801 985.752,-218.435"/>
<polygon fill="#ebc72d" stroke="#ebc72d" points="987.754,-221.307 994.118,-212.836 983.861,-215.489 987.754,-221.307"/>
</g>
<!-- campfire&#45;&gt;fire_archer -->
<g id="edge5" class="edge"><title>campfire&#45;&gt;fire_archer</title>
<path fill="none" stroke="#ebc72d" stroke-dasharray="1,5" d="M781.886,-297.124C762.19,-289.502 736.69,-280.252 713.474,-273.74 602.355,-242.57 468.519,-219.141 398.855,-207.979"/>
<polygon fill="#ebc72d" stroke="#ebc72d" points="399.071,-204.469 388.646,-206.357 397.973,-211.382 399.071,-204.469"/>
</g>
<!-- iron -->
<g id="node23" class="node"><title>iron</title>
<g id="a_node23"><a xlink:href="indian_iron_full.html" xlink:title="Iron">
<polygon fill="none" stroke="green" points="912.804,-217.74 853.42,-217.74 838.144,-181.74 897.528,-181.74 912.804,-217.74"/>
<text text-anchor="middle" x="875.474" y="-196.04" font-family="Times,serif" font-size="14.00" fill="#ebc72d">Iron</text>
</a>
</g>
</g>
<!-- campfire&#45;&gt;iron -->
<g id="edge7" class="edge"><title>campfire&#45;&gt;iron</title>
<path fill="none" stroke="#ebc72d" d="M823.073,-296.809C832.675,-279.205 849.39,-248.561 861.361,-226.613"/>
<polygon fill="#ebc72d" stroke="#ebc72d" points="864.451,-228.258 866.167,-217.803 858.306,-224.906 864.451,-228.258"/>
</g>
<!-- advanced_iron -->
<g id="node25" class="node"><title>advanced_iron</title>
<g id="a_node25"><a xlink:href="indian_advanced_iron_full.html" xlink:title="Advanced\nIron">
<polygon fill="none" stroke="green" points="820.193,-237.74 702.922,-237.74 672.755,-161.74 790.025,-161.74 820.193,-237.74"/>
<text text-anchor="middle" x="746.474" y="-203.54" font-family="Times,serif" font-size="14.00" fill="#ebc72d">Advanced</text>
<text text-anchor="middle" x="746.474" y="-188.54" font-family="Times,serif" font-size="14.00" fill="#ebc72d">Iron</text>
</a>
</g>
</g>
<!-- campfire&#45;&gt;advanced_iron -->
<g id="edge4" class="edge"><title>campfire&#45;&gt;advanced_iron</title>
<path fill="none" stroke="#ebc72d" d="M806.735,-296.809C798.819,-284.189 786.7,-264.869 775.4,-246.855"/>
<polygon fill="#ebc72d" stroke="#ebc72d" points="778.22,-244.763 769.941,-238.151 772.29,-248.483 778.22,-244.763"/>
</g>
<!-- iron&#45;&gt;horseman -->
<g id="edge14" class="edge"><title>iron&#45;&gt;horseman</title>
<path fill="none" stroke="#ebc72d" stroke-dasharray="1,5" d="M859.123,-181.682C850.955,-174.257 840.479,-166.238 829.474,-161.74 777.594,-140.534 405.899,-113.482 261.568,-103.654"/>
<polygon fill="#ebc72d" stroke="#ebc72d" points="261.382,-100.133 251.168,-102.948 260.908,-107.117 261.382,-100.133"/>
</g>
<!-- iron&#45;&gt;axe_indian -->
<g id="edge12" class="edge"><title>iron&#45;&gt;axe_indian</title>
<path fill="none" stroke="#ebc72d" stroke-dasharray="1,5" d="M857.399,-181.469C849.358,-174.539 839.46,-166.972 829.474,-161.74 814.652,-153.974 720.537,-127.404 663.777,-111.721"/>
<polygon fill="#ebc72d" stroke="#ebc72d" points="664.554,-108.305 653.983,-109.021 662.693,-115.053 664.554,-108.305"/>
</g>
<!-- iron&#45;&gt;axe_thrower -->
<g id="edge13" class="edge"><title>iron&#45;&gt;axe_thrower</title>
<path fill="none" stroke="#ebc72d" stroke-dasharray="1,5" d="M857.707,-181.518C842.824,-167.092 821.253,-146.183 803.667,-129.136"/>
<polygon fill="#ebc72d" stroke="#ebc72d" points="806.021,-126.544 796.404,-122.097 801.149,-131.57 806.021,-126.544"/>
</g>
<!-- bull_food&#45;&gt;bull -->
<g id="edge3" class="edge"><title>bull_food&#45;&gt;bull</title>
<path fill="none" stroke="#ebc72d" stroke-dasharray="1,5" d="M84.3486,-273.499C81.0543,-258.4 77.3236,-241.301 74.3069,-227.474"/>
<polygon fill="#ebc72d" stroke="#ebc72d" points="77.7095,-226.651 72.1582,-217.626 70.8704,-228.143 77.7095,-226.651"/>
</g>
<!-- stables&#45;&gt;horseman -->
<g id="edge30" class="edge"><title>stables&#45;&gt;horseman</title>
<path fill="none" stroke="#ebc72d" stroke-dasharray="1,5" d="M204.474,-181.518C204.474,-166.49 204.474,-144.428 204.474,-127.024"/>
<polygon fill="#ebc72d" stroke="#ebc72d" points="207.974,-126.895 204.474,-116.895 200.974,-126.895 207.974,-126.895"/>
</g>
</g>
</svg>
