<?xml version="1.0" encoding="UTF-8" standalone="no"?>
<!DOCTYPE svg PUBLIC "-//W3C//DTD SVG 1.1//EN"
 "http://www.w3.org/Graphics/SVG/1.1/DTD/svg11.dtd">
<!-- Generated by graphviz version 2.38.0 (20140413.2041)
 -->
<!-- Title: test Pages: 1 -->
<svg width="367pt" height="495pt"
 viewBox="0.00 0.00 367.18 495.28" xmlns="http://www.w3.org/2000/svg" xmlns:xlink="http://www.w3.org/1999/xlink">
<g id="graph0" class="graph" transform="scale(1 1) rotate(0) translate(4 491.279)">
<title>test</title>
<polygon fill="#151515" stroke="none" points="-4,4 -4,-491.279 363.184,-491.279 363.184,4 -4,4"/>
<!-- horse_farm -->
<g id="node1" class="node"><title>horse_farm</title>
<g id="a_node1"><a xlink:href="indian_horse_farm_full.html" xlink:title="Horse\nFarm">
<polygon fill="none" stroke="red" points="104.004,-187.543 61.3484,-210.641 18.6926,-187.543 18.7324,-150.17 103.964,-150.17 104.004,-187.543"/>
<text text-anchor="middle" x="61.3484" y="-181.013" font-family="Times,serif" font-size="14.00" fill="#ebc72d">Horse</text>
<text text-anchor="middle" x="61.3484" y="-166.013" font-family="Times,serif" font-size="14.00" fill="#ebc72d">Farm</text>
</a>
</g>
</g>
<!-- reed -->
<g id="node2" class="node"><title>reed</title>
<g id="a_node2"><a xlink:href="indian_reed_full.html" xlink:title="Reed">
<polygon fill="none" stroke="red" points="70.5459,-95.5623 35.3484,-108 0.150945,-95.5623 0.183798,-75.4377 70.513,-75.4377 70.5459,-95.5623"/>
<text text-anchor="middle" x="35.3484" y="-86.3" font-family="Times,serif" font-size="14.00" fill="#ebc72d">Reed</text>
</a>
</g>
</g>
<!-- beehive -->
<g id="node4" class="node"><title>beehive</title>
<g id="a_node4"><a xlink:href="indian_beehive_full.html" xlink:title="Beehive">
<polygon fill="none" stroke="red" points="154.36,-23.5623 105.348,-36 56.3369,-23.5623 56.3827,-3.43769 154.314,-3.43769 154.36,-23.5623"/>
<text text-anchor="middle" x="105.348" y="-14.3" font-family="Times,serif" font-size="14.00" fill="#ebc72d">Beehive</text>
</a>
</g>
</g>
<!-- reed&#45;&gt;beehive -->
<g id="edge6" class="edge"><title>reed&#45;&gt;beehive</title>
<path fill="none" stroke="#ebc72d" stroke-dasharray="1,5" d="M49.1782,-75.1703C59.245,-65.1034 73.0546,-51.2938 84.4617,-39.8867"/>
<polygon fill="#ebc72d" stroke="#ebc72d" points="86.9512,-42.347 91.5474,-32.801 82.0014,-37.3972 86.9512,-42.347"/>
</g>
<!-- totem -->
<g id="node3" class="node"><title>totem</title>
<g id="a_node3"><a xlink:href="indian_totem_full.html" xlink:title="Totem">
<polygon fill="none" stroke="red" points="219.006,-95.5623 176.348,-108 133.691,-95.5623 133.731,-75.4377 218.966,-75.4377 219.006,-95.5623"/>
<text text-anchor="middle" x="176.348" y="-86.3" font-family="Times,serif" font-size="14.00" fill="#ebc72d">Totem</text>
</a>
</g>
</g>
<!-- totem&#45;&gt;beehive -->
<g id="edge12" class="edge"><title>totem&#45;&gt;beehive</title>
<path fill="none" stroke="#ebc72d" stroke-dasharray="1,5" d="M162.321,-75.1703C152.11,-65.1034 138.104,-51.2938 126.533,-39.8867"/>
<polygon fill="#ebc72d" stroke="#ebc72d" points="128.925,-37.3294 119.347,-32.801 124.01,-42.3142 128.925,-37.3294"/>
</g>
<!-- tent -->
<g id="node5" class="node"><title>tent</title>
<g id="a_node5"><a xlink:href="indian_tent_full.html" xlink:title="Tent">
<polygon fill="none" stroke="red" points="292.225,-372.415 259.348,-384.853 226.472,-372.415 226.502,-352.291 292.194,-352.291 292.225,-372.415"/>
<text text-anchor="middle" x="259.348" y="-363.153" font-family="Times,serif" font-size="14.00" fill="#ebc72d">Tent</text>
</a>
</g>
</g>
<!-- tent&#45;&gt;totem -->
<g id="edge11" class="edge"><title>tent&#45;&gt;totem</title>
<path fill="none" stroke="#ebc72d" stroke-dasharray="1,5" d="M261.645,-352.109C267.029,-315.702 277.373,-214.722 240.348,-144 232.574,-129.15 218.674,-116.862 205.809,-107.87"/>
<polygon fill="#ebc72d" stroke="#ebc72d" points="207.435,-104.75 197.156,-102.18 203.589,-110.599 207.435,-104.75"/>
</g>
<!-- round_tent -->
<g id="node6" class="node"><title>round_tent</title>
<g id="a_node6"><a xlink:href="indian_round_tent_full.html" xlink:title="Round\nTent">
<polygon fill="none" stroke="red" points="222.496,-289.969 176.348,-313.067 130.2,-289.969 130.243,-252.596 222.453,-252.596 222.496,-289.969"/>
<text text-anchor="middle" x="176.348" y="-283.44" font-family="Times,serif" font-size="14.00" fill="#ebc72d">Round</text>
<text text-anchor="middle" x="176.348" y="-268.44" font-family="Times,serif" font-size="14.00" fill="#ebc72d">Tent</text>
</a>
</g>
</g>
<!-- tent&#45;&gt;round_tent -->
<g id="edge10" class="edge"><title>tent&#45;&gt;round_tent</title>
<path fill="none" stroke="#ebc72d" stroke-dasharray="1,5" d="M246.013,-352.162C234.931,-340.784 218.775,-324.197 204.811,-309.861"/>
<polygon fill="#ebc72d" stroke="#ebc72d" points="207.231,-307.33 197.747,-302.608 202.217,-312.214 207.231,-307.33"/>
</g>
<!-- big_tent -->
<g id="node8" class="node"><title>big_tent</title>
<g id="a_node8"><a xlink:href="indian_big_tent_full.html" xlink:title="Big\nTent">
<polygon fill="none" stroke="red" points="359.02,-289.969 323.348,-313.067 287.677,-289.969 287.71,-252.596 358.986,-252.596 359.02,-289.969"/>
<text text-anchor="middle" x="323.348" y="-283.44" font-family="Times,serif" font-size="14.00" fill="#ebc72d">Big</text>
<text text-anchor="middle" x="323.348" y="-268.44" font-family="Times,serif" font-size="14.00" fill="#ebc72d">Tent</text>
</a>
</g>
</g>
<!-- tent&#45;&gt;big_tent -->
<g id="edge9" class="edge"><title>tent&#45;&gt;big_tent</title>
<path fill="none" stroke="#ebc72d" stroke-dasharray="1,5" d="M269.631,-352.162C278.02,-340.993 290.178,-324.804 300.807,-310.652"/>
<polygon fill="#ebc72d" stroke="#ebc72d" points="303.642,-312.706 306.849,-302.608 298.045,-308.502 303.642,-312.706"/>
</g>
<!-- round_tent&#45;&gt;horse_farm -->
<g id="edge8" class="edge"><title>round_tent&#45;&gt;horse_farm</title>
<path fill="none" stroke="#ebc72d" stroke-dasharray="1,5" d="M146.434,-252.516C129.848,-238.032 109.249,-220.044 92.474,-205.394"/>
<polygon fill="#ebc72d" stroke="#ebc72d" points="94.4148,-202.442 84.5804,-198.501 89.8104,-207.715 94.4148,-202.442"/>
</g>
<!-- campfire -->
<g id="node9" class="node"><title>campfire</title>
<g id="a_node9"><a xlink:href="indian_campfire_full.html" xlink:title="Campfire">
<polygon fill="none" stroke="red" points="231.107,-182.776 176.348,-195.213 121.589,-182.776 121.64,-162.651 231.056,-162.651 231.107,-182.776"/>
<text text-anchor="middle" x="176.348" y="-173.513" font-family="Times,serif" font-size="14.00" fill="#ebc72d">Campfire</text>
</a>
</g>
</g>
<!-- round_tent&#45;&gt;campfire -->
<g id="edge7" class="edge"><title>round_tent&#45;&gt;campfire</title>
<path fill="none" stroke="#ebc72d" stroke-dasharray="1,5" d="M176.348,-252.516C176.348,-238.159 176.348,-220.359 176.348,-205.781"/>
<polygon fill="#ebc72d" stroke="#ebc72d" points="179.849,-205.371 176.348,-195.371 172.849,-205.371 179.849,-205.371"/>
</g>
<!-- main_teepee -->
<g id="node7" class="node"><title>main_teepee</title>
<g id="a_node7"><a xlink:href="indian_main_teepee_full.html" xlink:title="Main\nTeepee">
<polygon fill="none" stroke="red" points="308.24,-464.396 259.348,-487.494 210.457,-464.396 210.502,-427.022 308.194,-427.022 308.24,-464.396"/>
<text text-anchor="middle" x="259.348" y="-457.866" font-family="Times,serif" font-size="14.00" fill="#ebc72d">Main</text>
<text text-anchor="middle" x="259.348" y="-442.866" font-family="Times,serif" font-size="14.00" fill="#ebc72d">Teepee</text>
</a>
</g>
</g>
<!-- main_teepee&#45;&gt;horse_farm -->
<g id="edge3" class="edge"><title>main_teepee&#45;&gt;horse_farm</title>
<path fill="none" stroke="#ebc72d" stroke-dasharray="1,5" d="M61.3484,-278.64C58.1147,-259.435 57.7029,-237.87 58.2661,-219.661"/>
<polygon fill="#ebc72d" stroke="#ebc72d" points="61.7638,-219.786 58.6818,-209.649 54.7698,-219.495 61.7638,-219.786"/>
</g>
<!-- main_teepee&#45;&gt;reed -->
<g id="edge4" class="edge"><title>main_teepee&#45;&gt;reed</title>
<path fill="none" stroke="#ebc72d" stroke-dasharray="1,5" d="M210.236,-432.95C155.846,-407.116 74.1017,-356.38 61.3484,-280.64"/>
<path fill="none" stroke="#ebc72d" stroke-dasharray="1,5" d="M61.3484,-278.64C45.5573,-243.943 21.5451,-246.544 9.34841,-210.426 -0.0971963,-182.455 2.67433,-172.759 9.34841,-144 11.7558,-133.626 16.4923,-122.942 21.2705,-113.909"/>
<polygon fill="#ebc72d" stroke="#ebc72d" points="24.33,-115.609 26.1692,-105.175 18.2247,-112.185 24.33,-115.609"/>
</g>
<!-- main_teepee&#45;&gt;tent -->
<g id="edge5" class="edge"><title>main_teepee&#45;&gt;tent</title>
<path fill="none" stroke="#ebc72d" stroke-dasharray="1,5" d="M259.348,-426.571C259.348,-416.597 259.348,-405.241 259.348,-395.191"/>
<polygon fill="#ebc72d" stroke="#ebc72d" points="262.849,-394.926 259.348,-384.926 255.849,-394.926 262.849,-394.926"/>
</g>
<!-- main_teepee&#45;&gt;big_tent -->
<g id="edge2" class="edge"><title>main_teepee&#45;&gt;big_tent</title>
<path fill="none" stroke="#ebc72d" stroke-dasharray="1,5" d="M278.352,-426.977C286.496,-414.714 295.468,-399.576 301.348,-384.853 309.466,-364.526 314.781,-340.717 318.148,-320.991"/>
<polygon fill="#ebc72d" stroke="#ebc72d" points="321.609,-321.517 319.737,-311.088 314.697,-320.408 321.609,-321.517"/>
</g>
<!-- campfire&#45;&gt;totem -->
<g id="edge1" class="edge"><title>campfire&#45;&gt;totem</title>
<path fill="none" stroke="#ebc72d" stroke-dasharray="1,5" d="M176.348,-162.522C176.348,-150.635 176.348,-133.062 176.348,-118.31"/>
<polygon fill="#ebc72d" stroke="#ebc72d" points="179.849,-118.188 176.348,-108.188 172.849,-118.188 179.849,-118.188"/>
</g>
</g>
</svg>
